<?xml version="1.0" encoding="UTF-8" standalone="no"?>
<svg
  xmlns:dc="http://purl.org/dc/elements/1.1/"
  xmlns:cc="http://creativecommons.org/ns#"
  xmlns:rdf="http://www.w3.org/1999/02/22-rdf-syntax-ns#"
  xmlns:svg="http://www.w3.org/2000/svg"
  xmlns="http://www.w3.org/2000/svg"
  viewBox="386 381 163 150"
  width="400"
  height="400"
  xml:space="preserve"
  id="svg2"
  version="1.1">
  <g transform="matrix(1.3333333,0,0,-1.3333333,0,666.65333)" id="g10">
    <g transform="scale(0.1)" id="g12">
    <g id="g14">
    <g clip-path="url(#clipPath20)" id="g16">
      <path id="path116" style="fill:#ffffff;fill-opacity:1;fill-rule:evenodd;stroke:none" d="m 3506.09,2175.54 c -333.47,0 -603.88,-270.35 -603.88,-603.87 0,-266.81 173.03,-493.17 412.97,-573.022 30.18,-5.589 41.26,13.102 41.26,29.052 0,14.4 -0.56,61.97 -0.82,112.43 -168,-36.53 -203.45,71.25 -203.45,71.25 -27.47,69.8 -67.05,88.36 -67.05,88.36 -54.79,37.48 4.13,36.71 4.13,36.71 60.64,-4.25 92.57,-62.23 92.57,-62.23 53.86,-92.32 141.27,-65.63 175.73,-50.2 5.42,39.02 21.07,65.68 38.34,80.75 -134.13,15.27 -275.13,67.05 -275.13,298.44 0,65.93 23.59,119.8 62.22,162.09 -6.27,15.22 -26.94,76.63 5.85,159.81 0,0 50.71,16.23 166.11,-61.9 48.17,13.38 99.83,20.09 151.15,20.32 51.32,-0.23 103.02,-6.94 151.28,-20.32 115.26,78.13 165.9,61.9 165.9,61.9 32.87,-83.18 12.19,-144.59 5.92,-159.81 38.72,-42.29 62.15,-96.16 62.15,-162.09 0,-231.94 -141.27,-283.01 -275.74,-297.96 21.66,-18.74 40.96,-55.49 40.96,-111.83 0,-80.79 -0.7,-145.82 -0.7,-165.72 0,-16.07 10.87,-34.899 41.48,-28.97 239.81,79.94 412.62,306.22 412.62,572.94 0,333.52 -270.37,603.87 -603.87,603.87" />
      <path id="path118" style="fill:#ffffff;fill-opacity:1;fill-rule:nonzero;stroke:none" d="m 3130.93,1308.51 c -1.33,-3.01 -6.05,-3.9 -10.35,-1.84 -4.38,1.97 -6.84,6.06 -5.42,9.07 1.3,3.09 6.03,3.94 10.4,1.89 4.39,-1.98 6.89,-6.11 5.37,-9.12 v 0" />
      <path id="path120" style="fill:#ffffff;fill-opacity:1;fill-rule:nonzero;stroke:none" d="m 3155.39,1281.23 c -2.88,-2.67 -8.51,-1.43 -12.33,2.79 -3.95,4.21 -4.69,9.84 -1.77,12.55 2.97,2.67 8.43,1.42 12.39,-2.79 3.95,-4.26 4.72,-9.85 1.71,-12.55 v 0" />
      <path id="path122" style="fill:#ffffff;fill-opacity:1;fill-rule:nonzero;stroke:none" d="m 3179.2,1246.45 c -3.7,-2.57 -9.75,-0.16 -13.49,5.21 -3.7,5.37 -3.7,11.81 0.08,14.39 3.75,2.58 9.71,0.26 13.5,-5.07 3.69,-5.45 3.69,-11.9 -0.09,-14.53 v 0" />
      <path id="path124" style="fill:#ffffff;fill-opacity:1;fill-rule:nonzero;stroke:none" d="m 3211.82,1212.85 c -3.31,-3.65 -10.36,-2.67 -15.52,2.31 -5.28,4.87 -6.75,11.78 -3.43,15.43 3.35,3.66 10.44,2.63 15.64,-2.31 5.24,-4.86 6.84,-11.82 3.31,-15.43 v 0" />
      <path id="path126" style="fill:#ffffff;fill-opacity:1;fill-rule:nonzero;stroke:none" d="m 3256.82,1193.34 c -1.46,-4.73 -8.25,-6.88 -15.09,-4.87 -6.83,2.07 -11.3,7.61 -9.92,12.39 1.42,4.76 8.24,7 15.13,4.85 6.82,-2.06 11.3,-7.56 9.88,-12.37 v 0" />
      <path id="path128" style="fill:#ffffff;fill-opacity:1;fill-rule:nonzero;stroke:none" d="m 3306.24,1189.72 c 0.17,-4.98 -5.63,-9.11 -12.81,-9.19 -7.22,-0.17 -13.06,3.86 -13.14,8.76 0,5.03 5.67,9.12 12.89,9.24 7.18,0.14 13.06,-3.86 13.06,-8.81 v 0" />
      <path id="path130" style="fill:#ffffff;fill-opacity:1;fill-rule:nonzero;stroke:none" d="m 3352.23,1197.55 c 0.86,-4.86 -4.13,-9.85 -11.26,-11.17 -7.01,-1.29 -13.5,1.71 -14.39,6.53 -0.87,4.98 4.21,9.97 11.21,11.26 7.14,1.24 13.53,-1.68 14.44,-6.62 v 0" />
    </g>
    </g>
    </g>
  </g>
</svg>
