<?xml version="1.0" encoding="utf-8"?>
<svg xmlns="http://www.w3.org/2000/svg" viewBox="0 0 100 100">
  <path fill="white" d="
  M 12 2
  L 12 12
  L 16 12
  Q 20,12 20,15
  L 20 98
  L 34 98
  L 34 70
  Q 35,47 54,47
  Q 62,47 62,57
  L 62 66

  C 62,63 72,58 72,69
  C 71,80 62,79 62,74

  L 62 91
  Q 62,98 65,98
  L 87 98
  L 87 84
  L 82 84
  L 80 84
  Q 77,84 77,79
  L 77 55
  C 73,21 29,37 34,52
  L 34 8
  Q 34,2 29,2
  L 12 2
  "/>
  <circle fill="white" cx="45" cy="58" r="4" />
  <circle fill="white" cx="55" cy="60" r="4" />
  <path fill="white" d="
  M 40 65
  Q 40,81 44,80
  Q 51,79 57,68
  Q 43,74 40,66
  "/>
</svg>
