<svg width="600" height="600" viewBox="0 0 600 600" fill="none" xmlns="http://www.w3.org/2000/svg">
  <rect width="600" height="600" fill="#000"/>
  <path fill="#fff" d="M193.945 500.738V400.055H224.023V500.25C224.023 512.49 221.908 522.19 217.676 529.352C210.514 541.461 197.591 547.516 178.906 547.516C160.221 547.516 147.689 542.633 141.309 532.867C134.928 523.036 131.738 509.658 131.738 492.73V489.41H160.156V492.73C160.417 503.863 161.621 511.708 163.77 516.266C165.983 520.758 170.671 523.004 177.832 523.004C184.928 523.004 189.616 520.53 191.895 515.582C193.262 512.652 193.945 507.704 193.945 500.738ZM255.664 449.078C263.021 439.703 275.651 435.016 293.555 435.016C305.208 435.016 315.56 437.327 324.609 441.949C333.659 446.572 338.184 455.296 338.184 468.121V516.949C338.184 520.335 338.249 524.436 338.379 529.254C338.574 532.9 339.128 535.374 340.039 536.676C340.951 537.978 342.318 539.052 344.141 539.898V544H313.867C313.021 541.852 312.435 539.833 312.109 537.945C311.784 536.057 311.523 533.909 311.328 531.5C307.487 535.667 303.06 539.215 298.047 542.145C292.057 545.595 285.286 547.32 277.734 547.32C268.099 547.32 260.124 544.586 253.809 539.117C247.559 533.583 244.434 525.771 244.434 515.68C244.434 502.594 249.479 493.121 259.57 487.262C265.104 484.072 273.242 481.793 283.984 480.426L293.457 479.254C298.6 478.603 302.279 477.789 304.492 476.812C308.464 475.12 310.449 472.483 310.449 468.902C310.449 464.54 308.919 461.546 305.859 459.918C302.865 458.225 298.438 457.379 292.578 457.379C286.003 457.379 281.348 459.007 278.613 462.262C276.66 464.671 275.358 467.926 274.707 472.027H247.852C248.438 462.717 251.042 455.068 255.664 449.078ZM276.367 523.883C278.971 526.031 282.161 527.105 285.938 527.105C291.927 527.105 297.428 525.348 302.441 521.832C307.52 518.316 310.156 511.904 310.352 502.594V492.242C308.594 493.349 306.803 494.26 304.98 494.977C303.223 495.628 300.781 496.246 297.656 496.832L291.406 498.004C285.547 499.046 281.348 500.315 278.809 501.812C274.512 504.352 272.363 508.29 272.363 513.629C272.363 518.382 273.698 521.799 276.367 523.883ZM455.078 475.738H426.562C426.042 471.767 424.707 468.186 422.559 464.996C419.434 460.699 414.583 458.551 408.008 458.551C398.633 458.551 392.22 463.206 388.77 472.516C386.947 477.464 386.035 484.039 386.035 492.242C386.035 500.055 386.947 506.337 388.77 511.09C392.09 519.944 398.34 524.371 407.52 524.371C414.03 524.371 418.652 522.613 421.387 519.098C424.121 515.582 425.781 511.025 426.367 505.426H454.785C454.134 513.889 451.074 521.897 445.605 529.449C436.882 541.624 423.958 547.711 406.836 547.711C389.714 547.711 377.116 542.633 369.043 532.477C360.97 522.32 356.934 509.137 356.934 492.926C356.934 474.632 361.393 460.406 370.312 450.25C379.232 440.094 391.536 435.016 407.227 435.016C420.573 435.016 431.478 438.01 439.941 444C448.47 449.99 453.516 460.569 455.078 475.738ZM571.973 544H538.379L512.891 498.492L501.367 510.504V544H474.023V400.543H501.367V478.082L536.035 438.043H570.508L533.301 478.766L571.973 544Z"/>
</svg>