<svg width="600" height="600" viewBox="0 0 600 600" fill="none" xmlns="http://www.w3.org/2000/svg">
  <rect x="0"   y="0"   width="100" height="100" fill="#fff"/>
  <rect x="100" y="0"   width="100" height="100" fill="#000"/>
  <rect x="200" y="0"   width="100" height="100" fill="#999"/>
  <rect x="300" y="0"   width="100" height="100" fill="#666"/>
  <rect x="400" y="0"   width="100" height="100" fill="#fff"/>
  <rect x="500" y="0"   width="100" height="100" fill="#666"/>

  <rect x="0"   y="100" width="100" height="100" fill="#666"/>
  <rect x="100" y="100" width="100" height="100" fill="#fff"/>
  <rect x="200" y="100" width="100" height="100" fill="#666"/>
  <rect x="300" y="100" width="100" height="100" fill="#000"/>
  <rect x="400" y="100" width="100" height="100" fill="#ccc"/>
  <rect x="500" y="100" width="100" height="100" fill="#fff"/>

  <rect x="0"   y="200" width="100" height="100" fill="#999"/>
  <rect x="100" y="200" width="100" height="100" fill="#666"/>
  <rect x="200" y="200" width="100" height="100" fill="#999"/>
  <rect x="300" y="200" width="100" height="100" fill="#fff"/>
  <rect x="400" y="200" width="100" height="100" fill="#666"/>
  <rect x="500" y="200" width="100" height="100" fill="#000"/>

  <rect x="0"   y="300" width="100" height="100" fill="#333"/>
  <rect x="100" y="300" width="100" height="100" fill="#fff"/>
  <rect x="200" y="300" width="100" height="100" fill="#333"/>
  <rect x="300" y="300" width="100" height="100" fill="#666"/>
  <rect x="400" y="300" width="100" height="100" fill="#fff"/>
  <rect x="500" y="300" width="100" height="100" fill="#ccc"/>

  <rect x="0"   y="400" width="100" height="100" fill="#fff"/>
  <rect x="100" y="400" width="100" height="100" fill="#999"/>
  <rect x="200" y="400" width="400" height="100" fill="#fff"/>
  <path fill="#333" d="M254.189 446.998C253.369 445.198 251.763 444.298 249.37 444.298C246.59 444.298 244.722 445.198 243.765 446.998C243.241 448.023 242.979 449.55 242.979 451.578V474H233.101V436.812H242.568V442.247C243.776 440.31 244.915 438.932 245.986 438.111C247.878 436.653 250.327 435.924 253.335 435.924C256.183 435.924 258.485 436.55 260.239 437.804C261.652 438.966 262.723 440.458 263.452 442.281C264.728 440.094 266.312 438.487 268.203 437.462C270.208 436.437 272.441 435.924 274.902 435.924C276.543 435.924 278.161 436.243 279.756 436.881C281.351 437.519 282.798 438.635 284.097 440.23C285.145 441.529 285.851 443.124 286.216 445.016C286.444 446.269 286.558 448.103 286.558 450.519L286.489 474H276.509V450.279C276.509 448.867 276.281 447.704 275.825 446.793C274.959 445.061 273.364 444.195 271.04 444.195C268.351 444.195 266.494 445.312 265.469 447.545C264.945 448.73 264.683 450.154 264.683 451.817V474H254.873V451.817C254.873 449.607 254.645 448.001 254.189 446.998ZM326.616 441.461C329.761 445.403 331.333 450.063 331.333 455.44C331.333 460.909 329.761 465.592 326.616 469.488C323.472 473.362 318.698 475.299 312.295 475.299C305.892 475.299 301.118 473.362 297.974 469.488C294.829 465.592 293.257 460.909 293.257 455.44C293.257 450.063 294.829 445.403 297.974 441.461C301.118 437.519 305.892 435.548 312.295 435.548C318.698 435.548 323.472 437.519 326.616 441.461ZM312.261 443.785C309.412 443.785 307.214 444.799 305.664 446.827C304.137 448.832 303.374 451.703 303.374 455.44C303.374 459.177 304.137 462.06 305.664 464.088C307.214 466.116 309.412 467.13 312.261 467.13C315.109 467.13 317.297 466.116 318.823 464.088C320.35 462.06 321.113 459.177 321.113 455.44C321.113 451.703 320.35 448.832 318.823 446.827C317.297 444.799 315.109 443.785 312.261 443.785ZM367.085 474H334.922V466.412L354.028 444.674H336.221V436.744H366.436V444.845L347.534 466.002H367.085V474ZM374.741 440.777C377.316 437.496 381.737 435.855 388.003 435.855C392.082 435.855 395.705 436.664 398.872 438.282C402.039 439.9 403.623 442.953 403.623 447.442V464.532C403.623 465.717 403.646 467.153 403.691 468.839C403.76 470.115 403.953 470.981 404.272 471.437C404.591 471.892 405.07 472.268 405.708 472.564V474H395.112C394.816 473.248 394.611 472.542 394.497 471.881C394.383 471.22 394.292 470.468 394.224 469.625C392.879 471.083 391.33 472.325 389.575 473.351C387.479 474.558 385.109 475.162 382.466 475.162C379.093 475.162 376.302 474.205 374.092 472.291C371.904 470.354 370.811 467.62 370.811 464.088C370.811 459.508 372.576 456.192 376.108 454.142C378.045 453.025 380.894 452.228 384.653 451.749L387.969 451.339C389.769 451.111 391.056 450.826 391.831 450.484C393.221 449.892 393.916 448.969 393.916 447.716C393.916 446.189 393.381 445.141 392.31 444.571C391.261 443.979 389.712 443.683 387.661 443.683C385.36 443.683 383.73 444.252 382.773 445.392C382.09 446.235 381.634 447.374 381.406 448.81H372.007C372.212 445.551 373.123 442.874 374.741 440.777ZM381.987 466.959C382.899 467.711 384.015 468.087 385.337 468.087C387.433 468.087 389.359 467.472 391.113 466.241C392.891 465.011 393.813 462.766 393.882 459.508V455.885C393.267 456.272 392.64 456.591 392.002 456.842C391.387 457.07 390.532 457.286 389.438 457.491L387.251 457.901C385.2 458.266 383.73 458.71 382.842 459.234C381.338 460.123 380.586 461.502 380.586 463.37C380.586 465.034 381.053 466.23 381.987 466.959ZM422.319 436.744V474H412.441V436.744H422.319ZM422.319 423.312V432.301H412.441V423.312H422.319ZM464.019 450.108H454.038C453.856 448.718 453.389 447.465 452.637 446.349C451.543 444.845 449.845 444.093 447.544 444.093C444.263 444.093 442.018 445.722 440.811 448.98C440.173 450.712 439.854 453.014 439.854 455.885C439.854 458.619 440.173 460.818 440.811 462.481C441.973 465.58 444.16 467.13 447.373 467.13C449.652 467.13 451.27 466.515 452.227 465.284C453.184 464.054 453.765 462.459 453.97 460.499H463.916C463.688 463.461 462.617 466.264 460.703 468.907C457.65 473.168 453.127 475.299 447.134 475.299C441.141 475.299 436.732 473.521 433.906 469.967C431.081 466.412 429.668 461.798 429.668 456.124C429.668 449.721 431.229 444.742 434.351 441.188C437.472 437.633 441.779 435.855 447.271 435.855C451.942 435.855 455.758 436.904 458.721 439C461.706 441.096 463.472 444.799 464.019 450.108ZM470.581 463.814H480.938V474H470.581V463.814ZM507.7 423.312V431.241C507.153 431.173 506.23 431.127 504.932 431.104C503.656 431.059 502.767 431.344 502.266 431.959C501.787 432.551 501.548 433.212 501.548 433.941V437.086H507.939V443.956H501.548V474H491.841V443.956H486.406V437.086H491.738V434.693C491.738 430.706 492.41 427.96 493.755 426.456C495.168 424.223 498.574 423.106 503.975 423.106C504.59 423.106 505.148 423.129 505.649 423.175C506.151 423.198 506.834 423.243 507.7 423.312ZM534.463 446.998C533.643 445.198 532.036 444.298 529.644 444.298C526.864 444.298 524.995 445.198 524.038 446.998C523.514 448.023 523.252 449.55 523.252 451.578V474H513.374V436.812H522.842V442.247C524.049 440.31 525.189 438.932 526.26 438.111C528.151 436.653 530.601 435.924 533.608 435.924C536.457 435.924 538.758 436.55 540.513 437.804C541.925 438.966 542.996 440.458 543.726 442.281C545.002 440.094 546.585 438.487 548.477 437.462C550.482 436.437 552.715 435.924 555.176 435.924C556.816 435.924 558.434 436.243 560.029 436.881C561.624 437.519 563.071 438.635 564.37 440.23C565.418 441.529 566.125 443.124 566.489 445.016C566.717 446.269 566.831 448.103 566.831 450.519L566.763 474H556.782V450.279C556.782 448.867 556.554 447.704 556.099 446.793C555.233 445.061 553.638 444.195 551.313 444.195C548.625 444.195 546.768 445.312 545.742 447.545C545.218 448.73 544.956 450.154 544.956 451.817V474H535.146V451.817C535.146 449.607 534.919 448.001 534.463 446.998Z"/>

  <rect x="0"   y="500" width="100" height="100" fill="#999"/>
  <rect x="100" y="500" width="100" height="100" fill="#fff"/>
  <rect x="200" y="500" width="100" height="100" fill="#ccc"/>
  <rect x="300" y="500" width="100" height="100" fill="#666"/>
  <rect x="400" y="500" width="100" height="100" fill="#999"/>
  <rect x="500" y="500" width="100" height="100" fill="#000"/>
</svg>