<?xml version="1.0" encoding="utf-8"?>
<svg id="main" xmlns="http://www.w3.org/2000/svg" xmlns:xlink="http://www.w3.org/1999/xlink" viewBox="0 0 300 300">
  <!-- left-out -->
  <path d="
  M49.8,77
  L38.4,72.1
  A136.5 136.5 0 0 0 28.3 211
  L39.1,205.5
  A124 124 0 0 1 49.8,77
  "
  />

  <!-- right-out -->
  <path d="
  M250.2,77
  L261.5,72.2
  A135.5 135.5 0 0 1 271.7 210.9
  L260.9,205.4
  A124 124 0 0 0 250.2,77
  "
  />

  <!-- right-in -->
  <path d="
  M242.7,80.2
  L231.2,85.1
  A105 105 0 0 1 243 196.6
  L253.8,201.9
  A116 116 0 0 0 242.7 80.2
  "
  />

  <!-- left-in -->
  <path d="
  M68.7,85.1
  L57.3,80.2
  A116 116 0 0 0 46.2 202
  L57,196.5
  A105 105 0 0 1 68.7 85.1
  "
  />

  <!-- top -->
  <circle
    cx="150"
    cy="40"
    r="14"
  />

  <!-- body-->
  <path d="
    M220,120
    A70 70 0 0 0 150 50
    A70 70 0 0 0 80 120
    L80,170
    L50,240
    L250,240
    L220,170
    L220,120
  "/>

  <!-- bottom -->
  <path d="
  M150,250
  L180,250
  A30 30 0 0 1 150 280
  A30 30 0 0 1 120 250
  "/>
</svg>
