<?xml version="1.0" encoding="utf-8"?>
<svg contentScriptType="text/ecmascript" xmlns:xlink="http://www.w3.org/1999/xlink" zoomAndPan="magnify" contentStyleType="text/css" viewBox="-15.0 -15.0 330.0 330.0" xmlns:cacoo="http://cacoo.com/" preserveAspectRatio="xMidYMin meet" xmlns="http://www.w3.org/2000/svg" version="1.1"><g><g transform="translate(0.0 0.0)"><path fill="#ffffff" fill-opacity="1.0" d="M69.3406110490389 267.76051312678516 Q69.3406110490389 299.97463420819054 34.692023071645934 299.97463420819054 Q5.461745001249519E-6 299.97463420819054 5.461745001249519E-6 267.76051312678516 Q5.461745001249519E-6 235.58671969238682 34.692023071645934 235.58671969238682 Q69.3406110490389 235.58671969238682 69.3406110490389 267.76051312678516 L69.3406110490389 267.76051312678516z" stroke="none"/><path fill="#ffffff" fill-opacity="1.0" d="M212.28436120340447 87.8407506022568 Q124.49388284556915 0.0 0.655407491693596 0.0 L0.0 58.07023456320523 Q100.47921396386151 58.07023456320523 171.22569295890034 129.04938506402934 Q241.90399162532435 199.96009889691874 242.07819398297767 299.99999999999994 L299.9999999999999 299.99999999999994 Q299.9999999999999 175.93841764929616 212.29802922033588 87.85341067579556 L212.28436120340447 87.8407506022568z" stroke="none"/><path fill="#ffffff" fill-opacity="1.0" d="M0.0 101.35665905921137 L0.0 159.40154304551788 Q57.93205498156659 159.90525801952575 99.04702562468707 200.93666413084816 Q140.130845205043 241.93694307087594 140.98127986891808 299.97465069101037 L198.91674024850929 299.97465069101037 Q198.22035410313578 218.02827057182694 140.04252878794767 159.93246735133758 Q81.86014837740655 101.8321056675542 0.0 101.35665905921137 L0.0 101.35665905921137z" stroke="none"/></g></g></svg>
