<svg contentScriptType="text/ecmascript" viewBox="-15 -15 250 158" preserveAspectRatio="xMidYMin meet" xmlns="http://www.w3.org/2000/svg"><defs><marker refY="7" markerUnits="userSpaceOnUse" orient="auto" id="a" markerHeight="14" viewBox="0 0 14 14" preserveAspectRatio="xMidYMid meet" markerWidth="14" overflow="visible"><path fill="none" d="M7 3.5L0 7l7 3.5" stroke-linejoin="round" stroke-linecap="round" stroke="#999"/></marker><marker refX="14" refY="7" markerUnits="userSpaceOnUse" orient="auto" id="b" markerHeight="14" viewBox="0 0 14 14" preserveAspectRatio="xMidYMid meet" markerWidth="14" overflow="visible"><path fill="none" d="M7 3.5L14 7l-7 3.5" stroke-linejoin="round" stroke-linecap="round" stroke="#999"/></marker><marker refY="7" markerUnits="userSpaceOnUse" orient="auto" id="c" markerHeight="14" viewBox="0 0 14 14" preserveAspectRatio="xMidYMid meet" markerWidth="14" overflow="visible"><path fill="none" d="M7 3.5L0 7l7 3.5" stroke-linejoin="round" stroke-linecap="round" stroke="#999"/></marker><marker refX="14" refY="7" markerUnits="userSpaceOnUse" orient="auto" id="d" markerHeight="14" viewBox="0 0 14 14" preserveAspectRatio="xMidYMid meet" markerWidth="14" overflow="visible"><path fill="none" d="M7 3.5L14 7l-7 3.5" stroke-linejoin="round" stroke-linecap="round" stroke="#999"/></marker><marker refY="7" markerUnits="userSpaceOnUse" orient="auto" id="e" markerHeight="14" viewBox="0 0 14 14" preserveAspectRatio="xMidYMid meet" markerWidth="14" overflow="visible"><path fill="none" d="M7 3.5L0 7l7 3.5" stroke-linejoin="round" stroke-linecap="round" stroke="#999"/></marker><marker refX="14" refY="7" markerUnits="userSpaceOnUse" orient="auto" id="f" markerHeight="14" viewBox="0 0 14 14" preserveAspectRatio="xMidYMid meet" markerWidth="14" overflow="visible"><path fill="none" d="M7 3.5L14 7l-7 3.5" stroke-linejoin="round" stroke-linecap="round" stroke="#999"/></marker><marker refY="7" markerUnits="userSpaceOnUse" orient="auto" id="i" markerHeight="14" viewBox="0 0 14 14" preserveAspectRatio="xMidYMid meet" markerWidth="14" overflow="visible"><path fill="none" d="M7 3.5L0 7l7 3.5" stroke-linejoin="round" stroke-linecap="round" stroke="#999"/></marker><marker refX="14" refY="7" markerUnits="userSpaceOnUse" orient="auto" id="j" markerHeight="14" viewBox="0 0 14 14" preserveAspectRatio="xMidYMid meet" markerWidth="14" overflow="visible"><path fill="none" d="M7 3.5L14 7l-7 3.5" stroke-linejoin="round" stroke-linecap="round" stroke="#999"/></marker></defs><path marker-start="url(#a)" fill="none" d="M5.458 0v126.682" stroke-linejoin="round" stroke="#999" transform="translate(10.315 .563)"/><path fill="none" marker-end="url(#b)" d="M4.922 0v126.682" stroke-linejoin="round" stroke="#999" transform="translate(17.315 .563)"/><path marker-start="url(#c)" fill="none" d="M5.458 0v126.682" stroke-linejoin="round" stroke="#999" transform="translate(101.315 .563)"/><path fill="none" marker-end="url(#d)" d="M4.922 0v126.682" stroke-linejoin="round" stroke="#999" transform="translate(108.575 .563)"/><path marker-start="url(#e)" fill="none" d="M5.458 0v36.777" stroke-linejoin="round" stroke="#999" transform="translate(137.19 90.148)"/><path fill="none" marker-end="url(#f)" d="M4.922 0v36.777" stroke-linejoin="round" stroke="#999" transform="translate(144.315 90.148)"/><path fill="#fff" d="M84.668 70.427H25.315q-3 0-3 3v13.69q0 3 3 3h59.353q3 0 3-3v-13.69q0-3-3-3z" stroke-width="2" stroke-linejoin="round" stroke="#666"/><g transform="translate(24.315 70.427)"><defs><clipPath id="g"><path d="M0 0h61.353v19.69H0z"/></clipPath></defs><text font-size="12" clip-path="url(#g)" fill="#ed4580" font-family="Arial,Arial"><tspan x="7" y="13.845" textLength="46">max-age</tspan></text></g><path fill="#fff" d="M175.668 70.459h-59.353q-3 0-3 3v13.69q0 3 3 3h59.353q3 0 3-3v-13.69q0-3-3-3z" stroke-width="2" stroke-linejoin="round" stroke="#666"/><g transform="translate(115.315 70.459)"><defs><clipPath id="h"><path d="M0 0h61.353v19.69H0z"/></clipPath></defs><text font-size="12" clip-path="url(#h)" fill="#ed4580" font-family="Arial,Arial"><tspan x="7" y="13.845" textLength="46">max-age</tspan></text></g><g fill="none" stroke-linejoin="round" stroke="#999"><path marker-start="url(#i)" d="M5.458 0v36.777" transform="translate(47.372 90.148)"/><path marker-end="url(#j)" d="M4.922 0v36.777" transform="translate(54.315 90.148)"/></g><path d="M0 0h220M0 128h220" fill="none" stroke-width="2" stroke-linejoin="round" stroke="#666"/></svg>