<?xml version="1.0" encoding="utf-8"?>
<svg contentScriptType="text/ecmascript" xmlns:xlink="http://www.w3.org/1999/xlink" zoomAndPan="magnify" contentStyleType="text/css" viewBox="-15.0 -15.0 249.00509043911188 159.24449422900412" xmlns:cacoo="http://cacoo.com/" preserveAspectRatio="xMidYMin meet" xmlns="http://www.w3.org/2000/svg" version="1.1"><defs><marker refX="0.0" refY="7.0" markerUnits="userSpaceOnUse" orient="auto" id="id0" markerHeight="14.0" viewBox="0 0 14.0 14.0" preserveAspectRatio="xMidYMid meet" markerWidth="14.0" overflow="visible"><path fill="none" d="M7.0 3.5 L0 7.0 L7.0 10.5" stroke-width="1.0" stroke-linejoin="round" stroke-linecap="round" stroke="#999999"/></marker><marker refX="14.0" refY="7.0" markerUnits="userSpaceOnUse" orient="auto" id="id1" markerHeight="14.0" viewBox="0 0 14.0 14.0" preserveAspectRatio="xMidYMid meet" markerWidth="14.0" overflow="visible"><path fill="none" d="M7.0 3.5 L14.0 7.0 L7.0 10.5" stroke-width="1.0" stroke-linejoin="round" stroke-linecap="round" stroke="#999999"/></marker><marker refX="0.0" refY="7.0" markerUnits="userSpaceOnUse" orient="auto" id="id2" markerHeight="14.0" viewBox="0 0 14.0 14.0" preserveAspectRatio="xMidYMid meet" markerWidth="14.0" overflow="visible"><path fill="none" d="M7.0 3.5 L0 7.0 L7.0 10.5" stroke-width="1.0" stroke-linejoin="round" stroke-linecap="round" stroke="#999999"/></marker><marker refX="14.0" refY="7.0" markerUnits="userSpaceOnUse" orient="auto" id="id3" markerHeight="14.0" viewBox="0 0 14.0 14.0" preserveAspectRatio="xMidYMid meet" markerWidth="14.0" overflow="visible"><path fill="none" d="M7.0 3.5 L14.0 7.0 L7.0 10.5" stroke-width="1.0" stroke-linejoin="round" stroke-linecap="round" stroke="#999999"/></marker><marker refX="0.0" refY="7.0" markerUnits="userSpaceOnUse" orient="auto" id="id4" markerHeight="14.0" viewBox="0 0 14.0 14.0" preserveAspectRatio="xMidYMid meet" markerWidth="14.0" overflow="visible"><path fill="none" d="M7.0 3.5 L0 7.0 L7.0 10.5" stroke-width="1.0" stroke-linejoin="round" stroke-linecap="round" stroke="#999999"/></marker><marker refX="14.0" refY="7.0" markerUnits="userSpaceOnUse" orient="auto" id="id5" markerHeight="14.0" viewBox="0 0 14.0 14.0" preserveAspectRatio="xMidYMid meet" markerWidth="14.0" overflow="visible"><path fill="none" d="M7.0 3.5 L14.0 7.0 L7.0 10.5" stroke-width="1.0" stroke-linejoin="round" stroke-linecap="round" stroke="#999999"/></marker><marker refX="0.0" refY="7.0" markerUnits="userSpaceOnUse" orient="auto" id="id8" markerHeight="14.0" viewBox="0 0 14.0 14.0" preserveAspectRatio="xMidYMid meet" markerWidth="14.0" overflow="visible"><path fill="none" d="M7.0 3.5 L0 7.0 L7.0 10.5" stroke-width="1.0" stroke-linejoin="round" stroke-linecap="round" stroke="#999999"/></marker><marker refX="14.0" refY="7.0" markerUnits="userSpaceOnUse" orient="auto" id="id9" markerHeight="14.0" viewBox="0 0 14.0 14.0" preserveAspectRatio="xMidYMid meet" markerWidth="14.0" overflow="visible"><path fill="none" d="M7.0 3.5 L14.0 7.0 L7.0 10.5" stroke-width="1.0" stroke-linejoin="round" stroke-linecap="round" stroke="#999999"/></marker></defs><g><g transform="translate(10.315372444686844 0.562527785906525)"><path marker-start="url(#id0)" fill="none" d="M5.458115183246074 0.0 L5.458115183246074 128.6819664430976" stroke-width="1.0" stroke-linejoin="round" stroke="#999999"/></g><g transform="translate(17.315372444686844 0.562527785906525)"><path fill="none" marker-end="url(#id1)" d="M4.921933331470514 0.0 L4.921933331470514 122.37435191882817 L4.921933331470514 128.68196644309756" stroke-width="1.0" stroke-linejoin="round" stroke="#999999"/></g><g transform="translate(101.31537244468684 0.562527785906525)"><path marker-start="url(#id2)" fill="none" d="M5.458115183246074 0.0 L5.458115183246074 128.6819664430976" stroke-width="1.0" stroke-linejoin="round" stroke="#999999"/></g><g transform="translate(108.57546947412 0.562527785906525)"><path fill="none" marker-end="url(#id3)" d="M4.921933331470514 0.0 L4.921933331470514 122.37435191882817 L4.921933331470514 128.68196644309756" stroke-width="1.0" stroke-linejoin="round" stroke="#999999"/></g><g transform="translate(137.18980577972007 91.56252778590652)"><path marker-start="url(#id4)" fill="none" d="M5.458115183246074 0.0 L5.458115183246074 37.35724375620151" stroke-width="1.0" stroke-linejoin="round" stroke="#999999"/></g><g transform="translate(144.31537244468683 91.56252778590652)"><path fill="none" marker-end="url(#id5)" d="M4.921933331470514 0.0 L4.921933331470514 35.52610066897269 L4.921933331470514 37.35724375620149" stroke-width="1.0" stroke-linejoin="round" stroke="#999999"/></g><g transform="translate(22.315372444686844 71.53000671660112)"><path fill="#ffffff" fill-opacity="1.0" d="M62.35283036244064 0.0 L3.0 0.0 Q0.0 0.0 0.0 3.0 L0.0 16.999999999999986 Q0.0 19.999999999999986 3.0 19.999999999999986 L62.35283036244064 19.999999999999986 Q65.35283036244064 19.999999999999986 65.35283036244064 16.999999999999986 L65.35283036244064 3.0 Q65.35283036244064 0.0 62.35283036244064 0.0z" stroke-width="2.0" stroke-linejoin="round" stroke="#666666"/><g transform="translate(2.0 0.0)"><defs><clipPath id="id6"><path d="M0 0 L61.352830362440656 0 L61.352830362440656 20.0 L0 20.0z"/></clipPath></defs><text font-size="12" clip-path="url(#id6)" text-decoration="none" fill="#ed4580" font-family="Arial,Arial" font-style="normal" font-weight="normal"><tspan x="7.0" xml:space="preserve" y="14.0" textLength="46.0">max-age</tspan></text></g></g><g transform="translate(113.31537244468684 71.56252778590652)"><path fill="#ffffff" fill-opacity="1.0" d="M62.35283036244064 0.0 L3.0 0.0 Q0.0 0.0 0.0 3.0 L0.0 16.999999999999986 Q0.0 19.999999999999986 3.0 19.999999999999986 L62.35283036244064 19.999999999999986 Q65.35283036244064 19.999999999999986 65.35283036244064 16.999999999999986 L65.35283036244064 3.0 Q65.35283036244064 0.0 62.35283036244064 0.0z" stroke-width="2.0" stroke-linejoin="round" stroke="#666666"/><g transform="translate(2.0 0.0)"><defs><clipPath id="id7"><path d="M0 0 L61.352830362440656 0 L61.352830362440656 20.0 L0 20.0z"/></clipPath></defs><text font-size="12" clip-path="url(#id7)" text-decoration="none" fill="#ed4580" font-family="Arial,Arial" font-style="normal" font-weight="normal"><tspan x="7.0" xml:space="preserve" y="14.0" textLength="46.0">max-age</tspan></text></g></g><g transform="translate(47.37183614062375 91.56252778590652)"><g transform="translate(0.0 0.0)"><path marker-start="url(#id8)" fill="none" d="M5.458115183246074 0.0 L5.458115183246074 37.35724375620151" stroke-width="1.0" stroke-linejoin="round" stroke="#999999"/></g><g transform="translate(6.943536304063095 0.0)"><path fill="none" marker-end="url(#id9)" d="M4.921933331470514 0.0 L4.921933331470514 35.52610066897268 L4.921933331470514 37.357243756201484" stroke-width="1.0" stroke-linejoin="round" stroke="#999999"/></g></g><path fill="none" d="M0.0 0.0 L219.0050904391119 0.0" stroke-width="2.0" stroke-linejoin="round" stroke="#666666"/><path fill="none" d="M0.0 128.91977104210804 L219.0050904391119 128.91977104210804" stroke-width="2.0" stroke-linejoin="round" stroke="#666666"/></g></svg>