<?xml version="1.0" encoding="utf-8"?>
<svg contentScriptType="text/ecmascript" xmlns:xlink="http://www.w3.org/1999/xlink" zoomAndPan="magnify" contentStyleType="text/css" viewBox="-15.0 -15.0 250.00000000000003 158.00000000713445" xmlns:cacoo="http://cacoo.com/" preserveAspectRatio="xMidYMin meet" xmlns="http://www.w3.org/2000/svg" version="1.1"><defs><marker refX="0.0" refY="7.0" markerUnits="userSpaceOnUse" orient="auto" id="id0" markerHeight="14.0" viewBox="0 0 14.0 14.0" preserveAspectRatio="xMidYMid meet" markerWidth="14.0" overflow="visible"><path fill="none" d="M7.0 3.5 L0 7.0 L7.0 10.5" stroke-width="1.0" stroke-linejoin="round" stroke-linecap="round" stroke="#999999"/></marker><marker refX="14.0" refY="7.0" markerUnits="userSpaceOnUse" orient="auto" id="id1" markerHeight="14.0" viewBox="0 0 14.0 14.0" preserveAspectRatio="xMidYMid meet" markerWidth="14.0" overflow="visible"><path fill="none" d="M7.0 3.5 L14.0 7.0 L7.0 10.5" stroke-width="1.0" stroke-linejoin="round" stroke-linecap="round" stroke="#999999"/></marker><marker refX="0.0" refY="7.0" markerUnits="userSpaceOnUse" orient="auto" id="id2" markerHeight="14.0" viewBox="0 0 14.0 14.0" preserveAspectRatio="xMidYMid meet" markerWidth="14.0" overflow="visible"><path fill="none" d="M7.0 3.5 L0 7.0 L7.0 10.5" stroke-width="1.0" stroke-linejoin="round" stroke-linecap="round" stroke="#999999"/></marker><marker refX="14.0" refY="7.0" markerUnits="userSpaceOnUse" orient="auto" id="id3" markerHeight="14.0" viewBox="0 0 14.0 14.0" preserveAspectRatio="xMidYMid meet" markerWidth="14.0" overflow="visible"><path fill="none" d="M7.0 3.5 L14.0 7.0 L7.0 10.5" stroke-width="1.0" stroke-linejoin="round" stroke-linecap="round" stroke="#999999"/></marker><marker refX="0.0" refY="7.0" markerUnits="userSpaceOnUse" orient="auto" id="id4" markerHeight="14.0" viewBox="0 0 14.0 14.0" preserveAspectRatio="xMidYMid meet" markerWidth="14.0" overflow="visible"><path fill="none" d="M7.0 3.5 L0 7.0 L7.0 10.5" stroke-width="1.0" stroke-linejoin="round" stroke-linecap="round" stroke="#999999"/></marker><marker refX="14.0" refY="7.0" markerUnits="userSpaceOnUse" orient="auto" id="id5" markerHeight="14.0" viewBox="0 0 14.0 14.0" preserveAspectRatio="xMidYMid meet" markerWidth="14.0" overflow="visible"><path fill="none" d="M7.0 3.5 L14.0 7.0 L7.0 10.5" stroke-width="1.0" stroke-linejoin="round" stroke-linecap="round" stroke="#999999"/></marker><marker refX="0.0" refY="7.0" markerUnits="userSpaceOnUse" orient="auto" id="id8" markerHeight="14.0" viewBox="0 0 14.0 14.0" preserveAspectRatio="xMidYMid meet" markerWidth="14.0" overflow="visible"><path fill="none" d="M7.0 3.5 L0 7.0 L7.0 10.5" stroke-width="1.0" stroke-linejoin="round" stroke-linecap="round" stroke="#999999"/></marker><marker refX="14.0" refY="7.0" markerUnits="userSpaceOnUse" orient="auto" id="id9" markerHeight="14.0" viewBox="0 0 14.0 14.0" preserveAspectRatio="xMidYMid meet" markerWidth="14.0" overflow="visible"><path fill="none" d="M7.0 3.5 L14.0 7.0 L7.0 10.5" stroke-width="1.0" stroke-linejoin="round" stroke-linecap="round" stroke="#999999"/></marker></defs><g><g transform="translate(10.315372444686844 0.562527785906525)"><path marker-start="url(#id0)" fill="none" d="M5.458115183246074 0.0 L5.458115183246074 126.6819664430976" stroke-width="1.0" stroke-linejoin="round" stroke="#999999"/></g><g transform="translate(17.315372444686844 0.562527785906525)"><path fill="none" marker-end="url(#id1)" d="M4.921933331470514 0.0 L4.921933331470514 120.47238608318885 L4.921933331470514 126.68196644309756" stroke-width="1.0" stroke-linejoin="round" stroke="#999999"/></g><g transform="translate(101.31537244468684 0.562527785906525)"><path marker-start="url(#id2)" fill="none" d="M5.458115183246074 0.0 L5.458115183246074 126.6819664430976" stroke-width="1.0" stroke-linejoin="round" stroke="#999999"/></g><g transform="translate(108.57546947412 0.562527785906525)"><path fill="none" marker-end="url(#id3)" d="M4.921933331470514 0.0 L4.921933331470514 120.47238608318885 L4.921933331470514 126.68196644309756" stroke-width="1.0" stroke-linejoin="round" stroke="#999999"/></g><g transform="translate(137.18980577972007 90.14818819326065)"><path marker-start="url(#id4)" fill="none" d="M5.458115183246074 0.0 L5.458115183246074 36.77663025162438" stroke-width="1.0" stroke-linejoin="round" stroke="#999999"/></g><g transform="translate(144.31537244468683 90.14818819326065)"><path fill="none" marker-end="url(#id5)" d="M4.921933331470514 0.0 L4.921933331470514 34.973947144264436 L4.921933331470514 36.77663025162436" stroke-width="1.0" stroke-linejoin="round" stroke="#999999"/></g><g transform="translate(22.315372444686844 70.42701643921714)"><path fill="#ffffff" fill-opacity="1.0" d="M62.35283036244064 0.0 L3.0 0.0 Q0.0 0.0 0.0 3.0 L0.0 16.689156133484417 Q0.0 19.689156133484417 3.0 19.689156133484417 L62.35283036244064 19.689156133484417 Q65.35283036244064 19.689156133484417 65.35283036244064 16.689156133484417 L65.35283036244064 3.0 Q65.35283036244064 0.0 62.35283036244064 0.0z" stroke-width="2.0" stroke-linejoin="round" stroke="#666666"/><g transform="translate(2.0 0.0)"><defs><clipPath id="id6"><path d="M0 0 L61.352830362440656 0 L61.352830362440656 19.68915613348443 L0 19.68915613348443z"/></clipPath></defs><text font-size="12" clip-path="url(#id6)" text-decoration="none" fill="#ed4580" font-family="Arial,Arial" font-style="normal" font-weight="normal"><tspan x="7.0" xml:space="preserve" y="13.844578066742216" textLength="46.0">max-age</tspan></text></g></g><g transform="translate(113.31537244468684 70.45903205977623)"><path fill="#ffffff" fill-opacity="1.0" d="M62.35283036244064 0.0 L3.0 0.0 Q0.0 0.0 0.0 3.0 L0.0 16.689156133484417 Q0.0 19.689156133484417 3.0 19.689156133484417 L62.35283036244064 19.689156133484417 Q65.35283036244064 19.689156133484417 65.35283036244064 16.689156133484417 L65.35283036244064 3.0 Q65.35283036244064 0.0 62.35283036244064 0.0z" stroke-width="2.0" stroke-linejoin="round" stroke="#666666"/><g transform="translate(2.0 0.0)"><defs><clipPath id="id7"><path d="M0 0 L61.352830362440656 0 L61.352830362440656 19.68915613348443 L0 19.68915613348443z"/></clipPath></defs><text font-size="12" clip-path="url(#id7)" text-decoration="none" fill="#ed4580" font-family="Arial,Arial" font-style="normal" font-weight="normal"><tspan x="7.0" xml:space="preserve" y="13.844578066742216" textLength="46.0">max-age</tspan></text></g></g><g transform="translate(47.37183614062375 90.14818819326065)"><g transform="translate(0.0 0.0)"><path marker-start="url(#id8)" fill="none" d="M5.458115183246074 0.0 L5.458115183246074 36.77663025162438" stroke-width="1.0" stroke-linejoin="round" stroke="#999999"/></g><g transform="translate(6.943536304063095 0.0)"><path fill="none" marker-end="url(#id9)" d="M4.921933331470514 0.0 L4.921933331470514 34.97394714426443 L4.921933331470514 36.776630251624354" stroke-width="1.0" stroke-linejoin="round" stroke="#999999"/></g></g><g transform="translate(0.0 0.0)"><path fill="none" d="M0.0 0.0 L220.00000000000003 0.0" stroke-width="2.0" stroke-linejoin="round" stroke="#666666"/><path fill="none" d="M0.0 127.99999900713445 L220.00000000000003 127.99999900713445" stroke-width="2.0" stroke-linejoin="round" stroke="#666666"/></g></g></svg>