<?xml version="1.0" encoding="utf-8"?>
<svg contentScriptType="text/ecmascript" xmlns:xlink="http://www.w3.org/1999/xlink" zoomAndPan="magnify" contentStyleType="text/css" viewBox="-15.0 -15.0 249.00509043911188 158.95229211141347" xmlns:cacoo="http://cacoo.com/" preserveAspectRatio="xMidYMin meet" xmlns="http://www.w3.org/2000/svg" version="1.1"><defs><marker refX="0.0" refY="7.0" markerUnits="userSpaceOnUse" orient="auto" id="id2" markerHeight="14.0" viewBox="0 0 14.0 14.0" preserveAspectRatio="xMidYMid meet" markerWidth="14.0" overflow="visible"><path fill="none" d="M7.0 3.5 L0 7.0 L7.0 10.5" stroke-width="1.0" stroke-linejoin="round" stroke-linecap="round" stroke="#999999"/></marker><marker refX="14.0" refY="7.0" markerUnits="userSpaceOnUse" orient="auto" id="id3" markerHeight="14.0" viewBox="0 0 14.0 14.0" preserveAspectRatio="xMidYMid meet" markerWidth="14.0" overflow="visible"><path fill="none" d="M7.0 3.5 L14.0 7.0 L7.0 10.5" stroke-width="1.0" stroke-linejoin="round" stroke-linecap="round" stroke="#999999"/></marker><marker refX="0.0" refY="7.0" markerUnits="userSpaceOnUse" orient="auto" id="id4" markerHeight="14.0" viewBox="0 0 14.0 14.0" preserveAspectRatio="xMidYMid meet" markerWidth="14.0" overflow="visible"><path fill="none" d="M7.0 3.5 L0 7.0 L7.0 10.5" stroke-width="1.0" stroke-linejoin="round" stroke-linecap="round" stroke="#999999"/></marker><marker refX="14.0" refY="7.0" markerUnits="userSpaceOnUse" orient="auto" id="id5" markerHeight="14.0" viewBox="0 0 14.0 14.0" preserveAspectRatio="xMidYMid meet" markerWidth="14.0" overflow="visible"><path fill="none" d="M7.0 3.5 L14.0 7.0 L7.0 10.5" stroke-width="1.0" stroke-linejoin="round" stroke-linecap="round" stroke="#999999"/></marker><marker refX="0.0" refY="7.0" markerUnits="userSpaceOnUse" orient="auto" id="id6" markerHeight="14.0" viewBox="0 0 14.0 14.0" preserveAspectRatio="xMidYMid meet" markerWidth="14.0" overflow="visible"><path fill="none" d="M7.0 3.5 L0 7.0 L7.0 10.5" stroke-width="1.0" stroke-linejoin="round" stroke-linecap="round" stroke="#999999"/></marker><marker refX="14.0" refY="7.0" markerUnits="userSpaceOnUse" orient="auto" id="id7" markerHeight="14.0" viewBox="0 0 14.0 14.0" preserveAspectRatio="xMidYMid meet" markerWidth="14.0" overflow="visible"><path fill="none" d="M7.0 3.5 L14.0 7.0 L7.0 10.5" stroke-width="1.0" stroke-linejoin="round" stroke-linecap="round" stroke="#999999"/></marker><marker refX="14.0" refY="7.0" markerUnits="userSpaceOnUse" orient="auto" id="id8" markerHeight="14.0" viewBox="0 0 14.0 14.0" preserveAspectRatio="xMidYMid meet" markerWidth="14.0" overflow="visible"><path fill="none" d="M7.0 3.5 L14.0 7.0 L7.0 10.5" stroke-width="1.0" stroke-linejoin="round" stroke-linecap="round" stroke="#999999"/></marker></defs><g><g transform="translate(133.83333333333326 11.297524177606007)"><defs><clipPath id="id0"><path d="M0 0 L41.75 0 L41.75 17.99999999999997 L0 17.99999999999997z"/></clipPath></defs><text font-size="12" clip-path="url(#id0)" text-decoration="none" fill="#000000" font-family="monospace" font-style="normal" font-weight="normal"><tspan x="10.0" xml:space="preserve" y="12.999999999999986" textLength="21.0">500</tspan></text></g><g transform="translate(143.83333333333326 82.59504835521196)"><defs><clipPath id="id1"><path d="M0 0 L41.75 0 L41.75 18.0 L0 18.0z"/></clipPath></defs><text font-size="12" clip-path="url(#id1)" text-decoration="none" fill="#000000" font-family="monospace" font-style="normal" font-weight="normal"><tspan x="3.0" xml:space="preserve" y="13.0" textLength="36.0">cahce</tspan></text></g><g transform="translate(34.83333333333326 0.270325668315877)"><path marker-start="url(#id2)" fill="none" d="M5.458115183246074 0.0 L5.458115183246074 128.6819664430976" stroke-width="1.0" stroke-linejoin="round" stroke="#999999"/></g><g transform="translate(41.83333333333326 0.270325668315877)"><path fill="none" marker-end="url(#id3)" d="M4.921933331470514 0.0 L4.921933331470514 122.37435191882817 L4.921933331470514 128.68196644309756" stroke-width="1.0" stroke-linejoin="round" stroke="#999999"/></g><g transform="translate(66.83333333333326 60.62911210462997)"><g transform="translate(0.0 0.0)"><path marker-start="url(#id4)" fill="none" d="M5.458115183246074 0.0 L5.458115183246074 68.08537540777306" stroke-width="1.0" stroke-linejoin="round" stroke="#999999"/></g><g transform="translate(6.943536304063095 0.0)"><path fill="none" marker-end="url(#id5)" d="M4.921933331470514 0.0 L4.921933331470514 64.74802896613075 L4.921933331470514 68.085375407773" stroke-width="1.0" stroke-linejoin="round" stroke="#999999"/></g></g><g transform="translate(126.83333333333326 0.270325668315877)"><path marker-start="url(#id6)" fill="none" d="M5.458115183246074 0.0 L5.458115183246074 128.44416184408723" stroke-width="1.0" stroke-linejoin="round" stroke="#999999"/></g><g transform="translate(133.83333333333326 0.270325668315877)"><path fill="none" marker-end="url(#id7)" d="M4.921933331470514 0.0 L4.921933331470514 38.09104734823639 L4.921933331470514 40.05439701858018" stroke-width="1.0" stroke-linejoin="round" stroke="#999999"/></g><g transform="translate(133.83333333333326 60.32472268689612)"><path fill="none" marker-end="url(#id8)" d="M4.921933331470514 0.0 L4.921933331470514 65.03749810276072 L4.921933331470514 68.3897648255068" stroke-width="1.0" stroke-linejoin="round" stroke="#999999"/></g><path fill="none" d="M0.0 0.0 L219.0050904391119 0.0" stroke-width="2.0" stroke-linejoin="round" stroke="#666666"/><path fill="none" d="M0.0 128.4999995 L219.0050904391119 128.4999995" stroke-width="2.0" stroke-linejoin="round" stroke="#666666"/><g transform="translate(46.83333333333326 40.32472268689611)"><g transform="translate(0.0 0.0)"><path fill="#ffffff" fill-opacity="1.0" d="M54.41183630203736 0.0 L3.0 0.0 Q0.0 0.0 0.0 3.0 L0.0 16.999999999999986 Q0.0 19.999999999999986 3.0 19.999999999999986 L54.41183630203736 19.999999999999986 Q57.41183630203736 19.999999999999986 57.41183630203736 16.999999999999986 L57.41183630203736 3.0 Q57.41183630203736 0.0 54.41183630203736 0.0z" stroke-width="2.0" stroke-linejoin="round" stroke="#666666"/><g transform="translate(2.0 0.0)"><defs><clipPath id="id9"><path d="M0 0 L53.41183630203736 0 L53.41183630203736 20.0 L0 20.0z"/></clipPath></defs><text font-size="12" clip-path="url(#id9)" text-decoration="none" fill="#ed4580" font-family="Arial,Arial" font-style="normal" font-weight="normal"><tspan x="3.0" xml:space="preserve" y="14.0" textLength="46.0">max-age</tspan></text></g></g><g transform="translate(57.41183630203736 1.4210854715202004E-14)"><path fill="#ffffff" fill-opacity="1.0" d="M47.50657675586945 0.0 L3.0 0.0 Q0.0 0.0 0.0 3.0 L0.0 17.0 Q0.0 20.0 3.0 20.0 L47.50657675586945 20.0 Q50.50657675586945 20.0 50.50657675586945 17.0 L50.50657675586945 3.0 Q50.50657675586945 0.0 47.50657675586945 0.0z" stroke-width="2.0" stroke-linejoin="round" stroke="#666666"/><g transform="translate(2.0 0.0)"><defs><clipPath id="id10"><path d="M0 0 L46.5065767558695 0 L46.5065767558695 20.0 L0 20.0z"/></clipPath></defs><text font-size="12" clip-path="url(#id10)" text-decoration="none" fill="#ed4580" font-family="Arial,Arial" font-style="normal" font-weight="normal"><tspan x="11.0" xml:space="preserve" y="14.0" textLength="23.0">s-i-e</tspan></text></g></g></g></g></svg>