<svg contentScriptType="text/ecmascript" viewBox="-15 -15 250 156" preserveAspectRatio="xMidYMin meet" xmlns="http://www.w3.org/2000/svg"><defs><marker refY="7" markerUnits="userSpaceOnUse" orient="auto" id="c" markerHeight="14" viewBox="0 0 14 14" preserveAspectRatio="xMidYMid meet" markerWidth="14" overflow="visible"><path fill="none" d="M7 3.5L0 7l7 3.5" stroke-linejoin="round" stroke-linecap="round" stroke="#999"/></marker><marker refX="14" refY="7" markerUnits="userSpaceOnUse" orient="auto" id="d" markerHeight="14" viewBox="0 0 14 14" preserveAspectRatio="xMidYMid meet" markerWidth="14" overflow="visible"><path fill="none" d="M7 3.5L14 7l-7 3.5" stroke-linejoin="round" stroke-linecap="round" stroke="#999"/></marker><marker refY="7" markerUnits="userSpaceOnUse" orient="auto" id="e" markerHeight="14" viewBox="0 0 14 14" preserveAspectRatio="xMidYMid meet" markerWidth="14" overflow="visible"><path fill="none" d="M7 3.5L0 7l7 3.5" stroke-linejoin="round" stroke-linecap="round" stroke="#999"/></marker><marker refX="14" refY="7" markerUnits="userSpaceOnUse" orient="auto" id="f" markerHeight="14" viewBox="0 0 14 14" preserveAspectRatio="xMidYMid meet" markerWidth="14" overflow="visible"><path fill="none" d="M7 3.5L14 7l-7 3.5" stroke-linejoin="round" stroke-linecap="round" stroke="#999"/></marker><marker refY="7" markerUnits="userSpaceOnUse" orient="auto" id="g" markerHeight="14" viewBox="0 0 14 14" preserveAspectRatio="xMidYMid meet" markerWidth="14" overflow="visible"><path fill="none" d="M7 3.5L0 7l7 3.5" stroke-linejoin="round" stroke-linecap="round" stroke="#999"/></marker><marker refX="14" refY="7" markerUnits="userSpaceOnUse" orient="auto" id="h" markerHeight="14" viewBox="0 0 14 14" preserveAspectRatio="xMidYMid meet" markerWidth="14" overflow="visible"><path fill="none" d="M7 3.5L14 7l-7 3.5" stroke-linejoin="round" stroke-linecap="round" stroke="#999"/></marker><marker refX="14" refY="7" markerUnits="userSpaceOnUse" orient="auto" id="i" markerHeight="14" viewBox="0 0 14 14" preserveAspectRatio="xMidYMid meet" markerWidth="14" overflow="visible"><path fill="none" d="M7 3.5L14 7l-7 3.5" stroke-linejoin="round" stroke-linecap="round" stroke="#999"/></marker></defs><g transform="translate(133.833 10.998)"><defs><clipPath id="a"><path d="M0 0h41.75v17.51H0z"/></clipPath></defs><text font-size="12" clip-path="url(#a)" font-family="monospace"><tspan x="10" y="12.755" textLength="21">500</tspan></text></g><g transform="translate(143.833 80.356)"><defs><clipPath id="b"><path d="M0 0h41.75v17.51H0z"/></clipPath></defs><text font-size="12" clip-path="url(#b)" font-family="monospace"><tspan x="3" y="12.755" textLength="36">cahce</tspan></text></g><path marker-start="url(#c)" fill="none" d="M5.458 0v125.182" stroke-linejoin="round" stroke="#999" transform="translate(34.833 .27)"/><path fill="none" marker-end="url(#d)" d="M4.922 0v125.182" stroke-linejoin="round" stroke="#999" transform="translate(41.833 .27)"/><path marker-start="url(#e)" fill="none" d="M5.458 0v66.234" stroke-linejoin="round" stroke="#999" transform="translate(66.833 58.987)"/><path fill="none" marker-end="url(#f)" d="M4.922 0v66.234" stroke-linejoin="round" stroke="#999" transform="translate(73.777 58.987)"/><path marker-start="url(#g)" fill="none" d="M5.458 0v124.95" stroke-linejoin="round" stroke="#999" transform="translate(126.833 .27)"/><path fill="none" marker-end="url(#h)" d="M4.922 0v38.965" stroke-linejoin="round" stroke="#999" transform="translate(133.833 .27)"/><path fill="none" marker-end="url(#i)" d="M4.922 0v66.529" stroke-linejoin="round" stroke="#999" transform="translate(133.833 58.691)"/><path fill="none" d="M0 0h220M0 126h220" stroke-width="2" stroke-linejoin="round" stroke="#666"/><path fill="#fff" d="M101.245 39.235H49.833q-3 0-3 3v13.456q0 3 3 3h51.412q3 0 3-3V42.235q0-3-3-3z" stroke-width="2" stroke-linejoin="round" stroke="#666"/><g transform="translate(48.833 39.235)"><defs><clipPath id="j"><path d="M0 0h53.412v19.456H0z"/></clipPath></defs><text font-size="12" clip-path="url(#j)" fill="#ed4580" font-family="Arial,Arial"><tspan x="3" y="13.728" textLength="46">max-age</tspan></text></g><path fill="#fff" d="M151.752 39.235h-44.507q-3 0-3 3v13.456q0 3 3 3h44.507q3 0 3-3V42.235q0-3-3-3z" stroke-width="2" stroke-linejoin="round" stroke="#666"/><g transform="translate(106.245 39.235)"><defs><clipPath id="k"><path d="M0 0h46.507v19.456H0z"/></clipPath></defs><text font-size="12" clip-path="url(#k)" fill="#ed4580" font-family="Arial,Arial"><tspan x="11" y="13.728" textLength="23">s-i-e</tspan></text></g></svg>