<svg contentScriptType="text/ecmascript" viewBox="-15 -15 250 158.952" preserveAspectRatio="xMidYMin meet" xmlns="http://www.w3.org/2000/svg"><defs><marker refY="7" markerUnits="userSpaceOnUse" orient="auto" id="a" markerHeight="14" viewBox="0 0 14 14" preserveAspectRatio="xMidYMid meet" markerWidth="14" overflow="visible"><path fill="none" d="M7 3.5L0 7l7 3.5" stroke-linejoin="round" stroke-linecap="round" stroke="#999"/></marker><marker refX="14" refY="7" markerUnits="userSpaceOnUse" orient="auto" id="b" markerHeight="14" viewBox="0 0 14 14" preserveAspectRatio="xMidYMid meet" markerWidth="14" overflow="visible"><path fill="none" d="M7 3.5L14 7l-7 3.5" stroke-linejoin="round" stroke-linecap="round" stroke="#999"/></marker><marker refY="7" markerUnits="userSpaceOnUse" orient="auto" id="c" markerHeight="14" viewBox="0 0 14 14" preserveAspectRatio="xMidYMid meet" markerWidth="14" overflow="visible"><path fill="none" d="M7 3.5L0 7l7 3.5" stroke-linejoin="round" stroke-linecap="round" stroke="#999"/></marker><marker refX="14" refY="7" markerUnits="userSpaceOnUse" orient="auto" id="d" markerHeight="14" viewBox="0 0 14 14" preserveAspectRatio="xMidYMid meet" markerWidth="14" overflow="visible"><path fill="none" d="M7 3.5L14 7l-7 3.5" stroke-linejoin="round" stroke-linecap="round" stroke="#999"/></marker><marker refY="7" markerUnits="userSpaceOnUse" orient="auto" id="e" markerHeight="14" viewBox="0 0 14 14" preserveAspectRatio="xMidYMid meet" markerWidth="14" overflow="visible"><path fill="none" d="M7 3.5L0 7l7 3.5" stroke-linejoin="round" stroke-linecap="round" stroke="#999"/></marker><marker refX="14" refY="7" markerUnits="userSpaceOnUse" orient="auto" id="f" markerHeight="14" viewBox="0 0 14 14" preserveAspectRatio="xMidYMid meet" markerWidth="14" overflow="visible"><path fill="none" d="M7 3.5L14 7l-7 3.5" stroke-linejoin="round" stroke-linecap="round" stroke="#999"/></marker><marker refY="7" markerUnits="userSpaceOnUse" orient="auto" id="g" markerHeight="14" viewBox="0 0 14 14" preserveAspectRatio="xMidYMid meet" markerWidth="14" overflow="visible"><path fill="none" d="M7 3.5L0 7l7 3.5" stroke-linejoin="round" stroke-linecap="round" stroke="#999"/></marker><marker refX="14" refY="7" markerUnits="userSpaceOnUse" orient="auto" id="h" markerHeight="14" viewBox="0 0 14 14" preserveAspectRatio="xMidYMid meet" markerWidth="14" overflow="visible"><path fill="none" d="M7 3.5L14 7l-7 3.5" stroke-linejoin="round" stroke-linecap="round" stroke="#999"/></marker><marker refY="7" markerUnits="userSpaceOnUse" orient="auto" id="i" markerHeight="14" viewBox="0 0 14 14" preserveAspectRatio="xMidYMid meet" markerWidth="14" overflow="visible"><path fill="none" d="M7 3.5L0 7l7 3.5" stroke-linejoin="round" stroke-linecap="round" stroke="#999"/></marker><marker refX="14" refY="7" markerUnits="userSpaceOnUse" orient="auto" id="j" markerHeight="14" viewBox="0 0 14 14" preserveAspectRatio="xMidYMid meet" markerWidth="14" overflow="visible"><path fill="none" d="M7 3.5L14 7l-7 3.5" stroke-linejoin="round" stroke-linecap="round" stroke="#999"/></marker></defs><path marker-start="url(#a)" fill="none" d="M5.458 0v128.682" stroke-linejoin="round" stroke="#999" transform="translate(2.5 .27)"/><path fill="none" marker-end="url(#b)" d="M4.922 0v127.182" stroke-linejoin="round" stroke="#999" transform="translate(9.5 .27)"/><path marker-start="url(#c)" fill="none" d="M5.458 0v67.292" stroke-linejoin="round" stroke="#999" transform="translate(34.734 59.926)"/><path fill="none" marker-end="url(#d)" d="M4.922 0v67.292" stroke-linejoin="round" stroke="#999" transform="translate(41.678 59.926)"/><path marker-start="url(#e)" fill="none" d="M5.458 0v67.292" stroke-linejoin="round" stroke="#999" transform="translate(81.5 59.625)"/><path fill="none" marker-end="url(#f)" d="M4.922 0v67.292" stroke-linejoin="round" stroke="#999" transform="translate(88.444 59.625)"/><path marker-start="url(#g)" fill="none" d="M5.458 0v43.824" stroke-linejoin="round" stroke="#999" transform="translate(94.5 .27)"/><path fill="none" marker-end="url(#h)" d="M4.922 0v73.191" stroke-linejoin="round" stroke="#999" transform="translate(101.5 .27)"/><path marker-start="url(#i)" fill="none" d="M5.458 0v33.989" stroke-linejoin="round" stroke="#999" transform="translate(127.893 93.228)"/><path fill="none" marker-end="url(#j)" d="M4.922 0v33.989" stroke-linejoin="round" stroke="#999" transform="translate(134.836 93.228)"/><path fill="#fff" d="M160.912 73.461H109.5q-3 0-3 3v13.767q0 3 3 3h51.412q3 0 3-3V76.461q0-3-3-3z" stroke-width="2" stroke-linejoin="round" stroke="#666"/><g transform="translate(108.5 73.461)"><defs><clipPath id="k"><path d="M0 0h53.412v19.767H0z"/></clipPath></defs><text font-size="12" clip-path="url(#k)" fill="#ed4580" font-family="Arial,Arial"><tspan x="3" y="13.883" textLength="46">max-age</tspan></text></g><path fill="#fff" d="M211.418 73.461h-44.506q-3 0-3 3v13.767q0 3 3 3h44.506q3 0 3-3V76.461q0-3-3-3z" stroke-width="2" stroke-linejoin="round" stroke="#666"/><g transform="translate(165.912 73.461)"><defs><clipPath id="l"><path d="M0 0h46.507v19.767H0z"/></clipPath></defs><text font-size="12" clip-path="url(#l)" fill="#ed4580" font-family="Arial,Arial"><tspan x="10" y="13.883" textLength="26">s-w-r</tspan></text></g><path fill="#fff" d="M68.834 39.858H17.422q-3 0-3 3v13.767q0 3 3 3h51.412q3 0 3-3V42.858q0-3-3-3z" stroke-width="2" stroke-linejoin="round" stroke="#666"/><g transform="translate(16.422 39.858)"><defs><clipPath id="m"><path d="M0 0h53.412v19.767H0z"/></clipPath></defs><text font-size="12" clip-path="url(#m)" fill="#ed4580" font-family="Arial,Arial"><tspan x="3" y="13.883" textLength="46">max-age</tspan></text></g><path fill="#fff" d="M119.34 39.858H74.834q-3 0-3 3v13.767q0 3 3 3h44.506q3 0 3-3V42.858q0-3-3-3z" stroke-width="2" stroke-linejoin="round" stroke="#666"/><g transform="translate(73.834 39.858)"><defs><clipPath id="n"><path d="M0 0h46.507v19.767H0z"/></clipPath></defs><text font-size="12" clip-path="url(#n)" fill="#ed4580" font-family="Arial,Arial"><tspan x="10" y="13.883" textLength="26">s-w-r</tspan></text></g><g transform="translate(106 11.169)"><defs><clipPath id="o"><path d="M0 0h65.25v17.79H0z"/></clipPath></defs><text font-size="12" clip-path="url(#o)" font-family="monospace"><tspan x="4" y="12.895" textLength="57">validate</tspan></text></g><path d="M0 0h220M0 128h220" fill="none" stroke-width="2" stroke-linejoin="round" stroke="#666"/></svg>