<?xml version="1.0" encoding="utf-8"?>
<svg contentScriptType="text/ecmascript" xmlns:xlink="http://www.w3.org/1999/xlink" zoomAndPan="magnify" contentStyleType="text/css" viewBox="-15.0 -15.0 250.00000000000003 158.95229211141347" xmlns:cacoo="http://cacoo.com/" preserveAspectRatio="xMidYMin meet" xmlns="http://www.w3.org/2000/svg" version="1.1"><defs><marker refX="0.0" refY="7.0" markerUnits="userSpaceOnUse" orient="auto" id="id0" markerHeight="14.0" viewBox="0 0 14.0 14.0" preserveAspectRatio="xMidYMid meet" markerWidth="14.0" overflow="visible"><path fill="none" d="M7.0 3.5 L0 7.0 L7.0 10.5" stroke-width="1.0" stroke-linejoin="round" stroke-linecap="round" stroke="#999999"/></marker><marker refX="14.0" refY="7.0" markerUnits="userSpaceOnUse" orient="auto" id="id1" markerHeight="14.0" viewBox="0 0 14.0 14.0" preserveAspectRatio="xMidYMid meet" markerWidth="14.0" overflow="visible"><path fill="none" d="M7.0 3.5 L14.0 7.0 L7.0 10.5" stroke-width="1.0" stroke-linejoin="round" stroke-linecap="round" stroke="#999999"/></marker><marker refX="0.0" refY="7.0" markerUnits="userSpaceOnUse" orient="auto" id="id2" markerHeight="14.0" viewBox="0 0 14.0 14.0" preserveAspectRatio="xMidYMid meet" markerWidth="14.0" overflow="visible"><path fill="none" d="M7.0 3.5 L0 7.0 L7.0 10.5" stroke-width="1.0" stroke-linejoin="round" stroke-linecap="round" stroke="#999999"/></marker><marker refX="14.0" refY="7.0" markerUnits="userSpaceOnUse" orient="auto" id="id3" markerHeight="14.0" viewBox="0 0 14.0 14.0" preserveAspectRatio="xMidYMid meet" markerWidth="14.0" overflow="visible"><path fill="none" d="M7.0 3.5 L14.0 7.0 L7.0 10.5" stroke-width="1.0" stroke-linejoin="round" stroke-linecap="round" stroke="#999999"/></marker><marker refX="0.0" refY="7.0" markerUnits="userSpaceOnUse" orient="auto" id="id4" markerHeight="14.0" viewBox="0 0 14.0 14.0" preserveAspectRatio="xMidYMid meet" markerWidth="14.0" overflow="visible"><path fill="none" d="M7.0 3.5 L0 7.0 L7.0 10.5" stroke-width="1.0" stroke-linejoin="round" stroke-linecap="round" stroke="#999999"/></marker><marker refX="14.0" refY="7.0" markerUnits="userSpaceOnUse" orient="auto" id="id5" markerHeight="14.0" viewBox="0 0 14.0 14.0" preserveAspectRatio="xMidYMid meet" markerWidth="14.0" overflow="visible"><path fill="none" d="M7.0 3.5 L14.0 7.0 L7.0 10.5" stroke-width="1.0" stroke-linejoin="round" stroke-linecap="round" stroke="#999999"/></marker><marker refX="0.0" refY="7.0" markerUnits="userSpaceOnUse" orient="auto" id="id6" markerHeight="14.0" viewBox="0 0 14.0 14.0" preserveAspectRatio="xMidYMid meet" markerWidth="14.0" overflow="visible"><path fill="none" d="M7.0 3.5 L0 7.0 L7.0 10.5" stroke-width="1.0" stroke-linejoin="round" stroke-linecap="round" stroke="#999999"/></marker><marker refX="14.0" refY="7.0" markerUnits="userSpaceOnUse" orient="auto" id="id7" markerHeight="14.0" viewBox="0 0 14.0 14.0" preserveAspectRatio="xMidYMid meet" markerWidth="14.0" overflow="visible"><path fill="none" d="M7.0 3.5 L14.0 7.0 L7.0 10.5" stroke-width="1.0" stroke-linejoin="round" stroke-linecap="round" stroke="#999999"/></marker><marker refX="0.0" refY="7.0" markerUnits="userSpaceOnUse" orient="auto" id="id8" markerHeight="14.0" viewBox="0 0 14.0 14.0" preserveAspectRatio="xMidYMid meet" markerWidth="14.0" overflow="visible"><path fill="none" d="M7.0 3.5 L0 7.0 L7.0 10.5" stroke-width="1.0" stroke-linejoin="round" stroke-linecap="round" stroke="#999999"/></marker><marker refX="14.0" refY="7.0" markerUnits="userSpaceOnUse" orient="auto" id="id9" markerHeight="14.0" viewBox="0 0 14.0 14.0" preserveAspectRatio="xMidYMid meet" markerWidth="14.0" overflow="visible"><path fill="none" d="M7.0 3.5 L14.0 7.0 L7.0 10.5" stroke-width="1.0" stroke-linejoin="round" stroke-linecap="round" stroke="#999999"/></marker></defs><g><g transform="translate(2.5 0.270325668315877)"><path marker-start="url(#id0)" fill="none" d="M5.458115183246074 0.0 L5.458115183246074 128.6819664430976" stroke-width="1.0" stroke-linejoin="round" stroke="#999999"/></g><g transform="translate(9.5 0.270325668315877)"><path fill="none" marker-end="url(#id1)" d="M4.921933331470514 0.0 L4.921933331470514 120.94787754209868 L4.921933331470514 127.18196644309756" stroke-width="1.0" stroke-linejoin="round" stroke="#999999"/></g><g transform="translate(34.73414999898711 59.925531158853026)"><g transform="translate(0.0 0.0)"><path marker-start="url(#id2)" fill="none" d="M5.458115183246074 0.0 L5.458115183246074 67.29172835733868" stroke-width="1.0" stroke-linejoin="round" stroke="#999999"/></g><g transform="translate(6.943536304063095 0.0)"><path fill="none" marker-end="url(#id3)" d="M4.921933331470514 0.0 L4.921933331470514 63.9932841783897 L4.921933331470514 67.29172835733863" stroke-width="1.0" stroke-linejoin="round" stroke="#999999"/></g></g><g transform="translate(81.5 59.62468990050173)"><g transform="translate(0.0 0.0)"><path marker-start="url(#id4)" fill="none" d="M5.458115183246074 0.0 L5.458115183246074 67.29172835733868" stroke-width="1.0" stroke-linejoin="round" stroke="#999999"/></g><g transform="translate(6.943536304063095 0.0)"><path fill="none" marker-end="url(#id5)" d="M4.921933331470514 0.0 L4.921933331470514 63.9932841783897 L4.921933331470514 67.29172835733863" stroke-width="1.0" stroke-linejoin="round" stroke="#999999"/></g></g><g transform="translate(94.5 0.270325668315877)"><path marker-start="url(#id6)" fill="none" d="M5.458115183246074 0.0 L5.458115183246074 43.82411612143545" stroke-width="1.0" stroke-linejoin="round" stroke="#999999"/></g><g transform="translate(101.5 0.270325668315877)"><path fill="none" marker-end="url(#id7)" d="M4.921933331470514 0.0 L4.921933331470514 69.60355354856819 L4.921933331470514 73.19117120226512" stroke-width="1.0" stroke-linejoin="round" stroke="#999999"/></g><g transform="translate(127.8929441595314 93.22836397069437)"><g transform="translate(0.0 0.0)"><path marker-start="url(#id8)" fill="none" d="M5.458115183246074 0.0 L5.458115183246074 33.98889554549734" stroke-width="1.0" stroke-linejoin="round" stroke="#999999"/></g><g transform="translate(6.943536304063095 0.0)"><path fill="none" marker-end="url(#id9)" d="M4.921933331470514 0.0 L4.921933331470514 32.32285905932461 L4.921933331470514 33.988895545497314" stroke-width="1.0" stroke-linejoin="round" stroke="#999999"/></g></g><g transform="translate(106.5 73.46149687058104)"><g transform="translate(0.0 0.0)"><path fill="#ffffff" fill-opacity="1.0" d="M54.41183630203736 0.0 L3.0 0.0 Q0.0 0.0 0.0 3.0 L0.0 16.766867100113302 Q0.0 19.766867100113302 3.0 19.766867100113302 L54.41183630203736 19.766867100113302 Q57.41183630203736 19.766867100113302 57.41183630203736 16.766867100113302 L57.41183630203736 3.0 Q57.41183630203736 0.0 54.41183630203736 0.0z" stroke-width="2.0" stroke-linejoin="round" stroke="#666666"/><g transform="translate(2.0 0.0)"><defs><clipPath id="id10"><path d="M0 0 L53.411836302037386 0 L53.411836302037386 19.766867100113316 L0 19.766867100113316z"/></clipPath></defs><text font-size="12" clip-path="url(#id10)" text-decoration="none" fill="#ed4580" font-family="Arial,Arial" font-style="normal" font-weight="normal"><tspan x="3.0" xml:space="preserve" y="13.883433550056658" textLength="46.0">max-age</tspan></text></g></g><g transform="translate(57.411836302037386 0.0)"><path fill="#ffffff" fill-opacity="1.0" d="M47.50657675586945 0.0 L3.0 0.0 Q0.0 0.0 0.0 3.0 L0.0 16.766867100113316 Q0.0 19.766867100113316 3.0 19.766867100113316 L47.50657675586945 19.766867100113316 Q50.50657675586945 19.766867100113316 50.50657675586945 16.766867100113316 L50.50657675586945 3.0 Q50.50657675586945 0.0 47.50657675586945 0.0z" stroke-width="2.0" stroke-linejoin="round" stroke="#666666"/><g transform="translate(2.0 0.0)"><defs><clipPath id="id11"><path d="M0 0 L46.5065767558695 0 L46.5065767558695 19.766867100113316 L0 19.766867100113316z"/></clipPath></defs><text font-size="12" clip-path="url(#id11)" text-decoration="none" fill="#ed4580" font-family="Arial,Arial" font-style="normal" font-weight="normal"><tspan x="10.0" xml:space="preserve" y="13.883433550056658" textLength="26.0">s-w-r</tspan></text></g></g></g><g transform="translate(14.421933331470541 39.857822800388405)"><g transform="translate(0.0 0.0)"><path fill="#ffffff" fill-opacity="1.0" d="M54.41183630203736 0.0 L3.0 0.0 Q0.0 0.0 0.0 3.0 L0.0 16.766867100113302 Q0.0 19.766867100113302 3.0 19.766867100113302 L54.41183630203736 19.766867100113302 Q57.41183630203736 19.766867100113302 57.41183630203736 16.766867100113302 L57.41183630203736 3.0 Q57.41183630203736 0.0 54.41183630203736 0.0z" stroke-width="2.0" stroke-linejoin="round" stroke="#666666"/><g transform="translate(2.0 0.0)"><defs><clipPath id="id12"><path d="M0 0 L53.41183630203736 0 L53.41183630203736 19.766867100113316 L0 19.766867100113316z"/></clipPath></defs><text font-size="12" clip-path="url(#id12)" text-decoration="none" fill="#ed4580" font-family="Arial,Arial" font-style="normal" font-weight="normal"><tspan x="3.0" xml:space="preserve" y="13.883433550056658" textLength="46.0">max-age</tspan></text></g></g><g transform="translate(57.41183630203736 1.4045203826720834E-14)"><path fill="#ffffff" fill-opacity="1.0" d="M47.50657675586945 0.0 L3.0 0.0 Q0.0 0.0 0.0 3.0 L0.0 16.766867100113316 Q0.0 19.766867100113316 3.0 19.766867100113316 L47.50657675586945 19.766867100113316 Q50.50657675586945 19.766867100113316 50.50657675586945 16.766867100113316 L50.50657675586945 3.0 Q50.50657675586945 0.0 47.50657675586945 0.0z" stroke-width="2.0" stroke-linejoin="round" stroke="#666666"/><g transform="translate(2.0 0.0)"><defs><clipPath id="id13"><path d="M0 0 L46.5065767558695 0 L46.5065767558695 19.766867100113316 L0 19.766867100113316z"/></clipPath></defs><text font-size="12" clip-path="url(#id13)" text-decoration="none" fill="#ed4580" font-family="Arial,Arial" font-style="normal" font-weight="normal"><tspan x="10.0" xml:space="preserve" y="13.883433550056658" textLength="26.0">s-w-r</tspan></text></g></g></g><g transform="translate(106.0 11.168984039301163)"><defs><clipPath id="id14"><path d="M0 0 L65.25 0 L65.25 17.79018039010196 L0 17.79018039010196z"/></clipPath></defs><text font-size="12" clip-path="url(#id14)" text-decoration="none" fill="#000000" font-family="monospace" font-style="normal" font-weight="normal"><tspan x="4.0" xml:space="preserve" y="12.89509019505098" textLength="57.0">validate</tspan></text></g><g transform="translate(0.0 0.0)"><path fill="none" d="M0.0 0.0 L220.00000000000003 0.0" stroke-width="2.0" stroke-linejoin="round" stroke="#666666"/><path fill="none" d="M0.0 127.99999900389103 L220.00000000000003 127.99999900389103" stroke-width="2.0" stroke-linejoin="round" stroke="#666666"/></g></g></svg>