<svg xmlns="http://www.w3.org/2000/svg" viewBox="0 0 600 600">
  <rect x="0  " y="0" width="100" height="100" stroke="#000" fill="#fff" />
  <rect x="100" y="0" width="100" height="100" stroke="#000" fill="#000" />
  <rect x="200" y="0" width="100" height="100" stroke="#000" fill="#999" />
  <rect x="300" y="0" width="100" height="100" stroke="#000" fill="#666" />
  <rect x="400" y="0" width="100" height="100" stroke="#000" fill="#fff" />
  <rect x="500" y="0" width="100" height="100" stroke="#000" fill="#666" />

  <rect x="0  " y="100" width="100" height="100" stroke="#000" fill="#666" />
  <rect x="100" y="100" width="100" height="100" stroke="#000" fill="#fff" />
  <rect x="200" y="100" width="100" height="100" stroke="#000" fill="#666" />
  <rect x="300" y="100" width="100" height="100" stroke="#000" fill="#000" />
  <rect x="400" y="100" width="100" height="100" stroke="#000" fill="#ccc" />
  <rect x="500" y="100" width="100" height="100" stroke="#000" fill="#fff" />

  <rect x="0  " y="200" width="100" height="100" stroke="#000" fill="#999" />
  <rect x="100" y="200" width="100" height="100" stroke="#000" fill="#666" />
  <rect x="200" y="200" width="100" height="100" stroke="#000" fill="#999" />
  <rect x="300" y="200" width="100" height="100" stroke="#000" fill="#fff" />
  <rect x="400" y="200" width="100" height="100" stroke="#000" fill="#666" />
  <rect x="500" y="200" width="100" height="100" stroke="#000" fill="#000" />

  <rect x="0  " y="300" width="100" height="100" stroke="#000" fill="#666" />
  <rect x="100" y="300" width="100" height="100" stroke="#000" fill="#fff" />
  <rect x="200" y="300" width="100" height="100" stroke="#000" fill="#000" />
  <rect x="300" y="300" width="100" height="100" stroke="#000" fill="#666" />
  <rect x="400" y="300" width="100" height="100" stroke="#000" fill="#fff" />
  <rect x="500" y="300" width="100" height="100" stroke="#000" fill="#ccc" />

  <rect x="0  " y="400" width="100" height="100" stroke="#000" fill="#fff" />
  <rect x="100" y="400" width="100" height="100" stroke="#000" fill="#999" />
  <rect x="200" y="400" width="100" height="100" stroke="#000" fill="#fff" />
  <rect x="300" y="400" width="100" height="100" stroke="#000" fill="#ccc" />
  <rect x="400" y="400" width="100" height="100" stroke="#000" fill="#000" />
  <rect x="500" y="400" width="100" height="100" stroke="#000" fill="#fff" />

  <rect x="0  " y="500" width="100" height="100" stroke="#000" fill="#999" />
  <rect x="100" y="500" width="100" height="100" stroke="#000" fill="#fff" />
  <rect x="200" y="500" width="100" height="100" stroke="#000" fill="#ccc" />
  <rect x="300" y="500" width="100" height="100" stroke="#000" fill="#666" />
  <rect x="400" y="500" width="100" height="100" stroke="#000" fill="#999" />
  <rect x="500" y="500" width="100" height="100" stroke="#000" fill="#000" />
</svg>
