<?xml version="1.0" encoding="utf-8"?>
<svg contentScriptType="text/ecmascript" xmlns:xlink="http://www.w3.org/1999/xlink" zoomAndPan="magnify" contentStyleType="text/css" viewBox="-12.0 -12.5 268.0 298.0" xmlns:cacoo="http://cacoo.com/" preserveAspectRatio="xMidYMin meet" xmlns="http://www.w3.org/2000/svg" version="1.1"><g><g transform="translate(80.0 119.16666666666666)"><path fill="#ffffff" fill-opacity="1.0" d="M105.74999999999997 34.33333333333341 Q105.74999999999997 39.33333333333341 100.74999999999997 39.33333333333341 L5.0 39.33333333333341 Q0.0 39.33333333333341 0.0 34.33333333333341 L0.0 5.0 Q0.0 0.0 5.0 0.0 L100.74999999999997 0.0 Q105.74999999999997 0.0 105.74999999999997 5.0 L105.74999999999997 34.33333333333341 L105.74999999999997 34.33333333333341z" stroke-width="1.0" stroke-linejoin="round" stroke="#000000"/><g transform="translate(1.0 1.0)"><defs><clipPath id="id0"><path d="M0 0 L103.75 0 L103.75 37.33333333333334 L0 37.33333333333334z"/></clipPath></defs><text font-size="11" clip-path="url(#id0)" text-decoration="none" fill="#000000" font-family="Arial,Arial" font-style="normal" font-weight="normal"><tspan x="3.0" xml:space="preserve" y="16.66666666666667" textLength="97.0">prefetch 可能なリソ</tspan><tspan x="13.0" xml:space="preserve" y="28.66666666666667" textLength="77.0">ースだけでなる</tspan></text></g></g><g transform="translate(42.0 60.83333333333333)"><path fill="#ffffff" fill-opacity="1.0" d="M105.74999999999997 34.33333333333341 Q105.74999999999997 39.33333333333341 100.74999999999997 39.33333333333341 L5.0 39.33333333333341 Q0.0 39.33333333333341 0.0 34.33333333333341 L0.0 5.0 Q0.0 0.0 5.0 0.0 L100.74999999999997 0.0 Q105.74999999999997 0.0 105.74999999999997 5.0 L105.74999999999997 34.33333333333341 L105.74999999999997 34.33333333333341z" stroke-width="1.0" stroke-linejoin="round" stroke="#000000"/><g transform="translate(1.0 1.0)"><defs><clipPath id="id1"><path d="M0 0 L103.75 0 L103.75 37.33333333333334 L0 37.33333333333334z"/></clipPath></defs><text font-size="11" clip-path="url(#id1)" text-decoration="none" fill="#000000" font-family="Arial,Arial" font-style="normal" font-weight="normal"><tspan x="2.0" xml:space="preserve" y="16.66666666666667" textLength="99.0">静的リソースか、事</tspan><tspan x="8.0" xml:space="preserve" y="28.66666666666667" textLength="88.0">前取得可能である</tspan></text></g></g><g transform="translate(8.0 2.5)"><path fill="#ffffff" fill-opacity="1.0" d="M101.58333333333329 34.33333333333341 Q101.58333333333329 39.33333333333341 96.58333333333329 39.33333333333341 L5.0 39.33333333333341 Q0.0 39.33333333333341 0.0 34.33333333333341 L0.0 5.0 Q0.0 0.0 5.0 0.0 L96.58333333333329 0.0 Q101.58333333333329 0.0 101.58333333333329 5.0 L101.58333333333329 34.33333333333341 L101.58333333333329 34.33333333333341z" stroke-width="1.0" stroke-linejoin="round" stroke="#000000"/><g transform="translate(1.0 1.0)"><defs><clipPath id="id2"><path d="M0 0 L99.58333333333331 0 L99.58333333333331 37.33333333333334 L0 37.33333333333334z"/></clipPath></defs><text font-size="11" clip-path="url(#id2)" text-decoration="none" fill="#000000" font-family="Arial,Arial" font-style="normal" font-weight="normal"><tspan x="7.0" xml:space="preserve" y="16.66666666666667" textLength="86.0"> 接続する URL ま</tspan><tspan x="11.0" xml:space="preserve" y="28.66666666666667" textLength="77.0">で分かっている</tspan></text></g></g><g transform="translate(94.875 42.583333333333336)"><defs><clipPath id="id3"><path d="M0 0 L13.5 0 L13.5 17.5 L0 17.5z"/></clipPath></defs><text font-size="12" clip-path="url(#id3)" text-decoration="none" fill="#000000" font-family="Arial,Arial" font-style="normal" font-weight="normal"><tspan x="3.0" xml:space="preserve" y="12.75" textLength="8.0">Y</tspan></text></g><g transform="translate(13.0 42.0)"><path fill="none" d="M5.458115183246074 0.0 L5.458115183246074 208.5" stroke-width="1.0" stroke-linejoin="round" stroke="#999999"/></g><g transform="translate(92.0 158.5)"><path fill="none" d="M4.5765384273765655 0.0 L4.5765384273765655 43.33333333333331" stroke-width="1.0" stroke-linejoin="round" stroke="#999999"/></g><g transform="translate(165.0 158.5)"><path fill="none" d="M5.0 0.0 L5.0 18.999999999999968" stroke-width="1.0" stroke-linejoin="round" stroke="#999999"/></g><g transform="translate(89.875 41.83333333333334)"><path fill="none" d="M5.0 0.0 L5.0 18.999999999999986" stroke-width="1.0" stroke-linejoin="round" stroke="#999999"/></g><g transform="translate(133.73306159914807 100.21843968891633)"><defs><clipPath id="id4"><path d="M0 0 L13.5 0 L13.5 17.499999999999986 L0 17.499999999999986z"/></clipPath></defs><text font-size="12" clip-path="url(#id4)" text-decoration="none" fill="#000000" font-family="Arial,Arial" font-style="normal" font-weight="normal"><tspan x="3.0" xml:space="preserve" y="12.749999999999993" textLength="8.0">Y</tspan></text></g><g transform="translate(170.0 158.5)"><defs><clipPath id="id5"><path d="M0 0 L13.5 0 L13.5 17.5 L0 17.5z"/></clipPath></defs><text font-size="12" clip-path="url(#id5)" text-decoration="none" fill="#000000" font-family="Arial,Arial" font-style="normal" font-weight="normal"><tspan x="3.0" xml:space="preserve" y="12.75" textLength="8.0">Y</tspan></text></g><g transform="translate(4.958115183246072 41.83333333333334)"><defs><clipPath id="id6"><path d="M0 0 L13.5 0 L13.5 17.5 L0 17.5z"/></clipPath></defs><text font-size="12" clip-path="url(#id6)" text-decoration="none" fill="#000000" font-family="Arial,Arial" font-style="normal" font-weight="normal"><tspan x="3.0" xml:space="preserve" y="12.75" textLength="8.0">N</tspan></text></g><g transform="translate(44.42193333147051 100.16666666666667)"><defs><clipPath id="id7"><path d="M0 0 L13.5 0 L13.5 17.5 L0 17.5z"/></clipPath></defs><text font-size="12" clip-path="url(#id7)" text-decoration="none" fill="#000000" font-family="Arial,Arial" font-style="normal" font-weight="normal"><tspan x="3.0" xml:space="preserve" y="12.75" textLength="8.0">N</tspan></text></g><g transform="translate(83.07653842737656 158.5)"><defs><clipPath id="id8"><path d="M0 0 L13.5 0 L13.5 17.5 L0 17.5z"/></clipPath></defs><text font-size="12" clip-path="url(#id8)" text-decoration="none" fill="#000000" font-family="Arial,Arial" font-style="normal" font-weight="normal"><tspan x="3.0" xml:space="preserve" y="12.75" textLength="8.0">N</tspan></text></g><g transform="translate(53.0 100.21843968891633)"><path fill="none" d="M4.921933331470514 0.0 L4.921933331470514 119.91480126009878 L4.921933331470514 126.09564169147271" stroke-width="1.0" stroke-linejoin="round" stroke="#999999"/></g><g transform="translate(127.70677536034079 100.21843968891633)"><path fill="none" d="M6.026286238807273 0.0 L6.026286238807273 18.94822697775032" stroke-width="1.0" stroke-linejoin="round" stroke="#999999"/></g><g transform="translate(3.0 177.49999999999997)"><g transform="translate(0.0 73.00000000000003)"><path fill="#ffffff" fill-opacity="1.0" d="M117.0 0.0 L3.0 0.0 Q0.0 0.0 0.0 3.0 L0.0 17.0 Q0.0 20.0 3.0 20.0 L117.0 20.0 Q120.0 20.0 120.0 17.0 L120.0 3.0 Q120.0 0.0 117.0 0.0z" stroke-width="1.0" stroke-linejoin="round" stroke="#999999"/><g transform="translate(2.0 0.0)"><defs><clipPath id="id9"><path d="M0 0 L116.0 0 L116.0 20.0 L0 20.0z"/></clipPath></defs><text font-size="12" clip-path="url(#id9)" text-decoration="none" fill="#ed4580" font-family="Arial,Arial" font-style="normal" font-weight="normal"><tspan x="25.0" xml:space="preserve" y="14.0" textLength="66.0">dns-prefetch</tspan></text></g></g><g transform="translate(39.0 48.666666666666714)"><path fill="#ffffff" fill-opacity="1.0" d="M117.0 0.0 L3.0 0.0 Q0.0 0.0 0.0 3.0 L0.0 17.0 Q0.0 20.0 3.0 20.0 L117.0 20.0 Q120.0 20.0 120.0 17.0 L120.0 3.0 Q120.0 0.0 117.0 0.0z" stroke-width="1.0" stroke-linejoin="round" stroke="#999999"/><g transform="translate(2.0 0.0)"><defs><clipPath id="id10"><path d="M0 0 L116.0 0 L116.0 20.0 L0 20.0z"/></clipPath></defs><text font-size="12" clip-path="url(#id10)" text-decoration="none" fill="#ed4580" font-family="Arial,Arial" font-style="normal" font-weight="normal"><tspan x="28.0" xml:space="preserve" y="14.0" textLength="59.0">preconnect</tspan></text></g></g><g transform="translate(79.0 24.33333333333337)"><path fill="#ffffff" fill-opacity="1.0" d="M117.0 0.0 L3.0 0.0 Q0.0 0.0 0.0 3.0 L0.0 17.0 Q0.0 20.0 3.0 20.0 L117.0 20.0 Q120.0 20.0 120.0 17.0 L120.0 3.0 Q120.0 0.0 117.0 0.0z" stroke-width="1.0" stroke-linejoin="round" stroke="#999999"/><g transform="translate(2.0 0.0)"><defs><clipPath id="id11"><path d="M0 0 L116.0 0 L116.0 20.0 L0 20.0z"/></clipPath></defs><text font-size="12" clip-path="url(#id11)" text-decoration="none" fill="#ed4580" font-family="Arial,Arial" font-style="normal" font-weight="normal"><tspan x="36.0" xml:space="preserve" y="14.0" textLength="43.0">prefetch</tspan></text></g></g><g transform="translate(118.0 0.0)"><path fill="#ffffff" fill-opacity="1.0" d="M117.0 0.0 L3.0 0.0 Q0.0 0.0 0.0 3.0 L0.0 17.0 Q0.0 20.0 3.0 20.0 L117.0 20.0 Q120.0 20.0 120.0 17.0 L120.0 3.0 Q120.0 0.0 117.0 0.0z" stroke-width="1.0" stroke-linejoin="round" stroke="#999999"/><g transform="translate(2.0 0.0)"><defs><clipPath id="id12"><path d="M0 0 L116.0 0 L116.0 20.00000000000003 L0 20.00000000000003z"/></clipPath></defs><text font-size="12" clip-path="url(#id12)" text-decoration="none" fill="#ed4580" font-family="Arial,Arial" font-style="normal" font-weight="normal"><tspan x="32.0" xml:space="preserve" y="14.000000000000014" textLength="52.0">prerender</tspan></text></g></g></g></g></svg>