<svg contentScriptType="text/ecmascript" viewBox="-12 -12.5 268 298" preserveAspectRatio="xMidYMin meet" xmlns="http://www.w3.org/2000/svg"><path fill="#fff" d="M185.75 153.5q0 5-5 5H85q-5 0-5-5v-29.333q0-5 5-5h95.75q5 0 5 5V153.5z" stroke-linejoin="round" stroke="#000"/><g transform="translate(81 120.167)"><defs><clipPath id="a"><path d="M0 0h103.75v37.333H0z"/></clipPath></defs><text font-size="11" clip-path="url(#a)" font-family="Arial,Arial"><tspan x="3" y="16.667" textLength="97">prefetch 可能なリソ</tspan><tspan x="13" y="28.667" textLength="77">ースだけでなる</tspan></text></g><path fill="#fff" d="M147.75 95.167q0 5-5 5H47q-5 0-5-5V65.833q0-5 5-5h95.75q5 0 5 5v29.334z" stroke-linejoin="round" stroke="#000"/><g transform="translate(43 61.833)"><defs><clipPath id="b"><path d="M0 0h103.75v37.333H0z"/></clipPath></defs><text font-size="11" clip-path="url(#b)" font-family="Arial,Arial"><tspan x="2" y="16.667" textLength="99">静的リソースか、事</tspan><tspan x="8" y="28.667" textLength="88">前取得可能である</tspan></text></g><path fill="#fff" d="M109.583 36.833q0 5-5 5H13q-5 0-5-5V7.5q0-5 5-5h91.583q5 0 5 5v29.333z" stroke-linejoin="round" stroke="#000"/><g transform="translate(9 3.5)"><defs><clipPath id="c"><path d="M0 0h99.583v37.333H0z"/></clipPath></defs><text font-size="11" clip-path="url(#c)" font-family="Arial,Arial"><tspan x="7" y="16.667" textLength="86">接続する URL ま</tspan><tspan x="11" y="28.667" textLength="77">で分かっている</tspan></text></g><g transform="translate(94.875 42.583)"><defs><clipPath id="d"><path d="M0 0h13.5v17.5H0z"/></clipPath></defs><text font-size="12" clip-path="url(#d)" font-family="Arial,Arial"><tspan x="3" y="12.75" textLength="8">Y</tspan></text></g><path fill="none" d="M18.458 42v208.5m78.119-92v43.333M170 158.5v19M94.875 41.833v19" stroke-linejoin="round" stroke="#999"/><g transform="translate(133.733 100.218)"><defs><clipPath id="e"><path d="M0 0h13.5v17.5H0z"/></clipPath></defs><text font-size="12" clip-path="url(#e)" font-family="Arial,Arial"><tspan x="3" y="12.75" textLength="8">Y</tspan></text></g><g transform="translate(170 158.5)"><defs><clipPath id="f"><path d="M0 0h13.5v17.5H0z"/></clipPath></defs><text font-size="12" clip-path="url(#f)" font-family="Arial,Arial"><tspan x="3" y="12.75" textLength="8">Y</tspan></text></g><g transform="translate(4.958 41.833)"><defs><clipPath id="g"><path d="M0 0h13.5v17.5H0z"/></clipPath></defs><text font-size="12" clip-path="url(#g)" font-family="Arial,Arial"><tspan x="3" y="12.75" textLength="8">N</tspan></text></g><g transform="translate(44.422 100.167)"><defs><clipPath id="h"><path d="M0 0h13.5v17.5H0z"/></clipPath></defs><text font-size="12" clip-path="url(#h)" font-family="Arial,Arial"><tspan x="3" y="12.75" textLength="8">N</tspan></text></g><g transform="translate(83.077 158.5)"><defs><clipPath id="i"><path d="M0 0h13.5v17.5H0z"/></clipPath></defs><text font-size="12" clip-path="url(#i)" font-family="Arial,Arial"><tspan x="3" y="12.75" textLength="8">N</tspan></text></g><path fill="none" d="M57.922 100.218v126.096m75.811-126.096v18.949" stroke-linejoin="round" stroke="#999"/><path fill="#fff" d="M120 250.5H6q-3 0-3 3v14q0 3 3 3h114q3 0 3-3v-14q0-3-3-3z" stroke-linejoin="round" stroke="#999"/><g transform="translate(5 250.5)"><defs><clipPath id="j"><path d="M0 0h116v20H0z"/></clipPath></defs><text font-size="12" clip-path="url(#j)" fill="#ed4580" font-family="Arial,Arial"><tspan x="25" y="14" textLength="66">dns-prefetch</tspan></text></g><path fill="#fff" d="M159 226.167H45q-3 0-3 3v14q0 3 3 3h114q3 0 3-3v-14q0-3-3-3z" stroke-linejoin="round" stroke="#999"/><g transform="translate(44 226.167)"><defs><clipPath id="k"><path d="M0 0h116v20H0z"/></clipPath></defs><text font-size="12" clip-path="url(#k)" fill="#ed4580" font-family="Arial,Arial"><tspan x="28" y="14" textLength="59">preconnect</tspan></text></g><path fill="#fff" d="M199 201.833H85q-3 0-3 3v14q0 3 3 3h114q3 0 3-3v-14q0-3-3-3z" stroke-linejoin="round" stroke="#999"/><g transform="translate(84 201.833)"><defs><clipPath id="l"><path d="M0 0h116v20H0z"/></clipPath></defs><text font-size="12" clip-path="url(#l)" fill="#ed4580" font-family="Arial,Arial"><tspan x="36" y="14" textLength="43">prefetch</tspan></text></g><path fill="#fff" d="M238 177.5H124q-3 0-3 3v14q0 3 3 3h114q3 0 3-3v-14q0-3-3-3z" stroke-linejoin="round" stroke="#999"/><g transform="translate(123 177.5)"><defs><clipPath id="m"><path d="M0 0h116v20H0z"/></clipPath></defs><text font-size="12" clip-path="url(#m)" fill="#ed4580" font-family="Arial,Arial"><tspan x="32" y="14" textLength="52">prerender</tspan></text></g></svg>