<svg contentScriptType="text/ecmascript" xmlns:xlink="http://www.w3.org/1999/xlink" viewBox="-8.309568019093092 31.0 885.3095680190931 475.0" preserveAspectRatio="xMidYMin meet" xmlns="http://www.w3.org/2000/svg"><defs><marker refX="14" refY="7" markerUnits="userSpaceOnUse" orient="auto" id="d" markerHeight="14" viewBox="0 0 14.0 14.0" preserveAspectRatio="xMidYMid meet" markerWidth="14" overflow="visible"><path fill="none" d="M7 3.5L14 7l-7 3.5" stroke-width="3" stroke-linejoin="round" stroke-linecap="round" stroke="#000"/></marker><marker refY="7" markerUnits="userSpaceOnUse" orient="auto" id="e" markerHeight="14" viewBox="0 0 14.0 14.0" preserveAspectRatio="xMidYMid meet" markerWidth="14" overflow="visible"><path fill="none" d="M7 3.5L0 7l7 3.5" stroke-width="3" stroke-linejoin="round" stroke-linecap="round" stroke="#000"/></marker><marker refX="14" refY="7" markerUnits="userSpaceOnUse" orient="auto" id="f" markerHeight="14" viewBox="0 0 14.0 14.0" preserveAspectRatio="xMidYMid meet" markerWidth="14" overflow="visible"><path fill="none" d="M7 3.5L14 7l-7 3.5" stroke-width="3" stroke-linejoin="round" stroke-linecap="round" stroke="#000"/></marker><marker refX="14" refY="7" markerUnits="userSpaceOnUse" orient="auto" id="g" markerHeight="14" viewBox="0 0 14.0 14.0" preserveAspectRatio="xMidYMid meet" markerWidth="14" overflow="visible"><path fill="none" d="M7 3.5L14 7l-7 3.5" stroke-width="3" stroke-linejoin="round" stroke-linecap="round" stroke="#000"/></marker><marker refX="14" refY="7" markerUnits="userSpaceOnUse" orient="auto" id="n" markerHeight="14" viewBox="0 0 14.0 14.0" preserveAspectRatio="xMidYMid meet" markerWidth="14" overflow="visible"><path fill="none" d="M7 3.5L14 7l-7 3.5" stroke-linejoin="round" stroke-linecap="round" stroke="#000"/></marker><marker refX="14" refY="7" markerUnits="userSpaceOnUse" orient="auto" id="o" markerHeight="14" viewBox="0 0 14.0 14.0" preserveAspectRatio="xMidYMid meet" markerWidth="14" overflow="visible"><path fill="none" d="M7 3.5L14 7l-7 3.5" stroke-linejoin="round" stroke-linecap="round" stroke="#000"/></marker><marker refX="14" refY="7" markerUnits="userSpaceOnUse" orient="auto" id="p" markerHeight="14" viewBox="0 0 14.0 14.0" preserveAspectRatio="xMidYMid meet" markerWidth="14" overflow="visible"><path fill="none" d="M7 3.5L14 7l-7 3.5" stroke-linejoin="round" stroke-linecap="round" stroke="#000"/></marker><linearGradient xlink:actuate="onLoad" xlink:type="simple" id="r" xlink:show="other" xmlns:xlink="http://www.w3.org/1999/xlink"><stop stop-color="#fff" offset="0%"/><stop stop-color="#ccc" offset="100%"/></linearGradient><linearGradient x1="0%" xmlns:xlink="http://www.w3.org/1999/xlink" y1="0%" x2="0%" y2="100%" xlink:type="simple" xlink:actuate="onLoad" id="s" xlink:show="other"><stop stop-color="#ccc" offset="0%"/><stop stop-color="#fff" offset="100%"/></linearGradient><marker refX="14" refY="7" markerUnits="userSpaceOnUse" orient="auto" id="v" markerHeight="14" viewBox="0 0 14.0 14.0" preserveAspectRatio="xMidYMid meet" markerWidth="14" overflow="visible"><path fill="none" d="M7 3.5L14 7l-7 3.5" stroke-linejoin="round" stroke-linecap="round" stroke="#000"/></marker><marker refX="14" refY="7" markerUnits="userSpaceOnUse" orient="auto" id="C" markerHeight="14" viewBox="0 0 14.0 14.0" preserveAspectRatio="xMidYMid meet" markerWidth="14" overflow="visible"><path fill="none" d="M7 3.5L14 7l-7 3.5" stroke-linejoin="round" stroke-linecap="round" stroke="#000"/></marker></defs><path fill="none" d="M323 271.5q0 5-5 5H208q-5 0-5-5v-110q0-5 5-5h110q5 0 5 5v110z" stroke-width="3" stroke-linejoin="round" stroke="#51b11d"/><g transform="translate(204 157.5)"><defs><clipPath id="a"><path d="M0 0h118v118H0z"/></clipPath></defs><text font-size="24" clip-path="url(#a)" font-family="Arial,Arial"><tspan x="28" y="67.5" textLength="61">Client</tspan></text></g><path fill="none" d="M862 271.5q0 5-5 5H747q-5 0-5-5v-110q0-5 5-5h110q5 0 5 5v110z" stroke-width="3" stroke-linejoin="round" stroke="#51b11d"/><g transform="translate(743 157.5)"><defs><clipPath id="b"><path d="M0 0h118v118H0z"/></clipPath></defs><text font-size="24" clip-path="url(#b)" font-family="Arial,Arial"><tspan x="24" y="67.5" textLength="70">Server</tspan></text></g><g transform="translate(341.984 161)"><defs><clipPath id="c"><path d="M0 0h92.297v26H0z"/></clipPath></defs><text font-size="20" clip-path="url(#c)" fill="#286bcc" font-family="Arial,Arial"><tspan x="13" y="20" textLength="65">onfetch</tspan></text></g><path fill="none" marker-end="url(#d)" d="M323 186.5h111.448" stroke-width="3" stroke-linejoin="round" stroke="#000"/><path marker-start="url(#e)" fill="none" d="M323 246.5h111.448" stroke-width="3" stroke-linejoin="round" stroke="#000"/><path fill="none" marker-end="url(#f)" d="M471.822 186.5H742" stroke-width="3" stroke-linejoin="round" stroke="#000"/><path fill="none" marker-end="url(#g)" d="M742 246.5H471.822" stroke-width="3" stroke-linejoin="round" stroke="#000"/><path fill="#fff" d="M373.984 454q0 4.556-3.221 7.778Q367.54 465 362.984 465q-4.556 0-7.778-3.222-3.222-3.222-3.222-7.778 0-4.556 3.222-7.778 3.222-3.222 7.778-3.222 4.557 0 7.779 3.222 3.221 3.222 3.221 7.778z" stroke-linejoin="round" stroke="#000"/><defs transform="translate(355.03 446.503)"><clipPath id="h"><path d="M0 0h15.91v14.893H0z"/></clipPath></defs><g transform="translate(341.984 465)"><defs><clipPath id="i"><path d="M0 0h93.5v26H0z"/></clipPath></defs><text font-size="20" clip-path="url(#i)" font-family="Arial,Arial"><tspan x="13" y="20" textLength="67">.waiting</tspan></text></g><path fill="#fff" d="M463.969 353q0 4.556-3.222 7.778Q457.525 364 452.97 364q-4.556 0-7.778-3.222-3.222-3.222-3.222-7.778 0-4.556 3.222-7.778 3.222-3.222 7.778-3.222 4.557 0 7.778 3.222 3.222 3.222 3.222 7.778z" stroke-linejoin="round" stroke="#000"/><defs transform="translate(445.015 345.503)"><clipPath id="j"><path d="M0 0h15.91v14.893H0z"/></clipPath></defs><g transform="translate(463.969 340)"><defs><clipPath id="k"><path d="M0 0h85v26H0z"/></clipPath></defs><text font-size="20" clip-path="url(#k)" font-family="Arial,Arial"><tspan x="14" y="20" textLength="57">.active</tspan></text></g><path fill="#fff" d="M204.297 396q0 4.556-3.222 7.778-3.221 3.222-7.778 3.222-4.556 0-7.778-3.222-3.222-3.222-3.222-7.778 0-4.556 3.222-7.778 3.222-3.222 7.778-3.222 4.557 0 7.778 3.222 3.222 3.222 3.222 7.778z" stroke-linejoin="round" stroke="#000"/><defs transform="translate(185.343 388.503)"><clipPath id="l"><path d="M0 0h15.91v14.893H0z"/></clipPath></defs><g transform="translate(204.297 370)"><defs><clipPath id="m"><path d="M0 0h107v26H0z"/></clipPath></defs><text font-size="20" clip-path="url(#m)" font-family="Arial,Arial"><tspan x="12" y="20" textLength="83">.installing</tspan></text></g><path fill="none" marker-end="url(#n)" d="M201.075 403.778L351.985 454" stroke-linejoin="round" stroke="#000"/><path fill="none" marker-end="url(#o)" d="M370.763 446.222l74.428-85.444" stroke-linejoin="round" stroke="#000"/><path fill="none" marker-end="url(#p)" d="M452.969 342v-65.5" stroke-linejoin="round" stroke="#000"/><g transform="translate(452.969 121)"><defs><clipPath id="q"><path d="M0 0h138.5v26H0z"/></clipPath></defs><text font-size="20" clip-path="url(#q)" fill="#ff8410" font-family="Arial,Arial"><tspan x="26" y="20" textLength="86">Controller</tspan></text></g><path fill="url(#r)" d="M46.678 14.078L32.563 0H6.19q-1 0-1 1v50.33q0 1 1 1h39.488q1 0 1-1V14.078z" stroke-linejoin="round" stroke="#000" transform="translate(19.822 224.17)"/><path fill="#7ac01f" d="M56.496 243.069q0 1-1 1H20.822q-1 0-1-1v-11.844q0-1 1-1h34.674q1 0 1 1v11.845-.001z" stroke-linejoin="round" stroke="#000"/><path fill="#fff" d="M33.471 240.776q.129.03.377.03.595 0 .595-1.012v-5.169h1.786v5.219q0 2.153-1.796 2.153-.593 0-1.002-.089l.04-1.131 2.758-6.995h-1.786v-1.31h1.786v1.31M38.194 238.366q.832.357 1.677.357.724 0 .724-.417l-2.54-2.123q0-1.677 2.202-1.677 1.063 0 1.815.298l-.139 1.24q-.571-.347-1.389-.347-.823 0-.823.357l2.659 2.133q0 1.727-2.411 1.727-1.099 0-1.875-.248l.099-1.3h.001z"/><path fill="#969696" d="M43.006 250.933h-.799q-.987 0-.987 1.088v3.113q-.02 1.734-1.973 1.87 1.956.173 1.973 2.024v2.993q0 1.089.987 1.089h.799v1.53h-1.701q-2.432 0-2.432-2.33v-3.282q0-1.241-1.462-1.241v-1.531q1.462 0 1.462-1.122v-3.402q0-2.33 2.432-2.33h1.701v1.531zM49.979 263.11h.799q.987 0 .987-1.089v-3.112q.02-1.732 1.973-1.871-1.956-.17-1.973-2.023v-2.994q0-1.088-.987-1.088h-.799v-1.531h1.7q2.433 0 2.433 2.33v3.283q0 1.241 1.463 1.241v1.531q-1.463 0-1.463 1.122v3.401q0 2.33-2.433 2.33h-1.7v-1.53z"/><path fill="url(#s)" d="M46.678 14.144H33.587q-1 0-1-1V0l14.091 14.144z" stroke-linejoin="round" stroke="#000" transform="translate(19.822 224.17)"/><g><path fill="#fff" d="M131 323q0 4.556-3.222 7.778Q124.556 334 120 334q-4.556 0-7.778-3.222Q109 327.556 109 323q0-4.556 3.222-7.778Q115.444 312 120 312q4.557 0 7.778 3.222Q131 318.444 131 323z" stroke-linejoin="round" stroke="#000"/><defs transform="translate(112.046 315.503)"><clipPath id="t"><path d="M0 0h15.91v14.893H0z"/></clipPath></defs></g><g transform="translate(66.5 276.5)"><defs><clipPath id="u"><path d="M0 0h107v26H0z"/></clipPath></defs><text font-size="20" clip-path="url(#u)" font-family="Arial,Arial"><tspan x="13" y="20" textLength="80">register()</tspan></text></g><path fill="none" marker-end="url(#v)" d="M127.778 330.778l57.741 57.444" stroke-linejoin="round" stroke="#000"/><g transform="translate(6.69 359)"><defs><clipPath id="w"><path d="M0 0h153.297v26H0z"/></clipPath></defs><text font-size="20" clip-path="url(#w)" fill="#286bcc" font-family="Arial,Arial"><tspan x="10" y="20" textLength="133">onupdatefound</tspan></text></g><g transform="translate(193.297 428)"><defs><clipPath id="x"><path d="M0 0h92.297v26H0z"/></clipPath></defs><text font-size="20" clip-path="url(#x)" fill="#286bcc" font-family="Arial,Arial"><tspan x="9" y="20" textLength="73">oninstall</tspan></text></g><g transform="translate(411.77 402)"><defs><clipPath id="y"><path d="M0 0h104.399v26H0z"/></clipPath></defs><text font-size="20" clip-path="url(#y)" fill="#286bcc" font-family="Arial,Arial"><tspan x="6" y="20" textLength="91">onactivate</tspan></text></g><g transform="translate(463.969 291.5)"><defs><clipPath id="z"><path d="M0 0h193.399v26H0z"/></clipPath></defs><text font-size="20" clip-path="url(#z)" fill="#286bcc" font-family="Arial,Arial"><tspan x="11" y="20" textLength="170">oncontrollerchange</tspan></text></g><g><path fill="#fff" d="M319.984 59q0 4.556-3.221 7.778Q313.54 70 308.984 70q-4.556 0-7.778-3.222-3.222-3.222-3.222-7.778 0-4.556 3.222-7.778Q304.428 48 308.984 48q4.557 0 7.779 3.222 3.221 3.222 3.221 7.778z" stroke-linejoin="round" stroke="#000"/><defs transform="translate(301.03 51.503)"><clipPath id="A"><path d="M0 0h15.91v14.893H0z"/></clipPath></defs></g><g transform="translate(327.969 46)"><defs><clipPath id="B"><path d="M0 0h136v26H0z"/></clipPath></defs><text font-size="20" clip-path="url(#B)" font-family="Arial,Arial"><tspan x="23" y="20" textLength="90">redundant</tspan></text></g><path fill="none" marker-end="url(#C)" d="M443.625 156.5L316.763 66.778" stroke-linejoin="round" stroke="#000"/><g><path fill="none" d="M471.656 271.5q0 5-5 5h-27.374q-5 0-5-5v-110q0-5 5-5h27.374q5 0 5 5v110z" stroke-width="3" stroke-linejoin="round" stroke="#ff8410"/><g transform="translate(435.282 157.5)"><defs><clipPath id="D"><path d="M0 0h35.375v118H0z"/></clipPath></defs><text font-size="19" clip-path="url(#D)" font-family="Arial,Arial"><tspan x="2" y="65.5" textLength="30">SW</tspan></text></g></g></svg>