<?xml version="1.0" encoding="utf-8"?>
<svg contentScriptType="text/ecmascript" xmlns:xlink="http://www.w3.org/1999/xlink" zoomAndPan="magnify" contentStyleType="text/css" viewBox="-8.309568019093092 31.0 885.3095680190931 475.0" xmlns:cacoo="http://cacoo.com/" preserveAspectRatio="xMidYMin meet" xmlns="http://www.w3.org/2000/svg" version="1.1"><defs><marker refX="14.0" refY="7.0" markerUnits="userSpaceOnUse" orient="auto" id="id3" markerHeight="14.0" viewBox="0 0 14.0 14.0" preserveAspectRatio="xMidYMid meet" markerWidth="14.0" overflow="visible"><path fill="none" d="M7.0 3.5 L14.0 7.0 L7.0 10.5" stroke-width="3.0" stroke-linejoin="round" stroke-linecap="round" stroke="#000000"/></marker><marker refX="0.0" refY="7.0" markerUnits="userSpaceOnUse" orient="auto" id="id4" markerHeight="14.0" viewBox="0 0 14.0 14.0" preserveAspectRatio="xMidYMid meet" markerWidth="14.0" overflow="visible"><path fill="none" d="M7.0 3.5 L0 7.0 L7.0 10.5" stroke-width="3.0" stroke-linejoin="round" stroke-linecap="round" stroke="#000000"/></marker><marker refX="14.0" refY="7.0" markerUnits="userSpaceOnUse" orient="auto" id="id5" markerHeight="14.0" viewBox="0 0 14.0 14.0" preserveAspectRatio="xMidYMid meet" markerWidth="14.0" overflow="visible"><path fill="none" d="M7.0 3.5 L14.0 7.0 L7.0 10.5" stroke-width="3.0" stroke-linejoin="round" stroke-linecap="round" stroke="#000000"/></marker><marker refX="14.0" refY="7.0" markerUnits="userSpaceOnUse" orient="auto" id="id6" markerHeight="14.0" viewBox="0 0 14.0 14.0" preserveAspectRatio="xMidYMid meet" markerWidth="14.0" overflow="visible"><path fill="none" d="M7.0 3.5 L14.0 7.0 L7.0 10.5" stroke-width="3.0" stroke-linejoin="round" stroke-linecap="round" stroke="#000000"/></marker><marker refX="14.0" refY="7.0" markerUnits="userSpaceOnUse" orient="auto" id="id13" markerHeight="14.0" viewBox="0 0 14.0 14.0" preserveAspectRatio="xMidYMid meet" markerWidth="14.0" overflow="visible"><path fill="none" d="M7.0 3.5 L14.0 7.0 L7.0 10.5" stroke-width="1.0" stroke-linejoin="round" stroke-linecap="round" stroke="#000000"/></marker><marker refX="14.0" refY="7.0" markerUnits="userSpaceOnUse" orient="auto" id="id14" markerHeight="14.0" viewBox="0 0 14.0 14.0" preserveAspectRatio="xMidYMid meet" markerWidth="14.0" overflow="visible"><path fill="none" d="M7.0 3.5 L14.0 7.0 L7.0 10.5" stroke-width="1.0" stroke-linejoin="round" stroke-linecap="round" stroke="#000000"/></marker><marker refX="14.0" refY="7.0" markerUnits="userSpaceOnUse" orient="auto" id="id15" markerHeight="14.0" viewBox="0 0 14.0 14.0" preserveAspectRatio="xMidYMid meet" markerWidth="14.0" overflow="visible"><path fill="none" d="M7.0 3.5 L14.0 7.0 L7.0 10.5" stroke-width="1.0" stroke-linejoin="round" stroke-linecap="round" stroke="#000000"/></marker><linearGradient xlink:actuate="onLoad" xlink:type="simple" id="id17" xlink:show="other" xmlns:xlink="http://www.w3.org/1999/xlink"><stop stop-opacity="1.0" stop-color="#ffffff" offset="0%"/><stop stop-opacity="1.0" stop-color="#cccccc" offset="100%"/></linearGradient><linearGradient x1="0%" xmlns:xlink="http://www.w3.org/1999/xlink" y1="0%" x2="0%" y2="100%" xlink:type="simple" xlink:actuate="onLoad" id="id18" xlink:show="other"><stop stop-opacity="1.0" stop-color="#cccccc" offset="0%"/><stop stop-opacity="1.0" stop-color="#ffffff" offset="100%"/></linearGradient><marker refX="14.0" refY="7.0" markerUnits="userSpaceOnUse" orient="auto" id="id21" markerHeight="14.0" viewBox="0 0 14.0 14.0" preserveAspectRatio="xMidYMid meet" markerWidth="14.0" overflow="visible"><path fill="none" d="M7.0 3.5 L14.0 7.0 L7.0 10.5" stroke-width="1.0" stroke-linejoin="round" stroke-linecap="round" stroke="#000000"/></marker><marker refX="14.0" refY="7.0" markerUnits="userSpaceOnUse" orient="auto" id="id28" markerHeight="14.0" viewBox="0 0 14.0 14.0" preserveAspectRatio="xMidYMid meet" markerWidth="14.0" overflow="visible"><path fill="none" d="M7.0 3.5 L14.0 7.0 L7.0 10.5" stroke-width="1.0" stroke-linejoin="round" stroke-linecap="round" stroke="#000000"/></marker></defs><g><g transform="translate(203.0 156.5)"><path fill="none" d="M120.00000000000003 115.00000000000003 Q120.00000000000003 120.00000000000003 115.00000000000003 120.00000000000003 L5.0 120.00000000000003 Q0.0 120.00000000000003 0.0 115.00000000000003 L0.0 5.0 Q0.0 0.0 5.0 0.0 L115.00000000000003 0.0 Q120.00000000000003 0.0 120.00000000000003 5.0 L120.00000000000003 115.00000000000003 L120.00000000000003 115.00000000000003z" stroke-width="3.0" stroke-linejoin="round" stroke="#51b11d"/><g transform="translate(1.0 1.0)"><defs><clipPath id="id0"><path d="M0 0 L118.0 0 L118.0 118.0 L0 118.0z"/></clipPath></defs><text font-size="24" clip-path="url(#id0)" text-decoration="none" fill="#000000" font-family="Arial,Arial" font-style="normal" font-weight="normal"><tspan x="28.0" xml:space="preserve" y="67.5" textLength="61.0">Client</tspan></text></g></g><g transform="translate(742.0 156.5)"><path fill="none" d="M120.00000000000003 115.00000000000003 Q120.00000000000003 120.00000000000003 115.00000000000003 120.00000000000003 L5.0 120.00000000000003 Q0.0 120.00000000000003 0.0 115.00000000000003 L0.0 5.0 Q0.0 0.0 5.0 0.0 L115.00000000000003 0.0 Q120.00000000000003 0.0 120.00000000000003 5.0 L120.00000000000003 115.00000000000003 L120.00000000000003 115.00000000000003z" stroke-width="3.0" stroke-linejoin="round" stroke="#51b11d"/><g transform="translate(1.0 1.0)"><defs><clipPath id="id1"><path d="M0 0 L118.0 0 L118.0 118.0 L0 118.0z"/></clipPath></defs><text font-size="24" clip-path="url(#id1)" text-decoration="none" fill="#000000" font-family="Arial,Arial" font-style="normal" font-weight="normal"><tspan x="24.0" xml:space="preserve" y="67.5" textLength="70.0">Server</tspan></text></g></g><g transform="translate(341.98448687350833 161.0)"><defs><clipPath id="id2"><path d="M0 0 L92.29713603818618 0 L92.29713603818618 26.0 L0 26.0z"/></clipPath></defs><text font-size="20" clip-path="url(#id2)" text-decoration="none" fill="#286bcc" font-family="Arial,Arial" font-style="normal" font-weight="normal"><tspan x="13.0" xml:space="preserve" y="20.0" textLength="65.0">onfetch</tspan></text></g><path fill="none" marker-end="url(#id3)" d="M323.0 186.5 L434.44773269689745 186.5" stroke-width="3.0" stroke-linejoin="round" stroke="#000000"/><path marker-start="url(#id4)" fill="none" d="M323.0 246.5 L434.44773269689745 246.49999999999994" stroke-width="3.0" stroke-linejoin="round" stroke="#000000"/><path fill="none" marker-end="url(#id5)" d="M471.8224343675418 186.5 L741.9999999999998 186.5" stroke-width="3.0" stroke-linejoin="round" stroke="#000000"/><path fill="none" marker-end="url(#id6)" d="M741.9999999999998 246.5 L471.8224343675418 246.49999999999994" stroke-width="3.0" stroke-linejoin="round" stroke="#000000"/><g transform="translate(351.98448687350833 443.0)"><path fill="#ffffff" fill-opacity="1.0" d="M22.0 11.0 Q22.0 15.556130920000001 18.77832 18.77798999999999 Q15.556486 22.0 11.0 22.0 Q6.443689999999998 22.0 3.2218455719999994 18.778154560000004 Q0.0 15.556310000000005 0.0 11.0 Q0.0 6.443690000000002 3.221845132 3.2218455719999994 Q6.443689999999998 0.0 11.0 0.0 Q15.556563879999997 0.0 18.77832 3.221845132 Q22.0 6.443614320000004 22.0 11.0 L22.0 11.0z" stroke-width="1.0" stroke-linejoin="round" stroke="#000000"/><g transform="translate(3.045679969787597 3.5028401947021472)"><defs><clipPath id="id7"><path d="M0 0 L15.910399932861337 0 L15.910399932861337 14.893119812011724 L0 14.893119812011724z"/></clipPath></defs><text font-size="12" clip-path="url(#id7)" text-decoration="none" fill="#000000" font-family="Arial,Arial" font-style="normal" font-weight="normal"/></g></g><g transform="translate(341.98448687350833 465.0)"><defs><clipPath id="id8"><path d="M0 0 L93.5 0 L93.5 26.0 L0 26.0z"/></clipPath></defs><text font-size="20" clip-path="url(#id8)" text-decoration="none" fill="#000000" font-family="Arial,Arial" font-style="normal" font-weight="normal"><tspan x="13.0" xml:space="preserve" y="20.0" textLength="67.0">.waiting</tspan></text></g><g transform="translate(441.9689737470167 342.0)"><path fill="#ffffff" fill-opacity="1.0" d="M22.0 11.0 Q22.0 15.556130920000001 18.77832 18.77798999999999 Q15.556486 22.0 11.0 22.0 Q6.443689999999998 22.0 3.2218455719999994 18.778154560000004 Q0.0 15.556310000000005 0.0 11.0 Q0.0 6.443690000000002 3.221845132 3.2218455719999994 Q6.443689999999998 0.0 11.0 0.0 Q15.556563879999997 0.0 18.77832 3.221845132 Q22.0 6.443614320000004 22.0 11.0 L22.0 11.0z" stroke-width="1.0" stroke-linejoin="round" stroke="#000000"/><g transform="translate(3.045679969787597 3.5028401947021472)"><defs><clipPath id="id9"><path d="M0 0 L15.910399932861337 0 L15.910399932861337 14.893119812011724 L0 14.893119812011724z"/></clipPath></defs><text font-size="12" clip-path="url(#id9)" text-decoration="none" fill="#000000" font-family="Arial,Arial" font-style="normal" font-weight="normal"/></g></g><g transform="translate(463.9689737470167 340.0)"><defs><clipPath id="id10"><path d="M0 0 L84.99999999999994 0 L84.99999999999994 26.0 L0 26.0z"/></clipPath></defs><text font-size="20" clip-path="url(#id10)" text-decoration="none" fill="#000000" font-family="Arial,Arial" font-style="normal" font-weight="normal"><tspan x="14.0" xml:space="preserve" y="20.0" textLength="57.0">.active</tspan></text></g><g transform="translate(182.29713603818618 385.0)"><path fill="#ffffff" fill-opacity="1.0" d="M22.0 11.0 Q22.0 15.556130920000001 18.77832 18.77798999999999 Q15.556486 22.0 11.0 22.0 Q6.443689999999998 22.0 3.2218455719999994 18.778154560000004 Q0.0 15.556310000000005 0.0 11.0 Q0.0 6.443690000000002 3.221845132 3.2218455719999994 Q6.443689999999998 0.0 11.0 0.0 Q15.556563879999997 0.0 18.77832 3.221845132 Q22.0 6.443614320000004 22.0 11.0 L22.0 11.0z" stroke-width="1.0" stroke-linejoin="round" stroke="#000000"/><g transform="translate(3.045679969787597 3.5028401947021472)"><defs><clipPath id="id11"><path d="M0 0 L15.910399932861337 0 L15.910399932861337 14.893119812011724 L0 14.893119812011724z"/></clipPath></defs><text font-size="12" clip-path="url(#id11)" text-decoration="none" fill="#000000" font-family="Arial,Arial" font-style="normal" font-weight="normal"/></g></g><g transform="translate(204.29713603818618 370.0)"><defs><clipPath id="id12"><path d="M0 0 L107.0 0 L107.0 26.0 L0 26.0z"/></clipPath></defs><text font-size="20" clip-path="url(#id12)" text-decoration="none" fill="#000000" font-family="Arial,Arial" font-style="normal" font-weight="normal"><tspan x="12.0" xml:space="preserve" y="20.0" textLength="83.0">.installing</tspan></text></g><path fill="none" marker-end="url(#id13)" d="M201.0753106312382 403.77817459305203 L351.98448687350833 454.0" stroke-width="1.0" stroke-linejoin="round" stroke="#000000"/><path fill="none" marker-end="url(#id14)" d="M370.76266146656036 446.22182540694797 L445.1907991539647 360.77817459305203" stroke-width="1.0" stroke-linejoin="round" stroke="#000000"/><path fill="none" marker-end="url(#id15)" d="M452.9689737470167 342.0 L452.9689737470167 276.49999999999994" stroke-width="1.0" stroke-linejoin="round" stroke="#000000"/><g transform="translate(452.9689737470167 121.0)"><defs><clipPath id="id16"><path d="M0 0 L138.49999999999994 0 L138.49999999999994 26.0 L0 26.0z"/></clipPath></defs><text font-size="20" clip-path="url(#id16)" text-decoration="none" fill="#ff8410" font-family="Arial,Arial" font-style="normal" font-weight="normal"><tspan x="26.0" xml:space="preserve" y="20.0" textLength="86.0">Controller</tspan></text></g><g transform="translate(19.822000000000003 224.17000000000007)"><path fill="url(#id17)" d="M46.678003 14.078 L32.563 0.0 L6.19 0.0 Q5.19 0.0 5.19 1.0 L5.19 51.33 Q5.19 52.33 6.19 52.33 L45.678 52.33 Q46.678 52.33 46.678 51.33 L46.678 14.078 L46.678003 14.078z" stroke-width="1.0" stroke-linejoin="round" stroke="#000000"/><path fill="#7ac01f" fill-opacity="1.0" d="M36.674 18.899 Q36.674 19.899 35.674 19.899 L1.0 19.899 Q0.0 19.899 0.0 18.899 L0.0 7.055 Q0.0 6.055 1.0 6.055 L35.674 6.055 Q36.674 6.055 36.674 7.055 L36.674 18.899999 L36.674 18.899z" stroke-width="1.0" stroke-linejoin="round" stroke="#000000"/><path fill="#ffffff" fill-opacity="1.0" d="M13.64899996 16.606001 Q13.77799967 16.636001999999998 14.02599982 16.636001999999998 Q14.6210001 16.636001999999998 14.6210001 15.624002399999998 L14.6210001 10.4550018 L16.4069994 10.4550018 L16.4069994 15.6740016 Q16.4069994 17.827002 14.6109999 17.827002 Q14.01788405 17.827002 13.609 17.738000999999997 L13.64899996 16.607 L16.4069994 9.6120004 L14.6209991 9.6120004 L14.6209991 8.302 L16.4069994 8.302 L16.4069994 9.6119995" stroke="none"/><path fill="#ffffff" fill-opacity="1.0" d="M18.371999849999998 14.1959997 Q19.2036706 14.553 20.0489999 14.553 Q20.772999 14.553 20.772999 14.1360002 Q19.502998499999997 13.0745006 18.232998 12.013 Q18.232998 10.336 20.434997699999997 10.336 Q21.4984628 10.336 22.249997999999998 10.63400034 L22.1109983 11.8740001 Q21.539735999999998 11.527000000000001 20.7219983 11.527000000000001 Q19.8989984 11.527000000000001 19.8989984 11.8840003 Q21.228498599999998 12.9505 22.557999 14.0169998 Q22.557999 15.743999 20.1469995 15.743999 Q19.048475399999997 15.743999 18.271999464999997 15.495999000000001 L18.3710004 14.1959987 L18.371999849999998 14.1959997z" stroke="none"/><path fill="#969696" fill-opacity="1.0" d="M23.183999299999996 26.763 L22.3849995 26.763 Q21.398 26.763 21.398 27.8509994 L21.398 30.964000300000002 Q21.378733999999998 32.697879300000004 19.4250004 32.833999 Q21.3807118 33.0071216 21.398 34.858001 L21.398 37.851001 Q21.398 38.940002 22.3849995 38.940002 L23.183999299999996 38.940002 L23.183999299999996 40.470001 L21.482999 40.470001 Q19.050999899999997 40.470001 19.050999899999997 38.139999 L19.050999899999997 34.857997 Q19.050999899999997 33.616996 17.589 33.616996 L17.589 32.085998000000004 Q19.050999899999997 32.085998000000004 19.050999899999997 30.9639984 L19.050999899999997 27.561998000000003 Q19.050999899999997 25.231998 21.482999 25.231998 L23.183999299999996 25.231998 L23.183999299999996 26.7629981 L23.183999299999996 26.763z" stroke="none"/><path fill="#969696" fill-opacity="1.0" d="M30.157 38.939998 L30.9559998 38.939998 Q31.9430012 38.939998 31.9430012 37.850998 L31.9430012 34.738997999999995 Q31.9622464 33.00679 33.9160008 32.8679997 Q31.9603161 32.697555 31.9430012 30.844999 L31.9430012 27.8509995 Q31.9430012 26.7630001 30.9560017 26.7630001 L30.1570019073486 26.7630001 L30.1570019073486 25.232 L31.8570027 25.232 Q34.2900013 25.232 34.2900013 27.561999999999998 L34.2900013 30.845001 Q34.2900013 32.086002 35.7530026 32.086002 L35.7530026 33.617 Q34.2900013 33.617 34.2900013 34.739002 L34.2900013 38.140003 Q34.2900013 40.470000999999996 31.8570027 40.470000999999996 L30.1570019073486 40.470000999999996 L30.1570019073486 38.940002 L30.157 38.939998z" stroke="none"/><path fill="url(#id18)" d="M46.678000000000004 14.144 L33.587 14.144 Q32.587 14.144 32.587 13.144 L32.587 0.0 L46.678000000000004 14.144 L46.678000000000004 14.144z" stroke-width="1.0" stroke-linejoin="round" stroke="#000000"/></g><g transform="translate(109.0 312.0)"><path fill="#ffffff" fill-opacity="1.0" d="M22.0 11.0 Q22.0 15.556130920000001 18.77832 18.77798999999999 Q15.556486 22.0 11.0 22.0 Q6.443689999999998 22.0 3.2218455719999994 18.778154560000004 Q0.0 15.556310000000005 0.0 11.0 Q0.0 6.443690000000002 3.221845132 3.2218455719999994 Q6.443689999999998 0.0 11.0 0.0 Q15.556563879999997 0.0 18.77832 3.221845132 Q22.0 6.443614320000004 22.0 11.0 L22.0 11.0z" stroke-width="1.0" stroke-linejoin="round" stroke="#000000"/><g transform="translate(3.045679969787597 3.5028401947021472)"><defs><clipPath id="id19"><path d="M0 0 L15.910399932861337 0 L15.910399932861337 14.893119812011724 L0 14.893119812011724z"/></clipPath></defs><text font-size="12" clip-path="url(#id19)" text-decoration="none" fill="#000000" font-family="Arial,Arial" font-style="normal" font-weight="normal"/></g></g><g transform="translate(66.5 276.5)"><defs><clipPath id="id20"><path d="M0 0 L107.0 0 L107.0 26.0 L0 26.0z"/></clipPath></defs><text font-size="20" clip-path="url(#id20)" text-decoration="none" fill="#000000" font-family="Arial,Arial" font-style="normal" font-weight="normal"><tspan x="13.0" xml:space="preserve" y="20.0" textLength="80.0">register()</tspan></text></g><path fill="none" marker-end="url(#id21)" d="M127.77817459305203 330.77817459305203 L185.51896144513415 388.22182540694797" stroke-width="1.0" stroke-linejoin="round" stroke="#000000"/><g transform="translate(6.690431980906908 359.0)"><defs><clipPath id="id22"><path d="M0 0 L153.29713603818618 0 L153.29713603818618 26.0 L0 26.0z"/></clipPath></defs><text font-size="20" clip-path="url(#id22)" text-decoration="none" fill="#286bcc" font-family="Arial,Arial" font-style="normal" font-weight="normal"><tspan x="10.0" xml:space="preserve" y="20.0" textLength="133.0">onupdatefound</tspan></text></g><g transform="translate(193.29713603818618 428.0)"><defs><clipPath id="id23"><path d="M0 0 L92.29713603818618 0 L92.29713603818618 26.0 L0 26.0z"/></clipPath></defs><text font-size="20" clip-path="url(#id23)" text-decoration="none" fill="#286bcc" font-family="Arial,Arial" font-style="normal" font-weight="normal"><tspan x="9.0" xml:space="preserve" y="20.0" textLength="73.0">oninstall</tspan></text></g><g transform="translate(411.76968973747023 402.0)"><defs><clipPath id="id24"><path d="M0 0 L104.39856801909298 0 L104.39856801909298 26.0 L0 26.0z"/></clipPath></defs><text font-size="20" clip-path="url(#id24)" text-decoration="none" fill="#286bcc" font-family="Arial,Arial" font-style="normal" font-weight="normal"><tspan x="6.0" xml:space="preserve" y="20.0" textLength="91.0">onactivate</tspan></text></g><g transform="translate(463.9689737470167 291.5)"><defs><clipPath id="id25"><path d="M0 0 L193.39856801909303 0 L193.39856801909303 26.0 L0 26.0z"/></clipPath></defs><text font-size="20" clip-path="url(#id25)" text-decoration="none" fill="#286bcc" font-family="Arial,Arial" font-style="normal" font-weight="normal"><tspan x="11.0" xml:space="preserve" y="20.0" textLength="170.0">oncontrollerchange</tspan></text></g><g transform="translate(297.98448687350833 48.0)"><path fill="#ffffff" fill-opacity="1.0" d="M22.0 11.0 Q22.0 15.556130920000001 18.77832 18.77798999999999 Q15.556486 22.0 11.0 22.0 Q6.443689999999998 22.0 3.2218455719999994 18.778154560000004 Q0.0 15.556310000000005 0.0 11.0 Q0.0 6.443690000000002 3.221845132 3.2218455719999994 Q6.443689999999998 0.0 11.0 0.0 Q15.556563879999997 0.0 18.77832 3.221845132 Q22.0 6.443614320000004 22.0 11.0 L22.0 11.0z" stroke-width="1.0" stroke-linejoin="round" stroke="#000000"/><g transform="translate(3.045679969787597 3.5028401947021472)"><defs><clipPath id="id26"><path d="M0 0 L15.910399932861337 0 L15.910399932861337 14.893119812011724 L0 14.893119812011724z"/></clipPath></defs><text font-size="12" clip-path="url(#id26)" text-decoration="none" fill="#000000" font-family="Arial,Arial" font-style="normal" font-weight="normal"/></g></g><g transform="translate(327.9689737470167 46.0)"><defs><clipPath id="id27"><path d="M0 0 L136.0 0 L136.0 26.0 L0 26.0z"/></clipPath></defs><text font-size="20" clip-path="url(#id27)" text-decoration="none" fill="#000000" font-family="Arial,Arial" font-style="normal" font-weight="normal"><tspan x="23.0" xml:space="preserve" y="20.0" textLength="90.0">redundant</tspan></text></g><path fill="none" marker-end="url(#id28)" d="M443.62529832935564 156.5 L316.76266146656036 66.77817459305203" stroke-width="1.0" stroke-linejoin="round" stroke="#000000"/><g transform="translate(434.2816229116945 156.5)"><path fill="none" d="M37.37470167064446 114.99999999999996 Q37.37470167064446 119.99999999999996 32.37470167064446 119.99999999999996 L5.0 119.99999999999996 Q0.0 119.99999999999996 0.0 114.99999999999996 L0.0 5.0 Q0.0 0.0 5.0 0.0 L32.37470167064446 0.0 Q37.37470167064446 0.0 37.37470167064446 5.0 L37.37470167064446 114.99999999999996 L37.37470167064446 114.99999999999996z" stroke-width="3.0" stroke-linejoin="round" stroke="#ff8410"/><g transform="translate(1.0 1.0)"><defs><clipPath id="id29"><path d="M0 0 L35.37470167064441 0 L35.37470167064441 118.0 L0 118.0z"/></clipPath></defs><text font-size="19" clip-path="url(#id29)" text-decoration="none" fill="#000000" font-family="Arial,Arial" font-style="normal" font-weight="normal"><tspan x="2.0" xml:space="preserve" y="65.5" textLength="30.0">SW</tspan></text></g></g></g></svg>