<svg viewBox="0 0 1024 768" fill="none" stroke-linecap="square" stroke-miterlimit="10" xmlns="http://www.w3.org/2000/svg"><clipPath id="a"><path d="M0 0h1024v768H0V0z"/></clipPath><g clip-path="url(#a)"><path fill="none" d="M0 0h1024v768H0z"/><path fill="#fff" d="M118 72h267.024v250.992H118z" fill-rule="evenodd"/><path stroke="#000" stroke-linejoin="round" stroke-linecap="butt" d="M118 72h267.024v250.992H118z"/><path fill="#000" d="M131.219 85.608v10.859h6.5v2.453h-9.438V85.607h2.938zm12.527 3.406q2.282 0 3.641 1.406 1.36 1.39 1.36 3.688 0 2.312-1.376 3.703-1.375 1.375-3.625 1.375-2.234 0-3.609-1.391-1.375-1.39-1.375-3.688 0-2.28 1.344-3.687 1.36-1.406 3.64-1.406zm-2.328 5.094q0 1.53.625 2.312.625.766 1.703.766 1.141 0 1.75-.797.61-.813.61-2.281 0-1.438-.594-2.266-.594-.828-1.781-.828-1.063 0-1.688.765-.625.766-.625 2.329zm12.88-5.094q1.063 0 1.75.39.688.391 1.126 1.157h.047v-1.282h2.515v9.11q0 1.937-1.234 3.062-1.235 1.125-3.75 1.125-1.703 0-2.938-.828-1.218-.812-1.328-2.266h2.625q.172.688.688 1 .515.329 1.28.329 1.032 0 1.579-.625.563-.61.563-1.704V97.14h-.047q-.391.719-1.157 1.11-.75.39-1.734.39-1.953 0-3.047-1.297-1.078-1.297-1.078-3.547 0-2.047 1.14-3.406 1.141-1.375 3-1.375zm-1.484 4.734q0 1.36.563 2.125.562.766 1.578.766 1.047 0 1.656-.766.61-.766.61-1.906 0-1.422-.579-2.188-.578-.765-1.687-.765-.984 0-1.563.75-.578.75-.578 1.984zm11.771-8.14v2.171h-2.656v-2.171h2.656zm0 3.671v9.641h-2.656v-9.64h2.656zm6.7-.265q1.876 0 3.157.969 1.281.968 1.39 2.687h-2.609q-.11-.828-.61-1.234-.484-.422-1.343-.422-1.062 0-1.656.875-.594.875-.594 2.265 0 1.375.578 2.204.594.828 1.625.828.875 0 1.422-.5.547-.5.688-1.47h2.546q-.265 1.923-1.5 2.954-1.218 1.016-3.14 1.016-2.156 0-3.516-1.375-1.36-1.391-1.36-3.579 0-2.328 1.329-3.765 1.344-1.453 3.594-1.453zm10.526 0q2.14 0 3.187.703 1.047.703 1.047 1.984v5.172q0 .578.063 1.172.078.578.265.875h-2.687q-.078-.219-.125-.453t-.063-.469q-.562.578-1.39.89-.813.298-1.86.298-1.484 0-2.39-.75-.89-.75-.89-2.141 0-1.36.843-2.063.844-.718 3.047-.968 1.547-.14 2.031-.375.5-.235.5-.813 0-.64-.375-.968-.375-.329-1.328-.329-.828 0-1.266.36-.437.344-.5 1.11h-2.656q.11-1.595 1.297-2.407 1.203-.828 3.25-.828zm-2.188 7.172q0 .562.391.89.39.328 1.234.328 1.063 0 1.594-.546.547-.563.547-1.626v-1.03q-.234.187-.625.28-.39.094-1.406.25-.89.11-1.313.47-.422.343-.422.984zm11.198-10.579V98.92h-2.657V85.607h2.657zm5.138 3.844v2.86h-2.922v-2.86h2.922zm0 6.594v2.875h-2.922v-2.875h2.922zm9.96-10.438v5.016h.062q.422-.719 1.188-1.156.766-.453 1.64-.453 1.844 0 2.672.937.844.938.844 2.938v6.031h-2.656v-5.531q0-1.125-.39-1.703-.391-.579-1.298-.579-1.109 0-1.593.657-.47.656-.47 2.015v5.141h-2.64V85.607h2.64zm11.762.782v2.89h1.937v1.766h-1.937v4.844q0 .594.219.828.234.219.906.219.234 0 .437-.016.204-.016.375-.047v2.063q-.328.062-.734.078-.39.015-.797.015-1.719 0-2.39-.578-.657-.593-.657-1.656v-5.75h-1.609v-1.766h1.61v-2.89h2.64zm6.568 0v2.89h1.937v1.766h-1.937v4.844q0 .594.219.828.234.219.906.219.234 0 .437-.016.204-.016.375-.047v2.063q-.328.062-.734.078-.39.015-.797.015-1.719 0-2.39-.578-.657-.593-.657-1.656v-5.75h-1.61v-1.766h1.61v-2.89h2.64zm8.646 2.625q2.047 0 3.219 1.437 1.172 1.438 1.172 3.75 0 2.14-1.157 3.563-1.14 1.422-3.078 1.422-.89 0-1.656-.375-.766-.375-1.234-1.079h-.047v4.579h-2.64V89.279h2.515v1.22h.031q.469-.75 1.203-1.11.734-.375 1.672-.375zm-2.875 5.11q0 1.39.594 2.234.593.828 1.718.828 1.11 0 1.704-.797.593-.797.593-2.266 0-1.375-.593-2.234-.594-.875-1.735-.875-1.094 0-1.687.828-.594.812-.594 2.281zm12.802-5.11q1.969 0 3.031.781 1.079.781 1.22 2.297h-2.516q-.063-.688-.516-1-.453-.313-1.313-.313-.75 0-1.109.235-.344.234-.344.672 0 .437.453.734.47.281 1.86.547 2.219.422 2.969 1.094.765.671.765 1.765 0 1.64-1.203 2.5-1.187.86-3.187.86-2.016 0-3.235-.844-1.219-.86-1.312-2.563h2.531q0 .766.578 1.204.578.421 1.453.421.766 0 1.25-.328.485-.328.485-.89 0-.516-.625-.829-.625-.312-2.297-.671-1.672-.329-2.407-.938-.734-.61-.734-1.64 0-1.532 1.078-2.313 1.094-.781 3.125-.781zm9.114.437v2.86h-2.921v-2.86h2.921zm0 6.594v2.875h-2.921v-2.875h2.921zm8.246-10.766l-5.203 13.954h-2.125l5.203-13.954h2.125zm6.923 0l-5.203 13.954h-2.125l5.203-13.954h2.125zm6.361 3.735q1.078 0 1.781.422.704.406 1.032 1.187.547-.781 1.297-1.187.75-.422 1.64-.422 1.75 0 2.625.906.89.89.89 2.453v6.547h-2.655v-5.578q0-1.313-.391-1.766-.39-.468-1.234-.468-.891 0-1.329.609-.437.594-.437 1.75v5.453h-2.656v-5.938q0-.953-.375-1.406-.36-.468-1.22-.468-.765 0-1.28.578-.516.578-.516 1.578v5.656h-2.656v-9.64h2.5v1.312h.031q.578-.797 1.313-1.188.75-.39 1.64-.39zm16.023 0q2.282 0 3.64 1.406 1.36 1.39 1.36 3.688 0 2.312-1.375 3.703-1.375 1.375-3.625 1.375-2.234 0-3.61-1.391-1.374-1.39-1.374-3.688 0-2.28 1.344-3.687 1.359-1.406 3.64-1.406zm-2.328 5.094q0 1.53.625 2.312.625.766 1.703.766 1.14 0 1.75-.797.61-.813.61-2.281 0-1.438-.594-2.266-.594-.828-1.781-.828-1.063 0-1.688.765-.625.766-.625 2.329zm16.959-4.829v1.985l-5.016 5.656h5.375v2h-8.875v-2l5.016-5.656h-4.641v-1.985h8.14zm6.199-.265q2.14 0 3.187.703 1.047.703 1.047 1.984v5.172q0 .578.063 1.172.078.578.265.875h-2.687q-.078-.219-.125-.453t-.063-.469q-.562.578-1.39.89-.813.298-1.86.298-1.484 0-2.39-.75-.891-.75-.891-2.141 0-1.36.844-2.063.843-.718 3.047-.968 1.546-.14 2.03-.375.5-.235.5-.813 0-.64-.374-.968-.375-.329-1.328-.329-.828 0-1.266.36-.437.344-.5 1.11h-2.656q.11-1.595 1.297-2.407 1.203-.828 3.25-.828zm-2.188 7.172q0 .562.39.89.391.328 1.235.328 1.063 0 1.594-.546.547-.563.547-1.626v-1.03q-.235.187-.625.28-.39.094-1.406.25-.891.11-1.313.47-.422.343-.422.984zm11.197-10.579v2.172h-2.656v-2.171h2.656zm0 3.672v9.641h-2.656v-9.64h2.656zm6.7-.265q1.876 0 3.157.969 1.281.968 1.39 2.687h-2.609q-.11-.828-.61-1.234-.484-.422-1.343-.422-1.062 0-1.656.875-.594.875-.594 2.265 0 1.375.578 2.204.594.828 1.625.828.875 0 1.422-.5.547-.5.688-1.47h2.546q-.265 1.923-1.5 2.954-1.218 1.016-3.14 1.016-2.156 0-3.516-1.375-1.36-1.391-1.36-3.579 0-2.328 1.329-3.765 1.344-1.453 3.594-1.453zm9.135 7.031v2.875h-2.921v-2.875h2.921zm5.95-10.438q.265 0 .718.032.469.015.688.031v1.984q-.266-.03-.516-.046-.234-.016-.453-.016-.547 0-.781.25-.235.234-.235.984v.453h1.828v1.766h-1.828v7.875h-2.656v-7.875H336.3v-1.766h1.578v-.671q0-1.5.875-2.25t2.36-.75zm7.962 3.407q1.078 0 1.781.422.703.406 1.031 1.187.547-.781 1.297-1.187.75-.422 1.641-.422 1.75 0 2.625.906.89.89.89 2.453v6.547h-2.656v-5.578q0-1.313-.39-1.766-.39-.468-1.235-.468-.89 0-1.328.609-.437.594-.437 1.75v5.453h-2.657v-5.938q0-.953-.375-1.406-.359-.468-1.218-.468-.766 0-1.282.578-.515.578-.515 1.578v5.656h-2.656v-9.64h2.5v1.312h.03q.579-.797 1.313-1.188.75-.39 1.641-.39z"/><path fill="#fff" d="M551.992 72h267.024v250.992H551.992z" fill-rule="evenodd"/><path stroke="#000" stroke-linejoin="round" stroke-linecap="butt" d="M551.992 72h267.024v250.992H551.992z"/><path fill="#000" d="M568.383 85.608q2.078 0 3.297 1.171 1.218 1.157 1.218 3.094 0 1.922-1.218 3.11-1.22 1.171-3.297 1.171h-3.172v4.766h-2.938V85.607h6.11zm-.813 6.265q1.25 0 1.86-.469.625-.484.625-1.53 0-1.016-.594-1.5-.594-.5-1.875-.5h-2.375v4h2.36zm9.522-6.266v5.016h.062q.422-.719 1.188-1.156.766-.453 1.64-.453 1.844 0 2.672.937.844.938.844 2.938v6.031h-2.656v-5.531q0-1.125-.39-1.703-.391-.579-1.298-.579-1.109 0-1.593.657-.47.656-.47 2.015v5.141h-2.64V85.607h2.64zm10.121 3.672l2.188 6.594h.047l2.094-6.594h2.75l-4.11 11.032q-.36.968-1.125 1.484-.75.516-1.953.516-.562 0-.969-.032-.39-.015-.812-.062v-2.172q.484.047.797.063.312.03.593.03.563 0 .86-.359.312-.343.312-.859 0-.14-.015-.266-.016-.14-.094-.328l-3.406-9.047h2.843zm11.934-.265q1.969 0 3.031.781 1.078.781 1.219 2.297h-2.516q-.062-.688-.515-1-.454-.313-1.313-.313-.75 0-1.11.235-.343.234-.343.672 0 .437.453.734.469.281 1.86.547 2.218.422 2.968 1.094.766.671.766 1.765 0 1.64-1.203 2.5-1.188.86-3.188.86-2.015 0-3.234-.844-1.219-.86-1.313-2.563h2.532q0 .766.578 1.204.578.421 1.453.421.765 0 1.25-.328.484-.328.484-.89 0-.516-.625-.829-.625-.312-2.297-.671-1.672-.329-2.406-.938-.734-.61-.734-1.64 0-1.532 1.078-2.313 1.094-.781 3.125-.781zm8.786-3.406v2.171h-2.656v-2.171h2.656zm0 3.671v9.641h-2.656v-9.64h2.656zm6.7-.265q1.875 0 3.157.969 1.28.968 1.39 2.687h-2.61q-.109-.828-.609-1.234-.484-.422-1.343-.422-1.063 0-1.657.875-.593.875-.593 2.265 0 1.375.578 2.204.594.828 1.625.828.875 0 1.422-.5.547-.5.687-1.47h2.547q-.266 1.923-1.5 2.954-1.219 1.016-3.14 1.016-2.157 0-3.516-1.375-1.36-1.391-1.36-3.579 0-2.328 1.329-3.765 1.343-1.453 3.593-1.453zm10.526 0q2.14 0 3.187.703 1.047.703 1.047 1.984v5.172q0 .578.062 1.172.079.578.266.875h-2.687q-.079-.219-.125-.453-.047-.234-.063-.469-.562.578-1.39.89-.813.298-1.86.298-1.484 0-2.39-.75-.891-.75-.891-2.141 0-1.36.844-2.063.843-.718 3.046-.968 1.547-.14 2.032-.375.5-.235.5-.813 0-.64-.375-.968-.375-.329-1.328-.329-.829 0-1.266.36-.438.344-.5 1.11h-2.656q.11-1.595 1.297-2.407 1.203-.828 3.25-.828zm-2.188 7.172q0 .562.39.89.391.328 1.235.328 1.063 0 1.594-.546.547-.563.547-1.626v-1.03q-.235.187-.625.28-.39.094-1.407.25-.89.11-1.312.47-.422.343-.422.984zm11.197-10.579V98.92h-2.656V85.607h2.656zm5.138 3.844v2.86h-2.922v-2.86h2.922zm0 6.594v2.875h-2.922v-2.875h2.922zm9.96-10.438v5.016h.063q.422-.719 1.187-1.156.766-.453 1.641-.453 1.844 0 2.672.937.844.938.844 2.938v6.031h-2.657v-5.531q0-1.125-.39-1.703-.39-.579-1.297-.579-1.11 0-1.594.657-.469.656-.469 2.015v5.141h-2.64V85.607h2.64zm11.763.782v2.89h1.937v1.766h-1.937v4.844q0 .594.218.828.235.219.907.219.234 0 .437-.016.203-.016.375-.047v2.063q-.328.062-.734.078-.39.015-.797.015-1.719 0-2.39-.578-.657-.593-.657-1.656v-5.75h-1.61v-1.766h1.61v-2.89h2.64zm6.567 0v2.89h1.938v1.766h-1.938v4.844q0 .594.22.828.234.219.905.219.235 0 .438-.016t.375-.047v2.063q-.328.062-.734.078-.391.015-.797.015-1.719 0-2.39-.578-.657-.593-.657-1.656v-5.75h-1.61v-1.766h1.61v-2.89h2.64zm8.647 2.625q2.046 0 3.218 1.437 1.172 1.438 1.172 3.75 0 2.14-1.156 3.563-1.14 1.422-3.078 1.422-.89 0-1.656-.375-.766-.375-1.235-1.079h-.047v4.579h-2.64V89.279h2.515v1.22h.032q.468-.75 1.203-1.11.734-.375 1.672-.375zm-2.875 5.11q0 1.39.593 2.234.594.828 1.72.828 1.108 0 1.702-.797.594-.797.594-2.266 0-1.375-.594-2.234-.594-.875-1.734-.875-1.094 0-1.688.828-.593.812-.593 2.281zm12.802-5.11q1.969 0 3.031.781 1.078.781 1.219 2.297h-2.516q-.062-.688-.515-1-.454-.313-1.313-.313-.75 0-1.11.235-.343.234-.343.672 0 .437.453.734.469.281 1.86.547 2.218.422 2.968 1.094.766.671.766 1.765 0 1.64-1.203 2.5-1.188.86-3.188.86-2.015 0-3.234-.844-1.219-.86-1.313-2.563h2.532q0 .766.578 1.204.578.421 1.453.421.765 0 1.25-.328.484-.328.484-.89 0-.516-.625-.829-.625-.312-2.297-.671-1.672-.329-2.406-.938-.734-.61-.734-1.64 0-1.532 1.078-2.313 1.094-.781 3.125-.781zm9.114.437v2.86h-2.922v-2.86h2.922zm0 6.594v2.875h-2.922v-2.875h2.922zm8.246-10.766l-5.203 13.954h-2.125l5.203-13.954h2.125zm6.923 0l-5.203 13.954h-2.125l5.203-13.954h2.125zm5.423 3.735q1.875 0 3.156.969 1.282.968 1.391 2.687h-2.61q-.109-.828-.609-1.234-.484-.422-1.343-.422-1.063 0-1.657.875-.593.875-.593 2.265 0 1.375.578 2.204.593.828 1.625.828.875 0 1.422-.5.546-.5.687-1.47h2.547q-.266 1.923-1.5 2.954-1.219 1.016-3.14 1.016-2.157 0-3.516-1.375-1.36-1.391-1.36-3.579 0-2.328 1.328-3.765 1.344-1.453 3.594-1.453zm15.494-3.406V98.92h-2.515v-1.234h-.032q-.437.75-1.187 1.125t-1.75.375q-1.969 0-3.156-1.454-1.172-1.453-1.172-3.718 0-2.156 1.156-3.578 1.172-1.422 3.125-1.422.906 0 1.64.375.75.36 1.204 1.062h.047v-4.843h2.64zm-7.156 8.468q0 1.36.625 2.235.625.875 1.703.875 1.094 0 1.688-.813.593-.812.593-2.297 0-1.422-.578-2.234-.578-.828-1.719-.828-1.093 0-1.703.828-.609.812-.609 2.234zm14.693-5.062q1.844 0 2.672.937.843.938.843 2.938v6.031h-2.656v-5.531q0-1.125-.39-1.703-.391-.579-1.297-.579-1.11 0-1.594.657-.469.656-.469 2.015v5.141h-2.64v-9.64h2.515v1.343h.047q.484-.781 1.25-1.187.781-.422 1.719-.422zm8.559 7.031v2.875h-2.922v-2.875h2.922zm5.042-10.438v2.172h-2.656v-2.171h2.656zm0 3.672v10.204q0 1.515-.765 2.171-.75.657-2.625.657-.219 0-.438-.016-.203-.016-.437-.047v-2.187q.125.046.281.062.14.016.297.016.578 0 .797-.219.234-.219.234-.61V89.28h2.656zm4.606 0l1.687 2.516 1.688-2.516h2.922l-3.172 4.516 3.562 5.125h-3.015l-2.016-3.047-2.016 3.047h-2.968l3.468-5.078-3.172-4.563h3.032zm12.317-.265q1.875 0 3.156.969 1.281.968 1.39 2.687h-2.609q-.109-.828-.609-1.234-.484-.422-1.344-.422-1.062 0-1.656.875-.594.875-.594 2.265 0 1.375.578 2.204.594.828 1.625.828.875 0 1.422-.5.547-.5.688-1.47h2.547q-.266 1.923-1.5 2.954-1.219 1.016-3.14 1.016-2.157 0-3.517-1.375-1.359-1.391-1.359-3.579 0-2.328 1.328-3.765 1.344-1.453 3.594-1.453zm8.994-3.406v7.14l3.328-3.469h3.14l-3.64 3.532 4.047 6.109h-3.219l-2.64-4.313-1.016.985v3.328h-2.656V85.607h2.656zm10.853 10.437v2.875h-2.921v-2.875h2.921zm4.871-10.438v2.172h-2.656v-2.171h2.656zm0 3.672v9.641h-2.656v-9.64h2.656zm6.763-.265q2.281 0 3.64 1.406 1.36 1.39 1.36 3.688 0 2.312-1.375 3.703-1.375 1.375-3.625 1.375-2.234 0-3.61-1.391-1.374-1.39-1.374-3.688 0-2.28 1.343-3.687 1.36-1.406 3.641-1.406zm-2.328 5.094q0 1.53.625 2.312.625.766 1.703.766 1.14 0 1.75-.797.61-.813.61-2.281 0-1.438-.594-2.266-.594-.828-1.782-.828-1.062 0-1.687.765-.625.766-.625 2.329z"/><path fill="#fff" d="M151.512 251.505h80v42.992h-80z" fill-rule="evenodd"/><path stroke="#000" stroke-linejoin="round" stroke-linecap="butt" d="M151.512 251.505h80v42.992h-80z"/><path fill="#000" d="M176.138 265.113v5.094h.031q.344-.782 1.172-1.204.828-.437 1.875-.437 1.75 0 2.531.89.797.891.797 2.547v6.422h-1.594v-6.593q0-.813-.53-1.344-.517-.531-1.438-.531-1.344 0-2.094.828-.75.812-.75 2.125v5.515h-1.594v-13.312h1.594zm10.985.781v2.89h1.922v1.391h-1.922v6.047q0 .719.484.766.485.031 1 .031h.438v1.406h-1.297q-1.313 0-1.766-.453-.437-.469-.437-1.562v-6.235h-1.656v-1.39h1.656v-2.891h1.578zm8.329 2.672q1.047 0 1.718.422.672.422.922 1.219.5-.782 1.282-1.204.796-.437 1.765-.437 1.625 0 2.406.734.782.735.782 2v7.125h-1.578v-6.39q0-1.047-.454-1.563-.437-.515-1.421-.515-1.188 0-1.86.687-.656.688-.656 1.719v6.062h-1.594v-6.39q0-1.047-.437-1.563-.438-.515-1.36-.515-.765 0-1.343.359-.579.36-.907 1-.328.625-.328 1.062v6.047h-1.594v-9.64h1.5v1.422h.032q.547-.844 1.312-1.235.781-.406 1.813-.406zm12.945-3.453v13.312h-1.594v-13.312h1.594z"/><path fill="#fff" d="M211.512 188.005h80v42.992h-80z" fill-rule="evenodd"/><path stroke="#000" stroke-linejoin="round" stroke-linecap="butt" d="M211.512 188.005h80v42.992h-80z"/><path fill="#000" d="M241.065 205.066q1.938 0 2.89.75.954.75 1.032 2.265h-1.578v-.03q-.063-.766-.672-1.173-.61-.422-1.563-.422t-1.515.329q-.547.312-.547.906 0 .515.484.86.5.327 1.485.546l1.484.328q1.406.313 2.125.953.734.641.734 1.735 0 1.422-1.109 2.234-1.094.813-2.984.813-1.86 0-2.953-.829-1.079-.843-1.141-2.453h1.594q.03.907.703 1.391.687.484 1.875.484 1.156 0 1.75-.359.594-.375.594-1.078 0-.656-.594-1.031-.594-.375-2.406-.735-1.829-.36-2.579-1.015-.734-.657-.734-1.735 0-1.265 1.031-2 1.032-.734 2.594-.734zm7.375.219l2.313 3.359h.015l2.39-3.36h1.907l-3.312 4.438 3.718 5.203h-2.031l-2.687-3.984-2.672 3.984h-1.938l3.64-5.078-3.374-4.562h2.031zm12.337-.22q1 0 1.734.438.75.438 1.141 1.157h.031v-1.375h1.485v8.921q0 2.266-1.094 3.454-1.094 1.187-3.375 1.187-1.656 0-2.797-.734-1.125-.735-1.203-2.11h1.578q.047.75.797 1.157.75.421 1.703.421 1.406 0 2.156-.937.75-.922.75-2.75v-.61h-.047q-.375.797-1.187 1.282-.797.469-1.828.469-1.953 0-3.125-1.344-1.172-1.36-1.172-3.531 0-2.22 1.172-3.657 1.172-1.437 3.281-1.437zm-2.781 4.891q0 1.72.719 2.704.734.984 2.015.984 1.313 0 2.078-1.016.782-1.015.782-2.718 0-1.547-.72-2.5-.718-.954-2.03-.954-1.329 0-2.094.954-.75.953-.75 2.546z"/><path fill="#fff" d="M607 188.005h80v42.992h-80z" fill-rule="evenodd"/><path stroke="#000" stroke-linejoin="round" stroke-linecap="butt" d="M607 188.005h80v42.992h-80z"/><path fill="#000" d="M636.553 205.066q1.938 0 2.89.75.954.75 1.032 2.265h-1.578v-.03q-.063-.766-.672-1.173-.61-.422-1.562-.422-.954 0-1.516.329-.547.312-.547.906 0 .515.484.86.5.327 1.485.546l1.484.328q1.406.313 2.125.953.735.641.735 1.735 0 1.422-1.11 2.234-1.094.813-2.984.813-1.86 0-2.953-.829-1.078-.843-1.14-2.453h1.593q.031.907.703 1.391.687.484 1.875.484 1.156 0 1.75-.359.594-.375.594-1.078 0-.656-.594-1.031-.594-.375-2.406-.735-1.828-.36-2.578-1.015-.735-.657-.735-1.735 0-1.265 1.031-2 1.032-.734 2.594-.734zm7.375.219l2.313 3.359h.015l2.39-3.36h1.907l-3.312 4.438 3.718 5.203h-2.03l-2.688-3.984-2.672 3.984h-1.938l3.64-5.078-3.374-4.562h2.031zm12.337-.22q1 0 1.735.438.75.438 1.14 1.157h.031v-1.375h1.485v8.921q0 2.266-1.094 3.454-1.094 1.187-3.375 1.187-1.656 0-2.797-.734-1.125-.735-1.203-2.11h1.578q.047.75.797 1.157.75.421 1.703.421 1.406 0 2.156-.937.75-.922.75-2.75v-.61h-.046q-.375.797-1.188 1.282-.797.469-1.828.469-1.953 0-3.125-1.344-1.172-1.36-1.172-3.531 0-2.22 1.172-3.657 1.172-1.437 3.281-1.437zm-2.781 4.891q0 1.72.719 2.704.734.984 2.015.984 1.313 0 2.078-1.016.782-1.015.782-2.718 0-1.547-.719-2.5-.719-.954-2.031-.954-1.328 0-2.094.954-.75.953-.75 2.546z"/><path fill="#fff" d="M271.512 124.505h80v42.992h-80z" fill-rule="evenodd"/><path stroke="#000" stroke-linejoin="round" stroke-linecap="butt" d="M271.512 124.505h80v42.992h-80z"/><path fill="#000" d="M300.666 141.566q1.766 0 2.86.844 1.109.828 1.296 2.468h-1.625q-.203-.937-.828-1.422-.625-.5-1.562-.5-1.485 0-2.25.985-.766.984-.766 2.781 0 1.61.75 2.578.766.953 2.078.953 1.156 0 1.813-.625.671-.625.828-1.734h1.625q-.266 1.812-1.36 2.797-1.093.969-2.89.969-2.11 0-3.313-1.329-1.203-1.328-1.203-3.609 0-2.36 1.219-3.75 1.219-1.406 3.328-1.406zm10.005 0q2.078 0 3.219 1.5 1.156 1.484 1.156 3.828v.187h-7.235v.11q0 1.39.797 2.234.813.828 2.219.828 1.047 0 1.672-.484.625-.5.828-1.406h1.563q-.329 1.61-1.407 2.453-1.078.844-2.718.844-1.516 0-2.579-.688-1.046-.687-1.546-1.906-.5-1.235-.5-2.516 0-2.14 1.28-3.562 1.298-1.422 3.25-1.422zm-2.86 4.11h5.547q-.078-1.173-.86-1.938-.765-.782-1.937-.782-1.093 0-1.875.735-.765.734-.875 1.984zm13.677-4.126h.094q.047 0 .125.016v1.672q-1.797 0-2.656.953-.844.937-.844 2.922v4.312h-1.578v-9.64h1.484v2.03h.047q.547-1.155 1.36-1.702.827-.563 1.968-.563zm3.603-2.656v2.89h1.922v1.391h-1.922v6.047q0 .719.485.766.484.031 1 .031h.437v1.406h-1.297q-1.312 0-1.765-.453-.438-.469-.438-1.562v-6.235h-1.656v-1.39h1.656v-2.891h1.578z"/><path fill="#fff" d="M703 124.504h80v42.992h-80z" fill-rule="evenodd"/><path stroke="#000" stroke-linejoin="round" stroke-linecap="butt" d="M703 124.504h80v42.992h-80z"/><path fill="#000" d="M732.154 141.565q1.766 0 2.86.843 1.109.828 1.296 2.47h-1.625q-.203-.938-.828-1.423-.625-.5-1.562-.5-1.485 0-2.25.985-.766.984-.766 2.78 0 1.61.75 2.579.766.953 2.078.953 1.157 0 1.813-.625.672-.625.828-1.734h1.625q-.266 1.812-1.36 2.797-1.093.968-2.89.968-2.11 0-3.313-1.328-1.203-1.328-1.203-3.61 0-2.359 1.22-3.75 1.218-1.405 3.327-1.405zm10.005 0q2.078 0 3.219 1.5 1.156 1.484 1.156 3.828v.187H739.3v.11q0 1.39.797 2.234.812.828 2.218.828 1.047 0 1.672-.484.625-.5.828-1.407h1.563q-.328 1.61-1.406 2.454-1.079.843-2.72.843-1.515 0-2.577-.687-1.047-.688-1.547-1.906-.5-1.235-.5-2.516 0-2.14 1.281-3.563 1.297-1.421 3.25-1.421zm-2.86 4.109h5.548q-.079-1.172-.86-1.938-.765-.78-1.937-.78-1.094 0-1.875.734-.766.734-.875 1.984zm13.677-4.125h.094q.047 0 .125.016v1.671q-1.797 0-2.656.954-.844.937-.844 2.921v4.313h-1.578v-9.64h1.484v2.03h.047q.547-1.156 1.36-1.703.828-.562 1.968-.562zm3.604-2.656v2.89h1.921v1.39h-1.921v6.048q0 .719.484.765.484.032 1 .032h.437v1.406h-1.296q-1.313 0-1.766-.453-.438-.469-.438-1.563v-6.234h-1.656v-1.39h1.656v-2.891h1.579z"/><path fill="none" d="M291.512 209.501h315.496"/><path stroke="#000" stroke-linejoin="round" stroke-linecap="butt" d="M291.512 209.501h309.496"/><path fill="#000" stroke="#000" stroke-linecap="butt" d="M601.008 211.153l4.538-1.652-4.538-1.651z" fill-rule="evenodd"/><path fill="none" d="M351.512 146.001h351.496"/><path stroke="#000" stroke-linejoin="round" stroke-linecap="butt" d="M351.512 146.001h345.496"/><path fill="#000" stroke="#000" stroke-linecap="butt" d="M697.008 147.653l4.538-1.652-4.538-1.651z" fill-rule="evenodd"/><path fill="#fff" d="M544.479 456.016H846.96v72H544.48z" fill-rule="evenodd"/><path stroke="#000" stroke-linejoin="round" stroke-linecap="butt" d="M544.479 456.016H846.96v72H544.48z"/><path fill="#f3f3f3" d="M561.013 475.016h269.432v37.008H561.013z" fill-rule="evenodd"/><path stroke="#434343" stroke-linejoin="round" stroke-linecap="butt" d="M561.013 475.016h269.432v37.008H561.013z"/><path fill="#000" d="M572.794 488.623v5.094h.031q.344-.781 1.172-1.203.828-.438 1.875-.438 1.75 0 2.531.891.797.89.797 2.547v6.422h-1.594v-6.594q0-.812-.53-1.344-.517-.531-1.438-.531-1.344 0-2.094.828-.75.813-.75 2.125v5.516H571.2v-13.313h1.594zm10.985.782v2.89h1.922v1.39h-1.922v6.048q0 .718.484.765.485.032 1 .032h.438v1.406h-1.297q-1.313 0-1.766-.453-.437-.47-.437-1.563v-6.234h-1.656v-1.39h1.656v-2.891h1.578zm5.876 0v2.89h1.921v1.39h-1.921v6.048q0 .718.484.765.484.032 1 .032h.437v1.406h-1.296q-1.313 0-1.766-.453-.438-.47-.438-1.563v-6.234h-1.656v-1.39h1.656v-2.891h1.579zm8.438 2.671q2.062 0 3.25 1.422 1.187 1.422 1.187 3.64 0 2.25-1.187 3.642-1.172 1.39-3.203 1.39-.907 0-1.766-.375-.86-.375-1.36-1.14h-.046v4.984h-1.578v-13.344h1.578v1.313h.047q.375-.75 1.171-1.141.813-.39 1.907-.39zm-3.172 5.032q0 1.672.812 2.672.813.984 2.235.984 1.375 0 2.125-.984.75-.985.75-2.75 0-1.547-.797-2.547-.797-1.016-2.188-1.016-1.406 0-2.172 1.016-.765 1.015-.765 2.625zm12.684-5.032q1.937 0 2.89.75.953.75 1.032 2.266h-1.579v-.031q-.062-.766-.671-1.172-.61-.422-1.563-.422t-1.516.328q-.546.313-.546.906 0 .516.484.86.5.328 1.484.547l1.485.328q1.406.312 2.125.953.734.64.734 1.734 0 1.422-1.11 2.235-1.093.812-2.984.812-1.859 0-2.953-.828-1.078-.844-1.14-2.453h1.593q.032.906.703 1.39.688.485 1.875.485 1.157 0 1.75-.36.594-.374.594-1.078 0-.656-.594-1.03-.593-.376-2.406-.735-1.828-.36-2.578-1.016-.734-.656-.734-1.734 0-1.266 1.031-2 1.031-.735 2.594-.735zm8.531.22v2.077h-2.063v-2.078h2.063zm0 7.577v2.063h-2.063v-2.063h2.063zm8.12-11.578l-5.515 13.953h-1.375l5.531-13.953h1.36zm6.213 0l-5.515 13.953h-1.375l5.531-13.953h1.36z"/><path fill="red" d="M635.979 492.076q1.047 0 1.719.422.672.422.922 1.219.5-.781 1.28-1.203.798-.438 1.767-.438 1.625 0 2.406.735.781.734.781 2v7.125h-1.578v-6.39q0-1.048-.453-1.563-.438-.516-1.422-.516-1.188 0-1.86.688-.656.687-.656 1.718v6.063h-1.593v-6.39q0-1.048-.438-1.563-.438-.516-1.36-.516-.765 0-1.343.36-.578.359-.906 1-.328.624-.328 1.062v6.047h-1.594v-9.64h1.5v1.421h.031q.547-.844 1.313-1.234.78-.407 1.812-.407zm15.43 0q2.187 0 3.422 1.407 1.25 1.406 1.25 3.64 0 2.25-1.281 3.657-1.266 1.39-3.391 1.39-2.094 0-3.39-1.375-1.298-1.375-1.298-3.672t1.266-3.672q1.266-1.375 3.422-1.375zm-3.016 5.047q0 1.657.844 2.657.86.984 2.172.984 1.297 0 2.14-.984.86-1 .86-2.657 0-1.64-.844-2.64-.844-1.016-2.172-1.016-1.28 0-2.14.984-.86.985-.86 2.672zm16.65-4.828v1.078l-5.89 7.157h6.156v1.406h-8.14v-1.219l5.828-7.031h-5.453v-1.39h7.5zm5.815-.219q1.968 0 2.78.704.829.687.829 1.875v5.562q0 .547.5.547.11 0 .234-.031.141-.032.25-.063v1.235q-.218.125-.5.187-.28.078-.625.078-.656 0-1-.375-.343-.375-.343-1.125-.641.75-1.5 1.125-.844.375-1.907.375-1.484 0-2.343-.703-.844-.719-.844-2.016 0-1.296.828-2.046.828-.766 3.906-1.157 1.031-.14 1.39-.39.376-.266.376-.797 0-.797-.516-1.188-.5-.406-1.625-.406-1.172 0-1.765.453-.594.438-.641 1.375h-1.578q.078-1.61 1.125-2.406 1.062-.813 2.969-.813zm-2.797 7.266q0 .672.484 1.047.5.375 1.39.375 1.344 0 2.141-.656.797-.672.797-1.5v-1.657q-.39.282-1.031.391-.64.094-1.703.234-1.047.157-1.563.579-.515.421-.515 1.187zm10.551-10.719v1.938h-1.593v-1.938h1.593zm0 3.672v9.64h-1.593v-9.64h1.593zm6.489-.219q1.766 0 2.86.844 1.109.828 1.296 2.469h-1.625q-.203-.938-.828-1.422-.625-.5-1.562-.5-1.485 0-2.25.984-.766.985-.766 2.782 0 1.609.75 2.578.766.953 2.078.953 1.156 0 1.813-.625.672-.625.828-1.734h1.625q-.266 1.812-1.36 2.796-1.093.97-2.89.97-2.11 0-3.313-1.329-1.203-1.328-1.203-3.61 0-2.359 1.219-3.75 1.219-1.406 3.328-1.406zm8.411 7.797v2.063h-2.062v-2.063h2.062zm6.074-11.406q.203 0 .516.047.328.047.515.11v1.374q-.172-.062-.437-.093-.266-.032-.453-.032-.657 0-.938.266-.266.266-.266.766v1.39h1.86v1.39h-1.86v8.25h-1.593v-8.25h-1.61v-1.39h1.61v-1.515q0-1.063.672-1.688.671-.625 1.984-.625zm6.864 3.61q1.047 0 1.719.421.672.422.922 1.219.5-.781 1.28-1.203.798-.438 1.767-.438 1.625 0 2.406.735.781.734.781 2v7.125h-1.578v-6.39q0-1.048-.453-1.563-.438-.516-1.422-.516-1.188 0-1.86.688-.656.687-.656 1.718v6.063h-1.593v-6.39q0-1.048-.438-1.563-.437-.516-1.36-.516-.765 0-1.343.36-.578.359-.906 1-.328.624-.328 1.062v6.047h-1.594v-9.64h1.5v1.421h.031q.547-.844 1.313-1.234.78-.407 1.812-.407z"/><path fill="#000" d="M723.067 488.295l-5.515 13.953h-1.375l5.531-13.953h1.36zm2.541.328v1.938h-1.593v-1.938h1.593zm0 3.672v9.64h-1.593v-9.64h1.593zm7.13-.219q1.75 0 2.53.891.798.89.798 2.547v6.422h-1.594v-6.594q0-.812-.531-1.344-.516-.531-1.438-.531-1.344 0-2.094.828-.75.813-.75 2.125v5.516h-1.593v-9.64h1.5v1.53h.03q.532-.906 1.298-1.328.781-.422 1.843-.422zm14.328-3.453v13.313h-1.593v-1.297h-.032q-.375.734-1.187 1.14-.813.391-1.89.391-2.016 0-3.235-1.406-1.203-1.406-1.203-3.672 0-2.234 1.172-3.625 1.171-1.39 3.218-1.39.953 0 1.797.39.86.375 1.328 1.11h.032v-4.954h1.593zm-7.468 8.563q0 1.562.812 2.578.813 1 2.188 1 1.39 0 2.156-1 .781-1.016.781-2.64 0-1.641-.797-2.641-.781-1.016-2.265-1.016-1.36 0-2.125 1-.75.984-.75 2.719zm13.918-5.11q2.078 0 3.219 1.5 1.156 1.485 1.156 3.829v.187h-7.234v.11q0 1.39.796 2.234.813.828 2.22.828 1.046 0 1.671-.484.625-.5.828-1.407h1.563q-.328 1.61-1.407 2.453-1.078.844-2.718.844-1.516 0-2.578-.687-1.047-.688-1.547-1.907-.5-1.234-.5-2.515 0-2.14 1.28-3.563 1.298-1.422 3.25-1.422zm-2.86 4.11h5.547q-.078-1.172-.859-1.938-.766-.781-1.937-.781-1.094 0-1.875.734-.766.735-.875 1.985zm10.13-3.89l2.313 3.359h.015l2.391-3.36h1.906l-3.312 4.438 3.719 5.203h-2.032l-2.687-3.985-2.672 3.985h-1.938l3.641-5.078-3.375-4.563h2.031zm10.822 7.577v2.063h-2.063v-2.063h2.063zm4.355-11.25v5.094h.031q.344-.781 1.172-1.203.828-.438 1.875-.438 1.75 0 2.531.891.797.89.797 2.547v6.422h-1.594v-6.594q0-.812-.53-1.344-.516-.531-1.438-.531-1.344 0-2.094.828-.75.813-.75 2.125v5.516h-1.594v-13.313h1.594zm10.985.782v2.89h1.922v1.39h-1.922v6.048q0 .718.484.765.485.032 1 .032h.438v1.406h-1.297q-1.312 0-1.766-.453-.437-.47-.437-1.563v-6.234h-1.656v-1.39h1.656v-2.891h1.578zm8.329 2.671q1.047 0 1.719.422.671.422.921 1.219.5-.781 1.282-1.203.797-.438 1.765-.438 1.625 0 2.407.735.78.734.78 2v7.125h-1.577v-6.39q0-1.048-.453-1.563-.438-.516-1.422-.516-1.188 0-1.86.688-.656.687-.656 1.718v6.063h-1.594v-6.39q0-1.048-.437-1.563-.438-.516-1.36-.516-.765 0-1.343.36-.578.359-.907 1-.328.624-.328 1.062v6.047h-1.593v-9.64h1.5v1.421h.03q.548-.844 1.313-1.234.782-.407 1.813-.407zm12.945-3.453v13.313h-1.593v-13.313h1.593z"/><path fill="#fff" d="M544.479 528.016H846.96v144H544.48z" fill-rule="evenodd"/><path stroke="#434343" stroke-linejoin="round" stroke-linecap="butt" d="M544.479 528.016H846.96v144H544.48z"/><path fill="#000" d="M608.018 593.623l-1.218 5.719h6.984l1.188-5.719h1.78l-2.796 13.313h-1.781l1.297-6.11h-6.985l-1.281 6.11h-1.781l2.812-13.313h1.781zm20.927 0l-.329 1.485h-4.468l-2.5 11.828h-1.782l2.5-11.828h-4.468l.312-1.485h10.735zm3.931 0l1.766 11.438h.047l6.578-11.438h2.468l-2.812 13.313h-1.703l2.719-11.657h-.032l-6.781 11.641h-1.703l-1.734-11.64h-.047l-2.328 11.656h-1.704l2.813-13.313h2.453zm15.546 0l-2.47 11.813H653l-.328 1.5h-8.828l2.812-13.313h1.766zm16.48-.156q.516 0 .829.047.328.047.484.11l-.266 1.327q-.359-.062-.484-.062-.125-.016-.25-.016-1.234 0-1.547 1.156-.297 1.141-.328 1.266h1.844l-.25 1.39h-1.86l-1.78 8.25h-1.595l1.797-8.25h-1.64l.28-1.39h1.642q.5-2.14.828-2.687.328-.547.859-.844.547-.297 1.438-.297zm6.662 3.578q.234 0 .28.031l-.374 1.688q-.047-.016-.375-.016-1.11 0-1.688.328-.578.328-1.187 1.016-.61.687-1.016 2.562l-.906 4.282h-1.594l2.016-9.64h1.5l-.469 2.062h.031q.39-.688.86-1.157.468-.484 1.015-.75.344-.187.703-.265.36-.094.766-.125.125-.016.203-.016h.235zm5.165.031q1.953 0 2.97 1.032 1.03 1.03 1.03 2.953 0 2.562-1.5 4.343-1.5 1.766-3.843 1.766-1.813 0-2.938-1.11-1.125-1.124-1.125-2.937 0-2.469 1.5-4.25 1.5-1.797 3.906-1.797zm-3.812 6.032q0 1.265.703 1.968.719.688 1.937.688 1.532 0 2.563-1.422 1.031-1.438 1.031-3.156 0-1.22-.672-1.97-.656-.75-1.89-.75-1.563 0-2.625 1.438-1.047 1.422-1.047 3.204zm15.29-6.032q1.032 0 1.626.453.593.438.797 1.266.53-.766 1.421-1.234.891-.485 1.875-.485 1.235 0 1.954.578.734.563.734 1.579 0 .375-.078.812-.063.438-.203 1.11l-1.22 5.78h-1.577l1.312-5.952q.14-.672.157-.922.015-.25.015-.282 0-.562-.437-.937-.422-.375-1.032-.375-.812 0-1.625.578-.812.578-1.14 1.203-.313.625-.531 1.61l-1.094 5.078h-1.578l1.11-5.297q.187-.89.265-1.313.078-.437.078-.61 0-.593-.36-.92-.343-.33-.984-.33-.86 0-1.672.626-.812.61-1.14 1.125-.313.5-.563 1.594l-1.094 5.125h-1.593l2.046-9.64h1.485l-.36 1.437.032.03q.672-.812 1.53-1.25.876-.437 1.845-.437zm21.08 0q1.031 0 1.625.453.594.438.797 1.266.531-.766 1.422-1.234.89-.485 1.875-.485 1.234 0 1.953.578.734.563.734 1.579 0 .375-.078.812-.062.438-.203 1.11l-1.219 5.78h-1.578l1.313-5.952q.14-.672.156-.922.016-.25.016-.282 0-.562-.438-.937-.422-.375-1.031-.375-.813 0-1.625.578-.813.578-1.14 1.203-.313.625-.532 1.61l-1.094 5.078h-1.578l1.11-5.297q.187-.89.265-1.313.078-.437.078-.61 0-.593-.36-.92-.343-.33-.984-.33-.859 0-1.671.626-.813.61-1.141 1.125-.313.5-.563 1.594l-1.093 5.125h-1.594l2.047-9.64h1.484l-.36 1.437.032.03q.672-.812 1.531-1.25.875-.437 1.844-.437zm15.13 0q1.954 0 2.97 1.032 1.03 1.03 1.03 2.953 0 2.562-1.5 4.343-1.5 1.766-3.843 1.766-1.813 0-2.938-1.11-1.125-1.124-1.125-2.937 0-2.469 1.5-4.25 1.5-1.797 3.907-1.797zm-3.812 6.032q0 1.265.703 1.968.719.688 1.938.688 1.53 0 2.562-1.422 1.031-1.438 1.031-3.156 0-1.22-.671-1.97-.657-.75-1.891-.75-1.563 0-2.625 1.438-1.047 1.422-1.047 3.204zm17.182-5.813l-.235 1.125-6.781 7.11h5.766l-.25 1.406h-7.875l.25-1.203 6.703-7.047h-5.188l.281-1.39h7.329zm5.077-.219q1.75 0 2.625.61.89.61.89 1.828 0 .297-.062.672-.047.36-.11.64l-.859 3.64q-.14.563-.14.83 0 .25.093.42.11.173.375.173.125 0 .25-.047l.25-.078-.234 1.172q-.172.093-.469.156-.297.078-.515.078-.563 0-.907-.297-.343-.312-.343-.922 0-.078.031-.14l-.063-.047q-.578.765-1.359 1.094-.781.312-1.86.312-1.359 0-2.156-.687-.796-.704-.796-2.047 0-1.39.968-2.172.97-.797 4.391-1.047 1.016-.078 1.469-.36.468-.296.468-1.124 0-.625-.53-.938-.532-.328-1.407-.328-1.047 0-1.75.453-.703.438-.844 1.281h-1.578q.203-1.484 1.344-2.297 1.14-.828 2.828-.828zm1.469 4.938q-.563.375-1.89.5-1.97.172-2.657.61-.688.421-.688 1.296 0 .625.5.984.5.36 1.235.36 1.031 0 1.703-.375.687-.39 1.078-1 .406-.625.75-2.375h-.031zm7.34-8.39l-.423 1.937h-1.593l.406-1.938h1.61zm-.798 3.671l-2 9.64h-1.593l2.015-9.64h1.578zm6.38-.219q1.734 0 2.64.844.922.828.97 2.422h-1.58q0-.875-.546-1.375-.547-.5-1.484-.5-1.657 0-2.703 1.375-1.047 1.375-1.047 3.156 0 1.328.61 2.047.608.719 1.765.719.984 0 1.718-.516.75-.515 1.094-1.469h1.594q-.453 1.641-1.594 2.516-1.14.875-2.812.875-1.922 0-2.953-1.078-1.016-1.094-1.016-3.094 0-2.5 1.469-4.203 1.468-1.719 3.875-1.719zm7.083 7.797l-.453 2.063h-2.063l.453-2.063h2.063zm8.011-11.406q.516 0 .828.047.328.047.485.11l-.266 1.327q-.36-.062-.484-.062-.125-.016-.25-.016-1.235 0-1.547 1.156-.297 1.141-.328 1.266h1.843l-.25 1.39h-1.86l-1.78 8.25h-1.594l1.797-8.25h-1.64l.28-1.39h1.641q.5-2.14.828-2.687.328-.547.86-.844.546-.297 1.437-.297zm6.38 3.61q1.031 0 1.625.452.594.438.797 1.266.53-.766 1.422-1.234.89-.485 1.875-.485 1.234 0 1.953.578.734.563.734 1.579 0 .375-.078.812-.063.438-.203 1.11l-1.219 5.78h-1.578l1.312-5.952q.141-.672.157-.922.015-.25.015-.282 0-.562-.437-.937-.422-.375-1.031-.375-.813 0-1.625.578-.813.578-1.141 1.203-.313.625-.531 1.61l-1.094 5.078h-1.578l1.11-5.297q.187-.89.265-1.313.078-.437.078-.61 0-.593-.36-.92-.343-.33-.984-.33-.86 0-1.672.626-.812.61-1.14 1.125-.313.5-.563 1.594l-1.094 5.125h-1.593l2.047-9.64h1.484l-.36 1.437.032.03q.672-.812 1.531-1.25.875-.437 1.844-.437z"/><path fill="none" d="M647 230.997v226.016"/><path stroke="#000" stroke-linejoin="round" stroke-linecap="butt" d="M647 230.997v220.016"/><path fill="#000" stroke="#000" stroke-linecap="butt" d="M645.348 451.013l1.652 4.538 1.652-4.538z" fill-rule="evenodd"/><path fill="none" d="M743 167.496v289.512"/><path stroke="#000" stroke-linejoin="round" stroke-linecap="butt" d="M743 167.496v283.512"/><path fill="#000" stroke="#000" stroke-linecap="butt" d="M741.348 451.008l1.652 4.538 1.652-4.538z" fill-rule="evenodd"/><path fill="none" d="M231.512 273.001l312.976 327.024"/><path stroke="#000" stroke-linejoin="round" stroke-linecap="butt" stroke-dasharray="4.0,3.0" d="M235.66 277.336l308.828 322.689"/><path fill="#000" stroke="#000" stroke-linecap="butt" d="M236.854 276.194l-4.331-2.137 1.944 4.421z" fill-rule="evenodd"/><path fill="none" d="M604.007 429.007V338.99h42.992v90.016z"/><path fill="#000" d="M618.954 400.405q0-.203.047-.516.047-.328.11-.515h1.374q-.062.172-.094.437-.03.266-.03.453 0 .657.265.938.265.265.765.265h1.391v-1.859h1.39v1.86h8.25v1.593h-8.25v1.61h-1.39v-1.61h-1.516q-1.062 0-1.687-.672t-.625-1.984zm3.61-6.223q0-2.079 1.5-3.22 1.484-1.155 3.827-1.155h.188v7.234h.11q1.39 0 2.234-.797.828-.812.828-2.219 0-1.047-.485-1.672-.5-.625-1.406-.828v-1.562q1.61.328 2.453 1.406.844 1.078.844 2.719 0 1.515-.688 2.578-.687 1.047-1.906 1.547-1.234.5-2.515.5-2.141 0-3.563-1.281-1.422-1.297-1.422-3.25zm4.109 2.859v-5.547q-1.172.078-1.938.86-.781.765-.781 1.937 0 1.094.734 1.875.735.766 1.985.875zm-6.782-11.067h2.891v-1.922h1.39v1.922h6.047q.72 0 .766-.485.031-.484.031-1v-.437h1.407v1.297q0 1.312-.454 1.765-.468.438-1.562.438h-6.234v1.656h-1.391v-1.656h-2.89v-1.578zm2.672-7.704q0-1.766.844-2.86.828-1.109 2.469-1.296v1.625q-.938.203-1.422.828-.5.625-.5 1.562 0 1.485.984 2.25.985.766 2.781.766 1.61 0 2.579-.75.953-.766.953-2.078 0-1.157-.625-1.813-.625-.672-1.735-.828v-1.625q1.813.266 2.797 1.36.969 1.093.969 2.89 0 2.11-1.328 3.313-1.328 1.203-3.61 1.203-2.359 0-3.75-1.22-1.406-1.218-1.406-3.327zm-3.453-7.583h5.094v-.031q-.781-.344-1.203-1.172-.438-.828-.438-1.875 0-1.75.89-2.532.891-.796 2.548-.796h6.422v1.593h-6.594q-.813 0-1.344.532-.531.515-.531 1.437 0 1.344.828 2.094.812.75 2.125.75h5.516v1.594H619.11v-1.594z"/><path fill="none" d="M700.007 429.007V338.99h42.992v90.016z"/><path fill="#000" d="M718.782 414.274l8.031-2.703v-.031l-8.031-2.64v-1.657l9.64 3.531v1.688l-9.64 3.578v-1.766zm-.219-12.437q0-1.969.703-2.781.688-.829 1.875-.829h5.563q.547 0 .547-.5 0-.109-.031-.234-.032-.14-.063-.25h1.234q.125.219.188.5.078.281.078.625 0 .656-.375 1t-1.125.344q.75.64 1.125 1.5.375.844.375 1.906 0 1.484-.703 2.344-.719.844-2.016.844-1.297 0-2.047-.829-.765-.828-1.156-3.906-.14-1.031-.39-1.39-.266-.375-.797-.375-.797 0-1.188.515-.406.5-.406 1.625 0 1.172.453 1.766.438.594 1.375.64v1.579q-1.61-.079-2.406-1.125-.813-1.063-.813-2.97zm7.266 2.797q.672 0 1.047-.485.375-.5.375-1.39 0-1.344-.656-2.141-.672-.797-1.5-.797h-1.657q.282.39.39 1.031.095.641.235 1.704.157 1.046.578 1.562.422.516 1.188.516zm-10.719-10.552h13.313v1.594H715.11v-1.594zm0-4.145h1.938v1.594h-1.938v-1.594zm3.672 0h9.64v1.594h-9.64v-1.594zm-3.672-11.082h13.313v1.594h-1.297v.03q.734.376 1.14 1.188.391.813.391 1.89 0 2.017-1.406 3.235-1.406 1.203-3.672 1.203-2.234 0-3.625-1.171-1.39-1.172-1.39-3.22 0-.952.39-1.796.375-.86 1.11-1.328v-.031h-4.954v-1.594zm8.563 7.469q1.562 0 2.578-.813 1-.812 1-2.187 0-1.391-1-2.157-1.016-.781-2.64-.781-1.641 0-2.641.797-1.016.781-1.016 2.266 0 1.359 1 2.125.984.75 2.719.75zm-5.11-13.856q0-1.969.703-2.782.688-.828 1.875-.828h5.563q.547 0 .547-.5 0-.109-.031-.234-.032-.14-.063-.25h1.234q.125.219.188.5.078.281.078.625 0 .656-.375 1t-1.125.344q.75.64 1.125 1.5.375.843.375 1.906 0 1.484-.703 2.344-.719.843-2.016.843-1.297 0-2.047-.828-.765-.828-1.156-3.906-.14-1.031-.39-1.39-.266-.376-.797-.376-.797 0-1.188.516-.406.5-.406 1.625 0 1.172.453 1.766.438.593 1.375.64v1.578q-1.61-.078-2.406-1.125-.813-1.062-.813-2.968zm7.266 2.797q.672 0 1.047-.485.375-.5.375-1.39 0-1.344-.656-2.141-.672-.797-1.5-.797h-1.657q.282.39.39 1.031.095.641.235 1.703.157 1.047.578 1.563.422.516 1.188.516zm-9.938-11.068h2.891v-1.922h1.39v1.922h6.048q.718 0 .765-.484.031-.484.031-1v-.438h1.407v1.297q0 1.313-.453 1.766-.47.437-1.563.437h-6.234v1.657h-1.391v-1.657h-2.89v-1.578zm2.672-7.688q0-2.078 1.5-3.219 1.485-1.156 3.828-1.156h.188v7.235h.11q1.39 0 2.234-.797.828-.813.828-2.22 0-1.046-.485-1.67-.5-.626-1.406-.83v-1.562q1.61.329 2.453 1.407.844 1.078.844 2.718 0 1.516-.688 2.579-.687 1.046-1.906 1.546-1.234.5-2.515.5-2.141 0-3.563-1.28-1.422-1.298-1.422-3.25zm4.11 2.86v-5.547q-1.172.078-1.938.86-.781.765-.781 1.937 0 1.093.734 1.875.735.765 1.985.875z"/><path fill="none" d="M402.506 337.543l124.126 133.701-49.418 45.858-124.126-133.7z"/><path fill="#000" d="M447.248 393.55l-9.758 9.056-1.084-1.168.95-.882-.02-.023q-.794.225-1.645-.094-.839-.33-1.573-1.12-1.371-1.477-1.17-3.327.213-1.838 1.874-3.38 1.637-1.52 3.454-1.607 1.817-.087 3.21 1.413.648.699.936 1.583.31.885.09 1.728l.021.023 3.631-3.37 1.084 1.169zm-11.358.351q-1.145 1.063-1.337 2.35-.18 1.275.756 2.283.946 1.019 2.2.9 1.276-.118 2.467-1.224 1.202-1.116 1.393-2.38.213-1.263-.797-2.351-.925-.996-2.179-.877-1.231.12-2.503 1.3zm14.162 2.67l-1.42 1.318-1.084-1.168 1.42-1.318 1.084 1.168zm-2.691 2.498l-7.067 6.557-1.084-1.168 7.067-6.557 1.084 1.168zm4.022 4.01q1.318 1.42 1.417 2.63.099 1.208-.959 2.296l-1.074-1.156.023-.022q.519-.566.402-1.29-.105-.733-.754-1.431-.648-.699-1.271-.888-.602-.188-1.037.216-.378.35-.3.94.1.589.609 1.46l.77 1.31q.727 1.243.746 2.206.03.974-.771 1.718-1.042.967-2.393.707-1.34-.25-2.626-1.635-1.265-1.362-1.402-2.727-.115-1.364 1.022-2.505l1.084 1.168q-.643.64-.54 1.461.112.834.92 1.704.787.847 1.454 1.038.679.18 1.194-.298.481-.447.352-1.137t-1.099-2.263q-.98-1.584-1.01-2.58-.018-.985.772-1.718.928-.86 2.168-.605 1.24.257 2.303 1.402zm7.4 7.97q1.403 1.512 1.168 3.35-.234 1.837-1.86 3.346-1.65 1.53-3.477 1.606-1.817.087-3.199-1.401-.616-.664-.926-1.55-.31-.884-.089-1.771l-.032-.035-3.653 3.39-1.074-1.156 9.781-9.076 1.074 1.156-.962.893.032.034q.804-.235 1.633.083.84.33 1.583 1.132zm-5.847 1.098q-1.225 1.138-1.405 2.413-.17 1.265.798 2.307.936 1.008 2.168.888 1.231-.12 2.526-1.32 1.133-1.053 1.324-2.317.203-1.275-.744-2.294-.956-1.03-2.222-.901-1.265.13-2.445 1.224zm13.807 2.403l-9.758 9.055-1.084-1.168 9.758-9.055 1.084 1.168zm1.83 7.046q1.34 1.443 1.378 2.517.06 1.074-.811 1.882l-4.078 3.784q-.4.372-.06.738.074.08.182.15.119.083.216.142l-.905.84q-.24-.076-.477-.24-.25-.153-.483-.405-.447-.48-.405-.988.04-.507.59-1.017-.985.04-1.845-.334-.849-.363-1.572-1.142-1.01-1.088-1.079-2.196-.047-1.107.903-1.989.951-.882 2.064-.785 1.125.086 3.505 2.076.805.66 1.233.753.45.094.84-.267.583-.542.519-1.186-.043-.642-.808-1.467-.797-.859-1.533-.986-.725-.137-1.444.466l-1.074-1.156q1.233-1.038 2.53-.813 1.318.226 2.615 1.623zm-7.228 2.893q-.492.457-.438 1.067.066.621.672 1.274.914.985 1.937 1.123 1.035.126 1.642-.437l1.214-1.126q-.472-.095-.988-.49-.505-.406-1.33-1.09-.828-.66-1.488-.751-.66-.091-1.22.43zm11.707 2.252l-3.86 7.418.033.035 7.611-3.376 1.149 1.237-10.619 4.247q-1.661.668-2.49.626-.827-.042-1.55-.82-.202-.218-.37-.445-.158-.216-.27-.475l1.077-.999q.102.225.215.44.103.224.262.396.66.71 1.624.326.965-.362 1.537-.595l4.428-9.332 1.223 1.317zM431.51 414.33l-4.285 6.96.032.034 7.09-3.937 1.18 1.27-4.388 6.802-.002.044.011.012 7.24-3.777 1.126 1.214-9.127 4.292-.044-.002-1.138-1.225 4.26-6.618.024-.043-.02-.023-6.943 3.798-1.158-1.248 4.95-8.836 1.191 1.282zm12.863 8.458l-1.42 1.318-1.085-1.168 1.42-1.318 1.085 1.168zm-2.692 2.498l-7.066 6.558-1.085-1.168 7.067-6.558 1.084 1.168zm5.29 1.45l-2.119 1.965 1.308 1.409-1.02.946-1.307-1.409-4.433 4.113q-.526.49-.231.876.306.376.657.754l.298.321-1.03.957-.883-.95q-.893-.963-.87-1.603.047-.64.848-1.384l4.57-4.24-1.127-1.214 1.02-.946 1.126 1.214 2.12-1.966 1.073 1.156zm4.156 3.327l-3.734 3.465.021.023q.807-.28 1.68.04.884.31 1.596 1.077 1.19 1.282 1.07 2.46-.111 1.19-1.326 2.317l-4.707 4.368-1.084-1.168 4.833-4.485q.596-.552.624-1.303.038-.74-.589-1.415-.914-.985-2.032-.971-1.105.003-2.067.896l-4.043 3.752-1.085-1.168 9.758-9.056 1.085 1.168zM400.955 413.432q1.191 1.283 1.07 2.46-.11 1.19-1.325 2.317l-4.707 4.369-1.084-1.168 4.833-4.486q.595-.552.623-1.303.039-.74-.588-1.415-.915-.985-2.032-.97-1.106.002-2.068.895l-4.043 3.752-1.084-1.168 7.066-6.558 1.021 1.1-1.122 1.04.02.024q1.027-.227 1.857.047.84.285 1.563 1.064zm6.72 7.238q1.488 1.603 1.297 3.464-.18 1.873-1.818 3.392-1.65 1.53-3.552 1.548-1.88.019-3.326-1.538-1.425-1.535-1.3-3.42.126-1.886 1.81-3.449 1.684-1.562 3.553-1.57 1.869-.008 3.336 1.573zm-5.751 1.223q-1.215 1.126-1.373 2.425-.137 1.3.756 2.261.882.95 2.178.9 1.317-.051 2.531-1.178 1.203-1.116 1.362-2.414.17-1.31-.733-2.283-.872-.939-2.178-.9-1.307.04-2.543 1.189zm16.417 10.266q1.34 1.443 1.377 2.516.06 1.075-.81 1.883l-4.078 3.783q-.401.372-.06.739.074.08.181.15.12.082.216.141l-.904.84q-.24-.076-.478-.24-.249-.152-.483-.404-.446-.481-.405-.988.041-.507.59-1.017-.985.04-1.844-.334-.85-.363-1.572-1.142-1.01-1.088-1.08-2.196-.047-1.107.904-1.99.95-.882 2.064-.785 1.124.086 3.505 2.076.805.66 1.232.754.45.094.84-.267.584-.543.52-1.186-.043-.643-.809-1.467-.797-.86-1.533-.986-.725-.138-1.444.466l-1.073-1.157q1.232-1.037 2.529-.812 1.318.226 2.615 1.623zm-7.228 2.892q-.493.457-.438 1.067.065.622.671 1.275.914.984 1.937 1.122 1.035.127 1.642-.436l1.214-1.127q-.472-.095-.988-.49-.504-.406-1.33-1.089-.827-.66-1.487-.752-.66-.09-1.221.43zm14.1 4.509q1.2 1.294 1.326 2.67.148 1.376-.927 2.629l-1.106-1.191q.55-.787.479-1.574-.059-.798-.697-1.485-1.01-1.088-2.252-.98-1.242.109-2.56 1.331-1.18 1.095-1.38 2.303-.177 1.21.716 2.172.787.847 1.691.903.916.067 1.835-.573l1.106 1.191q-1.51 1.038-2.975.906-1.454-.142-2.677-1.46-1.435-1.545-1.28-3.33.155-1.785 1.827-3.337 1.73-1.605 3.578-1.658 1.86-.063 3.295 1.483zm6.817 7.343q1.201 1.294 1.327 2.67.148 1.376-.928 2.63l-1.105-1.191q.549-.787.479-1.574-.059-.799-.697-1.486-1.01-1.088-2.252-.979-1.243.108-2.56 1.33-1.18 1.095-1.38 2.304-.177 1.21.716 2.171.787.848 1.691.904.915.067 1.835-.573l1.106 1.19q-1.51 1.039-2.976.907-1.454-.143-2.676-1.46-1.436-1.546-1.28-3.33.154-1.786 1.827-3.338 1.729-1.604 3.578-1.657 1.86-.064 3.295 1.482zm6.807 7.332q1.414 1.523 1.09 3.38-.301 1.857-2.02 3.451l-.137.128-4.922-5.302-.08.074q-1.02.946-1.095 2.104-.055 1.159.902 2.19.712.767 1.493.895.791.118 1.594-.35l1.063 1.146q-1.403.854-2.755.638-1.352-.217-2.468-1.419-1.031-1.11-1.25-2.357-.209-1.235.344-2.43.565-1.206 1.504-2.078 1.57-1.456 3.483-1.484 1.925-.017 3.254 1.414zm-4.958.7l3.774 4.065q.806-.854.836-1.947.051-1.093-.746-1.952-.744-.801-1.814-.874-1.06-.062-2.05.708zm11.233 6.06q1.319 1.42 1.417 2.629.099 1.208-.959 2.297l-1.074-1.157.023-.021q.52-.567.402-1.29-.105-.733-.754-1.432-.648-.698-1.271-.887-.601-.189-1.037.215-.378.351-.3.94.1.59.609 1.46l.77 1.31q.727 1.244.747 2.206.03.974-.772 1.718-1.042.967-2.393.707-1.34-.249-2.626-1.634-1.265-1.363-1.402-2.728-.115-1.364 1.022-2.504l1.084 1.168q-.643.639-.54 1.46.112.834.92 1.704.787.848 1.454 1.038.68.18 1.195-.298.48-.446.351-1.136t-1.098-2.263q-.98-1.585-1.01-2.58-.019-.985.772-1.719.927-.86 2.167-.604 1.24.256 2.303 1.401zm6.347 6.836q1.318 1.42 1.417 2.629.099 1.209-.96 2.297l-1.073-1.157.023-.021q.519-.567.402-1.29-.105-.733-.754-1.432-.648-.698-1.272-.887-.6-.188-1.036.215-.378.351-.3.94.1.59.609 1.46l.77 1.31q.727 1.244.746 2.207.03.974-.771 1.718-1.043.967-2.393.706-1.34-.249-2.626-1.634-1.265-1.363-1.402-2.728-.115-1.364 1.022-2.504l1.084 1.168q-.643.64-.54 1.461.112.833.92 1.704.787.847 1.454 1.038.679.18 1.194-.299.481-.446.352-1.136t-1.099-2.263q-.98-1.584-1.01-2.58-.018-.985.772-1.718.928-.861 2.168-.605 1.24.256 2.303 1.401z"/><path fill="none" d="M191.512 251.505V209.49h20"/><path stroke="#000" stroke-linejoin="round" stroke-linecap="butt" d="M191.512 251.505V209.49h14"/><path fill="#000" stroke="#000" stroke-linecap="butt" d="M205.512 211.141l4.538-1.651-4.538-1.652z" fill-rule="evenodd"/><path fill="none" d="M121.495 201.503h90.015v42.992h-90.015z"/><path fill="red" d="M152.692 216.278q2.422 0 3.875 1.125 1.453 1.125 1.453 3.172h-2.828q-.063-1-.688-1.5-.624-.516-1.937-.516-.89 0-1.469.39-.562.392-.562 1.126 0 .5.234.75.25.234.984.516.735.265 3.204.843 1.656.407 2.578 1.36.937.953.937 2.422 0 1.937-1.453 3.109-1.453 1.156-4.078 1.156-2.516 0-4.11-1.234-1.577-1.235-1.577-3.422v-.078h2.828q.015 1.25.828 1.86.812.609 2.125.609 1.187 0 1.89-.438.704-.437.704-1.219 0-.656-.547-1.062-.532-.422-1.72-.719-1.53-.344-2.78-.734-1.25-.39-2.063-1.25-.812-.875-.812-2.235 0-1.797 1.422-2.906 1.437-1.125 3.562-1.125zm9.966.328v2.172h-2.656v-2.172h2.656zm0 3.672v9.64h-2.656v-9.64h2.656zm5.92-.266q1.062 0 1.75.391.687.39 1.124 1.156h.047v-1.28h2.516v9.108q0 1.938-1.235 3.063-1.234 1.125-3.75 1.125-1.703 0-2.937-.828-1.219-.813-1.328-2.266h2.625q.171.688.687 1 .516.328 1.281.328 1.032 0 1.578-.625.563-.61.563-1.703v-1.344h-.047q-.39.72-1.156 1.11-.75.39-1.735.39-1.953 0-3.046-1.296-1.079-1.297-1.079-3.547 0-2.047 1.141-3.407 1.14-1.375 3-1.375zm-1.485 4.735q0 1.36.562 2.125.563.765 1.578.765 1.047 0 1.657-.765.609-.766.609-1.906 0-1.422-.578-2.188-.578-.766-1.688-.766-.984 0-1.562.75-.578.75-.578 1.985zm14.583-4.735q1.844 0 2.672.938.844.937.844 2.937v6.032h-2.656v-5.532q0-1.125-.391-1.703-.39-.578-1.297-.578-1.11 0-1.594.656-.468.657-.468 2.016v5.14h-2.641v-9.64h2.516v1.344h.046q.485-.781 1.25-1.188.782-.422 1.72-.422z"/></g></svg>