<svg version="1.1" viewBox="0.0 0.0 1024.0 768.0" fill="none" stroke="none" stroke-linecap="square" stroke-miterlimit="10" xmlns:xlink="http://www.w3.org/1999/xlink" xmlns="http://www.w3.org/2000/svg"><clipPath id="p.0"><path d="m0 0l1024.0 0l0 768.0l-1024.0 0l0 -768.0z" clip-rule="nonzero"/></clipPath><g clip-path="url(#p.0)"><path fill="#000000" fill-opacity="0.0" d="m0 0l1024.0 0l0 768.0l-1024.0 0z" fill-rule="evenodd"/><path fill="#ffffff" d="m118.0 72.0l267.02362 0l0 250.99213l-267.02362 0z" fill-rule="evenodd"/><path stroke="#000000" stroke-width="1.0" stroke-linejoin="round" stroke-linecap="butt" d="m118.0 72.0l267.02362 0l0 250.99213l-267.02362 0z" fill-rule="evenodd"/><path fill="#000000" d="m131.21875 85.6075l0 10.859375l6.5 0l0 2.453125l-9.4375 0l0 -13.3125l2.9375 0zm12.527679 3.40625q2.28125 0 3.640625 1.40625q1.359375 1.390625 1.359375 3.6875q0 2.3125 -1.375 3.703125q-1.375 1.375 -3.625 1.375q-2.234375 0 -3.609375 -1.390625q-1.375 -1.390625 -1.375 -3.6875q0 -2.28125 1.34375 -3.6875q1.359375 -1.40625 3.640625 -1.40625zm-2.328125 5.09375q0 1.53125 0.625 2.3125q0.625 0.765625 1.703125 0.765625q1.140625 0 1.75 -0.796875q0.609375 -0.8125 0.609375 -2.28125q0 -1.4375 -0.59375 -2.265625q-0.59375 -0.828125 -1.78125 -0.828125q-1.0625 0 -1.6875 0.765625q-0.625 0.765625 -0.625 2.328125zm12.880356 -5.09375q1.0625 0 1.75 0.390625q0.6875 0.390625 1.125 1.15625l0.046875 0l0 -1.28125l2.515625 0l0 9.109375q0 1.9375 -1.234375 3.0625q-1.234375 1.125 -3.75 1.125q-1.703125 0 -2.9375 -0.828125q-1.21875 -0.8125 -1.328125 -2.265625l2.625 0q0.171875 0.6875 0.6875 1.0q0.515625 0.328125 1.28125 0.328125q1.03125 0 1.578125 -0.625q0.5625 -0.609375 0.5625 -1.703125l0 -1.34375l-0.046875 0q-0.390625 0.71875 -1.15625 1.109375q-0.75 0.390625 -1.734375 0.390625q-1.953125 0 -3.046875 -1.296875q-1.078125 -1.296875 -1.078125 -3.546875q0 -2.046875 1.140625 -3.40625q1.140625 -1.375 3.0 -1.375zm-1.484375 4.734375q0 1.359375 0.5625 2.125q0.5625 0.765625 1.578125 0.765625q1.046875 0 1.65625 -0.765625q0.609375 -0.765625 0.609375 -1.90625q0 -1.421875 -0.578125 -2.1875q-0.578125 -0.765625 -1.6875 -0.765625q-0.984375 0 -1.5625 0.75q-0.578125 0.75 -0.578125 1.984375zm11.770981 -8.140625l0 2.171875l-2.65625 0l0 -2.171875l2.65625 0zm0 3.671875l0 9.640625l-2.65625 0l0 -9.640625l2.65625 0zm6.7004395 -0.265625q1.875 0 3.15625 0.96875q1.28125 0.96875 1.390625 2.6875l-2.609375 0q-0.109375 -0.828125 -0.609375 -1.234375q-0.484375 -0.421875 -1.34375 -0.421875q-1.0625 0 -1.65625 0.875q-0.59375 0.875 -0.59375 2.265625q0 1.375 0.578125 2.203125q0.59375 0.828125 1.625 0.828125q0.875 0 1.421875 -0.5q0.546875 -0.5 0.6875 -1.46875l2.546875 0q-0.265625 1.921875 -1.5 2.953125q-1.21875 1.015625 -3.140625 1.015625q-2.15625 0 -3.515625 -1.375q-1.359375 -1.390625 -1.359375 -3.578125q0 -2.328125 1.328125 -3.765625q1.34375 -1.453125 3.59375 -1.453125zm10.525269 0q2.140625 0 3.1875 0.703125q1.046875 0.703125 1.046875 1.984375l0 5.171875q0 0.578125 0.0625 1.171875q0.078125 0.578125 0.265625 0.875l-2.6875 0q-0.078125 -0.21875 -0.125 -0.453125q-0.046875 -0.234375 -0.0625 -0.46875q-0.5625 0.578125 -1.390625 0.890625q-0.8125 0.296875 -1.859375 0.296875q-1.484375 0 -2.390625 -0.75q-0.890625 -0.75 -0.890625 -2.140625q0 -1.359375 0.84375 -2.0625q0.84375 -0.71875 3.046875 -0.96875q1.546875 -0.140625 2.03125 -0.375q0.5 -0.234375 0.5 -0.8125q0 -0.640625 -0.375 -0.96875q-0.375 -0.328125 -1.328125 -0.328125q-0.828125 0 -1.265625 0.359375q-0.4375 0.34375 -0.5 1.109375l-2.65625 0q0.109375 -1.59375 1.296875 -2.40625q1.203125 -0.828125 3.25 -0.828125zm-2.1875 7.171875q0 0.5625 0.390625 0.890625q0.390625 0.328125 1.234375 0.328125q1.0625 0 1.59375 -0.546875q0.546875 -0.5625 0.546875 -1.625l0 -1.03125q-0.234375 0.1875 -0.625 0.28125q-0.390625 0.09375 -1.40625 0.25q-0.890625 0.109375 -1.3125 0.46875q-0.421875 0.34375 -0.421875 0.984375zm11.197144 -10.578125l0 13.3125l-2.65625 0l0 -13.3125l2.65625 0zm5.1379395 3.84375l0 2.859375l-2.921875 0l0 -2.859375l2.921875 0zm0 6.59375l0 2.875l-2.921875 0l0 -2.875l2.921875 0zm9.960358 -10.4375l0 5.015625l0.0625 0q0.421875 -0.71875 1.1875 -1.15625q0.765625 -0.453125 1.640625 -0.453125q1.84375 0 2.671875 0.9375q0.84375 0.9375 0.84375 2.9375l0 6.03125l-2.65625 0l0 -5.53125q0 -1.125 -0.390625 -1.703125q-0.390625 -0.578125 -1.296875 -0.578125q-1.109375 0 -1.59375 0.65625q-0.46875 0.65625 -0.46875 2.015625l0 5.140625l-2.640625 0l0 -13.3125l2.640625 0zm11.762054 0.78125l0 2.890625l1.9375 0l0 1.765625l-1.9375 0l0 4.84375q0 0.59375 0.21875 0.828125q0.234375 0.21875 0.90625 0.21875q0.234375 0 0.4375 -0.015625q0.203125 -0.015625 0.375 -0.046875l0 2.0625q-0.328125 0.0625 -0.734375 0.078125q-0.390625 0.015625 -0.796875 0.015625q-1.71875 0 -2.390625 -0.578125q-0.65625 -0.59375 -0.65625 -1.65625l0 -5.75l-1.609375 0l0 -1.765625l1.609375 0l0 -2.890625l2.640625 0zm6.5679474 0l0 2.890625l1.9375 0l0 1.765625l-1.9375 0l0 4.84375q0 0.59375 0.21875 0.828125q0.234375 0.21875 0.90625 0.21875q0.234375 0 0.4375 -0.015625q0.203125 -0.015625 0.375 -0.046875l0 2.0625q-0.328125 0.0625 -0.734375 0.078125q-0.390625 0.015625 -0.796875 0.015625q-1.71875 0 -2.390625 -0.578125q-0.65625 -0.59375 -0.65625 -1.65625l0 -5.75l-1.609375 0l0 -1.765625l1.609375 0l0 -2.890625l2.640625 0zm8.646072 2.625q2.046875 0 3.21875 1.4375q1.171875 1.4375 1.171875 3.75q0 2.140625 -1.15625 3.5625q-1.140625 1.421875 -3.078125 1.421875q-0.890625 0 -1.65625 -0.375q-0.765625 -0.375 -1.234375 -1.078125l-0.046875 0l0 4.578125l-2.640625 0l0 -13.03125l2.515625 0l0 1.21875l0.03125 0q0.46875 -0.75 1.203125 -1.109375q0.734375 -0.375 1.671875 -0.375zm-2.875 5.109375q0 1.390625 0.59375 2.234375q0.59375 0.828125 1.71875 0.828125q1.109375 0 1.703125 -0.796875q0.59375 -0.796875 0.59375 -2.265625q0 -1.375 -0.59375 -2.234375q-0.59375 -0.875 -1.734375 -0.875q-1.09375 0 -1.6875 0.828125q-0.59375 0.8125 -0.59375 2.28125zm12.802231 -5.109375q1.96875 0 3.03125 0.78125q1.078125 0.78125 1.21875 2.296875l-2.515625 0q-0.0625 -0.6875 -0.515625 -1.0q-0.453125 -0.3125 -1.3125 -0.3125q-0.75 0 -1.109375 0.234375q-0.34375 0.234375 -0.34375 0.671875q0 0.4375 0.453125 0.734375q0.46875 0.28125 1.859375 0.546875q2.21875 0.421875 2.96875 1.09375q0.765625 0.671875 0.765625 1.765625q0 1.640625 -1.203125 2.5q-1.1875 0.859375 -3.1875 0.859375q-2.015625 0 -3.234375 -0.84375q-1.21875 -0.859375 -1.3125 -2.5625l2.53125 0q0 0.765625 0.578125 1.203125q0.578125 0.421875 1.453125 0.421875q0.765625 0 1.25 -0.328125q0.484375 -0.328125 0.484375 -0.890625q0 -0.515625 -0.625 -0.828125q-0.625 -0.3125 -2.296875 -0.671875q-1.671875 -0.328125 -2.40625 -0.9375q-0.734375 -0.609375 -0.734375 -1.640625q0 -1.53125 1.078125 -2.3125q1.09375 -0.78125 3.125 -0.78125zm9.114197 0.4375l0 2.859375l-2.921875 0l0 -2.859375l2.921875 0zm0 6.59375l0 2.875l-2.921875 0l0 -2.875l2.921875 0zm8.245804 -10.765625l-5.203125 13.953125l-2.125 0l5.203125 -13.953125l2.125 0zm6.923218 0l-5.203125 13.953125l-2.125 0l5.203125 -13.953125l2.125 0zm6.360718 3.734375q1.078125 0 1.78125 0.421875q0.703125 0.40625 1.03125 1.1875q0.546875 -0.78125 1.296875 -1.1875q0.75 -0.421875 1.640625 -0.421875q1.75 0 2.625 0.90625q0.890625 0.890625 0.890625 2.453125l0 6.546875l-2.65625 0l0 -5.578125q0 -1.3125 -0.390625 -1.765625q-0.390625 -0.46875 -1.234375 -0.46875q-0.890625 0 -1.328125 0.609375q-0.4375 0.59375 -0.4375 1.75l0 5.453125l-2.65625 0l0 -5.9375q0 -0.953125 -0.375 -1.40625q-0.359375 -0.46875 -1.21875 -0.46875q-0.765625 0 -1.28125 0.578125q-0.515625 0.578125 -0.515625 1.578125l0 5.65625l-2.65625 0l0 -9.640625l2.5 0l0 1.3125l0.03125 0q0.578125 -0.796875 1.3125 -1.1875q0.75 -0.390625 1.640625 -0.390625zm16.023102 0q2.28125 0 3.640625 1.40625q1.359375 1.390625 1.359375 3.6875q0 2.3125 -1.375 3.703125q-1.375 1.375 -3.625 1.375q-2.234375 0 -3.609375 -1.390625q-1.375 -1.390625 -1.375 -3.6875q0 -2.28125 1.34375 -3.6875q1.359375 -1.40625 3.640625 -1.40625zm-2.328125 5.09375q0 1.53125 0.625 2.3125q0.625 0.765625 1.703125 0.765625q1.140625 0 1.75 -0.796875q0.609375 -0.8125 0.609375 -2.28125q0 -1.4375 -0.59375 -2.265625q-0.59375 -0.828125 -1.78125 -0.828125q-1.0625 0 -1.6875 0.765625q-0.625 0.765625 -0.625 2.328125zm16.958496 -4.828125l0 1.984375l-5.015625 5.65625l5.375 0l0 2.0l-8.875 0l0 -2.0l5.015625 -5.65625l-4.640625 0l0 -1.984375l8.140625 0zm6.1990356 -0.265625q2.140625 0 3.1875 0.703125q1.046875 0.703125 1.046875 1.984375l0 5.171875q0 0.578125 0.0625 1.171875q0.078125 0.578125 0.265625 0.875l-2.6875 0q-0.078125 -0.21875 -0.125 -0.453125q-0.046875 -0.234375 -0.0625 -0.46875q-0.5625 0.578125 -1.390625 0.890625q-0.8125 0.296875 -1.859375 0.296875q-1.484375 0 -2.390625 -0.75q-0.890625 -0.75 -0.890625 -2.140625q0 -1.359375 0.84375 -2.0625q0.84375 -0.71875 3.046875 -0.96875q1.546875 -0.140625 2.03125 -0.375q0.5 -0.234375 0.5 -0.8125q0 -0.640625 -0.375 -0.96875q-0.375 -0.328125 -1.328125 -0.328125q-0.828125 0 -1.265625 0.359375q-0.4375 0.34375 -0.5 1.109375l-2.65625 0q0.109375 -1.59375 1.296875 -2.40625q1.203125 -0.828125 3.25 -0.828125zm-2.1875 7.171875q0 0.5625 0.390625 0.890625q0.390625 0.328125 1.234375 0.328125q1.0625 0 1.59375 -0.546875q0.546875 -0.5625 0.546875 -1.625l0 -1.03125q-0.234375 0.1875 -0.625 0.28125q-0.390625 0.09375 -1.40625 0.25q-0.890625 0.109375 -1.3125 0.46875q-0.421875 0.34375 -0.421875 0.984375zm11.197144 -10.578125l0 2.171875l-2.65625 0l0 -2.171875l2.65625 0zm0 3.671875l0 9.640625l-2.65625 0l0 -9.640625l2.65625 0zm6.7004395 -0.265625q1.875 0 3.15625 0.96875q1.28125 0.96875 1.390625 2.6875l-2.609375 0q-0.109375 -0.828125 -0.609375 -1.234375q-0.484375 -0.421875 -1.34375 -0.421875q-1.0625 0 -1.65625 0.875q-0.59375 0.875 -0.59375 2.265625q0 1.375 0.578125 2.203125q0.59375 0.828125 1.625 0.828125q0.875 0 1.421875 -0.5q0.546875 -0.5 0.6875 -1.46875l2.546875 0q-0.265625 1.921875 -1.5 2.953125q-1.21875 1.015625 -3.140625 1.015625q-2.15625 0 -3.515625 -1.375q-1.359375 -1.390625 -1.359375 -3.578125q0 -2.328125 1.328125 -3.765625q1.34375 -1.453125 3.59375 -1.453125zm9.134644 7.03125l0 2.875l-2.921875 0l0 -2.875l2.921875 0zm5.9489136 -10.4375q0.265625 0 0.71875 0.03125q0.46875 0.015625 0.6875 0.03125l0 1.984375q-0.265625 -0.03125 -0.515625 -0.046875q-0.234375 -0.015625 -0.453125 -0.015625q-0.546875 0 -0.78125 0.25q-0.234375 0.234375 -0.234375 0.984375l0 0.453125l1.828125 0l0 1.765625l-1.828125 0l0 7.875l-2.65625 0l0 -7.875l-1.578125 0l0 -1.765625l1.578125 0l0 -0.671875q0 -1.5 0.875 -2.25q0.875 -0.75 2.359375 -0.75zm7.962677 3.40625q1.078125 0 1.78125 0.421875q0.703125 0.40625 1.03125 1.1875q0.546875 -0.78125 1.296875 -1.1875q0.75 -0.421875 1.640625 -0.421875q1.75 0 2.625 0.90625q0.890625 0.890625 0.890625 2.453125l0 6.546875l-2.65625 0l0 -5.578125q0 -1.3125 -0.390625 -1.765625q-0.390625 -0.46875 -1.234375 -0.46875q-0.890625 0 -1.328125 0.609375q-0.4375 0.59375 -0.4375 1.75l0 5.453125l-2.65625 0l0 -5.9375q0 -0.953125 -0.375 -1.40625q-0.359375 -0.46875 -1.21875 -0.46875q-0.765625 0 -1.28125 0.578125q-0.515625 0.578125 -0.515625 1.578125l0 5.65625l-2.65625 0l0 -9.640625l2.5 0l0 1.3125l0.03125 0q0.578125 -0.796875 1.3125 -1.1875q0.75 -0.390625 1.640625 -0.390625z" fill-rule="nonzero"/><path fill="#ffffff" d="m551.9921 72.0l267.02362 0l0 250.99213l-267.02362 0z" fill-rule="evenodd"/><path stroke="#000000" stroke-width="1.0" stroke-linejoin="round" stroke-linecap="butt" d="m551.9921 72.0l267.02362 0l0 250.99213l-267.02362 0z" fill-rule="evenodd"/><path fill="#000000" d="m568.38275 85.6075q2.078125 0 3.296875 1.171875q1.21875 1.15625 1.21875 3.09375q0 1.921875 -1.21875 3.109375q-1.21875 1.171875 -3.296875 1.171875l-3.171875 0l0 4.765625l-2.9375 0l0 -13.3125l6.109375 0zm-0.8125 6.265625q1.25 0 1.859375 -0.46875q0.625 -0.484375 0.625 -1.53125q0 -1.015625 -0.59375 -1.5q-0.59375 -0.5 -1.875 -0.5l-2.375 0l0 4.0l2.359375 0zm9.5216675 -6.265625l0 5.015625l0.0625 0q0.421875 -0.71875 1.1875 -1.15625q0.765625 -0.453125 1.640625 -0.453125q1.84375 0 2.671875 0.9375q0.84375 0.9375 0.84375 2.9375l0 6.03125l-2.65625 0l0 -5.53125q0 -1.125 -0.390625 -1.703125q-0.390625 -0.578125 -1.296875 -0.578125q-1.109375 0 -1.59375 0.65625q-0.46875 0.65625 -0.46875 2.015625l0 5.140625l-2.640625 0l0 -13.3125l2.640625 0zm10.12146 3.671875l2.1875 6.59375l0.046875 0l2.09375 -6.59375l2.75 0l-4.109375 11.03125q-0.359375 0.96875 -1.125 1.484375q-0.75 0.515625 -1.953125 0.515625q-0.5625 0 -0.96875 -0.03125q-0.390625 -0.015625 -0.8125 -0.0625l0 -2.171875q0.484375 0.046875 0.796875 0.0625q0.3125 0.03125 0.59375 0.03125q0.5625 0 0.859375 -0.359375q0.3125 -0.34375 0.3125 -0.859375q0 -0.140625 -0.015625 -0.265625q-0.015625 -0.140625 -0.09375 -0.328125l-3.40625 -9.046875l2.84375 0zm11.933411 -0.265625q1.96875 0 3.03125 0.78125q1.078125 0.78125 1.21875 2.296875l-2.515625 0q-0.0625 -0.6875 -0.515625 -1.0q-0.453125 -0.3125 -1.3125 -0.3125q-0.75 0 -1.109375 0.234375q-0.34375 0.234375 -0.34375 0.671875q0 0.4375 0.453125 0.734375q0.46875 0.28125 1.859375 0.546875q2.21875 0.421875 2.96875 1.09375q0.765625 0.671875 0.765625 1.765625q0 1.640625 -1.203125 2.5q-1.1875 0.859375 -3.1875 0.859375q-2.015625 0 -3.234375 -0.84375q-1.21875 -0.859375 -1.3125 -2.5625l2.53125 0q0 0.765625 0.578125 1.203125q0.578125 0.421875 1.453125 0.421875q0.765625 0 1.25 -0.328125q0.484375 -0.328125 0.484375 -0.890625q0 -0.515625 -0.625 -0.828125q-0.625 -0.3125 -2.296875 -0.671875q-1.671875 -0.328125 -2.40625 -0.9375q-0.734375 -0.609375 -0.734375 -1.640625q0 -1.53125 1.078125 -2.3125q1.09375 -0.78125 3.125 -0.78125zm8.786072 -3.40625l0 2.171875l-2.65625 0l0 -2.171875l2.65625 0zm0 3.671875l0 9.640625l-2.65625 0l0 -9.640625l2.65625 0zm6.7004395 -0.265625q1.875 0 3.15625 0.96875q1.28125 0.96875 1.390625 2.6875l-2.609375 0q-0.109375 -0.828125 -0.609375 -1.234375q-0.484375 -0.421875 -1.34375 -0.421875q-1.0625 0 -1.65625 0.875q-0.59375 0.875 -0.59375 2.265625q0 1.375 0.578125 2.203125q0.59375 0.828125 1.625 0.828125q0.875 0 1.421875 -0.5q0.546875 -0.5 0.6875 -1.46875l2.546875 0q-0.265625 1.921875 -1.5 2.953125q-1.21875 1.015625 -3.140625 1.015625q-2.15625 0 -3.515625 -1.375q-1.359375 -1.390625 -1.359375 -3.578125q0 -2.328125 1.328125 -3.765625q1.34375 -1.453125 3.59375 -1.453125zm10.525269 0q2.140625 0 3.1875 0.703125q1.046875 0.703125 1.046875 1.984375l0 5.171875q0 0.578125 0.0625 1.171875q0.078125 0.578125 0.265625 0.875l-2.6875 0q-0.078125 -0.21875 -0.125 -0.453125q-0.046875 -0.234375 -0.0625 -0.46875q-0.5625 0.578125 -1.390625 0.890625q-0.8125 0.296875 -1.859375 0.296875q-1.484375 0 -2.390625 -0.75q-0.890625 -0.75 -0.890625 -2.140625q0 -1.359375 0.84375 -2.0625q0.84375 -0.71875 3.046875 -0.96875q1.546875 -0.140625 2.03125 -0.375q0.5 -0.234375 0.5 -0.8125q0 -0.640625 -0.375 -0.96875q-0.375 -0.328125 -1.328125 -0.328125q-0.828125 0 -1.265625 0.359375q-0.4375 0.34375 -0.5 1.109375l-2.65625 0q0.109375 -1.59375 1.296875 -2.40625q1.203125 -0.828125 3.25 -0.828125zm-2.1875 7.171875q0 0.5625 0.390625 0.890625q0.390625 0.328125 1.234375 0.328125q1.0625 0 1.59375 -0.546875q0.546875 -0.5625 0.546875 -1.625l0 -1.03125q-0.234375 0.1875 -0.625 0.28125q-0.390625 0.09375 -1.40625 0.25q-0.890625 0.109375 -1.3125 0.46875q-0.421875 0.34375 -0.421875 0.984375zm11.197144 -10.578125l0 13.3125l-2.65625 0l0 -13.3125l2.65625 0zm5.1379395 3.84375l0 2.859375l-2.921875 0l0 -2.859375l2.921875 0zm0 6.59375l0 2.875l-2.921875 0l0 -2.875l2.921875 0zm9.960327 -10.4375l0 5.015625l0.0625 0q0.421875 -0.71875 1.1875 -1.15625q0.765625 -0.453125 1.640625 -0.453125q1.84375 0 2.671875 0.9375q0.84375 0.9375 0.84375 2.9375l0 6.03125l-2.65625 0l0 -5.53125q0 -1.125 -0.390625 -1.703125q-0.390625 -0.578125 -1.296875 -0.578125q-1.109375 0 -1.59375 0.65625q-0.46875 0.65625 -0.46875 2.015625l0 5.140625l-2.640625 0l0 -13.3125l2.640625 0zm11.762085 0.78125l0 2.890625l1.9375 0l0 1.765625l-1.9375 0l0 4.84375q0 0.59375 0.21875 0.828125q0.234375 0.21875 0.90625 0.21875q0.234375 0 0.4375 -0.015625q0.203125 -0.015625 0.375 -0.046875l0 2.0625q-0.328125 0.0625 -0.734375 0.078125q-0.390625 0.015625 -0.796875 0.015625q-1.71875 0 -2.390625 -0.578125q-0.65625 -0.59375 -0.65625 -1.65625l0 -5.75l-1.609375 0l0 -1.765625l1.609375 0l0 -2.890625l2.640625 0zm6.567932 0l0 2.890625l1.9375 0l0 1.765625l-1.9375 0l0 4.84375q0 0.59375 0.21875 0.828125q0.234375 0.21875 0.90625 0.21875q0.234375 0 0.4375 -0.015625q0.203125 -0.015625 0.375 -0.046875l0 2.0625q-0.328125 0.0625 -0.734375 0.078125q-0.390625 0.015625 -0.796875 0.015625q-1.71875 0 -2.390625 -0.578125q-0.65625 -0.59375 -0.65625 -1.65625l0 -5.75l-1.609375 0l0 -1.765625l1.609375 0l0 -2.890625l2.640625 0zm8.646057 2.625q2.046875 0 3.21875 1.4375q1.171875 1.4375 1.171875 3.75q0 2.140625 -1.15625 3.5625q-1.140625 1.421875 -3.078125 1.421875q-0.890625 0 -1.65625 -0.375q-0.765625 -0.375 -1.234375 -1.078125l-0.046875 0l0 4.578125l-2.640625 0l0 -13.03125l2.515625 0l0 1.21875l0.03125 0q0.46875 -0.75 1.203125 -1.109375q0.734375 -0.375 1.671875 -0.375zm-2.875 5.109375q0 1.390625 0.59375 2.234375q0.59375 0.828125 1.71875 0.828125q1.109375 0 1.703125 -0.796875q0.59375 -0.796875 0.59375 -2.265625q0 -1.375 -0.59375 -2.234375q-0.59375 -0.875 -1.734375 -0.875q-1.09375 0 -1.6875 0.828125q-0.59375 0.8125 -0.59375 2.28125zm12.802246 -5.109375q1.96875 0 3.03125 0.78125q1.078125 0.78125 1.21875 2.296875l-2.515625 0q-0.0625 -0.6875 -0.515625 -1.0q-0.453125 -0.3125 -1.3125 -0.3125q-0.75 0 -1.109375 0.234375q-0.34375 0.234375 -0.34375 0.671875q0 0.4375 0.453125 0.734375q0.46875 0.28125 1.859375 0.546875q2.21875 0.421875 2.96875 1.09375q0.765625 0.671875 0.765625 1.765625q0 1.640625 -1.203125 2.5q-1.1875 0.859375 -3.1875 0.859375q-2.015625 0 -3.234375 -0.84375q-1.21875 -0.859375 -1.3125 -2.5625l2.53125 0q0 0.765625 0.578125 1.203125q0.578125 0.421875 1.453125 0.421875q0.765625 0 1.25 -0.328125q0.484375 -0.328125 0.484375 -0.890625q0 -0.515625 -0.625 -0.828125q-0.625 -0.3125 -2.296875 -0.671875q-1.671875 -0.328125 -2.40625 -0.9375q-0.734375 -0.609375 -0.734375 -1.640625q0 -1.53125 1.078125 -2.3125q1.09375 -0.78125 3.125 -0.78125zm9.114197 0.4375l0 2.859375l-2.921875 0l0 -2.859375l2.921875 0zm0 6.59375l0 2.875l-2.921875 0l0 -2.875l2.921875 0zm8.245789 -10.765625l-5.203125 13.953125l-2.125 0l5.203125 -13.953125l2.125 0zm6.923218 0l-5.203125 13.953125l-2.125 0l5.203125 -13.953125l2.125 0zm5.423218 3.734375q1.875 0 3.15625 0.96875q1.28125 0.96875 1.390625 2.6875l-2.609375 0q-0.109375 -0.828125 -0.609375 -1.234375q-0.484375 -0.421875 -1.34375 -0.421875q-1.0625 0 -1.65625 0.875q-0.59375 0.875 -0.59375 2.265625q0 1.375 0.578125 2.203125q0.59375 0.828125 1.625 0.828125q0.875 0 1.421875 -0.5q0.546875 -0.5 0.6875 -1.46875l2.546875 0q-0.265625 1.921875 -1.5 2.953125q-1.21875 1.015625 -3.140625 1.015625q-2.15625 0 -3.515625 -1.375q-1.359375 -1.390625 -1.359375 -3.578125q0 -2.328125 1.328125 -3.765625q1.34375 -1.453125 3.59375 -1.453125zm15.494019 -3.40625l0 13.3125l-2.515625 0l0 -1.234375l-0.03125 0q-0.4375 0.75 -1.1875 1.125q-0.75 0.375 -1.75 0.375q-1.96875 0 -3.15625 -1.453125q-1.171875 -1.453125 -1.171875 -3.71875q0 -2.15625 1.15625 -3.578125q1.171875 -1.421875 3.125 -1.421875q0.90625 0 1.640625 0.375q0.75 0.359375 1.203125 1.0625l0.046875 0l0 -4.84375l2.640625 0zm-7.15625 8.46875q0 1.359375 0.625 2.234375q0.625 0.875 1.703125 0.875q1.09375 0 1.6875 -0.8125q0.59375 -0.8125 0.59375 -2.296875q0 -1.421875 -0.578125 -2.234375q-0.578125 -0.828125 -1.71875 -0.828125q-1.09375 0 -1.703125 0.828125q-0.609375 0.8125 -0.609375 2.234375zm14.692871 -5.0625q1.84375 0 2.671875 0.9375q0.84375 0.9375 0.84375 2.9375l0 6.03125l-2.65625 0l0 -5.53125q0 -1.125 -0.390625 -1.703125q-0.390625 -0.578125 -1.296875 -0.578125q-1.109375 0 -1.59375 0.65625q-0.46875 0.65625 -0.46875 2.015625l0 5.140625l-2.640625 0l0 -9.640625l2.515625 0l0 1.34375l0.046875 0q0.484375 -0.78125 1.25 -1.1875q0.78125 -0.421875 1.71875 -0.421875zm8.558899 7.03125l0 2.875l-2.921875 0l0 -2.875l2.921875 0zm5.0427246 -10.4375l0 2.171875l-2.65625 0l0 -2.171875l2.65625 0zm0 3.671875l0 10.203125q0 1.515625 -0.765625 2.171875q-0.75 0.65625 -2.625 0.65625q-0.21875 0 -0.4375 -0.015625q-0.203125 -0.015625 -0.4375 -0.046875l0 -2.1875q0.125 0.046875 0.28125 0.0625q0.140625 0.015625 0.296875 0.015625q0.578125 0 0.796875 -0.21875q0.234375 -0.21875 0.234375 -0.609375l0 -10.03125l2.65625 0zm4.6051636 0l1.6875 2.515625l1.6875 -2.515625l2.921875 0l-3.171875 4.515625l3.5625 5.125l-3.015625 0l-2.015625 -3.046875l-2.015625 3.046875l-2.96875 0l3.46875 -5.078125l-3.171875 -4.5625l3.03125 0zm12.317322 -0.265625q1.875 0 3.15625 0.96875q1.28125 0.96875 1.390625 2.6875l-2.609375 0q-0.109375 -0.828125 -0.609375 -1.234375q-0.484375 -0.421875 -1.34375 -0.421875q-1.0625 0 -1.65625 0.875q-0.59375 0.875 -0.59375 2.265625q0 1.375 0.578125 2.203125q0.59375 0.828125 1.625 0.828125q0.875 0 1.421875 -0.5q0.546875 -0.5 0.6875 -1.46875l2.546875 0q-0.265625 1.921875 -1.5 2.953125q-1.21875 1.015625 -3.140625 1.015625q-2.15625 0 -3.515625 -1.375q-1.359375 -1.390625 -1.359375 -3.578125q0 -2.328125 1.328125 -3.765625q1.34375 -1.453125 3.59375 -1.453125zm8.994019 -3.40625l0 7.140625l3.328125 -3.46875l3.140625 0l-3.640625 3.53125l4.046875 6.109375l-3.21875 0l-2.640625 -4.3125l-1.015625 0.984375l0 3.328125l-2.65625 0l0 -13.3125l2.65625 0zm10.853394 10.4375l0 2.875l-2.921875 0l0 -2.875l2.921875 0zm4.8707886 -10.4375l0 2.171875l-2.65625 0l0 -2.171875l2.65625 0zm0 3.671875l0 9.640625l-2.65625 0l0 -9.640625l2.65625 0zm6.7629395 -0.265625q2.28125 0 3.640625 1.40625q1.359375 1.390625 1.359375 3.6875q0 2.3125 -1.375 3.703125q-1.375 1.375 -3.625 1.375q-2.234375 0 -3.609375 -1.390625q-1.375 -1.390625 -1.375 -3.6875q0 -2.28125 1.34375 -3.6875q1.359375 -1.40625 3.640625 -1.40625zm-2.328125 5.09375q0 1.53125 0.625 2.3125q0.625 0.765625 1.703125 0.765625q1.140625 0 1.75 -0.796875q0.609375 -0.8125 0.609375 -2.28125q0 -1.4375 -0.59375 -2.265625q-0.59375 -0.828125 -1.78125 -0.828125q-1.0625 0 -1.6875 0.765625q-0.625 0.765625 -0.625 2.328125z" fill-rule="nonzero"/><path fill="#ffffff" d="m151.51181 251.50525l80.0 0l0 42.992126l-80.0 0z" fill-rule="evenodd"/><path stroke="#000000" stroke-width="1.0" stroke-linejoin="round" stroke-linecap="butt" d="m151.51181 251.50525l80.0 0l0 42.992126l-80.0 0z" fill-rule="evenodd"/><path fill="#000000" d="m176.13783 265.11276l0 5.09375l0.03125 0q0.34375 -0.78125 1.171875 -1.203125q0.828125 -0.4375 1.875 -0.4375q1.75 0 2.53125 0.890625q0.796875 0.890625 0.796875 2.546875l0 6.421875l-1.59375 0l0 -6.59375q0 -0.8125 -0.53125 -1.34375q-0.515625 -0.53125 -1.4375 -0.53125q-1.34375 0 -2.09375 0.828125q-0.75 0.8125 -0.75 2.125l0 5.515625l-1.59375 0l0 -13.3125l1.59375 0zm10.985092 0.78125l0 2.890625l1.921875 0l0 1.390625l-1.921875 0l0 6.046875q0 0.71875 0.484375 0.765625q0.484375 0.03125 1.0 0.03125l0.4375 0l0 1.40625l-1.296875 0q-1.3125 0 -1.765625 -0.453125q-0.4375 -0.46875 -0.4375 -1.5625l0 -6.234375l-1.65625 0l0 -1.390625l1.65625 0l0 -2.890625l1.578125 0zm8.328751 2.671875q1.046875 0 1.71875 0.421875q0.671875 0.421875 0.921875 1.21875q0.5 -0.78125 1.28125 -1.203125q0.796875 -0.4375 1.765625 -0.4375q1.625 0 2.40625 0.734375q0.78125 0.734375 0.78125 2.0l0 7.125l-1.578125 0l0 -6.390625q0 -1.046875 -0.453125 -1.5625q-0.4375 -0.515625 -1.421875 -0.515625q-1.1875 0 -1.859375 0.6875q-0.65625 0.6875 -0.65625 1.71875l0 6.0625l-1.59375 0l0 -6.390625q0 -1.046875 -0.4375 -1.5625q-0.4375 -0.515625 -1.359375 -0.515625q-0.765625 0 -1.34375 0.359375q-0.578125 0.359375 -0.90625 1.0q-0.328125 0.625 -0.328125 1.0625l0 6.046875l-1.59375 0l0 -9.640625l1.5 0l0 1.421875l0.03125 0q0.546875 -0.84375 1.3125 -1.234375q0.78125 -0.40625 1.8125 -0.40625zm12.945541 -3.453125l0 13.3125l-1.59375 0l0 -13.3125l1.59375 0z" fill-rule="nonzero"/><path fill="#ffffff" d="m211.51181 188.00525l80.0 0l0 42.992126l-80.0 0z" fill-rule="evenodd"/><path stroke="#000000" stroke-width="1.0" stroke-linejoin="round" stroke-linecap="butt" d="m211.51181 188.00525l80.0 0l0 42.992126l-80.0 0z" fill-rule="evenodd"/><path fill="#000000" d="m241.06503 205.06587q1.9375 0 2.890625 0.75q0.953125 0.75 1.03125 2.265625l-1.578125 0l0 -0.03125q-0.0625 -0.765625 -0.671875 -1.171875q-0.609375 -0.421875 -1.5625 -0.421875q-0.953125 0 -1.515625 0.328125q-0.546875 0.3125 -0.546875 0.90625q0 0.515625 0.484375 0.859375q0.5 0.328125 1.484375 0.546875l1.484375 0.328125q1.40625 0.3125 2.125 0.953125q0.734375 0.640625 0.734375 1.734375q0 1.421875 -1.109375 2.234375q-1.09375 0.8125 -2.984375 0.8125q-1.859375 0 -2.953125 -0.828125q-1.078125 -0.84375 -1.140625 -2.453125l1.59375 0q0.03125 0.90625 0.703125 1.390625q0.6875 0.484375 1.875 0.484375q1.15625 0 1.75 -0.359375q0.59375 -0.375 0.59375 -1.078125q0 -0.65625 -0.59375 -1.03125q-0.59375 -0.375 -2.40625 -0.734375q-1.828125 -0.359375 -2.578125 -1.015625q-0.734375 -0.65625 -0.734375 -1.734375q0 -1.265625 1.03125 -2.0q1.03125 -0.734375 2.59375 -0.734375zm7.375 0.21875l2.3125 3.359375l0.015625 0l2.390625 -3.359375l1.90625 0l-3.3125 4.4375l3.71875 5.203125l-2.03125 0l-2.6875 -3.984375l-2.671875 3.984375l-1.9375 0l3.640625 -5.078125l-3.375 -4.5625l2.03125 0zm12.337036 -0.21875q1.0 0 1.734375 0.4375q0.75 0.4375 1.140625 1.15625l0.03125 0l0 -1.375l1.484375 0l0 8.921875q0 2.265625 -1.09375 3.453125q-1.09375 1.1875 -3.375 1.1875q-1.65625 0 -2.796875 -0.734375q-1.125 -0.734375 -1.203125 -2.109375l1.578125 0q0.046875 0.75 0.796875 1.15625q0.75 0.421875 1.703125 0.421875q1.40625 0 2.15625 -0.9375q0.75 -0.921875 0.75 -2.75l0 -0.609375l-0.046875 0q-0.375 0.796875 -1.1875 1.28125q-0.796875 0.46875 -1.828125 0.46875q-1.953125 0 -3.125 -1.34375q-1.171875 -1.359375 -1.171875 -3.53125q0 -2.21875 1.171875 -3.65625q1.171875 -1.4375 3.28125 -1.4375zm-2.78125 4.890625q0 1.71875 0.71875 2.703125q0.734375 0.984375 2.015625 0.984375q1.3125 0 2.078125 -1.015625q0.78125 -1.015625 0.78125 -2.71875q0 -1.546875 -0.71875 -2.5q-0.71875 -0.953125 -2.03125 -0.953125q-1.328125 0 -2.09375 0.953125q-0.75 0.953125 -0.75 2.546875z" fill-rule="nonzero"/><path fill="#ffffff" d="m607.0 188.00525l80.0 0l0 42.992126l-80.0 0z" fill-rule="evenodd"/><path stroke="#000000" stroke-width="1.0" stroke-linejoin="round" stroke-linecap="butt" d="m607.0 188.00525l80.0 0l0 42.992126l-80.0 0z" fill-rule="evenodd"/><path fill="#000000" d="m636.5532 205.06587q1.9375 0 2.890625 0.75q0.953125 0.75 1.03125 2.265625l-1.578125 0l0 -0.03125q-0.0625 -0.765625 -0.671875 -1.171875q-0.609375 -0.421875 -1.5625 -0.421875q-0.953125 0 -1.515625 0.328125q-0.546875 0.3125 -0.546875 0.90625q0 0.515625 0.484375 0.859375q0.5 0.328125 1.484375 0.546875l1.484375 0.328125q1.40625 0.3125 2.125 0.953125q0.734375 0.640625 0.734375 1.734375q0 1.421875 -1.109375 2.234375q-1.09375 0.8125 -2.984375 0.8125q-1.859375 0 -2.953125 -0.828125q-1.078125 -0.84375 -1.140625 -2.453125l1.59375 0q0.03125 0.90625 0.703125 1.390625q0.6875 0.484375 1.875 0.484375q1.15625 0 1.75 -0.359375q0.59375 -0.375 0.59375 -1.078125q0 -0.65625 -0.59375 -1.03125q-0.59375 -0.375 -2.40625 -0.734375q-1.828125 -0.359375 -2.578125 -1.015625q-0.734375 -0.65625 -0.734375 -1.734375q0 -1.265625 1.03125 -2.0q1.03125 -0.734375 2.59375 -0.734375zm7.375 0.21875l2.3125 3.359375l0.015625 0l2.390625 -3.359375l1.90625 0l-3.3125 4.4375l3.71875 5.203125l-2.03125 0l-2.6875 -3.984375l-2.671875 3.984375l-1.9375 0l3.640625 -5.078125l-3.375 -4.5625l2.03125 0zm12.337036 -0.21875q1.0 0 1.734375 0.4375q0.75 0.4375 1.140625 1.15625l0.03125 0l0 -1.375l1.484375 0l0 8.921875q0 2.265625 -1.09375 3.453125q-1.09375 1.1875 -3.375 1.1875q-1.65625 0 -2.796875 -0.734375q-1.125 -0.734375 -1.203125 -2.109375l1.578125 0q0.046875 0.75 0.796875 1.15625q0.75 0.421875 1.703125 0.421875q1.40625 0 2.15625 -0.9375q0.75 -0.921875 0.75 -2.75l0 -0.609375l-0.046875 0q-0.375 0.796875 -1.1875 1.28125q-0.796875 0.46875 -1.828125 0.46875q-1.953125 0 -3.125 -1.34375q-1.171875 -1.359375 -1.171875 -3.53125q0 -2.21875 1.171875 -3.65625q1.171875 -1.4375 3.28125 -1.4375zm-2.78125 4.890625q0 1.71875 0.71875 2.703125q0.734375 0.984375 2.015625 0.984375q1.3125 0 2.078125 -1.015625q0.78125 -1.015625 0.78125 -2.71875q0 -1.546875 -0.71875 -2.5q-0.71875 -0.953125 -2.03125 -0.953125q-1.328125 0 -2.09375 0.953125q-0.75 0.953125 -0.75 2.546875z" fill-rule="nonzero"/><path fill="#ffffff" d="m271.5118 124.50525l80.0 0l0 42.992126l-80.0 0z" fill-rule="evenodd"/><path stroke="#000000" stroke-width="1.0" stroke-linejoin="round" stroke-linecap="butt" d="m271.5118 124.50525l80.0 0l0 42.992126l-80.0 0z" fill-rule="evenodd"/><path fill="#000000" d="m300.66595 141.56587q1.765625 0 2.859375 0.84375q1.109375 0.828125 1.296875 2.46875l-1.625 0q-0.203125 -0.9375 -0.828125 -1.421875q-0.625 -0.5 -1.5625 -0.5q-1.484375 0 -2.25 0.984375q-0.765625 0.984375 -0.765625 2.78125q0 1.609375 0.75 2.578125q0.765625 0.953125 2.078125 0.953125q1.15625 0 1.8125 -0.625q0.671875 -0.625 0.828125 -1.734375l1.625 0q-0.265625 1.8125 -1.359375 2.796875q-1.09375 0.96875 -2.890625 0.96875q-2.109375 0 -3.3125 -1.328125q-1.203125 -1.328125 -1.203125 -3.609375q0 -2.359375 1.21875 -3.75q1.21875 -1.40625 3.328125 -1.40625zm10.004822 0q2.078125 0 3.21875 1.5q1.15625 1.484375 1.15625 3.828125l0 0.1875l-7.234375 0l0 0.109375q0 1.390625 0.796875 2.234375q0.8125 0.828125 2.21875 0.828125q1.046875 0 1.671875 -0.484375q0.625 -0.5 0.828125 -1.40625l1.5625 0q-0.328125 1.609375 -1.40625 2.453125q-1.078125 0.84375 -2.71875 0.84375q-1.515625 0 -2.578125 -0.6875q-1.046875 -0.6875 -1.546875 -1.90625q-0.5 -1.234375 -0.5 -2.515625q0 -2.140625 1.28125 -3.5625q1.296875 -1.421875 3.25 -1.421875zm-2.859375 4.109375l5.546875 0q-0.078125 -1.171875 -0.859375 -1.9375q-0.765625 -0.78125 -1.9375 -0.78125q-1.09375 0 -1.875 0.734375q-0.765625 0.734375 -0.875 1.984375zm13.676697 -4.125q0.046875 0 0.09375 0q0.046875 0 0.125 0.015625l0 1.671875q-1.796875 0 -2.65625 0.953125q-0.84375 0.9375 -0.84375 2.921875l0 4.3125l-1.578125 0l0 -9.640625l1.484375 0l0 2.03125l0.046875 0q0.546875 -1.15625 1.359375 -1.703125q0.828125 -0.5625 1.96875 -0.5625zm3.603302 -2.65625l0 2.890625l1.921875 0l0 1.390625l-1.921875 0l0 6.046875q0 0.71875 0.484375 0.765625q0.484375 0.03125 1.0 0.03125l0.4375 0l0 1.40625l-1.296875 0q-1.3125 0 -1.765625 -0.453125q-0.4375 -0.46875 -0.4375 -1.5625l0 -6.234375l-1.65625 0l0 -1.390625l1.65625 0l0 -2.890625l1.578125 0z" fill-rule="nonzero"/><path fill="#ffffff" d="m703.0 124.50394l80.0 0l0 42.992126l-80.0 0z" fill-rule="evenodd"/><path stroke="#000000" stroke-width="1.0" stroke-linejoin="round" stroke-linecap="butt" d="m703.0 124.50394l80.0 0l0 42.992126l-80.0 0z" fill-rule="evenodd"/><path fill="#000000" d="m732.1542 141.56456q1.765625 0 2.859375 0.84375q1.109375 0.828125 1.296875 2.46875l-1.625 0q-0.203125 -0.9375 -0.828125 -1.421875q-0.625 -0.5 -1.5625 -0.5q-1.484375 0 -2.25 0.984375q-0.765625 0.984375 -0.765625 2.78125q0 1.609375 0.75 2.578125q0.765625 0.953125 2.078125 0.953125q1.15625 0 1.8125 -0.625q0.671875 -0.625 0.828125 -1.734375l1.625 0q-0.265625 1.8125 -1.359375 2.796875q-1.09375 0.96875 -2.890625 0.96875q-2.109375 0 -3.3125 -1.328125q-1.203125 -1.328125 -1.203125 -3.609375q0 -2.359375 1.21875 -3.75q1.21875 -1.40625 3.328125 -1.40625zm10.004822 0q2.078125 0 3.21875 1.5q1.15625 1.484375 1.15625 3.828125l0 0.1875l-7.234375 0l0 0.109375q0 1.390625 0.796875 2.234375q0.8125 0.828125 2.21875 0.828125q1.046875 0 1.671875 -0.484375q0.625 -0.5 0.828125 -1.40625l1.5625 0q-0.328125 1.609375 -1.40625 2.453125q-1.078125 0.84375 -2.71875 0.84375q-1.515625 0 -2.578125 -0.6875q-1.046875 -0.6875 -1.546875 -1.90625q-0.5 -1.234375 -0.5 -2.515625q0 -2.140625 1.28125 -3.5625q1.296875 -1.421875 3.25 -1.421875zm-2.859375 4.109375l5.546875 0q-0.078125 -1.171875 -0.859375 -1.9375q-0.765625 -0.78125 -1.9375 -0.78125q-1.09375 0 -1.875 0.734375q-0.765625 0.734375 -0.875 1.984375zm13.676697 -4.125q0.046875 0 0.09375 0q0.046875 0 0.125 0.015625l0 1.671875q-1.796875 0 -2.65625 0.953125q-0.84375 0.9375 -0.84375 2.921875l0 4.3125l-1.578125 0l0 -9.640625l1.484375 0l0 2.03125l0.046875 0q0.546875 -1.15625 1.359375 -1.703125q0.828125 -0.5625 1.96875 -0.5625zm3.6032715 -2.65625l0 2.890625l1.921875 0l0 1.390625l-1.921875 0l0 6.046875q0 0.71875 0.484375 0.765625q0.484375 0.03125 1.0 0.03125l0.4375 0l0 1.40625l-1.296875 0q-1.3125 0 -1.765625 -0.453125q-0.4375 -0.46875 -0.4375 -1.5625l0 -6.234375l-1.65625 0l0 -1.390625l1.65625 0l0 -2.890625l1.578125 0z" fill-rule="nonzero"/><path fill="#000000" fill-opacity="0.0" d="m291.5118 209.50131l315.49606 0" fill-rule="evenodd"/><path stroke="#000000" stroke-width="1.0" stroke-linejoin="round" stroke-linecap="butt" d="m291.5118 209.50131l309.49606 0" fill-rule="evenodd"/><path fill="#000000" stroke="#000000" stroke-width="1.0" stroke-linecap="butt" d="m601.0079 211.15305l4.538086 -1.6517334l-4.538086 -1.6517334z" fill-rule="evenodd"/><path fill="#000000" fill-opacity="0.0" d="m351.5118 146.00131l351.49606 0" fill-rule="evenodd"/><path stroke="#000000" stroke-width="1.0" stroke-linejoin="round" stroke-linecap="butt" d="m351.5118 146.00131l345.49606 0" fill-rule="evenodd"/><path fill="#000000" stroke="#000000" stroke-width="1.0" stroke-linecap="butt" d="m697.0079 147.65305l4.538086 -1.6517334l-4.538086 -1.6517334z" fill-rule="evenodd"/><path fill="#ffffff" d="m544.4788 456.01575l302.48254 0l0 72.0l-302.48254 0z" fill-rule="evenodd"/><path stroke="#000000" stroke-width="1.0" stroke-linejoin="round" stroke-linecap="butt" d="m544.4788 456.01575l302.48254 0l0 72.0l-302.48254 0z" fill-rule="evenodd"/><path fill="#f3f3f3" d="m561.0126 475.01575l269.43195 0l0 37.007874l-269.43195 0z" fill-rule="evenodd"/><path stroke="#434343" stroke-width="1.0" stroke-linejoin="round" stroke-linecap="butt" d="m561.0126 475.01575l269.43195 0l0 37.007874l-269.43195 0z" fill-rule="evenodd"/><path fill="#000000" d="m572.7938 488.62326l0 5.09375l0.03125 0q0.34375 -0.78125 1.171875 -1.203125q0.828125 -0.4375 1.875 -0.4375q1.75 0 2.53125 0.890625q0.796875 0.890625 0.796875 2.546875l0 6.421875l-1.59375 0l0 -6.59375q0 -0.8125 -0.53125 -1.34375q-0.515625 -0.53125 -1.4375 -0.53125q-1.34375 0 -2.09375 0.828125q-0.75 0.8125 -0.75 2.125l0 5.515625l-1.59375 0l0 -13.3125l1.59375 0zm10.985107 0.78125l0 2.890625l1.921875 0l0 1.390625l-1.921875 0l0 6.046875q0 0.71875 0.484375 0.765625q0.484375 0.03125 1.0 0.03125l0.4375 0l0 1.40625l-1.296875 0q-1.3125 0 -1.765625 -0.453125q-0.4375 -0.46875 -0.4375 -1.5625l0 -6.234375l-1.65625 0l0 -1.390625l1.65625 0l0 -2.890625l1.578125 0zm5.8756104 0l0 2.890625l1.921875 0l0 1.390625l-1.921875 0l0 6.046875q0 0.71875 0.484375 0.765625q0.484375 0.03125 1.0 0.03125l0.4375 0l0 1.40625l-1.296875 0q-1.3125 0 -1.765625 -0.453125q-0.4375 -0.46875 -0.4375 -1.5625l0 -6.234375l-1.65625 0l0 -1.390625l1.65625 0l0 -2.890625l1.578125 0zm8.438171 2.671875q2.0625 0 3.25 1.421875q1.1875 1.421875 1.1875 3.640625q0 2.25 -1.1875 3.640625q-1.171875 1.390625 -3.203125 1.390625q-0.90625 0 -1.765625 -0.375q-0.859375 -0.375 -1.359375 -1.140625l-0.046875 0l0 4.984375l-1.578125 0l0 -13.34375l1.578125 0l0 1.3125l0.046875 0q0.375 -0.75 1.171875 -1.140625q0.8125 -0.390625 1.90625 -0.390625zm-3.171875 5.03125q0 1.671875 0.8125 2.671875q0.8125 0.984375 2.234375 0.984375q1.375 0 2.125 -0.984375q0.75 -0.984375 0.75 -2.75q0 -1.546875 -0.796875 -2.546875q-0.796875 -1.015625 -2.1875 -1.015625q-1.40625 0 -2.171875 1.015625q-0.765625 1.015625 -0.765625 2.625zm12.683899 -5.03125q1.9375 0 2.890625 0.75q0.953125 0.75 1.03125 2.265625l-1.578125 0l0 -0.03125q-0.0625 -0.765625 -0.671875 -1.171875q-0.609375 -0.421875 -1.5625 -0.421875q-0.953125 0 -1.515625 0.328125q-0.546875 0.3125 -0.546875 0.90625q0 0.515625 0.484375 0.859375q0.5 0.328125 1.484375 0.546875l1.484375 0.328125q1.40625 0.3125 2.125 0.953125q0.734375 0.640625 0.734375 1.734375q0 1.421875 -1.109375 2.234375q-1.09375 0.8125 -2.984375 0.8125q-1.859375 0 -2.953125 -0.828125q-1.078125 -0.84375 -1.140625 -2.453125l1.59375 0q0.03125 0.90625 0.703125 1.390625q0.6875 0.484375 1.875 0.484375q1.15625 0 1.75 -0.359375q0.59375 -0.375 0.59375 -1.078125q0 -0.65625 -0.59375 -1.03125q-0.59375 -0.375 -2.40625 -0.734375q-1.828125 -0.359375 -2.578125 -1.015625q-0.734375 -0.65625 -0.734375 -1.734375q0 -1.265625 1.03125 -2.0q1.03125 -0.734375 2.59375 -0.734375zm8.53125 0.21875l0 2.078125l-2.0625 0l0 -2.078125l2.0625 0zm0 7.578125l0 2.0625l-2.0625 0l0 -2.0625l2.0625 0zm8.120789 -11.578125l-5.515625 13.953125l-1.375 0l5.53125 -13.953125l1.359375 0zm6.2127075 0l-5.515625 13.953125l-1.375 0l5.53125 -13.953125l1.359375 0z" fill-rule="nonzero"/><path fill="#ff0000" d="m635.979 492.0764q1.046875 0 1.71875 0.421875q0.671875 0.421875 0.921875 1.21875q0.5 -0.78125 1.28125 -1.203125q0.796875 -0.4375 1.765625 -0.4375q1.625 0 2.40625 0.734375q0.78125 0.734375 0.78125 2.0l0 7.125l-1.578125 0l0 -6.390625q0 -1.046875 -0.453125 -1.5625q-0.4375 -0.515625 -1.421875 -0.515625q-1.1875 0 -1.859375 0.6875q-0.65625 0.6875 -0.65625 1.71875l0 6.0625l-1.59375 0l0 -6.390625q0 -1.046875 -0.4375 -1.5625q-0.4375 -0.515625 -1.359375 -0.515625q-0.765625 0 -1.34375 0.359375q-0.578125 0.359375 -0.90625 1.0q-0.328125 0.625 -0.328125 1.0625l0 6.046875l-1.59375 0l0 -9.640625l1.5 0l0 1.421875l0.03125 0q0.546875 -0.84375 1.3125 -1.234375q0.78125 -0.40625 1.8125 -0.40625zm15.429932 0q2.1875 0 3.421875 1.40625q1.25 1.40625 1.25 3.640625q0 2.25 -1.28125 3.65625q-1.265625 1.390625 -3.390625 1.390625q-2.09375 0 -3.390625 -1.375q-1.296875 -1.375 -1.296875 -3.671875q0 -2.296875 1.265625 -3.671875q1.265625 -1.375 3.421875 -1.375zm-3.015625 5.046875q0 1.65625 0.84375 2.65625q0.859375 0.984375 2.171875 0.984375q1.296875 0 2.140625 -0.984375q0.859375 -1.0 0.859375 -2.65625q0 -1.640625 -0.84375 -2.640625q-0.84375 -1.015625 -2.171875 -1.015625q-1.28125 0 -2.140625 0.984375q-0.859375 0.984375 -0.859375 2.671875zm16.650269 -4.828125l0 1.078125l-5.890625 7.15625l6.15625 0l0 1.40625l-8.140625 0l0 -1.21875l5.828125 -7.03125l-5.453125 0l0 -1.390625l7.5 0zm5.814026 -0.21875q1.96875 0 2.78125 0.703125q0.828125 0.6875 0.828125 1.875q0 5.015625 0 5.5625q0 0.546875 0.5 0.546875q0.109375 0 0.234375 -0.03125q0.140625 -0.03125 0.25 -0.0625l0 1.234375q-0.21875 0.125 -0.5 0.1875q-0.28125 0.078125 -0.625 0.078125q-0.65625 0 -1.0 -0.375q-0.34375 -0.375 -0.34375 -1.125q-0.640625 0.75 -1.5 1.125q-0.84375 0.375 -1.90625 0.375q-1.484375 0 -2.34375 -0.703125q-0.84375 -0.71875 -0.84375 -2.015625q0 -1.296875 0.828125 -2.046875q0.828125 -0.765625 3.90625 -1.15625q1.03125 -0.140625 1.390625 -0.390625q0.375 -0.265625 0.375 -0.796875q0 -0.796875 -0.515625 -1.1875q-0.5 -0.40625 -1.625 -0.40625q-1.171875 0 -1.765625 0.453125q-0.59375 0.4375 -0.640625 1.375l-1.578125 0q0.078125 -1.609375 1.125 -2.40625q1.0625 -0.8125 2.96875 -0.8125zm-2.796875 7.265625q0 0.671875 0.484375 1.046875q0.5 0.375 1.390625 0.375q1.34375 0 2.140625 -0.65625q0.796875 -0.671875 0.796875 -1.5l0 -1.65625q-0.390625 0.28125 -1.03125 0.390625q-0.640625 0.09375 -1.703125 0.234375q-1.046875 0.15625 -1.5625 0.578125q-0.515625 0.421875 -0.515625 1.1875zm10.551697 -10.71875l0 1.9375l-1.59375 0l0 -1.9375l1.59375 0zm0 3.671875l0 9.640625l-1.59375 0l0 -9.640625l1.59375 0zm6.4885864 -0.21875q1.765625 0 2.859375 0.84375q1.109375 0.828125 1.296875 2.46875l-1.625 0q-0.203125 -0.9375 -0.828125 -1.421875q-0.625 -0.5 -1.5625 -0.5q-1.484375 0 -2.25 0.984375q-0.765625 0.984375 -0.765625 2.78125q0 1.609375 0.75 2.578125q0.765625 0.953125 2.078125 0.953125q1.15625 0 1.8125 -0.625q0.671875 -0.625 0.828125 -1.734375l1.625 0q-0.265625 1.8125 -1.359375 2.796875q-1.09375 0.96875 -2.890625 0.96875q-2.109375 0 -3.3125 -1.328125q-1.203125 -1.328125 -1.203125 -3.609375q0 -2.359375 1.21875 -3.75q1.21875 -1.40625 3.328125 -1.40625zm8.411072 7.796875l0 2.0625l-2.0625 0l0 -2.0625l2.0625 0zm6.0739136 -11.40625q0.203125 0 0.515625 0.046875q0.328125 0.046875 0.515625 0.109375l0 1.375q-0.171875 -0.0625 -0.4375 -0.09375q-0.265625 -0.03125 -0.453125 -0.03125q-0.65625 0 -0.9375 0.265625q-0.265625 0.265625 -0.265625 0.765625l0 1.390625l1.859375 0l0 1.390625l-1.859375 0l0 8.25l-1.59375 0l0 -8.25l-1.609375 0l0 -1.390625l1.609375 0l0 -1.515625q0 -1.0625 0.671875 -1.6875q0.671875 -0.625 1.984375 -0.625zm6.8640747 3.609375q1.046875 0 1.71875 0.421875q0.671875 0.421875 0.921875 1.21875q0.5 -0.78125 1.28125 -1.203125q0.796875 -0.4375 1.765625 -0.4375q1.625 0 2.40625 0.734375q0.78125 0.734375 0.78125 2.0l0 7.125l-1.578125 0l0 -6.390625q0 -1.046875 -0.453125 -1.5625q-0.4375 -0.515625 -1.421875 -0.515625q-1.1875 0 -1.859375 0.6875q-0.65625 0.6875 -0.65625 1.71875l0 6.0625l-1.59375 0l0 -6.390625q0 -1.046875 -0.4375 -1.5625q-0.4375 -0.515625 -1.359375 -0.515625q-0.765625 0 -1.34375 0.359375q-0.578125 0.359375 -0.90625 1.0q-0.328125 0.625 -0.328125 1.0625l0 6.046875l-1.59375 0l0 -9.640625l1.5 0l0 1.421875l0.03125 0q0.546875 -0.84375 1.3125 -1.234375q0.78125 -0.40625 1.8125 -0.40625z" fill-rule="nonzero"/><path fill="#000000" d="m723.0675 488.29514l-5.515625 13.953125l-1.375 0l5.53125 -13.953125l1.359375 0zm2.5408325 0.328125l0 1.9375l-1.59375 0l0 -1.9375l1.59375 0zm0 3.671875l0 9.640625l-1.59375 0l0 -9.640625l1.59375 0zm7.1291504 -0.21875q1.75 0 2.53125 0.890625q0.796875 0.890625 0.796875 2.546875l0 6.421875l-1.59375 0l0 -6.59375q0 -0.8125 -0.53125 -1.34375q-0.515625 -0.53125 -1.4375 -0.53125q-1.34375 0 -2.09375 0.828125q-0.75 0.8125 -0.75 2.125l0 5.515625l-1.59375 0l0 -9.640625l1.5 0l0 1.53125l0.03125 0q0.53125 -0.90625 1.296875 -1.328125q0.78125 -0.421875 1.84375 -0.421875zm14.328857 -3.453125l0 13.3125l-1.59375 0l0 -1.296875l-0.03125 0q-0.375 0.734375 -1.1875 1.140625q-0.8125 0.390625 -1.890625 0.390625q-2.015625 0 -3.234375 -1.40625q-1.203125 -1.40625 -1.203125 -3.671875q0 -2.234375 1.171875 -3.625q1.171875 -1.390625 3.21875 -1.390625q0.953125 0 1.796875 0.390625q0.859375 0.375 1.328125 1.109375l0.03125 0l0 -4.953125l1.59375 0zm-7.46875 8.5625q0 1.5625 0.8125 2.578125q0.8125 1.0 2.1875 1.0q1.390625 0 2.15625 -1.0q0.78125 -1.015625 0.78125 -2.640625q0 -1.640625 -0.796875 -2.640625q-0.78125 -1.015625 -2.265625 -1.015625q-1.359375 0 -2.125 1.0q-0.75 0.984375 -0.75 2.71875zm13.918335 -5.109375q2.078125 0 3.21875 1.5q1.15625 1.484375 1.15625 3.828125l0 0.1875l-7.234375 0l0 0.109375q0 1.390625 0.796875 2.234375q0.8125 0.828125 2.21875 0.828125q1.046875 0 1.671875 -0.484375q0.625 -0.5 0.828125 -1.40625l1.5625 0q-0.328125 1.609375 -1.40625 2.453125q-1.078125 0.84375 -2.71875 0.84375q-1.515625 0 -2.578125 -0.6875q-1.046875 -0.6875 -1.546875 -1.90625q-0.5 -1.234375 -0.5 -2.515625q0 -2.140625 1.28125 -3.5625q1.296875 -1.421875 3.25 -1.421875zm-2.859375 4.109375l5.546875 0q-0.078125 -1.171875 -0.859375 -1.9375q-0.765625 -0.78125 -1.9375 -0.78125q-1.09375 0 -1.875 0.734375q-0.765625 0.734375 -0.875 1.984375zm10.129822 -3.890625l2.3125 3.359375l0.015625 0l2.390625 -3.359375l1.90625 0l-3.3125 4.4375l3.71875 5.203125l-2.03125 0l-2.6875 -3.984375l-2.671875 3.984375l-1.9375 0l3.640625 -5.078125l-3.375 -4.5625l2.03125 0zm10.821411 7.578125l0 2.0625l-2.0625 0l0 -2.0625l2.0625 0zm4.3551636 -11.25l0 5.09375l0.03125 0q0.34375 -0.78125 1.171875 -1.203125q0.828125 -0.4375 1.875 -0.4375q1.75 0 2.53125 0.890625q0.796875 0.890625 0.796875 2.546875l0 6.421875l-1.59375 0l0 -6.59375q0 -0.8125 -0.53125 -1.34375q-0.515625 -0.53125 -1.4375 -0.53125q-1.34375 0 -2.09375 0.828125q-0.75 0.8125 -0.75 2.125l0 5.515625l-1.59375 0l0 -13.3125l1.59375 0zm10.985107 0.78125l0 2.890625l1.921875 0l0 1.390625l-1.921875 0l0 6.046875q0 0.71875 0.484375 0.765625q0.484375 0.03125 1.0 0.03125l0.4375 0l0 1.40625l-1.296875 0q-1.3125 0 -1.765625 -0.453125q-0.4375 -0.46875 -0.4375 -1.5625l0 -6.234375l-1.65625 0l0 -1.390625l1.65625 0l0 -2.890625l1.578125 0zm8.328735 2.671875q1.046875 0 1.71875 0.421875q0.671875 0.421875 0.921875 1.21875q0.5 -0.78125 1.28125 -1.203125q0.796875 -0.4375 1.765625 -0.4375q1.625 0 2.40625 0.734375q0.78125 0.734375 0.78125 2.0l0 7.125l-1.578125 0l0 -6.390625q0 -1.046875 -0.453125 -1.5625q-0.4375 -0.515625 -1.421875 -0.515625q-1.1875 0 -1.859375 0.6875q-0.65625 0.6875 -0.65625 1.71875l0 6.0625l-1.59375 0l0 -6.390625q0 -1.046875 -0.4375 -1.5625q-0.4375 -0.515625 -1.359375 -0.515625q-0.765625 0 -1.34375 0.359375q-0.578125 0.359375 -0.90625 1.0q-0.328125 0.625 -0.328125 1.0625l0 6.046875l-1.59375 0l0 -9.640625l1.5 0l0 1.421875l0.03125 0q0.546875 -0.84375 1.3125 -1.234375q0.78125 -0.40625 1.8125 -0.40625zm12.945557 -3.453125l0 13.3125l-1.59375 0l0 -13.3125l1.59375 0z" fill-rule="nonzero"/><path fill="#ffffff" d="m544.4788 528.01575l302.48254 0l0 144.0l-302.48254 0z" fill-rule="evenodd"/><path stroke="#434343" stroke-width="1.0" stroke-linejoin="round" stroke-linecap="butt" d="m544.4788 528.01575l302.48254 0l0 144.0l-302.48254 0z" fill-rule="evenodd"/><path fill="#000000" d="m608.01843 593.6232l-1.21875 5.71875l6.984375 0l1.1875 -5.71875l1.78125 0l-2.796875 13.3125l-1.78125 0l1.296875 -6.109375l-6.984375 0l-1.28125 6.109375l-1.78125 0l2.8125 -13.3125l1.78125 0zm20.926086 0l-0.328125 1.484375l-4.46875 0l-2.5 11.828125l-1.78125 0l2.5 -11.828125l-4.46875 0l0.3125 -1.484375l10.734375 0zm3.9315186 0l1.765625 11.4375l0.046875 0l6.578125 -11.4375l2.46875 0l-2.8125 13.3125l-1.703125 0l2.71875 -11.65625l-0.03125 0l-6.78125 11.640625l-1.703125 0l-1.734375 -11.640625l-0.046875 0l-2.328125 11.65625l-1.703125 0l2.8125 -13.3125l2.453125 0zm15.545593 0l-2.46875 11.8125l7.046875 0l-0.328125 1.5l-8.828125 0l2.8125 -13.3125l1.765625 0zm16.480896 -0.15625q0.515625 0 0.828125 0.046875q0.328125 0.046875 0.484375 0.109375l-0.265625 1.328125q-0.359375 -0.0625 -0.484375 -0.0625q-0.125 -0.015625 -0.25 -0.015625q-1.234375 0 -1.546875 1.15625q-0.296875 1.140625 -0.328125 1.265625l1.84375 0l-0.25 1.390625l-1.859375 0l-1.78125 8.25l-1.59375 0l1.796875 -8.25l-1.640625 0l0.28125 -1.390625l1.640625 0q0.5 -2.140625 0.828125 -2.6875q0.328125 -0.546875 0.859375 -0.84375q0.546875 -0.296875 1.4375 -0.296875zm6.6610107 3.578125q0.234375 0 0.28125 0.03125l-0.375 1.6875q-0.046875 -0.015625 -0.375 -0.015625q-1.109375 0 -1.6875 0.328125q-0.578125 0.328125 -1.1875 1.015625q-0.609375 0.6875 -1.015625 2.5625l-0.90625 4.28125l-1.59375 0l2.015625 -9.640625l1.5 0l-0.46875 2.0625l0.03125 0q0.390625 -0.6875 0.859375 -1.15625q0.46875 -0.484375 1.015625 -0.75q0.34375 -0.1875 0.703125 -0.265625q0.359375 -0.09375 0.765625 -0.125q0.125 -0.015625 0.203125 -0.015625q0.09375 0 0.234375 0zm5.1657715 0.03125q1.953125 0 2.96875 1.03125q1.03125 1.03125 1.03125 2.953125q0 2.5625 -1.5 4.34375q-1.5 1.765625 -3.84375 1.765625q-1.8125 0 -2.9375 -1.109375q-1.125 -1.125 -1.125 -2.9375q0 -2.46875 1.5 -4.25q1.5 -1.796875 3.90625 -1.796875zm-3.8125 6.03125q0 1.265625 0.703125 1.96875q0.71875 0.6875 1.9375 0.6875q1.53125 0 2.5625 -1.421875q1.03125 -1.4375 1.03125 -3.15625q0 -1.21875 -0.671875 -1.96875q-0.65625 -0.75 -1.890625 -0.75q-1.5625 0 -2.625 1.4375q-1.046875 1.421875 -1.046875 3.203125zm15.290894 -6.03125q1.03125 0 1.625 0.453125q0.59375 0.4375 0.796875 1.265625q0.53125 -0.765625 1.421875 -1.234375q0.890625 -0.484375 1.875 -0.484375q1.234375 0 1.953125 0.578125q0.734375 0.5625 0.734375 1.578125q0 0.375 -0.078125 0.8125q-0.0625 0.4375 -0.203125 1.109375l-1.21875 5.78125l-1.578125 0l1.3125 -5.953125q0.140625 -0.671875 0.15625 -0.921875q0.015625 -0.25 0.015625 -0.28125q0 -0.5625 -0.4375 -0.9375q-0.421875 -0.375 -1.03125 -0.375q-0.8125 0 -1.625 0.578125q-0.8125 0.578125 -1.140625 1.203125q-0.3125 0.625 -0.53125 1.609375l-1.09375 5.078125l-1.578125 0l1.109375 -5.296875q0.1875 -0.890625 0.265625 -1.3125q0.078125 -0.4375 0.078125 -0.609375q0 -0.59375 -0.359375 -0.921875q-0.34375 -0.328125 -0.984375 -0.328125q-0.859375 0 -1.671875 0.625q-0.8125 0.609375 -1.140625 1.125q-0.3125 0.5 -0.5625 1.59375l-1.09375 5.125l-1.59375 0l2.046875 -9.640625l1.484375 0l-0.359375 1.4375l0.03125 0.03125q0.671875 -0.8125 1.53125 -1.25q0.875 -0.4375 1.84375 -0.4375zm21.079407 0q1.03125 0 1.625 0.453125q0.59375 0.4375 0.796875 1.265625q0.53125 -0.765625 1.421875 -1.234375q0.890625 -0.484375 1.875 -0.484375q1.234375 0 1.953125 0.578125q0.734375 0.5625 0.734375 1.578125q0 0.375 -0.078125 0.8125q-0.0625 0.4375 -0.203125 1.109375l-1.21875 5.78125l-1.578125 0l1.3125 -5.953125q0.140625 -0.671875 0.15625 -0.921875q0.015625 -0.25 0.015625 -0.28125q0 -0.5625 -0.4375 -0.9375q-0.421875 -0.375 -1.03125 -0.375q-0.8125 0 -1.625 0.578125q-0.8125 0.578125 -1.140625 1.203125q-0.3125 0.625 -0.53125 1.609375l-1.09375 5.078125l-1.578125 0l1.109375 -5.296875q0.1875 -0.890625 0.265625 -1.3125q0.078125 -0.4375 0.078125 -0.609375q0 -0.59375 -0.359375 -0.921875q-0.34375 -0.328125 -0.984375 -0.328125q-0.859375 0 -1.671875 0.625q-0.8125 0.609375 -1.140625 1.125q-0.3125 0.5 -0.5625 1.59375l-1.09375 5.125l-1.59375 0l2.046875 -9.640625l1.484375 0l-0.359375 1.4375l0.03125 0.03125q0.671875 -0.8125 1.53125 -1.25q0.875 -0.4375 1.84375 -0.4375zm15.130432 0q1.953125 0 2.96875 1.03125q1.03125 1.03125 1.03125 2.953125q0 2.5625 -1.5 4.34375q-1.5 1.765625 -3.84375 1.765625q-1.8125 0 -2.9375 -1.109375q-1.125 -1.125 -1.125 -2.9375q0 -2.46875 1.5 -4.25q1.5 -1.796875 3.90625 -1.796875zm-3.8125 6.03125q0 1.265625 0.703125 1.96875q0.71875 0.6875 1.9375 0.6875q1.53125 0 2.5625 -1.421875q1.03125 -1.4375 1.03125 -3.15625q0 -1.21875 -0.671875 -1.96875q-0.65625 -0.75 -1.890625 -0.75q-1.5625 0 -2.625 1.4375q-1.046875 1.421875 -1.046875 3.203125zm17.181519 -5.8125l-0.234375 1.125l-6.78125 7.109375l5.765625 0l-0.25 1.40625l-7.875 0l0.25 -1.203125l6.703125 -7.046875l-5.1875 0l0.28125 -1.390625l7.328125 0zm5.0773926 -0.21875q1.75 0 2.625 0.609375q0.890625 0.609375 0.890625 1.828125q0 0.296875 -0.0625 0.671875q-0.046875 0.359375 -0.109375 0.640625l-0.859375 3.640625q-0.140625 0.5625 -0.140625 0.828125q0 0.25 0.09375 0.421875q0.109375 0.171875 0.375 0.171875q0.125 0 0.25 -0.046875l0.25 -0.078125l-0.234375 1.171875q-0.171875 0.09375 -0.46875 0.15625q-0.296875 0.078125 -0.515625 0.078125q-0.5625 0 -0.90625 -0.296875q-0.34375 -0.3125 -0.34375 -0.921875q0 -0.078125 0.03125 -0.140625l-0.0625 -0.046875q-0.578125 0.765625 -1.359375 1.09375q-0.78125 0.3125 -1.859375 0.3125q-1.359375 0 -2.15625 -0.6875q-0.796875 -0.703125 -0.796875 -2.046875q0 -1.390625 0.96875 -2.171875q0.96875 -0.796875 4.390625 -1.046875q1.015625 -0.078125 1.46875 -0.359375q0.46875 -0.296875 0.46875 -1.125q0 -0.625 -0.53125 -0.9375q-0.53125 -0.328125 -1.40625 -0.328125q-1.046875 0 -1.75 0.453125q-0.703125 0.4375 -0.84375 1.28125l-1.578125 0q0.203125 -1.484375 1.34375 -2.296875q1.140625 -0.828125 2.828125 -0.828125zm1.46875 4.9375q-0.5625 0.375 -1.890625 0.5q-1.96875 0.171875 -2.65625 0.609375q-0.6875 0.421875 -0.6875 1.296875q0 0.625 0.5 0.984375q0.5 0.359375 1.234375 0.359375q1.03125 0 1.703125 -0.375q0.6875 -0.390625 1.078125 -1.0q0.40625 -0.625 0.75 -2.375l-0.03125 0zm7.3396606 -8.390625l-0.421875 1.9375l-1.59375 0l0.40625 -1.9375l1.609375 0zm-0.796875 3.671875l-2.0 9.640625l-1.59375 0l2.015625 -9.640625l1.578125 0zm6.3792114 -0.21875q1.734375 0 2.640625 0.84375q0.921875 0.828125 0.96875 2.421875l-1.578125 0q0 -0.875 -0.546875 -1.375q-0.546875 -0.5 -1.484375 -0.5q-1.65625 0 -2.703125 1.375q-1.046875 1.375 -1.046875 3.15625q0 1.328125 0.609375 2.046875q0.609375 0.71875 1.765625 0.71875q0.984375 0 1.71875 -0.515625q0.75 -0.515625 1.09375 -1.46875l1.59375 0q-0.453125 1.640625 -1.59375 2.515625q-1.140625 0.875 -2.8125 0.875q-1.921875 0 -2.953125 -1.078125q-1.015625 -1.09375 -1.015625 -3.09375q0 -2.5 1.46875 -4.203125q1.46875 -1.71875 3.875 -1.71875zm7.082947 7.796875l-0.453125 2.0625l-2.0625 0l0.453125 -2.0625l2.0625 0zm8.011414 -11.40625q0.515625 0 0.828125 0.046875q0.328125 0.046875 0.484375 0.109375l-0.265625 1.328125q-0.359375 -0.0625 -0.484375 -0.0625q-0.125 -0.015625 -0.25 -0.015625q-1.234375 0 -1.546875 1.15625q-0.296875 1.140625 -0.328125 1.265625l1.84375 0l-0.25 1.390625l-1.859375 0l-1.78125 8.25l-1.59375 0l1.796875 -8.25l-1.640625 0l0.28125 -1.390625l1.640625 0q0.5 -2.140625 0.828125 -2.6875q0.328125 -0.546875 0.859375 -0.84375q0.546875 -0.296875 1.4375 -0.296875zm6.3797607 3.609375q1.03125 0 1.625 0.453125q0.59375 0.4375 0.796875 1.265625q0.53125 -0.765625 1.421875 -1.234375q0.890625 -0.484375 1.875 -0.484375q1.234375 0 1.953125 0.578125q0.734375 0.5625 0.734375 1.578125q0 0.375 -0.078125 0.8125q-0.0625 0.4375 -0.203125 1.109375l-1.21875 5.78125l-1.578125 0l1.3125 -5.953125q0.140625 -0.671875 0.15625 -0.921875q0.015625 -0.25 0.015625 -0.28125q0 -0.5625 -0.4375 -0.9375q-0.421875 -0.375 -1.03125 -0.375q-0.8125 0 -1.625 0.578125q-0.8125 0.578125 -1.140625 1.203125q-0.3125 0.625 -0.53125 1.609375l-1.09375 5.078125l-1.578125 0l1.109375 -5.296875q0.1875 -0.890625 0.265625 -1.3125q0.078125 -0.4375 0.078125 -0.609375q0 -0.59375 -0.359375 -0.921875q-0.34375 -0.328125 -0.984375 -0.328125q-0.859375 0 -1.671875 0.625q-0.8125 0.609375 -1.140625 1.125q-0.3125 0.5 -0.5625 1.59375l-1.09375 5.125l-1.59375 0l2.046875 -9.640625l1.484375 0l-0.359375 1.4375l0.03125 0.03125q0.671875 -0.8125 1.53125 -1.25q0.875 -0.4375 1.84375 -0.4375z" fill-rule="nonzero"/><path fill="#000000" fill-opacity="0.0" d="m647.0 230.99738l0 226.01575" fill-rule="evenodd"/><path stroke="#000000" stroke-width="1.0" stroke-linejoin="round" stroke-linecap="butt" d="m647.0 230.99738l0 220.01575" fill-rule="evenodd"/><path fill="#000000" stroke="#000000" stroke-width="1.0" stroke-linecap="butt" d="m645.34827 451.01312l1.6517334 4.538086l1.6517334 -4.538086z" fill-rule="evenodd"/><path fill="#000000" fill-opacity="0.0" d="m743.0 167.49606l0 289.5118" fill-rule="evenodd"/><path stroke="#000000" stroke-width="1.0" stroke-linejoin="round" stroke-linecap="butt" d="m743.0 167.49606l0 283.5118" fill-rule="evenodd"/><path fill="#000000" stroke="#000000" stroke-width="1.0" stroke-linecap="butt" d="m741.34827 451.00787l1.6517334 4.538086l1.6517334 -4.538086z" fill-rule="evenodd"/><path fill="#000000" fill-opacity="0.0" d="m231.51181 273.0013l312.97635 327.02365" fill-rule="evenodd"/><path stroke="#000000" stroke-width="1.0" stroke-linejoin="round" stroke-linecap="butt" stroke-dasharray="4.0,3.0" d="m235.66032 277.33603l308.82782 322.68893" fill-rule="evenodd"/><path fill="#000000" stroke="#000000" stroke-width="1.0" stroke-linecap="butt" d="m236.85364 276.194l-4.3310394 -2.1365356l1.9444275 4.4205933z" fill-rule="evenodd"/><path fill="#000000" fill-opacity="0.0" d="m604.0066 429.00656l0 -90.01575l42.992065 0l0 90.01575z" fill-rule="evenodd"/><path fill="#000000" d="m618.95386 400.405q0 -0.203125 0.046875 -0.515625q0.046875 -0.328125 0.109375 -0.515625l1.375 0q-0.0625 0.171875 -0.09375 0.4375q-0.03125 0.265625 -0.03125 0.453125q0 0.65625 0.265625 0.9375q0.265625 0.265625 0.765625 0.265625l1.390625 0l0 -1.859375l1.390625 0l0 1.859375l8.25 0l0 1.59375l-8.25 0l0 1.609375l-1.390625 0l0 -1.609375l-1.515625 0q-1.0625 0 -1.6875 -0.671875q-0.625 -0.671875 -0.625 -1.984375zm3.609375 -6.22348q0 -2.078125 1.5 -3.21875q1.484375 -1.15625 3.828125 -1.15625l0.1875 0l0 7.234375l0.109375 0q1.390625 0 2.234375 -0.796875q0.828125 -0.8125 0.828125 -2.21875q0 -1.046875 -0.484375 -1.671875q-0.5 -0.625 -1.40625 -0.828125l0 -1.5625q1.609375 0.328125 2.453125 1.40625q0.84375 1.078125 0.84375 2.71875q0 1.515625 -0.6875 2.578125q-0.6875 1.046875 -1.90625 1.546875q-1.234375 0.5 -2.515625 0.5q-2.140625 0 -3.5625 -1.28125q-1.421875 -1.296875 -1.421875 -3.25zm4.109375 2.859375l0 -5.546875q-1.171875 0.078125 -1.9375 0.859375q-0.78125 0.765625 -0.78125 1.9375q0 1.09375 0.734375 1.875q0.734375 0.765625 1.984375 0.875zm-6.78125 -11.067322l2.890625 0l0 -1.921875l1.390625 0l0 1.921875l6.046875 0q0.71875 0 0.765625 -0.484375q0.03125 -0.484375 0.03125 -1.0l0 -0.4375l1.40625 0l0 1.296875q0 1.3125 -0.453125 1.765625q-0.46875 0.4375 -1.5625 0.4375l-6.234375 0l0 1.65625l-1.390625 0l0 -1.65625l-2.890625 0l0 -1.578125zm2.671875 -7.703766q0 -1.765625 0.84375 -2.859375q0.828125 -1.109375 2.46875 -1.296875l0 1.625q-0.9375 0.203125 -1.421875 0.828125q-0.5 0.625 -0.5 1.5625q0 1.484375 0.984375 2.25q0.984375 0.765625 2.78125 0.765625q1.609375 0 2.578125 -0.75q0.953125 -0.765625 0.953125 -2.078125q0 -1.15625 -0.625 -1.8125q-0.625 -0.671875 -1.734375 -0.828125l0 -1.625q1.8125 0.265625 2.796875 1.359375q0.96875 1.09375 0.96875 2.890625q0 2.109375 -1.328125 3.3125q-1.328125 1.203125 -3.609375 1.203125q-2.359375 0 -3.75 -1.21875q-1.40625 -1.21875 -1.40625 -3.328125zm-3.453125 -7.582947l5.09375 0l0 -0.03125q-0.78125 -0.34375 -1.203125 -1.171875q-0.4375 -0.828125 -0.4375 -1.875q0 -1.75 0.890625 -2.53125q0.890625 -0.796875 2.546875 -0.796875l6.421875 0l0 1.59375l-6.59375 0q-0.8125 0 -1.34375 0.53125q-0.53125 0.515625 -0.53125 1.4375q0 1.34375 0.828125 2.09375q0.8125 0.75 2.125 0.75l5.515625 0l0 1.59375l-13.3125 0l0 -1.59375z" fill-rule="nonzero"/><path fill="#000000" fill-opacity="0.0" d="m700.0066 429.00656l0 -90.01575l42.992065 0l0 90.01575z" fill-rule="evenodd"/><path fill="#000000" d="m718.782 414.27426l8.03125 -2.703125l0 -0.03125l-8.03125 -2.640625l0 -1.65625l9.640625 3.53125l0 1.6875l-9.640625 3.578125l0 -1.765625zm-0.21875 -12.4375q0 -1.96875 0.703125 -2.78125q0.6875 -0.828125 1.875 -0.828125q5.015625 0 5.5625 0q0.546875 0 0.546875 -0.5q0 -0.109375 -0.03125 -0.234375q-0.03125 -0.140625 -0.0625 -0.25l1.234375 0q0.125 0.21875 0.1875 0.5q0.078125 0.28125 0.078125 0.625q0 0.65625 -0.375 1.0q-0.375 0.34375 -1.125 0.34375q0.75 0.640625 1.125 1.5q0.375 0.84375 0.375 1.90625q0 1.484375 -0.703125 2.34375q-0.71875 0.84375 -2.015625 0.84375q-1.296875 0 -2.046875 -0.828125q-0.765625 -0.828125 -1.15625 -3.90625q-0.140625 -1.03125 -0.390625 -1.390625q-0.265625 -0.375 -0.796875 -0.375q-0.796875 0 -1.1875 0.515625q-0.40625 0.5 -0.40625 1.625q0 1.171875 0.453125 1.765625q0.4375 0.59375 1.375 0.640625l0 1.578125q-1.609375 -0.078125 -2.40625 -1.125q-0.8125 -1.0625 -0.8125 -2.96875zm7.265625 2.796875q0.671875 0 1.046875 -0.484375q0.375 -0.5 0.375 -1.390625q0 -1.34375 -0.65625 -2.140625q-0.671875 -0.796875 -1.5 -0.796875l-1.65625 0q0.28125 0.390625 0.390625 1.03125q0.09375 0.640625 0.234375 1.703125q0.15625 1.046875 0.578125 1.5625q0.421875 0.515625 1.1875 0.515625zm-10.71875 -10.551697l13.3125 0l0 1.59375l-13.3125 0l0 -1.59375zm0 -4.144806l1.9375 0l0 1.59375l-1.9375 0l0 -1.59375zm3.671875 0l9.640625 0l0 1.59375l-9.640625 0l0 -1.59375zm-3.671875 -11.082336l13.3125 0l0 1.59375l-1.296875 0l0 0.03125q0.734375 0.375 1.140625 1.1875q0.390625 0.8125 0.390625 1.890625q0 2.015625 -1.40625 3.234375q-1.40625 1.203125 -3.671875 1.203125q-2.234375 0 -3.625 -1.171875q-1.390625 -1.171875 -1.390625 -3.21875q0 -0.953125 0.390625 -1.796875q0.375 -0.859375 1.109375 -1.328125l0 -0.03125l-4.953125 0l0 -1.59375zm8.5625 7.46875q1.5625 0 2.578125 -0.8125q1.0 -0.8125 1.0 -2.1875q0 -1.390625 -1.0 -2.15625q-1.015625 -0.78125 -2.640625 -0.78125q-1.640625 0 -2.640625 0.796875q-1.015625 0.78125 -1.015625 2.265625q0 1.359375 1.0 2.125q0.984375 0.75 2.71875 0.75zm-5.109375 -13.855804q0 -1.96875 0.703125 -2.78125q0.6875 -0.828125 1.875 -0.828125q5.015625 0 5.5625 0q0.546875 0 0.546875 -0.5q0 -0.109375 -0.03125 -0.234375q-0.03125 -0.140625 -0.0625 -0.25l1.234375 0q0.125 0.21875 0.1875 0.5q0.078125 0.28125 0.078125 0.625q0 0.65625 -0.375 1.0q-0.375 0.34375 -1.125 0.34375q0.75 0.640625 1.125 1.5q0.375 0.84375 0.375 1.90625q0 1.484375 -0.703125 2.34375q-0.71875 0.84375 -2.015625 0.84375q-1.296875 0 -2.046875 -0.828125q-0.765625 -0.828125 -1.15625 -3.90625q-0.140625 -1.03125 -0.390625 -1.390625q-0.265625 -0.375 -0.796875 -0.375q-0.796875 0 -1.1875 0.515625q-0.40625 0.5 -0.40625 1.625q0 1.171875 0.453125 1.765625q0.4375 0.59375 1.375 0.640625l0 1.578125q-1.609375 -0.078125 -2.40625 -1.125q-0.8125 -1.0625 -0.8125 -2.96875zm7.265625 2.796875q0.671875 0 1.046875 -0.484375q0.375 -0.5 0.375 -1.390625q0 -1.34375 -0.65625 -2.140625q-0.671875 -0.796875 -1.5 -0.796875l-1.65625 0q0.28125 0.390625 0.390625 1.03125q0.09375 0.640625 0.234375 1.703125q0.15625 1.046875 0.578125 1.5625q0.421875 0.515625 1.1875 0.515625zm-9.9375 -11.067322l2.890625 0l0 -1.921875l1.390625 0l0 1.921875l6.046875 0q0.71875 0 0.765625 -0.484375q0.03125 -0.484375 0.03125 -1.0l0 -0.4375l1.40625 0l0 1.296875q0 1.3125 -0.453125 1.765625q-0.46875 0.4375 -1.5625 0.4375l-6.234375 0l0 1.65625l-1.390625 0l0 -1.65625l-2.890625 0l0 -1.578125zm2.671875 -7.6881104q0 -2.078125 1.5 -3.21875q1.484375 -1.15625 3.828125 -1.15625l0.1875 0l0 7.234375l0.109375 0q1.390625 0 2.234375 -0.796875q0.828125 -0.8125 0.828125 -2.21875q0 -1.046875 -0.484375 -1.671875q-0.5 -0.625 -1.40625 -0.828125l0 -1.5625q1.609375 0.328125 2.453125 1.40625q0.84375 1.078125 0.84375 2.71875q0 1.515625 -0.6875 2.578125q-0.6875 1.046875 -1.90625 1.546875q-1.234375 0.5 -2.515625 0.5q-2.140625 0 -3.5625 -1.28125q-1.421875 -1.296875 -1.421875 -3.25zm4.109375 2.859375l0 -5.546875q-1.171875 0.078125 -1.9375 0.859375q-0.78125 0.765625 -0.78125 1.9375q0 1.09375 0.734375 1.875q0.734375 0.765625 1.984375 0.875z" fill-rule="nonzero"/><path fill="#000000" fill-opacity="0.0" d="m402.5056 337.5432l124.12598 133.70078l-49.417328 45.858307l-124.12598 -133.7008z" fill-rule="evenodd"/><path fill="#000000" d="m447.24832 393.5506l-9.758179 9.055389l-1.0843506 -1.1679993l0.95062256 -0.8821411l-0.021270752 -0.022918701q-0.79345703 0.22473145 -1.644043 -0.09439087q-0.83914185 -0.32974243 -1.5726624 -1.1198425q-1.3713989 -1.4771729 -1.1697998 -3.3269043q0.21218872 -1.8382874 1.8729248 -3.3793945q1.6378174 -1.519867 3.4544678 -1.6069946q1.8166809 -0.08709717 3.20932 1.4129944q0.64849854 0.6984863 0.93621826 1.58255q0.30981445 0.8848877 0.0904541 1.7279663l0.021270752 0.022888184l3.6306763 -3.3692017l1.0843506 1.1679993zm-11.357971 0.35079956q-1.1453247 1.0628357 -1.3369751 2.3491516q-0.1802063 1.2756653 0.75531006 2.2833557q0.946167 1.0191345 2.2000732 0.8999939q1.276001 -0.11828613 2.467163 -1.2236328q1.2025757 -1.1159973 1.3934326 -2.3802185q0.21289062 -1.2633972 -0.7970276 -2.3512268q-0.92489624 -0.99624634 -2.178833 -0.8771057q-1.2318115 0.11993408 -2.5031433 1.2996826zm14.162109 2.6696472l-1.4201965 1.3179016l-1.0843811 -1.1679993l1.420227 -1.3179016l1.0843506 1.1679993zm-2.6915283 2.4976501l-7.066681 6.5577393l-1.0843506 -1.1679993l7.066681 -6.5577393l1.0843506 1.1679993zm4.022217 4.0109863q1.3182373 1.4199219 1.4169617 2.628601q0.098724365 1.2086487 -0.9590759 2.296875l-1.0737305 -1.1565552l0.022918701 -0.021240234q0.51867676 -0.5666199 0.40185547 -1.2895203q-0.10534668 -0.73358154 -0.7538452 -1.4320679q-0.64849854 -0.69851685 -1.2717285 -0.8875427q-0.60113525 -0.18823242 -1.0363464 0.2156372q-0.3779602 0.35073853 -0.30038452 0.9395447q0.09967041 0.5896301 0.6090698 1.4598389l0.7694092 1.3110352q0.72772217 1.2431641 0.74716187 2.205658q0.030059814 0.9739685 -0.7716675 1.7179565q-1.0422363 0.9671936 -2.3926086 0.70684814q-1.3397217 -0.24890137 -2.626068 -1.6344604q-1.2650757 -1.3626404 -1.4022217 -2.727539q-0.11505127 -1.3640442 1.0220947 -2.5045776l1.0843506 1.1679993q-0.6430054 0.63934326 -0.5409241 1.4612427q0.112701416 0.833313 0.9206543 1.7035828q0.7866821 0.8473816 1.454071 1.0380554q0.6788635 0.18005371 1.1942444 -0.29821777q0.48104858 -0.44641113 0.35195923 -1.1366272q-0.12908936 -0.69021606 -1.0988464 -2.26297q-0.9804077 -1.5842285 -1.0096436 -2.5802612q-0.018615723 -0.9845886 0.7716675 -1.7179565q0.92770386 -0.8609009 2.167633 -0.6046753q1.2399597 0.2562256 2.3030396 1.4013367zm7.399109 7.9698486q1.4032898 1.5115356 1.1690063 3.348999q-0.23431396 1.8374634 -1.8606873 3.3466797q-1.6492615 1.5304871 -3.4765625 1.6061707q-1.8166504 0.08709717 -3.1986694 -1.4015198q-0.61657715 -0.66415405 -0.9264221 -1.5490417q-0.30981445 -0.8848877 -0.088775635 -1.7721252l-0.031921387 -0.034332275l-3.653595 3.390442l-1.0737 -1.1565247l9.781097 -9.07666l1.0737305 1.1565247l-0.96209717 0.89279175l0.03189087 0.034362793q0.8049011 -0.23535156 1.6334229 0.08294678q0.83914185 0.32974243 1.5832825 1.1312866zm-5.8460083 1.0978088q-1.2254944 1.1372375 -1.4057007 2.4129028q-0.1687622 1.2650452 0.798645 2.3070984q0.93551636 1.0076904 2.1673584 0.88772583q1.231842 -0.11993408 2.526062 -1.3209534q1.1338806 -1.0522156 1.324707 -2.3164368q0.20230103 -1.2748413 -0.74386597 -2.2939758q-0.9567566 -1.0305786 -2.2221375 -0.9008179q-1.2653809 0.12973022 -2.4450684 1.2244568zm13.807159 2.4021606l-9.758179 9.055389l-1.0843506 -1.1679993l9.758179 -9.055389l1.0843506 1.1679993zm1.8303528 7.0468445q1.339508 1.44281 1.3769226 2.5165405q0.05947876 1.0745544 -0.8109741 1.8822937q-3.6764832 3.4117432 -4.077362 3.783722q-0.4008789 0.37200928 -0.060668945 0.73843384q0.074401855 0.08013916 0.18237305 0.1505127q0.11856079 0.08178711 0.21591187 0.14068604l-0.9048157 0.83966064q-0.24047852 -0.075286865 -0.47763062 -0.2388916q-0.24862671 -0.15298462 -0.48251343 -0.40490723q-0.4465027 -0.4809265 -0.40548706 -0.98794556q0.040985107 -0.5069885 0.5907593 -1.0171509q-0.9856262 0.040649414 -1.8452148 -0.3340454q-0.848938 -0.36328125 -1.5718384 -1.1419373q-1.0099487 -1.0878601 -1.0792542 -2.1959229q-0.047210693 -1.1072693 0.90341187 -1.9894104q0.95062256 -0.88217163 2.0638123 -0.7854309q1.1246643 0.08609009 3.5052795 2.076233q0.804718 0.6600952 1.2324829 0.75341797q0.4498291 0.09414673 0.8392639 -0.2672119q0.58410645 -0.5420532 0.5196228 -1.1856384q-0.042419434 -0.64279175 -0.8078308 -1.4672546q-0.79733276 -0.8588257 -1.5334473 -0.9857178q-0.7246704 -0.13754272 -1.4437561 0.4657898l-1.0737305 -1.1565247q1.2328491 -1.0374756 2.5292358 -0.8123169q1.3184814 0.22598267 2.615448 1.6230164zm-7.2286987 2.8924866q-0.49249268 0.45700073 -0.43780518 1.0670776q0.06530762 0.621521 0.67126465 1.2742004q0.9142456 0.98480225 1.9374695 1.122406q1.034668 0.12698364 1.6416931 -0.43634033l1.2140503 -1.1266174q-0.47192383 -0.094940186 -0.9879761 -0.49005127q-0.50457764 -0.40570068 -1.3305664 -1.0887146q-0.82681274 -0.6609192 -1.4868774 -0.7518616q-0.6600342 -0.090911865 -1.2212524 0.42990112zm11.706726 2.2524414l-3.8588867 7.4179077l0.03189087 0.034332275l7.611603 -3.375702l1.1481323 1.2367249l-10.61853 4.247589q-1.661377 0.6677551 -2.4891052 0.6258545q-0.8277588 -0.041870117 -1.5506592 -0.8205261q-0.20199585 -0.21759033 -0.37042236 -0.4449463q-0.15783691 -0.21594238 -0.26983643 -0.47436523l1.0765991 -0.9990845q0.10220337 0.22491455 0.21585083 0.43920898q0.10220337 0.22488403 0.2616577 0.39666748q0.65911865 0.70996094 1.6243591 0.32580566q0.964447 -0.36206055 1.5370483 -0.5950012l4.4277344 -9.331329l1.2225647 1.316864z" fill-rule="nonzero"/><path fill="#000000" d="m431.50934 414.3293l-4.2841187 6.959839l0.03189087 0.034362793l7.0906677 -3.936798l1.1800232 1.2710571l-4.3887634 6.801178l-0.0016479492 0.044158936l0.010620117 0.011444092l7.2395325 -3.7764893l1.1268616 1.2138062l-9.127411 4.2920837l-0.044189453 -0.0016479492l-1.1374817 -1.2252502l4.260315 -6.618042l0.023742676 -0.04333496l-0.021270752 -0.022888184l-6.941803 3.7986145l-1.1587524 -1.2481384l4.951111 -8.836487l1.1906738 1.2825317zm12.863464 8.458893l-1.4201965 1.3179321l-1.0843506 -1.1679993l1.4201965 -1.3179016l1.0843506 1.1679688zm-2.6915283 2.4976807l-7.0666504 6.5577393l-1.0843506 -1.1679993l7.0666504 -6.5577393l1.0843506 1.1679993zm5.289734 1.4492188l-2.118866 1.9662476l1.3076172 1.4084778l-1.0193481 0.94592285l-1.3075867 -1.4084778l-4.432434 4.1131897q-0.52685547 0.48892212 -0.23165894 0.87579346q0.30667114 0.3762207 0.6574707 0.7541199l0.29766846 0.32061768l-1.0307922 0.95654297l-0.88235474 -0.95040894q-0.8930054 -0.96188354 -0.8691406 -1.6022034q0.045928955 -0.63946533 0.84765625 -1.3834534l4.5698547 -4.2407227l-1.1268921 -1.2138062l1.0193481 -0.94592285l1.1268921 1.2137756l2.1188354 -1.9662476l1.0737305 1.1565552zm4.1557007 3.328003l-3.7337646 3.4648743l0.021270752 0.022888184q0.8065491 -0.2795105 1.6791992 0.04043579q0.8841553 0.30929565 1.596405 1.0765076q1.1906738 1.2825317 1.0693665 2.4608765q-0.11065674 1.1898193 -1.324707 2.3164368l-4.7072754 4.368286l-1.0843506 -1.1679993l4.8332825 -4.485199q0.59555054 -0.55267334 0.62353516 -1.3033752q0.03857422 -0.7392578 -0.58865356 -1.414856q-0.9142456 -0.9847717 -2.0315552 -0.9711304q-1.1058655 0.0030517578 -2.0679321 0.8958435l-4.0429993 3.751831l-1.0843506 -1.1679993l9.758179 -9.05542l1.0843506 1.1679993z" fill-rule="nonzero"/><path fill="#000000" d="m400.95547 413.43204q1.1906738 1.2825012 1.0693665 2.4608765q-0.11065674 1.1898193 -1.324707 2.3164368l-4.7072754 4.3682556l-1.0843506 -1.1679993l4.8332825 -4.4851685q0.59555054 -0.55267334 0.62350464 -1.3033752q0.038604736 -0.7392578 -0.58862305 -1.414856q-0.9142456 -0.98480225 -2.0315552 -0.9711304q-1.1058655 0.0030212402 -2.0679321 0.895813l-4.0429993 3.751831l-1.0843506 -1.1679993l7.0666504 -6.5577087l1.0205688 1.0992737l-1.122406 1.0415955l0.021240234 0.022888184q1.0257568 -0.22711182 1.855896 0.047027588q0.8407898 0.2855835 1.5636902 1.0642395zm6.7192383 7.2375183q1.4883118 1.6031494 1.2973633 3.464325q-0.18032837 1.8726501 -1.8181458 3.3924866q-1.6492615 1.5304871 -3.5517883 1.5480652q-1.8804626 0.0184021 -3.3262634 -1.5389099q-1.42453 -1.5344238 -1.2990112 -3.420166q0.1255188 -1.8857117 1.8091431 -3.4480896q1.6836548 -1.5623779 3.5526428 -1.5701599q1.868988 -0.0077819824 3.3360596 1.5724487zm-5.75119 1.2229614q-1.2140503 1.1266174 -1.3729858 2.425171q-0.13684082 1.299408 0.75613403 2.261261q0.88238525 0.95043945 2.178009 0.89920044q1.3177185 -0.05041504 2.5317383 -1.1770325q1.2026062 -1.1159668 1.3615417 -2.4145508q0.17041016 -1.3092041 -0.73321533 -2.2825317q-0.8717346 -0.93896484 -2.178009 -0.8991699q-1.3062439 0.039764404 -2.543213 1.1876526zm16.417694 10.266357q1.3394775 1.44281 1.3768921 2.5165405q0.059509277 1.0745544 -0.8109436 1.8823242q-3.6765137 3.4117126 -4.077362 3.7836914q-0.4008789 0.37200928 -0.060668945 0.73843384q0.074401855 0.08016968 0.18234253 0.1505127q0.11859131 0.08178711 0.21591187 0.14068604l-0.90478516 0.83966064q-0.24047852 -0.075286865 -0.47763062 -0.2388916q-0.24862671 -0.15298462 -0.48251343 -0.40490723q-0.4465027 -0.4809265 -0.40548706 -0.98794556q0.040985107 -0.5069885 0.59072876 -1.0171509q-0.9855957 0.04067993 -1.8451843 -0.3340454q-0.848938 -0.36328125 -1.5718689 -1.1419373q-1.0099182 -1.0878601 -1.0792236 -2.1959229q-0.047210693 -1.1072693 0.90341187 -1.9894104q0.95062256 -0.88217163 2.0638123 -0.7854309q1.1246338 0.086120605 3.5052795 2.076233q0.804718 0.66012573 1.2324829 0.75341797q0.4498291 0.09414673 0.8392334 -0.2672119q0.58413696 -0.5420532 0.5196533 -1.1856384q-0.042419434 -0.64276123 -0.8078308 -1.4672546q-0.79733276 -0.8588257 -1.5334473 -0.9857178q-0.7246704 -0.13754272 -1.4437561 0.4657898l-1.0737305 -1.1565247q1.2328491 -1.0374756 2.5292358 -0.8123169q1.3184814 0.22598267 2.615448 1.6230164zm-7.2286987 2.8924866q-0.49249268 0.45700073 -0.4378357 1.0670776q0.065338135 0.621521 0.67129517 1.274231q0.9142456 0.9847717 1.9374695 1.1223755q1.034668 0.12698364 1.6416931 -0.43634033l1.2140503 -1.1265869q-0.47195435 -0.0949707 -0.9879761 -0.4900818q-0.50460815 -0.40570068 -1.3305664 -1.0887146q-0.82681274 -0.6609192 -1.4868774 -0.75183105q-0.6600647 -0.090911865 -1.2212524 0.4298706zm14.099548 4.508362q1.201294 1.2939453 1.3269653 2.669464q0.14779663 1.3763123 -0.9272461 2.6296997l-1.1056213 -1.1908875q0.54901123 -0.78656006 0.4788208 -1.5740967q-0.058746338 -0.7981262 -0.69659424 -1.485199q-1.0099182 -1.0878296 -2.252411 -0.9793396q-1.2424622 0.10848999 -2.5596008 1.3307495q-1.1796875 1.0947266 -1.3794861 2.3033447q-0.17773438 1.2094116 0.7152405 2.1712952q0.78671265 0.8473816 1.6913452 0.9031677q0.9152527 0.06726074 1.8347473 -0.57284546l1.1055908 1.190918q-1.5092773 1.038208 -2.975006 0.90625q-1.4542847 -0.14260864 -2.6768188 -1.4594727q-1.4351807 -1.5458679 -1.2802429 -3.3310242q0.15496826 -1.7851257 1.8271484 -3.3368835q1.7294312 -1.6048889 3.5779724 -1.6576538q1.8600159 -0.06338501 3.2951965 1.4825134zm6.817688 7.3435974q1.201294 1.2939453 1.3269958 2.669464q0.14776611 1.3763123 -0.9272766 2.6296997l-1.1055908 -1.1908875q0.5489807 -0.78656006 0.47879028 -1.5740967q-0.05871582 -0.79815674 -0.69659424 -1.485199q-1.0099182 -1.0878296 -2.2523804 -0.9793396q-1.2424927 0.10848999 -2.5596008 1.3307495q-1.1796875 1.0947266 -1.3795166 2.3033447q-0.17773438 1.2094116 0.715271 2.1712952q0.7866821 0.8473816 1.6913147 0.9031677q0.9152527 0.06726074 1.8347473 -0.57284546l1.1056213 1.190918q-1.5093079 1.038208 -2.9750366 0.90625q-1.4542542 -0.14260864 -2.6768188 -1.4594727q-1.4351807 -1.5458984 -1.2802124 -3.3310242q0.15493774 -1.7851257 1.8271179 -3.3368835q1.7294312 -1.6048889 3.578003 -1.6576538q1.8599854 -0.06338501 3.295166 1.4825134zm6.807068 7.332123q1.4139099 1.5229797 1.0904541 3.379242q-0.3013916 1.8570557 -2.0193787 3.4513245l-0.13742065 0.12753296l-4.922119 -5.3017883l-0.08016968 0.074401855q-1.0193481 0.94592285 -1.0956421 2.1038513q-0.054229736 1.158783 0.9025574 2.1893616q0.7122803 0.7672119 1.4925537 0.89575195q0.79174805 0.11795044 1.5942383 -0.3496399l1.0630798 1.1450806q-1.4029236 0.85427856 -2.7549438 0.63809204q-1.3519897 -0.21618652 -2.4682312 -1.4185486q-1.0312195 -1.1107178 -1.2501831 -2.3570557q-0.20831299 -1.2348633 0.34484863 -2.4302979q0.56463623 -1.2060852 1.5037842 -2.0776062q1.5691223 -1.4560852 3.4830933 -1.484314q1.9246216 -0.01675415 3.253479 1.4146118zm-4.957672 0.69976807l3.7739868 4.065094q0.80581665 -0.85440063 0.83547974 -1.9477234q0.051757812 -1.0925293 -0.74554443 -1.951355q-0.74417114 -0.8015747 -1.8140259 -0.87457275q-1.0592041 -0.061553955 -2.0498962 0.7085571zm11.233185 6.059845q1.3182373 1.4199219 1.4169617 2.628601q0.098724365 1.2086487 -0.9590759 2.296875l-1.0737305 -1.1565552l0.022918701 -0.021240234q0.51867676 -0.5666199 0.40185547 -1.2895203q-0.1053772 -0.73358154 -0.7538452 -1.4320679q-0.64849854 -0.69851685 -1.2717285 -0.8875427q-0.60113525 -0.18823242 -1.036377 0.21566772q-0.3779602 0.350708 -0.300354 0.93951416q0.09967041 0.5896301 0.6090698 1.4598389l0.7694092 1.3110352q0.72772217 1.2431641 0.74716187 2.2056885q0.030059814 0.973938 -0.7716675 1.717926q-1.0422363 0.9671936 -2.3926086 0.70684814q-1.3397522 -0.24887085 -2.626068 -1.6344604q-1.2650757 -1.3626404 -1.4022217 -2.727539q-0.11505127 -1.3640442 1.0220947 -2.5045776l1.0843506 1.1679993q-0.6430054 0.63934326 -0.5409546 1.4612427q0.11273193 0.833313 0.9206848 1.7035828q0.7866821 0.8473816 1.454071 1.0380554q0.6788635 0.18005371 1.1942444 -0.29821777q0.48104858 -0.44641113 0.35195923 -1.1366272q-0.12911987 -0.69021606 -1.098877 -2.26297q-0.9803772 -1.5842285 -1.009613 -2.5802612q-0.018615723 -0.9845886 0.77163696 -1.7179565q0.9277344 -0.8609009 2.1676636 -0.6046753q1.2399597 0.2562256 2.3030396 1.4013367zm6.346649 6.836212q1.3182373 1.4199219 1.4169617 2.628601q0.098724365 1.2086792 -0.9590759 2.296875l-1.0737305 -1.1565552l0.022918701 -0.021240234q0.51867676 -0.56658936 0.40185547 -1.2895203q-0.1053772 -0.733551 -0.7538452 -1.4320679q-0.64849854 -0.69851685 -1.2717285 -0.8875427q-0.60113525 -0.18823242 -1.036377 0.21566772q-0.3779297 0.35073853 -0.300354 0.9395447q0.09967041 0.5896301 0.6090698 1.4598389l0.7694092 1.3110352q0.72772217 1.2431335 0.74716187 2.205658q0.030059814 0.973938 -0.7716675 1.7179565q-1.0422363 0.9671631 -2.3926086 0.7068176q-1.3397217 -0.24887085 -2.626068 -1.6344299q-1.2650757 -1.3626709 -1.4022217 -2.727539q-0.11505127 -1.3640747 1.0220947 -2.5045776l1.0843506 1.1679993q-0.6430054 0.63934326 -0.5409241 1.4612122q0.112701416 0.833313 0.9206543 1.7035828q0.7866821 0.8473816 1.454071 1.0380554q0.6788635 0.18005371 1.1942444 -0.29821777q0.48104858 -0.44638062 0.35195923 -1.1365967q-0.12908936 -0.6902466 -1.098877 -2.2630005q-0.9803772 -1.584198 -1.009613 -2.5802612q-0.018615723 -0.9845886 0.77163696 -1.717926q0.9277344 -0.8609009 2.1676636 -0.6046753q1.2399597 0.2562256 2.3030396 1.4013062z" fill-rule="nonzero"/><path fill="#000000" fill-opacity="0.0" d="m191.51181 251.50525l0 -42.015747l20.0 0" fill-rule="evenodd"/><path stroke="#000000" stroke-width="1.0" stroke-linejoin="round" stroke-linecap="butt" d="m191.51181 251.50525l0 -42.015747l14.0 0" fill-rule="evenodd"/><path fill="#000000" stroke="#000000" stroke-width="1.0" stroke-linecap="butt" d="m205.51181 211.14124l4.538101 -1.6517334l-4.538101 -1.6517334z" fill-rule="evenodd"/><path fill="#000000" fill-opacity="0.0" d="m121.49475 201.50262l90.01575 0l0 42.992126l-90.01575 0z" fill-rule="evenodd"/><path fill="#ff0000" d="m152.692 216.27806q2.421875 0 3.875 1.125q1.453125 1.125 1.453125 3.171875l-2.828125 0q-0.0625 -1.0 -0.6875 -1.5q-0.625 -0.515625 -1.9375 -0.515625q-0.890625 0 -1.46875 0.390625q-0.5625 0.390625 -0.5625 1.125q0 0.5 0.234375 0.75q0.25 0.234375 0.984375 0.515625q0.734375 0.265625 3.203125 0.84375q1.65625 0.40625 2.578125 1.359375q0.9375 0.953125 0.9375 2.421875q0 1.9375 -1.453125 3.109375q-1.453125 1.15625 -4.078125 1.15625q-2.515625 0 -4.109375 -1.234375q-1.578125 -1.234375 -1.578125 -3.421875l0 -0.078125l2.828125 0q0.015625 1.25 0.828125 1.859375q0.8125 0.609375 2.125 0.609375q1.1875 0 1.890625 -0.4375q0.703125 -0.4375 0.703125 -1.21875q0 -0.65625 -0.546875 -1.0625q-0.53125 -0.421875 -1.71875 -0.71875q-1.53125 -0.34375 -2.78125 -0.734375q-1.25 -0.390625 -2.0625 -1.25q-0.8125 -0.875 -0.8125 -2.234375q0 -1.796875 1.421875 -2.90625q1.4375 -1.125 3.5625 -1.125zm9.965897 0.328125l0 2.171875l-2.65625 0l0 -2.171875l2.65625 0zm0 3.671875l0 9.640625l-2.65625 0l0 -9.640625l2.65625 0zm5.9191895 -0.265625q1.0625 0 1.75 0.390625q0.6875 0.390625 1.125 1.15625l0.046875 0l0 -1.28125l2.515625 0l0 9.109375q0 1.9375 -1.234375 3.0625q-1.234375 1.125 -3.75 1.125q-1.703125 0 -2.9375 -0.828125q-1.21875 -0.8125 -1.328125 -2.265625l2.625 0q0.171875 0.6875 0.6875 1.0q0.515625 0.328125 1.28125 0.328125q1.03125 0 1.578125 -0.625q0.5625 -0.609375 0.5625 -1.703125l0 -1.34375l-0.046875 0q-0.390625 0.71875 -1.15625 1.109375q-0.75 0.390625 -1.734375 0.390625q-1.953125 0 -3.046875 -1.296875q-1.078125 -1.296875 -1.078125 -3.546875q0 -2.046875 1.140625 -3.40625q1.140625 -1.375 3.0 -1.375zm-1.484375 4.734375q0 1.359375 0.5625 2.125q0.5625 0.765625 1.578125 0.765625q1.046875 0 1.65625 -0.765625q0.609375 -0.765625 0.609375 -1.90625q0 -1.421875 -0.578125 -2.1875q-0.578125 -0.765625 -1.6875 -0.765625q-0.984375 0 -1.5625 0.75q-0.578125 0.75 -0.578125 1.984375zm14.583481 -4.734375q1.84375 0 2.671875 0.9375q0.84375 0.9375 0.84375 2.9375l0 6.03125l-2.65625 0l0 -5.53125q0 -1.125 -0.390625 -1.703125q-0.390625 -0.578125 -1.296875 -0.578125q-1.109375 0 -1.59375 0.65625q-0.46875 0.65625 -0.46875 2.015625l0 5.140625l-2.640625 0l0 -9.640625l2.515625 0l0 1.34375l0.046875 0q0.484375 -0.78125 1.25 -1.1875q0.78125 -0.421875 1.71875 -0.421875z" fill-rule="nonzero"/></g></svg>