<svg contentScriptType="text/ecmascript" viewBox="25.464477733854324 18.0 574.9165696859046 671.5611456845004" preserveAspectRatio="xMidYMin meet" xmlns="http://www.w3.org/2000/svg"><defs><marker refY="7" markerUnits="userSpaceOnUse" orient="auto" id="a" markerHeight="14" viewBox="0 0 14.0 14.0" preserveAspectRatio="xMidYMid meet" markerWidth="14" overflow="visible"><path fill="none" d="M14 0L0 7l14 7" stroke-linejoin="round" stroke-linecap="round" stroke="#000"/></marker><marker refX="14" refY="7" markerUnits="userSpaceOnUse" orient="auto" id="b" markerHeight="14" viewBox="0 0 14.0 14.0" preserveAspectRatio="xMidYMid meet" markerWidth="14" overflow="visible"><path fill="none" d="M0 0l14 7-14 7" stroke-linejoin="round" stroke-linecap="round" stroke="#000"/></marker><marker refY="7" markerUnits="userSpaceOnUse" orient="auto" id="d" markerHeight="14" viewBox="0 0 14.0 14.0" preserveAspectRatio="xMidYMid meet" markerWidth="14" overflow="visible"><path fill="none" d="M14 0L0 7l14 7" stroke-linejoin="round" stroke-linecap="round" stroke="#000"/></marker><marker refX="14" refY="7" markerUnits="userSpaceOnUse" orient="auto" id="e" markerHeight="14" viewBox="0 0 14.0 14.0" preserveAspectRatio="xMidYMid meet" markerWidth="14" overflow="visible"><path fill="none" d="M0 0l14 7-14 7" stroke-linejoin="round" stroke-linecap="round" stroke="#000"/></marker><marker refY="7" markerUnits="userSpaceOnUse" orient="auto" id="g" markerHeight="14" viewBox="0 0 14.0 14.0" preserveAspectRatio="xMidYMid meet" markerWidth="14" overflow="visible"><path fill="none" d="M14 0L0 7l14 7" stroke-linejoin="round" stroke-linecap="round" stroke="#000"/></marker><marker refX="14" refY="7" markerUnits="userSpaceOnUse" orient="auto" id="h" markerHeight="14" viewBox="0 0 14.0 14.0" preserveAspectRatio="xMidYMid meet" markerWidth="14" overflow="visible"><path fill="none" d="M0 0l14 7-14 7" stroke-linejoin="round" stroke-linecap="round" stroke="#000"/></marker><marker refY="7" markerUnits="userSpaceOnUse" orient="auto" id="j" markerHeight="14" viewBox="0 0 14.0 14.0" preserveAspectRatio="xMidYMid meet" markerWidth="14" overflow="visible"><path fill="none" d="M14 0L0 7l14 7" stroke-linejoin="round" stroke-linecap="round" stroke="#000"/></marker><marker refX="14" refY="7" markerUnits="userSpaceOnUse" orient="auto" id="k" markerHeight="14" viewBox="0 0 14.0 14.0" preserveAspectRatio="xMidYMid meet" markerWidth="14" overflow="visible"><path fill="none" d="M0 0l14 7-14 7" stroke-linejoin="round" stroke-linecap="round" stroke="#000"/></marker><marker refY="7" markerUnits="userSpaceOnUse" orient="auto" id="m" markerHeight="14" viewBox="0 0 14.0 14.0" preserveAspectRatio="xMidYMid meet" markerWidth="14" overflow="visible"><path fill="none" d="M14 0L0 7l14 7" stroke-linejoin="round" stroke-linecap="round" stroke="#000"/></marker><marker refX="14" refY="7" markerUnits="userSpaceOnUse" orient="auto" id="n" markerHeight="14" viewBox="0 0 14.0 14.0" preserveAspectRatio="xMidYMid meet" markerWidth="14" overflow="visible"><path fill="none" d="M0 0l14 7-14 7" stroke-linejoin="round" stroke-linecap="round" stroke="#000"/></marker><marker refY="7" markerUnits="userSpaceOnUse" orient="auto" id="p" markerHeight="14" viewBox="0 0 14.0 14.0" preserveAspectRatio="xMidYMid meet" markerWidth="14" overflow="visible"><path fill="none" d="M14 0L0 7l14 7" stroke-linejoin="round" stroke-linecap="round" stroke="#000"/></marker><marker refX="14" refY="7" markerUnits="userSpaceOnUse" orient="auto" id="q" markerHeight="14" viewBox="0 0 14.0 14.0" preserveAspectRatio="xMidYMid meet" markerWidth="14" overflow="visible"><path fill="none" d="M0 0l14 7-14 7" stroke-linejoin="round" stroke-linecap="round" stroke="#000"/></marker><marker refY="7" markerUnits="userSpaceOnUse" orient="auto" id="s" markerHeight="14" viewBox="0 0 14.0 14.0" preserveAspectRatio="xMidYMid meet" markerWidth="14" overflow="visible"><path fill="none" d="M14 0L0 7l14 7" stroke-linejoin="round" stroke-linecap="round" stroke="#000"/></marker><marker refX="14" refY="7" markerUnits="userSpaceOnUse" orient="auto" id="t" markerHeight="14" viewBox="0 0 14.0 14.0" preserveAspectRatio="xMidYMid meet" markerWidth="14" overflow="visible"><path fill="none" d="M0 0l14 7-14 7" stroke-linejoin="round" stroke-linecap="round" stroke="#000"/></marker><marker refY="7" markerUnits="userSpaceOnUse" orient="auto" id="v" markerHeight="14" viewBox="0 0 14.0 14.0" preserveAspectRatio="xMidYMid meet" markerWidth="14" overflow="visible"><path fill="none" d="M14 0L0 7l14 7" stroke-linejoin="round" stroke-linecap="round" stroke="#000"/></marker><marker refX="14" refY="7" markerUnits="userSpaceOnUse" orient="auto" id="w" markerHeight="14" viewBox="0 0 14.0 14.0" preserveAspectRatio="xMidYMid meet" markerWidth="14" overflow="visible"><path fill="none" d="M0 0l14 7-14 7" stroke-linejoin="round" stroke-linecap="round" stroke="#000"/></marker></defs><path fill="#fff" d="M446.464 555.772h-406V169.106h406v386.666z" stroke-width="3" stroke-linejoin="round" stroke="#000"/><path fill="#fff" d="M445.333 554H437V170h8.333v384z" stroke-linejoin="round" stroke="#000"/><path fill="#999" d="M444 270h-5v-40.175h5V270z" stroke-linejoin="round" stroke="#666"/><path fill="none" d="M489.737 33.088h-40m40 641.473h-40" stroke-linejoin="round" stroke="#000"/><path fill="none" stroke-linejoin="round" d="M0 20h641.473" stroke="#000" marker-start="url(#a)" marker-end="url(#b)" transform="rotate(90 233.324 266.412)"/><g transform="rotate(90 233.324 266.412)"><defs><clipPath id="c"><path d="M0 0h641.473v20H0z"/></clipPath></defs><text font-size="14" clip-path="url(#c)" font-family="Helvetica"><tspan x="284" y="15" textLength="73">scrollHeight</tspan></text></g><path fill="none" d="M542.886 170h-40m40 385.772h-40" stroke-linejoin="round" stroke="#000"/><path fill="none" stroke-linejoin="round" d="M0 20h385.772" stroke="#000" marker-start="url(#d)" marker-end="url(#e)" transform="rotate(90 191.443 361.443)"/><g transform="rotate(90 191.443 361.443)"><defs><clipPath id="f"><path d="M0 0h385.772v20H0z"/></clipPath></defs><text font-size="14" clip-path="url(#f)" font-family="Helvetica"><tspan x="156.5" y="15" textLength="73">clientHeight</tspan></text></g><path fill="none" d="M409.588 289.237h-40m40 129.175h-40" stroke-linejoin="round" stroke="#000"/><path fill="none" stroke-linejoin="round" d="M0 20h129.175" stroke="#000" marker-start="url(#g)" marker-end="url(#h)" transform="rotate(90 65.175 354.412)"/><g transform="rotate(90 65.175 354.412)"><defs><clipPath id="i"><path d="M0 0h129.175v20H0z"/></clipPath></defs><text font-size="14" clip-path="url(#i)" font-family="Helvetica"><tspan x="32" y="15" textLength="65">rect.height</tspan></text></g><path fill="none" d="M338.618 168.382h-54m54 120.855h-54" stroke-linejoin="round" stroke="#000"/><path fill="none" stroke-linejoin="round" d="M0 20h120.855" stroke="#000" marker-start="url(#j)" marker-end="url(#k)" transform="rotate(90 90.118 258.5)"/><g transform="rotate(90 90.118 258.5)"><defs><clipPath id="l"><path d="M0 0h120.855v20H0z"/></clipPath></defs><text font-size="14" clip-path="url(#l)" font-family="Helvetica"><tspan x="37" y="15" textLength="46.5">rect.top</tspan></text></g><path fill="none" d="M288.693 33h-40" stroke-linejoin="round" stroke="#000"/><path fill="none" stroke-linejoin="round" d="M0 0v257" stroke="#000" marker-start="url(#m)" marker-end="url(#n)" transform="translate(279 33)"/><g transform="rotate(90 84.874 214.126)"><defs><clipPath id="o"><path d="M0 0h160.749v20H0z"/></clipPath></defs><text font-size="14" clip-path="url(#o)" font-family="Helvetica"><tspan x="52" y="15" textLength="56.5">offsetTop</tspan></text></g><path fill="none" d="M338.68 418.412h-40m40 137.36h-40" stroke-linejoin="round" stroke="#000"/><path fill="none" stroke-linejoin="round" d="M0 20h137.36" stroke="#000" marker-start="url(#p)" marker-end="url(#q)" transform="rotate(90 -34.866 383.546)"/><g transform="rotate(90 -34.866 383.546)"><defs><clipPath id="r"><path d="M0 0h137.36v20H0z"/></clipPath></defs><text font-size="14" clip-path="url(#r)" font-family="Helvetica"><tspan x="33.5" y="15" textLength="70">rect.bottom</tspan></text></g><path fill="none" d="M288.464 674.561h-40" stroke-linejoin="round" stroke="#000"/><path fill="none" stroke-linejoin="round" d="M0 0v256.149" stroke="#000" marker-start="url(#s)" marker-end="url(#t)" transform="translate(279 418.412)"/><g transform="rotate(90 -59.706 358.706)"><defs><clipPath id="u"><path d="M0 0h137.36v20H0z"/></clipPath></defs><text font-size="14" clip-path="url(#u)" font-family="Helvetica"><tspan x="29.5" y="15" textLength="78">offsetBottom</tspan></text></g><path fill="none" d="M542.592 33.088h-40m40 136.912h-40" stroke-linejoin="round" stroke="#000"/><path fill="none" stroke-linejoin="round" d="M532.592 33.088V170" stroke="#000" marker-start="url(#v)" marker-end="url(#w)"/><g transform="rotate(90 276.147 309.234)"><defs><clipPath id="x"><path d="M0 0h136.912v51.85H0z"/></clipPath></defs><text font-size="14" clip-path="url(#x)" font-family="Helvetica"><tspan x="37" y="22.925" textLength="66.5">scrollTop / </tspan><tspan x="29.5" y="38.925" textLength="77.5">pageYOffset</tspan></text></g><path fill="none" d="M288.693 290h-40" stroke-linejoin="round" stroke="#000"/><path fill="none" d="M446.464 674.561h-406V33.088h406V674.56z" stroke-width="2" stroke-linejoin="round" stroke="#999"/><path fill="none" d="M288.464 418.412h-40" stroke-linejoin="round" stroke="#000"/><path fill="#286bcc" d="M369.536 418.412H228V289.237h141.536v129.175z" stroke-linejoin="round" stroke="#000"/><path fill="#286bcc" fill-opacity=".4" d="M230.713 181.051H89.177V51.875h141.536v129.176zm0 488.124H89.177V540h141.536v129.175z" stroke-linejoin="round" stroke="#000"/><path fill="#286bcc" d="M230.536 555.772H89V540h141.536v15.772z" stroke-linejoin="round" stroke="#000"/><path fill="#ccc" d="M104.421 128.926H40.684L55.98 104h33.143l15.297 24.926z" stroke-width="2" stroke-linejoin="round" stroke="#000"/><path fill="#999" d="M446.464 169.106h-406V129.75h406v39.357z" stroke-width="3" stroke-linejoin="round" stroke="#000"/><path fill="#fff" d="M434.896 161.89H98.02v-24.926h336.875v24.927z" stroke-linejoin="round" stroke="#000"/><g transform="translate(99.02 137.964)"><defs><clipPath id="y"><path d="M0 0h334.875v22.926H0z"/></clipPath></defs><text font-size="14" clip-path="url(#y)" fill="#51b11d" font-family="Helvetica"><tspan x="2" y="16.463" textLength="30">https</tspan></text><text font-size="14" clip-path="url(#y)" font-family="Helvetica"><tspan x="32" y="16.463" textLength="215">://labs.jxck.io/intersection-observer</tspan></text></g><path fill="#fff" d="M89.177 149.428l-10-9.971h-6.625v19.941h6.625l10-9.97zm-40.031 0l10 9.97h6.625v-19.941h-6.625l-10 9.97z" stroke-linejoin="round" stroke="#000"/><path fill="#286bcc" d="M230.713 181.051H89.177v-11.945h141.536v11.945z" stroke-linejoin="round" stroke="#000"/><path fill="#fff" d="M265.254 200.376v28.433H50v-28.433h117.233l19.021-20-14.675 20h93.675z" stroke-linejoin="round" stroke="#000"/><g transform="translate(52.01 200.692)"><defs><clipPath id="z"><path d="M0 0h210.829v27.734H0z"/></clipPath></defs><text font-size="12" clip-path="url(#z)" font-family="Arial,Arial"><tspan x="7" y="18.117" textLength="197">scrollTop &lt; rect.bottom &lt; clientHeight</tspan></text></g><path fill="#fff" d="M243.464 325.838V384H89.177v-58.162H218.13l27.335-12-19.842 12h17.842z" stroke-linejoin="round" stroke="#000"/><g transform="translate(90.619 326.485)"><defs><clipPath id="A"><path d="M0 0h151.115v56.73H0z"/></clipPath></defs><text font-size="12" clip-path="url(#A)" font-family="Arial,Arial"><tspan x="25" y="19.115" textLength="101">rect.top &gt; scrollTop</tspan><tspan x="67.5" y="32.615" textLength="16">&amp;&amp;</tspan><tspan x="5.5" y="46.115" textLength="139.5"> clientHeight &gt; rect.bottom</tspan></text></g><path fill="#fff" d="M259.132 494.092v27.987h-101.47l-6.53 18.013 3.265-18.013H60.403v-27.987h198.73z" stroke-linejoin="round" stroke="#000"/><g transform="translate(62.26 494.403)"><defs><clipPath id="B"><path d="M0 0h194.643v27.298H0z"/></clipPath></defs><text font-size="12" clip-path="url(#B)" font-family="Arial,Arial"><tspan x="8.5" y="17.899" textLength="177">scrollTop &lt; rect.top &lt; clientHeight</tspan></text></g></svg>