<?xml version="1.0" encoding="utf-8"?>
<svg contentScriptType="text/ecmascript" xmlns:xlink="http://www.w3.org/1999/xlink" zoomAndPan="magnify" contentStyleType="text/css" viewBox="25.464477733854324 18.0 574.9165696859046 671.5611456845004" xmlns:cacoo="http://cacoo.com/" preserveAspectRatio="xMidYMin meet" xmlns="http://www.w3.org/2000/svg" version="1.1"><defs><marker refX="0.0" refY="7.0" markerUnits="userSpaceOnUse" orient="auto" id="id3" markerHeight="14.0" viewBox="0 0 14.0 14.0" preserveAspectRatio="xMidYMid meet" markerWidth="14.0" overflow="visible"><path fill="none" d="M14.0 0 L0 7.0 L14.0 14.0" stroke-width="1.0" stroke-linejoin="round" stroke-linecap="round" stroke="#000000"/></marker><marker refX="14.0" refY="7.0" markerUnits="userSpaceOnUse" orient="auto" id="id4" markerHeight="14.0" viewBox="0 0 14.0 14.0" preserveAspectRatio="xMidYMid meet" markerWidth="14.0" overflow="visible"><path fill="none" d="M0 0 L14.0 7.0 L0 14.0" stroke-width="1.0" stroke-linejoin="round" stroke-linecap="round" stroke="#000000"/></marker><marker refX="0.0" refY="7.0" markerUnits="userSpaceOnUse" orient="auto" id="id6" markerHeight="14.0" viewBox="0 0 14.0 14.0" preserveAspectRatio="xMidYMid meet" markerWidth="14.0" overflow="visible"><path fill="none" d="M14.0 0 L0 7.0 L14.0 14.0" stroke-width="1.0" stroke-linejoin="round" stroke-linecap="round" stroke="#000000"/></marker><marker refX="14.0" refY="7.0" markerUnits="userSpaceOnUse" orient="auto" id="id7" markerHeight="14.0" viewBox="0 0 14.0 14.0" preserveAspectRatio="xMidYMid meet" markerWidth="14.0" overflow="visible"><path fill="none" d="M0 0 L14.0 7.0 L0 14.0" stroke-width="1.0" stroke-linejoin="round" stroke-linecap="round" stroke="#000000"/></marker><marker refX="0.0" refY="7.0" markerUnits="userSpaceOnUse" orient="auto" id="id9" markerHeight="14.0" viewBox="0 0 14.0 14.0" preserveAspectRatio="xMidYMid meet" markerWidth="14.0" overflow="visible"><path fill="none" d="M14.0 0 L0 7.0 L14.0 14.0" stroke-width="1.0" stroke-linejoin="round" stroke-linecap="round" stroke="#000000"/></marker><marker refX="14.0" refY="7.0" markerUnits="userSpaceOnUse" orient="auto" id="id10" markerHeight="14.0" viewBox="0 0 14.0 14.0" preserveAspectRatio="xMidYMid meet" markerWidth="14.0" overflow="visible"><path fill="none" d="M0 0 L14.0 7.0 L0 14.0" stroke-width="1.0" stroke-linejoin="round" stroke-linecap="round" stroke="#000000"/></marker><marker refX="0.0" refY="7.0" markerUnits="userSpaceOnUse" orient="auto" id="id12" markerHeight="14.0" viewBox="0 0 14.0 14.0" preserveAspectRatio="xMidYMid meet" markerWidth="14.0" overflow="visible"><path fill="none" d="M14.0 0 L0 7.0 L14.0 14.0" stroke-width="1.0" stroke-linejoin="round" stroke-linecap="round" stroke="#000000"/></marker><marker refX="14.0" refY="7.0" markerUnits="userSpaceOnUse" orient="auto" id="id13" markerHeight="14.0" viewBox="0 0 14.0 14.0" preserveAspectRatio="xMidYMid meet" markerWidth="14.0" overflow="visible"><path fill="none" d="M0 0 L14.0 7.0 L0 14.0" stroke-width="1.0" stroke-linejoin="round" stroke-linecap="round" stroke="#000000"/></marker><marker refX="0.0" refY="7.0" markerUnits="userSpaceOnUse" orient="auto" id="id15" markerHeight="14.0" viewBox="0 0 14.0 14.0" preserveAspectRatio="xMidYMid meet" markerWidth="14.0" overflow="visible"><path fill="none" d="M14.0 0 L0 7.0 L14.0 14.0" stroke-width="1.0" stroke-linejoin="round" stroke-linecap="round" stroke="#000000"/></marker><marker refX="14.0" refY="7.0" markerUnits="userSpaceOnUse" orient="auto" id="id16" markerHeight="14.0" viewBox="0 0 14.0 14.0" preserveAspectRatio="xMidYMid meet" markerWidth="14.0" overflow="visible"><path fill="none" d="M0 0 L14.0 7.0 L0 14.0" stroke-width="1.0" stroke-linejoin="round" stroke-linecap="round" stroke="#000000"/></marker><marker refX="0.0" refY="7.0" markerUnits="userSpaceOnUse" orient="auto" id="id18" markerHeight="14.0" viewBox="0 0 14.0 14.0" preserveAspectRatio="xMidYMid meet" markerWidth="14.0" overflow="visible"><path fill="none" d="M14.0 0 L0 7.0 L14.0 14.0" stroke-width="1.0" stroke-linejoin="round" stroke-linecap="round" stroke="#000000"/></marker><marker refX="14.0" refY="7.0" markerUnits="userSpaceOnUse" orient="auto" id="id19" markerHeight="14.0" viewBox="0 0 14.0 14.0" preserveAspectRatio="xMidYMid meet" markerWidth="14.0" overflow="visible"><path fill="none" d="M0 0 L14.0 7.0 L0 14.0" stroke-width="1.0" stroke-linejoin="round" stroke-linecap="round" stroke="#000000"/></marker><marker refX="0.0" refY="7.0" markerUnits="userSpaceOnUse" orient="auto" id="id21" markerHeight="14.0" viewBox="0 0 14.0 14.0" preserveAspectRatio="xMidYMid meet" markerWidth="14.0" overflow="visible"><path fill="none" d="M14.0 0 L0 7.0 L14.0 14.0" stroke-width="1.0" stroke-linejoin="round" stroke-linecap="round" stroke="#000000"/></marker><marker refX="14.0" refY="7.0" markerUnits="userSpaceOnUse" orient="auto" id="id22" markerHeight="14.0" viewBox="0 0 14.0 14.0" preserveAspectRatio="xMidYMid meet" markerWidth="14.0" overflow="visible"><path fill="none" d="M0 0 L14.0 7.0 L0 14.0" stroke-width="1.0" stroke-linejoin="round" stroke-linecap="round" stroke="#000000"/></marker><marker refX="0.0" refY="7.0" markerUnits="userSpaceOnUse" orient="auto" id="id24" markerHeight="14.0" viewBox="0 0 14.0 14.0" preserveAspectRatio="xMidYMid meet" markerWidth="14.0" overflow="visible"><path fill="none" d="M14.0 0 L0 7.0 L14.0 14.0" stroke-width="1.0" stroke-linejoin="round" stroke-linecap="round" stroke="#000000"/></marker><marker refX="14.0" refY="7.0" markerUnits="userSpaceOnUse" orient="auto" id="id25" markerHeight="14.0" viewBox="0 0 14.0 14.0" preserveAspectRatio="xMidYMid meet" markerWidth="14.0" overflow="visible"><path fill="none" d="M0 0 L14.0 7.0 L0 14.0" stroke-width="1.0" stroke-linejoin="round" stroke-linecap="round" stroke="#000000"/></marker></defs><g><g transform="translate(40.46447773385435 169.10606420127004)"><path fill="#ffffff" fill-opacity="1.0" d="M405.9999999999997 386.66569973013725 L0.0 386.66569973013725 L0.0 0.0 L405.9999999999997 0.0 L405.9999999999997 386.66569973013725z" stroke-width="3.0" stroke-linejoin="round" stroke="#000000"/><g transform="translate(1.0 1.0)"><defs><clipPath id="id0"><path d="M0 0 L404.0 0 L404.0 384.66569973013765 L0 384.66569973013765z"/></clipPath></defs><text font-size="14" clip-path="url(#id0)" text-decoration="none" fill="#000000" font-family="Helvetica" font-style="normal" font-weight="normal"/></g></g><g transform="translate(437.0 170.0)"><path fill="#ffffff" fill-opacity="1.0" d="M8.333333333333258 383.99999999999994 L0.0 383.99999999999994 L0.0 0.0 L8.333333333333258 0.0 L8.333333333333258 383.99999999999994z" stroke-width="1.0" stroke-linejoin="round" stroke="#000000"/><g transform="translate(1.0 1.0)"><defs><clipPath id="id1"><path d="M0 0 L6.3333333333332575 0 L6.3333333333332575 382.0 L0 382.0z"/></clipPath></defs><text font-size="14" clip-path="url(#id1)" text-decoration="none" fill="#000000" font-family="Helvetica" font-style="normal" font-weight="normal"/></g></g><g transform="translate(439.0 229.82452492249098)"><path fill="#999999" fill-opacity="1.0" d="M5.0 40.17547507750901 L0.0 40.17547507750901 L0.0 0.0 L5.0 0.0 L5.0 40.17547507750901z" stroke-width="1.0" stroke-linejoin="round" stroke="#666666"/><g transform="translate(1.0 1.0)"><defs><clipPath id="id2"><path d="M0 0 L3.0 0 L3.0 38.17547507750902 L0 38.17547507750902z"/></clipPath></defs><text font-size="14" clip-path="url(#id2)" text-decoration="none" fill="#000000" font-family="Helvetica" font-style="normal" font-weight="normal"/></g></g><g transform="translate(154.0 328.82452492249126) rotate(90.0 320.7366197620091 25.0)"><path fill="none" d="M0.0 10.0 L0.0 50.0" stroke-width="1.0" stroke-linejoin="round" stroke="#000000"/><path fill="none" d="M641.4732395240183 10.0 L641.4732395240183 50.0" stroke-width="1.0" stroke-linejoin="round" stroke="#000000"/><path fill="none" stroke-linejoin="round" d="M0.0 20.0 L641.4732395240183 20.0" stroke="#000000" marker-start="url(#id3)" stroke-width="1.0" marker-end="url(#id4)"/><g transform="translate(0.0 0.0)"><defs><clipPath id="id5"><path d="M0 0 L641.4732395240183 0 L641.4732395240183 20.0 L0 20.0z"/></clipPath></defs><text font-size="14" clip-path="url(#id5)" text-decoration="none" fill="#000000" font-family="Helvetica" font-style="normal" font-weight="normal"><tspan x="284.0" xml:space="preserve" y="15.0" textLength="73.0">scrollHeight</tspan></text></g></g><g transform="translate(335.0 337.88588196570385) rotate(90.0 192.8858819657038 25.0)"><path fill="none" d="M0.0 10.0 L0.0 50.0" stroke-width="1.0" stroke-linejoin="round" stroke="#000000"/><path fill="none" d="M385.7717639314076 10.0 L385.7717639314076 50.0" stroke-width="1.0" stroke-linejoin="round" stroke="#000000"/><path fill="none" stroke-linejoin="round" d="M0.0 20.0 L385.7717639314076 20.0" stroke="#000000" marker-start="url(#id6)" stroke-width="1.0" marker-end="url(#id7)"/><g transform="translate(0.0 0.0)"><defs><clipPath id="id8"><path d="M0 0 L385.7717639314076 0 L385.7717639314076 20.0 L0 20.0z"/></clipPath></defs><text font-size="14" clip-path="url(#id8)" text-decoration="none" fill="#000000" font-family="Helvetica" font-style="normal" font-weight="normal"><tspan x="156.5" xml:space="preserve" y="15.0" textLength="73.0">clientHeight</tspan></text></g></g><g transform="translate(330.0 328.82452492249126) rotate(90.0 64.58773753875437 25.0)"><path fill="none" d="M0.0 10.0 L0.0 50.0" stroke-width="1.0" stroke-linejoin="round" stroke="#000000"/><path fill="none" d="M129.17547507750874 10.0 L129.17547507750874 50.0" stroke-width="1.0" stroke-linejoin="round" stroke="#000000"/><path fill="none" stroke-linejoin="round" d="M0.0 20.0 L129.17547507750874 20.0" stroke="#000000" marker-start="url(#id9)" stroke-width="1.0" marker-end="url(#id10)"/><g transform="translate(0.0 0.0)"><defs><clipPath id="id11"><path d="M0 0 L129.17547507750874 0 L129.17547507750874 20.0 L0 20.0z"/></clipPath></defs><text font-size="14" clip-path="url(#id11)" text-decoration="none" fill="#000000" font-family="Helvetica" font-style="normal" font-weight="normal"><tspan x="32.0" xml:space="preserve" y="15.0" textLength="65.0">rect.height</tspan></text></g></g><g transform="translate(256.1908031540658 196.8091968459342) rotate(90.0 60.4275905378027 32.0)"><path fill="none" d="M0.0 10.0 L0.0 64.0" stroke-width="1.0" stroke-linejoin="round" stroke="#000000"/><path fill="none" d="M120.8551810756054 10.0 L120.8551810756054 64.0" stroke-width="1.0" stroke-linejoin="round" stroke="#000000"/><path fill="none" stroke-linejoin="round" d="M0.0 20.0 L120.8551810756054 20.0" stroke="#000000" marker-start="url(#id12)" stroke-width="1.0" marker-end="url(#id13)"/><g transform="translate(0.0 0.0)"><defs><clipPath id="id14"><path d="M0 0 L120.8551810756054 0 L120.8551810756054 20.0 L0 20.0z"/></clipPath></defs><text font-size="14" clip-path="url(#id14)" text-decoration="none" fill="#000000" font-family="Helvetica" font-style="normal" font-weight="normal"><tspan x="37.0" xml:space="preserve" y="15.0" textLength="46.5">rect.top</tspan></text></g></g><path fill="none" d="M288.69250144373376 33.0 L248.69250144373376 33.0" stroke-width="1.0" stroke-linejoin="round" stroke="#000000"/><g transform="translate(279.0 33.000000000000014)"><path fill="none" stroke-linejoin="round" d="M0.0 0.0 L2.8421709430404007E-14 256.9999989801589" stroke="#000000" marker-start="url(#id15)" stroke-width="1.0" marker-end="url(#id16)"/><g transform="translate(-70.37429122961969 166.6257077505395) rotate(90.0 80.37429122961967 10.0)"><defs><clipPath id="id17"><path d="M0 0 L160.74858245923934 0 L160.74858245923934 20.0 L0 20.0z"/></clipPath></defs><text font-size="14" clip-path="url(#id17)" text-decoration="none" fill="#000000" font-family="Helvetica" font-style="normal" font-weight="normal"><tspan x="52.0" xml:space="preserve" y="15.0" textLength="56.5">offsetTop</tspan></text></g></g><g transform="translate(255.0 462.0920131963266) rotate(90.0 68.67975073508103 25.00000000000003)"><path fill="none" d="M0.0 10.0 L0.0 50.00000000000006" stroke-width="1.0" stroke-linejoin="round" stroke="#000000"/><path fill="none" d="M137.35950147016206 10.0 L137.35950147016206 50.00000000000006" stroke-width="1.0" stroke-linejoin="round" stroke="#000000"/><path fill="none" stroke-linejoin="round" d="M0.0 20.0 L137.35950147016206 20.0" stroke="#000000" marker-start="url(#id18)" stroke-width="1.0" marker-end="url(#id19)"/><g transform="translate(0.0 0.0)"><defs><clipPath id="id20"><path d="M0 0 L137.35950147016206 0 L137.35950147016206 20.0 L0 20.0z"/></clipPath></defs><text font-size="14" clip-path="url(#id20)" text-decoration="none" fill="#000000" font-family="Helvetica" font-style="normal" font-weight="normal"><tspan x="33.5" xml:space="preserve" y="15.0" textLength="70.0">rect.bottom</tspan></text></g></g><path fill="none" d="M288.4644777338543 674.5611446845004 L248.46447773385432 674.5611446845004" stroke-width="1.0" stroke-linejoin="round" stroke="#000000"/><g transform="translate(279.0 418.41226246124563)"><path fill="none" stroke-linejoin="round" d="M0.0 0.0 L0.0 256.14888222325476" stroke="#000000" marker-start="url(#id21)" stroke-width="1.0" marker-end="url(#id22)"/><g transform="translate(-58.679750735080944 58.67975073508103) rotate(90.0 68.67975073508099 10.0)"><defs><clipPath id="id23"><path d="M0 0 L137.35950147016197 0 L137.35950147016197 20.0 L0 20.0z"/></clipPath></defs><text font-size="14" clip-path="url(#id23)" text-decoration="none" fill="#000000" font-family="Helvetica" font-style="normal" font-weight="normal"><tspan x="29.5" xml:space="preserve" y="15.0" textLength="78.0">offsetBottom</tspan></text></g></g><path fill="none" d="M542.5920610671876 33.08790516048225 L502.5920610671876 33.08790516048225" stroke-width="1.0" stroke-linejoin="round" stroke="#000000"/><path fill="none" d="M542.5920610671876 170.00000000000017 L502.5920610671876 170.00000000000017" stroke-width="1.0" stroke-linejoin="round" stroke="#000000"/><path fill="none" stroke-linejoin="round" d="M532.5920610671876 33.087905160482194 L532.5920610671876 170.00000000000017" stroke="#000000" marker-start="url(#id24)" stroke-width="1.0" marker-end="url(#id25)"/><g transform="translate(491.0 75.61895258024117) rotate(90.0 68.45604741975899 25.92500000000001)"><defs><clipPath id="id26"><path d="M0 0 L136.91209483951798 0 L136.91209483951798 51.85000000000002 L0 51.85000000000002z"/></clipPath></defs><text font-size="14" clip-path="url(#id26)" text-decoration="none" fill="#000000" font-family="Helvetica" font-style="normal" font-weight="normal"><tspan x="37.0" xml:space="preserve" y="22.92500000000001" textLength="66.5">scrollTop / </tspan><tspan x="29.5" xml:space="preserve" y="38.92500000000001" textLength="77.5">pageYOffset</tspan></text></g><path fill="none" d="M288.69250144373376 289.9999989801588 L248.69250144373376 289.9999989801588" stroke-width="1.0" stroke-linejoin="round" stroke="#000000"/><path fill="none" d="M446.46447773385415 674.5611446845 L40.46447773385444 674.5611446845 L40.46447773385444 33.08790516048222 L446.46447773385415 33.08790516048222 L446.46447773385415 674.5611446845z" stroke-width="2.0" stroke-linejoin="round" stroke="#999999"/><path fill="none" d="M288.4644777338543 418.41226246124563 L248.46447773385432 418.41226246124563" stroke-width="1.0" stroke-linejoin="round" stroke="#000000"/><g transform="translate(228.0 289.2367873837369)"><path fill="#286bcc" fill-opacity="1.0" d="M141.5355222661457 129.17547507750876 L0.0 129.17547507750876 L0.0 0.0 L141.5355222661457 0.0 L141.5355222661457 129.17547507750876z" stroke-width="1.0" stroke-linejoin="round" stroke="#000000"/><g transform="translate(1.0 1.0)"><defs><clipPath id="id27"><path d="M0 0 L139.53552226614568 0 L139.53552226614568 127.17547507750874 L0 127.17547507750874z"/></clipPath></defs><text font-size="14" clip-path="url(#id27)" text-decoration="none" fill="#000000" font-family="Helvetica" font-style="normal" font-weight="normal"/></g></g><g transform="translate(89.17747773385432 51.87548919568414)"><path fill="#286bcc" fill-opacity="0.4" d="M141.5355222661457 129.17547507750876 L0.0 129.17547507750876 L0.0 0.0 L141.5355222661457 0.0 L141.5355222661457 129.17547507750876z" stroke-width="1.0" stroke-linejoin="round" stroke="#000000"/><g transform="translate(1.0 1.0)"><defs><clipPath id="id28"><path d="M0 0 L139.53552226614568 0 L139.53552226614568 127.17547507750874 L0 127.17547507750874z"/></clipPath></defs><text font-size="14" clip-path="url(#id28)" text-decoration="none" fill="#000000" font-family="Helvetica" font-style="normal" font-weight="normal"/></g></g><g transform="translate(89.17747773385432 540.0)"><path fill="#286bcc" fill-opacity="0.4" d="M141.5355222661457 129.17547507750876 L0.0 129.17547507750876 L0.0 0.0 L141.5355222661457 0.0 L141.5355222661457 129.17547507750876z" stroke-width="1.0" stroke-linejoin="round" stroke="#000000"/><g transform="translate(1.0 1.0)"><defs><clipPath id="id29"><path d="M0 0 L139.53552226614568 0 L139.53552226614568 127.17547507750874 L0 127.17547507750874z"/></clipPath></defs><text font-size="14" clip-path="url(#id29)" text-decoration="none" fill="#000000" font-family="Helvetica" font-style="normal" font-weight="normal"/></g></g><g transform="translate(89.0 540.0)"><path fill="#286bcc" fill-opacity="1.0" d="M141.5355222661457 15.771763931407737 L0.0 15.771763931407737 L0.0 0.0 L141.5355222661457 0.0 L141.5355222661457 15.771763931407737z" stroke-width="1.0" stroke-linejoin="round" stroke="#000000"/><g transform="translate(1.0 1.0)"><defs><clipPath id="id30"><path d="M0 0 L139.53552226614568 0 L139.53552226614568 13.77176393140769 L0 13.77176393140769z"/></clipPath></defs><text font-size="14" clip-path="url(#id30)" text-decoration="none" fill="#000000" font-family="Helvetica" font-style="normal" font-weight="normal"/></g></g><g transform="translate(40.464477733854324 104.0)"><path fill="#cccccc" fill-opacity="1.0" d="M63.95674418235811 24.92645346887702 L0.21925808669632912 24.92645346887702 L15.516254749655163 0.0 L48.659747519399296 0.0 L63.95674418235811 24.92645346887702 L63.95674418235811 24.92645346887702z" stroke-width="2.0" stroke-linejoin="round" stroke="#000000"/><g transform="translate(14.046467253840927 0.19442632249706318)"><defs><clipPath id="id31"><path d="M0 0 L36.08433936673886 0 L36.08433936673886 24.493979349053006 L0 24.493979349053006z"/></clipPath></defs><text font-size="14" clip-path="url(#id31)" text-decoration="none" fill="#000000" font-family="Helvetica" font-style="normal" font-weight="normal"/></g></g><g transform="translate(40.464477733854324 129.7489494708189)"><path fill="#999999" fill-opacity="1.0" d="M405.9999999999997 39.35711473045109 L0.0 39.35711473045109 L0.0 0.0 L405.9999999999997 0.0 L405.9999999999997 39.35711473045109z" stroke-width="3.0" stroke-linejoin="round" stroke="#000000"/><g transform="translate(1.0 1.0)"><defs><clipPath id="id32"><path d="M0 0 L404.0 0 L404.0 37.357114730451144 L0 37.357114730451144z"/></clipPath></defs><text font-size="14" clip-path="url(#id32)" text-decoration="none" fill="#000000" font-family="Helvetica" font-style="normal" font-weight="normal"/></g></g><g transform="translate(98.02069035535484 136.96428010160597)"><path fill="#ffffff" fill-opacity="1.0" d="M336.875 24.92645346887702 L0.0 24.92645346887702 L0.0 0.0 L336.875 0.0 L336.875 24.92645346887702z" stroke-width="1.0" stroke-linejoin="round" stroke="#000000"/><g transform="translate(1.0 1.0)"><defs><clipPath id="id33"><path d="M0 0 L334.875 0 L334.875 22.926453468877014 L0 22.926453468877014z"/></clipPath></defs><text font-size="14" clip-path="url(#id33)" text-decoration="none" fill="#51b11d" font-family="Helvetica" font-style="normal" font-weight="normal"><tspan x="2.0" xml:space="preserve" y="16.463226734438507" textLength="30.0">https</tspan></text><text font-size="14" clip-path="url(#id33)" text-decoration="none" fill="#000000" font-family="Helvetica" font-style="normal" font-weight="normal"><tspan x="32.0" xml:space="preserve" y="16.463226734438507" textLength="215.0">://labs.jxck.io/intersection-observer</tspan></text></g></g><g transform="translate(72.55247773385432 139.45692544849368)"><path fill="#ffffff" fill-opacity="1.0" d="M16.625 9.970581387550808 L6.625 0.0 L0.0 0.0 L0.0 19.941162775101617 L6.625 19.941162775101617 L16.625 9.970581387550808z" stroke-width="1.0" stroke-linejoin="round" stroke="#000000"/><g transform="translate(1.0 1.0)"><defs><clipPath id="id34"><path d="M0 0 L5.625 0 L5.625 17.941162775101617 L0 17.941162775101617z"/></clipPath></defs><text font-size="14" clip-path="url(#id34)" text-decoration="none" fill="#000000" font-family="Helvetica" font-style="normal" font-weight="normal"/></g></g><g transform="translate(49.14622773385432 139.45692544849362) rotate(180.0 8.3125 9.970581387550808)"><path fill="#ffffff" fill-opacity="1.0" d="M16.625 9.970581387550808 L6.625 0.0 L0.0 0.0 L0.0 19.941162775101617 L6.625 19.941162775101617 L16.625 9.970581387550808z" stroke-width="1.0" stroke-linejoin="round" stroke="#000000"/><g transform="translate(1.0 1.0)"><defs><clipPath id="id35"><path d="M0 0 L5.625 0 L5.625 17.941162775101617 L0 17.941162775101617z"/></clipPath></defs><text font-size="14" clip-path="url(#id35)" text-decoration="none" fill="#000000" font-family="Helvetica" font-style="normal" font-weight="normal"/></g></g><g transform="translate(89.17747773385432 169.10606420127004)"><path fill="#286bcc" fill-opacity="1.0" d="M141.5355222661457 11.944900071922834 L0.0 11.944900071922834 L0.0 0.0 L141.5355222661457 0.0 L141.5355222661457 11.944900071922834z" stroke-width="1.0" stroke-linejoin="round" stroke="#000000"/><g transform="translate(1.0 1.0)"><defs><clipPath id="id36"><path d="M0 0 L139.53552226614568 0 L139.53552226614568 9.94490007192283 L0 9.94490007192283z"/></clipPath></defs><text font-size="14" clip-path="url(#id36)" text-decoration="none" fill="#000000" font-family="Helvetica" font-style="normal" font-weight="normal"/></g></g><g transform="translate(50.0 200.37555474911585)"><path fill="#ffffff" fill-opacity="1.0" d="M215.2542722661456 0.0 L215.2542722661456 28.43364209681833 L0.0 28.43364209681833 L0.0 0.0 L117.23251305466145 0.0 L136.25427226614553 -20.0 L121.57871033757833 0.0 L215.2542722661456 0.0 L215.2542722661456 0.0z" stroke-width="1.0" stroke-linejoin="round" stroke="#000000"/><g transform="translate(2.0104749358109952 0.316438946351463)"><defs><clipPath id="id37"><path d="M0 0 L210.82864495387673 0 L210.82864495387673 27.73380891712097 L0 27.73380891712097z"/></clipPath></defs><text font-size="12" clip-path="url(#id37)" text-decoration="none" fill="#000000" font-family="Arial,Arial" font-style="normal" font-weight="normal"><tspan x="7.0" xml:space="preserve" y="18.116904458560484" textLength="197.0">scrollTop &lt; rect.bottom &lt; clientHeight</tspan></text></g></g><g transform="translate(89.17747773385432 325.83785072503787)"><path fill="#ffffff" fill-opacity="1.0" d="M154.28699999999998 0.0 L154.28699999999998 58.162149274962125 L0.0 58.162149274962125 L0.0 0.0 L128.95104456198155 0.0 L156.28699999999998 -12.0 L136.44482200019613 0.0 L154.28699999999998 0.0 L154.28699999999998 0.0z" stroke-width="1.0" stroke-linejoin="round" stroke="#000000"/><g transform="translate(1.4410406035423275 0.6472884891578831)"><defs><clipPath id="id38"><path d="M0 0 L151.11485965667717 0 L151.11485965667717 56.73061258590448 L0 56.73061258590448z"/></clipPath></defs><text font-size="12" clip-path="url(#id38)" text-decoration="none" fill="#000000" font-family="Arial,Arial" font-style="normal" font-weight="normal"><tspan x="25.0" xml:space="preserve" y="19.11530629295224" textLength="101.0">rect.top &gt; scrollTop</tspan><tspan x="67.5" xml:space="preserve" y="32.61530629295224" textLength="16.0">&amp;&amp;</tspan><tspan x="5.5" xml:space="preserve" y="46.11530629295224" textLength="139.5"> clientHeight &gt; rect.bottom</tspan></text></g></g><g transform="translate(60.403374999999954 494.09201319632666)"><path fill="#ffffff" fill-opacity="1.0" d="M198.7287722661456 0.0 L198.7287722661456 27.986674197453357 L97.25832547423603 27.986674197453357 L90.7287722661456 46.0 L93.99381038088943 27.986674197453357 L0.0 27.986674197453357 L0.0 0.0 L198.7287722661456 0.0 L198.7287722661456 0.0z" stroke-width="1.0" stroke-linejoin="round" stroke="#000000"/><g transform="translate(1.8561267632894045 0.31146462576859935)"><defs><clipPath id="id39"><path d="M0 0 L194.64290919353127 0 L194.64290919353127 27.29784217494754 L0 27.29784217494754z"/></clipPath></defs><text font-size="12" clip-path="url(#id39)" text-decoration="none" fill="#000000" font-family="Arial,Arial" font-style="normal" font-weight="normal"><tspan x="8.5" xml:space="preserve" y="17.89892108747377" textLength="177.0">scrollTop &lt; rect.top &lt; clientHeight</tspan></text></g></g></g></svg>