<svg contentScriptType="text/ecmascript" viewBox="14.464 46.088 453 323.088" preserveAspectRatio="xMidYMin meet" xmlns="http://www.w3.org/2000/svg"><path fill="#fff" d="M452.464 233.772h-423V61.088h423v172.684z" stroke-width="3" stroke-linejoin="round" stroke="#000"/><path fill="#286bcc" fill-opacity=".4" d="M236.536 354.175H95V190h141.536v164.175z" stroke-linejoin="round" stroke="#000"/><path fill="#286bcc" d="M236.536 233.772H95V190h141.536v43.772z" stroke-linejoin="round" stroke="#000"/><path d="M440 61.088q-10 0-10 10v66.342q0 10-10 10m0 0q10 0 10 10v66.342q0 10 10 10" fill="none" stroke-linejoin="round" stroke="#000"/><g transform="translate(298 127.43)"><defs><clipPath id="a"><path d="M0 0h132v40H0z"/></clipPath></defs><text font-size="18" clip-path="url(#a)" font-family="Arial,Arial"><tspan x="20" y="26" textLength="92">rootBounds</tspan></text></g><path d="M236.536 190q10 0 10 10v62.088q0 10 10 10m0 0q-10 0-10 10v62.087q0 10-10 10" fill="none" stroke-linejoin="round" stroke="#000"/><g transform="translate(95 190)"><defs><clipPath id="b"><path d="M0 0h141.536v43.772H0z"/></clipPath></defs><text font-size="18" clip-path="url(#b)" font-family="Arial,Arial"><tspan x="6" y="27.886" textLength="129">intersectionRect</tspan></text></g><g transform="translate(256.536 252.088)"><defs><clipPath id="c"><path d="M0 0h173.464v40H0z"/></clipPath></defs><text font-size="18" clip-path="url(#c)" font-family="Arial,Arial"><tspan x="8" y="26" textLength="157">boundingClientRect</tspan></text></g><path d="M95 233.772q-10 0-10 10v40.202q0 10-10 10m0 0q10 0 10 10v40.201q0 10 10 10m0-162.807q-10 0-10 10v1.202q0 10-10 10m0 0q10 0 10 10v1.202q0 10 10 10" fill="none" stroke-linejoin="round" stroke="#000"/><g transform="translate(35 279.974)"><defs><clipPath id="d"><path d="M0 0h40v28H0z"/></clipPath></defs><text font-size="12" clip-path="url(#d)" font-family="Arial,Arial"><tspan x="8" y="18" textLength="24">80%</tspan></text></g><g transform="translate(35 198.57)"><defs><clipPath id="e"><path d="M0 0h40v28H0z"/></clipPath></defs><text font-size="12" clip-path="url(#e)" font-family="Arial,Arial"><tspan x="8" y="18" textLength="24">20%</tspan></text></g><path fill="#fff" d="M191 137v34.93h-89.179L66 199.93l29.227-28H46V137h145z" stroke-linejoin="round" stroke="#000"/><g transform="translate(47.354 137.389)"><defs><clipPath id="f"><path d="M0 0h142.019v34.07H0z"/></clipPath></defs><text font-size="18" clip-path="url(#f)" font-family="Arial,Arial"><tspan x="4" y="23.035" textLength="134">intersectionRatio</tspan></text></g></svg>