<?xml version="1.0" encoding="utf-8"?>
<svg contentScriptType="text/ecmascript" xmlns:xlink="http://www.w3.org/1999/xlink" zoomAndPan="magnify" contentStyleType="text/css" viewBox="14.464477733854352 46.08790516048225 452.9999999999998 323.0875699170265" xmlns:cacoo="http://cacoo.com/" preserveAspectRatio="xMidYMin meet" xmlns="http://www.w3.org/2000/svg" version="1.1"><g><g transform="translate(29.464477733854352 61.08790516048225)"><path fill="#ffffff" fill-opacity="1.0" d="M422.9999999999998 172.68385877092524 L0.0 172.68385877092524 L0.0 0.0 L422.9999999999998 0.0 L422.9999999999998 172.68385877092524z" stroke-width="3.0" stroke-linejoin="round" stroke="#000000"/><g transform="translate(1.0 1.0)"><defs><clipPath id="id0"><path d="M0 0 L421.0 0 L421.0 170.68385877092544 L0 170.68385877092544z"/></clipPath></defs><text font-size="14" clip-path="url(#id0)" text-decoration="none" fill="#000000" font-family="Helvetica" font-style="normal" font-weight="normal"/></g></g><g transform="translate(95.0 190.0)"><path fill="#286bcc" fill-opacity="0.4" d="M141.5355222661457 164.17547507750876 L0.0 164.17547507750876 L0.0 0.0 L141.5355222661457 0.0 L141.5355222661457 164.17547507750876z" stroke-width="1.0" stroke-linejoin="round" stroke="#000000"/><g transform="translate(1.0 1.0)"><defs><clipPath id="id1"><path d="M0 0 L139.53552226614568 0 L139.53552226614568 162.17547507750874 L0 162.17547507750874z"/></clipPath></defs><text font-size="14" clip-path="url(#id1)" text-decoration="none" fill="#000000" font-family="Helvetica" font-style="normal" font-weight="normal"/></g></g><g transform="translate(95.0 190.0)"><path fill="#286bcc" fill-opacity="1.0" d="M141.5355222661457 43.77176393140784 L0.0 43.77176393140784 L0.0 0.0 L141.5355222661457 0.0 L141.5355222661457 43.77176393140784z" stroke-width="1.0" stroke-linejoin="round" stroke="#000000"/><g transform="translate(1.0 1.0)"><defs><clipPath id="id2"><path d="M0 0 L139.53552226614568 0 L139.53552226614568 41.77176393140769 L0 41.77176393140769z"/></clipPath></defs><text font-size="14" clip-path="url(#id2)" text-decoration="none" fill="#000000" font-family="Helvetica" font-style="normal" font-weight="normal"/></g></g><g transform="translate(420.0 61.08790516048225)"><path fill="none" d="M20.0 0.0 L20.0 0.0 Q10.0 0.0 10.0 10.0 L10.0 76.34192938546272 Q10.0 86.34192938546272 0.0 86.34192938546272" stroke-width="1.0" stroke-linejoin="round" stroke="#000000"/><path fill="none" d="M0.0 86.34192938546272 Q10.0 86.34192938546272 10.0 96.34192938546272 L10.0 162.68385877092544 Q10.0 172.68385877092544 20.0 172.68385877092544 L20.0 172.68385877092544" stroke-width="1.0" stroke-linejoin="round" stroke="#000000"/></g><g transform="translate(298.0 127.42983454594497)"><defs><clipPath id="id3"><path d="M0 0 L132.0 0 L132.0 40.0 L0 40.0z"/></clipPath></defs><text font-size="18" clip-path="url(#id3)" text-decoration="none" fill="#000000" font-family="Arial,Arial" font-style="normal" font-weight="normal"><tspan x="20.0" xml:space="preserve" y="26.0" textLength="92.0">rootBounds</tspan></text></g><g transform="translate(236.53552226614568 190.0)"><path fill="none" d="M0.0 0.0 L0.0 0.0 Q10.0 0.0 10.0 10.0 L10.0 72.08773753875434 Q10.0 82.08773753875434 20.0 82.08773753875434" stroke-width="1.0" stroke-linejoin="round" stroke="#000000"/><path fill="none" d="M20.0 82.08773753875434 Q10.0 82.08773753875434 10.0 92.08773753875434 L10.0 154.17547507750868 Q10.0 164.17547507750868 0.0 164.17547507750868 L0.0 164.17547507750868" stroke-width="1.0" stroke-linejoin="round" stroke="#000000"/></g><g transform="translate(95.0 190.0)"><defs><clipPath id="id4"><path d="M0 0 L141.53552226614568 0 L141.53552226614568 43.77176393140769 L0 43.77176393140769z"/></clipPath></defs><text font-size="18" clip-path="url(#id4)" text-decoration="none" fill="#000000" font-family="Arial,Arial" font-style="normal" font-weight="normal"><tspan x="6.0" xml:space="preserve" y="27.885881965703845" textLength="129.0">intersectionRect</tspan></text></g><g transform="translate(256.5355222661457 252.08773753875437)"><defs><clipPath id="id5"><path d="M0 0 L173.46447773385432 0 L173.46447773385432 40.0 L0 40.0z"/></clipPath></defs><text font-size="18" clip-path="url(#id5)" text-decoration="none" fill="#000000" font-family="Arial,Arial" font-style="normal" font-weight="normal"><tspan x="8.0" xml:space="preserve" y="26.0" textLength="157.0">boundingClientRect</tspan></text></g><g transform="translate(75.0 233.7717639314077)"><path fill="none" d="M20.0 0.0 L20.0 0.0 Q10.0 0.0 10.0 10.0 L10.0 50.20185557305051 Q10.0 60.20185557305051 0.0 60.20185557305051" stroke-width="1.0" stroke-linejoin="round" stroke="#000000"/><path fill="none" d="M0.0 60.20185557305051 Q10.0 60.20185557305051 10.0 70.20185557305051 L10.0 110.40371114610102 Q10.0 120.40371114610102 20.0 120.40371114610102 L20.0 120.40371114610102" stroke-width="1.0" stroke-linejoin="round" stroke="#000000"/></g><g transform="translate(75.0 191.36805278530665)"><path fill="none" d="M20.0 0.0 L20.0 0.0 Q10.0 0.0 10.0 10.0 L10.0 11.201855573050516 Q10.0 21.201855573050516 0.0 21.201855573050516" stroke-width="1.0" stroke-linejoin="round" stroke="#000000"/><path fill="none" d="M0.0 21.201855573050516 Q10.0 21.201855573050516 10.0 31.201855573050516 L10.0 32.40371114610103 Q10.0 42.40371114610103 20.0 42.40371114610103 L20.0 42.40371114610103" stroke-width="1.0" stroke-linejoin="round" stroke="#000000"/></g><g transform="translate(35.0 279.9736195044582)"><defs><clipPath id="id6"><path d="M0 0 L40.0 0 L40.0 28.0 L0 28.0z"/></clipPath></defs><text font-size="12" clip-path="url(#id6)" text-decoration="none" fill="#000000" font-family="Arial,Arial" font-style="normal" font-weight="normal"><tspan x="8.0" xml:space="preserve" y="18.0" textLength="24.0">80%</tspan></text></g><g transform="translate(35.0 198.56990835835717)"><defs><clipPath id="id7"><path d="M0 0 L40.0 0 L40.0 28.0 L0 28.0z"/></clipPath></defs><text font-size="12" clip-path="url(#id7)" text-decoration="none" fill="#000000" font-family="Arial,Arial" font-style="normal" font-weight="normal"><tspan x="8.0" xml:space="preserve" y="18.0" textLength="24.0">20%</tspan></text></g><g transform="translate(46.0 137.0)"><path fill="#ffffff" fill-opacity="1.0" d="M144.99999999999991 0.0 L144.99999999999991 34.929834545944985 L55.821285548860445 34.929834545944985 L20.0 62.929834545944985 L49.22694126912414 34.929834545944985 L0.0 34.929834545944985 L0.0 0.0 L144.99999999999991 0.0 L144.99999999999991 0.0z" stroke-width="1.0" stroke-linejoin="round" stroke="#000000"/><g transform="translate(1.3543000221252426 0.38873528766779347)"><defs><clipPath id="id8"><path d="M0 0 L142.01880035400376 0 L142.01880035400376 34.07011150753313 L0 34.07011150753313z"/></clipPath></defs><text font-size="18" clip-path="url(#id8)" text-decoration="none" fill="#000000" font-family="Arial,Arial" font-style="normal" font-weight="normal"><tspan x="4.0" xml:space="preserve" y="23.035055753766564" textLength="134.0">intersectionRatio</tspan></text></g></g></g></svg>