<svg version="1.1" viewBox="0.0 0.0 1280.0 960.0" fill="none" stroke="none" stroke-linecap="square" stroke-miterlimit="10" xmlns:xlink="http://www.w3.org/1999/xlink" xmlns="http://www.w3.org/2000/svg"><clipPath id="p.0"><path d="m0 0l1280.0 0l0 960.0l-1280.0 0l0 -960.0z" clip-rule="nonzero"/></clipPath><g clip-path="url(#p.0)"><path fill="#000000" fill-opacity="0.0" d="m0 0l1280.0 0l0 960.0l-1280.0 0z" fill-rule="evenodd"/><path fill="#ffffff" d="m0 6.7769027l1118.8976 0l0 925.8583l-1118.8976 0z" fill-rule="evenodd"/><path stroke="#666666" stroke-width="2.0" stroke-linejoin="round" stroke-linecap="butt" d="m0 6.7769027l1118.8976 0l0 925.8583l-1118.8976 0z" fill-rule="evenodd"/><path fill="#000000" fill-opacity="0.0" d="m24.45407 49.399235l311.1181 0l0 171.55907l-311.1181 0z" fill-rule="evenodd"/><path stroke="#ffffff" stroke-width="1.0" stroke-linejoin="round" stroke-linecap="butt" d="m24.45407 49.399235l311.1181 0l0 171.55907l-311.1181 0z" fill-rule="evenodd"/><path fill="#ffffff" d="m518.38873 257.31528l568.9134 0l0 200.78741l-568.9134 0z" fill-rule="evenodd"/><path stroke="#4a86e8" stroke-width="4.0" stroke-linejoin="round" stroke-linecap="butt" d="m518.38873 257.31528l568.9134 0l0 200.78741l-568.9134 0z" fill-rule="evenodd"/><path fill="#000000" fill-opacity="0.0" d="m518.38873 257.24966l174.42517 0l0 49.102356l-174.42517 0z" fill-rule="evenodd"/><path fill="#434343" d="m544.3012 292.4271q-2.09375 0 -3.734375 -0.578125q-1.625 -0.578125 -2.765625 -1.6875q-1.140625 -1.09375 -1.734375 -2.6875q-0.578125 -1.609375 -0.578125 -3.65625q0 -1.96875 0.5625 -3.578125q0.578125 -1.609375 1.6875 -2.765625q1.109375 -1.171875 2.734375 -1.796875q1.640625 -0.625 3.75 -0.625q1.984375 0 3.546875 0.59375q1.578125 0.578125 2.6875 1.640625q1.109375 1.046875 1.6875 2.484375q0.578125 1.421875 0.578125 3.09375q0 1.140625 -0.203125 2.125q-0.203125 0.984375 -0.65625 1.71875q-0.453125 0.734375 -1.171875 1.15625q-0.71875 0.40625 -1.734375 0.40625q-0.59375 0 -1.125 -0.15625q-0.515625 -0.15625 -0.875 -0.5q-0.359375 -0.34375 -0.453125 -0.859375l-0.0625 0q-0.25 0.6875 -0.96875 1.109375q-0.71875 0.421875 -1.78125 0.421875q-1.25 0 -2.125 -0.578125q-0.875 -0.578125 -1.34375 -1.59375q-0.453125 -1.03125 -0.453125 -2.390625q0 -1.328125 0.5 -2.359375q0.5 -1.03125 1.390625 -1.609375q0.90625 -0.578125 2.078125 -0.578125q0.890625 0 1.53125 0.328125q0.640625 0.3125 0.90625 0.8125l0.109375 0l0 -0.921875l1.875 0l0 6.140625q0 0.4375 0.1875 0.703125q0.203125 0.25 0.625 0.25q0.578125 0 0.90625 -0.359375q0.34375 -0.375 0.484375 -1.140625q0.15625 -0.765625 0.15625 -1.9375q0 -1.34375 -0.390625 -2.421875q-0.375 -1.09375 -1.140625 -1.875q-0.765625 -0.78125 -1.921875 -1.203125q-1.140625 -0.421875 -2.671875 -0.421875q-1.609375 0 -2.84375 0.453125q-1.234375 0.4375 -2.078125 1.296875q-0.828125 0.859375 -1.265625 2.09375q-0.421875 1.234375 -0.421875 2.796875q0 1.578125 0.4375 2.8125q0.4375 1.21875 1.28125 2.046875q0.859375 0.84375 2.109375 1.265625q1.25 0.421875 2.90625 0.421875q0.734375 0 1.421875 -0.109375q0.6875 -0.109375 1.25 -0.28125q0.5625 -0.15625 0.9375 -0.296875l0.71875 1.890625q-0.4375 0.21875 -1.15625 0.421875q-0.703125 0.21875 -1.578125 0.34375q-0.859375 0.140625 -1.8125 0.140625zm-0.359375 -6.078125q0.75 0 1.234375 -0.296875q0.5 -0.3125 0.734375 -0.90625q0.25 -0.59375 0.25 -1.453125q0 -0.875 -0.25 -1.40625q-0.25 -0.546875 -0.75 -0.78125q-0.484375 -0.25 -1.1875 -0.25q-0.703125 0 -1.1875 0.3125q-0.484375 0.296875 -0.75 0.84375q-0.25 0.546875 -0.25 1.265625q0 0.765625 0.234375 1.375q0.234375 0.59375 0.703125 0.953125q0.484375 0.34375 1.21875 0.34375zm15.410034 2.375q-1.5625 0 -2.6875 -0.640625q-1.125 -0.640625 -1.734375 -1.8125q-0.609375 -1.171875 -0.609375 -2.78125q0 -1.578125 0.59375 -2.765625q0.609375 -1.1875 1.703125 -1.84375q1.109375 -0.671875 2.59375 -0.671875q1.0 0 1.859375 0.328125q0.875 0.3125 1.53125 0.953125q0.65625 0.640625 1.015625 1.609375q0.375 0.96875 0.375 2.28125l0 0.765625l-8.546875 0l0 -1.71875l7.21875 0l-1.28125 0.453125q0 -0.796875 -0.25 -1.375q-0.234375 -0.59375 -0.71875 -0.90625q-0.46875 -0.328125 -1.171875 -0.328125q-0.703125 0 -1.203125 0.328125q-0.5 0.328125 -0.765625 0.890625q-0.25 0.546875 -0.25 1.28125l0 1.203125q0 0.890625 0.296875 1.5q0.296875 0.59375 0.828125 0.890625q0.53125 0.296875 1.25 0.296875q0.484375 0 0.875 -0.125q0.390625 -0.140625 0.671875 -0.40625q0.28125 -0.28125 0.421875 -0.671875l2.46875 0.46875q-0.234375 0.828125 -0.84375 1.46875q-0.609375 0.640625 -1.53125 0.984375q-0.921875 0.34375 -2.109375 0.34375zm5.349243 -0.203125l3.953125 -6.296875l-0.015625 2.140625l-3.734375 -6.03125l2.953125 0l0.921875 1.609375q0.4375 0.796875 0.78125 1.5625q0.359375 0.765625 0.71875 1.5l-1.03125 0q0.375 -0.71875 0.71875 -1.484375q0.34375 -0.78125 0.796875 -1.578125l0.953125 -1.609375l2.90625 0l-3.8125 6.046875l0 -2.09375l3.953125 6.234375l-2.9375 0l-1.125 -1.90625q-0.4375 -0.796875 -0.8125 -1.5625q-0.359375 -0.78125 -0.71875 -1.484375l1.046875 0q-0.359375 0.703125 -0.703125 1.484375q-0.34375 0.765625 -0.78125 1.5625l-1.125 1.90625l-2.90625 0zm14.42627 0.203125q-0.96875 0 -1.75 -0.34375q-0.765625 -0.34375 -1.203125 -1.015625q-0.4375 -0.6875 -0.4375 -1.6875q0 -0.859375 0.3125 -1.421875q0.3125 -0.578125 0.84375 -0.921875q0.546875 -0.34375 1.234375 -0.53125q0.6875 -0.1875 1.453125 -0.25q0.875 -0.09375 1.421875 -0.171875q0.546875 -0.078125 0.796875 -0.25q0.25 -0.171875 0.25 -0.5l0 -0.046875q0 -0.4375 -0.1875 -0.734375q-0.1875 -0.296875 -0.546875 -0.453125q-0.359375 -0.171875 -0.859375 -0.171875q-0.53125 0 -0.921875 0.171875q-0.390625 0.15625 -0.640625 0.421875q-0.25 0.265625 -0.359375 0.59375l-2.515625 -0.421875q0.265625 -0.890625 0.875 -1.5q0.609375 -0.625 1.515625 -0.953125q0.90625 -0.328125 2.046875 -0.328125q0.828125 0 1.59375 0.203125q0.78125 0.1875 1.390625 0.609375q0.625 0.40625 0.984375 1.0625q0.359375 0.65625 0.359375 1.578125l0 6.859375l-2.59375 0l0 -1.40625l-0.09375 0q-0.25 0.46875 -0.65625 0.828125q-0.40625 0.359375 -0.984375 0.578125q-0.578125 0.203125 -1.328125 0.203125zm0.765625 -1.921875q0.640625 0 1.125 -0.25q0.5 -0.265625 0.765625 -0.703125q0.28125 -0.4375 0.28125 -0.96875l0 -1.109375q-0.125 0.09375 -0.375 0.171875q-0.234375 0.0625 -0.546875 0.125q-0.296875 0.046875 -0.59375 0.09375q-0.28125 0.046875 -0.515625 0.078125q-0.5 0.078125 -0.890625 0.25q-0.375 0.15625 -0.578125 0.421875q-0.203125 0.265625 -0.203125 0.6875q0 0.390625 0.1875 0.65625q0.203125 0.265625 0.546875 0.40625q0.359375 0.140625 0.796875 0.140625zm7.2218018 1.71875l0 -10.1875l2.53125 0l0.125 2.53125l-0.1875 0q0.234375 -0.9375 0.6875 -1.53125q0.46875 -0.59375 1.078125 -0.875q0.625 -0.28125 1.3125 -0.28125q1.09375 0 1.765625 0.703125q0.6875 0.6875 1.0 2.15625l-0.3125 0q0.21875 -0.984375 0.734375 -1.609375q0.515625 -0.640625 1.21875 -0.9375q0.703125 -0.3125 1.484375 -0.3125q0.9375 0 1.671875 0.421875q0.734375 0.40625 1.15625 1.171875q0.421875 0.765625 0.421875 1.875l0 6.875l-2.734375 0l0 -6.34375q0 -0.875 -0.46875 -1.28125q-0.46875 -0.421875 -1.15625 -0.421875q-0.5 0 -0.890625 0.21875q-0.375 0.21875 -0.578125 0.625q-0.203125 0.390625 -0.203125 0.9375l0 6.265625l-2.640625 0l0 -6.421875q0 -0.75 -0.453125 -1.1875q-0.4375 -0.4375 -1.125 -0.4375q-0.484375 0 -0.875 0.21875q-0.390625 0.21875 -0.609375 0.640625q-0.21875 0.421875 -0.21875 1.03125l0 6.15625l-2.734375 0zm17.025635 3.8125l0 -14.0l2.6875 0l0 1.71875l0.125 0q0.1875 -0.40625 0.53125 -0.828125q0.359375 -0.4375 0.921875 -0.71875q0.578125 -0.296875 1.453125 -0.296875q1.125 0 2.0625 0.59375q0.9375 0.578125 1.5 1.75q0.5625 1.15625 0.5625 2.890625q0 1.703125 -0.546875 2.875q-0.546875 1.171875 -1.484375 1.78125q-0.9375 0.59375 -2.109375 0.59375q-0.828125 0 -1.40625 -0.28125q-0.578125 -0.28125 -0.9375 -0.6875q-0.359375 -0.421875 -0.546875 -0.828125l-0.078125 0l0 5.4375l-2.734375 0zm4.859375 -5.828125q0.703125 0 1.1875 -0.390625q0.5 -0.40625 0.75 -1.09375q0.25 -0.6875 0.25 -1.578125q0 -0.890625 -0.25 -1.578125q-0.25 -0.6875 -0.734375 -1.078125q-0.484375 -0.390625 -1.203125 -0.390625q-0.703125 0 -1.203125 0.375q-0.484375 0.375 -0.75 1.0625q-0.25 0.671875 -0.25 1.609375q0 0.921875 0.265625 1.609375q0.265625 0.6875 0.75 1.078125q0.5 0.375 1.1875 0.375zm9.635376 -11.5625l0 13.578125l-2.734375 0l0 -13.578125l2.734375 0zm6.915161 13.78125q-1.5625 0 -2.6875 -0.640625q-1.125 -0.640625 -1.734375 -1.8125q-0.609375 -1.171875 -0.609375 -2.78125q0 -1.578125 0.59375 -2.765625q0.609375 -1.1875 1.703125 -1.84375q1.109375 -0.671875 2.59375 -0.671875q1.0 0 1.859375 0.328125q0.875 0.3125 1.53125 0.953125q0.65625 0.640625 1.015625 1.609375q0.375 0.96875 0.375 2.28125l0 0.765625l-8.546875 0l0 -1.71875l7.21875 0l-1.28125 0.453125q0 -0.796875 -0.25 -1.375q-0.234375 -0.59375 -0.71875 -0.90625q-0.46875 -0.328125 -1.171875 -0.328125q-0.703125 0 -1.203125 0.328125q-0.5 0.328125 -0.765625 0.890625q-0.25 0.546875 -0.25 1.28125l0 1.203125q0 0.890625 0.296875 1.5q0.296875 0.59375 0.828125 0.890625q0.53125 0.296875 1.25 0.296875q0.484375 0 0.875 -0.125q0.390625 -0.140625 0.671875 -0.40625q0.28125 -0.28125 0.421875 -0.671875l2.46875 0.46875q-0.234375 0.828125 -0.84375 1.46875q-0.609375 0.640625 -1.53125 0.984375q-0.921875 0.34375 -2.109375 0.34375zm8.457336 -0.03125q-0.65625 0 -1.109375 -0.453125q-0.453125 -0.453125 -0.453125 -1.109375q0 -0.671875 0.453125 -1.109375q0.453125 -0.453125 1.109375 -0.453125q0.671875 0 1.125 0.453125q0.453125 0.4375 0.453125 1.109375q0 0.65625 -0.453125 1.109375q-0.453125 0.453125 -1.125 0.453125zm8.840271 0.03125q-1.53125 0 -2.65625 -0.65625q-1.109375 -0.671875 -1.71875 -1.84375q-0.609375 -1.1875 -0.609375 -2.75q0 -1.578125 0.609375 -2.75q0.609375 -1.1875 1.71875 -1.84375q1.125 -0.671875 2.65625 -0.671875q0.90625 0 1.671875 0.234375q0.765625 0.234375 1.359375 0.671875q0.59368896 0.4375 0.96868896 1.078125q0.390625 0.625 0.53125 1.40625l-2.546814 0.46875q-0.078125 -0.390625 -0.25 -0.703125q-0.171875 -0.328125 -0.421875 -0.546875q-0.25 -0.21875 -0.578125 -0.328125q-0.3125 -0.125 -0.703125 -0.125q-0.734375 0 -1.234375 0.390625q-0.484375 0.390625 -0.734375 1.09375q-0.25 0.703125 -0.25 1.609375q0 0.90625 0.25 1.609375q0.25 0.703125 0.734375 1.109375q0.5 0.390625 1.234375 0.390625q0.390625 0 0.71875 -0.125q0.328125 -0.125 0.578125 -0.34375q0.265625 -0.234375 0.4375 -0.5625q0.171875 -0.328125 0.234375 -0.734375l2.546814 0.453125q-0.140625 0.8125 -0.53125 1.453125q-0.375 0.625 -0.96868896 1.09375q-0.59375 0.453125 -1.375 0.6875q-0.765625 0.234375 -1.671875 0.234375zm10.976929 0q-1.53125 0 -2.65625 -0.65625q-1.109375 -0.671875 -1.71875 -1.84375q-0.609375 -1.1875 -0.609375 -2.75q0 -1.578125 0.609375 -2.75q0.609375 -1.1875 1.71875 -1.84375q1.125 -0.671875 2.65625 -0.671875q1.546875 0 2.65625 0.671875q1.109375 0.65625 1.71875 1.84375q0.609375 1.171875 0.609375 2.75q0 1.5625 -0.609375 2.75q-0.609375 1.171875 -1.71875 1.84375q-1.109375 0.65625 -2.65625 0.65625zm0 -2.15625q0.734375 0 1.21875 -0.40625q0.5 -0.40625 0.734375 -1.109375q0.25 -0.703125 0.25 -1.59375q0 -0.890625 -0.25 -1.59375q-0.234375 -0.703125 -0.734375 -1.09375q-0.484375 -0.40625 -1.21875 -0.40625q-0.734375 0 -1.21875 0.40625q-0.484375 0.390625 -0.734375 1.09375q-0.234375 0.703125 -0.234375 1.59375q0 0.890625 0.234375 1.59375q0.25 0.703125 0.734375 1.109375q0.484375 0.40625 1.21875 0.40625zm6.8946533 1.953125l0 -10.1875l2.53125 0l0.125 2.53125l-0.1875 0q0.234375 -0.9375 0.6875 -1.53125q0.46875 -0.59375 1.078125 -0.875q0.625 -0.28125 1.3125 -0.28125q1.09375 0 1.765625 0.703125q0.6875 0.6875 1.0 2.15625l-0.3125 0q0.21875 -0.984375 0.734375 -1.609375q0.515625 -0.640625 1.21875 -0.9375q0.703125 -0.3125 1.484375 -0.3125q0.9375 0 1.671875 0.421875q0.734375 0.40625 1.15625 1.171875q0.421875 0.765625 0.421875 1.875l0 6.875l-2.734375 0l0 -6.34375q0 -0.875 -0.46875 -1.28125q-0.46875 -0.421875 -1.15625 -0.421875q-0.5 0 -0.890625 0.21875q-0.375 0.21875 -0.578125 0.625q-0.203125 0.390625 -0.203125 0.9375l0 6.265625l-2.640625 0l0 -6.421875q0 -0.75 -0.453125 -1.1875q-0.4375 -0.4375 -1.125 -0.4375q-0.484375 0 -0.875 0.21875q-0.390625 0.21875 -0.609375 0.640625q-0.21875 0.421875 -0.21875 1.03125l0 6.15625l-2.734375 0z" fill-rule="nonzero"/><path fill="#000000" fill-opacity="0.0" d="m526.7428 910.56696l349.63776 0l0 69.88971l-349.63776 0z" fill-rule="evenodd"/><path fill="#000000" fill-opacity="0.0" d="m526.7428 1145.6641l495.6535 0l0 69.88977l-495.6535 0z" fill-rule="evenodd"/><path fill="#ffffff" d="m518.38873 700.1893l568.9134 0l0 200.78741l-568.9134 0z" fill-rule="evenodd"/><path stroke="#ffd966" stroke-width="4.0" stroke-linejoin="round" stroke-linecap="butt" d="m518.38873 700.1893l568.9134 0l0 200.78741l-568.9134 0z" fill-rule="evenodd"/><path fill="#000000" fill-opacity="0.0" d="m518.38873 700.12366l173.10236 0l0 49.102356l-173.10236 0z" fill-rule="evenodd"/><path fill="#434343" d="m548.5817 735.3011q-2.09375 0 -3.734375 -0.578125q-1.625 -0.578125 -2.765625 -1.6875q-1.140625 -1.09375 -1.734375 -2.6875q-0.578125 -1.609375 -0.578125 -3.65625q0 -1.96875 0.5625 -3.578125q0.578125 -1.609375 1.6875 -2.765625q1.109375 -1.171875 2.734375 -1.796875q1.640625 -0.625 3.75 -0.625q1.984375 0 3.546875 0.59375q1.578125 0.578125 2.6875 1.640625q1.109375 1.046875 1.6875 2.484375q0.578125 1.421875 0.578125 3.09375q0 1.140625 -0.203125 2.125q-0.203125 0.984375 -0.65625 1.71875q-0.453125 0.734375 -1.171875 1.15625q-0.71875 0.40625 -1.734375 0.40625q-0.59375 0 -1.125 -0.15625q-0.515625 -0.15625 -0.875 -0.5q-0.359375 -0.34375 -0.453125 -0.859375l-0.0625 0q-0.25 0.6875 -0.96875 1.109375q-0.71875 0.421875 -1.78125 0.421875q-1.25 0 -2.125 -0.578125q-0.875 -0.578125 -1.34375 -1.59375q-0.453125 -1.03125 -0.453125 -2.390625q0 -1.328125 0.5 -2.359375q0.5 -1.03125 1.390625 -1.609375q0.90625 -0.578125 2.078125 -0.578125q0.890625 0 1.53125 0.328125q0.640625 0.3125 0.90625 0.8125l0.109375 0l0 -0.921875l1.875 0l0 6.140625q0 0.4375 0.1875 0.703125q0.203125 0.25 0.625 0.25q0.578125 0 0.90625 -0.359375q0.34375 -0.375 0.484375 -1.140625q0.15625 -0.765625 0.15625 -1.9375q0 -1.34375 -0.390625 -2.421875q-0.375 -1.09375 -1.140625 -1.875q-0.765625 -0.78125 -1.921875 -1.203125q-1.140625 -0.421875 -2.671875 -0.421875q-1.609375 0 -2.84375 0.453125q-1.234375 0.4375 -2.078125 1.296875q-0.828125 0.859375 -1.265625 2.09375q-0.421875 1.234375 -0.421875 2.796875q0 1.578125 0.4375 2.8125q0.4375 1.21875 1.28125 2.046875q0.859375 0.84375 2.109375 1.265625q1.25 0.421875 2.90625 0.421875q0.734375 0 1.421875 -0.109375q0.6875 -0.109375 1.25 -0.28125q0.5625 -0.15625 0.9375 -0.296875l0.71875 1.890625q-0.4375 0.21875 -1.15625 0.421875q-0.703125 0.21875 -1.578125 0.34375q-0.859375 0.140625 -1.8125 0.140625zm-0.359375 -6.078125q0.75 0 1.234375 -0.296875q0.5 -0.3125 0.734375 -0.90625q0.25 -0.59375 0.25 -1.453125q0 -0.875 -0.25 -1.40625q-0.25 -0.546875 -0.75 -0.78125q-0.484375 -0.25 -1.1875 -0.25q-0.703125 0 -1.1875 0.3125q-0.484375 0.296875 -0.75 0.84375q-0.25 0.546875 -0.25 1.265625q0 0.765625 0.234375 1.375q0.234375 0.59375 0.703125 0.953125q0.484375 0.34375 1.21875 0.34375zm15.409973 2.375q-1.5625 0 -2.6875 -0.640625q-1.125 -0.640625 -1.734375 -1.8125q-0.609375 -1.171875 -0.609375 -2.78125q0 -1.578125 0.59375 -2.765625q0.609375 -1.1875 1.703125 -1.84375q1.109375 -0.671875 2.59375 -0.671875q1.0 0 1.859375 0.328125q0.875 0.3125 1.53125 0.953125q0.65625 0.640625 1.015625 1.609375q0.375 0.96875 0.375 2.28125l0 0.765625l-8.546875 0l0 -1.71875l7.21875 0l-1.28125 0.453125q0 -0.796875 -0.25 -1.375q-0.234375 -0.59375 -0.71875 -0.90625q-0.46875 -0.328125 -1.171875 -0.328125q-0.703125 0 -1.203125 0.328125q-0.5 0.328125 -0.765625 0.890625q-0.25 0.546875 -0.25 1.28125l0 1.203125q0 0.890625 0.296875 1.5q0.296875 0.59375 0.828125 0.890625q0.53125 0.296875 1.25 0.296875q0.484375 0 0.875 -0.125q0.390625 -0.140625 0.671875 -0.40625q0.28125 -0.28125 0.421875 -0.671875l2.46875 0.46875q-0.234375 0.828125 -0.84375 1.46875q-0.609375 0.640625 -1.53125 0.984375q-0.921875 0.34375 -2.109375 0.34375zm5.349243 -0.203125l3.953125 -6.296875l-0.015625 2.140625l-3.734375 -6.03125l2.953125 0l0.921875 1.609375q0.4375 0.796875 0.78125 1.5625q0.359375 0.765625 0.71875 1.5l-1.03125 0q0.375 -0.71875 0.71875 -1.484375q0.34375 -0.78125 0.796875 -1.578125l0.953125 -1.609375l2.90625 0l-3.8125 6.046875l0 -2.09375l3.953125 6.234375l-2.9375 0l-1.125 -1.90625q-0.4375 -0.796875 -0.8125 -1.5625q-0.359375 -0.78125 -0.71875 -1.484375l1.046875 0q-0.359375 0.703125 -0.703125 1.484375q-0.34375 0.765625 -0.78125 1.5625l-1.125 1.90625l-2.90625 0zm14.42627 0.203125q-0.96875 0 -1.75 -0.34375q-0.765625 -0.34375 -1.203125 -1.015625q-0.4375 -0.6875 -0.4375 -1.6875q0 -0.859375 0.3125 -1.421875q0.3125 -0.578125 0.84375 -0.921875q0.546875 -0.34375 1.234375 -0.53125q0.6875 -0.1875 1.453125 -0.25q0.875 -0.09375 1.421875 -0.171875q0.546875 -0.078125 0.796875 -0.25q0.25 -0.171875 0.25 -0.5l0 -0.046875q0 -0.4375 -0.1875 -0.734375q-0.1875 -0.296875 -0.546875 -0.453125q-0.359375 -0.171875 -0.859375 -0.171875q-0.53125 0 -0.921875 0.171875q-0.390625 0.15625 -0.640625 0.421875q-0.25 0.265625 -0.359375 0.59375l-2.515625 -0.421875q0.265625 -0.890625 0.875 -1.5q0.609375 -0.625 1.515625 -0.953125q0.90625 -0.328125 2.046875 -0.328125q0.828125 0 1.59375 0.203125q0.78125 0.1875 1.390625 0.609375q0.625 0.40625 0.984375 1.0625q0.359375 0.65625 0.359375 1.578125l0 6.859375l-2.59375 0l0 -1.40625l-0.09375 0q-0.25 0.46875 -0.65625 0.828125q-0.40625 0.359375 -0.984375 0.578125q-0.578125 0.203125 -1.328125 0.203125zm0.765625 -1.921875q0.640625 0 1.125 -0.25q0.5 -0.265625 0.765625 -0.703125q0.28125 -0.4375 0.28125 -0.96875l0 -1.109375q-0.125 0.09375 -0.375 0.171875q-0.234375 0.0625 -0.546875 0.125q-0.296875 0.046875 -0.59375 0.09375q-0.28125 0.046875 -0.515625 0.078125q-0.5 0.078125 -0.890625 0.25q-0.375 0.15625 -0.578125 0.421875q-0.203125 0.265625 -0.203125 0.6875q0 0.390625 0.1875 0.65625q0.203125 0.265625 0.546875 0.40625q0.359375 0.140625 0.796875 0.140625zm7.2218018 1.71875l0 -10.1875l2.53125 0l0.125 2.53125l-0.1875 0q0.234375 -0.9375 0.6875 -1.53125q0.46875 -0.59375 1.078125 -0.875q0.625 -0.28125 1.3125 -0.28125q1.09375 0 1.765625 0.703125q0.6875 0.6875 1.0 2.15625l-0.3125 0q0.21875 -0.984375 0.734375 -1.609375q0.515625 -0.640625 1.21875 -0.9375q0.703125 -0.3125 1.484375 -0.3125q0.9375 0 1.671875 0.421875q0.734375 0.40625 1.15625 1.171875q0.421875 0.765625 0.421875 1.875l0 6.875l-2.734375 0l0 -6.34375q0 -0.875 -0.46875 -1.28125q-0.46875 -0.421875 -1.15625 -0.421875q-0.5 0 -0.890625 0.21875q-0.375 0.21875 -0.578125 0.625q-0.203125 0.390625 -0.203125 0.9375l0 6.265625l-2.640625 0l0 -6.421875q0 -0.75 -0.453125 -1.1875q-0.4375 -0.4375 -1.125 -0.4375q-0.484375 0 -0.875 0.21875q-0.390625 0.21875 -0.609375 0.640625q-0.21875 0.421875 -0.21875 1.03125l0 6.15625l-2.734375 0zm17.025635 3.8125l0 -14.0l2.6875 0l0 1.71875l0.125 0q0.1875 -0.40625 0.53125 -0.828125q0.359375 -0.4375 0.921875 -0.71875q0.578125 -0.296875 1.453125 -0.296875q1.125 0 2.0625 0.59375q0.9375 0.578125 1.5 1.75q0.5625 1.15625 0.5625 2.890625q0 1.703125 -0.546875 2.875q-0.546875 1.171875 -1.484375 1.78125q-0.9375 0.59375 -2.109375 0.59375q-0.828125 0 -1.40625 -0.28125q-0.578125 -0.28125 -0.9375 -0.6875q-0.359375 -0.421875 -0.546875 -0.828125l-0.078125 0l0 5.4375l-2.734375 0zm4.859375 -5.828125q0.703125 0 1.1875 -0.390625q0.5 -0.40625 0.75 -1.09375q0.25 -0.6875 0.25 -1.578125q0 -0.890625 -0.25 -1.578125q-0.25 -0.6875 -0.734375 -1.078125q-0.484375 -0.390625 -1.203125 -0.390625q-0.703125 0 -1.203125 0.375q-0.484375 0.375 -0.75 1.0625q-0.25 0.671875 -0.25 1.609375q0 0.921875 0.265625 1.609375q0.265625 0.6875 0.75 1.078125q0.5 0.375 1.1875 0.375zm9.635376 -11.5625l0 13.578125l-2.734375 0l0 -13.578125l2.734375 0zm6.915161 13.78125q-1.5625 0 -2.6875 -0.640625q-1.125 -0.640625 -1.734375 -1.8125q-0.609375 -1.171875 -0.609375 -2.78125q0 -1.578125 0.59375 -2.765625q0.609375 -1.1875 1.703125 -1.84375q1.109375 -0.671875 2.59375 -0.671875q1.0 0 1.859375 0.328125q0.875 0.3125 1.53125 0.953125q0.65625 0.640625 1.015625 1.609375q0.375 0.96875 0.375 2.28125l0 0.765625l-8.546875 0l0 -1.71875l7.21875 0l-1.28125 0.453125q0 -0.796875 -0.25 -1.375q-0.234375 -0.59375 -0.71875 -0.90625q-0.46875 -0.328125 -1.171875 -0.328125q-0.703125 0 -1.203125 0.328125q-0.5 0.328125 -0.765625 0.890625q-0.25 0.546875 -0.25 1.28125l0 1.203125q0 0.890625 0.296875 1.5q0.296875 0.59375 0.828125 0.890625q0.53125 0.296875 1.25 0.296875q0.484375 0 0.875 -0.125q0.390625 -0.140625 0.671875 -0.40625q0.28125 -0.28125 0.421875 -0.671875l2.46875 0.46875q-0.234375 0.828125 -0.84375 1.46875q-0.609375 0.640625 -1.53125 0.984375q-0.921875 0.34375 -2.109375 0.34375zm8.457336 -0.03125q-0.65625 0 -1.109375 -0.453125q-0.453125 -0.453125 -0.453125 -1.109375q0 -0.671875 0.453125 -1.109375q0.453125 -0.453125 1.109375 -0.453125q0.671875 0 1.125 0.453125q0.453125 0.4375 0.453125 1.109375q0 0.65625 -0.453125 1.109375q-0.453125 0.453125 -1.125 0.453125zm7.027771 -6.0625l0 5.890625l-2.734375 0l0 -10.1875l2.578125 0l0.046875 2.546875l-0.171875 0q0.40625 -1.28125 1.21875 -1.96875q0.8125 -0.703125 2.109375 -0.703125q1.046875 0 1.828125 0.46875q0.796875 0.453125 1.234375 1.3125q0.4375 0.859375 0.4375 2.046875l0 6.484375l-2.734375 0l0 -6.0q0 -0.953125 -0.5 -1.484375q-0.484375 -0.546875 -1.34375 -0.546875q-0.578125 0 -1.03125 0.25q-0.4375 0.25 -0.6875 0.734375q-0.25 0.46875 -0.25 1.15625zm13.473999 6.09375q-1.5625 0 -2.6875 -0.640625q-1.125 -0.640625 -1.734375 -1.8125q-0.609375 -1.171875 -0.609375 -2.78125q0 -1.578125 0.59375 -2.765625q0.609375 -1.1875 1.703125 -1.84375q1.109375 -0.671875 2.59375 -0.671875q1.0 0 1.859375 0.328125q0.875 0.3125 1.53125 0.953125q0.65625 0.640625 1.015625 1.609375q0.375 0.96875 0.375 2.28125l0 0.765625l-8.546875 0l0 -1.71875l7.21875 0l-1.28125 0.453125q0 -0.796875 -0.25 -1.375q-0.234375 -0.59375 -0.71875 -0.90625q-0.46875 -0.328125 -1.171875 -0.328125q-0.703125 0 -1.203125 0.328125q-0.5 0.328125 -0.765625 0.890625q-0.25 0.546875 -0.25 1.28125l0 1.203125q0 0.890625 0.296875 1.5q0.296875 0.59375 0.828125 0.890625q0.53125 0.296875 1.25 0.296875q0.484375 0 0.875 -0.125q0.390625 -0.140625 0.671875 -0.40625q0.28125 -0.28125 0.421875 -0.671875l2.46875 0.46875q-0.234375 0.828125 -0.84375 1.46875q-0.609375 0.640625 -1.53125 0.984375q-0.921875 0.34375 -2.109375 0.34375zm11.566711 -10.390625l0 2.09375l-6.03125 0l0 -2.09375l6.03125 0zm-4.640625 -2.421875l2.734375 0l0 9.625q0 0.484375 0.21875 0.71875q0.21875 0.234375 0.71875 0.234375q0.15625 0 0.4375 -0.03125q0.28125 -0.046875 0.421875 -0.09375l0.390625 2.0625q-0.453125 0.125 -0.90625 0.171875q-0.453125 0.0625 -0.859375 0.0625q-1.53125 0 -2.34375 -0.734375q-0.8125 -0.75 -0.8125 -2.140625l0 -9.875z" fill-rule="nonzero"/><path fill="#ffffff" d="m518.40186 35.875652l568.9133 0l0 200.7874l-568.9133 0z" fill-rule="evenodd"/><path stroke="#666666" stroke-width="4.0" stroke-linejoin="round" stroke-linecap="butt" d="m518.40186 35.875652l568.9133 0l0 200.7874l-568.9133 0z" fill-rule="evenodd"/><path fill="#000000" fill-opacity="0.0" d="m518.40186 30.55696l129.7638 0l0 49.102364l-129.7638 0z" fill-rule="evenodd"/><path fill="#434343" d="m544.5001 61.828136l0 -13.578125l5.28125 0q1.5625 0 2.640625 0.59375q1.078125 0.59375 1.640625 1.625q0.578125 1.03125 0.578125 2.375q0 1.34375 -0.578125 2.375q-0.578125 1.015625 -1.671875 1.59375q-1.09375 0.578125 -2.671875 0.578125l-3.40625 0l0 -2.234375l2.96875 0q0.859375 0 1.40625 -0.296875q0.546875 -0.296875 0.8125 -0.8125q0.28125 -0.53125 0.28125 -1.203125q0 -0.6875 -0.28125 -1.203125q-0.265625 -0.515625 -0.828125 -0.796875q-0.546875 -0.296875 -1.40625 -0.296875l-1.984375 0l0 11.28125l-2.78125 0zm16.4646 0.203125q-1.5625 0 -2.6875 -0.640625q-1.125 -0.640625 -1.734375 -1.8125q-0.609375 -1.171875 -0.609375 -2.78125q0 -1.578125 0.59375 -2.765625q0.609375 -1.1875 1.703125 -1.84375q1.109375 -0.671875 2.59375 -0.671875q1.0 0 1.859375 0.328125q0.875 0.3125 1.53125 0.953125q0.65625 0.640625 1.015625 1.609375q0.375 0.96875 0.375 2.28125l0 0.765625l-8.546875 0l0 -1.71875l7.21875 0l-1.28125 0.453125q0 -0.796875 -0.25 -1.375q-0.234375 -0.59375 -0.71875 -0.90625q-0.46875 -0.328125 -1.171875 -0.328125q-0.703125 0 -1.203125 0.328125q-0.5 0.328125 -0.765625 0.890625q-0.25 0.546875 -0.25 1.28125l0 1.203125q0 0.890625 0.296875 1.5q0.296875 0.59375 0.828125 0.890625q0.53125 0.296875 1.25 0.296875q0.484375 0 0.875 -0.125q0.390625 -0.140625 0.671875 -0.40625q0.28125 -0.28125 0.421875 -0.671875l2.46875 0.46875q-0.234375 0.828125 -0.84375 1.46875q-0.609375 0.640625 -1.53125 0.984375q-0.921875 0.34375 -2.109375 0.34375zm6.5198364 -0.203125l0 -10.1875l2.640625 0l0 1.78125l0.109375 0q0.28125 -0.953125 0.9375 -1.4375q0.65625 -0.484375 1.515625 -0.484375q0.21875 0 0.453125 0.03125q0.25 0.015625 0.4375 0.0625l0 2.453125q-0.1875 -0.078125 -0.53125 -0.109375q-0.34375 -0.03125 -0.65625 -0.03125q-0.625 0 -1.125 0.265625q-0.5 0.265625 -0.78125 0.75q-0.265625 0.46875 -0.265625 1.109375l0 5.796875l-2.734375 0zm11.628601 0.203125q-1.21875 0 -2.171875 -0.34375q-0.9375 -0.359375 -1.546875 -1.03125q-0.59375 -0.671875 -0.78125 -1.609375l2.546875 -0.4375q0.203125 0.703125 0.703125 1.0625q0.5 0.359375 1.34375 0.359375q0.78125 0 1.234375 -0.296875q0.453125 -0.296875 0.453125 -0.75q0 -0.40625 -0.328125 -0.65625q-0.328125 -0.265625 -0.984375 -0.40625l-1.765625 -0.359375q-1.46875 -0.296875 -2.203125 -1.015625q-0.734375 -0.734375 -0.734375 -1.875q0 -0.984375 0.53125 -1.6875q0.546875 -0.703125 1.5 -1.078125q0.96875 -0.390625 2.25 -0.390625q1.203125 0 2.078125 0.34375q0.890625 0.328125 1.4375 0.9375q0.546875 0.609375 0.734375 1.4375l-2.421875 0.421875q-0.15625 -0.515625 -0.59375 -0.84375q-0.4375 -0.34375 -1.1875 -0.34375q-0.671875 0 -1.140625 0.296875q-0.453125 0.28125 -0.453125 0.75q0 0.375 0.296875 0.640625q0.296875 0.265625 1.015625 0.40625l1.828125 0.375q1.484375 0.296875 2.203125 0.984375q0.71875 0.671875 0.71875 1.765625q0 1.0 -0.59375 1.75q-0.578125 0.75 -1.609375 1.171875q-1.015625 0.421875 -2.359375 0.421875zm10.964233 0q-1.53125 0 -2.65625 -0.65625q-1.109375 -0.671875 -1.71875 -1.84375q-0.609375 -1.1875 -0.609375 -2.75q0 -1.578125 0.609375 -2.75q0.609375 -1.1875 1.71875 -1.84375q1.125 -0.671875 2.65625 -0.671875q1.546875 0 2.65625 0.671875q1.109375 0.65625 1.71875 1.84375q0.609375 1.171875 0.609375 2.75q0 1.5625 -0.609375 2.75q-0.609375 1.171875 -1.71875 1.84375q-1.109375 0.65625 -2.65625 0.65625zm0 -2.15625q0.734375 0 1.21875 -0.40625q0.5 -0.40625 0.734375 -1.109375q0.25 -0.703125 0.25 -1.59375q0 -0.890625 -0.25 -1.59375q-0.234375 -0.703125 -0.734375 -1.09375q-0.484375 -0.40625 -1.21875 -0.40625q-0.734375 0 -1.21875 0.40625q-0.484375 0.390625 -0.734375 1.09375q-0.234375 0.703125 -0.234375 1.59375q0 0.890625 0.234375 1.59375q0.25 0.703125 0.734375 1.109375q0.484375 0.40625 1.21875 0.40625zm9.629028 -3.9375l0 5.890625l-2.734375 0l0 -10.1875l2.578125 0l0.046875 2.546875l-0.171875 0q0.40625 -1.28125 1.21875 -1.96875q0.8125 -0.703125 2.109375 -0.703125q1.046875 0 1.828125 0.46875q0.796875 0.453125 1.234375 1.3125q0.4375 0.859375 0.4375 2.046875l0 6.484375l-2.734375 0l0 -6.0q0 -0.953125 -0.5 -1.484375q-0.484375 -0.546875 -1.34375 -0.546875q-0.578125 0 -1.03125 0.25q-0.4375 0.25 -0.6875 0.734375q-0.25 0.46875 -0.25 1.15625zm11.723938 6.09375q-0.96875 0 -1.75 -0.34375q-0.765625 -0.34375 -1.203125 -1.015625q-0.4375 -0.6875 -0.4375 -1.6875q0 -0.859375 0.3125 -1.421875q0.3125 -0.578125 0.84375 -0.921875q0.546875 -0.34375 1.234375 -0.53125q0.6875 -0.1875 1.453125 -0.25q0.875 -0.09375 1.421875 -0.171875q0.546875 -0.078125 0.796875 -0.25q0.25 -0.171875 0.25 -0.5l0 -0.046875q0 -0.4375 -0.1875 -0.734375q-0.1875 -0.296875 -0.546875 -0.453125q-0.359375 -0.171875 -0.859375 -0.171875q-0.53125 0 -0.921875 0.171875q-0.390625 0.15625 -0.640625 0.421875q-0.25 0.265625 -0.359375 0.59375l-2.515625 -0.421875q0.265625 -0.890625 0.875 -1.5q0.609375 -0.625 1.515625 -0.953125q0.90625 -0.328125 2.046875 -0.328125q0.828125 0 1.59375 0.203125q0.78125 0.1875 1.390625 0.609375q0.625 0.40625 0.984375 1.0625q0.359375 0.65625 0.359375 1.578125l0 6.859375l-2.59375 0l0 -1.40625l-0.09375 0q-0.25 0.46875 -0.65625 0.828125q-0.40625 0.359375 -0.984375 0.578125q-0.578125 0.203125 -1.328125 0.203125zm0.765625 -1.921875q0.640625 0 1.125 -0.25q0.5 -0.265625 0.765625 -0.703125q0.28125 -0.4375 0.28125 -0.96875l0 -1.109375q-0.125 0.09375 -0.375 0.171875q-0.234375 0.0625 -0.546875 0.125q-0.296875 0.046875 -0.59375 0.09375q-0.28125 0.046875 -0.515625 0.078125q-0.5 0.078125 -0.890625 0.25q-0.375 0.15625 -0.578125 0.421875q-0.203125 0.265625 -0.203125 0.6875q0 0.390625 0.1875 0.65625q0.203125 0.265625 0.546875 0.40625q0.359375 0.140625 0.796875 0.140625zm9.956238 -11.859375l0 13.578125l-2.734375 0l0 -13.578125l2.734375 0z" fill-rule="nonzero"/><path fill="#000000" fill-opacity="0.0" d="m335.57217 135.17876l182.83463 1.1023712" fill-rule="evenodd"/><path stroke="#666666" stroke-width="1.0" stroke-linejoin="round" stroke-linecap="butt" d="m335.57217 135.17877l176.83475 1.0661774" fill-rule="evenodd"/><path fill="#666666" stroke="#666666" stroke-width="1.0" stroke-linecap="butt" d="m512.397 137.89665l4.5479736 -1.6243439l-4.528076 -1.6790619z" fill-rule="evenodd"/><path fill="#ffffff" d="m518.38873 478.75226l568.9134 0l0 200.78741l-568.9134 0z" fill-rule="evenodd"/><path stroke="#93c47d" stroke-width="4.0" stroke-linejoin="round" stroke-linecap="butt" d="m518.38873 478.75226l568.9134 0l0 200.78741l-568.9134 0z" fill-rule="evenodd"/><path fill="#000000" fill-opacity="0.0" d="m518.38873 478.68665l188.8504 0l0 49.102356l-188.8504 0z" fill-rule="evenodd"/><path fill="#434343" d="m548.5031 513.8641q-2.09375 0 -3.734375 -0.578125q-1.625 -0.578125 -2.765625 -1.6875q-1.140625 -1.09375 -1.734375 -2.6875q-0.578125 -1.609375 -0.578125 -3.65625q0 -1.96875 0.5625 -3.578125q0.578125 -1.609375 1.6875 -2.765625q1.109375 -1.171875 2.734375 -1.796875q1.640625 -0.625 3.75 -0.625q1.984375 0 3.546875 0.59375q1.578125 0.578125 2.6875 1.640625q1.109375 1.046875 1.6875 2.484375q0.578125 1.421875 0.578125 3.09375q0 1.140625 -0.203125 2.125q-0.203125 0.984375 -0.65625 1.71875q-0.453125 0.734375 -1.171875 1.15625q-0.71875 0.40625 -1.734375 0.40625q-0.59375 0 -1.125 -0.15625q-0.515625 -0.15625 -0.875 -0.5q-0.359375 -0.34375 -0.453125 -0.859375l-0.0625 0q-0.25 0.6875 -0.96875 1.109375q-0.71875 0.421875 -1.78125 0.421875q-1.25 0 -2.125 -0.578125q-0.875 -0.578125 -1.34375 -1.59375q-0.453125 -1.03125 -0.453125 -2.390625q0 -1.328125 0.5 -2.359375q0.5 -1.03125 1.390625 -1.609375q0.90625 -0.578125 2.078125 -0.578125q0.890625 0 1.53125 0.328125q0.640625 0.3125 0.90625 0.8125l0.109375 0l0 -0.921875l1.875 0l0 6.140625q0 0.4375 0.1875 0.703125q0.203125 0.25 0.625 0.25q0.578125 0 0.90625 -0.359375q0.34375 -0.375 0.484375 -1.140625q0.15625 -0.765625 0.15625 -1.9375q0 -1.34375 -0.390625 -2.421875q-0.375 -1.09375 -1.140625 -1.875q-0.765625 -0.78125 -1.921875 -1.203125q-1.140625 -0.421875 -2.671875 -0.421875q-1.609375 0 -2.84375 0.453125q-1.234375 0.4375 -2.078125 1.296875q-0.828125 0.859375 -1.265625 2.09375q-0.421875 1.234375 -0.421875 2.796875q0 1.578125 0.4375 2.8125q0.4375 1.21875 1.28125 2.046875q0.859375 0.84375 2.109375 1.265625q1.25 0.421875 2.90625 0.421875q0.734375 0 1.421875 -0.109375q0.6875 -0.109375 1.25 -0.28125q0.5625 -0.15625 0.9375 -0.296875l0.71875 1.890625q-0.4375 0.21875 -1.15625 0.421875q-0.703125 0.21875 -1.578125 0.34375q-0.859375 0.140625 -1.8125 0.140625zm-0.359375 -6.078125q0.75 0 1.234375 -0.296875q0.5 -0.3125 0.734375 -0.90625q0.25 -0.59375 0.25 -1.453125q0 -0.875 -0.25 -1.40625q-0.25 -0.546875 -0.75 -0.78125q-0.484375 -0.25 -1.1875 -0.25q-0.703125 0 -1.1875 0.3125q-0.484375 0.296875 -0.75 0.84375q-0.25 0.546875 -0.25 1.265625q0 0.765625 0.234375 1.375q0.234375 0.59375 0.703125 0.953125q0.484375 0.34375 1.21875 0.34375zm15.410034 2.375q-1.5625 0 -2.6875 -0.640625q-1.125 -0.640625 -1.734375 -1.8125q-0.609375 -1.171875 -0.609375 -2.78125q0 -1.578125 0.59375 -2.765625q0.609375 -1.1875 1.703125 -1.84375q1.109375 -0.671875 2.59375 -0.671875q1.0 0 1.859375 0.328125q0.875 0.3125 1.53125 0.953125q0.65625 0.640625 1.015625 1.609375q0.375 0.96875 0.375 2.28125l0 0.765625l-8.546875 0l0 -1.71875l7.21875 0l-1.28125 0.453125q0 -0.796875 -0.25 -1.375q-0.234375 -0.59375 -0.71875 -0.90625q-0.46875 -0.328125 -1.171875 -0.328125q-0.703125 0 -1.203125 0.328125q-0.5 0.328125 -0.765625 0.890625q-0.25 0.546875 -0.25 1.28125l0 1.203125q0 0.890625 0.296875 1.5q0.296875 0.59375 0.828125 0.890625q0.53125 0.296875 1.25 0.296875q0.484375 0 0.875 -0.125q0.390625 -0.140625 0.671875 -0.40625q0.28125 -0.28125 0.421875 -0.671875l2.46875 0.46875q-0.234375 0.828125 -0.84375 1.46875q-0.609375 0.640625 -1.53125 0.984375q-0.921875 0.34375 -2.109375 0.34375zm5.349243 -0.203125l3.953125 -6.296875l-0.015625 2.140625l-3.734375 -6.03125l2.953125 0l0.921875 1.609375q0.4375 0.796875 0.78125 1.5625q0.359375 0.765625 0.71875 1.5l-1.03125 0q0.375 -0.71875 0.71875 -1.484375q0.34375 -0.78125 0.796875 -1.578125l0.953125 -1.609375l2.90625 0l-3.8125 6.046875l0 -2.09375l3.953125 6.234375l-2.9375 0l-1.125 -1.90625q-0.4375 -0.796875 -0.8125 -1.5625q-0.359375 -0.78125 -0.71875 -1.484375l1.046875 0q-0.359375 0.703125 -0.703125 1.484375q-0.34375 0.765625 -0.78125 1.5625l-1.125 1.90625l-2.90625 0zm14.42627 0.203125q-0.96875 0 -1.75 -0.34375q-0.765625 -0.34375 -1.203125 -1.015625q-0.4375 -0.6875 -0.4375 -1.6875q0 -0.859375 0.3125 -1.421875q0.3125 -0.578125 0.84375 -0.921875q0.546875 -0.34375 1.234375 -0.53125q0.6875 -0.1875 1.453125 -0.25q0.875 -0.09375 1.421875 -0.171875q0.546875 -0.078125 0.796875 -0.25q0.25 -0.171875 0.25 -0.5l0 -0.046875q0 -0.4375 -0.1875 -0.734375q-0.1875 -0.296875 -0.546875 -0.453125q-0.359375 -0.171875 -0.859375 -0.171875q-0.53125 0 -0.921875 0.171875q-0.390625 0.15625 -0.640625 0.421875q-0.25 0.265625 -0.359375 0.59375l-2.515625 -0.421875q0.265625 -0.890625 0.875 -1.5q0.609375 -0.625 1.515625 -0.953125q0.90625 -0.328125 2.046875 -0.328125q0.828125 0 1.59375 0.203125q0.78125 0.1875 1.390625 0.609375q0.625 0.40625 0.984375 1.0625q0.359375 0.65625 0.359375 1.578125l0 6.859375l-2.59375 0l0 -1.40625l-0.09375 0q-0.25 0.46875 -0.65625 0.828125q-0.40625 0.359375 -0.984375 0.578125q-0.578125 0.203125 -1.328125 0.203125zm0.765625 -1.921875q0.640625 0 1.125 -0.25q0.5 -0.265625 0.765625 -0.703125q0.28125 -0.4375 0.28125 -0.96875l0 -1.109375q-0.125 0.09375 -0.375 0.171875q-0.234375 0.0625 -0.546875 0.125q-0.296875 0.046875 -0.59375 0.09375q-0.28125 0.046875 -0.515625 0.078125q-0.5 0.078125 -0.890625 0.25q-0.375 0.15625 -0.578125 0.421875q-0.203125 0.265625 -0.203125 0.6875q0 0.390625 0.1875 0.65625q0.203125 0.265625 0.546875 0.40625q0.359375 0.140625 0.796875 0.140625zm7.2218018 1.71875l0 -10.1875l2.53125 0l0.125 2.53125l-0.1875 0q0.234375 -0.9375 0.6875 -1.53125q0.46875 -0.59375 1.078125 -0.875q0.625 -0.28125 1.3125 -0.28125q1.09375 0 1.765625 0.703125q0.6875 0.6875 1.0 2.15625l-0.3125 0q0.21875 -0.984375 0.734375 -1.609375q0.515625 -0.640625 1.21875 -0.9375q0.703125 -0.3125 1.484375 -0.3125q0.9375 0 1.671875 0.421875q0.734375 0.40625 1.15625 1.171875q0.421875 0.765625 0.421875 1.875l0 6.875l-2.734375 0l0 -6.34375q0 -0.875 -0.46875 -1.28125q-0.46875 -0.421875 -1.15625 -0.421875q-0.5 0 -0.890625 0.21875q-0.375 0.21875 -0.578125 0.625q-0.203125 0.390625 -0.203125 0.9375l0 6.265625l-2.640625 0l0 -6.421875q0 -0.75 -0.453125 -1.1875q-0.4375 -0.4375 -1.125 -0.4375q-0.484375 0 -0.875 0.21875q-0.390625 0.21875 -0.609375 0.640625q-0.21875 0.421875 -0.21875 1.03125l0 6.15625l-2.734375 0zm17.025635 3.8125l0 -14.0l2.6875 0l0 1.71875l0.125 0q0.1875 -0.40625 0.53125 -0.828125q0.359375 -0.4375 0.921875 -0.71875q0.578125 -0.296875 1.453125 -0.296875q1.125 0 2.0625 0.59375q0.9375 0.578125 1.5 1.75q0.5625 1.15625 0.5625 2.890625q0 1.703125 -0.546875 2.875q-0.546875 1.171875 -1.484375 1.78125q-0.9375 0.59375 -2.109375 0.59375q-0.828125 0 -1.40625 -0.28125q-0.578125 -0.28125 -0.9375 -0.6875q-0.359375 -0.421875 -0.546875 -0.828125l-0.078125 0l0 5.4375l-2.734375 0zm4.859375 -5.828125q0.703125 0 1.1875 -0.390625q0.5 -0.40625 0.75 -1.09375q0.25 -0.6875 0.25 -1.578125q0 -0.890625 -0.25 -1.578125q-0.25 -0.6875 -0.734375 -1.078125q-0.484375 -0.390625 -1.203125 -0.390625q-0.703125 0 -1.203125 0.375q-0.484375 0.375 -0.75 1.0625q-0.25 0.671875 -0.25 1.609375q0 0.921875 0.265625 1.609375q0.265625 0.6875 0.75 1.078125q0.5 0.375 1.1875 0.375zm9.635376 -11.5625l0 13.578125l-2.734375 0l0 -13.578125l2.734375 0zm6.915161 13.78125q-1.5625 0 -2.6875 -0.640625q-1.125 -0.640625 -1.734375 -1.8125q-0.609375 -1.171875 -0.609375 -2.78125q0 -1.578125 0.59375 -2.765625q0.609375 -1.1875 1.703125 -1.84375q1.109375 -0.671875 2.59375 -0.671875q1.0 0 1.859375 0.328125q0.875 0.3125 1.53125 0.953125q0.65625 0.640625 1.015625 1.609375q0.375 0.96875 0.375 2.28125l0 0.765625l-8.546875 0l0 -1.71875l7.21875 0l-1.28125 0.453125q0 -0.796875 -0.25 -1.375q-0.234375 -0.59375 -0.71875 -0.90625q-0.46875 -0.328125 -1.171875 -0.328125q-0.703125 0 -1.203125 0.328125q-0.5 0.328125 -0.765625 0.890625q-0.25 0.546875 -0.25 1.28125l0 1.203125q0 0.890625 0.296875 1.5q0.296875 0.59375 0.828125 0.890625q0.53125 0.296875 1.25 0.296875q0.484375 0 0.875 -0.125q0.390625 -0.140625 0.671875 -0.40625q0.28125 -0.28125 0.421875 -0.671875l2.46875 0.46875q-0.234375 0.828125 -0.84375 1.46875q-0.609375 0.640625 -1.53125 0.984375q-0.921875 0.34375 -2.109375 0.34375zm8.457336 -0.03125q-0.65625 0 -1.109375 -0.453125q-0.453125 -0.453125 -0.453125 -1.109375q0 -0.671875 0.453125 -1.109375q0.453125 -0.453125 1.109375 -0.453125q0.671875 0 1.125 0.453125q0.453125 0.4375 0.453125 1.109375q0 0.65625 -0.453125 1.109375q-0.453125 0.453125 -1.125 0.453125zm8.84021 0.03125q-1.531189 0 -2.656189 -0.65625q-1.109375 -0.671875 -1.71875 -1.84375q-0.609375 -1.1875 -0.609375 -2.75q0 -1.578125 0.609375 -2.75q0.609375 -1.1875 1.71875 -1.84375q1.125 -0.671875 2.656189 -0.671875q0.90625 0 1.671875 0.234375q0.765625 0.234375 1.359375 0.671875q0.59375 0.4375 0.96875 1.078125q0.390625 0.625 0.53125 1.40625l-2.546875 0.46875q-0.078125 -0.390625 -0.25 -0.703125q-0.171875 -0.328125 -0.421875 -0.546875q-0.25 -0.21875 -0.578125 -0.328125q-0.3125 -0.125 -0.703125 -0.125q-0.73431396 0 -1.234314 0.390625q-0.484375 0.390625 -0.734375 1.09375q-0.25 0.703125 -0.25 1.609375q0 0.90625 0.25 1.609375q0.25 0.703125 0.734375 1.109375q0.5 0.390625 1.234314 0.390625q0.390625 0 0.71875 -0.125q0.328125 -0.125 0.578125 -0.34375q0.265625 -0.234375 0.4375 -0.5625q0.171875 -0.328125 0.234375 -0.734375l2.546875 0.453125q-0.140625 0.8125 -0.53125 1.453125q-0.375 0.625 -0.96875 1.09375q-0.59375 0.453125 -1.375 0.6875q-0.765625 0.234375 -1.671875 0.234375zm10.97699 0q-1.53125 0 -2.65625 -0.65625q-1.109375 -0.671875 -1.71875 -1.84375q-0.609375 -1.1875 -0.609375 -2.75q0 -1.578125 0.609375 -2.75q0.609375 -1.1875 1.71875 -1.84375q1.125 -0.671875 2.65625 -0.671875q1.546875 0 2.65625 0.671875q1.109375 0.65625 1.71875 1.84375q0.609375 1.171875 0.609375 2.75q0 1.5625 -0.609375 2.75q-0.609375 1.171875 -1.71875 1.84375q-1.109375 0.65625 -2.65625 0.65625zm0 -2.15625q0.734375 0 1.21875 -0.40625q0.5 -0.40625 0.734375 -1.109375q0.25 -0.703125 0.25 -1.59375q0 -0.890625 -0.25 -1.59375q-0.234375 -0.703125 -0.734375 -1.09375q-0.484375 -0.40625 -1.21875 -0.40625q-0.734375 0 -1.21875 0.40625q-0.484375 0.390625 -0.734375 1.09375q-0.234375 0.703125 -0.234375 1.59375q0 0.890625 0.234375 1.59375q0.25 0.703125 0.734375 1.109375q0.484375 0.40625 1.21875 0.40625zm8.832153 2.125q-0.65625 0 -1.109375 -0.453125q-0.453125 -0.453125 -0.453125 -1.109375q0 -0.671875 0.453125 -1.109375q0.453125 -0.453125 1.109375 -0.453125q0.671875 0 1.125 0.453125q0.453125 0.4375 0.453125 1.109375q0 0.65625 -0.453125 1.109375q-0.453125 0.453125 -1.125 0.453125zm4.277771 -10.359375l2.75 0l0 10.703125q0 1.171875 -0.46875 1.890625q-0.453125 0.734375 -1.3125 1.0625q-0.84375 0.34375 -2.03125 0.34375l-0.546875 0l0 -2.15625l0.359375 0q0.6875 0 0.96875 -0.296875q0.28125 -0.296875 0.28125 -0.875l0 -10.671875zm1.375 -1.328125q-0.609375 0 -1.046875 -0.40625q-0.4375 -0.40625 -0.4375 -1.0q0 -0.578125 0.4375 -0.984375q0.4375 -0.40625 1.046875 -0.40625q0.625 0 1.0625 0.40625q0.453125 0.390625 0.453125 0.984375q0 0.59375 -0.453125 1.0q-0.4375 0.40625 -1.0625 0.40625zm3.69635 15.328125l0 -14.0l2.6875 0l0 1.71875l0.125 0q0.1875 -0.40625 0.53125 -0.828125q0.359375 -0.4375 0.921875 -0.71875q0.578125 -0.296875 1.453125 -0.296875q1.125 0 2.0625 0.59375q0.9375 0.578125 1.5 1.75q0.5625 1.15625 0.5625 2.890625q0 1.703125 -0.546875 2.875q-0.546875 1.171875 -1.484375 1.78125q-0.9375 0.59375 -2.109375 0.59375q-0.828125 0 -1.40625 -0.28125q-0.578125 -0.28125 -0.9375 -0.6875q-0.359375 -0.421875 -0.546875 -0.828125l-0.078125 0l0 5.4375l-2.734375 0zm4.859375 -5.828125q0.703125 0 1.1875 -0.390625q0.5 -0.40625 0.75 -1.09375q0.25 -0.6875 0.25 -1.578125q0 -0.890625 -0.25 -1.578125q-0.25 -0.6875 -0.734375 -1.078125q-0.484375 -0.390625 -1.203125 -0.390625q-0.703125 0 -1.203125 0.375q-0.484375 0.375 -0.75 1.0625q-0.25 0.671875 -0.25 1.609375q0 0.921875 0.265625 1.609375q0.265625 0.6875 0.75 1.078125q0.5 0.375 1.1875 0.375z" fill-rule="nonzero"/><path fill="#000000" fill-opacity="0.0" d="m335.57217 135.17876l182.80313 222.5197" fill-rule="evenodd"/><path stroke="#666666" stroke-width="1.0" stroke-linejoin="round" stroke-linecap="butt" d="m335.57217 135.17877l178.99448 217.88351" fill-rule="evenodd"/><path fill="#666666" stroke="#666666" stroke-width="1.0" stroke-linecap="butt" d="m513.29034 354.11078l4.1569824 2.4580688l-1.6043701 -4.5550537z" fill-rule="evenodd"/><path fill="#000000" fill-opacity="0.0" d="m335.57217 135.17876l182.80313 443.9685" fill-rule="evenodd"/><path stroke="#666666" stroke-width="1.0" stroke-linejoin="round" stroke-linecap="butt" d="m335.57217 135.17877l180.51877 438.4204" fill-rule="evenodd"/><path fill="#666666" stroke="#666666" stroke-width="1.0" stroke-linecap="butt" d="m514.5636 574.228l3.255127 3.5674438l-0.20050049 -4.8251953z" fill-rule="evenodd"/><path fill="#000000" fill-opacity="0.0" d="m335.58557 135.26013l182.80316 665.3228" fill-rule="evenodd"/><path stroke="#666666" stroke-width="1.0" stroke-linejoin="round" stroke-linecap="butt" d="m335.5856 135.26015l181.21347 659.5373" fill-rule="evenodd"/><path fill="#666666" stroke="#666666" stroke-width="1.0" stroke-linecap="butt" d="m515.2064 795.23505l2.794983 3.9382935l0.39038086 -4.8135376z" fill-rule="evenodd"/><path fill="#ffffff" d="m146.69029 184.09871l33.32283 -57.637794l33.32283 57.637794z" fill-rule="evenodd"/><path stroke="#666666" stroke-width="2.0" stroke-linejoin="round" stroke-linecap="butt" d="m146.69029 184.09871l33.32283 -57.637794l33.32283 57.637794z" fill-rule="evenodd"/><path fill="#ffffff" d="m145.06824 118.06984l0 0c0 -19.299522 15.645355 -34.944885 34.944885 -34.944885l0 0c9.26796 0 18.156326 3.6816864 24.709763 10.235123c6.5534363 6.5534363 10.235123 15.441803 10.235123 24.709763l0 0c0 19.29953 -15.645355 34.944885 -34.944885 34.944885l0 0c-19.29953 0 -34.944885 -15.645355 -34.944885 -34.944885z" fill-rule="evenodd"/><path stroke="#666666" stroke-width="2.0" stroke-linejoin="round" stroke-linecap="butt" d="m145.06824 118.06984l0 0c0 -19.299522 15.645355 -34.944885 34.944885 -34.944885l0 0c9.26796 0 18.156326 3.6816864 24.709763 10.235123c6.5534363 6.5534363 10.235123 15.441803 10.235123 24.709763l0 0c0 19.29953 -15.645355 34.944885 -34.944885 34.944885l0 0c-19.29953 0 -34.944885 -15.645355 -34.944885 -34.944885z" fill-rule="evenodd"/></g></svg>