<svg width="2560" height="1440" viewBox="0 0 2560 1440" fill="none" xmlns="http://www.w3.org/2000/svg">
<rect width="2560" height="1440" fill="white"/>
<path d="M377.769 576.006C357.256 595.343 347 618.683 347 646.028V792.588H557.114V646.028C557.114 618.682 546.857 595.341 526.344 576.005C505.83 556.668 481.068 547 452.057 547C423.046 547 398.283 556.669 377.769 576.006Z" fill="#616161"/>
<path fill-rule="evenodd" clip-rule="evenodd" d="M349.729 814.276C349.729 786.419 359.713 762.646 379.681 742.958C399.651 723.269 423.765 713.424 452.023 713.424C480.284 713.424 504.41 723.27 524.398 742.96C544.39 762.653 554.386 786.425 554.386 814.276C554.386 827.426 543.726 837.869 522.408 845.605C503.221 852.566 479.771 856.047 452.057 856.047C424.343 856.047 400.893 852.566 381.706 845.605C360.388 837.869 349.729 827.426 349.729 814.276Z" fill="white" stroke="#616161" stroke-width="5.45752"/>
<path fill-rule="evenodd" clip-rule="evenodd" d="M359.962 648.049C359.962 622.032 368.951 599.824 386.929 581.426C404.91 563.023 426.62 553.822 452.057 553.822C477.492 553.822 499.201 563.023 517.184 581.426C535.163 599.825 544.153 622.033 544.153 648.049C544.153 674.065 535.163 696.275 517.184 714.678C499.2 733.085 477.491 742.288 452.057 742.288C426.623 742.288 404.914 733.085 386.931 714.678C368.951 696.275 359.962 674.065 359.962 648.049V648.049Z" fill="white" stroke="#616161" stroke-width="5.45752"/>
<path d="M349.729 656.15C349.729 626.011 359.719 600.284 379.699 578.971C399.68 557.657 423.799 547 452.057 547C480.314 547 504.433 557.657 524.414 578.97C544.395 600.283 554.386 626.01 554.386 656.15H349.729Z" fill="#616161"/>
<path d="M394.742 939.73H385.75L399.452 900.039H410.266L423.948 939.73H414.956L405.014 909.109H404.704L394.742 939.73ZM394.18 924.129H415.421V930.68H394.18V924.129ZM436.827 900.039V939.73H428.571V900.039H436.827ZM443.44 939.73V909.962H451.696V939.73H443.44ZM447.588 906.125C446.36 906.125 445.307 905.718 444.429 904.904C443.563 904.077 443.13 903.089 443.13 901.939C443.13 900.802 443.563 899.826 444.429 899.012C445.307 898.185 446.36 897.772 447.588 897.772C448.815 897.772 449.862 898.185 450.727 899.012C451.606 899.826 452.045 900.802 452.045 901.939C452.045 903.089 451.606 904.077 450.727 904.904C449.862 905.718 448.815 906.125 447.588 906.125ZM471.76 940.312C468.711 940.312 466.088 939.666 463.891 938.374C461.708 937.069 460.028 935.26 458.852 932.947C457.69 930.635 457.108 927.973 457.108 924.963C457.108 921.913 457.696 919.239 458.872 916.939C460.06 914.626 461.747 912.824 463.93 911.532C466.114 910.227 468.711 909.575 471.721 909.575C474.318 909.575 476.592 910.046 478.543 910.989C480.494 911.933 482.038 913.257 483.175 914.962C484.312 916.668 484.938 918.67 485.055 920.97H477.264C477.044 919.484 476.463 918.289 475.52 917.385C474.589 916.468 473.368 916.009 471.857 916.009C470.578 916.009 469.46 916.358 468.504 917.055C467.561 917.74 466.824 918.742 466.295 920.059C465.765 921.377 465.5 922.973 465.5 924.846C465.5 926.746 465.758 928.361 466.275 929.691C466.805 931.022 467.548 932.036 468.504 932.734C469.46 933.432 470.578 933.781 471.857 933.781C472.8 933.781 473.646 933.587 474.396 933.199C475.158 932.812 475.784 932.25 476.275 931.513C476.779 930.764 477.109 929.866 477.264 928.819H485.055C484.926 931.093 484.305 933.096 483.194 934.827C482.096 936.546 480.578 937.889 478.64 938.858C476.702 939.827 474.408 940.312 471.76 940.312ZM503.907 940.312C500.845 940.312 498.209 939.692 496 938.451C493.803 937.198 492.111 935.428 490.922 933.141C489.733 930.841 489.139 928.122 489.139 924.982C489.139 921.92 489.733 919.232 490.922 916.92C492.111 914.607 493.784 912.805 495.942 911.513C498.112 910.221 500.658 909.575 503.578 909.575C505.541 909.575 507.37 909.891 509.062 910.524C510.768 911.144 512.253 912.081 513.52 913.334C514.799 914.588 515.794 916.164 516.504 918.063C517.215 919.95 517.57 922.159 517.57 924.691V926.959H492.434V921.842H509.799C509.799 920.654 509.54 919.601 509.023 918.683C508.507 917.766 507.79 917.049 506.872 916.532C505.968 916.002 504.915 915.738 503.713 915.738C502.46 915.738 501.349 916.028 500.38 916.61C499.424 917.178 498.674 917.947 498.132 918.916C497.589 919.872 497.311 920.938 497.298 922.114V926.978C497.298 928.451 497.57 929.724 498.112 930.796C498.668 931.868 499.449 932.695 500.457 933.277C501.465 933.858 502.66 934.149 504.043 934.149C504.96 934.149 505.8 934.02 506.562 933.761C507.324 933.503 507.977 933.115 508.52 932.598C509.062 932.082 509.476 931.449 509.76 930.699L517.396 931.203C517.008 933.038 516.214 934.64 515.012 936.009C513.823 937.366 512.286 938.426 510.399 939.188C508.526 939.937 506.362 940.312 503.907 940.312Z" fill="#616161"/>
<path fill-rule="evenodd" clip-rule="evenodd" d="M2005.73 808.276C2005.73 780.419 2015.71 756.646 2035.68 736.958C2055.65 717.269 2079.76 707.424 2108.02 707.424C2136.28 707.424 2160.41 717.27 2180.4 736.96C2200.39 756.653 2210.39 780.425 2210.39 808.276C2210.39 821.426 2199.73 831.869 2178.41 839.605C2159.22 846.566 2135.77 850.047 2108.06 850.047C2080.34 850.047 2056.89 846.566 2037.71 839.605C2016.39 831.869 2005.73 821.426 2005.73 808.276Z" fill="white" stroke="#616161" stroke-width="5.45752"/>
<path fill-rule="evenodd" clip-rule="evenodd" d="M2015.96 642.049C2015.96 616.032 2024.95 593.824 2042.93 575.426C2060.91 557.023 2082.62 547.822 2108.06 547.822C2133.49 547.822 2155.2 557.023 2173.18 575.426C2191.16 593.825 2200.15 616.033 2200.15 642.049C2200.15 668.065 2191.16 690.275 2173.18 708.678C2155.2 727.085 2133.49 736.288 2108.06 736.288C2082.62 736.288 2060.91 727.085 2042.93 708.678C2024.95 690.275 2015.96 668.065 2015.96 642.049V642.049Z" fill="white" stroke="#616161" stroke-width="5.45752"/>
<path d="M2005.73 650.15C2005.73 620.011 2015.72 594.284 2035.7 572.971C2055.68 551.657 2079.8 541 2108.06 541C2136.31 541 2160.43 551.657 2180.41 572.97C2200.39 594.283 2210.39 620.01 2210.39 650.15H2005.73Z" fill="#616161"/>
<path d="M2059.38 933.73V894.039H2075.28C2078.2 894.039 2080.63 894.472 2082.58 895.338C2084.53 896.204 2086 897.405 2086.98 898.943C2087.96 900.467 2088.45 902.224 2088.45 904.214C2088.45 905.765 2088.14 907.128 2087.52 908.303C2086.9 909.466 2086.05 910.422 2084.97 911.172C2083.89 911.908 2082.67 912.431 2081.28 912.742V913.129C2082.79 913.194 2084.21 913.62 2085.53 914.408C2086.86 915.196 2087.94 916.301 2088.76 917.722C2089.59 919.131 2090 920.81 2090 922.761C2090 924.867 2089.48 926.747 2088.43 928.401C2087.4 930.042 2085.87 931.34 2083.84 932.296C2081.81 933.252 2079.31 933.73 2076.34 933.73H2059.38ZM2067.78 926.87H2074.62C2076.95 926.87 2078.66 926.424 2079.73 925.533C2080.81 924.628 2081.34 923.427 2081.34 921.928C2081.34 920.83 2081.08 919.861 2080.55 919.021C2080.02 918.181 2079.26 917.522 2078.28 917.044C2077.31 916.566 2076.15 916.327 2074.81 916.327H2067.78V926.87ZM2067.78 910.648H2074C2075.15 910.648 2076.17 910.448 2077.06 910.048C2077.96 909.634 2078.67 909.053 2079.19 908.303C2079.72 907.554 2079.98 906.656 2079.98 905.61C2079.98 904.175 2079.47 903.019 2078.45 902.14C2077.45 901.262 2076.01 900.823 2074.15 900.823H2067.78V910.648ZM2108.76 934.312C2105.75 934.312 2103.15 933.672 2100.95 932.393C2098.77 931.101 2097.08 929.305 2095.89 927.005C2094.7 924.693 2094.11 922.012 2094.11 918.963C2094.11 915.888 2094.7 913.2 2095.89 910.9C2097.08 908.588 2098.77 906.792 2100.95 905.513C2103.15 904.221 2105.75 903.575 2108.76 903.575C2111.77 903.575 2114.37 904.221 2116.55 905.513C2118.75 906.792 2120.44 908.588 2121.63 910.9C2122.82 913.2 2123.41 915.888 2123.41 918.963C2123.41 922.012 2122.82 924.693 2121.63 927.005C2120.44 929.305 2118.75 931.101 2116.55 932.393C2114.37 933.672 2111.77 934.312 2108.76 934.312ZM2108.8 927.916C2110.17 927.916 2111.31 927.529 2112.23 926.754C2113.15 925.965 2113.84 924.893 2114.3 923.536C2114.78 922.18 2115.02 920.636 2115.02 918.904C2115.02 917.173 2114.78 915.629 2114.3 914.273C2113.84 912.916 2113.15 911.844 2112.23 911.055C2111.31 910.267 2110.17 909.873 2108.8 909.873C2107.42 909.873 2106.25 910.267 2105.31 911.055C2104.38 911.844 2103.68 912.916 2103.2 914.273C2102.73 915.629 2102.5 917.173 2102.5 918.904C2102.5 920.636 2102.73 922.18 2103.2 923.536C2103.68 924.893 2104.38 925.965 2105.31 926.754C2106.25 927.529 2107.42 927.916 2108.8 927.916ZM2128.93 933.73V894.039H2137.19V908.962H2137.44C2137.8 908.161 2138.33 907.347 2139.01 906.52C2139.71 905.681 2140.61 904.983 2141.73 904.427C2142.85 903.859 2144.25 903.575 2145.91 903.575C2148.08 903.575 2150.09 904.143 2151.92 905.28C2153.75 906.404 2155.22 908.103 2156.32 910.377C2157.42 912.638 2157.97 915.474 2157.97 918.885C2157.97 922.206 2157.43 925.009 2156.36 927.296C2155.3 929.57 2153.85 931.295 2152.02 932.471C2150.19 933.634 2148.15 934.215 2145.89 934.215C2144.29 934.215 2142.93 933.95 2141.8 933.42C2140.69 932.891 2139.78 932.225 2139.07 931.424C2138.36 930.61 2137.82 929.79 2137.44 928.963H2137.07V933.73H2128.93ZM2137.02 918.846C2137.02 920.616 2137.26 922.16 2137.75 923.478C2138.24 924.796 2138.95 925.823 2139.88 926.56C2140.81 927.283 2141.95 927.645 2143.28 927.645C2144.62 927.645 2145.76 927.277 2146.69 926.54C2147.62 925.791 2148.32 924.757 2148.8 923.439C2149.29 922.109 2149.54 920.578 2149.54 918.846C2149.54 917.128 2149.3 915.616 2148.82 914.311C2148.34 913.006 2147.64 911.986 2146.71 911.249C2145.78 910.513 2144.63 910.145 2143.28 910.145C2141.93 910.145 2140.8 910.5 2139.87 911.21C2138.95 911.921 2138.24 912.929 2137.75 914.234C2137.26 915.539 2137.02 917.076 2137.02 918.846Z" fill="#616161"/>
<path d="M1899.46 744.351C1899.99 743.818 1899.99 742.954 1899.46 742.421L1890.77 733.738C1890.24 733.205 1889.38 733.205 1888.84 733.738C1888.31 734.271 1888.31 735.135 1888.84 735.668L1896.56 743.386L1888.84 751.104C1888.31 751.637 1888.31 752.501 1888.84 753.033C1889.38 753.566 1890.24 753.566 1890.77 753.033L1899.46 744.351ZM661 744.75H1898.49V742.021H661V744.75Z" fill="black"/>
<path fill-rule="evenodd" clip-rule="evenodd" d="M1450.98 1233.06C1450.98 1205.2 1460.96 1181.43 1480.93 1161.74C1500.9 1142.05 1525.01 1132.2 1553.27 1132.2C1581.53 1132.2 1605.66 1142.05 1625.65 1161.74C1645.64 1181.43 1655.63 1205.2 1655.63 1233.06C1655.63 1246.21 1644.97 1256.65 1623.65 1264.38C1604.47 1271.35 1581.02 1274.83 1553.3 1274.83C1525.59 1274.83 1502.14 1271.35 1482.95 1264.38C1461.63 1256.65 1450.98 1246.21 1450.98 1233.06Z" fill="white" stroke="#616161" stroke-width="5.45752"/>
<path fill-rule="evenodd" clip-rule="evenodd" d="M1461.21 1066.83C1461.21 1040.81 1470.2 1018.6 1488.18 1000.21C1506.16 981.802 1527.87 972.601 1553.3 972.601C1578.74 972.601 1600.45 981.802 1618.43 1000.21C1636.41 1018.6 1645.4 1040.81 1645.4 1066.83C1645.4 1092.84 1636.41 1115.05 1618.43 1133.46C1600.45 1151.86 1578.74 1161.07 1553.3 1161.07C1527.87 1161.07 1506.16 1151.86 1488.18 1133.46C1470.2 1115.05 1461.21 1092.84 1461.21 1066.83V1066.83Z" fill="white" stroke="#616161" stroke-width="5.45752"/>
<path d="M1513.36 1132.04C1530.31 1134.12 1544.07 1134.12 1554.64 1132.04C1564.69 1130.06 1576.73 1125.13 1590.76 1117.23" stroke="#616161" stroke-width="4.94587"/>
<path d="M1638.9 1010.8C1644.14 1021.32 1644.75 1032.27 1640.75 1043.65C1636.75 1055.03 1629.31 1063.52 1618.41 1069.1C1607.52 1074.68 1596.37 1075.72 1584.96 1072.23C1573.56 1068.74 1565.24 1061.74 1560 1051.22L1638.9 1010.8Z" fill="#616161" stroke="#616161" stroke-width="4.94587"/>
<path d="M1541.15 1049.92C1535.91 1060.1 1527.59 1066.87 1516.19 1070.25C1504.78 1073.63 1493.63 1072.62 1482.74 1067.22C1471.84 1061.82 1464.4 1053.61 1460.4 1042.59C1456.4 1031.58 1457.01 1020.98 1462.25 1010.8L1541.15 1049.92Z" fill="#616161" stroke="#616161" stroke-width="4.94587"/>
<path d="M1508.23 1358.51V1318.82H1534.97V1325.74H1516.62V1335.2H1533.6V1342.11H1516.62V1351.59H1535.05V1358.51H1508.23ZM1569.24 1328.74L1558.83 1358.51H1549.53L1539.12 1328.74H1547.85L1554.03 1350.04H1554.34L1560.5 1328.74H1569.24ZM1586.07 1359.09C1583.01 1359.09 1580.38 1358.47 1578.17 1357.23C1575.97 1355.98 1574.28 1354.21 1573.09 1351.92C1571.9 1349.62 1571.31 1346.9 1571.31 1343.76C1571.31 1340.7 1571.9 1338.01 1573.09 1335.7C1574.28 1333.39 1575.95 1331.58 1578.11 1330.29C1580.28 1329 1582.82 1328.35 1585.74 1328.35C1587.71 1328.35 1589.54 1328.67 1591.23 1329.3C1592.93 1329.92 1594.42 1330.86 1595.69 1332.11C1596.97 1333.37 1597.96 1334.94 1598.67 1336.84C1599.38 1338.73 1599.74 1340.94 1599.74 1343.47V1345.74H1574.6V1340.62H1591.97C1591.97 1339.43 1591.71 1338.38 1591.19 1337.46C1590.67 1336.55 1589.96 1335.83 1589.04 1335.31C1588.13 1334.78 1587.08 1334.52 1585.88 1334.52C1584.63 1334.52 1583.52 1334.81 1582.55 1335.39C1581.59 1335.96 1580.84 1336.73 1580.3 1337.7C1579.76 1338.65 1579.48 1339.72 1579.47 1340.89V1345.76C1579.47 1347.23 1579.74 1348.5 1580.28 1349.58C1580.83 1350.65 1581.62 1351.47 1582.62 1352.06C1583.63 1352.64 1584.83 1352.93 1586.21 1352.93C1587.13 1352.93 1587.97 1352.8 1588.73 1352.54C1589.49 1352.28 1590.14 1351.89 1590.69 1351.38C1591.23 1350.86 1591.64 1350.23 1591.93 1349.48L1599.56 1349.98C1599.17 1351.82 1598.38 1353.42 1597.18 1354.79C1595.99 1356.15 1594.45 1357.2 1592.57 1357.97C1590.69 1358.72 1588.53 1359.09 1586.07 1359.09Z" fill="#616161"/>
<path d="M1259.9 787.047C1259.14 787.085 1258.56 787.725 1258.6 788.477L1259.21 800.742C1259.24 801.495 1259.88 802.074 1260.64 802.037C1261.39 802 1261.97 801.36 1261.93 800.607L1261.39 789.705L1272.29 789.167C1273.05 789.129 1273.63 788.489 1273.59 787.737C1273.55 786.984 1272.91 786.404 1272.16 786.441L1259.9 787.047ZM1449.16 957.946L1260.88 787.399L1259.05 789.421L1447.33 959.969L1449.16 957.946Z" fill="black"/>
</svg>
