<svg width="2560" height="1440" viewBox="0 0 2560 1440" fill="none" xmlns="http://www.w3.org/2000/svg">
<rect width="2560" height="1440" fill="white"/>
<path d="M491.308 526.285C467.769 548.474 456 575.258 456 606.636V774.818H697.111V606.636C697.111 575.257 685.341 548.473 661.801 526.284C638.261 504.095 609.846 493 576.556 493C543.264 493 514.848 504.095 491.308 526.285Z" fill="#616161"/>
<path fill-rule="evenodd" clip-rule="evenodd" d="M459.131 799.706C459.131 767.738 470.588 740.458 493.503 717.866C516.418 695.272 544.089 683.976 576.516 683.976C608.947 683.976 636.631 695.273 659.569 717.868C682.51 740.467 693.98 767.746 693.98 799.706C693.98 814.796 681.748 826.779 657.285 835.656C635.268 843.644 608.358 847.639 576.556 847.639C544.753 847.639 517.843 843.644 495.826 835.656C471.363 826.779 459.131 814.796 459.131 799.706Z" fill="white" stroke="#616161" stroke-width="6.26263"/>
<path fill-rule="evenodd" clip-rule="evenodd" d="M470.874 608.955C470.874 579.101 481.189 553.617 501.819 532.504C522.454 511.387 547.366 500.828 576.556 500.828C605.743 500.828 630.654 511.387 651.29 532.504C671.921 553.618 682.237 579.102 682.237 608.955C682.237 638.81 671.921 664.296 651.29 685.414C630.653 706.536 605.742 717.097 576.556 717.097C547.369 717.097 522.458 706.536 501.822 685.414C481.19 664.296 470.874 638.81 470.874 608.955V608.955Z" fill="white" stroke="#616161" stroke-width="6.26263"/>
<path d="M459.131 618.253C459.131 583.667 470.595 554.145 493.523 529.688C516.451 505.229 544.129 493 576.556 493C608.981 493 636.658 505.229 659.587 529.686C682.515 554.143 693.98 583.665 693.98 618.253H459.131Z" fill="#616161"/>
<path d="M510.785 943.849H500.466L516.189 898.302H528.599L544.3 943.849H533.981L522.572 908.71H522.216L510.785 943.849ZM510.14 925.946H534.515V933.463H510.14V925.946ZM559.078 898.302V943.849H549.604V898.302H559.078ZM566.667 943.849V909.689H576.141V943.849H566.667ZM571.427 905.285C570.018 905.285 568.81 904.818 567.802 903.884C566.808 902.935 566.312 901.801 566.312 900.482C566.312 899.177 566.808 898.058 567.802 897.124C568.81 896.175 570.018 895.7 571.427 895.7C572.835 895.7 574.036 896.175 575.029 897.124C576.038 898.058 576.542 899.177 576.542 900.482C576.542 901.801 576.038 902.935 575.029 903.884C574.036 904.818 572.835 905.285 571.427 905.285ZM599.165 944.516C595.666 944.516 592.656 943.775 590.136 942.292C587.63 940.794 585.702 938.719 584.353 936.065C583.019 933.411 582.352 930.357 582.352 926.902C582.352 923.403 583.026 920.334 584.376 917.695C585.74 915.041 587.674 912.973 590.18 911.49C592.686 909.993 595.666 909.244 599.12 909.244C602.1 909.244 604.71 909.785 606.949 910.868C609.187 911.95 610.959 913.47 612.264 915.427C613.568 917.384 614.288 919.682 614.421 922.321H605.481C605.229 920.616 604.561 919.244 603.479 918.207C602.412 917.154 601.011 916.628 599.276 916.628C597.808 916.628 596.526 917.028 595.429 917.828C594.346 918.614 593.501 919.763 592.893 921.276C592.285 922.788 591.981 924.619 591.981 926.769C591.981 928.948 592.278 930.801 592.871 932.329C593.479 933.856 594.331 935.02 595.429 935.82C596.526 936.621 597.808 937.021 599.276 937.021C600.358 937.021 601.329 936.799 602.189 936.354C603.064 935.909 603.783 935.264 604.347 934.419C604.925 933.559 605.303 932.529 605.481 931.328H614.421C614.273 933.937 613.561 936.235 612.286 938.222C611.026 940.194 609.284 941.736 607.06 942.848C604.836 943.96 602.204 944.516 599.165 944.516ZM636.054 944.516C632.541 944.516 629.516 943.804 626.981 942.381C624.46 940.943 622.518 938.911 621.154 936.287C619.79 933.648 619.108 930.527 619.108 926.924C619.108 923.411 619.79 920.327 621.154 917.673C622.518 915.019 624.438 912.951 626.914 911.468C629.405 909.985 632.326 909.244 635.676 909.244C637.93 909.244 640.028 909.607 641.97 910.334C643.927 911.045 645.632 912.12 647.085 913.559C648.553 914.997 649.695 916.805 650.51 918.985C651.325 921.15 651.733 923.685 651.733 926.591V929.193H622.889V923.322H642.815C642.815 921.958 642.519 920.749 641.926 919.697C641.333 918.644 640.51 917.821 639.457 917.228C638.419 916.62 637.211 916.316 635.832 916.316C634.394 916.316 633.119 916.65 632.007 917.317C630.91 917.969 630.05 918.852 629.427 919.963C628.804 921.061 628.486 922.284 628.471 923.633V929.215C628.471 930.905 628.782 932.366 629.405 933.596C630.042 934.827 630.939 935.776 632.096 936.443C633.252 937.11 634.624 937.444 636.21 937.444C637.263 937.444 638.226 937.295 639.101 936.999C639.976 936.702 640.725 936.258 641.347 935.665C641.97 935.071 642.445 934.345 642.771 933.485L651.533 934.063C651.088 936.169 650.176 938.007 648.798 939.579C647.434 941.135 645.669 942.351 643.505 943.226C641.355 944.086 638.871 944.516 636.054 944.516Z" fill="#616161"/>
<path fill-rule="evenodd" clip-rule="evenodd" d="M928.131 793.706C928.131 761.738 939.588 734.458 962.503 711.866C985.418 689.272 1013.09 677.976 1045.52 677.976C1077.95 677.976 1105.63 689.273 1128.57 711.868C1151.51 734.467 1162.98 761.746 1162.98 793.706C1162.98 808.796 1150.75 820.779 1126.28 829.656C1104.27 837.644 1077.36 841.639 1045.56 841.639C1013.75 841.639 986.843 837.644 964.826 829.656C940.363 820.779 928.131 808.796 928.131 793.706Z" fill="white" stroke="#616161" stroke-width="6.26263"/>
<path fill-rule="evenodd" clip-rule="evenodd" d="M939.874 602.955C939.874 573.101 950.189 547.617 970.819 526.504C991.454 505.387 1016.37 494.828 1045.56 494.828C1074.74 494.828 1099.65 505.387 1120.29 526.504C1140.92 547.618 1151.24 573.102 1151.24 602.955C1151.24 632.81 1140.92 658.296 1120.29 679.414C1099.65 700.536 1074.74 711.097 1045.56 711.097C1016.37 711.097 991.458 700.536 970.822 679.414C950.19 658.296 939.874 632.81 939.874 602.955V602.955Z" fill="white" stroke="#616161" stroke-width="6.26263"/>
<path d="M928.131 612.253C928.131 577.667 939.595 548.145 962.523 523.688C985.451 499.229 1013.13 487 1045.56 487C1077.98 487 1105.66 499.229 1128.59 523.686C1151.52 548.143 1162.98 577.665 1162.98 612.253H928.131Z" fill="#616161"/>
<path d="M989.701 937.849V892.302H1007.94C1011.29 892.302 1014.08 892.799 1016.32 893.792C1018.56 894.786 1020.24 896.165 1021.37 897.929C1022.5 899.678 1023.06 901.695 1023.06 903.978C1023.06 905.757 1022.7 907.321 1021.99 908.67C1021.28 910.005 1020.3 911.102 1019.06 911.962C1017.83 912.807 1016.42 913.407 1014.83 913.763V914.208C1016.57 914.282 1018.19 914.772 1019.7 915.676C1021.23 916.58 1022.47 917.848 1023.42 919.479C1024.37 921.095 1024.84 923.022 1024.84 925.261C1024.84 927.678 1024.24 929.835 1023.04 931.733C1021.85 933.616 1020.1 935.106 1017.77 936.203C1015.44 937.3 1012.57 937.849 1009.16 937.849H989.701ZM999.331 929.976H1007.18C1009.86 929.976 1011.82 929.464 1013.05 928.441C1014.28 927.404 1014.9 926.025 1014.9 924.305C1014.9 923.045 1014.59 921.933 1013.99 920.969C1013.38 920.005 1012.51 919.249 1011.38 918.7C1010.27 918.152 1008.95 917.878 1007.4 917.878H999.331V929.976ZM999.331 911.361H1006.47C1007.79 911.361 1008.96 911.132 1009.98 910.672C1011.02 910.198 1011.84 909.53 1012.43 908.67C1013.04 907.811 1013.34 906.78 1013.34 905.579C1013.34 903.933 1012.76 902.607 1011.58 901.598C1010.43 900.59 1008.78 900.086 1006.65 900.086H999.331V911.361ZM1046.36 938.516C1042.91 938.516 1039.92 937.782 1037.4 936.314C1034.89 934.831 1032.96 932.771 1031.59 930.132C1030.23 927.478 1029.55 924.401 1029.55 920.902C1029.55 917.374 1030.23 914.29 1031.59 911.651C1032.96 908.997 1034.89 906.936 1037.4 905.468C1039.92 903.985 1042.91 903.244 1046.36 903.244C1049.82 903.244 1052.8 903.985 1055.3 905.468C1057.82 906.936 1059.76 908.997 1061.13 911.651C1062.49 914.29 1063.17 917.374 1063.17 920.902C1063.17 924.401 1062.49 927.478 1061.13 930.132C1059.76 932.771 1057.82 934.831 1055.3 936.314C1052.8 937.782 1049.82 938.516 1046.36 938.516ZM1046.41 931.177C1047.98 931.177 1049.29 930.732 1050.34 929.842C1051.4 928.938 1052.19 927.707 1052.72 926.151C1053.27 924.594 1053.55 922.822 1053.55 920.835C1053.55 918.849 1053.27 917.077 1052.72 915.52C1052.19 913.963 1051.4 912.733 1050.34 911.828C1049.29 910.924 1047.98 910.472 1046.41 910.472C1044.82 910.472 1043.49 910.924 1042.4 911.828C1041.34 912.733 1040.53 913.963 1039.98 915.52C1039.45 917.077 1039.18 918.849 1039.18 920.835C1039.18 922.822 1039.45 924.594 1039.98 926.151C1040.53 927.707 1041.34 928.938 1042.4 929.842C1043.49 930.732 1044.82 931.177 1046.41 931.177ZM1069.51 937.849V892.302H1078.99V909.427H1079.28C1079.69 908.507 1080.29 907.573 1081.08 906.624C1081.88 905.661 1082.92 904.86 1084.19 904.223C1085.48 903.57 1087.08 903.244 1088.99 903.244C1091.49 903.244 1093.78 903.896 1095.89 905.201C1097.99 906.491 1099.68 908.441 1100.94 911.05C1102.2 913.645 1102.83 916.899 1102.83 920.813C1102.83 924.624 1102.21 927.841 1100.98 930.465C1099.77 933.075 1098.11 935.054 1096 936.403C1093.91 937.737 1091.57 938.405 1088.97 938.405C1087.13 938.405 1085.57 938.101 1084.28 937.493C1083 936.885 1081.96 936.121 1081.14 935.202C1080.33 934.268 1079.71 933.327 1079.28 932.378H1078.85V937.849H1069.51ZM1078.79 920.769C1078.79 922.8 1079.07 924.572 1079.63 926.084C1080.2 927.596 1081.01 928.775 1082.08 929.62C1083.15 930.45 1084.44 930.865 1085.97 930.865C1087.51 930.865 1088.82 930.443 1089.88 929.598C1090.95 928.738 1091.76 927.552 1092.31 926.039C1092.87 924.512 1093.15 922.755 1093.15 920.769C1093.15 918.797 1092.88 917.062 1092.33 915.565C1091.78 914.067 1090.97 912.896 1089.91 912.051C1088.84 911.206 1087.53 910.783 1085.97 910.783C1084.43 910.783 1083.12 911.191 1082.06 912.006C1081 912.822 1080.2 913.978 1079.63 915.476C1079.07 916.973 1078.79 918.738 1078.79 920.769Z" fill="#616161"/>
<path fill-rule="evenodd" clip-rule="evenodd" d="M1397.13 792.009C1397.13 760.041 1408.59 732.762 1431.5 710.169C1454.42 687.576 1482.09 676.279 1514.52 676.279C1546.95 676.279 1574.63 687.576 1597.57 710.172C1620.51 732.77 1631.98 760.049 1631.98 792.009C1631.98 807.099 1619.75 819.082 1595.28 827.959C1573.27 835.948 1546.36 839.942 1514.56 839.942C1482.75 839.942 1455.84 835.948 1433.83 827.959C1409.36 819.082 1397.13 807.099 1397.13 792.009Z" fill="white" stroke="#616161" stroke-width="6.26263"/>
<path fill-rule="evenodd" clip-rule="evenodd" d="M1408.87 601.259C1408.87 571.404 1419.19 545.92 1439.82 524.808C1460.45 503.69 1485.37 493.131 1514.56 493.131C1543.74 493.131 1568.65 503.69 1589.29 524.808C1609.92 545.921 1620.24 571.405 1620.24 601.259C1620.24 631.113 1609.92 656.6 1589.29 677.717C1568.65 698.84 1543.74 709.401 1514.56 709.401C1485.37 709.401 1460.46 698.84 1439.82 677.717C1419.19 656.6 1408.87 631.113 1408.87 601.259V601.259Z" fill="white" stroke="#616161" stroke-width="6.26263"/>
<path fill-rule="evenodd" clip-rule="evenodd" d="M1437.24 574.116C1435.01 576.394 1433.66 580.028 1433.66 585.523V606.78C1433.66 612.275 1435.01 615.908 1437.24 618.187C1439.48 620.465 1443.05 621.837 1448.44 621.837H1488.28C1493.68 621.837 1497.24 620.465 1499.48 618.187C1501.72 615.908 1503.06 612.275 1503.06 606.78V585.523C1503.06 580.028 1501.72 576.394 1499.48 574.116C1497.24 571.838 1493.68 570.466 1488.28 570.466H1448.44C1443.05 570.466 1439.48 571.838 1437.24 574.116ZM1433.56 570.358C1437.12 566.732 1442.24 565.151 1448.44 565.151H1488.28C1494.48 565.151 1499.61 566.732 1503.17 570.358C1506.73 573.985 1508.28 579.208 1508.28 585.523V593.494H1520.83V585.523C1520.83 579.208 1522.38 573.985 1525.94 570.358C1529.5 566.732 1534.63 565.151 1540.83 565.151H1580.67C1586.87 565.151 1592 566.732 1595.56 570.358C1599.12 573.985 1600.67 579.208 1600.67 585.523V606.78C1600.67 613.094 1599.12 618.318 1595.56 621.945C1592 625.571 1586.87 627.151 1580.67 627.151H1540.83C1534.63 627.151 1529.5 625.571 1525.94 621.945C1522.38 618.318 1520.83 613.094 1520.83 606.78V598.809H1508.28V606.78C1508.28 613.094 1506.73 618.318 1503.17 621.945C1499.61 625.571 1494.48 627.151 1488.28 627.151H1448.44C1442.24 627.151 1437.12 625.571 1433.56 621.945C1430 618.318 1428.44 613.094 1428.44 606.78V585.523C1428.44 579.208 1430 573.985 1433.56 570.358ZM1529.63 574.116C1527.39 576.394 1526.05 580.028 1526.05 585.523V606.78C1526.05 612.275 1527.39 615.908 1529.63 618.187C1531.87 620.465 1535.43 621.837 1540.83 621.837H1580.67C1586.06 621.837 1589.63 620.465 1591.87 618.187C1594.1 615.908 1595.45 612.275 1595.45 606.78V585.523C1595.45 580.028 1594.1 576.394 1591.87 574.116C1589.63 571.838 1586.06 570.466 1580.67 570.466H1540.83C1535.43 570.466 1531.87 571.838 1529.63 574.116Z" fill="#616161"/>
<path d="M1448.86 906.551H1439.12C1438.94 905.29 1438.58 904.171 1438.03 903.193C1437.48 902.199 1436.78 901.354 1435.92 900.657C1435.06 899.96 1434.06 899.427 1432.94 899.056C1431.82 898.685 1430.62 898.5 1429.31 898.5C1426.95 898.5 1424.9 899.086 1423.15 900.257C1421.4 901.413 1420.05 903.104 1419.08 905.328C1418.12 907.537 1417.64 910.22 1417.64 913.378C1417.64 916.625 1418.12 919.353 1419.08 921.562C1420.06 923.771 1421.42 925.439 1423.17 926.566C1424.92 927.693 1426.95 928.256 1429.25 928.256C1430.53 928.256 1431.73 928.086 1432.83 927.745C1433.94 927.404 1434.92 926.907 1435.78 926.255C1436.64 925.588 1437.36 924.78 1437.92 923.831C1438.5 922.882 1438.9 921.8 1439.12 920.584L1448.86 920.628C1448.61 922.719 1447.98 924.735 1446.97 926.677C1445.98 928.605 1444.63 930.332 1442.94 931.859C1441.27 933.371 1439.27 934.572 1436.94 935.462C1434.63 936.337 1432.01 936.774 1429.09 936.774C1425.03 936.774 1421.39 935.855 1418.19 934.016C1415 932.178 1412.48 929.517 1410.63 926.032C1408.79 922.548 1407.87 918.33 1407.87 913.378C1407.87 908.411 1408.81 904.186 1410.68 900.702C1412.54 897.218 1415.08 894.564 1418.28 892.74C1421.48 890.902 1425.09 889.982 1429.09 889.982C1431.73 889.982 1434.17 890.353 1436.43 891.094C1438.7 891.836 1440.71 892.918 1442.46 894.341C1444.2 895.75 1445.63 897.477 1446.73 899.523C1447.84 901.569 1448.55 903.912 1448.86 906.551ZM1465.06 916.403V936.151H1455.59V890.605H1464.79V908.018H1465.2C1465.97 906.002 1467.21 904.423 1468.93 903.281C1470.65 902.125 1472.81 901.547 1475.4 901.547C1477.78 901.547 1479.84 902.066 1481.61 903.104C1483.39 904.127 1484.77 905.602 1485.74 907.529C1486.74 909.442 1487.23 911.732 1487.21 914.401V936.151H1477.74V916.091C1477.75 913.986 1477.22 912.348 1476.14 911.176C1475.07 910.005 1473.57 909.42 1471.64 909.42C1470.35 909.42 1469.21 909.694 1468.22 910.242C1467.24 910.791 1466.47 911.592 1465.91 912.644C1465.36 913.682 1465.08 914.935 1465.06 916.403ZM1504.41 936.796C1502.23 936.796 1500.29 936.418 1498.58 935.662C1496.88 934.891 1495.53 933.757 1494.53 932.259C1493.56 930.747 1493.07 928.864 1493.07 926.611C1493.07 924.713 1493.42 923.119 1494.11 921.829C1494.81 920.539 1495.76 919.501 1496.96 918.716C1498.16 917.93 1499.52 917.337 1501.05 916.936C1502.59 916.536 1504.21 916.254 1505.9 916.091C1507.89 915.884 1509.49 915.691 1510.7 915.513C1511.92 915.32 1512.8 915.039 1513.35 914.668C1513.9 914.297 1514.17 913.749 1514.17 913.022V912.889C1514.17 911.48 1513.73 910.391 1512.84 909.62C1511.96 908.849 1510.72 908.463 1509.1 908.463C1507.4 908.463 1506.04 908.841 1505.03 909.597C1504.02 910.339 1503.36 911.273 1503.03 912.4L1494.27 911.688C1494.71 909.612 1495.59 907.818 1496.89 906.306C1498.2 904.779 1499.88 903.608 1501.94 902.792C1504.02 901.962 1506.42 901.547 1509.15 901.547C1511.04 901.547 1512.86 901.769 1514.59 902.214C1516.34 902.659 1517.89 903.348 1519.24 904.282C1520.61 905.216 1521.68 906.417 1522.47 907.885C1523.25 909.338 1523.65 911.08 1523.65 913.111V936.151H1514.66V931.414H1514.39C1513.85 932.482 1513.11 933.423 1512.19 934.239C1511.27 935.039 1510.17 935.67 1508.88 936.129C1507.59 936.574 1506.1 936.796 1504.41 936.796ZM1507.12 930.258C1508.52 930.258 1509.75 929.984 1510.81 929.435C1511.88 928.872 1512.72 928.116 1513.33 927.167C1513.93 926.218 1514.24 925.143 1514.24 923.942V920.317C1513.94 920.51 1513.53 920.688 1513.02 920.851C1512.51 920.999 1511.94 921.14 1511.3 921.273C1510.67 921.392 1510.03 921.503 1509.39 921.607C1508.75 921.696 1508.17 921.777 1507.66 921.851C1506.54 922.014 1505.57 922.274 1504.74 922.63C1503.91 922.986 1503.27 923.467 1502.81 924.075C1502.35 924.668 1502.12 925.41 1502.12 926.299C1502.12 927.589 1502.59 928.575 1503.52 929.257C1504.47 929.924 1505.67 930.258 1507.12 930.258ZM1531 936.151V901.992H1540.18V907.952H1540.54C1541.16 905.832 1542.2 904.23 1543.67 903.148C1545.14 902.051 1546.83 901.502 1548.74 901.502C1549.22 901.502 1549.73 901.532 1550.28 901.591C1550.83 901.651 1551.31 901.732 1551.72 901.836V910.242C1551.28 910.109 1550.66 909.99 1549.88 909.887C1549.09 909.783 1548.37 909.731 1547.72 909.731C1546.33 909.731 1545.08 910.035 1543.98 910.643C1542.9 911.236 1542.04 912.066 1541.4 913.134C1540.78 914.201 1540.47 915.432 1540.47 916.825V936.151H1531ZM1566.1 890.605V936.151H1556.62V890.605H1566.1ZM1573.68 936.151V901.992H1583.16V936.151H1573.68ZM1578.44 897.588C1577.04 897.588 1575.83 897.121 1574.82 896.187C1573.83 895.238 1573.33 894.104 1573.33 892.784C1573.33 891.48 1573.83 890.36 1574.82 889.426C1575.83 888.477 1577.04 888.003 1578.44 888.003C1579.85 888.003 1581.05 888.477 1582.05 889.426C1583.05 890.36 1583.56 891.48 1583.56 892.784C1583.56 894.104 1583.05 895.238 1582.05 896.187C1581.05 897.121 1579.85 897.588 1578.44 897.588ZM1606.32 936.819C1602.8 936.819 1599.78 936.107 1597.24 934.684C1594.72 933.245 1592.78 931.214 1591.42 928.59C1590.05 925.951 1589.37 922.83 1589.37 919.227C1589.37 915.713 1590.05 912.629 1591.42 909.976C1592.78 907.322 1594.7 905.253 1597.18 903.771C1599.67 902.288 1602.59 901.547 1605.94 901.547C1608.19 901.547 1610.29 901.91 1612.23 902.637C1614.19 903.348 1615.89 904.423 1617.35 905.861C1618.81 907.299 1619.96 909.108 1620.77 911.288C1621.59 913.452 1621.99 915.988 1621.99 918.894V921.496H1593.15V915.624H1613.08C1613.08 914.26 1612.78 913.052 1612.19 911.999C1611.59 910.947 1610.77 910.124 1609.72 909.531C1608.68 908.923 1607.47 908.619 1606.09 908.619C1604.65 908.619 1603.38 908.953 1602.27 909.62C1601.17 910.272 1600.31 911.154 1599.69 912.266C1599.07 913.363 1598.75 914.587 1598.73 915.936V921.518C1598.73 923.208 1599.04 924.668 1599.67 925.899C1600.3 927.13 1601.2 928.078 1602.36 928.746C1603.51 929.413 1604.88 929.746 1606.47 929.746C1607.52 929.746 1608.49 929.598 1609.36 929.302C1610.24 929.005 1610.99 928.56 1611.61 927.967C1612.23 927.374 1612.71 926.648 1613.03 925.788L1621.79 926.366C1621.35 928.471 1620.44 930.31 1619.06 931.881C1617.69 933.438 1615.93 934.654 1613.77 935.529C1611.62 936.389 1609.13 936.819 1606.32 936.819Z" fill="#616161"/>
<path fill-rule="evenodd" clip-rule="evenodd" d="M1866.13 792.009C1866.13 760.041 1877.59 732.762 1900.5 710.169C1923.42 687.576 1951.09 676.279 1983.52 676.279C2015.95 676.279 2043.63 687.576 2066.57 710.172C2089.51 732.77 2100.98 760.049 2100.98 792.009C2100.98 807.099 2088.75 819.082 2064.28 827.959C2042.27 835.948 2015.36 839.942 1983.56 839.942C1951.75 839.942 1924.84 835.948 1902.83 827.959C1878.36 819.082 1866.13 807.099 1866.13 792.009Z" fill="white" stroke="#616161" stroke-width="6.26263"/>
<path fill-rule="evenodd" clip-rule="evenodd" d="M1877.87 601.259C1877.87 571.404 1888.19 545.92 1908.82 524.808C1929.45 503.69 1954.37 493.131 1983.56 493.131C2012.74 493.131 2037.65 503.69 2058.29 524.808C2078.92 545.921 2089.24 571.405 2089.24 601.259C2089.24 631.113 2078.92 656.6 2058.29 677.717C2037.65 698.84 2012.74 709.401 1983.56 709.401C1954.37 709.401 1929.46 698.84 1908.82 677.717C1888.19 656.6 1877.87 631.113 1877.87 601.259V601.259Z" fill="white" stroke="#616161" stroke-width="6.26263"/>
<path d="M1937.72 676.09C1957.17 678.475 1972.96 678.475 1985.09 676.09C1996.62 673.823 2010.44 668.157 2026.54 659.091" stroke="#616161" stroke-width="5.6755"/>
<path d="M2081.78 536.97C2087.79 549.037 2088.5 561.601 2083.91 574.663C2079.32 587.725 2070.77 597.458 2058.27 603.863C2045.77 610.267 2032.97 611.466 2019.89 607.461C2006.8 603.457 1997.25 595.42 1991.24 583.353L2081.78 536.97Z" fill="#616161" stroke="#616161" stroke-width="5.6755"/>
<path d="M1969.61 581.856C1963.6 593.535 1954.05 601.312 1940.96 605.188C1927.87 609.063 1915.08 607.902 1902.58 601.705C1890.08 595.507 1881.53 586.088 1876.94 573.447C1872.35 560.807 1873.06 548.648 1879.07 536.97L1969.61 581.856Z" fill="#616161" stroke="#616161" stroke-width="5.6755"/>
<path d="M1931.83 936.151V890.605H1962.52V898.544H1941.46V909.397H1960.94V917.337H1941.46V928.212H1962.61V936.151H1931.83ZM2001.84 901.992L1989.9 936.151H1979.23L1967.28 901.992H1977.29L1984.39 926.433H1984.74L1991.81 901.992H2001.84ZM2021.16 936.819C2017.65 936.819 2014.62 936.107 2012.09 934.684C2009.57 933.245 2007.62 931.214 2006.26 928.59C2004.9 925.951 2004.21 922.83 2004.21 919.227C2004.21 915.713 2004.9 912.629 2006.26 909.976C2007.62 907.322 2009.54 905.253 2012.02 903.771C2014.51 902.288 2017.43 901.547 2020.78 901.547C2023.04 901.547 2025.13 901.91 2027.08 902.637C2029.03 903.348 2030.74 904.423 2032.19 905.861C2033.66 907.299 2034.8 909.108 2035.62 911.288C2036.43 913.452 2036.84 915.988 2036.84 918.894V921.496H2007.99V915.624H2027.92C2027.92 914.26 2027.62 913.052 2027.03 911.999C2026.44 910.947 2025.62 910.124 2024.56 909.531C2023.52 908.923 2022.32 908.619 2020.94 908.619C2019.5 908.619 2018.22 908.953 2017.11 909.62C2016.02 910.272 2015.16 911.154 2014.53 912.266C2013.91 913.363 2013.59 914.587 2013.58 915.936V921.518C2013.58 923.208 2013.89 924.668 2014.51 925.899C2015.15 927.13 2016.04 928.078 2017.2 928.746C2018.36 929.413 2019.73 929.746 2021.32 929.746C2022.37 929.746 2023.33 929.598 2024.21 929.302C2025.08 929.005 2025.83 928.56 2026.45 927.967C2027.08 927.374 2027.55 926.648 2027.88 925.788L2036.64 926.366C2036.19 928.471 2035.28 930.31 2033.9 931.881C2032.54 933.438 2030.77 934.654 2028.61 935.529C2026.46 936.389 2023.98 936.819 2021.16 936.819ZM1763.08 989.378C1763.08 983.774 1763.81 978.622 1765.26 973.922C1766.73 969.207 1768.82 964.87 1771.54 960.912H1776.16C1775.09 962.379 1774.09 964.188 1773.16 966.338C1772.24 968.473 1771.43 970.823 1770.74 973.388C1770.04 975.938 1769.49 978.577 1769.09 981.305C1768.7 984.033 1768.51 986.724 1768.51 989.378C1768.51 992.907 1768.85 996.487 1769.53 1000.12C1770.22 1003.75 1771.14 1007.13 1772.29 1010.24C1773.45 1013.35 1774.74 1015.89 1776.16 1017.84H1771.54C1768.82 1013.89 1766.73 1009.56 1765.26 1004.86C1763.81 1000.14 1763.08 994.983 1763.08 989.378ZM1784.62 1012.15V966.605H1812.11V971.498H1790.13V986.887H1810.68V991.78H1790.13V1007.26H1812.46V1012.15H1784.62ZM1831.39 1012.95C1829.22 1012.95 1827.26 1012.54 1825.49 1011.73C1823.73 1010.9 1822.33 1009.71 1821.29 1008.15C1820.25 1006.58 1819.73 1004.68 1819.73 1002.45C1819.73 1000.5 1820.12 998.911 1820.89 997.696C1821.66 996.465 1822.69 995.501 1823.98 994.805C1825.27 994.108 1826.7 993.589 1828.25 993.248C1829.82 992.892 1831.4 992.61 1832.99 992.403C1835.06 992.136 1836.75 991.936 1838.04 991.802C1839.34 991.654 1840.29 991.409 1840.88 991.068C1841.49 990.727 1841.8 990.134 1841.8 989.289V989.111C1841.8 986.917 1841.2 985.212 1839.99 983.996C1838.81 982.78 1837.01 982.173 1834.59 982.173C1832.08 982.173 1830.12 982.721 1828.7 983.818C1827.27 984.915 1826.27 986.087 1825.69 987.332L1820.71 985.553C1821.6 983.477 1822.79 981.861 1824.27 980.705C1825.77 979.534 1827.4 978.718 1829.16 978.258C1830.94 977.784 1832.69 977.547 1834.41 977.547C1835.51 977.547 1836.77 977.68 1838.19 977.947C1839.63 978.199 1841.02 978.725 1842.35 979.526C1843.7 980.327 1844.82 981.535 1845.71 983.151C1846.6 984.767 1847.04 986.932 1847.04 989.645V1012.15H1841.8V1007.53H1841.53C1841.17 1008.27 1840.58 1009.06 1839.75 1009.91C1838.92 1010.75 1837.82 1011.47 1836.44 1012.06C1835.06 1012.66 1833.37 1012.95 1831.39 1012.95ZM1832.19 1008.24C1834.26 1008.24 1836.01 1007.83 1837.44 1007.01C1838.88 1006.2 1839.96 1005.15 1840.68 1003.86C1841.43 1002.57 1841.8 1001.21 1841.8 999.786V994.983C1841.57 995.249 1841.08 995.494 1840.33 995.716C1839.59 995.924 1838.73 996.109 1837.75 996.272C1836.78 996.421 1835.84 996.554 1834.92 996.673C1834.02 996.777 1833.29 996.865 1832.72 996.94C1831.36 997.118 1830.08 997.407 1828.9 997.807C1827.73 998.192 1826.78 998.778 1826.05 999.564C1825.34 1000.33 1824.98 1001.39 1824.98 1002.72C1824.98 1004.55 1825.66 1005.92 1827.01 1006.86C1828.37 1007.78 1830.1 1008.24 1832.19 1008.24ZM1883.33 977.992L1870.7 1012.15H1865.36L1852.73 977.992H1858.43L1867.85 1005.21H1868.21L1877.64 977.992H1883.33ZM1903.36 1012.86C1900.07 1012.86 1897.23 1012.14 1894.84 1010.68C1892.47 1009.22 1890.64 1007.17 1889.35 1004.55C1888.07 1001.91 1887.44 998.837 1887.44 995.338C1887.44 991.839 1888.07 988.755 1889.35 986.087C1890.64 983.403 1892.43 981.313 1894.73 979.815C1897.04 978.303 1899.74 977.547 1902.83 977.547C1904.61 977.547 1906.36 977.843 1908.1 978.436C1909.83 979.029 1911.41 979.993 1912.83 981.328C1914.26 982.647 1915.39 984.397 1916.24 986.576C1917.08 988.755 1917.5 991.439 1917.5 994.627V996.851H1891.17V992.314H1912.17C1912.17 990.386 1911.78 988.667 1911.01 987.154C1910.25 985.642 1909.17 984.448 1907.76 983.574C1906.37 982.699 1904.72 982.262 1902.83 982.262C1900.74 982.262 1898.93 982.78 1897.4 983.818C1895.89 984.841 1894.72 986.176 1893.91 987.821C1893.09 989.467 1892.69 991.231 1892.69 993.114V996.139C1892.69 998.719 1893.13 1000.91 1894.02 1002.7C1894.92 1004.48 1896.18 1005.84 1897.78 1006.77C1899.38 1007.69 1901.24 1008.15 1903.36 1008.15C1904.74 1008.15 1905.98 1007.96 1907.1 1007.57C1908.22 1007.17 1909.19 1006.58 1910.01 1005.79C1910.83 1004.99 1911.46 1004 1911.9 1002.81L1916.97 1004.23C1916.44 1005.95 1915.54 1007.47 1914.28 1008.77C1913.02 1010.06 1911.46 1011.07 1909.61 1011.8C1907.76 1012.51 1905.67 1012.86 1903.36 1012.86ZM1949.68 985.642L1944.97 986.976C1944.67 986.191 1944.24 985.427 1943.66 984.686C1943.09 983.93 1942.32 983.307 1941.35 982.818C1940.37 982.328 1939.11 982.084 1937.59 982.084C1935.5 982.084 1933.75 982.565 1932.36 983.529C1930.98 984.478 1930.29 985.686 1930.29 987.154C1930.29 988.459 1930.77 989.489 1931.72 990.246C1932.66 991.002 1934.15 991.632 1936.16 992.136L1941.23 993.381C1944.29 994.123 1946.56 995.257 1948.06 996.784C1949.56 998.296 1950.31 1000.25 1950.31 1002.63C1950.31 1004.59 1949.74 1006.34 1948.62 1007.88C1947.51 1009.42 1945.95 1010.64 1943.95 1011.53C1941.95 1012.42 1939.62 1012.86 1936.96 1012.86C1933.48 1012.86 1930.6 1012.11 1928.31 1010.59C1926.03 1009.08 1924.58 1006.87 1923.98 1003.97L1928.96 1002.72C1929.43 1004.56 1930.33 1005.94 1931.65 1006.86C1932.98 1007.78 1934.73 1008.24 1936.88 1008.24C1939.32 1008.24 1941.26 1007.72 1942.7 1006.68C1944.15 1005.63 1944.88 1004.37 1944.88 1002.9C1944.88 1001.71 1944.47 1000.72 1943.64 999.92C1942.81 999.104 1941.53 998.496 1939.81 998.096L1934.12 996.762C1930.99 996.02 1928.69 994.871 1927.22 993.315C1925.77 991.743 1925.04 989.778 1925.04 987.421C1925.04 985.494 1925.58 983.789 1926.67 982.306C1927.76 980.823 1929.25 979.66 1931.14 978.814C1933.04 977.969 1935.18 977.547 1937.59 977.547C1940.97 977.547 1943.62 978.288 1945.55 979.771C1947.49 981.253 1948.87 983.21 1949.68 985.642ZM1971.11 1012.86C1968.26 1012.86 1965.75 1012.14 1963.57 1010.71C1961.39 1009.25 1959.68 1007.21 1958.45 1004.57C1957.22 1001.91 1956.61 998.778 1956.61 995.16C1956.61 991.572 1957.22 988.459 1958.45 985.82C1959.68 983.181 1961.4 981.142 1963.59 979.704C1965.78 978.266 1968.32 977.547 1971.2 977.547C1973.42 977.547 1975.18 977.917 1976.47 978.659C1977.77 979.385 1978.76 980.216 1979.45 981.15C1980.14 982.069 1980.68 982.825 1981.07 983.418H1981.52V966.605H1986.76V1012.15H1981.69V1006.9H1981.07C1980.68 1007.53 1980.14 1008.31 1979.42 1009.26C1978.71 1010.19 1977.7 1011.03 1976.38 1011.77C1975.06 1012.5 1973.3 1012.86 1971.11 1012.86ZM1971.82 1008.15C1973.92 1008.15 1975.7 1007.6 1977.16 1006.5C1978.61 1005.39 1979.71 1003.86 1980.47 1001.9C1981.23 999.927 1981.6 997.651 1981.6 995.071C1981.6 992.521 1981.23 990.29 1980.49 988.377C1979.75 986.45 1978.65 984.953 1977.2 983.885C1975.75 982.803 1973.95 982.262 1971.82 982.262C1969.59 982.262 1967.74 982.832 1966.26 983.974C1964.79 985.101 1963.69 986.635 1962.95 988.578C1962.22 990.505 1961.86 992.67 1961.86 995.071C1961.86 997.503 1962.23 999.712 1962.97 1001.7C1963.72 1003.67 1964.84 1005.24 1966.3 1006.41C1967.79 1007.57 1969.62 1008.15 1971.82 1008.15ZM1997.11 1012.15V977.992H2002.18V983.151H2002.53C2003.15 981.461 2004.28 980.09 2005.91 979.037C2007.54 977.984 2009.38 977.458 2011.43 977.458C2011.81 977.458 2012.29 977.465 2012.87 977.48C2013.45 977.495 2013.89 977.517 2014.18 977.547V982.884C2014.01 982.84 2013.6 982.773 2012.96 982.684C2012.34 982.58 2011.68 982.528 2010.98 982.528C2009.32 982.528 2007.84 982.877 2006.53 983.574C2005.24 984.256 2004.22 985.205 2003.47 986.42C2002.72 987.621 2002.35 988.993 2002.35 990.535V1012.15H1997.11ZM2033.24 1012.86C2030.16 1012.86 2027.45 1012.13 2025.13 1010.66C2022.81 1009.19 2021.01 1007.14 2019.7 1004.5C2018.41 1001.86 2017.77 998.778 2017.77 995.249C2017.77 991.691 2018.41 988.585 2019.7 985.931C2021.01 983.277 2022.81 981.216 2025.13 979.749C2027.45 978.281 2030.16 977.547 2033.24 977.547C2036.33 977.547 2039.03 978.281 2041.34 979.749C2043.67 981.216 2045.48 983.277 2046.77 985.931C2048.07 988.585 2048.72 991.691 2048.72 995.249C2048.72 998.778 2048.07 1001.86 2046.77 1004.5C2045.48 1007.14 2043.67 1009.19 2041.34 1010.66C2039.03 1012.13 2036.33 1012.86 2033.24 1012.86ZM2033.24 1008.15C2035.59 1008.15 2037.51 1007.55 2039.03 1006.35C2040.54 1005.15 2041.66 1003.57 2042.38 1001.61C2043.11 999.653 2043.47 997.533 2043.47 995.249C2043.47 992.966 2043.11 990.839 2042.38 988.867C2041.66 986.895 2040.54 985.301 2039.03 984.085C2037.51 982.869 2035.59 982.262 2033.24 982.262C2030.9 982.262 2028.97 982.869 2027.46 984.085C2025.95 985.301 2024.83 986.895 2024.1 988.867C2023.38 990.839 2023.01 992.966 2023.01 995.249C2023.01 997.533 2023.38 999.653 2024.1 1001.61C2024.83 1003.57 2025.95 1005.15 2027.46 1006.35C2028.97 1007.55 2030.9 1008.15 2033.24 1008.15ZM2056.73 1024.96V977.992H2061.81V983.418H2062.43C2062.81 982.825 2063.35 982.069 2064.03 981.15C2064.73 980.216 2065.72 979.385 2067.01 978.659C2068.31 977.917 2070.08 977.547 2072.3 977.547C2075.18 977.547 2077.71 978.266 2079.91 979.704C2082.1 981.142 2083.81 983.181 2085.05 985.82C2086.28 988.459 2086.89 991.572 2086.89 995.16C2086.89 998.778 2086.28 1001.91 2085.05 1004.57C2083.81 1007.21 2082.11 1009.25 2079.93 1010.71C2077.75 1012.14 2075.24 1012.86 2072.39 1012.86C2070.2 1012.86 2068.44 1012.5 2067.12 1011.77C2065.8 1011.03 2064.79 1010.19 2064.07 1009.26C2063.36 1008.31 2062.81 1007.53 2062.43 1006.9H2061.98V1024.96H2056.73ZM2061.89 995.071C2061.89 997.651 2062.27 999.927 2063.03 1001.9C2063.78 1003.86 2064.89 1005.39 2066.34 1006.5C2067.79 1007.6 2069.57 1008.15 2071.68 1008.15C2073.87 1008.15 2075.7 1007.57 2077.17 1006.41C2078.66 1005.24 2079.77 1003.67 2080.51 1001.7C2081.26 999.712 2081.64 997.503 2081.64 995.071C2081.64 992.67 2081.27 990.505 2080.53 988.578C2079.8 986.635 2078.7 985.101 2077.22 983.974C2075.75 982.832 2073.9 982.262 2071.68 982.262C2069.54 982.262 2067.75 982.803 2066.3 983.885C2064.84 984.953 2063.75 986.45 2063.01 988.377C2062.26 990.29 2061.89 992.521 2061.89 995.071ZM2094.9 1024.96V977.992H2099.97V983.418H2100.59C2100.98 982.825 2101.51 982.069 2102.19 981.15C2102.89 980.216 2103.88 979.385 2105.17 978.659C2106.48 977.917 2108.24 977.547 2110.47 977.547C2113.34 977.547 2115.88 978.266 2118.07 979.704C2120.27 981.142 2121.98 983.181 2123.21 985.82C2124.44 988.459 2125.05 991.572 2125.05 995.16C2125.05 998.778 2124.44 1001.91 2123.21 1004.57C2121.98 1007.21 2120.27 1009.25 2118.09 1010.71C2115.91 1012.14 2113.4 1012.86 2110.55 1012.86C2108.36 1012.86 2106.6 1012.5 2105.28 1011.77C2103.96 1011.03 2102.95 1010.19 2102.24 1009.26C2101.52 1008.31 2100.98 1007.53 2100.59 1006.9H2100.15V1024.96H2094.9ZM2100.06 995.071C2100.06 997.651 2100.44 999.927 2101.19 1001.9C2101.95 1003.86 2103.05 1005.39 2104.5 1006.5C2105.96 1007.6 2107.74 1008.15 2109.84 1008.15C2112.04 1008.15 2113.87 1007.57 2115.34 1006.41C2116.82 1005.24 2117.93 1003.67 2118.67 1001.7C2119.43 999.712 2119.81 997.503 2119.81 995.071C2119.81 992.67 2119.43 990.505 2118.69 988.578C2117.97 986.635 2116.86 985.101 2115.38 983.974C2113.91 982.832 2112.07 982.262 2109.84 982.262C2107.71 982.262 2105.91 982.803 2104.46 983.885C2103.01 984.953 2101.91 986.45 2101.17 988.377C2100.43 990.29 2100.06 992.521 2100.06 995.071ZM2147.38 1012.86C2144.09 1012.86 2141.25 1012.14 2138.86 1010.68C2136.49 1009.22 2134.66 1007.17 2133.37 1004.55C2132.1 1001.91 2131.46 998.837 2131.46 995.338C2131.46 991.839 2132.1 988.755 2133.37 986.087C2134.66 983.403 2136.46 981.313 2138.75 979.815C2141.07 978.303 2143.76 977.547 2146.85 977.547C2148.63 977.547 2150.38 977.843 2152.12 978.436C2153.85 979.029 2155.43 979.993 2156.86 981.328C2158.28 982.647 2159.41 984.397 2160.26 986.576C2161.1 988.755 2161.53 991.439 2161.53 994.627V996.851H2135.2V992.314H2156.19C2156.19 990.386 2155.8 988.667 2155.03 987.154C2154.28 985.642 2153.19 984.448 2151.79 983.574C2150.39 982.699 2148.75 982.262 2146.85 982.262C2144.76 982.262 2142.95 982.78 2141.42 983.818C2139.91 984.841 2138.75 986.176 2137.93 987.821C2137.12 989.467 2136.71 991.231 2136.71 993.114V996.139C2136.71 998.719 2137.15 1000.91 2138.04 1002.7C2138.95 1004.48 2140.2 1005.84 2141.8 1006.77C2143.4 1007.69 2145.26 1008.15 2147.38 1008.15C2148.76 1008.15 2150.01 1007.96 2151.12 1007.57C2152.25 1007.17 2153.22 1006.58 2154.03 1005.79C2154.85 1004.99 2155.48 1004 2155.92 1002.81L2160.99 1004.23C2160.46 1005.95 2159.56 1007.47 2158.3 1008.77C2157.04 1010.06 2155.49 1011.07 2153.63 1011.8C2151.78 1012.51 2149.7 1012.86 2147.38 1012.86ZM2169.51 1012.15V977.992H2174.58V983.151H2174.94C2175.56 981.461 2176.69 980.09 2178.32 979.037C2179.95 977.984 2181.79 977.458 2183.83 977.458C2184.22 977.458 2184.7 977.465 2185.28 977.48C2185.86 977.495 2186.29 977.517 2186.59 977.547V982.884C2186.41 982.84 2186.01 982.773 2185.37 982.684C2184.74 982.58 2184.08 982.528 2183.39 982.528C2181.73 982.528 2180.24 982.877 2178.94 983.574C2177.65 984.256 2176.63 985.205 2175.87 986.42C2175.13 987.621 2174.76 988.993 2174.76 990.535V1012.15H2169.51ZM2204.02 992.936C2204.02 998.541 2203.29 1003.7 2201.82 1008.42C2200.37 1013.12 2198.28 1017.44 2195.57 1021.4H2190.94C2192.01 1019.94 2193 1018.13 2193.92 1015.98C2194.86 1013.84 2195.67 1011.5 2196.37 1008.95C2197.07 1006.38 2197.61 1003.74 2197.99 1001.01C2198.39 998.267 2198.59 995.576 2198.59 992.936C2198.59 989.408 2198.25 985.827 2197.57 982.195C2196.89 978.562 2195.97 975.189 2194.81 972.076C2193.66 968.962 2192.37 966.427 2190.94 964.47H2195.57C2198.28 968.429 2200.37 972.765 2201.82 977.48C2203.29 982.18 2204.02 987.332 2204.02 992.936Z" fill="#616161"/>
</svg>
