<svg width="800" height="600" viewBox="0 0 800 600" fill="none" xmlns="http://www.w3.org/2000/svg">
<rect width="800" height="600" fill="white"/>
<path d="M144.998 188.46H109.544C102.362 199.974 96.32 206.7 87.2 213.882L86.174 212.97C92.33 203.166 96.434 194.844 99.854 185.268C103.16 176.034 104.87 169.422 105.212 163.038C124.706 167.712 124.706 167.712 124.706 169.194C124.706 170.448 123.224 171.018 118.664 171.36C115.7 177.972 113.99 181.164 111.026 186.066H144.542C147.392 182.76 148.304 181.734 151.268 178.77C156.512 182.988 158.108 184.356 163.124 188.802C164.15 189.828 164.606 190.512 164.606 191.082C164.606 192.222 163.466 192.678 160.844 192.678H158.222C147.734 203.394 145.226 205.788 137.816 211.83L136.676 211.032C140.666 202.254 142.034 198.492 144.998 188.46ZM63.26 172.842L64.058 171.816C73.634 174.21 78.422 175.806 82.526 178.2C87.2 180.936 88.682 183.102 88.682 186.75C88.682 191.994 85.034 197.466 81.614 197.466C80.132 197.466 79.676 196.896 77.168 191.538C73.292 183.444 70.1 179.112 63.26 172.842ZM103.844 213.882L104.3 215.25C94.154 223.116 90.962 225.054 69.074 237.366C68.618 241.242 68.162 242.268 67.022 242.268C65.654 242.268 65.654 242.04 59.954 224.826C65.198 224.37 68.39 223.686 78.422 221.292C89.48 218.67 95.294 216.96 103.844 213.882ZM165.632 248.424V249.678C162.098 251.16 160.73 252.3 158.906 255.378C157.652 257.43 156.398 260.166 155.828 261.876C155.372 263.13 155.03 263.586 154.46 263.586C154.118 263.586 153.206 263.13 151.496 262.218C144.086 258.114 135.536 247.626 131.318 237.366C127.556 228.132 125.618 219.582 124.364 206.928C123.452 220.152 121.97 226.878 118.436 234.06C110.456 250.704 95.066 260.394 68.618 265.524L68.162 264.042C77.624 260.394 82.754 257.658 88.568 253.44C98.828 245.802 105.896 235.998 109.202 224.712C111.026 218.67 112.394 208.638 112.394 201.57C112.394 199.518 112.28 198.492 112.052 195.642C126.986 197.01 127.67 197.124 129.038 197.58C129.95 197.808 130.52 198.378 130.52 198.948C130.52 199.974 129.38 200.658 125.96 202.026C126.416 210.234 127.784 215.82 131.318 222.888C135.536 231.666 141.806 238.278 150.356 242.952C155.258 245.688 159.02 247.056 165.632 248.424ZM210.092 194.958H226.052C225.938 169.764 225.938 169.764 225.368 164.292C238.82 165.432 239.96 165.546 241.328 166.116C242.354 166.344 242.81 166.914 242.81 167.484C242.81 168.396 241.67 169.194 238.592 170.22V194.958H256.376V176.832C256.376 172.386 256.034 168.054 255.464 164.292C269.03 165.546 269.942 165.66 271.538 166.23C272.45 166.686 272.906 167.142 272.906 167.712C272.906 168.624 271.652 169.422 268.802 170.448C268.688 177.972 268.688 182.646 268.688 187.548C268.688 189.372 268.688 190.968 268.688 194.958H271.88C274.958 190.854 275.984 189.6 279.29 185.61C284.306 189.714 285.902 191.082 290.69 195.528C291.146 196.098 291.374 196.326 291.374 196.668C291.374 197.124 290.918 197.352 290.12 197.352H268.688C268.916 225.966 268.916 225.966 269.258 236.568C269.258 237.822 269.144 238.392 268.688 238.848C267.776 239.646 264.242 240.216 260.366 240.216C257.174 240.216 256.262 239.532 256.262 237.138L256.376 236.91V230.64H238.592V237.594C238.592 238.734 238.478 239.19 238.25 239.646C237.452 240.786 234.716 241.356 229.7 241.356C226.508 241.356 225.596 240.786 225.596 238.848C225.596 238.734 225.596 238.62 225.596 238.392C226.052 211.602 226.052 211.602 226.052 206.928C226.052 205.218 226.052 202.938 225.938 201.228C225.938 200.658 225.938 200.202 225.938 199.86C225.938 199.176 225.938 198.606 226.052 197.352H210.092V256.746H264.47C268.118 252.186 269.258 250.818 273.134 246.258C278.834 251.046 280.658 252.528 286.244 257.316C286.7 257.886 286.928 258.228 286.928 258.456C286.928 258.912 286.472 259.14 285.56 259.14H210.092V263.586C210.092 263.814 210.092 264.156 210.092 264.27C210.092 266.664 207.812 267.462 200.174 267.462C197.438 267.462 196.64 266.892 196.64 264.726C196.64 264.726 196.64 264.612 196.64 264.498C197.096 246.03 197.21 238.392 197.21 220.836V197.352H192.536C188.432 197.352 186.152 197.466 183.074 198.036L182.39 194.046C185.468 194.616 189.344 194.958 192.536 194.958H197.21C197.096 172.044 197.096 172.044 196.412 164.292C213.056 165.774 214.424 166.002 214.424 167.598C214.424 168.51 213.284 169.194 210.092 170.334V194.958ZM238.592 197.352V228.246H256.376V197.352H238.592ZM306.65 222.204L305.624 221.292C318.734 201.57 327.512 181.05 330.476 163.152C333.896 164.064 336.632 164.634 338.456 165.09C347.006 167.028 349.172 167.826 349.172 169.08C349.172 170.334 347.69 170.904 343.814 171.246C339.026 182.532 335.492 188.916 329.108 198.036C335.72 199.404 337.088 199.86 337.088 201.114C337.088 201.798 336.404 202.368 334.01 203.28V229.272C334.01 242.496 334.01 251.046 334.238 263.472C334.238 265.182 333.896 265.98 333.098 266.55C331.844 267.234 329.222 267.576 325.574 267.69C325.118 267.69 325.118 267.69 324.206 267.69C324.092 267.69 323.978 267.69 323.864 267.69C321.698 267.69 320.672 266.778 320.672 265.068V264.84C321.128 256.062 321.584 237.252 321.584 229.614V207.954C316.568 213.768 313.832 216.504 306.65 222.204ZM373.91 196.896L391.124 195.642C393.746 191.88 394.772 190.626 396.482 188.46C395.228 189.258 394.544 189.486 393.518 189.486C391.694 189.486 391.01 188.688 389.87 185.724C387.59 179.682 384.512 175.35 378.584 169.764L379.382 168.624C388.616 170.904 392.264 172.158 396.14 174.438C398.762 176.034 400.358 178.2 400.358 180.252C400.358 182.076 399.902 183.786 398.648 186.066C406.4 191.082 406.4 191.082 410.96 194.16C411.644 194.73 411.986 195.072 411.986 195.414C411.986 195.87 411.302 196.212 410.162 196.326L374.024 199.176C375.164 211.146 376.874 218.556 380.066 225.624C384.398 235.428 389.3 241.356 398.876 248.766C404.348 238.506 406.172 234.972 410.618 225.738L411.872 226.308L407.882 248.196C407.654 248.994 407.54 250.02 407.54 250.362C407.54 251.73 407.654 251.844 410.39 255.264C411.644 256.632 412.328 258.228 412.328 259.824C412.328 263.472 409.25 266.322 405.488 266.322C398.078 266.322 385.652 256.86 376.76 244.434C368.324 232.806 363.992 219.924 361.94 200.202L346.892 201.456C343.928 201.684 342.218 202.026 339.368 202.71L338.228 198.606C340.394 198.948 341.99 199.062 344.156 199.062C345.068 199.062 345.752 199.062 346.55 198.948L361.712 197.808C361.028 189.828 360.914 187.206 360.686 178.542C360.572 171.588 360.344 169.08 359.888 164.178C362.738 164.52 365.588 164.862 366.956 164.976C376.532 166.002 378.014 166.344 378.014 167.826C378.014 168.852 377.102 169.308 373.454 170.562C373.34 175.35 373.226 179.226 373.226 181.62C373.226 186.864 373.34 190.17 373.91 196.896ZM535.335 188.46L515.271 256.176H505.923L488.937 188.118C487.227 181.506 485.745 177.972 483.807 175.92C482.439 174.438 480.729 173.754 477.081 173.298V170.448H512.307V173.298C507.633 173.64 506.151 173.982 504.783 175.122C503.415 176.034 502.731 177.744 502.731 179.796C502.731 181.962 503.187 184.926 504.327 189.372L516.183 238.62L535.449 172.044H545.709L563.265 238.278L575.463 191.538C576.489 187.776 577.059 183.9 577.059 181.278C577.059 177.744 575.349 175.35 571.929 174.21C570.447 173.754 568.737 173.526 565.887 173.298V170.448H594.729V173.298C586.749 174.438 583.785 178.2 579.909 192.678L562.695 256.176H553.689L535.335 188.46ZM658.482 223.572H618.924C619.038 232.008 619.836 236.91 621.888 241.698C625.194 249.222 630.438 252.984 637.392 252.984C645.258 252.984 651.984 248.31 656.202 239.988L659.052 241.812C653.352 252.642 645.714 257.43 633.972 257.43C615.846 257.43 604.218 245.232 604.218 226.194C604.218 207.042 615.504 194.502 632.832 194.502C644.46 194.502 652.668 199.746 656.43 209.55C657.684 212.97 658.254 216.39 658.482 223.572ZM619.038 220.266H644.232C644.004 213.084 643.548 209.55 642.294 206.016C640.128 199.974 636.936 197.124 632.49 197.124C627.588 197.124 623.826 200.544 621.432 207.156C620.178 210.69 619.494 214.338 619.038 220.266ZM692.405 249.336L687.047 255.948H682.943C683.399 250.704 683.399 248.766 683.399 238.164V184.128C683.399 174.096 682.601 173.07 674.621 173.07V170.448L697.991 169.194C697.535 178.314 697.307 185.268 697.307 192.564V204.648C701.867 197.58 707.111 194.502 714.977 194.502C730.595 194.502 739.715 205.56 739.715 224.484C739.715 245.118 729.569 257.43 712.583 257.43C704.831 257.43 698.789 255.036 692.405 249.336ZM696.965 227.562C696.965 236.226 697.991 242.382 700.043 246.942C702.209 251.502 706.883 254.694 711.671 254.694C720.107 254.694 724.553 245.004 724.553 226.422C724.553 207.84 720.335 198.036 712.241 198.036C707.453 198.036 703.007 201.456 700.499 206.928C698.105 212.4 696.965 218.898 696.965 227.562ZM53.8982 433.104L53.2142 431.964C61.4222 425.238 65.9822 420.45 72.0242 412.242C80.3462 400.956 86.2742 389.442 91.4042 374.508C83.8802 376.218 78.5222 377.814 74.5322 379.752C73.1642 380.436 72.2522 380.664 71.3402 380.664C68.4902 380.664 64.9562 378.042 62.1062 373.824C60.3962 371.202 59.1422 367.896 59.1422 365.844C59.1422 365.274 59.2562 364.704 59.5982 363.564C62.7902 368.466 65.7542 370.29 70.6562 370.29C74.1902 370.29 84.3362 369.15 93.2282 367.668C95.5082 358.662 96.6482 352.278 96.6482 348.288C96.6482 344.184 94.1402 341.562 87.8702 339.054C89.4662 338.256 90.4922 338.028 92.4302 338.028C96.4202 338.028 102.462 339.852 106.794 342.36C110.442 344.526 111.924 346.236 111.924 348.288C111.924 349.428 111.696 350.226 110.556 352.05C108.96 354.9 108.504 356.268 105.654 366.072C112.608 365.046 112.608 365.046 117.966 364.248C121.842 363.678 122.07 363.564 124.578 362.31C125.49 361.854 126.174 361.626 127.086 361.626C129.48 361.626 132.558 363.564 136.434 367.554C138.714 369.834 139.512 371.316 139.512 372.912C139.512 373.938 139.284 374.394 137.688 376.788C136.776 378.156 136.662 378.612 134.61 390.012C130.05 413.724 127.428 421.59 122.298 426.264C118.992 429.342 114.774 431.052 110.556 431.052C109.188 431.052 107.82 430.482 107.25 429.684C106.566 428.886 106.452 428.43 105.996 425.808C105.426 422.958 100.638 418.968 91.4042 413.61L91.9742 412.356C102.348 415.548 109.188 417.144 112.266 417.144C115.002 417.144 116.37 415.092 118.878 407.112C121.728 397.878 125.262 379.068 125.262 372.57C125.262 370.518 124.35 369.606 122.412 369.606C119.904 369.606 110.1 371.088 103.83 372.456C97.1042 393.318 89.0102 406.77 76.2422 418.398C69.4022 424.668 61.9922 429.57 53.8982 433.104ZM162.54 351.48L163.11 350.226C175.878 352.278 182.718 354.216 188.076 357.636C191.838 359.916 193.662 363.108 193.662 367.44C193.662 372.798 191.04 376.902 187.506 376.902C185.568 376.902 184.428 375.99 182.718 373.026C177.246 363.108 171.432 356.952 162.54 351.48ZM248.382 356.154L249.75 356.838C243.48 369.948 235.614 380.778 224.1 392.178C213.954 402.21 205.518 408.822 191.04 418.17C188.076 420.108 186.024 421.704 184.884 423.186C183.288 425.124 181.806 426.036 180.096 426.036C177.132 426.036 172.914 422.844 168.924 417.714C165.276 413.04 163.452 408.708 163.452 405.06C163.452 404.034 163.566 403.464 164.022 401.982C167.1 407.226 170.862 410.418 173.94 410.418C178.728 410.418 193.662 402.552 207.228 392.862C224.214 380.664 238.692 367.896 248.382 356.154ZM271.866 433.446L271.068 432.306C280.872 425.01 286.572 419.538 294.21 410.646C305.61 397.08 316.212 379.524 322.596 363.336C323.964 359.916 324.762 357.18 324.762 356.154C324.762 355.356 324.078 355.014 322.71 355.014C318.606 355.014 308.574 356.952 298.428 359.688C289.878 361.968 285.546 363.564 280.302 366.3C279.048 366.87 277.452 367.326 276.198 367.326C272.892 367.326 269.016 364.248 265.596 358.776C263.43 355.47 262.404 352.962 262.404 350.682C262.404 349.884 262.518 349.2 263.088 347.718C265.824 352.962 269.358 355.128 275.058 355.128C280.074 355.128 293.184 353.418 311.994 350.112C320.544 348.744 321.456 348.516 324.42 346.806C325.104 346.464 326.358 346.122 327.042 346.122C328.638 346.122 332.4 348.402 335.364 351.138C339.24 354.672 341.406 357.75 341.406 359.688C341.406 361.284 340.95 362.196 339.354 363.792C337.416 365.73 336.846 366.642 334.566 370.974C324.078 390.924 313.704 404.718 300.822 415.89C291.816 423.756 284.748 427.974 271.866 433.446ZM375.948 435.156L375.036 434.016C383.358 426.036 389.172 416.802 392.934 405.516C394.986 399.474 396.24 393.318 396.24 389.556C396.24 386.478 394.302 384.54 389.97 383.172C390.996 382.146 392.25 381.69 393.846 381.69C397.266 381.69 402.396 383.742 407.412 387.162C415.62 381.348 424.854 372.57 424.854 370.632C424.854 370.176 424.17 369.948 422.346 369.948C417.33 369.948 405.474 371.544 396.924 373.482C389.172 375.192 385.98 376.218 380.85 378.726C379.14 379.524 378.114 379.866 377.088 379.866C374.694 379.866 372.072 378.156 369.678 374.736C367.398 371.658 365.916 368.01 365.916 365.616C365.916 364.704 366.03 364.02 366.486 363.108C368.538 367.098 371.73 369.15 375.834 369.15C378.684 369.15 379.026 369.15 407.64 365.73C415.164 364.818 419.154 364.362 419.496 364.248C420.864 364.02 421.092 364.02 422.232 363.45C423.828 362.652 424.74 362.424 425.31 362.424C427.02 362.424 429.3 363.792 432.378 366.642C436.596 370.518 438.762 373.71 438.762 376.104C438.762 377.244 438.192 378.27 437.166 378.954C436.71 379.182 436.596 379.296 434.658 379.524C433.632 379.638 433.632 379.638 419.61 385.566C416.418 386.934 413.34 388.074 408.438 389.784C406.044 400.614 403.422 407.34 398.52 415.092C392.934 423.756 385.752 430.14 375.948 435.156ZM548.886 373.026L550.026 373.824C542.274 386.478 536.004 394.002 525.972 402.666C517.536 409.848 508.872 415.434 492.798 423.87C489.492 425.58 489.378 425.694 487.212 427.86C486.3 428.886 484.932 429.57 483.792 429.57C480.258 429.57 473.076 420.45 473.076 415.89C473.076 415.092 473.076 415.092 473.76 413.154C474.786 410.532 474.9 408.366 474.9 395.712C474.9 383.514 474.444 364.02 474.102 358.89C473.532 351.024 471.48 348.288 464.412 346.122C465.894 345.096 467.262 344.64 469.2 344.64C472.734 344.64 477.75 346.122 482.652 348.744C487.44 351.138 489.606 353.532 489.606 356.382C489.606 357.408 489.492 357.864 488.922 359.232C488.01 361.398 487.44 364.02 487.098 367.212C486.072 376.104 484.932 398.562 484.932 408.708C484.932 409.392 484.932 410.874 484.932 412.584C500.664 406.998 510.696 401.982 523.464 393.66C533.952 386.706 542.388 379.866 548.886 373.026ZM559.256 351.48L559.826 350.226C572.594 352.278 579.434 354.216 584.792 357.636C588.554 359.916 590.378 363.108 590.378 367.44C590.378 372.798 587.756 376.902 584.222 376.902C582.284 376.902 581.144 375.99 579.434 373.026C573.962 363.108 568.148 356.952 559.256 351.48ZM645.098 356.154L646.466 356.838C640.196 369.948 632.33 380.778 620.816 392.178C610.67 402.21 602.234 408.822 587.756 418.17C584.792 420.108 582.74 421.704 581.6 423.186C580.004 425.124 578.522 426.036 576.812 426.036C573.848 426.036 569.63 422.844 565.64 417.714C561.992 413.04 560.168 408.708 560.168 405.06C560.168 404.034 560.282 403.464 560.738 401.982C563.816 407.226 567.578 410.418 570.656 410.418C575.444 410.418 590.378 402.552 603.944 392.862C620.93 380.664 635.408 367.896 645.098 356.154ZM648.974 429.456L648.29 428.202C659.006 421.818 672.116 410.532 682.148 399.132C693.776 385.908 705.176 368.58 710.42 356.268C701.528 357.408 686.024 361.854 679.868 365.16C677.588 366.3 676.904 366.528 675.536 366.528C672.914 366.528 670.292 364.476 667.328 360.144C664.934 356.496 663.566 353.076 663.566 350.34C663.566 349.2 663.68 348.744 664.364 347.49C667.784 353.19 670.862 355.242 676.334 355.242C679.868 355.242 690.812 353.646 701.072 351.594C708.596 350.112 709.28 349.77 712.13 347.946C713.384 347.148 714.068 346.92 715.208 346.92C716.918 346.92 720.224 348.972 723.53 352.05C726.038 354.444 727.178 356.154 727.178 357.75C727.178 358.89 726.722 359.688 725.354 360.6C722.846 362.538 722.162 363.336 718.742 368.922C713.156 377.7 710.648 381.12 704.378 389.1C719.312 395.598 728.774 401.07 733.904 406.086C737.21 409.278 738.692 412.926 738.692 417.486C738.692 423.3 736.07 427.632 732.536 427.632C730.598 427.632 729.23 426.264 727.862 423.072C722.276 410.874 714.296 400.956 702.326 391.722C693.092 402.78 685.226 409.848 675.08 416.688C666.758 422.274 660.488 425.352 648.974 429.456Z" fill="black"/>
</svg>
