<svg width="1600" height="400" viewBox="0 0 1600 400" fill="none" xmlns="http://www.w3.org/2000/svg">
<rect width="1600" height="400" fill="white"/>
<path d="M98.833 202.128L72.4199 190.06C71.3118 189.554 70.529 189.06 70.0713 188.578C69.6136 188.072 69.3848 187.506 69.3848 186.88C69.3848 186.181 69.5895 185.627 69.999 185.218C70.4326 184.808 71.0107 184.604 71.7334 184.604C72.0947 184.604 72.4922 184.676 72.9258 184.82C73.3835 184.941 73.9495 185.158 74.624 185.471L103.35 198.659C103.446 198.707 103.59 198.78 103.783 198.876C105.951 199.84 107.035 200.924 107.035 202.128C107.035 203.308 105.975 204.392 103.855 205.38C103.615 205.476 103.446 205.549 103.35 205.597L74.624 219.002L74.4795 219.074C73.2269 219.628 72.3115 219.905 71.7334 219.905C71.0107 219.905 70.4326 219.688 69.999 219.255C69.5895 218.821 69.3848 218.243 69.3848 217.521C69.3848 216.894 69.6136 216.34 70.0713 215.858C70.529 215.353 71.3118 214.847 72.4199 214.341L98.833 202.128ZM188.948 193.781V193.637C188.948 192.842 189.177 192.264 189.635 191.902C190.092 191.517 190.803 191.324 191.767 191.324C192.754 191.324 193.429 191.613 193.79 192.191C194.175 192.77 194.368 193.962 194.368 195.769V202.489C194.368 203.381 194.139 204.055 193.682 204.513C193.224 204.946 192.537 205.163 191.622 205.163C190.972 205.163 190.406 204.982 189.924 204.621C189.466 204.236 188.9 203.453 188.226 202.272C187.069 200.321 185.66 198.852 183.998 197.864C182.36 196.853 180.469 196.347 178.325 196.347C174.567 196.347 171.508 197.455 169.147 199.671C166.811 201.887 165.643 204.754 165.643 208.271C165.643 211.86 166.763 214.799 169.003 217.087C171.267 219.351 174.17 220.483 177.711 220.483C179.325 220.483 180.854 220.267 182.3 219.833C183.769 219.375 185.154 218.701 186.455 217.81C186.913 217.521 187.527 217.075 188.298 216.473C189.864 215.196 191.092 214.558 191.983 214.558C192.73 214.558 193.332 214.799 193.79 215.28C194.272 215.738 194.513 216.34 194.513 217.087C194.513 218.99 192.706 220.941 189.093 222.94C185.504 224.916 181.686 225.903 177.639 225.903C172.411 225.903 168.051 224.229 164.559 220.881C161.09 217.533 159.355 213.353 159.355 208.343C159.355 203.332 161.09 199.153 164.559 195.805C168.027 192.432 172.363 190.746 177.566 190.746C179.397 190.746 181.228 190.999 183.059 191.505C184.913 191.987 186.877 192.745 188.948 193.781ZM213.519 211.667C213.519 214.702 214.157 216.918 215.434 218.315C216.71 219.713 218.734 220.411 221.504 220.411C224.13 220.411 226.37 219.58 228.225 217.918C230.104 216.256 231.043 214.172 231.043 211.667V196.744H226.093C225.153 196.744 224.467 196.551 224.033 196.166C223.624 195.757 223.419 195.13 223.419 194.287C223.419 193.372 223.648 192.697 224.105 192.264C224.563 191.83 225.298 191.613 226.31 191.613H234.006C234.921 191.613 235.56 191.818 235.921 192.228C236.306 192.613 236.499 193.576 236.499 195.118V219.905H238.161C239.341 219.905 240.185 220.098 240.69 220.483C241.22 220.869 241.485 221.507 241.485 222.398C241.485 223.266 241.232 223.916 240.727 224.35C240.245 224.783 239.534 225 238.595 225H233.103C232.452 225 231.946 224.868 231.585 224.603C231.224 224.338 231.043 223.976 231.043 223.519V221.062C228.73 222.844 226.743 224.073 225.081 224.747C223.443 225.397 221.709 225.723 219.878 225.723C215.903 225.723 212.916 224.675 210.917 222.579C208.942 220.459 207.954 217.268 207.954 213.004V196.744H207.195C205.557 196.744 204.437 196.551 203.835 196.166C203.233 195.781 202.932 195.106 202.932 194.143C202.932 193.299 203.16 192.673 203.618 192.264C204.1 191.83 204.835 191.613 205.822 191.613H211.278C212.121 191.613 212.7 191.782 213.013 192.119C213.35 192.456 213.519 193.203 213.519 194.359V211.667ZM263.418 219.905H275.414C276.354 219.905 277.04 220.11 277.474 220.52C277.931 220.905 278.16 221.531 278.16 222.398C278.16 223.386 277.943 224.073 277.51 224.458C277.1 224.819 276.329 225 275.197 225H251.566C250.627 225 249.916 224.783 249.435 224.35C248.953 223.916 248.712 223.266 248.712 222.398C248.712 221.555 248.953 220.929 249.435 220.52C249.94 220.11 250.711 219.905 251.747 219.905H258.034V196.744H255.577C253.241 196.744 251.783 196.563 251.205 196.202C250.627 195.817 250.338 195.13 250.338 194.143C250.338 193.299 250.567 192.673 251.024 192.264C251.506 191.83 252.229 191.613 253.192 191.613H261.431C262.081 191.613 262.575 191.746 262.912 192.011C263.249 192.252 263.418 192.613 263.418 193.095V199.237C265.706 196.371 268.091 194.239 270.572 192.842C273.053 191.445 275.727 190.746 278.594 190.746C280.738 190.746 282.472 191.18 283.797 192.047C285.122 192.914 285.784 194.034 285.784 195.407C285.784 196.299 285.447 197.093 284.772 197.792C284.122 198.466 283.399 198.804 282.604 198.804C282.05 198.804 281.111 198.442 279.786 197.72C278.485 196.973 277.317 196.6 276.281 196.6C274.402 196.6 272.415 197.274 270.319 198.623C268.248 199.948 265.947 202.056 263.418 204.946V219.905ZM308.981 182.905H302.839C300.502 182.905 299.033 182.725 298.431 182.363C297.853 181.978 297.563 181.291 297.563 180.304C297.563 179.437 297.804 178.786 298.286 178.353C298.792 177.919 299.515 177.702 300.454 177.702H312.378C313.028 177.702 313.534 177.835 313.896 178.1C314.257 178.365 314.438 178.726 314.438 179.184V219.905H325.783C326.699 219.905 327.361 220.11 327.771 220.52C328.204 220.905 328.421 221.531 328.421 222.398C328.421 223.386 328.216 224.073 327.807 224.458C327.397 224.819 326.626 225 325.494 225H298.828C297.889 225 297.166 224.783 296.66 224.35C296.178 223.916 295.938 223.266 295.938 222.398C295.938 221.555 296.19 220.929 296.696 220.52C297.202 220.11 297.961 219.905 298.973 219.905H308.981V182.905ZM386.703 219.905V182.905H386.017C384.379 182.905 383.246 182.713 382.62 182.327C382.018 181.942 381.717 181.267 381.717 180.304C381.717 179.437 381.958 178.786 382.439 178.353C382.945 177.919 383.668 177.702 384.607 177.702H390.1C390.75 177.702 391.256 177.835 391.617 178.1C391.979 178.365 392.159 178.726 392.159 179.184V195.552C393.918 193.914 395.652 192.709 397.362 191.938C399.097 191.144 400.891 190.746 402.746 190.746C406.383 190.746 409.238 191.878 411.31 194.143C413.405 196.407 414.453 199.538 414.453 203.537V219.905H416.151C417.356 219.905 418.223 220.11 418.753 220.52C419.283 220.905 419.548 221.531 419.548 222.398C419.548 223.266 419.307 223.916 418.825 224.35C418.343 224.783 417.621 225 416.657 225H407.046C405.914 225 405.143 224.819 404.733 224.458C404.348 224.073 404.155 223.386 404.155 222.398C404.155 221.435 404.396 220.785 404.878 220.447C405.384 220.086 406.323 219.905 407.696 219.905H408.961V204.874C408.961 202.056 408.323 199.912 407.046 198.442C405.769 196.949 403.914 196.202 401.481 196.202C399 196.202 396.82 197.033 394.941 198.695C393.087 200.357 392.159 202.417 392.159 204.874V219.905H393.424C394.869 219.905 395.845 220.086 396.351 220.447C396.856 220.809 397.109 221.459 397.109 222.398C397.109 223.386 396.905 224.073 396.495 224.458C396.11 224.819 395.351 225 394.219 225H384.607C383.668 225 382.957 224.783 382.476 224.35C382.018 223.916 381.789 223.266 381.789 222.398C381.789 221.435 382.066 220.785 382.62 220.447C383.198 220.086 384.306 219.905 385.944 219.905H386.703ZM454.597 193.637C455.777 193.637 456.632 193.841 457.162 194.251C457.716 194.66 457.993 195.311 457.993 196.202C457.993 197.045 457.74 197.684 457.234 198.117C456.729 198.527 455.97 198.731 454.958 198.731H440.324V210.8C440.324 214.75 440.83 217.352 441.842 218.604C442.878 219.857 444.636 220.483 447.117 220.483C449.309 220.483 451.935 219.845 454.994 218.568C458.053 217.292 459.944 216.653 460.667 216.653C461.341 216.653 461.908 216.894 462.365 217.376C462.847 217.858 463.088 218.448 463.088 219.146C463.088 219.941 462.787 220.64 462.185 221.242C461.606 221.82 460.607 222.386 459.186 222.94C456.825 223.88 454.693 224.566 452.79 225C450.911 225.434 449.141 225.65 447.479 225.65C444.66 225.65 442.287 225.205 440.36 224.313C438.457 223.398 437.036 222.049 436.097 220.267C435.615 219.424 435.266 218.424 435.049 217.268C434.856 216.111 434.76 214.329 434.76 211.92V210.8V198.731H428.617C427.605 198.731 426.871 198.539 426.413 198.153C425.955 197.744 425.727 197.093 425.727 196.202C425.727 195.215 426.04 194.54 426.666 194.179C427.292 193.817 428.629 193.637 430.677 193.637H434.76V186.229V184.314C434.76 183.279 434.977 182.52 435.41 182.038C435.868 181.532 436.566 181.279 437.506 181.279C438.566 181.279 439.3 181.58 439.71 182.183C440.119 182.785 440.324 184.158 440.324 186.302V193.637H454.597ZM499.04 193.637C500.22 193.637 501.076 193.841 501.605 194.251C502.16 194.66 502.437 195.311 502.437 196.202C502.437 197.045 502.184 197.684 501.678 198.117C501.172 198.527 500.413 198.731 499.401 198.731H484.768V210.8C484.768 214.75 485.273 217.352 486.285 218.604C487.321 219.857 489.079 220.483 491.561 220.483C493.753 220.483 496.378 219.845 499.438 218.568C502.497 217.292 504.388 216.653 505.11 216.653C505.785 216.653 506.351 216.894 506.809 217.376C507.29 217.858 507.531 218.448 507.531 219.146C507.531 219.941 507.23 220.64 506.628 221.242C506.05 221.82 505.05 222.386 503.629 222.94C501.268 223.88 499.136 224.566 497.233 225C495.354 225.434 493.584 225.65 491.922 225.65C489.104 225.65 486.731 225.205 484.804 224.313C482.901 223.398 481.479 222.049 480.54 220.267C480.058 219.424 479.709 218.424 479.492 217.268C479.299 216.111 479.203 214.329 479.203 211.92V210.8V198.731H473.061C472.049 198.731 471.314 198.539 470.856 198.153C470.399 197.744 470.17 197.093 470.17 196.202C470.17 195.215 470.483 194.54 471.109 194.179C471.736 193.817 473.073 193.637 475.12 193.637H479.203V186.229V184.314C479.203 183.279 479.42 182.52 479.854 182.038C480.311 181.532 481.01 181.279 481.949 181.279C483.009 181.279 483.744 181.58 484.153 182.183C484.563 182.785 484.768 184.158 484.768 186.302V193.637H499.04ZM524.297 234.25H532.969C533.884 234.25 534.571 234.467 535.028 234.9C535.486 235.334 535.715 235.984 535.715 236.852C535.715 237.791 535.486 238.453 535.028 238.839C534.595 239.224 533.812 239.417 532.68 239.417H516.745C515.782 239.417 515.047 239.2 514.541 238.767C514.059 238.333 513.818 237.695 513.818 236.852C513.818 235.888 514.119 235.214 514.722 234.828C515.348 234.443 516.492 234.25 518.154 234.25H518.841V196.744H518.154C516.492 196.744 515.348 196.551 514.722 196.166C514.119 195.781 513.818 195.106 513.818 194.143C513.818 193.299 514.059 192.673 514.541 192.264C515.047 191.83 515.782 191.613 516.745 191.613H522.237C522.96 191.613 523.478 191.734 523.791 191.975C524.128 192.215 524.297 192.589 524.297 193.095V196.6C525.935 194.913 527.742 193.649 529.717 192.806C531.716 191.963 533.86 191.541 536.148 191.541C540.99 191.541 545.037 193.179 548.289 196.455C551.541 199.731 553.167 203.838 553.167 208.776C553.167 213.522 551.625 217.424 548.542 220.483C545.459 223.543 541.52 225.072 536.727 225.072C534.173 225.072 531.825 224.627 529.681 223.735C527.537 222.82 525.742 221.519 524.297 219.833V234.25ZM535.498 219.761C538.846 219.761 541.592 218.713 543.736 216.617C545.88 214.497 546.952 211.763 546.952 208.415C546.952 205.139 545.868 202.441 543.7 200.321C541.556 198.177 538.822 197.105 535.498 197.105C532.174 197.105 529.452 198.165 527.332 200.285C525.212 202.405 524.152 205.115 524.152 208.415C524.152 211.739 525.2 214.461 527.296 216.581C529.416 218.701 532.15 219.761 535.498 219.761ZM562.309 222.398V215.967C562.309 214.907 562.501 214.148 562.887 213.69C563.296 213.233 563.947 213.004 564.838 213.004C565.826 213.004 566.608 213.678 567.187 215.027C567.572 215.846 567.921 216.461 568.234 216.87C569.246 218.171 570.74 219.219 572.715 220.014C574.69 220.785 576.87 221.17 579.255 221.17C581.808 221.17 583.856 220.652 585.397 219.616C586.939 218.58 587.71 217.219 587.71 215.533C587.71 213.823 587.084 212.606 585.831 211.884C584.603 211.161 582.483 210.8 579.472 210.8H577.484C572.57 210.8 568.825 209.945 566.247 208.234C563.67 206.524 562.381 204.043 562.381 200.791C562.381 197.611 563.633 195.142 566.139 193.384C568.668 191.625 572.209 190.746 576.762 190.746C578.617 190.746 580.507 191.011 582.435 191.541C584.362 192.047 585.373 192.3 585.47 192.3C585.735 192.3 586.241 192.071 586.987 191.613C587.734 191.132 588.469 190.891 589.191 190.891C590.01 190.891 590.613 191.192 590.998 191.794C591.408 192.396 591.612 193.299 591.612 194.504V198.731C591.612 200.008 591.42 200.936 591.034 201.514C590.649 202.068 590.035 202.345 589.191 202.345C588.469 202.345 587.577 201.73 586.518 200.502C585.771 199.659 585.157 199.021 584.675 198.587C583.398 197.407 582.037 196.563 580.592 196.058C579.146 195.528 577.448 195.263 575.497 195.263C573.233 195.263 571.402 195.769 570.005 196.78C568.632 197.768 567.945 199.033 567.945 200.574C567.945 202.092 568.656 203.176 570.077 203.826C571.498 204.477 574.558 204.85 579.255 204.946C584.265 205.067 587.927 205.946 590.239 207.584C592.552 209.198 593.708 211.703 593.708 215.1C593.708 218.352 592.431 220.953 589.878 222.904C587.325 224.855 583.88 225.831 579.544 225.831C578.171 225.831 576.641 225.699 574.955 225.434C573.269 225.193 571.149 224.771 568.596 224.169C567.753 224.723 567.03 225.132 566.428 225.397C565.826 225.687 565.32 225.831 564.91 225.831C564.067 225.831 563.417 225.542 562.959 224.964C562.525 224.362 562.309 223.507 562.309 222.398ZM615.424 199.093C615.424 197.214 616.074 195.672 617.375 194.468C618.7 193.263 620.41 192.661 622.506 192.661C624.65 192.661 626.372 193.251 627.673 194.432C628.974 195.612 629.624 197.166 629.624 199.093C629.624 201.02 628.962 202.574 627.637 203.754C626.336 204.934 624.626 205.524 622.506 205.524C620.386 205.524 618.676 204.934 617.375 203.754C616.074 202.574 615.424 201.02 615.424 199.093ZM615.424 219.074C615.424 217.195 616.074 215.654 617.375 214.449C618.7 213.245 620.41 212.643 622.506 212.643C624.65 212.643 626.372 213.233 627.673 214.413C628.974 215.593 629.624 217.147 629.624 219.074C629.624 221.001 628.962 222.555 627.637 223.735C626.336 224.916 624.626 225.506 622.506 225.506C620.386 225.506 618.676 224.916 617.375 223.735C616.074 222.555 615.424 221.001 615.424 219.074ZM658.819 225.976C658.289 227.18 657.784 227.999 657.302 228.433C656.844 228.866 656.29 229.083 655.64 229.083C654.965 229.083 654.375 228.83 653.869 228.324C653.363 227.842 653.11 227.252 653.11 226.554C653.11 226.361 653.146 226.132 653.219 225.867C653.291 225.626 653.387 225.361 653.508 225.072L676.055 176.474C676.657 175.221 677.187 174.378 677.645 173.944C678.102 173.487 678.656 173.258 679.307 173.258C680.029 173.258 680.644 173.499 681.149 173.98C681.655 174.462 681.908 175.04 681.908 175.715C681.908 175.908 681.872 176.124 681.8 176.365C681.752 176.606 681.667 176.835 681.547 177.052L658.819 225.976ZM703.263 225.976C702.733 227.18 702.227 227.999 701.745 228.433C701.287 228.866 700.733 229.083 700.083 229.083C699.409 229.083 698.818 228.83 698.312 228.324C697.807 227.842 697.554 227.252 697.554 226.554C697.554 226.361 697.59 226.132 697.662 225.867C697.734 225.626 697.831 225.361 697.951 225.072L720.498 176.474C721.1 175.221 721.63 174.378 722.088 173.944C722.546 173.487 723.1 173.258 723.75 173.258C724.473 173.258 725.087 173.499 725.593 173.98C726.099 174.462 726.352 175.04 726.352 175.715C726.352 175.908 726.315 176.124 726.243 176.365C726.195 176.606 726.111 176.835 725.99 177.052L703.263 225.976ZM742.395 219.905V196.744H741.708C740.07 196.744 738.938 196.551 738.312 196.166C737.709 195.781 737.408 195.106 737.408 194.143C737.408 193.251 737.661 192.613 738.167 192.228C738.673 191.818 739.492 191.613 740.624 191.613H742.322H745.791C746.441 191.613 746.947 191.746 747.309 192.011C747.67 192.276 747.851 192.637 747.851 193.095V195.552C749.609 193.914 751.343 192.709 753.054 191.938C754.788 191.144 756.583 190.746 758.438 190.746C762.075 190.746 764.929 191.878 767.001 194.143C769.097 196.407 770.145 199.538 770.145 203.537V219.905H771.843C773.047 219.905 773.914 220.11 774.444 220.52C774.974 220.905 775.239 221.531 775.239 222.398C775.239 223.338 774.95 224.012 774.372 224.422C773.818 224.807 772.818 225 771.373 225H763.388C761.846 225 760.858 224.819 760.425 224.458C759.991 224.097 759.774 223.41 759.774 222.398C759.774 221.459 760.027 220.809 760.533 220.447C761.039 220.086 761.991 219.905 763.388 219.905H764.652V204.874C764.652 202.056 764.014 199.912 762.737 198.442C761.461 196.949 759.606 196.202 757.173 196.202C754.716 196.202 752.548 197.033 750.669 198.695C748.79 200.357 747.851 202.417 747.851 204.874V219.905H749.115C750.561 219.905 751.536 220.086 752.042 220.447C752.548 220.809 752.801 221.459 752.801 222.398C752.801 223.41 752.584 224.097 752.15 224.458C751.717 224.819 750.657 225 748.971 225H742.395H740.443C739.456 225 738.709 224.795 738.203 224.386C737.721 223.952 737.48 223.29 737.48 222.398C737.48 221.435 737.757 220.785 738.312 220.447C738.89 220.086 739.998 219.905 741.636 219.905H742.395ZM788.066 209.896C788.259 213.365 789.427 216.051 791.571 217.954C793.739 219.833 796.69 220.772 800.424 220.772C803.242 220.772 806.313 220.026 809.638 218.532C812.962 217.015 814.973 216.256 815.672 216.256C816.395 216.256 816.997 216.485 817.479 216.942C817.96 217.4 818.201 217.966 818.201 218.641C818.201 219.339 817.948 219.978 817.442 220.556C816.937 221.134 816.13 221.7 815.021 222.254C812.613 223.434 810.119 224.338 807.542 224.964C804.989 225.59 802.447 225.903 799.918 225.903C794.426 225.903 790.03 224.326 786.729 221.17C783.429 217.99 781.779 213.787 781.779 208.56C781.779 203.236 783.526 198.924 787.019 195.624C790.511 192.324 795.064 190.674 800.677 190.674C805.759 190.674 809.975 192.215 813.323 195.299C816.672 198.382 818.346 202.116 818.346 206.5C818.346 207.849 818.057 208.752 817.479 209.21C816.924 209.668 815.395 209.896 812.89 209.896H812.348H788.066ZM788.247 205.163H811.77C811.408 202.297 810.204 199.996 808.156 198.262C806.133 196.503 803.64 195.624 800.677 195.624C797.473 195.624 794.775 196.467 792.583 198.153C790.391 199.84 788.946 202.176 788.247 205.163ZM836.81 219.905H837.857C839.062 219.905 840.001 220.134 840.676 220.592C841.35 221.025 841.688 221.652 841.688 222.471C841.688 223.338 841.386 223.976 840.784 224.386C840.206 224.795 839.279 225 838.002 225H828.029C827.307 225 826.704 224.759 826.223 224.277C825.741 223.796 825.5 223.193 825.5 222.471C825.5 221.579 825.825 220.929 826.476 220.52C827.126 220.11 828.162 219.905 829.583 219.905H830.306L842.013 207.909L830.522 196.744H830.017C828.619 196.744 827.644 196.563 827.09 196.202C826.56 195.817 826.295 195.154 826.295 194.215C826.295 193.227 826.596 192.553 827.198 192.191C827.825 191.806 829.005 191.613 830.739 191.613H838.146C839.447 191.613 840.387 191.83 840.965 192.264C841.567 192.673 841.868 193.324 841.868 194.215C841.868 195.034 841.531 195.66 840.856 196.094C840.206 196.527 839.255 196.744 838.002 196.744H837.713L845.481 204.368L852.889 196.744H852.13C850.781 196.744 849.781 196.551 849.131 196.166C848.48 195.757 848.155 195.13 848.155 194.287C848.155 193.348 848.444 192.673 849.022 192.264C849.601 191.83 850.54 191.613 851.841 191.613H861.235C861.982 191.613 862.584 191.854 863.042 192.336C863.524 192.794 863.765 193.396 863.765 194.143C863.765 195.034 863.464 195.696 862.861 196.13C862.259 196.539 861.296 196.744 859.971 196.744H858.959L848.589 207.548L861.235 219.905H861.597C862.512 219.905 863.223 220.134 863.729 220.592C864.234 221.025 864.487 221.652 864.487 222.471C864.487 223.434 864.198 224.097 863.62 224.458C863.042 224.819 861.85 225 860.043 225H852.672C851.395 225 850.456 224.795 849.854 224.386C849.251 223.976 848.95 223.338 848.95 222.471C848.95 221.676 849.239 221.049 849.817 220.592C850.396 220.134 851.19 219.905 852.202 219.905H854.226L845.12 211.017L836.81 219.905ZM899.03 193.637C900.211 193.637 901.066 193.841 901.596 194.251C902.15 194.66 902.427 195.311 902.427 196.202C902.427 197.045 902.174 197.684 901.668 198.117C901.162 198.527 900.403 198.731 899.392 198.731H884.758V210.8C884.758 214.75 885.264 217.352 886.275 218.604C887.311 219.857 889.07 220.483 891.551 220.483C893.743 220.483 896.368 219.845 899.428 218.568C902.487 217.292 904.378 216.653 905.101 216.653C905.775 216.653 906.341 216.894 906.799 217.376C907.281 217.858 907.521 218.448 907.521 219.146C907.521 219.941 907.22 220.64 906.618 221.242C906.04 221.82 905.04 222.386 903.619 222.94C901.258 223.88 899.127 224.566 897.224 225C895.345 225.434 893.574 225.65 891.912 225.65C889.094 225.65 886.721 225.205 884.794 224.313C882.891 223.398 881.47 222.049 880.53 220.267C880.049 219.424 879.699 218.424 879.482 217.268C879.29 216.111 879.193 214.329 879.193 211.92V210.8V198.731H873.051C872.039 198.731 871.304 198.539 870.847 198.153C870.389 197.744 870.16 197.093 870.16 196.202C870.16 195.215 870.473 194.54 871.1 194.179C871.726 193.817 873.063 193.637 875.11 193.637H879.193V186.229V184.314C879.193 183.279 879.41 182.52 879.844 182.038C880.301 181.532 881 181.279 881.939 181.279C882.999 181.279 883.734 181.58 884.144 182.183C884.553 182.785 884.758 184.158 884.758 186.302V193.637H899.03ZM918.542 211.812C918.06 211.812 917.675 211.667 917.386 211.378C917.121 211.065 916.988 210.643 916.988 210.113V206.283C916.988 205.826 917.121 205.464 917.386 205.199C917.675 204.934 918.06 204.802 918.542 204.802H948.496C949.05 204.802 949.484 204.934 949.797 205.199C950.11 205.464 950.267 205.826 950.267 206.283V210.113C950.267 210.547 950.086 210.944 949.725 211.306C949.363 211.643 948.954 211.812 948.496 211.812H918.542ZM977.836 206.645L973.175 223.808C972.934 224.723 972.573 225.361 972.091 225.723C971.609 226.084 970.886 226.265 969.923 226.265C969.056 226.265 968.381 226.036 967.899 225.578C967.418 225.12 966.984 224.289 966.599 223.085L958.324 196.744H957.999C956.987 196.744 956.265 196.551 955.831 196.166C955.373 195.757 955.145 195.082 955.145 194.143C955.145 193.324 955.385 192.697 955.867 192.264C956.325 191.83 957.011 191.613 957.927 191.613H967.574C968.875 191.613 969.754 191.806 970.212 192.191C970.67 192.553 970.898 193.203 970.898 194.143C970.898 194.721 970.766 195.227 970.501 195.66C970.236 196.07 969.899 196.323 969.489 196.419C969.08 196.539 968.598 196.624 968.044 196.672C967.514 196.72 966.864 196.744 966.093 196.744H963.997L970.212 218.424L974.873 202.67C975.138 201.755 975.511 201.116 975.993 200.755C976.475 200.394 977.186 200.213 978.125 200.213C978.992 200.213 979.667 200.454 980.148 200.936C980.654 201.393 981.1 202.212 981.485 203.393L986.002 218.424L991.964 196.744H991.097H989.543C987.881 196.744 986.761 196.563 986.183 196.202C985.604 195.817 985.315 195.13 985.315 194.143C985.315 193.179 985.532 192.517 985.966 192.155C986.399 191.794 987.243 191.613 988.495 191.613H998.179C998.925 191.613 999.479 191.83 999.841 192.264C1000.23 192.697 1000.42 193.324 1000.42 194.143C1000.42 195.058 1000.2 195.708 999.769 196.094C999.335 196.479 998.516 196.696 997.312 196.744L989.182 223.808C988.868 224.723 988.471 225.361 987.989 225.723C987.532 226.084 986.833 226.265 985.894 226.265C985.026 226.265 984.34 226.024 983.834 225.542C983.328 225.084 982.907 224.265 982.569 223.085L977.836 206.645ZM1010.28 209.896C1010.48 213.365 1011.64 216.051 1013.79 217.954C1015.96 219.833 1018.91 220.772 1022.64 220.772C1025.46 220.772 1028.53 220.026 1031.85 218.532C1035.18 217.015 1037.19 216.256 1037.89 216.256C1038.61 216.256 1039.21 216.485 1039.7 216.942C1040.18 217.4 1040.42 217.966 1040.42 218.641C1040.42 219.339 1040.17 219.978 1039.66 220.556C1039.15 221.134 1038.35 221.7 1037.24 222.254C1034.83 223.434 1032.34 224.338 1029.76 224.964C1027.21 225.59 1024.66 225.903 1022.13 225.903C1016.64 225.903 1012.25 224.326 1008.95 221.17C1005.65 217.99 1004 213.787 1004 208.56C1004 203.236 1005.74 198.924 1009.24 195.624C1012.73 192.324 1017.28 190.674 1022.89 190.674C1027.98 190.674 1032.19 192.215 1035.54 195.299C1038.89 198.382 1040.56 202.116 1040.56 206.5C1040.56 207.849 1040.27 208.752 1039.7 209.21C1039.14 209.668 1037.61 209.896 1035.11 209.896H1034.56H1010.28ZM1010.46 205.163H1033.99C1033.62 202.297 1032.42 199.996 1030.37 198.262C1028.35 196.503 1025.86 195.624 1022.89 195.624C1019.69 195.624 1016.99 196.467 1014.8 198.153C1012.61 199.84 1011.16 202.176 1010.46 205.163ZM1068.89 219.978C1072.29 219.978 1075.05 218.906 1077.17 216.762C1079.28 214.618 1080.34 211.836 1080.34 208.415C1080.34 205.067 1079.26 202.309 1077.09 200.141C1074.95 197.973 1072.21 196.889 1068.89 196.889C1065.54 196.889 1062.8 197.973 1060.65 200.141C1058.53 202.285 1057.47 205.043 1057.47 208.415C1057.47 211.787 1058.53 214.558 1060.65 216.726C1062.8 218.894 1065.54 219.978 1068.89 219.978ZM1057.62 196.816C1058.97 195.13 1060.65 193.841 1062.68 192.95C1064.7 192.059 1066.99 191.613 1069.54 191.613C1074.38 191.613 1078.42 193.251 1081.65 196.527C1084.87 199.779 1086.49 203.814 1086.49 208.632C1086.49 213.377 1084.83 217.4 1081.5 220.7C1078.2 224 1074.17 225.65 1069.4 225.65C1066.87 225.65 1064.66 225.205 1062.78 224.313C1060.91 223.422 1059.36 222.073 1058.16 220.267V223.157C1058.16 223.808 1058.04 224.277 1057.8 224.566C1057.58 224.855 1057.21 225 1056.68 225H1050.07C1049.13 225 1048.43 224.783 1047.97 224.35C1047.51 223.916 1047.28 223.266 1047.28 222.398C1047.28 221.435 1047.56 220.785 1048.11 220.447C1048.67 220.086 1049.76 219.905 1051.4 219.905H1052.16V182.905H1051.47C1049.84 182.905 1048.72 182.713 1048.11 182.327C1047.51 181.942 1047.21 181.267 1047.21 180.304C1047.21 179.437 1047.45 178.786 1047.93 178.353C1048.42 177.919 1049.13 177.702 1050.07 177.702H1055.56C1056.28 177.702 1056.8 177.823 1057.11 178.063C1057.45 178.304 1057.62 178.678 1057.62 179.184V196.816ZM1096.32 211.812C1095.83 211.812 1095.45 211.667 1095.16 211.378C1094.89 211.065 1094.76 210.643 1094.76 210.113V206.283C1094.76 205.826 1094.89 205.464 1095.16 205.199C1095.45 204.934 1095.83 204.802 1096.32 204.802H1126.27C1126.82 204.802 1127.26 204.934 1127.57 205.199C1127.88 205.464 1128.04 205.826 1128.04 206.283V210.113C1128.04 210.547 1127.86 210.944 1127.5 211.306C1127.14 211.643 1126.73 211.812 1126.27 211.812H1096.32ZM1166.7 193.781V193.637C1166.7 192.842 1166.93 192.264 1167.39 191.902C1167.85 191.517 1168.56 191.324 1169.52 191.324C1170.51 191.324 1171.18 191.613 1171.54 192.191C1171.93 192.77 1172.12 193.962 1172.12 195.769V202.489C1172.12 203.381 1171.89 204.055 1171.44 204.513C1170.98 204.946 1170.29 205.163 1169.38 205.163C1168.73 205.163 1168.16 204.982 1167.68 204.621C1167.22 204.236 1166.65 203.453 1165.98 202.272C1164.82 200.321 1163.41 198.852 1161.75 197.864C1160.11 196.853 1158.22 196.347 1156.08 196.347C1152.32 196.347 1149.26 197.455 1146.9 199.671C1144.56 201.887 1143.4 204.754 1143.4 208.271C1143.4 211.86 1144.52 214.799 1146.76 217.087C1149.02 219.351 1151.92 220.483 1155.46 220.483C1157.08 220.483 1158.61 220.267 1160.05 219.833C1161.52 219.375 1162.91 218.701 1164.21 217.81C1164.67 217.521 1165.28 217.075 1166.05 216.473C1167.62 215.196 1168.85 214.558 1169.74 214.558C1170.48 214.558 1171.09 214.799 1171.54 215.28C1172.03 215.738 1172.27 216.34 1172.27 217.087C1172.27 218.99 1170.46 220.941 1166.85 222.94C1163.26 224.916 1159.44 225.903 1155.39 225.903C1150.17 225.903 1145.81 224.229 1142.31 220.881C1138.84 217.533 1137.11 213.353 1137.11 208.343C1137.11 203.332 1138.84 199.153 1142.31 195.805C1145.78 192.432 1150.12 190.746 1155.32 190.746C1157.15 190.746 1158.98 190.999 1160.81 191.505C1162.67 191.987 1164.63 192.745 1166.7 193.781ZM1200.27 220.845C1203.98 220.845 1207.01 219.676 1209.38 217.34C1211.76 214.979 1212.95 211.98 1212.95 208.343C1212.95 204.705 1211.76 201.706 1209.38 199.346C1206.99 196.961 1203.96 195.769 1200.27 195.769C1196.58 195.769 1193.55 196.961 1191.16 199.346C1188.8 201.706 1187.62 204.705 1187.62 208.343C1187.62 212.004 1188.8 215.003 1191.16 217.34C1193.52 219.676 1196.56 220.845 1200.27 220.845ZM1219.24 208.343C1219.24 213.498 1217.48 217.713 1213.96 220.989C1210.45 224.265 1205.88 225.903 1200.27 225.903C1194.68 225.903 1190.13 224.265 1186.61 220.989C1183.09 217.713 1181.34 213.498 1181.34 208.343C1181.34 203.188 1183.09 198.984 1186.61 195.732C1190.13 192.456 1194.68 190.818 1200.27 190.818C1205.86 190.818 1210.41 192.456 1213.93 195.732C1217.47 199.008 1219.24 203.212 1219.24 208.343ZM1231.27 219.905V196.744H1230.58C1228.95 196.744 1227.81 196.551 1227.19 196.166C1226.59 195.781 1226.29 195.106 1226.29 194.143C1226.29 193.251 1226.54 192.613 1227.04 192.228C1227.55 191.818 1228.37 191.613 1229.5 191.613H1231.2H1234.67C1235.32 191.613 1235.82 191.746 1236.19 192.011C1236.55 192.276 1236.73 192.637 1236.73 193.095V195.552C1238.49 193.914 1240.22 192.709 1241.93 191.938C1243.67 191.144 1245.46 190.746 1247.31 190.746C1250.95 190.746 1253.81 191.878 1255.88 194.143C1257.97 196.407 1259.02 199.538 1259.02 203.537V219.905H1260.72C1261.92 219.905 1262.79 220.11 1263.32 220.52C1263.85 220.905 1264.12 221.531 1264.12 222.398C1264.12 223.338 1263.83 224.012 1263.25 224.422C1262.69 224.807 1261.7 225 1260.25 225H1252.26C1250.72 225 1249.74 224.819 1249.3 224.458C1248.87 224.097 1248.65 223.41 1248.65 222.398C1248.65 221.459 1248.9 220.809 1249.41 220.447C1249.92 220.086 1250.87 219.905 1252.26 219.905H1253.53V204.874C1253.53 202.056 1252.89 199.912 1251.61 198.442C1250.34 196.949 1248.48 196.202 1246.05 196.202C1243.59 196.202 1241.42 197.033 1239.55 198.695C1237.67 200.357 1236.73 202.417 1236.73 204.874V219.905H1237.99C1239.44 219.905 1240.41 220.086 1240.92 220.447C1241.42 220.809 1241.68 221.459 1241.68 222.398C1241.68 223.41 1241.46 224.097 1241.03 224.458C1240.59 224.819 1239.53 225 1237.85 225H1231.27H1229.32C1228.33 225 1227.59 224.795 1227.08 224.386C1226.6 223.952 1226.36 223.29 1226.36 222.398C1226.36 221.435 1226.63 220.785 1227.19 220.447C1227.77 220.086 1228.87 219.905 1230.51 219.905H1231.27ZM1300.29 219.833C1301.27 219.833 1302.02 220.05 1302.53 220.483C1303.06 220.917 1303.32 221.555 1303.32 222.398C1303.32 223.266 1303.07 223.916 1302.56 224.35C1302.08 224.783 1301.37 225 1300.43 225H1276.8C1275.81 225 1275.05 224.783 1274.52 224.35C1274.02 223.916 1273.76 223.266 1273.76 222.398C1273.76 221.555 1274 220.917 1274.49 220.483C1274.99 220.05 1275.71 219.833 1276.65 219.833H1282.8V197.756H1276.87C1275.88 197.756 1275.11 197.527 1274.56 197.069C1274.03 196.612 1273.76 195.961 1273.76 195.118C1273.76 194.251 1274.02 193.601 1274.52 193.167C1275.03 192.733 1275.76 192.517 1276.73 192.517H1282.44V190.06C1282.44 185.7 1283.68 182.544 1286.16 180.593C1288.64 178.618 1292.65 177.63 1298.19 177.63C1300.89 177.63 1302.87 177.931 1304.15 178.533C1305.45 179.135 1306.1 180.075 1306.1 181.352C1306.1 182.098 1305.83 182.713 1305.27 183.194C1304.72 183.676 1304.01 183.917 1303.14 183.917C1302.71 183.917 1301.66 183.772 1300 183.483C1298.36 183.194 1296.95 183.05 1295.77 183.05C1293.05 183.05 1291.1 183.628 1289.92 184.784C1288.73 185.916 1288.14 187.807 1288.14 190.457V192.517H1300.94C1301.92 192.517 1302.67 192.733 1303.18 193.167C1303.71 193.601 1303.97 194.251 1303.97 195.118C1303.97 195.937 1303.71 196.588 1303.18 197.069C1302.65 197.527 1301.92 197.756 1301.01 197.756H1288.51V219.833H1300.29ZM1325.47 225.976C1324.94 227.18 1324.43 227.999 1323.95 228.433C1323.49 228.866 1322.94 229.083 1322.29 229.083C1321.62 229.083 1321.03 228.83 1320.52 228.324C1320.01 227.842 1319.76 227.252 1319.76 226.554C1319.76 226.361 1319.8 226.132 1319.87 225.867C1319.94 225.626 1320.04 225.361 1320.16 225.072L1342.71 176.474C1343.31 175.221 1343.84 174.378 1344.29 173.944C1344.75 173.487 1345.31 173.258 1345.96 173.258C1346.68 173.258 1347.29 173.499 1347.8 173.98C1348.31 174.462 1348.56 175.04 1348.56 175.715C1348.56 175.908 1348.52 176.124 1348.45 176.365C1348.4 176.606 1348.32 176.835 1348.2 177.052L1325.47 225.976ZM1365.47 225C1364.19 225 1363.24 224.747 1362.61 224.241C1362.01 223.711 1361.71 222.904 1361.71 221.82C1361.71 220.255 1364.02 217.316 1368.65 213.004L1369.7 211.992C1370.39 211.318 1371.41 210.354 1372.73 209.102C1381.07 201.249 1385.23 195.528 1385.23 191.938C1385.23 189.361 1384.5 187.277 1383.03 185.688C1381.56 184.074 1379.66 183.267 1377.32 183.267C1375.8 183.267 1374.35 183.58 1372.95 184.206C1371.58 184.832 1370.47 185.675 1369.62 186.735C1369.48 186.928 1369.25 187.253 1368.94 187.711C1368.05 189.325 1367.05 190.132 1365.94 190.132C1365.07 190.132 1364.46 189.867 1364.1 189.337C1363.73 188.807 1363.55 187.795 1363.55 186.302C1363.55 185.435 1363.64 184.808 1363.81 184.423C1363.98 184.013 1364.29 183.58 1364.75 183.122C1366.29 181.629 1368.19 180.448 1370.46 179.581C1372.74 178.69 1375.08 178.244 1377.46 178.244C1381.46 178.244 1384.8 179.533 1387.47 182.11C1390.17 184.688 1391.52 187.855 1391.52 191.613C1391.52 196.335 1387.43 202.61 1379.24 210.438C1377.14 212.39 1375.54 213.919 1374.43 215.027L1369.99 219.291H1386.5C1386.59 218.255 1386.87 217.472 1387.33 216.942C1387.81 216.388 1388.45 216.111 1389.24 216.111C1390.04 216.111 1390.67 216.376 1391.12 216.906C1391.58 217.436 1391.81 218.159 1391.81 219.074C1391.81 219.146 1391.8 219.279 1391.77 219.472C1391.75 219.64 1391.74 219.761 1391.74 219.833L1391.45 222.615C1391.38 223.362 1391.16 223.952 1390.8 224.386C1390.44 224.795 1389.97 225 1389.39 225H1365.47ZM1422.49 183.411C1419.72 183.411 1417.56 185.049 1416.02 188.325C1414.48 191.601 1413.71 196.226 1413.71 202.2C1413.71 208.198 1414.48 212.847 1416.02 216.147C1417.56 219.424 1419.72 221.062 1422.49 221.062C1425.28 221.062 1427.45 219.424 1428.99 216.147C1430.53 212.847 1431.3 208.198 1431.3 202.2C1431.3 196.226 1430.53 191.601 1428.99 188.325C1427.45 185.049 1425.28 183.411 1422.49 183.411ZM1422.49 226.192C1417.96 226.192 1414.36 224.061 1411.68 219.797C1409.03 215.509 1407.71 209.644 1407.71 202.2C1407.71 194.781 1409.03 188.939 1411.68 184.676C1414.36 180.388 1417.96 178.244 1422.49 178.244C1427.01 178.244 1430.62 180.388 1433.29 184.676C1435.96 188.964 1437.3 194.805 1437.3 202.2C1437.3 209.595 1435.96 215.449 1433.29 219.761C1430.62 224.049 1427.01 226.192 1422.49 226.192ZM1458.29 186.229C1457.98 186.278 1457.74 186.314 1457.57 186.338C1457.43 186.362 1457.29 186.374 1457.17 186.374C1456.43 186.374 1455.81 186.169 1455.33 185.76C1454.87 185.326 1454.64 184.76 1454.64 184.062C1454.64 183.483 1454.85 182.978 1455.26 182.544C1455.67 182.11 1456.26 181.785 1457.03 181.568L1467.76 178.678C1468.03 178.605 1468.28 178.557 1468.52 178.533C1468.78 178.485 1469.05 178.461 1469.31 178.461C1469.77 178.461 1470.13 178.678 1470.4 179.111C1470.66 179.521 1470.8 180.087 1470.8 180.81V219.905H1476.58C1478.72 219.905 1480.08 220.086 1480.66 220.447C1481.24 220.785 1481.53 221.435 1481.53 222.398C1481.53 223.266 1481.29 223.916 1480.8 224.35C1480.32 224.783 1479.6 225 1478.64 225H1457.03C1456.07 225 1455.34 224.783 1454.86 224.35C1454.38 223.916 1454.14 223.266 1454.14 222.398C1454.14 221.435 1454.43 220.785 1455.01 220.447C1455.58 220.086 1456.94 219.905 1459.09 219.905H1465.09V184.604L1458.29 186.229ZM1503.24 196.744C1504.83 196.166 1506.3 195.744 1507.65 195.479C1509 195.19 1510.29 195.046 1511.52 195.046C1515.73 195.046 1519.24 196.515 1522.03 199.454C1524.85 202.369 1526.26 205.994 1526.26 210.33C1526.26 214.931 1524.71 218.725 1521.6 221.712C1518.49 224.699 1514.52 226.192 1509.67 226.192C1505.63 226.192 1502.23 225.65 1499.49 224.566C1496.76 223.458 1495.4 222.121 1495.4 220.556C1495.4 219.929 1495.66 219.375 1496.16 218.894C1496.67 218.388 1497.26 218.135 1497.93 218.135C1498.2 218.135 1499.61 218.604 1502.16 219.544C1504.74 220.459 1507.12 220.917 1509.31 220.917C1512.54 220.917 1515.15 219.953 1517.15 218.026C1519.18 216.075 1520.19 213.57 1520.19 210.511C1520.19 207.524 1519.24 205.043 1517.33 203.067C1515.43 201.068 1513.04 200.068 1510.14 200.068C1507.98 200.068 1505.84 200.61 1503.75 201.694C1501.68 202.778 1500.42 203.32 1499.99 203.32C1499.27 203.32 1498.75 203.055 1498.44 202.525C1498.15 201.995 1498 201.032 1498 199.635V181.641C1498 180.846 1498.24 180.28 1498.73 179.942C1499.23 179.581 1500.1 179.4 1501.33 179.4H1519.61C1520.77 179.4 1521.63 179.641 1522.21 180.123C1522.79 180.581 1523.08 181.279 1523.08 182.219C1523.08 183.11 1522.78 183.809 1522.18 184.314C1521.57 184.796 1520.72 185.037 1519.61 185.037H1503.24V196.744Z" fill="#555555"/>
</svg>
