<svg width="1600" height="400" viewBox="0 0 1600 400" fill="none" xmlns="http://www.w3.org/2000/svg">
<rect width="1600" height="400" fill="white"/>
<path d="M95.5137 218.112C96.4479 218.112 97.1543 218.317 97.6328 218.728C98.1341 219.138 98.3848 219.742 98.3848 220.539C98.3848 221.359 98.1455 221.975 97.667 222.385C97.2113 222.795 96.5391 223 95.6504 223H73.2969C72.3626 223 71.6449 222.795 71.1436 222.385C70.665 221.975 70.4258 221.359 70.4258 220.539C70.4258 219.742 70.6536 219.138 71.1094 218.728C71.5879 218.317 72.2715 218.112 73.1602 218.112H78.9707V197.229H73.3652C72.431 197.229 71.7018 197.012 71.1777 196.579C70.6764 196.146 70.4258 195.531 70.4258 194.733C70.4258 193.913 70.665 193.298 71.1436 192.888C71.6221 192.478 72.3171 192.272 73.2285 192.272H78.6289V189.948C78.6289 185.824 79.8024 182.839 82.1494 180.993C84.4964 179.125 88.2904 178.19 93.5312 178.19C96.0833 178.19 97.9632 178.475 99.1709 179.045C100.401 179.615 101.017 180.503 101.017 181.711C101.017 182.417 100.755 182.998 100.23 183.454C99.7064 183.91 99.0342 184.138 98.2139 184.138C97.8037 184.138 96.8125 184.001 95.2402 183.728C93.6908 183.454 92.3577 183.317 91.2412 183.317C88.6663 183.317 86.8206 183.864 85.7041 184.958C84.5876 186.029 84.0293 187.818 84.0293 190.324V192.272H96.1289C97.0632 192.272 97.7695 192.478 98.248 192.888C98.7493 193.298 99 193.913 99 194.733C99 195.508 98.7493 196.123 98.248 196.579C97.7467 197.012 97.0632 197.229 96.1973 197.229H84.3711V218.112H95.5137ZM115.475 208.713C115.657 211.994 116.762 214.535 118.79 216.335C120.841 218.112 123.632 219.001 127.164 219.001C129.83 219.001 132.735 218.295 135.88 216.882C139.024 215.446 140.927 214.729 141.588 214.729C142.271 214.729 142.841 214.945 143.297 215.378C143.753 215.811 143.98 216.346 143.98 216.984C143.98 217.645 143.741 218.249 143.263 218.796C142.784 219.343 142.021 219.878 140.973 220.402C138.694 221.519 136.336 222.373 133.897 222.966C131.482 223.558 129.078 223.854 126.686 223.854C121.49 223.854 117.332 222.362 114.21 219.377C111.088 216.369 109.527 212.393 109.527 207.448C109.527 202.412 111.179 198.334 114.483 195.212C117.787 192.09 122.094 190.529 127.403 190.529C132.211 190.529 136.199 191.988 139.366 194.904C142.534 197.821 144.117 201.353 144.117 205.5C144.117 206.776 143.844 207.631 143.297 208.063C142.773 208.496 141.326 208.713 138.956 208.713H138.443H115.475ZM115.646 204.235H137.896C137.555 201.524 136.415 199.348 134.479 197.707C132.564 196.044 130.206 195.212 127.403 195.212C124.373 195.212 121.821 196.009 119.747 197.604C117.674 199.2 116.306 201.41 115.646 204.235ZM178.399 193.332C179.516 193.332 180.325 193.526 180.826 193.913C181.35 194.3 181.612 194.916 181.612 195.759C181.612 196.556 181.373 197.16 180.895 197.57C180.416 197.958 179.698 198.151 178.741 198.151H164.898V209.567C164.898 213.304 165.377 215.765 166.334 216.95C167.314 218.135 168.977 218.728 171.324 218.728C173.398 218.728 175.882 218.124 178.775 216.916C181.669 215.708 183.458 215.104 184.142 215.104C184.78 215.104 185.315 215.332 185.748 215.788C186.204 216.244 186.432 216.802 186.432 217.463C186.432 218.215 186.147 218.876 185.577 219.445C185.03 219.992 184.085 220.528 182.74 221.052C180.507 221.94 178.491 222.59 176.69 223C174.913 223.41 173.238 223.615 171.666 223.615C169 223.615 166.756 223.194 164.933 222.351C163.132 221.485 161.788 220.209 160.899 218.522C160.444 217.725 160.113 216.779 159.908 215.686C159.726 214.592 159.635 212.906 159.635 210.627V209.567V198.151H153.824C152.867 198.151 152.172 197.969 151.739 197.604C151.306 197.217 151.09 196.602 151.09 195.759C151.09 194.825 151.386 194.187 151.979 193.845C152.571 193.503 153.836 193.332 155.772 193.332H159.635V186.325V184.514C159.635 183.534 159.84 182.816 160.25 182.36C160.683 181.882 161.344 181.643 162.232 181.643C163.235 181.643 163.93 181.927 164.317 182.497C164.705 183.067 164.898 184.366 164.898 186.394V193.332H178.399ZM221.397 193.469V193.332C221.397 192.58 221.614 192.033 222.047 191.691C222.48 191.327 223.152 191.145 224.063 191.145C224.998 191.145 225.636 191.418 225.978 191.965C226.342 192.512 226.524 193.64 226.524 195.349V201.706C226.524 202.549 226.308 203.187 225.875 203.62C225.442 204.03 224.793 204.235 223.927 204.235C223.312 204.235 222.776 204.064 222.32 203.723C221.887 203.358 221.352 202.618 220.714 201.501C219.62 199.655 218.287 198.265 216.715 197.331C215.165 196.374 213.377 195.896 211.349 195.896C207.794 195.896 204.9 196.944 202.667 199.04C200.457 201.136 199.352 203.848 199.352 207.175C199.352 210.57 200.411 213.35 202.53 215.515C204.672 217.657 207.418 218.728 210.768 218.728C212.294 218.728 213.741 218.522 215.108 218.112C216.498 217.679 217.809 217.041 219.039 216.198C219.472 215.925 220.053 215.503 220.782 214.934C222.263 213.726 223.425 213.122 224.269 213.122C224.975 213.122 225.545 213.35 225.978 213.806C226.433 214.239 226.661 214.808 226.661 215.515C226.661 217.315 224.952 219.16 221.534 221.052C218.139 222.92 214.527 223.854 210.699 223.854C205.755 223.854 201.63 222.271 198.326 219.104C195.045 215.936 193.404 211.983 193.404 207.243C193.404 202.504 195.045 198.55 198.326 195.383C201.607 192.193 205.709 190.598 210.631 190.598C212.363 190.598 214.094 190.837 215.826 191.315C217.581 191.771 219.438 192.489 221.397 193.469ZM240.299 218.181V183.181H239.649C238.1 183.181 237.029 182.998 236.437 182.634C235.867 182.269 235.582 181.631 235.582 180.72C235.582 179.899 235.81 179.284 236.266 178.874C236.744 178.464 237.428 178.259 238.316 178.259H243.512C244.127 178.259 244.605 178.384 244.947 178.635C245.289 178.885 245.46 179.227 245.46 179.66V195.144C247.123 193.594 248.764 192.455 250.382 191.726C252.022 190.974 253.72 190.598 255.475 190.598C258.915 190.598 261.616 191.669 263.575 193.811C265.558 195.952 266.549 198.915 266.549 202.697V218.181H268.155C269.295 218.181 270.115 218.374 270.616 218.762C271.118 219.126 271.368 219.719 271.368 220.539C271.368 221.359 271.14 221.975 270.685 222.385C270.229 222.795 269.545 223 268.634 223H259.542C258.471 223 257.742 222.829 257.354 222.487C256.99 222.123 256.808 221.473 256.808 220.539C256.808 219.628 257.035 219.012 257.491 218.693C257.97 218.352 258.858 218.181 260.157 218.181H261.354V203.962C261.354 201.296 260.75 199.268 259.542 197.878C258.334 196.465 256.58 195.759 254.278 195.759C251.931 195.759 249.869 196.545 248.092 198.117C246.337 199.689 245.46 201.638 245.46 203.962V218.181H246.656C248.023 218.181 248.946 218.352 249.425 218.693C249.903 219.035 250.143 219.65 250.143 220.539C250.143 221.473 249.949 222.123 249.562 222.487C249.197 222.829 248.479 223 247.408 223H238.316C237.428 223 236.756 222.795 236.3 222.385C235.867 221.975 235.65 221.359 235.65 220.539C235.65 219.628 235.912 219.012 236.437 218.693C236.983 218.352 238.032 218.181 239.581 218.181H240.299ZM302.13 182.805C302.13 183.283 301.743 184.32 300.968 185.915C300.216 187.487 299.646 188.741 299.259 189.675C297.709 193.298 296.604 196.613 295.943 199.621C295.305 202.629 294.986 205.751 294.986 208.986C294.986 211.971 295.26 214.865 295.807 217.668C296.354 220.448 297.185 223.228 298.302 226.008C298.871 227.512 299.646 229.278 300.626 231.306C301.629 233.356 302.13 234.621 302.13 235.1C302.13 235.601 302.016 235.988 301.788 236.262C301.583 236.558 301.298 236.706 300.934 236.706C300.227 236.706 299.441 236.33 298.575 235.578C297.709 234.849 296.707 233.664 295.567 232.023C293.129 228.537 291.306 224.88 290.099 221.052C288.891 217.224 288.287 213.202 288.287 208.986C288.287 205.135 288.777 201.467 289.757 197.98C290.759 194.471 292.275 191.076 294.303 187.795C295.624 185.63 296.843 184.001 297.96 182.907C299.076 181.813 300.068 181.267 300.934 181.267C301.298 181.267 301.583 181.415 301.788 181.711C302.016 181.984 302.13 182.349 302.13 182.805ZM1507.41 235.1C1507.41 234.644 1507.8 233.63 1508.57 232.058C1509.35 230.508 1509.94 229.266 1510.35 228.332C1511.87 224.686 1512.97 221.359 1513.63 218.352C1514.29 215.321 1514.62 212.199 1514.62 208.986C1514.62 206.07 1514.34 203.21 1513.77 200.407C1513.22 197.582 1512.38 194.756 1511.24 191.931C1510.64 190.427 1509.86 188.661 1508.88 186.633C1507.9 184.582 1507.41 183.306 1507.41 182.805C1507.41 182.349 1507.52 181.984 1507.75 181.711C1507.98 181.415 1508.27 181.267 1508.64 181.267C1509.39 181.267 1510.19 181.643 1511.03 182.395C1511.9 183.124 1512.9 184.297 1514.04 185.915C1516.48 189.379 1518.3 193.036 1519.51 196.887C1520.72 200.738 1521.32 204.771 1521.32 208.986C1521.32 212.837 1520.81 216.517 1519.78 220.026C1518.78 223.535 1517.26 226.931 1515.24 230.212C1513.82 232.445 1512.58 234.086 1511.51 235.134C1510.46 236.182 1509.5 236.706 1508.64 236.706C1508.27 236.706 1507.98 236.558 1507.75 236.262C1507.52 235.965 1507.41 235.578 1507.41 235.1Z" fill="#555555"/>
<path d="M345.777 197.604C345.618 198.243 345.424 198.653 345.196 198.835C344.968 198.994 344.581 199.074 344.034 199.074H338.019C337.768 199.074 337.563 199.017 337.403 198.903C337.244 198.789 337.164 198.653 337.164 198.493C337.164 198.425 337.187 198.322 337.232 198.186C337.278 198.049 337.324 197.901 337.369 197.741L344.889 182.258C345.071 181.916 345.253 181.665 345.436 181.506C345.618 181.346 345.8 181.267 345.982 181.267C346.096 181.267 346.244 181.289 346.427 181.335C346.495 181.381 346.541 181.403 346.563 181.403L348.512 182.121C348.785 182.212 348.99 182.36 349.127 182.565C349.286 182.748 349.366 182.953 349.366 183.181C349.366 183.363 349.355 183.511 349.332 183.625C349.332 183.716 349.321 183.796 349.298 183.864L345.777 197.604ZM332.345 197.604C332.185 198.243 331.992 198.653 331.764 198.835C331.536 198.994 331.148 199.074 330.602 199.074H324.654C324.381 199.074 324.153 199.017 323.971 198.903C323.811 198.789 323.731 198.653 323.731 198.493C323.731 198.425 323.743 198.322 323.766 198.186C323.811 198.049 323.868 197.901 323.937 197.741L331.422 182.258C331.627 181.916 331.821 181.665 332.003 181.506C332.185 181.346 332.39 181.267 332.618 181.267C332.732 181.267 332.88 181.289 333.062 181.335C333.108 181.381 333.154 181.403 333.199 181.403L335.079 182.121C335.353 182.212 335.569 182.36 335.729 182.565C335.911 182.748 336.002 182.953 336.002 183.181C336.002 183.272 335.979 183.374 335.934 183.488C335.911 183.602 335.877 183.728 335.831 183.864L332.345 197.604ZM366.422 218.181V183.181H365.772C364.223 183.181 363.152 182.998 362.56 182.634C361.99 182.269 361.705 181.631 361.705 180.72C361.705 179.899 361.933 179.284 362.389 178.874C362.867 178.464 363.551 178.259 364.439 178.259H369.635C370.25 178.259 370.729 178.384 371.07 178.635C371.412 178.885 371.583 179.227 371.583 179.66V195.144C373.246 193.594 374.887 192.455 376.505 191.726C378.146 190.974 379.843 190.598 381.598 190.598C385.038 190.598 387.739 191.669 389.698 193.811C391.681 195.952 392.672 198.915 392.672 202.697V218.181H394.278C395.418 218.181 396.238 218.374 396.739 218.762C397.241 219.126 397.491 219.719 397.491 220.539C397.491 221.359 397.263 221.975 396.808 222.385C396.352 222.795 395.668 223 394.757 223H385.665C384.594 223 383.865 222.829 383.478 222.487C383.113 222.123 382.931 221.473 382.931 220.539C382.931 219.628 383.159 219.012 383.614 218.693C384.093 218.352 384.981 218.181 386.28 218.181H387.477V203.962C387.477 201.296 386.873 199.268 385.665 197.878C384.457 196.465 382.703 195.759 380.401 195.759C378.054 195.759 375.992 196.545 374.215 198.117C372.46 199.689 371.583 201.638 371.583 203.962V218.181H372.779C374.146 218.181 375.069 218.352 375.548 218.693C376.026 219.035 376.266 219.65 376.266 220.539C376.266 221.473 376.072 222.123 375.685 222.487C375.32 222.829 374.602 223 373.531 223H364.439C363.551 223 362.879 222.795 362.423 222.385C361.99 221.975 361.773 221.359 361.773 220.539C361.773 219.628 362.035 219.012 362.56 218.693C363.106 218.352 364.155 218.181 365.704 218.181H366.422ZM430.646 193.332C431.762 193.332 432.571 193.526 433.072 193.913C433.596 194.3 433.858 194.916 433.858 195.759C433.858 196.556 433.619 197.16 433.141 197.57C432.662 197.958 431.944 198.151 430.987 198.151H417.145V209.567C417.145 213.304 417.623 215.765 418.58 216.95C419.56 218.135 421.223 218.728 423.57 218.728C425.644 218.728 428.128 218.124 431.021 216.916C433.915 215.708 435.704 215.104 436.388 215.104C437.026 215.104 437.561 215.332 437.994 215.788C438.45 216.244 438.678 216.802 438.678 217.463C438.678 218.215 438.393 218.876 437.823 219.445C437.276 219.992 436.331 220.528 434.986 221.052C432.753 221.94 430.737 222.59 428.937 223C427.159 223.41 425.484 223.615 423.912 223.615C421.246 223.615 419.002 223.194 417.179 222.351C415.379 221.485 414.034 220.209 413.146 218.522C412.69 217.725 412.359 216.779 412.154 215.686C411.972 214.592 411.881 212.906 411.881 210.627V209.567V198.151H406.07C405.113 198.151 404.418 197.969 403.985 197.604C403.552 197.217 403.336 196.602 403.336 195.759C403.336 194.825 403.632 194.187 404.225 193.845C404.817 193.503 406.082 193.332 408.019 193.332H411.881V186.325V184.514C411.881 183.534 412.086 182.816 412.496 182.36C412.929 181.882 413.59 181.643 414.479 181.643C415.481 181.643 416.176 181.927 416.563 182.497C416.951 183.067 417.145 184.366 417.145 186.394V193.332H430.646ZM472.687 193.332C473.803 193.332 474.612 193.526 475.113 193.913C475.637 194.3 475.899 194.916 475.899 195.759C475.899 196.556 475.66 197.16 475.182 197.57C474.703 197.958 473.985 198.151 473.028 198.151H459.186V209.567C459.186 213.304 459.664 215.765 460.621 216.95C461.601 218.135 463.264 218.728 465.611 218.728C467.685 218.728 470.169 218.124 473.062 216.916C475.956 215.708 477.745 215.104 478.429 215.104C479.067 215.104 479.602 215.332 480.035 215.788C480.491 216.244 480.719 216.802 480.719 217.463C480.719 218.215 480.434 218.876 479.864 219.445C479.317 219.992 478.372 220.528 477.027 221.052C474.794 221.94 472.778 222.59 470.978 223C469.2 223.41 467.525 223.615 465.953 223.615C463.287 223.615 461.043 223.194 459.22 222.351C457.42 221.485 456.075 220.209 455.187 218.522C454.731 217.725 454.4 216.779 454.195 215.686C454.013 214.592 453.922 212.906 453.922 210.627V209.567V198.151H448.111C447.154 198.151 446.459 197.969 446.026 197.604C445.593 197.217 445.377 196.602 445.377 195.759C445.377 194.825 445.673 194.187 446.266 193.845C446.858 193.503 448.123 193.332 450.06 193.332H453.922V186.325V184.514C453.922 183.534 454.127 182.816 454.537 182.36C454.97 181.882 455.631 181.643 456.52 181.643C457.522 181.643 458.217 181.927 458.604 182.497C458.992 183.067 459.186 184.366 459.186 186.394V193.332H472.687ZM496.578 231.75H504.781C505.647 231.75 506.297 231.955 506.729 232.365C507.162 232.775 507.379 233.391 507.379 234.211C507.379 235.1 507.162 235.726 506.729 236.091C506.319 236.455 505.579 236.638 504.508 236.638H489.435C488.523 236.638 487.828 236.433 487.35 236.022C486.894 235.612 486.666 235.008 486.666 234.211C486.666 233.299 486.951 232.661 487.521 232.297C488.113 231.932 489.195 231.75 490.768 231.75H491.417V196.271H490.768C489.195 196.271 488.113 196.089 487.521 195.725C486.951 195.36 486.666 194.722 486.666 193.811C486.666 193.013 486.894 192.421 487.35 192.033C487.828 191.623 488.523 191.418 489.435 191.418H494.63C495.313 191.418 495.803 191.532 496.1 191.76C496.419 191.988 496.578 192.341 496.578 192.819V196.135C498.128 194.54 499.837 193.343 501.705 192.546C503.596 191.748 505.624 191.35 507.789 191.35C512.369 191.35 516.197 192.899 519.273 195.998C522.35 199.097 523.888 202.982 523.888 207.653C523.888 212.142 522.429 215.834 519.513 218.728C516.596 221.621 512.87 223.068 508.336 223.068C505.921 223.068 503.699 222.647 501.671 221.804C499.643 220.938 497.945 219.707 496.578 218.112V231.75ZM507.174 218.044C510.341 218.044 512.939 217.053 514.967 215.07C516.995 213.065 518.009 210.479 518.009 207.312C518.009 204.213 516.983 201.66 514.933 199.655C512.905 197.627 510.318 196.613 507.174 196.613C504.029 196.613 501.454 197.616 499.449 199.621C497.444 201.626 496.441 204.19 496.441 207.312C496.441 210.456 497.433 213.031 499.415 215.036C501.42 217.041 504.007 218.044 507.174 218.044ZM532.535 220.539V214.455C532.535 213.452 532.717 212.735 533.082 212.302C533.469 211.869 534.085 211.652 534.928 211.652C535.862 211.652 536.603 212.29 537.149 213.566C537.514 214.341 537.844 214.922 538.141 215.31C539.098 216.54 540.51 217.531 542.379 218.283C544.247 219.012 546.31 219.377 548.565 219.377C550.981 219.377 552.918 218.887 554.376 217.907C555.834 216.927 556.563 215.64 556.563 214.045C556.563 212.427 555.971 211.276 554.786 210.593C553.624 209.909 551.619 209.567 548.771 209.567H546.891C542.242 209.567 538.699 208.758 536.261 207.141C533.823 205.523 532.604 203.176 532.604 200.1C532.604 197.092 533.788 194.756 536.158 193.093C538.551 191.429 541.9 190.598 546.207 190.598C547.962 190.598 549.75 190.848 551.573 191.35C553.396 191.828 554.353 192.067 554.444 192.067C554.695 192.067 555.174 191.851 555.88 191.418C556.586 190.962 557.281 190.734 557.965 190.734C558.74 190.734 559.309 191.019 559.674 191.589C560.061 192.159 560.255 193.013 560.255 194.152V198.151C560.255 199.359 560.073 200.236 559.708 200.783C559.343 201.307 558.762 201.569 557.965 201.569C557.281 201.569 556.438 200.988 555.436 199.826C554.729 199.029 554.148 198.425 553.692 198.015C552.485 196.898 551.197 196.101 549.83 195.622C548.463 195.121 546.856 194.87 545.011 194.87C542.869 194.87 541.137 195.349 539.815 196.306C538.517 197.24 537.867 198.436 537.867 199.895C537.867 201.33 538.539 202.355 539.884 202.971C541.228 203.586 544.122 203.939 548.565 204.03C553.305 204.144 556.769 204.976 558.956 206.525C561.144 208.052 562.237 210.422 562.237 213.635C562.237 216.711 561.03 219.172 558.614 221.018C556.199 222.863 552.94 223.786 548.839 223.786C547.54 223.786 546.093 223.661 544.498 223.41C542.903 223.182 540.898 222.784 538.482 222.214C537.685 222.738 537.001 223.125 536.432 223.376C535.862 223.649 535.383 223.786 534.996 223.786C534.199 223.786 533.583 223.513 533.15 222.966C532.74 222.396 532.535 221.587 532.535 220.539ZM582.779 198.493C582.779 196.716 583.395 195.257 584.625 194.118C585.878 192.979 587.496 192.409 589.479 192.409C591.507 192.409 593.136 192.967 594.366 194.084C595.597 195.201 596.212 196.67 596.212 198.493C596.212 200.316 595.585 201.786 594.332 202.902C593.102 204.019 591.484 204.577 589.479 204.577C587.473 204.577 585.855 204.019 584.625 202.902C583.395 201.786 582.779 200.316 582.779 198.493ZM582.779 217.395C582.779 215.617 583.395 214.159 584.625 213.02C585.878 211.88 587.496 211.311 589.479 211.311C591.507 211.311 593.136 211.869 594.366 212.985C595.597 214.102 596.212 215.572 596.212 217.395C596.212 219.217 595.585 220.687 594.332 221.804C593.102 222.92 591.484 223.479 589.479 223.479C587.473 223.479 585.855 222.92 584.625 221.804C583.395 220.687 582.779 219.217 582.779 217.395ZM623.829 223.923C623.328 225.062 622.849 225.837 622.394 226.247C621.961 226.657 621.437 226.862 620.821 226.862C620.183 226.862 619.625 226.623 619.146 226.145C618.668 225.689 618.429 225.131 618.429 224.47C618.429 224.287 618.463 224.071 618.531 223.82C618.6 223.592 618.691 223.342 618.805 223.068L640.133 177.097C640.702 175.912 641.204 175.114 641.637 174.704C642.07 174.271 642.594 174.055 643.209 174.055C643.893 174.055 644.474 174.283 644.952 174.738C645.431 175.194 645.67 175.741 645.67 176.379C645.67 176.561 645.636 176.766 645.567 176.994C645.522 177.222 645.442 177.438 645.328 177.644L623.829 223.923ZM665.87 223.923C665.369 225.062 664.89 225.837 664.435 226.247C664.002 226.657 663.478 226.862 662.862 226.862C662.224 226.862 661.666 226.623 661.188 226.145C660.709 225.689 660.47 225.131 660.47 224.47C660.47 224.287 660.504 224.071 660.572 223.82C660.641 223.592 660.732 223.342 660.846 223.068L682.174 177.097C682.743 175.912 683.245 175.114 683.678 174.704C684.111 174.271 684.635 174.055 685.25 174.055C685.934 174.055 686.515 174.283 686.993 174.738C687.472 175.194 687.711 175.741 687.711 176.379C687.711 176.561 687.677 176.766 687.608 176.994C687.563 177.222 687.483 177.438 687.369 177.644L665.87 223.923ZM702.887 218.181V196.271H702.237C700.688 196.271 699.617 196.089 699.024 195.725C698.455 195.36 698.17 194.722 698.17 193.811C698.17 192.967 698.409 192.364 698.888 191.999C699.366 191.612 700.141 191.418 701.212 191.418H702.818H706.1C706.715 191.418 707.193 191.543 707.535 191.794C707.877 192.045 708.048 192.386 708.048 192.819V195.144C709.711 193.594 711.352 192.455 712.97 191.726C714.61 190.974 716.308 190.598 718.062 190.598C721.503 190.598 724.203 191.669 726.163 193.811C728.146 195.952 729.137 198.915 729.137 202.697V218.181H730.743C731.882 218.181 732.703 218.374 733.204 218.762C733.705 219.126 733.956 219.719 733.956 220.539C733.956 221.428 733.683 222.066 733.136 222.453C732.612 222.818 731.666 223 730.299 223H722.745C721.287 223 720.353 222.829 719.942 222.487C719.532 222.146 719.327 221.496 719.327 220.539C719.327 219.65 719.566 219.035 720.045 218.693C720.523 218.352 721.424 218.181 722.745 218.181H723.941V203.962C723.941 201.296 723.338 199.268 722.13 197.878C720.922 196.465 719.168 195.759 716.866 195.759C714.542 195.759 712.491 196.545 710.714 198.117C708.937 199.689 708.048 201.638 708.048 203.962V218.181H709.244C710.611 218.181 711.534 218.352 712.013 218.693C712.491 219.035 712.73 219.65 712.73 220.539C712.73 221.496 712.525 222.146 712.115 222.487C711.705 222.829 710.702 223 709.107 223H702.887H701.041C700.107 223 699.4 222.806 698.922 222.419C698.466 222.009 698.238 221.382 698.238 220.539C698.238 219.628 698.5 219.012 699.024 218.693C699.571 218.352 700.619 218.181 702.169 218.181H702.887ZM746.09 208.713C746.272 211.994 747.377 214.535 749.405 216.335C751.456 218.112 754.247 219.001 757.779 219.001C760.445 219.001 763.351 218.295 766.495 216.882C769.64 215.446 771.542 214.729 772.203 214.729C772.887 214.729 773.456 214.945 773.912 215.378C774.368 215.811 774.596 216.346 774.596 216.984C774.596 217.645 774.356 218.249 773.878 218.796C773.399 219.343 772.636 219.878 771.588 220.402C769.309 221.519 766.951 222.373 764.513 222.966C762.097 223.558 759.693 223.854 757.301 223.854C752.105 223.854 747.947 222.362 744.825 219.377C741.703 216.369 740.143 212.393 740.143 207.448C740.143 202.412 741.795 198.334 745.099 195.212C748.403 192.09 752.709 190.529 758.019 190.529C762.826 190.529 766.814 191.988 769.981 194.904C773.149 197.821 774.732 201.353 774.732 205.5C774.732 206.776 774.459 207.631 773.912 208.063C773.388 208.496 771.941 208.713 769.571 208.713H769.059H746.09ZM746.261 204.235H768.512C768.17 201.524 767.031 199.348 765.094 197.707C763.18 196.044 760.821 195.212 758.019 195.212C754.988 195.212 752.436 196.009 750.362 197.604C748.289 199.2 746.922 201.41 746.261 204.235ZM792.198 218.181H793.189C794.329 218.181 795.217 218.397 795.855 218.83C796.493 219.24 796.812 219.833 796.812 220.607C796.812 221.428 796.528 222.032 795.958 222.419C795.411 222.806 794.534 223 793.326 223H783.893C783.209 223 782.639 222.772 782.184 222.316C781.728 221.861 781.5 221.291 781.5 220.607C781.5 219.764 781.808 219.149 782.423 218.762C783.038 218.374 784.018 218.181 785.362 218.181H786.046L797.12 206.833L786.251 196.271H785.772C784.451 196.271 783.528 196.101 783.004 195.759C782.503 195.394 782.252 194.768 782.252 193.879C782.252 192.945 782.537 192.307 783.106 191.965C783.699 191.6 784.815 191.418 786.456 191.418H793.463C794.693 191.418 795.582 191.623 796.129 192.033C796.699 192.421 796.983 193.036 796.983 193.879C796.983 194.654 796.664 195.246 796.026 195.656C795.411 196.066 794.511 196.271 793.326 196.271H793.053L800.401 203.483L807.408 196.271H806.69C805.414 196.271 804.469 196.089 803.854 195.725C803.238 195.337 802.931 194.745 802.931 193.947C802.931 193.059 803.204 192.421 803.751 192.033C804.298 191.623 805.187 191.418 806.417 191.418H815.304C816.01 191.418 816.58 191.646 817.013 192.102C817.468 192.535 817.696 193.104 817.696 193.811C817.696 194.654 817.411 195.28 816.842 195.69C816.272 196.078 815.361 196.271 814.107 196.271H813.15L803.341 206.491L815.304 218.181H815.646C816.511 218.181 817.184 218.397 817.662 218.83C818.141 219.24 818.38 219.833 818.38 220.607C818.38 221.519 818.106 222.146 817.56 222.487C817.013 222.829 815.885 223 814.176 223H807.203C805.995 223 805.107 222.806 804.537 222.419C803.967 222.032 803.683 221.428 803.683 220.607C803.683 219.855 803.956 219.263 804.503 218.83C805.05 218.397 805.802 218.181 806.759 218.181H808.673L800.06 209.772L792.198 218.181ZM851.056 193.332C852.172 193.332 852.981 193.526 853.482 193.913C854.007 194.3 854.269 194.916 854.269 195.759C854.269 196.556 854.029 197.16 853.551 197.57C853.072 197.958 852.354 198.151 851.397 198.151H837.555V209.567C837.555 213.304 838.033 215.765 838.99 216.95C839.97 218.135 841.633 218.728 843.98 218.728C846.054 218.728 848.538 218.124 851.432 216.916C854.326 215.708 856.114 215.104 856.798 215.104C857.436 215.104 857.971 215.332 858.404 215.788C858.86 216.244 859.088 216.802 859.088 217.463C859.088 218.215 858.803 218.876 858.233 219.445C857.687 219.992 856.741 220.528 855.396 221.052C853.163 221.94 851.147 222.59 849.347 223C847.569 223.41 845.895 223.615 844.322 223.615C841.656 223.615 839.412 223.194 837.589 222.351C835.789 221.485 834.444 220.209 833.556 218.522C833.1 217.725 832.77 216.779 832.564 215.686C832.382 214.592 832.291 212.906 832.291 210.627V209.567V198.151H826.48C825.523 198.151 824.828 197.969 824.396 197.604C823.963 197.217 823.746 196.602 823.746 195.759C823.746 194.825 824.042 194.187 824.635 193.845C825.227 193.503 826.492 193.332 828.429 193.332H832.291V186.325V184.514C832.291 183.534 832.496 182.816 832.906 182.36C833.339 181.882 834 181.643 834.889 181.643C835.891 181.643 836.586 181.927 836.974 182.497C837.361 183.067 837.555 184.366 837.555 186.394V193.332H851.056ZM869.513 210.524C869.057 210.524 868.692 210.388 868.419 210.114C868.168 209.818 868.043 209.419 868.043 208.918V205.295C868.043 204.862 868.168 204.52 868.419 204.27C868.692 204.019 869.057 203.894 869.513 203.894H897.848C898.372 203.894 898.782 204.019 899.078 204.27C899.374 204.52 899.522 204.862 899.522 205.295V208.918C899.522 209.328 899.352 209.704 899.01 210.046C898.668 210.365 898.281 210.524 897.848 210.524H869.513ZM925.602 205.637L921.192 221.872C920.965 222.738 920.623 223.342 920.167 223.684C919.711 224.025 919.028 224.196 918.116 224.196C917.296 224.196 916.658 223.98 916.202 223.547C915.746 223.114 915.336 222.328 914.972 221.188L907.145 196.271H906.837C905.88 196.271 905.196 196.089 904.786 195.725C904.353 195.337 904.137 194.699 904.137 193.811C904.137 193.036 904.365 192.443 904.82 192.033C905.253 191.623 905.903 191.418 906.769 191.418H915.895C917.125 191.418 917.957 191.6 918.39 191.965C918.823 192.307 919.039 192.922 919.039 193.811C919.039 194.357 918.914 194.836 918.663 195.246C918.412 195.633 918.093 195.873 917.706 195.964C917.319 196.078 916.863 196.158 916.339 196.203C915.838 196.249 915.222 196.271 914.493 196.271H912.511L918.39 216.779L922.799 201.877C923.049 201.011 923.403 200.407 923.858 200.065C924.314 199.724 924.986 199.553 925.875 199.553C926.695 199.553 927.333 199.781 927.789 200.236C928.268 200.669 928.689 201.444 929.054 202.561L933.326 216.779L938.966 196.271H938.146H936.676C935.104 196.271 934.044 196.101 933.497 195.759C932.95 195.394 932.677 194.745 932.677 193.811C932.677 192.899 932.882 192.272 933.292 191.931C933.702 191.589 934.5 191.418 935.685 191.418H944.845C945.551 191.418 946.075 191.623 946.417 192.033C946.782 192.443 946.964 193.036 946.964 193.811C946.964 194.676 946.759 195.292 946.349 195.656C945.938 196.021 945.164 196.226 944.024 196.271L936.334 221.872C936.038 222.738 935.662 223.342 935.206 223.684C934.773 224.025 934.112 224.196 933.224 224.196C932.403 224.196 931.754 223.968 931.275 223.513C930.797 223.08 930.398 222.305 930.079 221.188L925.602 205.637ZM956.295 208.713C956.477 211.994 957.582 214.535 959.61 216.335C961.661 218.112 964.452 219.001 967.984 219.001C970.65 219.001 973.556 218.295 976.7 216.882C979.845 215.446 981.747 214.729 982.408 214.729C983.092 214.729 983.661 214.945 984.117 215.378C984.573 215.811 984.801 216.346 984.801 216.984C984.801 217.645 984.562 218.249 984.083 218.796C983.604 219.343 982.841 219.878 981.793 220.402C979.514 221.519 977.156 222.373 974.718 222.966C972.302 223.558 969.898 223.854 967.506 223.854C962.311 223.854 958.152 222.362 955.03 219.377C951.909 216.369 950.348 212.393 950.348 207.448C950.348 202.412 952 198.334 955.304 195.212C958.608 192.09 962.914 190.529 968.224 190.529C973.032 190.529 977.019 191.988 980.187 194.904C983.354 197.821 984.938 201.353 984.938 205.5C984.938 206.776 984.664 207.631 984.117 208.063C983.593 208.496 982.146 208.713 979.776 208.713H979.264H956.295ZM956.466 204.235H978.717C978.375 201.524 977.236 199.348 975.299 197.707C973.385 196.044 971.026 195.212 968.224 195.212C965.193 195.212 962.641 196.009 960.567 197.604C958.494 199.2 957.127 201.41 956.466 204.235ZM1011.73 218.249C1014.95 218.249 1017.56 217.235 1019.56 215.207C1021.57 213.179 1022.57 210.547 1022.57 207.312C1022.57 204.144 1021.54 201.535 1019.49 199.484C1017.47 197.434 1014.88 196.408 1011.73 196.408C1008.57 196.408 1005.97 197.434 1003.94 199.484C1001.94 201.512 1000.93 204.121 1000.93 207.312C1000.93 210.502 1001.94 213.122 1003.94 215.173C1005.97 217.224 1008.57 218.249 1011.73 218.249ZM1001.07 196.34C1002.35 194.745 1003.94 193.526 1005.86 192.683C1007.77 191.84 1009.93 191.418 1012.35 191.418C1016.93 191.418 1020.75 192.967 1023.8 196.066C1026.85 199.143 1028.38 202.959 1028.38 207.517C1028.38 212.006 1026.81 215.811 1023.66 218.933C1020.54 222.054 1016.72 223.615 1012.21 223.615C1009.82 223.615 1007.74 223.194 1005.96 222.351C1004.18 221.507 1002.72 220.231 1001.58 218.522V221.257C1001.58 221.872 1001.47 222.316 1001.24 222.59C1001.04 222.863 1000.68 223 1000.18 223H993.927C993.038 223 992.377 222.795 991.944 222.385C991.511 221.975 991.295 221.359 991.295 220.539C991.295 219.628 991.557 219.012 992.081 218.693C992.605 218.352 993.642 218.181 995.191 218.181H995.909V183.181H995.26C993.71 183.181 992.651 182.998 992.081 182.634C991.511 182.269 991.227 181.631 991.227 180.72C991.227 179.899 991.454 179.284 991.91 178.874C992.366 178.464 993.038 178.259 993.927 178.259H999.122C999.806 178.259 1000.3 178.373 1000.59 178.601C1000.91 178.828 1001.07 179.182 1001.07 179.66V196.34ZM1037.68 210.524C1037.22 210.524 1036.86 210.388 1036.58 210.114C1036.33 209.818 1036.21 209.419 1036.21 208.918V205.295C1036.21 204.862 1036.33 204.52 1036.58 204.27C1036.86 204.019 1037.22 203.894 1037.68 203.894H1066.01C1066.54 203.894 1066.95 204.019 1067.24 204.27C1067.54 204.52 1067.69 204.862 1067.69 205.295V208.918C1067.69 209.328 1067.52 209.704 1067.17 210.046C1066.83 210.365 1066.44 210.524 1066.01 210.524H1037.68ZM1104.26 193.469V193.332C1104.26 192.58 1104.48 192.033 1104.91 191.691C1105.34 191.327 1106.01 191.145 1106.92 191.145C1107.86 191.145 1108.5 191.418 1108.84 191.965C1109.2 192.512 1109.39 193.64 1109.39 195.349V201.706C1109.39 202.549 1109.17 203.187 1108.74 203.62C1108.3 204.03 1107.65 204.235 1106.79 204.235C1106.17 204.235 1105.64 204.064 1105.18 203.723C1104.75 203.358 1104.21 202.618 1103.58 201.501C1102.48 199.655 1101.15 198.265 1099.58 197.331C1098.03 196.374 1096.24 195.896 1094.21 195.896C1090.66 195.896 1087.76 196.944 1085.53 199.04C1083.32 201.136 1082.21 203.848 1082.21 207.175C1082.21 210.57 1083.27 213.35 1085.39 215.515C1087.53 217.657 1090.28 218.728 1093.63 218.728C1095.16 218.728 1096.6 218.522 1097.97 218.112C1099.36 217.679 1100.67 217.041 1101.9 216.198C1102.33 215.925 1102.91 215.503 1103.64 214.934C1105.12 213.726 1106.29 213.122 1107.13 213.122C1107.84 213.122 1108.41 213.35 1108.84 213.806C1109.29 214.239 1109.52 214.808 1109.52 215.515C1109.52 217.315 1107.81 219.16 1104.4 221.052C1101 222.92 1097.39 223.854 1093.56 223.854C1088.62 223.854 1084.49 222.271 1081.19 219.104C1077.91 215.936 1076.27 211.983 1076.27 207.243C1076.27 202.504 1077.91 198.55 1081.19 195.383C1084.47 192.193 1088.57 190.598 1093.49 190.598C1095.22 190.598 1096.96 190.837 1098.69 191.315C1100.44 191.771 1102.3 192.489 1104.26 193.469ZM1136.01 219.069C1139.52 219.069 1142.39 217.964 1144.62 215.754C1146.88 213.521 1148.01 210.684 1148.01 207.243C1148.01 203.802 1146.88 200.965 1144.62 198.732C1142.37 196.477 1139.5 195.349 1136.01 195.349C1132.53 195.349 1129.65 196.477 1127.4 198.732C1125.17 200.965 1124.05 203.802 1124.05 207.243C1124.05 210.707 1125.17 213.544 1127.4 215.754C1129.63 217.964 1132.5 219.069 1136.01 219.069ZM1153.96 207.243C1153.96 212.119 1152.29 216.107 1148.97 219.206C1145.64 222.305 1141.32 223.854 1136.01 223.854C1130.73 223.854 1126.42 222.305 1123.09 219.206C1119.76 216.107 1118.1 212.119 1118.1 207.243C1118.1 202.367 1119.76 198.391 1123.09 195.314C1126.42 192.215 1130.73 190.666 1136.01 190.666C1141.3 190.666 1145.6 192.215 1148.93 195.314C1152.28 198.413 1153.96 202.39 1153.96 207.243ZM1165.34 218.181V196.271H1164.69C1163.14 196.271 1162.07 196.089 1161.48 195.725C1160.91 195.36 1160.62 194.722 1160.62 193.811C1160.62 192.967 1160.86 192.364 1161.34 191.999C1161.82 191.612 1162.59 191.418 1163.66 191.418H1165.27H1168.55C1169.17 191.418 1169.64 191.543 1169.99 191.794C1170.33 192.045 1170.5 192.386 1170.5 192.819V195.144C1172.16 193.594 1173.8 192.455 1175.42 191.726C1177.06 190.974 1178.76 190.598 1180.51 190.598C1183.95 190.598 1186.65 191.669 1188.61 193.811C1190.6 195.952 1191.59 198.915 1191.59 202.697V218.181H1193.19C1194.33 218.181 1195.15 218.374 1195.66 218.762C1196.16 219.126 1196.41 219.719 1196.41 220.539C1196.41 221.428 1196.13 222.066 1195.59 222.453C1195.06 222.818 1194.12 223 1192.75 223H1185.2C1183.74 223 1182.8 222.829 1182.39 222.487C1181.98 222.146 1181.78 221.496 1181.78 220.539C1181.78 219.65 1182.02 219.035 1182.5 218.693C1182.97 218.352 1183.87 218.181 1185.2 218.181H1186.39V203.962C1186.39 201.296 1185.79 199.268 1184.58 197.878C1183.37 196.465 1181.62 195.759 1179.32 195.759C1176.99 195.759 1174.94 196.545 1173.17 198.117C1171.39 199.689 1170.5 201.638 1170.5 203.962V218.181H1171.7C1173.06 218.181 1173.99 218.352 1174.46 218.693C1174.94 219.035 1175.18 219.65 1175.18 220.539C1175.18 221.496 1174.98 222.146 1174.57 222.487C1174.16 222.829 1173.15 223 1171.56 223H1165.34H1163.49C1162.56 223 1161.85 222.806 1161.37 222.419C1160.92 222.009 1160.69 221.382 1160.69 220.539C1160.69 219.628 1160.95 219.012 1161.48 218.693C1162.02 218.352 1163.07 218.181 1164.62 218.181H1165.34ZM1230.62 218.112C1231.56 218.112 1232.26 218.317 1232.74 218.728C1233.24 219.138 1233.49 219.742 1233.49 220.539C1233.49 221.359 1233.25 221.975 1232.77 222.385C1232.32 222.795 1231.65 223 1230.76 223H1208.4C1207.47 223 1206.75 222.795 1206.25 222.385C1205.77 221.975 1205.53 221.359 1205.53 220.539C1205.53 219.742 1205.76 219.138 1206.22 218.728C1206.7 218.317 1207.38 218.112 1208.27 218.112H1214.08V197.229H1208.47C1207.54 197.229 1206.81 197.012 1206.29 196.579C1205.78 196.146 1205.53 195.531 1205.53 194.733C1205.53 193.913 1205.77 193.298 1206.25 192.888C1206.73 192.478 1207.42 192.272 1208.34 192.272H1213.74V189.948C1213.74 185.824 1214.91 182.839 1217.26 180.993C1219.6 179.125 1223.4 178.19 1228.64 178.19C1231.19 178.19 1233.07 178.475 1234.28 179.045C1235.51 179.615 1236.12 180.503 1236.12 181.711C1236.12 182.417 1235.86 182.998 1235.34 183.454C1234.81 183.91 1234.14 184.138 1233.32 184.138C1232.91 184.138 1231.92 184.001 1230.35 183.728C1228.8 183.454 1227.47 183.317 1226.35 183.317C1223.77 183.317 1221.93 183.864 1220.81 184.958C1219.69 186.029 1219.14 187.818 1219.14 190.324V192.272H1231.24C1232.17 192.272 1232.88 192.478 1233.36 192.888C1233.86 193.298 1234.11 193.913 1234.11 194.733C1234.11 195.508 1233.86 196.123 1233.36 196.579C1232.85 197.012 1232.17 197.229 1231.3 197.229H1219.48V218.112H1230.62ZM1254.44 223.923C1253.94 225.062 1253.46 225.837 1253.01 226.247C1252.58 226.657 1252.05 226.862 1251.44 226.862C1250.8 226.862 1250.24 226.623 1249.76 226.145C1249.28 225.689 1249.04 225.131 1249.04 224.47C1249.04 224.287 1249.08 224.071 1249.15 223.82C1249.21 223.592 1249.31 223.342 1249.42 223.068L1270.75 177.097C1271.32 175.912 1271.82 175.114 1272.25 174.704C1272.68 174.271 1273.21 174.055 1273.82 174.055C1274.51 174.055 1275.09 174.283 1275.57 174.738C1276.05 175.194 1276.29 175.741 1276.29 176.379C1276.29 176.561 1276.25 176.766 1276.18 176.994C1276.14 177.222 1276.06 177.438 1275.94 177.644L1254.44 223.923ZM1292.28 223C1291.07 223 1290.17 222.761 1289.58 222.282C1289.01 221.781 1288.73 221.018 1288.73 219.992C1288.73 218.511 1290.91 215.731 1295.29 211.652L1296.28 210.695C1296.94 210.057 1297.9 209.146 1299.15 207.961C1307.04 200.533 1310.98 195.121 1310.98 191.726C1310.98 189.287 1310.28 187.316 1308.89 185.812C1307.5 184.286 1305.7 183.522 1303.49 183.522C1302.06 183.522 1300.68 183.819 1299.36 184.411C1298.06 185.004 1297.01 185.801 1296.21 186.804C1296.08 186.986 1295.86 187.294 1295.56 187.727C1294.72 189.253 1293.77 190.017 1292.73 190.017C1291.91 190.017 1291.32 189.766 1290.98 189.265C1290.64 188.763 1290.47 187.806 1290.47 186.394C1290.47 185.573 1290.55 184.981 1290.71 184.616C1290.87 184.229 1291.16 183.819 1291.6 183.386C1293.06 181.973 1294.86 180.856 1297 180.036C1299.16 179.193 1301.37 178.771 1303.63 178.771C1307.41 178.771 1310.57 179.991 1313.1 182.429C1315.65 184.867 1316.92 187.863 1316.92 191.418C1316.92 195.884 1313.05 201.82 1305.3 209.226C1303.32 211.071 1301.81 212.518 1300.76 213.566L1296.55 217.6H1312.17C1312.26 216.62 1312.53 215.879 1312.96 215.378C1313.42 214.854 1314.02 214.592 1314.77 214.592C1315.52 214.592 1316.12 214.842 1316.55 215.344C1316.98 215.845 1317.2 216.529 1317.2 217.395C1317.2 217.463 1317.19 217.588 1317.16 217.771C1317.14 217.93 1317.13 218.044 1317.13 218.112L1316.86 220.744C1316.79 221.451 1316.58 222.009 1316.24 222.419C1315.9 222.806 1315.46 223 1314.91 223H1292.28ZM1346.22 183.659C1343.6 183.659 1341.56 185.209 1340.1 188.308C1338.64 191.407 1337.91 195.782 1337.91 201.433C1337.91 207.106 1338.64 211.504 1340.1 214.626C1341.56 217.725 1343.6 219.274 1346.22 219.274C1348.86 219.274 1350.91 217.725 1352.37 214.626C1353.83 211.504 1354.56 207.106 1354.56 201.433C1354.56 195.782 1353.83 191.407 1352.37 188.308C1350.91 185.209 1348.86 183.659 1346.22 183.659ZM1346.22 224.128C1341.93 224.128 1338.53 222.111 1336 218.078C1333.49 214.022 1332.24 208.474 1332.24 201.433C1332.24 194.414 1333.49 188.889 1336 184.855C1338.53 180.799 1341.93 178.771 1346.22 178.771C1350.5 178.771 1353.91 180.799 1356.44 184.855C1358.97 188.911 1360.23 194.437 1360.23 201.433C1360.23 208.428 1358.97 213.965 1356.44 218.044C1353.91 222.1 1350.5 224.128 1346.22 224.128ZM1376.36 223C1375.16 223 1374.26 222.761 1373.66 222.282C1373.09 221.781 1372.81 221.018 1372.81 219.992C1372.81 218.511 1375 215.731 1379.37 211.652L1380.36 210.695C1381.02 210.057 1381.98 209.146 1383.23 207.961C1391.12 200.533 1395.06 195.121 1395.06 191.726C1395.06 189.287 1394.36 187.316 1392.97 185.812C1391.58 184.286 1389.78 183.522 1387.57 183.522C1386.14 183.522 1384.76 183.819 1383.44 184.411C1382.14 185.004 1381.09 185.801 1380.29 186.804C1380.16 186.986 1379.94 187.294 1379.64 187.727C1378.8 189.253 1377.86 190.017 1376.81 190.017C1375.99 190.017 1375.41 189.766 1375.06 189.265C1374.72 188.763 1374.55 187.806 1374.55 186.394C1374.55 185.573 1374.63 184.981 1374.79 184.616C1374.95 184.229 1375.25 183.819 1375.68 183.386C1377.14 181.973 1378.94 180.856 1381.08 180.036C1383.24 179.193 1385.46 178.771 1387.71 178.771C1391.49 178.771 1394.65 179.991 1397.18 182.429C1399.73 184.867 1401.01 187.863 1401.01 191.418C1401.01 195.884 1397.13 201.82 1389.39 209.226C1387.4 211.071 1385.89 212.518 1384.84 213.566L1380.64 217.6H1396.26C1396.35 216.62 1396.61 215.879 1397.04 215.378C1397.5 214.854 1398.1 214.592 1398.85 214.592C1399.61 214.592 1400.2 214.842 1400.63 215.344C1401.06 215.845 1401.28 216.529 1401.28 217.395C1401.28 217.463 1401.27 217.588 1401.25 217.771C1401.22 217.93 1401.21 218.044 1401.21 218.112L1400.94 220.744C1400.87 221.451 1400.67 222.009 1400.32 222.419C1399.98 222.806 1399.54 223 1398.99 223H1376.36ZM1435.63 199.484C1438.3 200.214 1440.36 201.547 1441.82 203.483C1443.3 205.397 1444.04 207.744 1444.04 210.524C1444.04 214.512 1442.63 217.782 1439.8 220.334C1436.98 222.863 1433.32 224.128 1428.83 224.128C1425.37 224.128 1422.28 223.467 1419.57 222.146C1416.88 220.801 1415.53 219.331 1415.53 217.736C1415.53 217.053 1415.77 216.494 1416.25 216.062C1416.75 215.606 1417.36 215.378 1418.06 215.378C1418.45 215.378 1419.85 215.959 1422.27 217.121C1424.7 218.283 1426.97 218.864 1429.07 218.864C1431.78 218.864 1433.98 218.09 1435.67 216.54C1437.37 214.991 1438.23 212.985 1438.23 210.524C1438.23 208.496 1437.64 206.787 1436.45 205.397C1435.29 203.985 1433.68 203.085 1431.63 202.697C1431.02 202.583 1430.21 202.492 1429.21 202.424C1427.29 202.31 1426.33 201.512 1426.33 200.031C1426.33 198.687 1427.27 197.901 1429.14 197.673C1429.87 197.604 1430.47 197.525 1430.95 197.434C1432.73 197.16 1434.16 196.431 1435.25 195.246C1436.35 194.061 1436.9 192.626 1436.9 190.939C1436.9 188.775 1436.22 187.009 1434.88 185.642C1433.53 184.274 1431.83 183.591 1429.75 183.591C1427.84 183.591 1425.87 184.183 1423.84 185.368C1421.83 186.553 1420.58 187.146 1420.08 187.146C1419.44 187.146 1418.91 186.94 1418.47 186.53C1418.06 186.12 1417.86 185.607 1417.86 184.992C1417.86 183.602 1419.13 182.224 1421.69 180.856C1424.24 179.466 1427.06 178.771 1430.16 178.771C1433.72 178.771 1436.67 179.854 1439.01 182.019C1441.38 184.16 1442.57 186.804 1442.57 189.948C1442.57 192.341 1442 194.312 1440.86 195.861C1439.74 197.411 1438 198.618 1435.63 199.484ZM1463.45 183.933C1463.61 183.295 1463.81 182.896 1464.03 182.736C1464.26 182.554 1464.66 182.463 1465.23 182.463H1471.18C1471.41 182.463 1471.61 182.531 1471.79 182.668C1471.98 182.782 1472.07 182.93 1472.07 183.112C1472.07 183.181 1472.04 183.283 1472 183.42C1471.98 183.557 1471.93 183.705 1471.86 183.864L1464.38 199.348C1464.24 199.644 1464.07 199.872 1463.86 200.031C1463.66 200.168 1463.43 200.236 1463.18 200.236C1463.13 200.236 1463.07 200.236 1462.97 200.236C1462.91 200.214 1462.79 200.168 1462.63 200.1L1460.72 199.416C1460.45 199.302 1460.23 199.165 1460.07 199.006C1459.91 198.824 1459.83 198.63 1459.83 198.425C1459.83 198.334 1459.84 198.231 1459.86 198.117C1459.89 197.98 1459.92 197.855 1459.97 197.741L1463.45 183.933ZM1476.92 183.933C1477.08 183.295 1477.26 182.896 1477.47 182.736C1477.69 182.554 1478.09 182.463 1478.66 182.463H1484.61C1484.84 182.463 1485.03 182.531 1485.19 182.668C1485.35 182.782 1485.43 182.93 1485.43 183.112C1485.43 183.181 1485.41 183.283 1485.36 183.42C1485.34 183.557 1485.29 183.705 1485.23 183.864L1477.81 199.348C1477.67 199.644 1477.5 199.872 1477.3 200.031C1477.11 200.168 1476.89 200.236 1476.61 200.236C1476.57 200.236 1476.51 200.236 1476.44 200.236C1476.37 200.214 1476.25 200.168 1476.07 200.1L1474.19 199.416C1473.89 199.302 1473.66 199.165 1473.5 199.006C1473.34 198.824 1473.26 198.63 1473.26 198.425C1473.26 198.243 1473.26 198.106 1473.26 198.015C1473.29 197.901 1473.31 197.81 1473.33 197.741L1476.92 183.933Z" fill="#DD32F9"/>
</svg>
