<svg width="1600" height="400" viewBox="0 0 1600 400" fill="none" xmlns="http://www.w3.org/2000/svg">
<rect width="1600" height="400" fill="white"/>
<path d="M157.6 214.905V177.905H156.913C155.275 177.905 154.143 177.713 153.517 177.327C152.914 176.942 152.613 176.267 152.613 175.304C152.613 174.437 152.854 173.786 153.336 173.353C153.842 172.919 154.564 172.702 155.504 172.702H160.996C161.646 172.702 162.152 172.835 162.514 173.1C162.875 173.365 163.056 173.726 163.056 174.184V190.552C164.814 188.914 166.549 187.709 168.259 186.938C169.993 186.144 171.788 185.746 173.643 185.746C177.28 185.746 180.134 186.878 182.206 189.143C184.302 191.407 185.35 194.538 185.35 198.537V214.905H187.048C188.252 214.905 189.119 215.11 189.649 215.52C190.179 215.905 190.444 216.531 190.444 217.398C190.444 218.266 190.203 218.916 189.722 219.35C189.24 219.783 188.517 220 187.554 220H177.942C176.81 220 176.039 219.819 175.63 219.458C175.244 219.073 175.052 218.386 175.052 217.398C175.052 216.435 175.293 215.785 175.774 215.447C176.28 215.086 177.22 214.905 178.593 214.905H179.857V199.874C179.857 197.056 179.219 194.912 177.942 193.442C176.666 191.949 174.811 191.202 172.378 191.202C169.897 191.202 167.717 192.033 165.838 193.695C163.983 195.357 163.056 197.417 163.056 199.874V214.905H164.32C165.766 214.905 166.741 215.086 167.247 215.447C167.753 215.809 168.006 216.459 168.006 217.398C168.006 218.386 167.801 219.073 167.392 219.458C167.006 219.819 166.247 220 165.115 220H155.504C154.564 220 153.854 219.783 153.372 219.35C152.914 218.916 152.686 218.266 152.686 217.398C152.686 216.435 152.963 215.785 153.517 215.447C154.095 215.086 155.203 214.905 156.841 214.905H157.6ZM225.493 188.637C226.674 188.637 227.529 188.841 228.059 189.251C228.613 189.66 228.89 190.311 228.89 191.202C228.89 192.045 228.637 192.684 228.131 193.117C227.625 193.527 226.866 193.731 225.854 193.731H211.221V205.8C211.221 209.75 211.727 212.352 212.738 213.604C213.774 214.857 215.533 215.483 218.014 215.483C220.206 215.483 222.831 214.845 225.891 213.568C228.95 212.292 230.841 211.653 231.563 211.653C232.238 211.653 232.804 211.894 233.262 212.376C233.743 212.858 233.984 213.448 233.984 214.146C233.984 214.941 233.683 215.64 233.081 216.242C232.503 216.82 231.503 217.386 230.082 217.94C227.721 218.88 225.59 219.566 223.687 220C221.808 220.434 220.037 220.65 218.375 220.65C215.557 220.65 213.184 220.205 211.257 219.313C209.354 218.398 207.933 217.049 206.993 215.267C206.511 214.424 206.162 213.424 205.945 212.268C205.753 211.111 205.656 209.329 205.656 206.92V205.8V193.731H199.514C198.502 193.731 197.767 193.539 197.31 193.153C196.852 192.744 196.623 192.093 196.623 191.202C196.623 190.215 196.936 189.54 197.562 189.179C198.189 188.817 199.526 188.637 201.573 188.637H205.656V181.229V179.314C205.656 178.279 205.873 177.52 206.307 177.038C206.764 176.532 207.463 176.279 208.402 176.279C209.462 176.279 210.197 176.58 210.606 177.183C211.016 177.785 211.221 179.158 211.221 181.302V188.637H225.493ZM269.937 188.637C271.117 188.637 271.972 188.841 272.502 189.251C273.056 189.66 273.333 190.311 273.333 191.202C273.333 192.045 273.08 192.684 272.574 193.117C272.068 193.527 271.31 193.731 270.298 193.731H255.664V205.8C255.664 209.75 256.17 212.352 257.182 213.604C258.217 214.857 259.976 215.483 262.457 215.483C264.649 215.483 267.275 214.845 270.334 213.568C273.393 212.292 275.284 211.653 276.007 211.653C276.681 211.653 277.247 211.894 277.705 212.376C278.187 212.858 278.428 213.448 278.428 214.146C278.428 214.941 278.127 215.64 277.524 216.242C276.946 216.82 275.947 217.386 274.525 217.94C272.165 218.88 270.033 219.566 268.13 220C266.251 220.434 264.48 220.65 262.818 220.65C260 220.65 257.627 220.205 255.7 219.313C253.797 218.398 252.376 217.049 251.437 215.267C250.955 214.424 250.605 213.424 250.389 212.268C250.196 211.111 250.1 209.329 250.1 206.92V205.8V193.731H243.957C242.945 193.731 242.211 193.539 241.753 193.153C241.295 192.744 241.066 192.093 241.066 191.202C241.066 190.215 241.38 189.54 242.006 189.179C242.632 188.817 243.969 188.637 246.017 188.637H250.1V181.229V179.314C250.1 178.279 250.316 177.52 250.75 177.038C251.208 176.532 251.906 176.279 252.846 176.279C253.906 176.279 254.64 176.58 255.05 177.183C255.459 177.785 255.664 179.158 255.664 181.302V188.637H269.937ZM295.193 229.25H303.865C304.781 229.25 305.467 229.467 305.925 229.9C306.382 230.334 306.611 230.984 306.611 231.852C306.611 232.791 306.382 233.453 305.925 233.839C305.491 234.224 304.708 234.417 303.576 234.417H287.642C286.678 234.417 285.943 234.2 285.438 233.767C284.956 233.333 284.715 232.695 284.715 231.852C284.715 230.888 285.016 230.214 285.618 229.828C286.244 229.443 287.389 229.25 289.051 229.25H289.737V191.744H289.051C287.389 191.744 286.244 191.551 285.618 191.166C285.016 190.781 284.715 190.106 284.715 189.143C284.715 188.299 284.956 187.673 285.438 187.264C285.943 186.83 286.678 186.613 287.642 186.613H293.134C293.856 186.613 294.374 186.734 294.688 186.975C295.025 187.215 295.193 187.589 295.193 188.095V191.6C296.831 189.913 298.638 188.649 300.613 187.806C302.613 186.963 304.757 186.541 307.045 186.541C311.887 186.541 315.934 188.179 319.186 191.455C322.438 194.731 324.063 198.838 324.063 203.776C324.063 208.522 322.522 212.424 319.438 215.483C316.355 218.543 312.417 220.072 307.623 220.072C305.07 220.072 302.721 219.627 300.577 218.735C298.433 217.82 296.639 216.519 295.193 214.833V229.25ZM306.395 214.761C309.743 214.761 312.489 213.713 314.633 211.617C316.777 209.497 317.849 206.763 317.849 203.415C317.849 200.139 316.765 197.441 314.597 195.321C312.453 193.177 309.719 192.105 306.395 192.105C303.07 192.105 300.348 193.165 298.229 195.285C296.109 197.405 295.049 200.115 295.049 203.415C295.049 206.739 296.097 209.461 298.192 211.581C300.312 213.701 303.046 214.761 306.395 214.761ZM333.205 217.398V210.967C333.205 209.907 333.398 209.148 333.783 208.69C334.193 208.233 334.843 208.004 335.734 208.004C336.722 208.004 337.505 208.678 338.083 210.027C338.468 210.846 338.818 211.461 339.131 211.87C340.143 213.171 341.636 214.219 343.611 215.014C345.587 215.785 347.767 216.17 350.151 216.17C352.705 216.17 354.752 215.652 356.294 214.616C357.836 213.58 358.606 212.219 358.606 210.533C358.606 208.823 357.98 207.606 356.728 206.884C355.499 206.161 353.379 205.8 350.368 205.8H348.381C343.467 205.8 339.721 204.945 337.144 203.234C334.566 201.524 333.277 199.043 333.277 195.791C333.277 192.611 334.53 190.142 337.035 188.384C339.564 186.625 343.105 185.746 347.658 185.746C349.513 185.746 351.404 186.011 353.331 186.541C355.258 187.047 356.27 187.3 356.366 187.3C356.631 187.3 357.137 187.071 357.884 186.613C358.631 186.132 359.365 185.891 360.088 185.891C360.907 185.891 361.509 186.192 361.895 186.794C362.304 187.396 362.509 188.299 362.509 189.504V193.731C362.509 195.008 362.316 195.936 361.931 196.514C361.545 197.068 360.931 197.345 360.088 197.345C359.365 197.345 358.474 196.73 357.414 195.502C356.667 194.659 356.053 194.021 355.571 193.587C354.295 192.407 352.934 191.563 351.488 191.058C350.043 190.528 348.345 190.263 346.394 190.263C344.129 190.263 342.299 190.769 340.901 191.78C339.528 192.768 338.842 194.033 338.842 195.574C338.842 197.092 339.552 198.176 340.974 198.826C342.395 199.477 345.454 199.85 350.151 199.946C355.162 200.067 358.823 200.946 361.136 202.584C363.448 204.198 364.604 206.703 364.604 210.1C364.604 213.352 363.328 215.953 360.774 217.904C358.221 219.855 354.776 220.831 350.44 220.831C349.067 220.831 347.538 220.699 345.852 220.434C344.165 220.193 342.046 219.771 339.492 219.169C338.649 219.723 337.926 220.132 337.324 220.397C336.722 220.687 336.216 220.831 335.807 220.831C334.964 220.831 334.313 220.542 333.855 219.964C333.422 219.362 333.205 218.507 333.205 217.398ZM386.32 194.093C386.32 192.214 386.971 190.672 388.271 189.468C389.596 188.263 391.307 187.661 393.402 187.661C395.546 187.661 397.269 188.251 398.569 189.432C399.87 190.612 400.521 192.166 400.521 194.093C400.521 196.02 399.858 197.574 398.533 198.754C397.232 199.934 395.522 200.524 393.402 200.524C391.283 200.524 389.572 199.934 388.271 198.754C386.971 197.574 386.32 196.02 386.32 194.093ZM386.32 214.074C386.32 212.195 386.971 210.654 388.271 209.449C389.596 208.245 391.307 207.643 393.402 207.643C395.546 207.643 397.269 208.233 398.569 209.413C399.87 210.593 400.521 212.147 400.521 214.074C400.521 216.001 399.858 217.555 398.533 218.735C397.232 219.916 395.522 220.506 393.402 220.506C391.283 220.506 389.572 219.916 388.271 218.735C386.971 217.555 386.32 216.001 386.32 214.074ZM429.716 220.976C429.186 222.18 428.68 222.999 428.198 223.433C427.741 223.866 427.187 224.083 426.536 224.083C425.862 224.083 425.271 223.83 424.766 223.324C424.26 222.842 424.007 222.252 424.007 221.554C424.007 221.361 424.043 221.132 424.115 220.867C424.188 220.626 424.284 220.361 424.404 220.072L446.951 171.474C447.553 170.221 448.083 169.378 448.541 168.944C448.999 168.487 449.553 168.258 450.203 168.258C450.926 168.258 451.54 168.499 452.046 168.98C452.552 169.462 452.805 170.04 452.805 170.715C452.805 170.908 452.769 171.124 452.696 171.365C452.648 171.606 452.564 171.835 452.443 172.052L429.716 220.976ZM474.159 220.976C473.629 222.18 473.123 222.999 472.642 223.433C472.184 223.866 471.63 224.083 470.979 224.083C470.305 224.083 469.715 223.83 469.209 223.324C468.703 222.842 468.45 222.252 468.45 221.554C468.45 221.361 468.486 221.132 468.559 220.867C468.631 220.626 468.727 220.361 468.848 220.072L491.395 171.474C491.997 170.221 492.527 169.378 492.984 168.944C493.442 168.487 493.996 168.258 494.646 168.258C495.369 168.258 495.983 168.499 496.489 168.98C496.995 169.462 497.248 170.04 497.248 170.715C497.248 170.908 497.212 171.124 497.14 171.365C497.091 171.606 497.007 171.835 496.887 172.052L474.159 220.976ZM513.291 214.905V191.744H512.604C510.966 191.744 509.834 191.551 509.208 191.166C508.606 190.781 508.305 190.106 508.305 189.143C508.305 188.251 508.558 187.613 509.063 187.228C509.569 186.818 510.388 186.613 511.521 186.613H513.219H516.688C517.338 186.613 517.844 186.746 518.205 187.011C518.566 187.276 518.747 187.637 518.747 188.095V190.552C520.506 188.914 522.24 187.709 523.95 186.938C525.685 186.144 527.479 185.746 529.334 185.746C532.971 185.746 535.826 186.878 537.897 189.143C539.993 191.407 541.041 194.538 541.041 198.537V214.905H542.739C543.944 214.905 544.811 215.11 545.341 215.52C545.871 215.905 546.136 216.531 546.136 217.398C546.136 218.338 545.847 219.012 545.269 219.422C544.715 219.807 543.715 220 542.27 220H534.284C532.743 220 531.755 219.819 531.321 219.458C530.888 219.097 530.671 218.41 530.671 217.398C530.671 216.459 530.924 215.809 531.43 215.447C531.936 215.086 532.887 214.905 534.284 214.905H535.549V199.874C535.549 197.056 534.91 194.912 533.634 193.442C532.357 191.949 530.502 191.202 528.069 191.202C525.612 191.202 523.444 192.033 521.565 193.695C519.687 195.357 518.747 197.417 518.747 199.874V214.905H520.012C521.457 214.905 522.433 215.086 522.938 215.447C523.444 215.809 523.697 216.459 523.697 217.398C523.697 218.41 523.48 219.097 523.047 219.458C522.613 219.819 521.553 220 519.867 220H513.291H511.34C510.352 220 509.605 219.795 509.1 219.386C508.618 218.952 508.377 218.29 508.377 217.398C508.377 216.435 508.654 215.785 509.208 215.447C509.786 215.086 510.894 214.905 512.532 214.905H513.291ZM558.963 204.896C559.156 208.365 560.324 211.051 562.468 212.954C564.636 214.833 567.587 215.772 571.32 215.772C574.139 215.772 577.21 215.026 580.534 213.532C583.858 212.015 585.87 211.256 586.568 211.256C587.291 211.256 587.893 211.485 588.375 211.942C588.857 212.4 589.098 212.966 589.098 213.641C589.098 214.339 588.845 214.978 588.339 215.556C587.833 216.134 587.026 216.7 585.918 217.254C583.509 218.434 581.016 219.338 578.438 219.964C575.885 220.59 573.344 220.903 570.814 220.903C565.322 220.903 560.926 219.326 557.626 216.17C554.326 212.99 552.676 208.787 552.676 203.56C552.676 198.236 554.422 193.924 557.915 190.624C561.408 187.324 565.961 185.674 571.573 185.674C576.656 185.674 580.871 187.215 584.22 190.299C587.568 193.382 589.242 197.116 589.242 201.5C589.242 202.849 588.953 203.752 588.375 204.21C587.821 204.668 586.291 204.896 583.786 204.896H583.244H558.963ZM559.144 200.163H582.666C582.305 197.297 581.1 194.996 579.053 193.262C577.029 191.503 574.536 190.624 571.573 190.624C568.369 190.624 565.672 191.467 563.479 193.153C561.287 194.84 559.842 197.176 559.144 200.163ZM607.706 214.905H608.754C609.958 214.905 610.898 215.134 611.572 215.592C612.247 216.025 612.584 216.652 612.584 217.471C612.584 218.338 612.283 218.976 611.681 219.386C611.103 219.795 610.175 220 608.898 220H598.926C598.203 220 597.601 219.759 597.119 219.277C596.637 218.796 596.396 218.193 596.396 217.471C596.396 216.579 596.722 215.929 597.372 215.52C598.022 215.11 599.058 214.905 600.479 214.905H601.202L612.909 202.909L601.419 191.744H600.913C599.516 191.744 598.54 191.563 597.986 191.202C597.456 190.817 597.191 190.154 597.191 189.215C597.191 188.227 597.493 187.553 598.095 187.191C598.721 186.806 599.901 186.613 601.636 186.613H609.043C610.344 186.613 611.283 186.83 611.861 187.264C612.464 187.673 612.765 188.324 612.765 189.215C612.765 190.034 612.427 190.66 611.753 191.094C611.103 191.527 610.151 191.744 608.898 191.744H608.609L616.378 199.368L623.785 191.744H623.026C621.677 191.744 620.678 191.551 620.027 191.166C619.377 190.757 619.052 190.13 619.052 189.287C619.052 188.348 619.341 187.673 619.919 187.264C620.497 186.83 621.437 186.613 622.737 186.613H632.132C632.879 186.613 633.481 186.854 633.938 187.336C634.42 187.794 634.661 188.396 634.661 189.143C634.661 190.034 634.36 190.696 633.758 191.13C633.156 191.539 632.192 191.744 630.867 191.744H629.855L619.485 202.548L632.132 214.905H632.493C633.409 214.905 634.119 215.134 634.625 215.592C635.131 216.025 635.384 216.652 635.384 217.471C635.384 218.434 635.095 219.097 634.517 219.458C633.938 219.819 632.746 220 630.939 220H623.568C622.292 220 621.352 219.795 620.75 219.386C620.148 218.976 619.847 218.338 619.847 217.471C619.847 216.676 620.136 216.049 620.714 215.592C621.292 215.134 622.087 214.905 623.099 214.905H625.122L616.017 206.017L607.706 214.905ZM669.927 188.637C671.107 188.637 671.962 188.841 672.492 189.251C673.046 189.66 673.323 190.311 673.323 191.202C673.323 192.045 673.07 192.684 672.564 193.117C672.059 193.527 671.3 193.731 670.288 193.731H655.654V205.8C655.654 209.75 656.16 212.352 657.172 213.604C658.208 214.857 659.966 215.483 662.447 215.483C664.639 215.483 667.265 214.845 670.324 213.568C673.383 212.292 675.274 211.653 675.997 211.653C676.672 211.653 677.238 211.894 677.695 212.376C678.177 212.858 678.418 213.448 678.418 214.146C678.418 214.941 678.117 215.64 677.515 216.242C676.937 216.82 675.937 217.386 674.516 217.94C672.155 218.88 670.023 219.566 668.12 220C666.241 220.434 664.471 220.65 662.809 220.65C659.99 220.65 657.618 220.205 655.69 219.313C653.787 218.398 652.366 217.049 651.427 215.267C650.945 214.424 650.596 213.424 650.379 212.268C650.186 211.111 650.09 209.329 650.09 206.92V205.8V193.731H643.947C642.936 193.731 642.201 193.539 641.743 193.153C641.285 192.744 641.057 192.093 641.057 191.202C641.057 190.215 641.37 189.54 641.996 189.179C642.622 188.817 643.959 188.637 646.007 188.637H650.09V181.229V179.314C650.09 178.279 650.307 177.52 650.74 177.038C651.198 176.532 651.896 176.279 652.836 176.279C653.896 176.279 654.631 176.58 655.04 177.183C655.45 177.785 655.654 179.158 655.654 181.302V188.637H669.927ZM689.438 206.812C688.957 206.812 688.571 206.667 688.282 206.378C688.017 206.065 687.885 205.643 687.885 205.113V201.283C687.885 200.826 688.017 200.464 688.282 200.199C688.571 199.934 688.957 199.802 689.438 199.802H719.393C719.947 199.802 720.38 199.934 720.693 200.199C721.007 200.464 721.163 200.826 721.163 201.283V205.113C721.163 205.547 720.982 205.944 720.621 206.306C720.26 206.643 719.85 206.812 719.393 206.812H689.438ZM748.732 201.645L744.071 218.808C743.83 219.723 743.469 220.361 742.987 220.723C742.506 221.084 741.783 221.265 740.819 221.265C739.952 221.265 739.278 221.036 738.796 220.578C738.314 220.12 737.881 219.289 737.495 218.085L729.221 191.744H728.896C727.884 191.744 727.161 191.551 726.728 191.166C726.27 190.757 726.041 190.082 726.041 189.143C726.041 188.324 726.282 187.697 726.764 187.264C727.221 186.83 727.908 186.613 728.823 186.613H738.471C739.771 186.613 740.651 186.806 741.108 187.191C741.566 187.553 741.795 188.203 741.795 189.143C741.795 189.721 741.662 190.227 741.397 190.66C741.132 191.07 740.795 191.323 740.386 191.419C739.976 191.539 739.494 191.624 738.94 191.672C738.41 191.72 737.76 191.744 736.989 191.744H734.894L741.108 213.424L745.77 197.67C746.035 196.755 746.408 196.116 746.89 195.755C747.371 195.394 748.082 195.213 749.021 195.213C749.889 195.213 750.563 195.454 751.045 195.936C751.551 196.393 751.996 197.212 752.382 198.393L756.898 213.424L762.86 191.744H761.993H760.439C758.777 191.744 757.657 191.563 757.079 191.202C756.501 190.817 756.212 190.13 756.212 189.143C756.212 188.179 756.429 187.517 756.862 187.155C757.296 186.794 758.139 186.613 759.392 186.613H769.075C769.822 186.613 770.376 186.83 770.737 187.264C771.123 187.697 771.315 188.324 771.315 189.143C771.315 190.058 771.099 190.708 770.665 191.094C770.231 191.479 769.412 191.696 768.208 191.744L760.078 218.808C759.765 219.723 759.368 220.361 758.886 220.723C758.428 221.084 757.729 221.265 756.79 221.265C755.923 221.265 755.236 221.024 754.73 220.542C754.225 220.084 753.803 219.265 753.466 218.085L748.732 201.645ZM781.18 204.896C781.372 208.365 782.541 211.051 784.685 212.954C786.853 214.833 789.803 215.772 793.537 215.772C796.355 215.772 799.427 215.026 802.751 213.532C806.075 212.015 808.087 211.256 808.785 211.256C809.508 211.256 810.11 211.485 810.592 211.942C811.074 212.4 811.314 212.966 811.314 213.641C811.314 214.339 811.062 214.978 810.556 215.556C810.05 216.134 809.243 216.7 808.135 217.254C805.726 218.434 803.233 219.338 800.655 219.964C798.102 220.59 795.561 220.903 793.031 220.903C787.539 220.903 783.143 219.326 779.843 216.17C776.543 212.99 774.893 208.787 774.893 203.56C774.893 198.236 776.639 193.924 780.132 190.624C783.625 187.324 788.177 185.674 793.79 185.674C798.873 185.674 803.088 187.215 806.437 190.299C809.785 193.382 811.459 197.116 811.459 201.5C811.459 202.849 811.17 203.752 810.592 204.21C810.038 204.668 808.508 204.896 806.003 204.896H805.461H781.18ZM781.36 200.163H804.883C804.521 197.297 803.317 194.996 801.27 193.262C799.246 191.503 796.753 190.624 793.79 190.624C790.586 190.624 787.888 191.467 785.696 193.153C783.504 194.84 782.059 197.176 781.36 200.163ZM839.787 214.978C843.184 214.978 845.942 213.906 848.062 211.762C850.181 209.618 851.241 206.836 851.241 203.415C851.241 200.067 850.157 197.309 847.989 195.141C845.845 192.973 843.111 191.889 839.787 191.889C836.439 191.889 833.693 192.973 831.549 195.141C829.429 197.285 828.369 200.043 828.369 203.415C828.369 206.787 829.429 209.558 831.549 211.726C833.693 213.894 836.439 214.978 839.787 214.978ZM828.514 191.816C829.863 190.13 831.549 188.841 833.572 187.95C835.596 187.059 837.884 186.613 840.438 186.613C845.279 186.613 849.314 188.251 852.542 191.527C855.77 194.779 857.384 198.814 857.384 203.632C857.384 208.377 855.722 212.4 852.397 215.7C849.097 219 845.062 220.65 840.293 220.65C837.764 220.65 835.56 220.205 833.681 219.313C831.802 218.422 830.26 217.073 829.056 215.267V218.157C829.056 218.808 828.935 219.277 828.694 219.566C828.478 219.855 828.104 220 827.574 220H820.962C820.022 220 819.324 219.783 818.866 219.35C818.409 218.916 818.18 218.266 818.18 217.398C818.18 216.435 818.457 215.785 819.011 215.447C819.565 215.086 820.661 214.905 822.299 214.905H823.058V177.905H822.371C820.733 177.905 819.613 177.713 819.011 177.327C818.409 176.942 818.107 176.267 818.107 175.304C818.107 174.437 818.348 173.786 818.83 173.353C819.312 172.919 820.022 172.702 820.962 172.702H826.454C827.177 172.702 827.695 172.823 828.008 173.063C828.345 173.304 828.514 173.678 828.514 174.184V191.816ZM867.212 206.812C866.73 206.812 866.345 206.667 866.056 206.378C865.791 206.065 865.658 205.643 865.658 205.113V201.283C865.658 200.826 865.791 200.464 866.056 200.199C866.345 199.934 866.73 199.802 867.212 199.802H897.166C897.72 199.802 898.154 199.934 898.467 200.199C898.78 200.464 898.937 200.826 898.937 201.283V205.113C898.937 205.547 898.756 205.944 898.395 206.306C898.033 206.643 897.624 206.812 897.166 206.812H867.212ZM937.599 188.781V188.637C937.599 187.842 937.827 187.264 938.285 186.902C938.743 186.517 939.453 186.324 940.417 186.324C941.405 186.324 942.079 186.613 942.44 187.191C942.826 187.77 943.019 188.962 943.019 190.769V197.489C943.019 198.381 942.79 199.055 942.332 199.513C941.874 199.946 941.188 200.163 940.272 200.163C939.622 200.163 939.056 199.982 938.574 199.621C938.117 199.236 937.55 198.453 936.876 197.272C935.72 195.321 934.311 193.852 932.648 192.864C931.01 191.853 929.119 191.347 926.976 191.347C923.218 191.347 920.159 192.455 917.798 194.671C915.461 196.887 914.293 199.754 914.293 203.271C914.293 206.86 915.413 209.799 917.653 212.087C919.918 214.351 922.82 215.483 926.361 215.483C927.975 215.483 929.505 215.267 930.95 214.833C932.42 214.375 933.805 213.701 935.105 212.81C935.563 212.521 936.177 212.075 936.948 211.473C938.514 210.196 939.743 209.558 940.634 209.558C941.381 209.558 941.983 209.799 942.44 210.28C942.922 210.738 943.163 211.34 943.163 212.087C943.163 213.99 941.356 215.941 937.743 217.94C934.154 219.916 930.336 220.903 926.289 220.903C921.062 220.903 916.702 219.229 913.209 215.881C909.74 212.533 908.006 208.353 908.006 203.343C908.006 198.332 909.74 194.153 913.209 190.805C916.678 187.432 921.014 185.746 926.217 185.746C928.048 185.746 929.878 185.999 931.709 186.505C933.564 186.987 935.527 187.745 937.599 188.781ZM971.166 215.845C974.876 215.845 977.911 214.676 980.271 212.34C982.656 209.979 983.849 206.98 983.849 203.343C983.849 199.705 982.656 196.706 980.271 194.346C977.887 191.961 974.852 190.769 971.166 190.769C967.48 190.769 964.445 191.961 962.061 194.346C959.7 196.706 958.52 199.705 958.52 203.343C958.52 207.004 959.7 210.003 962.061 212.34C964.421 214.676 967.456 215.845 971.166 215.845ZM990.136 203.343C990.136 208.498 988.377 212.713 984.86 215.989C981.343 219.265 976.779 220.903 971.166 220.903C965.577 220.903 961.025 219.265 957.508 215.989C953.991 212.713 952.232 208.498 952.232 203.343C952.232 198.188 953.991 193.984 957.508 190.732C961.025 187.456 965.577 185.818 971.166 185.818C976.755 185.818 981.307 187.456 984.824 190.732C988.365 194.008 990.136 198.212 990.136 203.343ZM1002.17 214.905V191.744H1001.48C999.843 191.744 998.711 191.551 998.085 191.166C997.483 190.781 997.182 190.106 997.182 189.143C997.182 188.251 997.435 187.613 997.94 187.228C998.446 186.818 999.265 186.613 1000.4 186.613H1002.1H1005.56C1006.21 186.613 1006.72 186.746 1007.08 187.011C1007.44 187.276 1007.62 187.637 1007.62 188.095V190.552C1009.38 188.914 1011.12 187.709 1012.83 186.938C1014.56 186.144 1016.36 185.746 1018.21 185.746C1021.85 185.746 1024.7 186.878 1026.77 189.143C1028.87 191.407 1029.92 194.538 1029.92 198.537V214.905H1031.62C1032.82 214.905 1033.69 215.11 1034.22 215.52C1034.75 215.905 1035.01 216.531 1035.01 217.398C1035.01 218.338 1034.72 219.012 1034.15 219.422C1033.59 219.807 1032.59 220 1031.15 220H1023.16C1021.62 220 1020.63 219.819 1020.2 219.458C1019.76 219.097 1019.55 218.41 1019.55 217.398C1019.55 216.459 1019.8 215.809 1020.31 215.447C1020.81 215.086 1021.76 214.905 1023.16 214.905H1024.43V199.874C1024.43 197.056 1023.79 194.912 1022.51 193.442C1021.23 191.949 1019.38 191.202 1016.95 191.202C1014.49 191.202 1012.32 192.033 1010.44 193.695C1008.56 195.357 1007.62 197.417 1007.62 199.874V214.905H1008.89C1010.33 214.905 1011.31 215.086 1011.82 215.447C1012.32 215.809 1012.57 216.459 1012.57 217.398C1012.57 218.41 1012.36 219.097 1011.92 219.458C1011.49 219.819 1010.43 220 1008.74 220H1002.17H1000.22C999.229 220 998.482 219.795 997.977 219.386C997.495 218.952 997.254 218.29 997.254 217.398C997.254 216.435 997.531 215.785 998.085 215.447C998.663 215.086 999.771 214.905 1001.41 214.905H1002.17ZM1071.18 214.833C1072.17 214.833 1072.92 215.05 1073.42 215.483C1073.95 215.917 1074.22 216.555 1074.22 217.398C1074.22 218.266 1073.96 218.916 1073.46 219.35C1072.98 219.783 1072.27 220 1071.33 220H1047.7C1046.71 220 1045.95 219.783 1045.42 219.35C1044.91 218.916 1044.66 218.266 1044.66 217.398C1044.66 216.555 1044.9 215.917 1045.38 215.483C1045.89 215.05 1046.61 214.833 1047.55 214.833H1053.69V192.756H1047.77C1046.78 192.756 1046.01 192.527 1045.46 192.069C1044.93 191.612 1044.66 190.961 1044.66 190.118C1044.66 189.251 1044.91 188.601 1045.42 188.167C1045.92 187.733 1046.66 187.517 1047.62 187.517H1053.33V185.06C1053.33 180.7 1054.57 177.544 1057.05 175.593C1059.53 173.618 1063.55 172.63 1069.09 172.63C1071.78 172.63 1073.77 172.931 1075.05 173.533C1076.35 174.135 1077 175.075 1077 176.352C1077 177.098 1076.72 177.713 1076.17 178.194C1075.61 178.676 1074.9 178.917 1074.04 178.917C1073.6 178.917 1072.55 178.772 1070.89 178.483C1069.25 178.194 1067.85 178.05 1066.67 178.05C1063.94 178.05 1061.99 178.628 1060.81 179.784C1059.63 180.916 1059.04 182.807 1059.04 185.457V187.517H1071.83C1072.82 187.517 1073.57 187.733 1074.07 188.167C1074.6 188.601 1074.87 189.251 1074.87 190.118C1074.87 190.937 1074.6 191.588 1074.07 192.069C1073.54 192.527 1072.82 192.756 1071.9 192.756H1059.4V214.833H1071.18ZM1096.37 220.976C1095.84 222.18 1095.33 222.999 1094.85 223.433C1094.39 223.866 1093.84 224.083 1093.19 224.083C1092.51 224.083 1091.92 223.83 1091.42 223.324C1090.91 222.842 1090.66 222.252 1090.66 221.554C1090.66 221.361 1090.69 221.132 1090.77 220.867C1090.84 220.626 1090.93 220.361 1091.05 220.072L1113.6 171.474C1114.2 170.221 1114.73 169.378 1115.19 168.944C1115.65 168.487 1116.2 168.258 1116.85 168.258C1117.58 168.258 1118.19 168.499 1118.7 168.98C1119.2 169.462 1119.46 170.04 1119.46 170.715C1119.46 170.908 1119.42 171.124 1119.35 171.365C1119.3 171.606 1119.21 171.835 1119.09 172.052L1096.37 220.976ZM1136.37 220C1135.09 220 1134.14 219.747 1133.51 219.241C1132.91 218.711 1132.61 217.904 1132.61 216.82C1132.61 215.255 1134.92 212.316 1139.54 208.004L1140.59 206.992C1141.29 206.318 1142.3 205.354 1143.63 204.102C1151.96 196.249 1156.13 190.528 1156.13 186.938C1156.13 184.361 1155.4 182.277 1153.93 180.688C1152.46 179.074 1150.55 178.267 1148.22 178.267C1146.7 178.267 1145.24 178.58 1143.84 179.206C1142.47 179.832 1141.36 180.675 1140.52 181.735C1140.38 181.928 1140.15 182.253 1139.83 182.711C1138.94 184.325 1137.94 185.132 1136.83 185.132C1135.97 185.132 1135.35 184.867 1134.99 184.337C1134.63 183.807 1134.45 182.795 1134.45 181.302C1134.45 180.435 1134.53 179.808 1134.7 179.423C1134.87 179.013 1135.18 178.58 1135.64 178.122C1137.18 176.629 1139.09 175.448 1141.35 174.581C1143.64 173.69 1145.98 173.244 1148.36 173.244C1152.36 173.244 1155.7 174.533 1158.37 177.11C1161.07 179.688 1162.42 182.855 1162.42 186.613C1162.42 191.335 1158.32 197.61 1150.13 205.438C1148.04 207.39 1146.43 208.919 1145.33 210.027L1140.88 214.291H1157.39C1157.49 213.255 1157.77 212.472 1158.23 211.942C1158.71 211.388 1159.35 211.111 1160.14 211.111C1160.94 211.111 1161.56 211.376 1162.02 211.906C1162.48 212.436 1162.71 213.159 1162.71 214.074C1162.71 214.146 1162.69 214.279 1162.67 214.472C1162.65 214.64 1162.63 214.761 1162.63 214.833L1162.34 217.615C1162.27 218.362 1162.06 218.952 1161.69 219.386C1161.33 219.795 1160.86 220 1160.29 220H1136.37ZM1193.38 178.411C1190.61 178.411 1188.46 180.049 1186.92 183.325C1185.37 186.601 1184.6 191.226 1184.6 197.2C1184.6 203.198 1185.37 207.847 1186.92 211.147C1188.46 214.424 1190.61 216.062 1193.38 216.062C1196.18 216.062 1198.35 214.424 1199.89 211.147C1201.43 207.847 1202.2 203.198 1202.2 197.2C1202.2 191.226 1201.43 186.601 1199.89 183.325C1198.35 180.049 1196.18 178.411 1193.38 178.411ZM1193.38 221.192C1188.85 221.192 1185.25 219.061 1182.58 214.797C1179.93 210.509 1178.6 204.644 1178.6 197.2C1178.6 189.781 1179.93 183.939 1182.58 179.676C1185.25 175.388 1188.85 173.244 1193.38 173.244C1197.91 173.244 1201.51 175.388 1204.19 179.676C1206.86 183.964 1208.2 189.805 1208.2 197.2C1208.2 204.595 1206.86 210.449 1204.19 214.761C1201.51 219.049 1197.91 221.192 1193.38 221.192ZM1229.19 181.229C1228.88 181.278 1228.64 181.314 1228.47 181.338C1228.32 181.362 1228.19 181.374 1228.07 181.374C1227.32 181.374 1226.71 181.169 1226.23 180.76C1225.77 180.326 1225.54 179.76 1225.54 179.062C1225.54 178.483 1225.75 177.978 1226.16 177.544C1226.56 177.11 1227.15 176.785 1227.93 176.568L1238.66 173.678C1238.92 173.605 1239.18 173.557 1239.42 173.533C1239.68 173.485 1239.95 173.461 1240.21 173.461C1240.67 173.461 1241.03 173.678 1241.29 174.111C1241.56 174.521 1241.69 175.087 1241.69 175.81V214.905H1247.47C1249.62 214.905 1250.98 215.086 1251.56 215.447C1252.13 215.785 1252.42 216.435 1252.42 217.398C1252.42 218.266 1252.18 218.916 1251.7 219.35C1251.22 219.783 1250.5 220 1249.53 220H1227.93C1226.96 220 1226.24 219.783 1225.76 219.35C1225.28 218.916 1225.04 218.266 1225.04 217.398C1225.04 216.435 1225.32 215.785 1225.9 215.447C1226.48 215.086 1227.84 214.905 1229.99 214.905H1235.98V179.604L1229.19 181.229ZM1290.51 198.176C1289.21 199.838 1287.77 201.078 1286.21 201.897C1284.64 202.716 1282.92 203.126 1281.04 203.126C1277.24 203.126 1274 201.705 1271.32 198.862C1268.67 195.996 1267.35 192.479 1267.35 188.312C1267.35 183.927 1268.62 180.326 1271.18 177.508C1273.75 174.665 1277.04 173.244 1281.04 173.244C1285.76 173.244 1289.57 175.147 1292.46 178.953C1295.35 182.735 1296.79 187.757 1296.79 194.021C1296.79 202.283 1294.68 208.883 1290.44 213.821C1286.22 218.735 1280.57 221.192 1273.49 221.192C1271.25 221.192 1269.76 221.024 1269.01 220.687C1268.29 220.349 1267.92 219.723 1267.92 218.808C1267.92 217.266 1269.36 216.459 1272.22 216.387C1274.13 216.339 1275.63 216.206 1276.74 215.989C1280.55 215.291 1283.63 213.4 1285.99 210.316C1288.38 207.233 1289.88 203.186 1290.51 198.176ZM1289.75 188.492C1289.75 185.505 1288.95 183.084 1287.36 181.229C1285.8 179.351 1283.79 178.411 1281.33 178.411C1278.99 178.411 1277.1 179.29 1275.66 181.049C1274.21 182.807 1273.49 185.108 1273.49 187.95C1273.49 190.889 1274.25 193.286 1275.77 195.141C1277.28 196.971 1279.23 197.887 1281.62 197.887C1283.96 197.887 1285.89 197.007 1287.44 195.249C1288.98 193.466 1289.75 191.214 1289.75 188.492Z" fill="#555555"/>
<rect x="80.4983" y="185.714" width="42.7638" height="40.8163" rx="3" fill="#D9D9D9"/>
<path d="M111.847 184.49C111.847 191.63 106.929 196.225 102.236 196.225C97.5442 196.225 92.6255 191.63 92.6255 184.49C92.6255 177.35 97.5442 172.755 102.236 172.755C106.929 172.755 111.847 177.35 111.847 184.49Z" stroke="#D9D9D9" stroke-width="10"/>
<rect x="47.5" y="140.5" width="1505" height="119" rx="5.5" stroke="#666666"/>
</svg>
