<svg width="1972" height="600" viewBox="0 0 1972 600" fill="none" xmlns="http://www.w3.org/2000/svg">
<rect width="1972" height="600" fill="white"/>
<path d="M70 265.4L70.8 264.8C75.2 267.9 79 269 86.2 269C90 269 95.5 268.5 100 267.6C102.5 267.2 103 267 107.1 265.5C107.6 265.3 108.8 265.1 109.3 265.1C113.7 265.1 118.9 269.6 118.9 273.3C118.9 274.8 118 275.9 116.3 276.6C114.9 277.1 114.9 277.1 110.2 277.8C102.1 279.1 94.8 281.4 80.1 287.1L79.5 286C82.2 284.1 88 280.4 94.5 276.4C93.1 276.4 92.3 276.4 91.5 276.4C86.7 276.4 82 275.4 78.6 273.7C74.8 271.8 72.6 269.6 70 265.4ZM67.3 302.6L68.6 303C68.3 305.4 68.2 306.6 68.2 307.9C68.2 320.6 75.4 325.9 92.5 325.9C101 325.9 106.4 325 112.8 322.6C114.5 321.9 115.3 321.7 116.4 321.7C121.3 321.7 126.6 325.8 126.6 329.5C126.6 331.4 125.3 333 123.1 333.9C118.8 335.6 109.8 336.6 99.1 336.6C87.3 336.6 79 334.9 73.7 331.5C67.9 327.8 64.7 321.8 64.7 314.7C64.7 310.9 65.5 307.2 67.3 302.6ZM159.5 324L158.7 325.6C157.1 329.2 156.3 330.1 154.8 330.1C152.3 330.1 150.2 325.8 150.2 320.7C150.2 318.6 150.5 318 152.4 316.1C154.4 314.2 156.2 312.1 159.1 308C168.6 294.8 168.6 294.8 170.9 291.1C171 289.6 171 289.6 171.1 287.5C171.2 285.9 171.2 285.9 171.3 284.4C168.2 286.3 168.2 286.3 162.2 290.5C160.5 291.7 159.8 292 158.8 292C156.9 292 154.7 290.3 152.8 287.3C151.4 285.2 150.5 282.8 150.5 281.3C150.5 280.8 150.7 280.1 151.1 278.9C153.3 282.5 155.5 284.1 158.3 284.1C160.6 284.1 166 282.2 171.7 279.3C172.2 274.9 172.3 272.3 172.3 268.4C172.3 262.8 170.5 259.4 165.9 256.8C166.7 256.4 167.2 256.3 167.8 256.3C170.5 256.3 174.6 258 178.1 260.7C181.5 263.3 183.3 265.8 183.3 268C183.3 269.3 183.1 270 182 272.2C180.9 274.4 180.5 275.7 180 277.9C182.3 279.6 183.4 281 183.4 282.3C183.4 283 183 283.7 181.7 285.6C179.9 288.3 178.9 290 178.2 291.4C178.1 292 178 293.1 178 294.8C192.2 280.3 202 273.8 209.5 273.8C217.3 273.8 222.4 279.1 222.4 287.1C222.4 290 221.8 294.7 220.7 301.4C218.7 313.5 218.3 316.6 218.3 320.6C218.3 325.1 220.6 327.5 225 327.5C230.4 327.5 237.2 324.4 244 318.9L244.6 319.7C238.8 329.8 229.5 336.2 220.9 336.2C212.7 336.2 207.6 330.6 207.6 321.4C207.6 317 208.1 313.8 211 300.4C212.6 293.1 213.3 288.4 213.3 285.3C213.3 280.7 211.1 278.1 207.2 278.1C200.6 278.1 189.8 287.1 177.6 302.9C177.5 304.9 177.5 305 177.5 307.2C177.5 314.7 177.7 319.1 178.6 326.8C178.8 328.6 178.9 330.2 178.9 331.4C178.9 334 178.1 337.4 177 339.7C175.7 342.3 173.9 343.6 171.7 343.6C170.5 343.6 169.4 343 168.7 342C168.3 341.4 168.2 341 168 339.4C167.4 336 166.9 334.2 165.7 332.2C164 329.3 162.3 327.1 159.5 324ZM170.5 302.7C164.5 314.2 161.1 320.6 160.4 322C163.6 324.5 167.1 326.8 169.8 328.1C170 323 170 323 170.2 311.9C170.3 308.5 170.3 306.3 170.5 302.7ZM270.3 323.2L271 322.1C278.8 326 283.4 327.8 285.4 327.8C287.5 327.8 288.9 326.5 290.6 323C294.8 314.5 297.9 301.5 297.9 292.6C297.9 286.8 296.3 284.5 292.1 284.5C289.6 284.5 287.3 285 283.3 286.3C273.8 309.5 268.3 322.7 267 325.9C262.4 336.5 260.6 339 257.8 339C255 339 253.1 335.2 253.1 329.6C253.1 326.1 253.6 324.7 256 322.4C260.7 317.5 266.3 307.3 274.2 289C268.6 291.4 265.9 292.7 263.3 294.3C261.8 295.2 261.2 295.4 260.3 295.4C258.5 295.4 256.5 294 254.7 291.6C252.7 288.7 251.3 285 251.3 282.4C251.3 281.6 251.4 281 251.9 279.8C254 284.2 256.6 286 260.7 286C263.3 286 268.2 285 276.1 283C278.2 277 279.6 270.8 279.6 266.9C279.6 262.9 277.2 260.4 271.5 258.5C273.2 257.5 274 257.3 275.4 257.3C277.6 257.3 281.3 257.9 284.1 258.8C289.8 260.6 292.8 262.9 292.8 265.6C292.8 266.6 292.5 267.5 291.5 269C289.4 272.2 288.3 274.4 285.3 281.5C288.7 280.8 290.3 280.6 292.6 280.6C297.4 280.6 301.2 282.1 303.4 285.1C305.8 288.2 306.7 292 306.7 298.8C306.7 311.1 302.1 326.8 296.6 333.6C293.3 337.7 288.7 340.1 284.1 340.1C282.6 340.1 281.3 339.5 280.7 338.5C280.2 337.7 280.2 337.7 280 334.7C279.8 332.4 277 329 270.3 323.2ZM313.3 281.3L313.8 280.2C322.1 281.7 328 284.7 333.5 290.1C338.5 295.1 341.2 301.1 341.2 307.1C341.2 313.3 338.6 317 334.2 317C332.6 317 331.5 316.5 329.8 315C327.6 313 325.7 312.7 314.4 312.6L314.2 311.6C322.4 309.5 327.1 308.1 328.9 307.2C329.4 306.9 329.6 306.5 329.6 305.6C329.6 303.6 328.4 298.9 327 295.8C323.9 288.7 319.7 284.3 313.3 281.3ZM379.8 255.2L380.8 254.7C383.7 258.7 386.5 260.8 391.4 262.5C394.5 263.6 397.5 264.3 400.7 264.5C404.4 264.8 405.8 265.5 407.8 267.7C409.6 269.6 410.6 271.9 410.6 273.9C410.6 276.3 408.9 277.8 406.3 277.8C405.5 277.8 405.1 277.7 400.7 276.9C399.9 276.8 398.5 276.7 396.5 276.7C390.3 276.7 383.2 277.7 377.7 279.3C375 280.1 373.4 281.5 373.4 283C373.4 284.1 373.8 285.2 375.4 288.2C375.8 289 376.1 290.6 376.1 292.2C376.1 292.9 376 294.3 375.8 296.5C375.3 303.4 374.9 310.3 374.9 312.1C374.9 312.3 374.9 312.6 374.9 313C387.5 304.6 397.5 300.8 406.6 300.8C419.5 300.8 428.2 307.9 428.2 318.5C428.2 325.1 425 330.7 419.1 334.9C410.4 340.9 398.1 343.8 380.9 343.9L380.6 342.7C392.5 340.5 399.9 337.6 406.6 332.7C413.2 327.9 416.2 322.7 416.2 316.3C416.2 309.3 411.9 305 404.9 305C399 305 393 307.7 387.2 313C383.8 316.1 380.7 320 379.2 322.9C378.2 324.8 378 325.2 377.4 325.7C376.6 326.5 375.6 326.9 374.6 326.9C372.2 326.9 369.6 325.1 367.6 322.1C366.2 319.9 365.3 317.6 365.3 316.1C365.3 315.4 365.3 315.4 366.1 312.4C366.3 311.4 366.6 309.5 367.2 305.7C367.7 301.9 368.1 299.1 368.4 297.3C369.4 291 369.8 288 369.8 286.8C369.8 286.6 369.8 286.2 369.7 285.7C369.7 285.3 369.7 285 369.7 284.7C369.7 281.1 370.9 279.3 374.4 277.4C376.5 276.3 378.9 275.4 385.6 273.2C390.6 271.5 390.6 271.5 392.6 270.8C385.6 267 382.1 262.8 379.8 255.2ZM491.3 339L490.9 337.6C501.6 334.3 509.1 329.9 515.1 323.4C521.8 316.2 525.1 307.4 525.1 297.1C525.1 280 514.7 269.8 497.5 269.8C496.2 269.8 495.4 269.8 493.5 270C497 274.1 498.1 276.8 498.1 280.7C498.1 288.7 493 302.7 485.8 314.8C479.3 325.6 473.5 331.1 468.5 331.1C466.3 331.1 464.2 329.9 463.1 328.2C462.3 326.7 461.7 325.3 460.8 321.6C460.2 319.2 459.4 317.8 456.5 314.2C454.1 311.2 452.6 306.8 452.6 302.7C452.6 296.4 455.8 288.8 461 282.7C469.6 272.5 483.8 266.3 498.7 266.3C521 266.3 536.9 280.4 536.9 300.2C536.9 314.7 528.9 326.3 514.4 333C508.2 335.9 501.8 337.6 491.3 339ZM491.5 270.3C483.4 272.1 478 275 472.2 280.7C465.3 287.6 461.5 296.1 461.5 304.5C461.5 311.4 464.9 318.5 468.3 318.5C471.6 318.5 478.2 310.2 484.7 297.9C489.7 288.5 492.7 280.2 492.7 275.8C492.7 274.7 492.6 273.4 492.3 272.5C492.1 271.7 491.6 270.3 491.5 270.3ZM630.301 277L612.701 336.4H604.501L589.601 276.7C588.101 270.9 586.801 267.8 585.101 266C583.901 264.7 582.401 264.1 579.201 263.7V261.2H610.101V263.7C606.001 264 604.701 264.3 603.501 265.3C602.301 266.1 601.701 267.6 601.701 269.4C601.701 271.3 602.101 273.9 603.101 277.8L613.501 321L630.401 262.6H639.401L654.801 320.7L665.501 279.7C666.401 276.4 666.901 273 666.901 270.7C666.901 267.6 665.401 265.5 662.401 264.5C661.101 264.1 659.601 263.9 657.101 263.7V261.2H682.401V263.7C675.401 264.7 672.801 268 669.401 280.7L654.301 336.4H646.401L630.301 277ZM729.324 307.8H694.624C694.724 315.2 695.424 319.5 697.224 323.7C700.124 330.3 704.724 333.6 710.824 333.6C717.724 333.6 723.624 329.5 727.324 322.2L729.824 323.8C724.824 333.3 718.124 337.5 707.824 337.5C691.924 337.5 681.724 326.8 681.724 310.1C681.724 293.3 691.624 282.3 706.824 282.3C717.024 282.3 724.224 286.9 727.524 295.5C728.624 298.5 729.124 301.5 729.324 307.8ZM694.724 304.9H716.824C716.624 298.6 716.224 295.5 715.124 292.4C713.224 287.1 710.424 284.6 706.524 284.6C702.224 284.6 698.924 287.6 696.824 293.4C695.724 296.5 695.124 299.7 694.724 304.9ZM750.081 330.4L745.381 336.2H741.781C742.181 331.6 742.181 329.9 742.181 320.6V273.2C742.181 264.4 741.481 263.5 734.481 263.5V261.2L754.981 260.1C754.581 268.1 754.381 274.2 754.381 280.6V291.2C758.381 285 762.981 282.3 769.881 282.3C783.581 282.3 791.581 292 791.581 308.6C791.581 326.7 782.681 337.5 767.781 337.5C760.981 337.5 755.681 335.4 750.081 330.4ZM754.081 311.3C754.081 318.9 754.981 324.3 756.781 328.3C758.681 332.3 762.781 335.1 766.981 335.1C774.381 335.1 778.281 326.6 778.281 310.3C778.281 294 774.581 285.4 767.481 285.4C763.281 285.4 759.381 288.4 757.181 293.2C755.081 298 754.081 303.7 754.081 311.3ZM861.673 298.8L862.773 299.2C858.273 317.7 857.273 322.9 857.273 327.2C857.273 328.2 857.273 328.2 857.673 330.9C857.773 331.2 857.773 331.7 857.773 332.3C857.773 334.3 857.473 335.8 856.973 336.7C856.073 338.2 854.473 339.1 852.673 339.1C850.073 339.1 847.873 337.3 846.373 333.8C843.873 328.2 842.573 320.5 842.573 311.8C842.573 303.3 843.373 297.2 846.573 282.1C848.173 274.8 848.573 272.3 848.573 269.9C848.573 266.4 847.673 263.7 845.273 260.3C848.173 260.6 850.873 262.3 854.173 266C858.073 270.4 859.973 274.1 859.973 277.2C859.973 278.9 859.573 280 857.673 283.5C852.473 293.1 850.073 301.5 850.073 310.1C850.073 314.2 850.473 317 851.573 320.5C854.173 315.3 854.773 314 855.773 311.7C860.673 301 860.673 301 861.673 298.8ZM871.873 273.3L872.673 272.5C876.073 274.7 878.273 275.3 881.973 275.3C888.273 275.3 897.573 273.1 902.373 270.5C904.373 269.4 904.473 269.4 905.573 269.4C909.373 269.4 914.373 273.6 914.373 276.9C914.373 279.2 913.173 280.1 908.973 280.7C904.373 281.4 901.273 282.2 896.973 283.7C889.173 286.4 886.173 287.7 881.373 290.6L880.673 289.7C884.073 286.5 888.573 282.5 889.873 281.4C888.873 281.4 888.073 281.4 887.573 281.4C880.873 281.4 876.073 279 871.873 273.3ZM872.873 303.9L874.073 304.2C873.873 306.5 873.773 307.5 873.773 308.6C873.773 313.8 875.173 317.5 878.173 320.1C881.473 322.9 885.973 324.1 893.373 324.1C896.373 324.1 899.473 323.8 902.473 323.4C904.773 323 904.773 323 908.173 321.7C908.873 321.4 909.573 321.3 910.173 321.3C911.973 321.3 914.673 322.6 916.573 324.5C918.273 326.1 918.973 327.5 918.973 329.1C918.973 333.4 914.373 334.9 900.973 334.9C880.973 334.9 871.073 328.1 871.073 314.4C871.073 310.7 871.573 307.7 872.873 303.9ZM967.973 335.3L967.673 334.1C980.773 330.5 991.473 325.2 998.773 318.6C1005.27 312.8 1008.97 304.9 1008.97 296.6C1008.97 286.5 1001.97 279.5 991.873 279.5C983.273 279.5 973.473 283.5 963.073 291.4C958.573 294.7 957.173 295.9 954.373 298.8C953.073 300.3 951.273 301 949.373 301C943.073 301 934.773 292.3 934.773 285.7C934.773 284.9 934.973 284.3 935.473 283.2C937.673 287.1 939.873 288.8 942.773 288.8C945.373 288.8 949.173 287.6 955.073 285C972.273 277.2 981.673 274.6 992.273 274.6C1009.47 274.6 1021.37 284.8 1021.37 299.4C1021.37 312.3 1013.07 323 998.173 329.1C989.473 332.7 981.173 334.4 967.973 335.3ZM1073.27 295.1L1074.27 295.6C1070.27 306 1069.47 308.5 1068.27 313.4C1067.47 316.8 1066.97 320.1 1066.97 321.8C1066.97 323.6 1067.17 324.4 1068.37 327.9C1068.57 328.7 1068.67 329.2 1068.67 330.1C1068.67 332.8 1066.67 334.9 1063.87 334.9C1059.77 334.9 1054.47 331 1050.67 325.3C1045.67 317.7 1043.17 307.2 1043.17 293.7C1043.17 293 1043.17 293 1043.37 284.2C1043.37 283.5 1043.37 282.9 1043.37 282.6C1043.37 274.6 1042.37 271.7 1037.47 266.1C1039.77 266.1 1041.17 266.6 1044.27 268.5C1049.07 271.3 1052.57 274.8 1054.57 278.8C1055.27 280.2 1055.47 281.2 1055.47 282.7C1055.47 283.6 1055.27 284.4 1054.77 286.4C1053.37 291.1 1052.57 296.8 1052.57 301.2C1052.57 305.6 1053.27 310.1 1054.57 313.9C1055.47 316.6 1056.37 317.9 1058.47 319.5C1064.97 308.3 1068.87 301.8 1073.27 295.1ZM1092.87 278.6L1093.27 277.5C1102.37 279 1108.87 282.7 1113.97 289.1C1118.67 294.9 1120.97 301.6 1120.97 309.1C1120.97 315.9 1117.57 320.7 1112.67 320.7C1111.07 320.7 1110.07 320.2 1108.67 318.6C1106.27 315.9 1104.17 315.5 1093.37 315.3L1093.17 314.3C1101.97 311.7 1105.77 310.5 1107.37 309.8C1109.17 309 1109.47 308.6 1109.47 306.6C1109.47 302.2 1108.17 296.4 1106.27 292.2C1103.27 285.7 1099.07 281.4 1092.87 278.6ZM1133.87 271.1C1136.07 275.9 1139.07 278.2 1142.97 278.2C1146.17 278.2 1149.77 277.4 1169.87 272.3C1174.87 271 1178.37 270.2 1192.07 267.2C1196.07 266.3 1197.27 265.9 1200.17 264.6C1201.57 264 1202.87 263.7 1203.87 263.7C1205.67 263.7 1208.97 264.9 1211.37 266.5C1213.97 268.2 1215.27 270.1 1215.27 272C1215.27 274.4 1213.37 275.9 1210.37 275.9C1209.77 275.9 1208.87 275.8 1207.77 275.7C1206.47 275.6 1206.07 275.6 1204.87 275.6C1195.77 275.6 1187.17 279.6 1180.87 286.8C1175.77 292.7 1173.07 299.5 1173.07 306.5C1173.07 315 1177.47 321.6 1185.07 324.5C1187.57 325.5 1190.77 326.1 1193.07 326.1C1193.27 326.1 1193.67 326.1 1194.17 326C1194.57 326 1194.87 326 1195.17 326C1197.07 326 1198.87 326.7 1200.37 328.1C1202.77 330.2 1204.27 333 1204.27 335.2C1204.27 338.4 1201.97 340 1197.17 340C1189.97 340 1181.67 337 1175.97 332.4C1169.17 327 1165.57 319.2 1165.57 310.2C1165.57 301.7 1169.67 292.5 1176.77 285.1C1180.67 281 1184.27 278.4 1192.77 273.6C1184.07 275.5 1174.37 278.4 1165.77 281.6C1157.27 284.8 1155.07 285.8 1151.07 288.4C1149.27 289.6 1147.67 290.1 1146.07 290.1C1140.67 290.1 1133.07 280.6 1133.07 274C1133.07 273 1133.27 272.4 1133.87 271.1ZM1280.07 265.4H1300.67C1304.27 261.6 1305.37 260.4 1308.97 256.9C1313.97 260.7 1315.37 261.9 1319.97 265.9C1320.37 266.4 1320.57 266.7 1320.57 266.9C1320.57 267.2 1320.17 267.5 1319.57 267.5H1280.07V276.8H1292.77C1295.27 274.4 1296.07 273.6 1298.47 271.2C1302.17 273.7 1303.27 274.4 1306.77 277C1307.67 277.6 1307.97 278.1 1307.97 278.6C1307.97 279.4 1307.37 280 1304.47 281.6C1304.37 286.3 1304.37 290.2 1304.37 292.6C1304.37 300.5 1304.57 310.2 1304.77 315.9C1304.77 318.1 1303.57 318.5 1297.77 318.5C1293.87 318.5 1293.57 318.4 1293.47 316.9V314.4H1256.77V316.6C1256.77 318.6 1255.97 318.9 1250.57 318.9C1246.07 318.9 1245.57 318.7 1245.57 316.8C1245.87 305.5 1245.87 302.4 1245.87 292.1C1245.87 282.4 1245.77 278.6 1245.47 271.2C1250.87 273.4 1252.47 274.2 1257.47 276.8H1269.07V267.5H1238.47C1235.57 267.5 1233.87 267.7 1231.77 268.1L1231.17 264.6C1233.67 265.2 1235.57 265.4 1238.37 265.4H1269.07V264.6C1269.07 259.8 1268.97 258.1 1268.47 253.7C1283.87 255.3 1284.37 255.4 1284.37 256.8C1284.37 257.8 1283.27 258.4 1280.07 259.2V265.4ZM1256.77 288.2H1293.47V278.9H1256.77V288.2ZM1293.47 290.3H1256.77V299.7H1293.47V290.3ZM1293.47 301.8H1256.77V312.3H1293.47V301.8ZM1237.07 322.6H1302.97C1306.57 319 1307.67 317.9 1311.17 314.4C1316.17 318 1317.57 319.2 1322.27 323.1C1322.77 323.5 1322.97 323.8 1322.97 324.1C1322.97 324.4 1322.47 324.7 1321.87 324.7H1237.07C1233.77 324.7 1232.47 324.8 1229.87 325.4L1229.17 321.7C1231.97 322.4 1233.87 322.6 1237.07 322.6ZM1229.67 345.9L1229.27 344.9C1237.47 341.3 1241.97 338.8 1247.27 334.9C1251.47 331.7 1253.67 329.7 1256.57 326.1C1259.87 327.3 1262.37 328.2 1263.97 328.8C1270.47 331 1271.87 331.7 1271.87 332.7C1271.87 333.7 1270.57 334.2 1267.67 334.2C1267.37 334.2 1266.67 334.2 1266.07 334.2C1253.87 341.1 1246.67 343.4 1229.67 345.9ZM1278.77 328.8L1279.07 327.9C1296.97 328.7 1303.67 329.7 1308.17 332.3C1311.27 334 1313.07 337.4 1313.07 341.4C1313.07 344.6 1311.67 346.7 1309.57 346.7C1308.37 346.7 1307.57 346.3 1305.57 344.7C1303.97 343.3 1298.97 339.6 1296.67 338.1C1291.87 334.9 1287.87 332.8 1278.77 328.8ZM1374.77 282.1H1363.47C1363.47 287.6 1363.37 291 1363.37 292.2H1370.97C1372.97 290 1373.67 289.3 1375.97 287C1379.07 289.3 1379.97 290 1382.97 292.4C1383.87 293.2 1384.27 293.7 1384.27 294.1C1384.27 294.8 1383.47 295.5 1381.17 296.6C1381.17 304.6 1381.17 305 1381.47 316C1381.37 317.1 1381.07 317.6 1380.37 317.8C1379.27 318.3 1376.87 318.6 1374.77 318.6C1372.07 318.6 1371.37 318.2 1371.27 316.5V313.5H1362.17C1361.67 316.2 1360.97 318.9 1360.37 320.1C1361.77 320.7 1362.27 320.9 1365.77 322.1C1377.07 326 1381.37 329.2 1381.37 333.8C1381.37 337.5 1378.27 341.8 1375.67 341.8C1374.77 341.8 1374.17 341.3 1373.47 339.9C1368.67 330.8 1365.47 326.4 1359.87 321.7C1357.37 327.5 1353.77 332.2 1349.07 336C1344.27 339.9 1339.37 342.4 1329.97 345.6L1329.37 344.5C1336.07 340.4 1340.17 337.1 1343.47 333.3C1348.17 328 1351.27 321 1352.47 313.5H1345.57V317.1C1345.47 318.4 1345.17 319 1344.37 319.2C1343.37 319.6 1341.27 319.8 1338.97 319.8C1335.67 319.8 1335.07 319.5 1335.07 317.8C1335.07 317.7 1335.07 317.4 1335.07 317.1C1335.57 308.9 1335.67 305.4 1335.67 299.9C1335.67 295 1335.57 291.3 1335.27 286.5C1339.97 288.9 1341.37 289.7 1345.57 292.2H1353.57L1353.67 291.2V289.3L1353.57 286.3V282.1H1347.47C1346.67 282.1 1345.87 282.2 1343.57 282.6L1342.97 280.3C1339.97 282.6 1335.37 285.2 1328.87 288.2L1328.37 287.4C1335.97 280.8 1339.77 276.5 1344.37 269.6C1348.27 263.7 1350.57 259 1352.17 254.3C1364.77 257.7 1366.87 258.4 1366.87 259.7C1366.87 260.1 1366.57 260.5 1366.17 260.7C1366.07 260.7 1364.77 261 1362.27 261.4L1361.97 261.8C1368.27 263.6 1376.27 266.5 1379.17 268.2C1383.47 270.6 1384.87 272.5 1384.87 276.1C1384.87 279.6 1382.87 283.1 1380.77 283.1C1379.77 283.1 1379.07 282.5 1377.57 280.3C1372.97 273.4 1367.27 267.6 1360.87 263.3C1354.47 271.3 1351.17 274.5 1343.87 279.6C1345.77 279.9 1346.67 280 1347.47 280H1361.57C1363.87 277.4 1364.67 276.6 1367.07 274C1370.87 276.8 1371.97 277.7 1375.47 280.7C1375.77 281.1 1375.97 281.3 1375.97 281.6C1375.97 281.9 1375.57 282.1 1374.77 282.1ZM1353.57 294.3H1345.57V311.4H1352.77C1353.27 307.1 1353.47 302.8 1353.57 294.3ZM1371.27 294.3H1363.37C1363.17 304 1362.97 307.1 1362.47 311.4H1371.27V294.3ZM1398.97 268.1L1398.87 287.6C1398.87 290.2 1398.87 290.3 1398.97 305.1C1398.97 309.2 1399.07 314.5 1399.07 321C1398.97 322.6 1398.57 323.2 1397.07 323.6C1396.07 323.9 1393.27 324.2 1391.57 324.2C1389.27 324.2 1388.57 323.6 1388.57 321.7C1388.87 302.8 1389.07 287.2 1389.07 278.8C1389.07 270.9 1388.97 267.9 1388.57 262.6C1395.17 263.2 1400.17 263.8 1401.67 264.4C1402.47 264.7 1402.87 265.1 1402.87 265.7C1402.87 266.8 1402.07 267.3 1398.97 268.1ZM1406.47 333V264.1C1406.47 261.8 1406.37 260 1406.17 255.9C1419.07 257.6 1419.07 257.6 1420.27 258.3C1420.57 258.6 1420.87 259.1 1420.87 259.5C1420.87 260.4 1420.27 260.8 1416.87 261.6V308.7L1417.17 335.7C1416.97 340.7 1415.47 342.7 1410.57 344.6C1408.17 345.5 1404.67 346.2 1402.57 346.2C1401.77 346.2 1401.67 346 1401.57 344.3C1401.37 339.4 1398.37 337.3 1387.47 334.6V333.5C1393.77 333.9 1394.07 334 1404.37 334.4C1404.57 334.4 1404.77 334.4 1404.87 334.4C1404.97 334.4 1405.07 334.4 1405.07 334.4C1406.07 334.4 1406.47 334 1406.47 333ZM1457.67 298.8L1458.77 299.2C1454.27 317.7 1453.27 322.9 1453.27 327.2C1453.27 328.2 1453.27 328.2 1453.67 330.9C1453.77 331.2 1453.77 331.7 1453.77 332.3C1453.77 334.3 1453.47 335.8 1452.97 336.7C1452.07 338.2 1450.47 339.1 1448.67 339.1C1446.07 339.1 1443.87 337.3 1442.37 333.8C1439.87 328.2 1438.57 320.5 1438.57 311.8C1438.57 303.3 1439.37 297.2 1442.57 282.1C1444.17 274.8 1444.57 272.3 1444.57 269.9C1444.57 266.4 1443.67 263.7 1441.27 260.3C1444.17 260.6 1446.87 262.3 1450.17 266C1454.07 270.4 1455.97 274.1 1455.97 277.2C1455.97 278.9 1455.57 280 1453.67 283.5C1448.47 293.1 1446.07 301.5 1446.07 310.1C1446.07 314.2 1446.47 317 1447.57 320.5C1450.17 315.3 1450.77 314 1451.77 311.7C1456.67 301 1456.67 301 1457.67 298.8ZM1467.87 273.3L1468.67 272.5C1472.07 274.7 1474.27 275.3 1477.97 275.3C1484.27 275.3 1493.57 273.1 1498.37 270.5C1500.37 269.4 1500.47 269.4 1501.57 269.4C1505.37 269.4 1510.37 273.6 1510.37 276.9C1510.37 279.2 1509.17 280.1 1504.97 280.7C1500.37 281.4 1497.27 282.2 1492.97 283.7C1485.17 286.4 1482.17 287.7 1477.37 290.6L1476.67 289.7C1480.07 286.5 1484.57 282.5 1485.87 281.4C1484.87 281.4 1484.07 281.4 1483.57 281.4C1476.87 281.4 1472.07 279 1467.87 273.3ZM1468.87 303.9L1470.07 304.2C1469.87 306.5 1469.77 307.5 1469.77 308.6C1469.77 313.8 1471.17 317.5 1474.17 320.1C1477.47 322.9 1481.97 324.1 1489.37 324.1C1492.37 324.1 1495.47 323.8 1498.47 323.4C1500.77 323 1500.77 323 1504.17 321.7C1504.87 321.4 1505.57 321.3 1506.17 321.3C1507.97 321.3 1510.67 322.6 1512.57 324.5C1514.27 326.1 1514.97 327.5 1514.97 329.1C1514.97 333.4 1510.37 334.9 1496.97 334.9C1476.97 334.9 1467.07 328.1 1467.07 314.4C1467.07 310.7 1467.57 307.7 1468.87 303.9ZM1571.67 310.4L1565.77 310.5C1563.67 310.6 1561.67 310.8 1559.97 311.2L1559.27 307.8C1561.07 308.1 1563.27 308.4 1564.97 308.4L1565.77 308.3L1571.67 308.2V302.2C1566.87 302.8 1564.77 302.9 1559.17 303.2L1558.97 302.3C1565.17 300.4 1569.27 298.7 1574.07 296.3C1577.97 294.3 1579.07 293.6 1580.87 291.7C1588.17 297.2 1590.27 299 1590.27 299.8C1590.27 300.2 1589.87 300.5 1589.47 300.5C1588.57 300.5 1587.47 300.2 1586.37 299.6C1583.67 300.3 1582.87 300.5 1581.27 300.8V308.1L1591.37 307.9C1590.97 304.8 1590.77 302.1 1590.57 298.3C1590.47 295.4 1590.47 294.7 1590.07 292.6C1600.57 293.5 1602.67 293.9 1602.67 295C1602.67 295.6 1601.87 296.2 1599.77 297C1599.67 298 1599.67 298.9 1599.67 299.4C1599.67 302.2 1599.77 304.5 1600.17 307.8L1609.27 307.6C1609.97 306.9 1610.47 306.2 1610.87 305.7C1610.37 305.8 1610.17 305.8 1610.17 305.8C1608.67 305.8 1608.07 305.1 1607.57 302.9C1606.77 299.2 1605.77 297 1603.57 294.3L1604.07 293.5C1610.07 295.2 1611.37 295.7 1613.47 297C1614.97 297.9 1615.67 299 1615.67 300.3C1615.67 300.9 1615.57 301.4 1615.17 302.2C1618.17 304.6 1618.87 305.2 1621.77 307.9C1622.07 308.2 1622.27 308.6 1622.27 308.8C1622.27 309.1 1621.87 309.4 1621.27 309.4L1600.47 309.8C1601.17 314.7 1601.97 317.4 1603.67 320.8C1606.47 316.7 1607.37 314.9 1608.27 312.1C1617.77 315.4 1619.37 316.2 1619.37 317.1C1619.37 317.9 1618.47 318.3 1615.67 318.6C1612.67 322.9 1611.17 324.7 1608.17 327.7C1610.77 330.7 1611.87 331.7 1614.87 333.5C1617.47 328.7 1618.17 327.3 1621.27 319.7L1622.37 319.9L1620.27 332.6C1620.17 332.9 1620.17 333.3 1620.17 333.6C1620.17 334.3 1620.37 334.7 1621.07 335.5C1622.67 337.2 1623.37 338.6 1623.37 340.2C1623.37 343 1621.27 345.1 1618.57 345.1C1613.87 345.1 1607.27 340.7 1601.37 333.6C1595.87 337.7 1590.67 340.3 1581.87 343.4L1581.37 342.4C1588.27 337.6 1592.27 334.2 1597.67 328.4C1595.27 324.3 1593.97 321.1 1592.77 316.5C1586.07 319.7 1586.07 319.7 1581.27 321.7V323.5C1581.27 332.3 1581.27 332.3 1581.37 336.8C1581.37 341.7 1579.67 343.7 1574.37 345.2C1572.97 345.6 1570.77 346 1569.87 346C1569.07 346 1568.77 345.7 1568.67 344.8C1568.47 343.3 1568.17 342.1 1567.67 341.1C1566.57 338.9 1565.37 338.1 1560.27 336.6L1560.37 335.4C1564.97 335.8 1566.47 335.9 1570.67 336C1570.67 336 1570.77 336 1570.87 336C1571.47 336 1571.67 335.8 1571.67 335V325.5C1569.27 326.3 1568.47 326.6 1565.37 327.6C1564.87 330.4 1564.57 331.1 1563.77 331.1C1563.37 331.1 1563.07 330.8 1562.77 330.2C1562.77 330 1561.97 326.4 1560.37 319.4C1560.97 319.4 1561.57 319.4 1561.87 319.4C1563.77 319.4 1566.57 319.2 1571.67 318.6V310.4ZM1581.27 310.2V317.3C1585.87 316.7 1587.97 316.3 1592.47 315.4C1592.07 313.3 1591.87 312.3 1591.57 310L1581.27 310.2ZM1592.97 268.8V277.3H1602.07C1604.47 274.5 1605.17 273.6 1607.67 270.9C1611.67 273.8 1612.77 274.7 1616.47 277.9C1616.87 278.3 1616.97 278.6 1616.97 278.8C1616.97 279.1 1616.57 279.4 1615.97 279.4H1592.97V288.6H1606.57C1609.27 285.5 1609.97 284.6 1612.57 281.7C1616.67 284.6 1617.87 285.6 1621.77 288.9C1622.17 289.4 1622.37 289.7 1622.37 290C1622.37 290.4 1621.87 290.7 1621.37 290.7H1567.37C1564.97 290.7 1563.07 290.9 1561.37 291.2L1560.77 288C1562.97 288.5 1564.57 288.6 1567.37 288.6H1582.67V279.4H1571.87C1569.37 279.4 1567.67 279.5 1565.77 279.9L1565.17 276.7C1567.27 277.1 1569.27 277.3 1571.87 277.3H1582.67V268.8H1568.77C1566.27 268.8 1564.37 269 1562.27 269.4L1561.67 266C1564.07 266.5 1566.17 266.7 1568.77 266.7H1575.47C1574.97 265.9 1574.97 265.7 1574.67 264.6C1573.67 260.7 1571.77 257.6 1568.37 254.1L1569.17 253.2C1580.27 256 1584.37 258.4 1584.37 262C1584.37 263.7 1583.57 265.2 1581.87 266.7H1591.37C1594.87 259.7 1596.17 256.2 1596.87 252.6C1609.17 255.9 1611.17 256.7 1611.17 257.9C1611.17 258.7 1610.07 259.1 1606.87 259.2C1602.87 262.3 1601.07 263.5 1596.07 266.7H1605.67C1608.07 263.9 1608.87 263.1 1611.27 260.4C1615.17 263.3 1616.27 264.2 1619.77 267.2C1620.17 267.7 1620.37 268 1620.37 268.2C1620.37 268.5 1619.97 268.8 1619.37 268.8H1592.97ZM1531.37 263.7L1530.77 260.4C1532.87 260.9 1534.37 261.1 1536.37 261.1H1544.87C1547.67 258.1 1548.47 257.1 1551.17 254.1C1555.27 257.4 1556.57 258.4 1560.37 261.7C1560.77 262.1 1560.87 262.4 1560.87 262.6C1560.87 262.9 1560.47 263.2 1559.87 263.2H1536.47C1534.47 263.2 1533.37 263.3 1531.37 263.7ZM1528.77 276.4L1528.17 273.1C1530.27 273.6 1531.97 273.8 1533.97 273.8H1546.57C1549.27 270.7 1550.17 269.8 1552.87 266.9C1556.97 270 1558.27 271 1562.27 274.3C1562.77 274.8 1562.97 275.1 1562.97 275.3C1562.97 275.7 1562.57 275.9 1561.97 275.9H1533.97C1532.27 275.9 1531.07 276 1528.77 276.4ZM1531.27 289.2L1530.67 286C1532.57 286.4 1534.67 286.6 1536.47 286.6H1545.17C1547.67 283.8 1548.47 283 1551.07 280.3C1554.87 283.2 1555.97 284.1 1559.37 287.1C1559.77 287.6 1559.87 287.8 1559.87 288C1559.87 288.4 1559.47 288.7 1558.77 288.7H1536.47C1534.47 288.7 1533.37 288.8 1531.27 289.2ZM1531.37 302.2L1530.87 298.9C1532.77 299.4 1534.57 299.6 1536.27 299.6H1545.27C1547.97 296.5 1548.77 295.6 1551.37 292.9C1555.27 295.9 1556.47 296.9 1560.07 300.2C1560.47 300.7 1560.57 300.9 1560.57 301.1C1560.57 301.5 1560.17 301.7 1559.47 301.7H1536.27C1534.47 301.7 1533.37 301.8 1531.37 302.2ZM1541.17 339.9V343.9C1541.07 345.7 1540.07 346 1534.37 346C1531.97 346 1531.37 345.6 1531.37 344C1531.57 336.7 1531.67 332.9 1531.67 326.5C1531.67 315.9 1531.57 312.5 1531.27 307.5C1535.87 309.8 1537.27 310.5 1541.77 313.1H1547.97C1549.97 310.7 1550.67 310 1552.87 307.7C1556.07 310 1556.97 310.8 1559.87 313.1C1560.57 313.7 1560.87 314.1 1560.87 314.5C1560.87 315.2 1560.17 315.8 1557.87 317C1557.87 331.8 1557.87 331.8 1558.27 342.7C1558.27 342.8 1558.27 342.9 1558.27 343C1558.27 344.7 1556.77 345.2 1552.17 345.2C1549.17 345.2 1548.77 345 1548.67 343.3V339.9H1541.17ZM1541.17 315.2V337.8H1548.67V315.2H1541.17ZM1693.67 317H1687.87V317.8C1687.87 321.2 1687.97 328.9 1688.07 341C1688.07 342.7 1687.17 343.1 1682.97 343.1C1680.17 343.1 1679.67 342.8 1679.67 341.2C1679.77 329.8 1679.77 322.1 1679.77 318.1V317H1674.07V327.4C1674.17 338.7 1674.17 338.7 1674.17 343.4C1674.17 343.6 1674.17 343.7 1674.17 343.8C1674.17 345.5 1672.77 346 1667.87 346C1665.07 346 1664.47 345.7 1664.47 344C1664.77 332.8 1664.87 326.9 1664.87 306.6C1664.87 298.2 1664.77 295.8 1664.47 290.3C1669.27 292.6 1670.67 293.3 1675.27 295.7H1706.27C1708.57 293.5 1709.17 292.8 1711.47 290.6C1714.87 293 1715.87 293.7 1718.97 296.3C1719.77 297 1720.07 297.5 1720.07 297.9C1720.07 298.6 1719.37 299.2 1716.97 300.6V324.6L1717.07 336.9C1717.07 341.5 1715.57 343.4 1711.47 344.5C1709.97 344.9 1708.27 345.1 1707.07 345.1C1705.87 345.1 1705.87 345.1 1705.77 342.1C1705.57 338.2 1704.57 336.6 1701.67 335.8V341C1701.67 342.7 1700.67 343.1 1696.57 343.1C1694.07 343.1 1693.57 342.8 1693.57 341.3V341.2C1693.57 339.6 1693.57 339.2 1693.57 337.8L1693.67 318.1V317ZM1693.67 314.9V297.8H1687.87V314.9H1693.67ZM1679.77 314.9V297.8H1674.07V314.9H1679.77ZM1701.57 317V318.1C1701.57 322.6 1701.57 328.2 1701.67 334.8C1703.27 334.9 1703.87 334.9 1704.77 334.9C1705.17 334.9 1705.77 334.9 1706.57 334.9C1707.47 334.8 1707.67 334.5 1707.67 333.5V317H1701.57ZM1701.57 314.9H1707.67V297.8H1701.57V314.9ZM1632.37 262.9L1631.67 259.4C1633.87 260 1636.37 260.3 1638.17 260.3H1647.27C1649.77 257 1650.57 256.1 1653.27 253C1657.57 256.3 1658.87 257.4 1663.17 260.8C1663.67 261.2 1663.87 261.5 1663.87 261.8C1663.87 262.1 1663.37 262.4 1662.67 262.4H1638.17C1635.67 262.4 1634.67 262.5 1632.37 262.9ZM1629.57 276L1628.87 272.6C1630.77 273 1633.67 273.4 1635.37 273.4H1650.07L1656.77 266.2C1660.97 269.4 1662.17 270.4 1666.27 273.9C1666.57 274.3 1666.77 274.6 1666.77 274.8C1666.77 275.2 1666.27 275.5 1665.57 275.5H1635.37C1633.07 275.5 1631.77 275.6 1629.57 276ZM1631.87 288.9L1631.27 285.5C1633.77 286.1 1635.67 286.3 1637.77 286.3H1646.37C1648.97 283.4 1649.87 282.5 1652.47 279.6C1656.27 282.7 1657.37 283.7 1661.07 287.1C1661.37 287.5 1661.47 287.7 1661.47 287.8C1661.47 288.2 1661.07 288.4 1660.57 288.4H1637.77C1635.67 288.4 1634.37 288.5 1631.87 288.9ZM1631.97 301.9L1631.27 298.4C1634.07 298.9 1636.27 299.2 1638.17 299.2H1646.67C1649.37 296.3 1650.17 295.4 1652.67 292.5C1656.67 295.6 1657.87 296.6 1661.57 299.8C1661.87 300.1 1662.07 300.5 1662.07 300.7C1662.07 301.1 1661.67 301.3 1660.97 301.3H1637.87C1635.67 301.3 1634.37 301.4 1631.97 301.9ZM1641.97 339.6V343.5C1641.97 345.4 1640.77 345.9 1636.17 345.9C1632.47 345.9 1631.97 345.6 1631.97 343.7C1632.27 330.1 1632.37 326.9 1632.37 322.4C1632.37 314.2 1632.27 310.5 1632.07 306.4C1636.87 309.1 1638.27 309.9 1642.97 312.8H1649.87C1651.87 310.3 1652.47 309.5 1654.67 307.1C1657.77 309.3 1658.67 310 1661.47 312.2C1662.37 313 1662.77 313.5 1662.77 314.1C1662.77 314.8 1662.17 315.4 1659.77 316.6L1659.67 323.1V328.1C1659.67 331.9 1659.67 333.3 1659.97 342.4C1659.97 344.4 1658.67 344.9 1653.57 344.9C1650.67 344.9 1650.17 344.6 1650.07 343.1V339.6H1641.97ZM1641.97 314.9V337.5H1650.07V314.9H1641.97ZM1674.97 286.9L1674.27 283.6C1676.47 284.1 1678.77 284.3 1680.87 284.3H1690.87C1692.87 281.9 1694.77 279.5 1696.77 277.2C1700.57 280.5 1701.77 281.5 1705.47 285C1705.67 285.3 1705.87 285.6 1705.87 285.8C1705.87 286.1 1705.37 286.4 1704.87 286.4H1680.87C1678.97 286.4 1677.67 286.5 1674.97 286.9ZM1658.67 293L1657.87 292C1664.97 285.2 1669.87 279.2 1674.77 271C1678.87 264.1 1681.47 258.4 1682.87 253.1C1685.87 253.9 1688.17 254.4 1689.67 254.7C1696.37 256.3 1697.67 256.8 1697.67 257.7C1697.67 258.5 1696.77 259 1694.27 259.5C1697.87 265.3 1701.07 268.4 1706.97 271.9C1712.57 275.3 1717.17 277 1724.67 278.5L1724.57 279.6C1720.77 282.1 1719.57 283.9 1717.77 289.2C1717.67 289.7 1717.47 289.9 1717.07 289.9C1716.17 289.9 1713.07 287.9 1710.07 285.5C1701.67 278.7 1697.27 272.3 1692.87 260.8C1687.87 269.2 1682.97 275.1 1675.47 281.6C1670.77 285.6 1666.77 288.3 1658.67 293ZM1756.37 346.2L1755.87 345C1761.27 342.2 1764.67 339.9 1768.17 336.4C1772.87 331.7 1775.17 327.5 1776.77 320.7C1774.87 321.9 1772.97 322.5 1770.57 322.5C1762.97 322.5 1757.17 315.5 1757.17 306.2C1757.17 296.8 1763.07 290.1 1771.37 290.1C1773.47 290.1 1774.67 290.4 1777.47 291.8C1777.47 289 1777.47 288.2 1777.47 287C1777.47 284.6 1777.47 283.8 1777.37 280.3C1763.97 281.9 1753.67 284.6 1746.17 288.5C1745.47 288.8 1744.17 289.1 1743.27 289.1C1740.37 289.1 1737.37 286.9 1734.57 282.9C1732.67 280 1731.47 277.1 1731.47 275C1731.47 274.6 1731.57 274.1 1731.87 273.3C1734.77 277.4 1738.07 279.2 1742.57 279.2C1745.57 279.2 1745.57 279.2 1763.37 276.6C1767.37 276 1770.37 275.7 1777.17 274.9C1776.97 267.3 1776.47 264.1 1775.07 262.2C1773.47 260 1770.97 258.7 1766.37 258C1768.17 256.4 1769.47 256 1772.67 256C1776.47 256 1780.37 256.6 1783.97 257.7C1787.87 259 1789.67 260.6 1789.67 262.9C1789.67 263.9 1789.47 264.6 1788.67 266C1787.17 268.7 1786.97 269.6 1786.47 273.7C1800.37 272.5 1801.17 272.4 1804.57 270.9C1806.37 270.1 1807.37 269.9 1808.87 269.9C1811.57 269.9 1815.97 271.8 1818.57 274.1C1819.87 275.2 1820.37 276.2 1820.37 277.8C1820.37 279.6 1818.87 280.8 1816.77 280.8C1815.87 280.8 1814.37 280.6 1810.87 280.1C1805.17 279.4 1800.87 279.1 1794.47 279.1C1791.07 279.1 1789.37 279.2 1785.97 279.5C1785.57 284.8 1785.27 291.3 1785.27 295C1785.27 295.4 1785.27 296.2 1785.27 297.1C1787.87 302 1788.77 305.5 1788.77 311C1788.77 322.4 1783.97 331.9 1774.87 338.3C1770.17 341.6 1765.77 343.5 1756.37 346.2ZM1777.37 304.6C1777.37 297.2 1774.97 293 1770.87 293C1766.87 293 1763.77 297.2 1763.77 302.6C1763.77 308.9 1766.77 313.3 1771.17 313.3C1775.07 313.3 1777.37 310.1 1777.37 304.6ZM1859.37 305L1859.47 305.1C1869.67 298.6 1877.57 295.9 1886.27 295.9C1900.07 295.9 1909.47 304.2 1909.47 316.3C1909.47 331.3 1895.27 342.3 1875.97 342.3C1864.57 342.3 1857.07 337.6 1857.07 330.4C1857.07 324.4 1862.27 320.2 1869.77 320.2C1877.57 320.2 1883.57 324.1 1887.67 331.8C1894.57 328.2 1898.07 322.4 1898.07 314.5C1898.07 305.5 1892.77 300.5 1883.17 300.5C1876.37 300.5 1869.37 303.1 1863.07 307.9C1859.27 310.8 1854.47 315.8 1851.57 319.8C1849.87 322.1 1849.67 322.4 1848.77 323C1848.17 323.5 1847.17 323.9 1846.67 323.9C1843.97 323.9 1841.47 319.5 1841.47 314.9C1841.47 312.1 1841.97 311.4 1846.17 308C1851.37 303.7 1865.47 288.4 1872.77 279C1882.37 266.7 1882.37 266.7 1882.37 266.4C1882.37 266.4 1882.27 266.3 1882.17 266.3C1882.17 266.3 1882.17 266.3 1882.07 266.3C1881.77 266.5 1881.17 266.7 1880.07 267.1C1879.27 267.5 1877.47 268.2 1874.97 269.4C1874.27 269.7 1872.47 270.5 1869.97 271.6C1866.67 273.1 1866.67 273.1 1862.47 275.1C1860.47 276.1 1859.27 276.5 1858.07 276.5C1855.87 276.5 1853.77 275 1851.67 271.8C1849.77 268.8 1848.77 266 1848.77 263.5C1848.77 262.4 1848.97 261.5 1849.67 259.9C1851.67 264.8 1854.67 267.4 1858.37 267.4C1861.07 267.4 1866.67 266.2 1873.27 264.3C1878.87 262.6 1880.47 261.9 1882.27 260.5C1883.57 259.5 1884.37 259.1 1885.47 259.1C1885.57 259.1 1885.67 259.1 1885.67 259.1C1887.87 259.2 1891.07 261.5 1894.27 265.1C1895.57 266.7 1896.27 268.1 1896.27 269.4C1896.27 270.7 1895.67 271.4 1893.07 272.8C1890.07 274.4 1889.37 274.9 1881.07 282.8C1875.77 287.8 1873.67 289.9 1866.47 297.5C1861.37 302.9 1861.37 302.9 1859.37 305ZM1878.57 335.3C1876.67 328.8 1872.27 325 1866.87 325C1863.27 325 1860.77 327 1860.77 329.8C1860.77 333.5 1865.47 336.1 1872.17 336.1C1874.37 336.1 1875.47 336 1878.57 335.3Z" fill="black"/>
</svg>
