<svg width="380" height="220" viewBox="0 0 380 220" fill="none" xmlns="http://www.w3.org/2000/svg">
<rect width="380" height="220" fill="white"/>
<line x1="36" y1="179.5" x2="336" y2="179.5" stroke="#333333"/>
<line x1="46.5" y1="166" x2="46.5" y2="194" stroke="#333333"/>
<line x1="186.5" y1="166" x2="186.5" y2="194" stroke="#333333"/>
<path d="M33.1392 150.836V152.779H26.8306V150.836H33.1392ZM27.5693 145.914V158H25.0791V145.914H27.5693ZM34.9155 145.914V158H32.4336V145.914H34.9155ZM42.2368 145.914V158H39.7549V145.914H42.2368ZM45.9556 145.914V147.865H36.0942V145.914H45.9556ZM52.9116 145.914V158H50.4297V145.914H52.9116ZM56.6304 145.914V147.865H46.769V145.914H56.6304ZM62.7563 153.692H59.6768V151.75H62.7563C63.2323 151.75 63.6196 151.672 63.9185 151.517C64.2173 151.357 64.4359 151.135 64.5742 150.853C64.7126 150.571 64.7817 150.253 64.7817 149.898C64.7817 149.539 64.7126 149.204 64.5742 148.894C64.4359 148.584 64.2173 148.335 63.9185 148.147C63.6196 147.959 63.2323 147.865 62.7563 147.865H60.54V158H58.0498V145.914H62.7563C63.7026 145.914 64.5133 146.086 65.1885 146.429C65.8691 146.766 66.3893 147.234 66.749 147.832C67.1087 148.429 67.2886 149.113 67.2886 149.882C67.2886 150.662 67.1087 151.337 66.749 151.907C66.3893 152.477 65.8691 152.917 65.1885 153.227C64.5133 153.537 63.7026 153.692 62.7563 153.692Z" fill="#DD3322"/>
<path d="M168.139 150.836V152.779H161.831V150.836H168.139ZM162.569 145.914V158H160.079V145.914H162.569ZM169.916 145.914V158H167.434V145.914H169.916ZM177.237 145.914V158H174.755V145.914H177.237ZM180.956 145.914V147.865H171.094V145.914H180.956ZM187.912 145.914V158H185.43V145.914H187.912ZM191.63 145.914V147.865H181.769V145.914H191.63ZM197.756 153.692H194.677V151.75H197.756C198.232 151.75 198.62 151.672 198.918 151.517C199.217 151.357 199.436 151.135 199.574 150.853C199.713 150.571 199.782 150.253 199.782 149.898C199.782 149.539 199.713 149.204 199.574 148.894C199.436 148.584 199.217 148.335 198.918 148.147C198.62 147.959 198.232 147.865 197.756 147.865H195.54V158H193.05V145.914H197.756C198.703 145.914 199.513 146.086 200.188 146.429C200.869 146.766 201.389 147.234 201.749 147.832C202.109 148.429 202.289 149.113 202.289 149.882C202.289 150.662 202.109 151.337 201.749 151.907C201.389 152.477 200.869 152.917 200.188 153.227C199.513 153.537 198.703 153.692 197.756 153.692ZM210.299 154.837C210.299 154.622 210.266 154.428 210.199 154.256C210.138 154.079 210.022 153.919 209.851 153.775C209.679 153.625 209.438 153.479 209.128 153.335C208.819 153.191 208.417 153.042 207.925 152.887C207.377 152.71 206.857 152.51 206.364 152.289C205.877 152.068 205.446 151.81 205.069 151.517C204.699 151.218 204.405 150.872 204.189 150.479C203.979 150.087 203.874 149.63 203.874 149.11C203.874 148.606 203.985 148.15 204.206 147.74C204.427 147.325 204.737 146.971 205.136 146.678C205.534 146.379 206.005 146.149 206.547 145.989C207.095 145.828 207.695 145.748 208.348 145.748C209.239 145.748 210.017 145.909 210.681 146.229C211.345 146.55 211.859 146.99 212.225 147.549C212.595 148.108 212.781 148.747 212.781 149.467H210.307C210.307 149.113 210.232 148.803 210.083 148.537C209.939 148.266 209.718 148.053 209.419 147.898C209.126 147.743 208.755 147.666 208.307 147.666C207.875 147.666 207.515 147.732 207.228 147.865C206.94 147.992 206.724 148.166 206.58 148.388C206.436 148.604 206.364 148.847 206.364 149.118C206.364 149.323 206.414 149.508 206.514 149.674C206.619 149.84 206.774 149.995 206.979 150.139C207.183 150.283 207.435 150.419 207.734 150.546C208.033 150.673 208.379 150.798 208.771 150.919C209.43 151.119 210.008 151.343 210.506 151.592C211.01 151.841 211.431 152.12 211.768 152.43C212.106 152.74 212.36 153.091 212.532 153.484C212.703 153.877 212.789 154.323 212.789 154.821C212.789 155.347 212.687 155.817 212.482 156.232C212.277 156.647 211.981 156.998 211.594 157.286C211.206 157.574 210.744 157.792 210.208 157.942C209.671 158.091 209.07 158.166 208.406 158.166C207.809 158.166 207.219 158.089 206.638 157.934C206.057 157.773 205.529 157.532 205.053 157.211C204.582 156.89 204.206 156.481 203.924 155.983C203.642 155.485 203.5 154.896 203.5 154.215H205.999C205.999 154.591 206.057 154.909 206.173 155.169C206.29 155.43 206.453 155.64 206.663 155.8C206.879 155.961 207.133 156.077 207.427 156.149C207.726 156.221 208.052 156.257 208.406 156.257C208.838 156.257 209.192 156.196 209.469 156.074C209.751 155.952 209.958 155.784 210.091 155.568C210.23 155.352 210.299 155.109 210.299 154.837Z" fill="#333333"/>
<path d="M89.6464 151.646C89.4512 151.842 89.4512 152.158 89.6464 152.354L92.8284 155.536C93.0237 155.731 93.3403 155.731 93.5355 155.536C93.7308 155.34 93.7308 155.024 93.5355 154.828L90.7071 152L93.5355 149.172C93.7308 148.976 93.7308 148.66 93.5355 148.464C93.3403 148.269 93.0237 148.269 92.8284 148.464L89.6464 151.646ZM90 152.5H138V151.5H90V152.5Z" fill="#333333"/>
<path d="M96.1641 139.086V140H93.3008V139.086H96.1641ZM93.6797 134.312V140H92.5078V134.312H93.6797ZM98.7109 140.078C98.3828 140.078 98.0885 140.026 97.8281 139.922C97.5677 139.815 97.3464 139.668 97.1641 139.48C96.9844 139.293 96.8464 139.076 96.75 138.828C96.6536 138.578 96.6055 138.312 96.6055 138.031V137.875C96.6055 137.555 96.651 137.262 96.7422 136.996C96.8333 136.73 96.9635 136.5 97.1328 136.305C97.3047 136.109 97.513 135.96 97.7578 135.855C98.0026 135.749 98.2786 135.695 98.5859 135.695C98.8854 135.695 99.151 135.745 99.3828 135.844C99.6146 135.943 99.8086 136.083 99.9648 136.266C100.124 136.448 100.243 136.667 100.324 136.922C100.405 137.174 100.445 137.456 100.445 137.766V138.234H97.0859V137.484H99.3398V137.398C99.3398 137.242 99.3112 137.103 99.2539 136.98C99.1992 136.855 99.1159 136.757 99.0039 136.684C98.8919 136.611 98.7487 136.574 98.5742 136.574C98.4258 136.574 98.2982 136.607 98.1914 136.672C98.0846 136.737 97.9974 136.828 97.9297 136.945C97.8646 137.062 97.8151 137.201 97.7812 137.359C97.75 137.516 97.7344 137.688 97.7344 137.875V138.031C97.7344 138.201 97.7578 138.357 97.8047 138.5C97.8542 138.643 97.9232 138.767 98.0117 138.871C98.1029 138.975 98.2122 139.056 98.3398 139.113C98.4701 139.171 98.6172 139.199 98.7812 139.199C98.9844 139.199 99.1732 139.16 99.3477 139.082C99.5247 139.001 99.6771 138.88 99.8047 138.719L100.352 139.312C100.263 139.44 100.142 139.562 99.9883 139.68C99.8372 139.797 99.6549 139.893 99.4414 139.969C99.2279 140.042 98.9844 140.078 98.7109 140.078ZM103.371 138.832C103.371 138.751 103.348 138.678 103.301 138.613C103.254 138.548 103.167 138.488 103.039 138.434C102.914 138.376 102.733 138.324 102.496 138.277C102.283 138.23 102.083 138.172 101.898 138.102C101.716 138.029 101.557 137.941 101.422 137.84C101.289 137.738 101.185 137.618 101.109 137.48C101.034 137.34 100.996 137.18 100.996 137C100.996 136.823 101.034 136.656 101.109 136.5C101.188 136.344 101.298 136.206 101.441 136.086C101.587 135.964 101.764 135.868 101.973 135.801C102.184 135.73 102.421 135.695 102.684 135.695C103.051 135.695 103.366 135.754 103.629 135.871C103.895 135.988 104.098 136.15 104.238 136.355C104.382 136.559 104.453 136.79 104.453 137.051H103.328C103.328 136.941 103.305 136.844 103.258 136.758C103.214 136.669 103.143 136.6 103.047 136.551C102.953 136.499 102.831 136.473 102.68 136.473C102.555 136.473 102.447 136.495 102.355 136.539C102.264 136.581 102.194 136.638 102.145 136.711C102.098 136.781 102.074 136.859 102.074 136.945C102.074 137.01 102.087 137.069 102.113 137.121C102.142 137.171 102.188 137.216 102.25 137.258C102.312 137.299 102.393 137.339 102.492 137.375C102.594 137.409 102.719 137.44 102.867 137.469C103.172 137.531 103.444 137.613 103.684 137.715C103.923 137.814 104.113 137.949 104.254 138.121C104.395 138.29 104.465 138.513 104.465 138.789C104.465 138.977 104.423 139.148 104.34 139.305C104.257 139.461 104.137 139.598 103.98 139.715C103.824 139.829 103.637 139.919 103.418 139.984C103.202 140.047 102.958 140.078 102.688 140.078C102.294 140.078 101.961 140.008 101.688 139.867C101.417 139.727 101.211 139.548 101.07 139.332C100.932 139.113 100.863 138.889 100.863 138.66H101.93C101.935 138.814 101.974 138.938 102.047 139.031C102.122 139.125 102.217 139.193 102.332 139.234C102.449 139.276 102.576 139.297 102.711 139.297C102.857 139.297 102.978 139.277 103.074 139.238C103.171 139.197 103.243 139.142 103.293 139.074C103.345 139.004 103.371 138.923 103.371 138.832ZM107.48 138.832C107.48 138.751 107.457 138.678 107.41 138.613C107.363 138.548 107.276 138.488 107.148 138.434C107.023 138.376 106.842 138.324 106.605 138.277C106.392 138.23 106.193 138.172 106.008 138.102C105.826 138.029 105.667 137.941 105.531 137.84C105.398 137.738 105.294 137.618 105.219 137.48C105.143 137.34 105.105 137.18 105.105 137C105.105 136.823 105.143 136.656 105.219 136.5C105.297 136.344 105.408 136.206 105.551 136.086C105.697 135.964 105.874 135.868 106.082 135.801C106.293 135.73 106.53 135.695 106.793 135.695C107.16 135.695 107.475 135.754 107.738 135.871C108.004 135.988 108.207 136.15 108.348 136.355C108.491 136.559 108.562 136.79 108.562 137.051H107.438C107.438 136.941 107.414 136.844 107.367 136.758C107.323 136.669 107.253 136.6 107.156 136.551C107.062 136.499 106.94 136.473 106.789 136.473C106.664 136.473 106.556 136.495 106.465 136.539C106.374 136.581 106.303 136.638 106.254 136.711C106.207 136.781 106.184 136.859 106.184 136.945C106.184 137.01 106.197 137.069 106.223 137.121C106.251 137.171 106.297 137.216 106.359 137.258C106.422 137.299 106.503 137.339 106.602 137.375C106.703 137.409 106.828 137.44 106.977 137.469C107.281 137.531 107.553 137.613 107.793 137.715C108.033 137.814 108.223 137.949 108.363 138.121C108.504 138.29 108.574 138.513 108.574 138.789C108.574 138.977 108.533 139.148 108.449 139.305C108.366 139.461 108.246 139.598 108.09 139.715C107.934 139.829 107.746 139.919 107.527 139.984C107.311 140.047 107.068 140.078 106.797 140.078C106.404 140.078 106.07 140.008 105.797 139.867C105.526 139.727 105.32 139.548 105.18 139.332C105.042 139.113 104.973 138.889 104.973 138.66H106.039C106.044 138.814 106.083 138.938 106.156 139.031C106.232 139.125 106.327 139.193 106.441 139.234C106.559 139.276 106.685 139.297 106.82 139.297C106.966 139.297 107.087 139.277 107.184 139.238C107.28 139.197 107.353 139.142 107.402 139.074C107.454 139.004 107.48 138.923 107.48 138.832ZM114.328 138.512C114.328 138.41 114.312 138.319 114.281 138.238C114.253 138.155 114.198 138.079 114.117 138.012C114.036 137.941 113.923 137.872 113.777 137.805C113.632 137.737 113.443 137.667 113.211 137.594C112.953 137.51 112.708 137.417 112.477 137.312C112.247 137.208 112.044 137.087 111.867 136.949C111.693 136.809 111.555 136.646 111.453 136.461C111.354 136.276 111.305 136.061 111.305 135.816C111.305 135.579 111.357 135.365 111.461 135.172C111.565 134.977 111.711 134.81 111.898 134.672C112.086 134.531 112.307 134.423 112.562 134.348C112.82 134.272 113.103 134.234 113.41 134.234C113.829 134.234 114.195 134.31 114.508 134.461C114.82 134.612 115.062 134.819 115.234 135.082C115.409 135.345 115.496 135.646 115.496 135.984H114.332C114.332 135.818 114.297 135.672 114.227 135.547C114.159 135.419 114.055 135.319 113.914 135.246C113.776 135.173 113.602 135.137 113.391 135.137C113.188 135.137 113.018 135.168 112.883 135.23C112.747 135.29 112.646 135.372 112.578 135.477C112.51 135.578 112.477 135.693 112.477 135.82C112.477 135.917 112.5 136.004 112.547 136.082C112.596 136.16 112.669 136.233 112.766 136.301C112.862 136.368 112.98 136.432 113.121 136.492C113.262 136.552 113.424 136.611 113.609 136.668C113.919 136.762 114.191 136.867 114.426 136.984C114.663 137.102 114.861 137.233 115.02 137.379C115.178 137.525 115.298 137.69 115.379 137.875C115.46 138.06 115.5 138.27 115.5 138.504C115.5 138.751 115.452 138.973 115.355 139.168C115.259 139.363 115.12 139.529 114.938 139.664C114.755 139.799 114.538 139.902 114.285 139.973C114.033 140.043 113.75 140.078 113.438 140.078C113.156 140.078 112.879 140.042 112.605 139.969C112.332 139.893 112.083 139.78 111.859 139.629C111.638 139.478 111.461 139.285 111.328 139.051C111.195 138.816 111.129 138.539 111.129 138.219H112.305C112.305 138.396 112.332 138.546 112.387 138.668C112.441 138.79 112.518 138.889 112.617 138.965C112.719 139.04 112.839 139.095 112.977 139.129C113.117 139.163 113.271 139.18 113.438 139.18C113.641 139.18 113.807 139.151 113.938 139.094C114.07 139.036 114.168 138.957 114.23 138.855C114.296 138.754 114.328 138.639 114.328 138.512ZM118.172 140.078C117.844 140.078 117.549 140.026 117.289 139.922C117.029 139.815 116.807 139.668 116.625 139.48C116.445 139.293 116.307 139.076 116.211 138.828C116.115 138.578 116.066 138.312 116.066 138.031V137.875C116.066 137.555 116.112 137.262 116.203 136.996C116.294 136.73 116.424 136.5 116.594 136.305C116.766 136.109 116.974 135.96 117.219 135.855C117.464 135.749 117.74 135.695 118.047 135.695C118.346 135.695 118.612 135.745 118.844 135.844C119.076 135.943 119.27 136.083 119.426 136.266C119.585 136.448 119.704 136.667 119.785 136.922C119.866 137.174 119.906 137.456 119.906 137.766V138.234H116.547V137.484H118.801V137.398C118.801 137.242 118.772 137.103 118.715 136.98C118.66 136.855 118.577 136.757 118.465 136.684C118.353 136.611 118.21 136.574 118.035 136.574C117.887 136.574 117.759 136.607 117.652 136.672C117.546 136.737 117.458 136.828 117.391 136.945C117.326 137.062 117.276 137.201 117.242 137.359C117.211 137.516 117.195 137.688 117.195 137.875V138.031C117.195 138.201 117.219 138.357 117.266 138.5C117.315 138.643 117.384 138.767 117.473 138.871C117.564 138.975 117.673 139.056 117.801 139.113C117.931 139.171 118.078 139.199 118.242 139.199C118.445 139.199 118.634 139.16 118.809 139.082C118.986 139.001 119.138 138.88 119.266 138.719L119.812 139.312C119.724 139.44 119.603 139.562 119.449 139.68C119.298 139.797 119.116 139.893 118.902 139.969C118.689 140.042 118.445 140.078 118.172 140.078ZM122.293 139.199C122.431 139.199 122.553 139.173 122.66 139.121C122.767 139.066 122.85 138.991 122.91 138.895C122.973 138.796 123.005 138.68 123.008 138.547H124.066C124.064 138.844 123.984 139.108 123.828 139.34C123.672 139.569 123.462 139.75 123.199 139.883C122.936 140.013 122.642 140.078 122.316 140.078C121.988 140.078 121.702 140.023 121.457 139.914C121.215 139.805 121.013 139.654 120.852 139.461C120.69 139.266 120.569 139.039 120.488 138.781C120.408 138.521 120.367 138.242 120.367 137.945V137.832C120.367 137.533 120.408 137.254 120.488 136.996C120.569 136.736 120.69 136.509 120.852 136.316C121.013 136.121 121.215 135.969 121.457 135.859C121.699 135.75 121.983 135.695 122.309 135.695C122.655 135.695 122.958 135.762 123.219 135.895C123.482 136.027 123.688 136.217 123.836 136.465C123.987 136.71 124.064 137 124.066 137.336H123.008C123.005 137.195 122.975 137.068 122.918 136.953C122.863 136.839 122.783 136.747 122.676 136.68C122.572 136.609 122.443 136.574 122.289 136.574C122.125 136.574 121.991 136.609 121.887 136.68C121.783 136.747 121.702 136.841 121.645 136.961C121.587 137.078 121.547 137.212 121.523 137.363C121.503 137.512 121.492 137.668 121.492 137.832V137.945C121.492 138.109 121.503 138.267 121.523 138.418C121.544 138.569 121.583 138.703 121.641 138.82C121.701 138.938 121.783 139.03 121.887 139.098C121.991 139.165 122.126 139.199 122.293 139.199ZM127.219 138.988V135.773H128.344V140H127.285L127.219 138.988ZM127.344 138.121L127.676 138.113C127.676 138.395 127.643 138.656 127.578 138.898C127.513 139.138 127.415 139.346 127.285 139.523C127.155 139.698 126.991 139.835 126.793 139.934C126.595 140.03 126.362 140.078 126.094 140.078C125.888 140.078 125.698 140.049 125.523 139.992C125.352 139.932 125.203 139.84 125.078 139.715C124.956 139.587 124.859 139.424 124.789 139.227C124.721 139.026 124.688 138.785 124.688 138.504V135.773H125.812V138.512C125.812 138.637 125.827 138.742 125.855 138.828C125.887 138.914 125.93 138.984 125.984 139.039C126.039 139.094 126.103 139.133 126.176 139.156C126.251 139.18 126.335 139.191 126.426 139.191C126.658 139.191 126.84 139.145 126.973 139.051C127.108 138.957 127.203 138.829 127.258 138.668C127.315 138.504 127.344 138.322 127.344 138.121ZM130.328 136.695V140H129.203V135.773H130.262L130.328 136.695ZM131.602 135.746L131.582 136.789C131.527 136.781 131.461 136.775 131.383 136.77C131.307 136.762 131.238 136.758 131.176 136.758C131.017 136.758 130.879 136.779 130.762 136.82C130.647 136.859 130.551 136.918 130.473 136.996C130.397 137.074 130.34 137.169 130.301 137.281C130.264 137.393 130.243 137.521 130.238 137.664L130.012 137.594C130.012 137.32 130.039 137.069 130.094 136.84C130.148 136.608 130.228 136.406 130.332 136.234C130.439 136.062 130.569 135.93 130.723 135.836C130.876 135.742 131.052 135.695 131.25 135.695C131.312 135.695 131.376 135.701 131.441 135.711C131.507 135.719 131.56 135.73 131.602 135.746ZM134 140.078C133.672 140.078 133.378 140.026 133.117 139.922C132.857 139.815 132.635 139.668 132.453 139.48C132.273 139.293 132.135 139.076 132.039 138.828C131.943 138.578 131.895 138.312 131.895 138.031V137.875C131.895 137.555 131.94 137.262 132.031 136.996C132.122 136.73 132.253 136.5 132.422 136.305C132.594 136.109 132.802 135.96 133.047 135.855C133.292 135.749 133.568 135.695 133.875 135.695C134.174 135.695 134.44 135.745 134.672 135.844C134.904 135.943 135.098 136.083 135.254 136.266C135.413 136.448 135.533 136.667 135.613 136.922C135.694 137.174 135.734 137.456 135.734 137.766V138.234H132.375V137.484H134.629V137.398C134.629 137.242 134.6 137.103 134.543 136.98C134.488 136.855 134.405 136.757 134.293 136.684C134.181 136.611 134.038 136.574 133.863 136.574C133.715 136.574 133.587 136.607 133.48 136.672C133.374 136.737 133.286 136.828 133.219 136.945C133.154 137.062 133.104 137.201 133.07 137.359C133.039 137.516 133.023 137.688 133.023 137.875V138.031C133.023 138.201 133.047 138.357 133.094 138.5C133.143 138.643 133.212 138.767 133.301 138.871C133.392 138.975 133.501 139.056 133.629 139.113C133.759 139.171 133.906 139.199 134.07 139.199C134.273 139.199 134.462 139.16 134.637 139.082C134.814 139.001 134.966 138.88 135.094 138.719L135.641 139.312C135.552 139.44 135.431 139.562 135.277 139.68C135.126 139.797 134.944 139.893 134.73 139.969C134.517 140.042 134.273 140.078 134 140.078Z" fill="#DD3322"/>
<line x1="36" y1="66.5" x2="336" y2="66.5" stroke="#333333"/>
<line x1="186.5" y1="53" x2="186.5" y2="81" stroke="#333333"/>
<line x1="326.5" y1="53" x2="326.5" y2="81" stroke="#333333"/>
<path d="M173.139 40.8364V42.7788H166.831V40.8364H173.139ZM167.569 35.9141V48H165.079V35.9141H167.569ZM174.916 35.9141V48H172.434V35.9141H174.916ZM182.237 35.9141V48H179.755V35.9141H182.237ZM185.956 35.9141V37.8647H176.094V35.9141H185.956ZM192.912 35.9141V48H190.43V35.9141H192.912ZM196.63 35.9141V37.8647H186.769V35.9141H196.63ZM202.756 43.6919H199.677V41.7495H202.756C203.232 41.7495 203.62 41.672 203.918 41.5171C204.217 41.3566 204.436 41.1353 204.574 40.853C204.713 40.5708 204.782 40.2526 204.782 39.8984C204.782 39.5387 204.713 39.2039 204.574 38.894C204.436 38.5841 204.217 38.3351 203.918 38.147C203.62 37.9588 203.232 37.8647 202.756 37.8647H200.54V48H198.05V35.9141H202.756C203.703 35.9141 204.513 36.0856 205.188 36.4287C205.869 36.7663 206.389 37.2339 206.749 37.8315C207.109 38.4292 207.289 39.1126 207.289 39.8818C207.289 40.6621 207.109 41.3372 206.749 41.9072C206.389 42.4772 205.869 42.9172 205.188 43.2271C204.513 43.5369 203.703 43.6919 202.756 43.6919Z" fill="#333333"/>
<path d="M308.139 40.8364V42.7788H301.831V40.8364H308.139ZM302.569 35.9141V48H300.079V35.9141H302.569ZM309.916 35.9141V48H307.434V35.9141H309.916ZM317.237 35.9141V48H314.755V35.9141H317.237ZM320.956 35.9141V37.8647H311.094V35.9141H320.956ZM327.912 35.9141V48H325.43V35.9141H327.912ZM331.63 35.9141V37.8647H321.769V35.9141H331.63ZM337.756 43.6919H334.677V41.7495H337.756C338.232 41.7495 338.62 41.672 338.918 41.5171C339.217 41.3566 339.436 41.1353 339.574 40.853C339.713 40.5708 339.782 40.2526 339.782 39.8984C339.782 39.5387 339.713 39.2039 339.574 38.894C339.436 38.5841 339.217 38.3351 338.918 38.147C338.62 37.9588 338.232 37.8647 337.756 37.8647H335.54V48H333.05V35.9141H337.756C338.703 35.9141 339.513 36.0856 340.188 36.4287C340.869 36.7663 341.389 37.2339 341.749 37.8315C342.109 38.4292 342.289 39.1126 342.289 39.8818C342.289 40.6621 342.109 41.3372 341.749 41.9072C341.389 42.4772 340.869 42.9172 340.188 43.2271C339.513 43.5369 338.703 43.6919 337.756 43.6919ZM350.299 44.8374C350.299 44.6216 350.266 44.4279 350.199 44.2563C350.138 44.0793 350.022 43.9188 349.851 43.7749C349.679 43.6255 349.438 43.4788 349.128 43.335C348.819 43.1911 348.417 43.0417 347.925 42.8867C347.377 42.7096 346.857 42.5104 346.364 42.2891C345.877 42.0677 345.446 41.8104 345.069 41.5171C344.699 41.2183 344.405 40.8724 344.189 40.4795C343.979 40.0866 343.874 39.63 343.874 39.1099C343.874 38.6063 343.985 38.1497 344.206 37.7402C344.427 37.3252 344.737 36.971 345.136 36.6777C345.534 36.3789 346.005 36.1493 346.547 35.9888C347.095 35.8283 347.695 35.748 348.348 35.748C349.239 35.748 350.017 35.9085 350.681 36.2295C351.345 36.5505 351.859 36.9904 352.225 37.5493C352.595 38.1082 352.781 38.7474 352.781 39.4668H350.307C350.307 39.1126 350.232 38.8027 350.083 38.5371C349.939 38.266 349.718 38.0529 349.419 37.8979C349.126 37.743 348.755 37.6655 348.307 37.6655C347.875 37.6655 347.515 37.7319 347.228 37.8647C346.94 37.992 346.724 38.1663 346.58 38.3877C346.436 38.6035 346.364 38.847 346.364 39.1182C346.364 39.3229 346.414 39.5083 346.514 39.6743C346.619 39.8403 346.774 39.9953 346.979 40.1392C347.183 40.283 347.435 40.4186 347.734 40.5459C348.033 40.6732 348.379 40.7977 348.771 40.9194C349.43 41.1187 350.008 41.3428 350.506 41.5918C351.01 41.8408 351.431 42.1203 351.768 42.4302C352.106 42.7401 352.36 43.0915 352.532 43.4844C352.703 43.8773 352.789 44.3228 352.789 44.8208C352.789 45.3465 352.687 45.8169 352.482 46.2319C352.277 46.647 351.981 46.9984 351.594 47.2861C351.206 47.5739 350.744 47.7925 350.208 47.9419C349.671 48.0913 349.07 48.166 348.406 48.166C347.809 48.166 347.219 48.0885 346.638 47.9336C346.057 47.7731 345.529 47.5324 345.053 47.2114C344.582 46.8905 344.206 46.481 343.924 45.9829C343.642 45.4849 343.5 44.8955 343.5 44.2148H345.999C345.999 44.5911 346.057 44.9093 346.173 45.1694C346.29 45.4295 346.453 45.6398 346.663 45.8003C346.879 45.9608 347.133 46.077 347.427 46.1489C347.726 46.2209 348.052 46.2568 348.406 46.2568C348.838 46.2568 349.192 46.196 349.469 46.0742C349.751 45.9525 349.958 45.7837 350.091 45.5679C350.23 45.3521 350.299 45.1086 350.299 44.8374Z" fill="#11EE11"/>
<path d="M278.354 42.3536C278.549 42.1583 278.549 41.8417 278.354 41.6464L275.172 38.4645C274.976 38.2692 274.66 38.2692 274.464 38.4645C274.269 38.6597 274.269 38.9763 274.464 39.1716L277.293 42L274.464 44.8284C274.269 45.0237 274.269 45.3403 274.464 45.5355C274.66 45.7308 274.976 45.7308 275.172 45.5355L278.354 42.3536ZM230 42.5H278V41.5H230V42.5Z" fill="#333333"/>
<path d="M232.043 26.3125H233.035L234.496 30.4883L235.957 26.3125H236.949L234.895 32H234.098L232.043 26.3125ZM231.508 26.3125H232.496L232.676 30.3828V32H231.508V26.3125ZM236.496 26.3125H237.488V32H236.316V30.3828L236.496 26.3125ZM238.266 29.9297V29.8477C238.266 29.5378 238.31 29.2526 238.398 28.9922C238.487 28.7292 238.616 28.5013 238.785 28.3086C238.954 28.1159 239.163 27.9661 239.41 27.8594C239.658 27.75 239.941 27.6953 240.262 27.6953C240.582 27.6953 240.867 27.75 241.117 27.8594C241.367 27.9661 241.577 28.1159 241.746 28.3086C241.918 28.5013 242.048 28.7292 242.137 28.9922C242.225 29.2526 242.27 29.5378 242.27 29.8477V29.9297C242.27 30.237 242.225 30.5221 242.137 30.7852C242.048 31.0456 241.918 31.2734 241.746 31.4688C241.577 31.6615 241.368 31.8112 241.121 31.918C240.874 32.0247 240.59 32.0781 240.27 32.0781C239.949 32.0781 239.664 32.0247 239.414 31.918C239.167 31.8112 238.957 31.6615 238.785 31.4688C238.616 31.2734 238.487 31.0456 238.398 30.7852C238.31 30.5221 238.266 30.237 238.266 29.9297ZM239.391 29.8477V29.9297C239.391 30.1068 239.406 30.2721 239.438 30.4258C239.469 30.5794 239.518 30.7148 239.586 30.832C239.656 30.9466 239.747 31.0365 239.859 31.1016C239.971 31.1667 240.108 31.1992 240.27 31.1992C240.426 31.1992 240.56 31.1667 240.672 31.1016C240.784 31.0365 240.874 30.9466 240.941 30.832C241.009 30.7148 241.059 30.5794 241.09 30.4258C241.124 30.2721 241.141 30.1068 241.141 29.9297V29.8477C241.141 29.6758 241.124 29.5143 241.09 29.3633C241.059 29.2096 241.008 29.0742 240.938 28.957C240.87 28.8372 240.78 28.7435 240.668 28.6758C240.556 28.6081 240.421 28.5742 240.262 28.5742C240.103 28.5742 239.967 28.6081 239.855 28.6758C239.746 28.7435 239.656 28.8372 239.586 28.957C239.518 29.0742 239.469 29.2096 239.438 29.3633C239.406 29.5143 239.391 29.6758 239.391 29.8477ZM244.086 28.6953V32H242.961V27.7734H244.02L244.086 28.6953ZM245.359 27.7461L245.34 28.7891C245.285 28.7812 245.219 28.7747 245.141 28.7695C245.065 28.7617 244.996 28.7578 244.934 28.7578C244.775 28.7578 244.637 28.7786 244.52 28.8203C244.405 28.8594 244.309 28.918 244.23 28.9961C244.155 29.0742 244.098 29.1693 244.059 29.2812C244.022 29.3932 244.001 29.5208 243.996 29.6641L243.77 29.5938C243.77 29.3203 243.797 29.069 243.852 28.8398C243.906 28.6081 243.986 28.4062 244.09 28.2344C244.197 28.0625 244.327 27.9297 244.48 27.8359C244.634 27.7422 244.81 27.6953 245.008 27.6953C245.07 27.6953 245.134 27.7005 245.199 27.7109C245.264 27.7188 245.318 27.7305 245.359 27.7461ZM247.758 32.0781C247.43 32.0781 247.135 32.026 246.875 31.9219C246.615 31.8151 246.393 31.668 246.211 31.4805C246.031 31.293 245.893 31.0755 245.797 30.8281C245.701 30.5781 245.652 30.3125 245.652 30.0312V29.875C245.652 29.5547 245.698 29.2617 245.789 28.9961C245.88 28.7305 246.01 28.5 246.18 28.3047C246.352 28.1094 246.56 27.9596 246.805 27.8555C247.049 27.7487 247.326 27.6953 247.633 27.6953C247.932 27.6953 248.198 27.7448 248.43 27.8438C248.661 27.9427 248.855 28.0833 249.012 28.2656C249.171 28.4479 249.29 28.6667 249.371 28.9219C249.452 29.1745 249.492 29.4557 249.492 29.7656V30.2344H246.133V29.4844H248.387V29.3984C248.387 29.2422 248.358 29.1029 248.301 28.9805C248.246 28.8555 248.163 28.7565 248.051 28.6836C247.939 28.6107 247.796 28.5742 247.621 28.5742C247.473 28.5742 247.345 28.6068 247.238 28.6719C247.132 28.737 247.044 28.8281 246.977 28.9453C246.911 29.0625 246.862 29.2005 246.828 29.3594C246.797 29.5156 246.781 29.6875 246.781 29.875V30.0312C246.781 30.2005 246.805 30.3568 246.852 30.5C246.901 30.6432 246.97 30.7669 247.059 30.8711C247.15 30.9753 247.259 31.056 247.387 31.1133C247.517 31.1706 247.664 31.1992 247.828 31.1992C248.031 31.1992 248.22 31.1602 248.395 31.082C248.572 31.0013 248.724 30.8802 248.852 30.7188L249.398 31.3125C249.31 31.4401 249.189 31.5625 249.035 31.6797C248.884 31.7969 248.702 31.8932 248.488 31.9688C248.275 32.0417 248.031 32.0781 247.758 32.0781ZM255.156 30.5117C255.156 30.4102 255.141 30.319 255.109 30.2383C255.081 30.1549 255.026 30.0794 254.945 30.0117C254.865 29.9414 254.751 29.8724 254.605 29.8047C254.46 29.737 254.271 29.6667 254.039 29.5938C253.781 29.5104 253.536 29.4167 253.305 29.3125C253.076 29.2083 252.872 29.0872 252.695 28.9492C252.521 28.8086 252.383 28.6458 252.281 28.4609C252.182 28.276 252.133 28.0612 252.133 27.8164C252.133 27.5794 252.185 27.3646 252.289 27.1719C252.393 26.9766 252.539 26.8099 252.727 26.6719C252.914 26.5312 253.135 26.4232 253.391 26.3477C253.648 26.2721 253.931 26.2344 254.238 26.2344C254.658 26.2344 255.023 26.3099 255.336 26.4609C255.648 26.612 255.891 26.819 256.062 27.082C256.237 27.3451 256.324 27.6458 256.324 27.9844H255.16C255.16 27.8177 255.125 27.6719 255.055 27.5469C254.987 27.4193 254.883 27.319 254.742 27.2461C254.604 27.1732 254.43 27.1367 254.219 27.1367C254.016 27.1367 253.846 27.168 253.711 27.2305C253.576 27.2904 253.474 27.3724 253.406 27.4766C253.339 27.5781 253.305 27.6927 253.305 27.8203C253.305 27.9167 253.328 28.0039 253.375 28.082C253.424 28.1602 253.497 28.2331 253.594 28.3008C253.69 28.3685 253.809 28.4323 253.949 28.4922C254.09 28.5521 254.253 28.6107 254.438 28.668C254.747 28.7617 255.02 28.8672 255.254 28.9844C255.491 29.1016 255.689 29.2331 255.848 29.3789C256.007 29.5247 256.126 29.6901 256.207 29.875C256.288 30.0599 256.328 30.2695 256.328 30.5039C256.328 30.7513 256.28 30.9727 256.184 31.168C256.087 31.3633 255.948 31.5286 255.766 31.6641C255.583 31.7995 255.366 31.9023 255.113 31.9727C254.861 32.043 254.578 32.0781 254.266 32.0781C253.984 32.0781 253.707 32.0417 253.434 31.9688C253.16 31.8932 252.911 31.7799 252.688 31.6289C252.466 31.4779 252.289 31.2852 252.156 31.0508C252.023 30.8164 251.957 30.5391 251.957 30.2188H253.133C253.133 30.3958 253.16 30.5456 253.215 30.668C253.27 30.7904 253.346 30.8893 253.445 30.9648C253.547 31.0404 253.667 31.0951 253.805 31.1289C253.945 31.1628 254.099 31.1797 254.266 31.1797C254.469 31.1797 254.635 31.151 254.766 31.0938C254.898 31.0365 254.996 30.957 255.059 30.8555C255.124 30.7539 255.156 30.6393 255.156 30.5117ZM259 32.0781C258.672 32.0781 258.378 32.026 258.117 31.9219C257.857 31.8151 257.635 31.668 257.453 31.4805C257.273 31.293 257.135 31.0755 257.039 30.8281C256.943 30.5781 256.895 30.3125 256.895 30.0312V29.875C256.895 29.5547 256.94 29.2617 257.031 28.9961C257.122 28.7305 257.253 28.5 257.422 28.3047C257.594 28.1094 257.802 27.9596 258.047 27.8555C258.292 27.7487 258.568 27.6953 258.875 27.6953C259.174 27.6953 259.44 27.7448 259.672 27.8438C259.904 27.9427 260.098 28.0833 260.254 28.2656C260.413 28.4479 260.533 28.6667 260.613 28.9219C260.694 29.1745 260.734 29.4557 260.734 29.7656V30.2344H257.375V29.4844H259.629V29.3984C259.629 29.2422 259.6 29.1029 259.543 28.9805C259.488 28.8555 259.405 28.7565 259.293 28.6836C259.181 28.6107 259.038 28.5742 258.863 28.5742C258.715 28.5742 258.587 28.6068 258.48 28.6719C258.374 28.737 258.286 28.8281 258.219 28.9453C258.154 29.0625 258.104 29.2005 258.07 29.3594C258.039 29.5156 258.023 29.6875 258.023 29.875V30.0312C258.023 30.2005 258.047 30.3568 258.094 30.5C258.143 30.6432 258.212 30.7669 258.301 30.8711C258.392 30.9753 258.501 31.056 258.629 31.1133C258.759 31.1706 258.906 31.1992 259.07 31.1992C259.273 31.1992 259.462 31.1602 259.637 31.082C259.814 31.0013 259.966 30.8802 260.094 30.7188L260.641 31.3125C260.552 31.4401 260.431 31.5625 260.277 31.6797C260.126 31.7969 259.944 31.8932 259.73 31.9688C259.517 32.0417 259.273 32.0781 259 32.0781ZM263.121 31.1992C263.259 31.1992 263.382 31.1732 263.488 31.1211C263.595 31.0664 263.678 30.9909 263.738 30.8945C263.801 30.7956 263.833 30.6797 263.836 30.5469H264.895C264.892 30.8438 264.812 31.1081 264.656 31.3398C264.5 31.569 264.29 31.75 264.027 31.8828C263.764 32.013 263.47 32.0781 263.145 32.0781C262.816 32.0781 262.53 32.0234 262.285 31.9141C262.043 31.8047 261.841 31.6536 261.68 31.4609C261.518 31.2656 261.397 31.0391 261.316 30.7812C261.236 30.5208 261.195 30.2422 261.195 29.9453V29.832C261.195 29.5326 261.236 29.2539 261.316 28.9961C261.397 28.7357 261.518 28.5091 261.68 28.3164C261.841 28.1211 262.043 27.9688 262.285 27.8594C262.527 27.75 262.811 27.6953 263.137 27.6953C263.483 27.6953 263.786 27.7617 264.047 27.8945C264.31 28.0273 264.516 28.2174 264.664 28.4648C264.815 28.7096 264.892 29 264.895 29.3359H263.836C263.833 29.1953 263.803 29.0677 263.746 28.9531C263.691 28.8385 263.611 28.7474 263.504 28.6797C263.4 28.6094 263.271 28.5742 263.117 28.5742C262.953 28.5742 262.819 28.6094 262.715 28.6797C262.611 28.7474 262.53 28.8411 262.473 28.9609C262.415 29.0781 262.375 29.2122 262.352 29.3633C262.331 29.5117 262.32 29.668 262.32 29.832V29.9453C262.32 30.1094 262.331 30.2669 262.352 30.418C262.372 30.569 262.411 30.7031 262.469 30.8203C262.529 30.9375 262.611 31.0299 262.715 31.0977C262.819 31.1654 262.954 31.1992 263.121 31.1992ZM268.047 30.9883V27.7734H269.172V32H268.113L268.047 30.9883ZM268.172 30.1211L268.504 30.1133C268.504 30.3945 268.471 30.6562 268.406 30.8984C268.341 31.138 268.243 31.3464 268.113 31.5234C267.983 31.6979 267.819 31.8346 267.621 31.9336C267.423 32.0299 267.19 32.0781 266.922 32.0781C266.716 32.0781 266.526 32.0495 266.352 31.9922C266.18 31.9323 266.031 31.8398 265.906 31.7148C265.784 31.5872 265.688 31.4245 265.617 31.2266C265.549 31.026 265.516 30.7852 265.516 30.5039V27.7734H266.641V30.5117C266.641 30.6367 266.655 30.7422 266.684 30.8281C266.715 30.9141 266.758 30.9844 266.812 31.0391C266.867 31.0938 266.931 31.1328 267.004 31.1562C267.079 31.1797 267.163 31.1914 267.254 31.1914C267.486 31.1914 267.668 31.1445 267.801 31.0508C267.936 30.957 268.031 30.8294 268.086 30.668C268.143 30.5039 268.172 30.3216 268.172 30.1211ZM271.156 28.6953V32H270.031V27.7734H271.09L271.156 28.6953ZM272.43 27.7461L272.41 28.7891C272.355 28.7812 272.289 28.7747 272.211 28.7695C272.135 28.7617 272.066 28.7578 272.004 28.7578C271.845 28.7578 271.707 28.7786 271.59 28.8203C271.475 28.8594 271.379 28.918 271.301 28.9961C271.225 29.0742 271.168 29.1693 271.129 29.2812C271.092 29.3932 271.072 29.5208 271.066 29.6641L270.84 29.5938C270.84 29.3203 270.867 29.069 270.922 28.8398C270.977 28.6081 271.056 28.4062 271.16 28.2344C271.267 28.0625 271.397 27.9297 271.551 27.8359C271.704 27.7422 271.88 27.6953 272.078 27.6953C272.141 27.6953 272.204 27.7005 272.27 27.7109C272.335 27.7188 272.388 27.7305 272.43 27.7461ZM274.828 32.0781C274.5 32.0781 274.206 32.026 273.945 31.9219C273.685 31.8151 273.464 31.668 273.281 31.4805C273.102 31.293 272.964 31.0755 272.867 30.8281C272.771 30.5781 272.723 30.3125 272.723 30.0312V29.875C272.723 29.5547 272.768 29.2617 272.859 28.9961C272.951 28.7305 273.081 28.5 273.25 28.3047C273.422 28.1094 273.63 27.9596 273.875 27.8555C274.12 27.7487 274.396 27.6953 274.703 27.6953C275.003 27.6953 275.268 27.7448 275.5 27.8438C275.732 27.9427 275.926 28.0833 276.082 28.2656C276.241 28.4479 276.361 28.6667 276.441 28.9219C276.522 29.1745 276.562 29.4557 276.562 29.7656V30.2344H273.203V29.4844H275.457V29.3984C275.457 29.2422 275.428 29.1029 275.371 28.9805C275.316 28.8555 275.233 28.7565 275.121 28.6836C275.009 28.6107 274.866 28.5742 274.691 28.5742C274.543 28.5742 274.415 28.6068 274.309 28.6719C274.202 28.737 274.115 28.8281 274.047 28.9453C273.982 29.0625 273.932 29.2005 273.898 29.3594C273.867 29.5156 273.852 29.6875 273.852 29.875V30.0312C273.852 30.2005 273.875 30.3568 273.922 30.5C273.971 30.6432 274.04 30.7669 274.129 30.8711C274.22 30.9753 274.329 31.056 274.457 31.1133C274.587 31.1706 274.734 31.1992 274.898 31.1992C275.102 31.1992 275.29 31.1602 275.465 31.082C275.642 31.0013 275.794 30.8802 275.922 30.7188L276.469 31.3125C276.38 31.4401 276.259 31.5625 276.105 31.6797C275.954 31.7969 275.772 31.8932 275.559 31.9688C275.345 32.0417 275.102 32.0781 274.828 32.0781Z" fill="#11EE11"/>
<path d="M140.386 106.211L141.079 106.196C141.06 106.427 141.007 106.654 140.923 106.875C140.838 107.096 140.724 107.297 140.581 107.476C140.438 107.651 140.265 107.791 140.063 107.896C139.862 107.996 139.632 108.045 139.375 108.042C139.102 108.035 138.856 107.967 138.638 107.837C138.42 107.703 138.216 107.544 138.027 107.358C137.91 107.241 137.785 107.132 137.651 107.031C137.521 106.927 137.368 106.873 137.192 106.87C137 106.867 136.841 106.912 136.714 107.007C136.587 107.101 136.488 107.225 136.416 107.378C136.348 107.531 136.3 107.69 136.274 107.856L135.513 107.871C135.535 107.64 135.589 107.417 135.674 107.202C135.762 106.984 135.877 106.789 136.021 106.616C136.167 106.444 136.341 106.309 136.543 106.211C136.745 106.113 136.974 106.066 137.231 106.069C137.505 106.076 137.751 106.146 137.969 106.279C138.187 106.413 138.389 106.572 138.574 106.758C138.691 106.875 138.817 106.986 138.95 107.09C139.084 107.194 139.238 107.248 139.414 107.251C139.613 107.251 139.777 107.201 139.907 107.1C140.041 106.999 140.146 106.868 140.225 106.709C140.303 106.546 140.356 106.38 140.386 106.211ZM149.57 105.947L149.434 106.714H145.693L145.83 105.947H149.57ZM146.509 102.891L145.273 110H144.351L145.586 102.891H146.509ZM150.894 102.891L149.658 110H148.745L149.976 102.891H150.894ZM154.917 102.891L153.687 110H152.778L154.014 102.891H154.917ZM157.134 102.891L156.997 103.662H151.665L151.802 102.891H157.134ZM160.786 102.891L159.556 110H158.647L159.883 102.891H160.786ZM163.003 102.891L162.866 103.662H157.534L157.671 102.891H163.003ZM165.879 107.217L163.975 107.212L164.111 106.445L165.903 106.45C166.209 106.45 166.489 106.398 166.743 106.294C167 106.19 167.212 106.034 167.378 105.825C167.547 105.617 167.651 105.352 167.69 105.029C167.726 104.753 167.699 104.515 167.607 104.316C167.52 104.115 167.38 103.958 167.188 103.848C166.995 103.737 166.763 103.677 166.489 103.667L164.81 103.662L163.711 110H162.788L164.023 102.891L166.514 102.896C166.937 102.905 167.313 102.995 167.642 103.164C167.974 103.33 168.228 103.569 168.403 103.882C168.579 104.194 168.647 104.574 168.608 105.02C168.566 105.521 168.416 105.934 168.159 106.26C167.905 106.585 167.578 106.826 167.178 106.982C166.781 107.139 166.348 107.217 165.879 107.217ZM172.9 108.169C172.93 107.954 172.909 107.775 172.837 107.632C172.765 107.485 172.661 107.363 172.524 107.266C172.388 107.165 172.235 107.082 172.065 107.017C171.896 106.948 171.727 106.885 171.558 106.826C171.313 106.742 171.073 106.642 170.835 106.528C170.601 106.414 170.389 106.278 170.2 106.118C170.011 105.955 169.863 105.763 169.756 105.542C169.652 105.321 169.611 105.062 169.634 104.766C169.66 104.437 169.753 104.149 169.912 103.901C170.072 103.651 170.275 103.442 170.522 103.276C170.77 103.11 171.042 102.987 171.338 102.905C171.634 102.824 171.934 102.786 172.236 102.793C172.656 102.803 173.032 102.897 173.364 103.076C173.696 103.252 173.955 103.499 174.141 103.818C174.326 104.137 174.408 104.513 174.385 104.946L173.467 104.941C173.49 104.658 173.454 104.416 173.359 104.214C173.265 104.009 173.118 103.851 172.92 103.74C172.725 103.63 172.484 103.571 172.197 103.564C171.937 103.558 171.688 103.597 171.45 103.682C171.216 103.766 171.017 103.898 170.854 104.077C170.692 104.253 170.592 104.479 170.557 104.756C170.531 104.948 170.557 105.112 170.635 105.249C170.713 105.386 170.82 105.501 170.957 105.596C171.097 105.69 171.248 105.77 171.411 105.835C171.577 105.9 171.735 105.957 171.885 106.006C172.145 106.094 172.396 106.198 172.637 106.318C172.881 106.436 173.096 106.579 173.281 106.748C173.47 106.914 173.613 107.113 173.711 107.344C173.812 107.575 173.849 107.847 173.823 108.159C173.794 108.498 173.698 108.791 173.535 109.038C173.372 109.285 173.164 109.489 172.91 109.648C172.656 109.805 172.378 109.92 172.075 109.995C171.772 110.07 171.468 110.104 171.162 110.098C170.843 110.094 170.54 110.044 170.254 109.946C169.971 109.845 169.72 109.702 169.502 109.517C169.284 109.331 169.116 109.106 168.999 108.843C168.882 108.576 168.831 108.273 168.848 107.935L169.761 107.939C169.744 108.167 169.769 108.368 169.834 108.54C169.899 108.713 169.997 108.857 170.127 108.975C170.26 109.089 170.418 109.176 170.601 109.238C170.783 109.297 170.983 109.328 171.201 109.331C171.458 109.338 171.709 109.302 171.953 109.224C172.201 109.146 172.41 109.02 172.583 108.848C172.756 108.675 172.861 108.449 172.9 108.169ZM181.66 109.233L181.523 110H177.866L177.998 109.233H181.66ZM179.292 102.891L178.057 110H177.134L178.369 102.891H179.292ZM181.743 105.947L181.611 106.714H178.433L178.569 105.947H181.743ZM182.71 102.891L182.573 103.662H178.965L179.102 102.891H182.71ZM184.136 109.141L186.216 104.717H187.148L184.478 110H183.857L184.136 109.141ZM183.647 104.717L184.399 109.253L184.375 110H183.809L182.773 104.717H183.647ZM189.258 110.098C188.896 110.091 188.582 110.02 188.315 109.883C188.052 109.743 187.835 109.556 187.666 109.321C187.5 109.084 187.381 108.813 187.31 108.511C187.238 108.208 187.217 107.891 187.246 107.559L187.266 107.349C187.298 107.01 187.381 106.678 187.515 106.353C187.648 106.024 187.826 105.728 188.047 105.464C188.271 105.2 188.535 104.992 188.838 104.839C189.144 104.683 189.482 104.609 189.854 104.619C190.221 104.626 190.527 104.704 190.771 104.854C191.016 105.003 191.206 105.202 191.343 105.449C191.483 105.693 191.574 105.968 191.616 106.274C191.659 106.577 191.662 106.888 191.626 107.207L191.572 107.612H187.739L187.856 106.875L190.781 106.88L190.796 106.802C190.828 106.567 190.815 106.341 190.757 106.123C190.698 105.905 190.591 105.726 190.435 105.586C190.282 105.443 190.075 105.368 189.814 105.361C189.544 105.352 189.31 105.407 189.111 105.527C188.913 105.645 188.747 105.804 188.613 106.006C188.48 106.204 188.374 106.423 188.296 106.66C188.221 106.895 188.169 107.124 188.14 107.349L188.12 107.554C188.101 107.762 188.107 107.972 188.14 108.184C188.172 108.395 188.234 108.589 188.325 108.765C188.42 108.937 188.55 109.079 188.716 109.189C188.882 109.297 189.087 109.354 189.331 109.36C189.627 109.367 189.893 109.303 190.127 109.17C190.365 109.033 190.581 108.861 190.776 108.652L191.279 109.082C191.126 109.307 190.944 109.495 190.732 109.648C190.521 109.801 190.29 109.915 190.039 109.99C189.788 110.065 189.528 110.101 189.258 110.098ZM193.818 105.586L193.052 110H192.168L193.086 104.717H193.945L193.818 105.586ZM195.532 104.673L195.449 105.522C195.381 105.509 195.311 105.498 195.239 105.488C195.171 105.479 195.103 105.474 195.034 105.474C194.823 105.47 194.632 105.503 194.463 105.571C194.297 105.636 194.149 105.729 194.019 105.85C193.892 105.97 193.783 106.112 193.691 106.274C193.604 106.437 193.534 106.613 193.481 106.802L193.203 106.948C193.239 106.685 193.298 106.414 193.379 106.138C193.464 105.861 193.579 105.605 193.726 105.371C193.875 105.137 194.062 104.948 194.287 104.805C194.515 104.661 194.788 104.595 195.107 104.604C195.179 104.604 195.249 104.611 195.317 104.624C195.389 104.637 195.461 104.653 195.532 104.673ZM197.09 109.399L199.316 104.717H200.293L197.192 110.82C197.111 110.993 197.015 111.159 196.904 111.318C196.797 111.478 196.673 111.621 196.533 111.748C196.396 111.875 196.242 111.974 196.069 112.046C195.897 112.118 195.706 112.153 195.498 112.153C195.41 112.15 195.322 112.14 195.234 112.124C195.143 112.108 195.055 112.09 194.971 112.07L195.024 111.328C195.063 111.335 195.103 111.34 195.142 111.343C195.181 111.349 195.218 111.354 195.254 111.357C195.472 111.364 195.659 111.333 195.815 111.265C195.975 111.196 196.112 111.095 196.226 110.962C196.343 110.828 196.447 110.669 196.538 110.483L197.09 109.399ZM196.846 104.717L197.476 108.867L197.534 109.8L196.875 110.122L195.918 104.717H196.846ZM201.602 109.019L203.652 104.717H204.263L203.979 105.63L201.899 110H201.304L201.602 109.019ZM201.46 104.717L201.826 109.165L201.753 110H201.177L200.605 104.717H201.46ZM204.761 109.028L206.562 104.717H207.471L205.068 110H204.448L204.761 109.028ZM204.365 104.717L204.922 109.043L204.893 110H204.351L203.735 105.518L203.77 104.717H204.365ZM209.619 102.5L208.315 110H207.432L208.735 102.5H209.619ZM208.618 107.158L208.257 107.148C208.302 106.833 208.385 106.523 208.506 106.221C208.63 105.915 208.791 105.64 208.989 105.396C209.191 105.151 209.43 104.959 209.707 104.819C209.987 104.676 210.306 104.609 210.664 104.619C210.947 104.626 211.183 104.681 211.372 104.785C211.564 104.886 211.714 105.024 211.821 105.2C211.929 105.376 212 105.579 212.036 105.811C212.072 106.038 212.075 106.281 212.046 106.538L211.47 110H210.581L211.167 106.523C211.19 106.312 211.182 106.121 211.143 105.952C211.107 105.78 211.025 105.643 210.898 105.542C210.775 105.438 210.596 105.382 210.361 105.376C210.114 105.369 209.891 105.417 209.692 105.518C209.494 105.618 209.32 105.757 209.17 105.933C209.023 106.105 208.903 106.299 208.809 106.514C208.717 106.725 208.654 106.94 208.618 107.158ZM215.01 110.098C214.648 110.091 214.334 110.02 214.067 109.883C213.804 109.743 213.587 109.556 213.418 109.321C213.252 109.084 213.133 108.813 213.062 108.511C212.99 108.208 212.969 107.891 212.998 107.559L213.018 107.349C213.05 107.01 213.133 106.678 213.267 106.353C213.4 106.024 213.577 105.728 213.799 105.464C214.023 105.2 214.287 104.992 214.59 104.839C214.896 104.683 215.234 104.609 215.605 104.619C215.973 104.626 216.279 104.704 216.523 104.854C216.768 105.003 216.958 105.202 217.095 105.449C217.235 105.693 217.326 105.968 217.368 106.274C217.41 106.577 217.414 106.888 217.378 107.207L217.324 107.612H213.491L213.608 106.875L216.533 106.88L216.548 106.802C216.58 106.567 216.567 106.341 216.509 106.123C216.45 105.905 216.343 105.726 216.187 105.586C216.034 105.443 215.827 105.368 215.566 105.361C215.296 105.352 215.062 105.407 214.863 105.527C214.665 105.645 214.499 105.804 214.365 106.006C214.232 106.204 214.126 106.423 214.048 106.66C213.973 106.895 213.921 107.124 213.892 107.349L213.872 107.554C213.853 107.762 213.859 107.972 213.892 108.184C213.924 108.395 213.986 108.589 214.077 108.765C214.172 108.937 214.302 109.079 214.468 109.189C214.634 109.297 214.839 109.354 215.083 109.36C215.379 109.367 215.645 109.303 215.879 109.17C216.117 109.033 216.333 108.861 216.528 108.652L217.031 109.082C216.878 109.307 216.696 109.495 216.484 109.648C216.273 109.801 216.042 109.915 215.791 109.99C215.54 110.065 215.28 110.101 215.01 110.098ZM219.57 105.586L218.804 110H217.92L218.838 104.717H219.697L219.57 105.586ZM221.284 104.673L221.201 105.522C221.133 105.509 221.063 105.498 220.991 105.488C220.923 105.479 220.854 105.474 220.786 105.474C220.575 105.47 220.384 105.503 220.215 105.571C220.049 105.636 219.901 105.729 219.771 105.85C219.644 105.97 219.535 106.112 219.443 106.274C219.355 106.437 219.285 106.613 219.233 106.802L218.955 106.948C218.991 106.685 219.049 106.414 219.131 106.138C219.215 105.861 219.331 105.605 219.478 105.371C219.627 105.137 219.814 104.948 220.039 104.805C220.267 104.661 220.54 104.595 220.859 104.604C220.931 104.604 221.001 104.611 221.069 104.624C221.141 104.637 221.213 104.653 221.284 104.673ZM223.35 110.098C222.988 110.091 222.674 110.02 222.407 109.883C222.144 109.743 221.927 109.556 221.758 109.321C221.592 109.084 221.473 108.813 221.401 108.511C221.33 108.208 221.309 107.891 221.338 107.559L221.357 107.349C221.39 107.01 221.473 106.678 221.606 106.353C221.74 106.024 221.917 105.728 222.139 105.464C222.363 105.2 222.627 104.992 222.93 104.839C223.236 104.683 223.574 104.609 223.945 104.619C224.313 104.626 224.619 104.704 224.863 104.854C225.107 105.003 225.298 105.202 225.435 105.449C225.575 105.693 225.666 105.968 225.708 106.274C225.75 106.577 225.754 106.888 225.718 107.207L225.664 107.612H221.831L221.948 106.875L224.873 106.88L224.888 106.802C224.92 106.567 224.907 106.341 224.849 106.123C224.79 105.905 224.683 105.726 224.526 105.586C224.373 105.443 224.167 105.368 223.906 105.361C223.636 105.352 223.402 105.407 223.203 105.527C223.005 105.645 222.839 105.804 222.705 106.006C222.572 106.204 222.466 106.423 222.388 106.66C222.313 106.895 222.261 107.124 222.231 107.349L222.212 107.554C222.192 107.762 222.199 107.972 222.231 108.184C222.264 108.395 222.326 108.589 222.417 108.765C222.511 108.937 222.642 109.079 222.808 109.189C222.974 109.297 223.179 109.354 223.423 109.36C223.719 109.367 223.984 109.303 224.219 109.17C224.456 109.033 224.673 108.861 224.868 108.652L225.371 109.082C225.218 109.307 225.036 109.495 224.824 109.648C224.613 109.801 224.382 109.915 224.131 109.99C223.88 110.065 223.62 110.101 223.35 110.098ZM233.95 106.211L234.644 106.196C234.624 106.427 234.572 106.654 234.487 106.875C234.403 107.096 234.289 107.297 234.146 107.476C234.002 107.651 233.83 107.791 233.628 107.896C233.426 107.996 233.197 108.045 232.939 108.042C232.666 108.035 232.42 107.967 232.202 107.837C231.984 107.703 231.781 107.544 231.592 107.358C231.475 107.241 231.349 107.132 231.216 107.031C231.086 106.927 230.933 106.873 230.757 106.87C230.565 106.867 230.405 106.912 230.278 107.007C230.151 107.101 230.052 107.225 229.98 107.378C229.912 107.531 229.865 107.69 229.839 107.856L229.077 107.871C229.1 107.64 229.154 107.417 229.238 107.202C229.326 106.984 229.442 106.789 229.585 106.616C229.731 106.444 229.906 106.309 230.107 106.211C230.309 106.113 230.539 106.066 230.796 106.069C231.069 106.076 231.315 106.146 231.533 106.279C231.751 106.413 231.953 106.572 232.139 106.758C232.256 106.875 232.381 106.986 232.515 107.09C232.648 107.194 232.803 107.248 232.979 107.251C233.177 107.251 233.341 107.201 233.472 107.1C233.605 106.999 233.711 106.868 233.789 106.709C233.867 106.546 233.921 106.38 233.95 106.211Z" fill="#05A2FA"/>
</svg>
