<svg width="440" height="80" viewBox="0 0 440 80" fill="none" xmlns="http://www.w3.org/2000/svg">
<rect x="30.5" y="22.5" width="379" height="36" rx="3.5" fill="white" stroke="#AAAAAA"/>
<path d="M68.7061 35.25V48H67.1704V35.25H68.7061ZM68.3408 43.1689L67.7017 43.144C67.7072 42.5298 67.7985 41.9626 67.9756 41.4424C68.1527 40.9167 68.4017 40.4601 68.7227 40.0728C69.0436 39.6854 69.4255 39.3866 69.8682 39.1763C70.3164 38.9604 70.8117 38.8525 71.354 38.8525C71.7967 38.8525 72.1951 38.9134 72.5493 39.0352C72.9035 39.1514 73.2051 39.3395 73.4541 39.5996C73.7087 39.8597 73.9023 40.1973 74.0352 40.6123C74.168 41.0218 74.2344 41.5226 74.2344 42.1147V48H72.6904V42.0981C72.6904 41.6278 72.6213 41.2515 72.4829 40.9692C72.3446 40.6815 72.1426 40.474 71.877 40.3467C71.6113 40.2139 71.2848 40.1475 70.8975 40.1475C70.5156 40.1475 70.167 40.2277 69.8516 40.3882C69.5417 40.5487 69.2733 40.77 69.0464 41.0522C68.825 41.3345 68.6507 41.6582 68.5234 42.0234C68.4017 42.3831 68.3408 42.765 68.3408 43.1689ZM80.2939 39.0186V40.1973H75.438V39.0186H80.2939ZM77.0815 36.8354H78.6172V45.7754C78.6172 46.0798 78.6642 46.3094 78.7583 46.4644C78.8524 46.6193 78.9741 46.7217 79.1235 46.7715C79.2729 46.8213 79.4334 46.8462 79.605 46.8462C79.7323 46.8462 79.8651 46.8351 80.0034 46.813C80.1473 46.7853 80.2552 46.7632 80.3271 46.7466L80.3354 48C80.2137 48.0387 80.0532 48.0747 79.854 48.1079C79.6603 48.1466 79.4251 48.166 79.1484 48.166C78.7721 48.166 78.4263 48.0913 78.1108 47.9419C77.7954 47.7925 77.5436 47.5435 77.3555 47.1948C77.1729 46.8407 77.0815 46.3647 77.0815 45.7671V36.8354ZM85.8555 39.0186V40.1973H80.9995V39.0186H85.8555ZM82.6431 36.8354H84.1787V45.7754C84.1787 46.0798 84.2257 46.3094 84.3198 46.4644C84.4139 46.6193 84.5356 46.7217 84.6851 46.7715C84.8345 46.8213 84.995 46.8462 85.1665 46.8462C85.2938 46.8462 85.4266 46.8351 85.5649 46.813C85.7088 46.7853 85.8167 46.7632 85.8887 46.7466L85.897 48C85.7752 48.0387 85.6147 48.0747 85.4155 48.1079C85.2218 48.1466 84.9867 48.166 84.71 48.166C84.3337 48.166 83.9878 48.0913 83.6724 47.9419C83.3569 47.7925 83.1051 47.5435 82.917 47.1948C82.7344 46.8407 82.6431 46.3647 82.6431 45.7671V36.8354ZM89.1924 40.7451V51.4531H87.6484V39.0186H89.0596L89.1924 40.7451ZM95.2437 43.4346V43.6089C95.2437 44.2619 95.1662 44.8678 95.0112 45.4268C94.8563 45.9801 94.6294 46.4616 94.3306 46.8711C94.0373 47.2806 93.6748 47.5988 93.2432 47.8257C92.8115 48.0526 92.3162 48.166 91.7573 48.166C91.1873 48.166 90.6838 48.0719 90.2466 47.8838C89.8094 47.6956 89.4386 47.4217 89.1343 47.062C88.8299 46.7023 88.5864 46.2707 88.4038 45.7671C88.2267 45.2635 88.105 44.6963 88.0386 44.0654V43.1357C88.105 42.4717 88.2295 41.8768 88.4121 41.3511C88.5947 40.8254 88.8354 40.3771 89.1343 40.0063C89.4386 39.63 89.8066 39.3451 90.2383 39.1514C90.6699 38.9521 91.168 38.8525 91.7324 38.8525C92.2969 38.8525 92.7977 38.9632 93.2349 39.1846C93.672 39.4004 94.04 39.7103 94.3389 40.1143C94.6377 40.5182 94.8618 41.0024 95.0112 41.5669C95.1662 42.1258 95.2437 42.7484 95.2437 43.4346ZM93.6997 43.6089V43.4346C93.6997 42.9863 93.6527 42.5658 93.5586 42.1729C93.4645 41.7744 93.3179 41.4258 93.1187 41.127C92.925 40.8226 92.6759 40.5846 92.3716 40.4131C92.0672 40.236 91.7048 40.1475 91.2842 40.1475C90.8968 40.1475 90.5592 40.2139 90.2715 40.3467C89.9893 40.4795 89.7485 40.6593 89.5493 40.8862C89.3501 41.1076 89.1868 41.3621 89.0596 41.6499C88.9378 41.9321 88.8465 42.2254 88.7856 42.5298V44.6797C88.8963 45.0671 89.0513 45.4323 89.2505 45.7754C89.4497 46.113 89.7153 46.3869 90.0474 46.5972C90.3794 46.8019 90.7972 46.9043 91.3008 46.9043C91.7158 46.9043 92.0728 46.8185 92.3716 46.647C92.6759 46.4699 92.925 46.2292 93.1187 45.9248C93.3179 45.6204 93.4645 45.2718 93.5586 44.8789C93.6527 44.4805 93.6997 44.0571 93.6997 43.6089ZM102.432 45.6177C102.432 45.3963 102.382 45.1916 102.283 45.0034C102.189 44.8097 101.992 44.6354 101.693 44.4805C101.4 44.32 100.957 44.1816 100.365 44.0654C99.8672 43.9603 99.4162 43.8358 99.0122 43.6919C98.6138 43.548 98.2734 43.3737 97.9912 43.1689C97.7145 42.9642 97.5015 42.7235 97.3521 42.4468C97.2026 42.1701 97.1279 41.8464 97.1279 41.4756C97.1279 41.1214 97.2054 40.7866 97.3604 40.4712C97.5208 40.1558 97.745 39.8763 98.0327 39.6328C98.326 39.3893 98.6774 39.1984 99.0869 39.0601C99.4964 38.9217 99.953 38.8525 100.457 38.8525C101.176 38.8525 101.79 38.9798 102.299 39.2344C102.808 39.4889 103.199 39.8293 103.47 40.2554C103.741 40.6759 103.876 41.1436 103.876 41.6582H102.341C102.341 41.4092 102.266 41.1685 102.117 40.936C101.973 40.6981 101.76 40.5016 101.478 40.3467C101.201 40.1917 100.861 40.1143 100.457 40.1143C100.03 40.1143 99.6846 40.1807 99.4189 40.3135C99.1589 40.4408 98.9679 40.604 98.8462 40.8032C98.73 41.0024 98.6719 41.2127 98.6719 41.4341C98.6719 41.6001 98.6995 41.7495 98.7549 41.8823C98.8158 42.0096 98.9209 42.1286 99.0703 42.2393C99.2197 42.3444 99.43 42.444 99.7012 42.5381C99.9723 42.6322 100.318 42.7262 100.739 42.8203C101.475 42.9863 102.081 43.1855 102.557 43.418C103.033 43.6504 103.387 43.9354 103.619 44.2729C103.852 44.6105 103.968 45.02 103.968 45.5015C103.968 45.8944 103.885 46.2541 103.719 46.5806C103.558 46.9071 103.323 47.1893 103.013 47.4272C102.709 47.6597 102.344 47.8423 101.917 47.9751C101.497 48.1024 101.024 48.166 100.498 48.166C99.7067 48.166 99.0371 48.0249 98.4893 47.7427C97.9414 47.4604 97.5264 47.0952 97.2441 46.647C96.9619 46.1987 96.8208 45.7256 96.8208 45.2275H98.3647C98.3869 45.6481 98.5086 45.9829 98.73 46.2319C98.9513 46.4754 99.2225 46.6497 99.5435 46.7549C99.8644 46.8545 100.183 46.9043 100.498 46.9043C100.919 46.9043 101.27 46.849 101.552 46.7383C101.84 46.6276 102.059 46.4754 102.208 46.2817C102.357 46.0881 102.432 45.8667 102.432 45.6177Z" fill="#11EE11"/>
<path d="M105.918 47.1865C105.918 46.9264 105.999 46.7078 106.159 46.5308C106.325 46.3481 106.563 46.2568 106.873 46.2568C107.183 46.2568 107.418 46.3481 107.579 46.5308C107.745 46.7078 107.828 46.9264 107.828 47.1865C107.828 47.4411 107.745 47.6569 107.579 47.834C107.418 48.0111 107.183 48.0996 106.873 48.0996C106.563 48.0996 106.325 48.0111 106.159 47.834C105.999 47.6569 105.918 47.4411 105.918 47.1865ZM105.927 39.8569C105.927 39.5968 106.007 39.3783 106.167 39.2012C106.333 39.0186 106.571 38.9272 106.881 38.9272C107.191 38.9272 107.426 39.0186 107.587 39.2012C107.753 39.3783 107.836 39.5968 107.836 39.8569C107.836 40.1115 107.753 40.3273 107.587 40.5044C107.426 40.6815 107.191 40.77 106.881 40.77C106.571 40.77 106.333 40.6815 106.167 40.5044C106.007 40.3273 105.927 40.1115 105.927 39.8569ZM115.448 35.9141L110.409 49.0376H109.089L114.136 35.9141H115.448ZM120.611 35.9141L115.572 49.0376H114.252L119.299 35.9141H120.611ZM126.015 48.166C125.389 48.166 124.822 48.0609 124.313 47.8506C123.809 47.6348 123.375 47.3332 123.01 46.9458C122.65 46.5584 122.373 46.0991 122.18 45.5679C121.986 45.0366 121.889 44.4556 121.889 43.8247V43.4761C121.889 42.7456 121.997 42.0954 122.213 41.5254C122.429 40.9499 122.722 40.4629 123.093 40.0645C123.464 39.666 123.884 39.3644 124.354 39.1597C124.825 38.9549 125.312 38.8525 125.815 38.8525C126.457 38.8525 127.011 38.9632 127.476 39.1846C127.946 39.4059 128.331 39.7158 128.629 40.1143C128.928 40.5072 129.15 40.972 129.293 41.5088C129.437 42.04 129.509 42.6211 129.509 43.252V43.9409H122.802V42.6875H127.974V42.5713C127.951 42.1729 127.868 41.7855 127.725 41.4092C127.586 41.0329 127.365 40.723 127.061 40.4795C126.756 40.236 126.341 40.1143 125.815 40.1143C125.467 40.1143 125.146 40.189 124.853 40.3384C124.559 40.4823 124.307 40.6981 124.097 40.9858C123.887 41.2736 123.724 41.625 123.607 42.04C123.491 42.4551 123.433 42.9338 123.433 43.4761V43.8247C123.433 44.2508 123.491 44.652 123.607 45.0283C123.729 45.3991 123.903 45.7256 124.13 46.0078C124.363 46.29 124.642 46.5114 124.969 46.6719C125.301 46.8324 125.677 46.9126 126.098 46.9126C126.64 46.9126 127.099 46.8019 127.476 46.5806C127.852 46.3592 128.181 46.0632 128.463 45.6924L129.393 46.4312C129.199 46.7244 128.953 47.0039 128.654 47.2695C128.355 47.5352 127.987 47.751 127.55 47.917C127.119 48.083 126.607 48.166 126.015 48.166ZM132.34 39.0186L134.307 42.2891L136.299 39.0186H138.101L135.162 43.4512L138.192 48H136.416L134.34 44.6299L132.265 48H130.48L133.502 43.4512L130.572 39.0186H132.34ZM145.032 46.4644V41.8408C145.032 41.4867 144.96 41.1795 144.816 40.9194C144.678 40.6538 144.467 40.4491 144.185 40.3052C143.903 40.1613 143.554 40.0894 143.139 40.0894C142.752 40.0894 142.411 40.1558 142.118 40.2886C141.83 40.4214 141.604 40.5957 141.438 40.8115C141.277 41.0273 141.197 41.2598 141.197 41.5088H139.661C139.661 41.1878 139.744 40.8696 139.91 40.5542C140.076 40.2388 140.314 39.9538 140.624 39.6992C140.939 39.4391 141.316 39.2344 141.753 39.085C142.196 38.93 142.688 38.8525 143.23 38.8525C143.883 38.8525 144.459 38.9632 144.957 39.1846C145.461 39.4059 145.854 39.7407 146.136 40.189C146.424 40.6317 146.567 41.1878 146.567 41.8574V46.041C146.567 46.3398 146.592 46.658 146.642 46.9956C146.697 47.3332 146.778 47.6237 146.883 47.8672V48H145.281C145.203 47.8229 145.142 47.5877 145.098 47.2944C145.054 46.9956 145.032 46.7189 145.032 46.4644ZM145.297 42.5547L145.314 43.6338H143.762C143.325 43.6338 142.934 43.6698 142.591 43.7417C142.248 43.8081 141.96 43.9105 141.728 44.0488C141.496 44.1872 141.319 44.3615 141.197 44.5718C141.075 44.7765 141.014 45.0173 141.014 45.2939C141.014 45.5762 141.078 45.8335 141.205 46.0659C141.332 46.2983 141.523 46.4837 141.778 46.6221C142.038 46.7549 142.356 46.8213 142.732 46.8213C143.203 46.8213 143.618 46.7217 143.978 46.5225C144.337 46.3232 144.622 46.0798 144.833 45.792C145.048 45.5042 145.165 45.2248 145.181 44.9536L145.837 45.6924C145.798 45.9248 145.693 46.1821 145.521 46.4644C145.35 46.7466 145.12 47.0177 144.833 47.2778C144.55 47.5324 144.213 47.7454 143.82 47.917C143.432 48.083 142.995 48.166 142.508 48.166C141.9 48.166 141.366 48.047 140.906 47.8091C140.452 47.5711 140.098 47.2529 139.844 46.8545C139.595 46.4505 139.47 45.9995 139.47 45.5015C139.47 45.02 139.564 44.5967 139.752 44.2314C139.941 43.8607 140.212 43.5535 140.566 43.3101C140.92 43.061 141.346 42.8729 141.844 42.7456C142.342 42.6183 142.898 42.5547 143.513 42.5547H145.297ZM150.51 40.8032V48H148.966V39.0186H150.427L150.51 40.8032ZM150.195 43.1689L149.481 43.144C149.486 42.5298 149.567 41.9626 149.722 41.4424C149.877 40.9167 150.106 40.4601 150.411 40.0728C150.715 39.6854 151.094 39.3866 151.548 39.1763C152.002 38.9604 152.527 38.8525 153.125 38.8525C153.546 38.8525 153.933 38.9134 154.287 39.0352C154.641 39.1514 154.948 39.3368 155.208 39.5913C155.469 39.8459 155.671 40.1724 155.814 40.5708C155.958 40.9692 156.03 41.4507 156.03 42.0151V48H154.495V42.0898C154.495 41.6195 154.414 41.2432 154.254 40.9609C154.099 40.6787 153.878 40.474 153.59 40.3467C153.302 40.2139 152.965 40.1475 152.577 40.1475C152.123 40.1475 151.744 40.2277 151.44 40.3882C151.136 40.5487 150.892 40.77 150.709 41.0522C150.527 41.3345 150.394 41.6582 150.311 42.0234C150.234 42.3831 150.195 42.765 150.195 43.1689ZM156.014 42.3223L154.984 42.6377C154.99 42.1452 155.07 41.672 155.225 41.2183C155.386 40.7645 155.615 40.3605 155.914 40.0063C156.218 39.6522 156.592 39.3727 157.035 39.168C157.477 38.9577 157.984 38.8525 158.554 38.8525C159.035 38.8525 159.461 38.9162 159.832 39.0435C160.208 39.1707 160.524 39.3672 160.778 39.6328C161.038 39.8929 161.235 40.2277 161.368 40.6372C161.5 41.0467 161.567 41.5337 161.567 42.0981V48H160.023V42.0815C160.023 41.578 159.943 41.1878 159.782 40.9111C159.627 40.6289 159.406 40.4325 159.118 40.3218C158.836 40.2056 158.498 40.1475 158.105 40.1475C157.768 40.1475 157.469 40.2056 157.209 40.3218C156.949 40.438 156.73 40.5985 156.553 40.8032C156.376 41.0024 156.241 41.2321 156.146 41.4922C156.058 41.7523 156.014 42.029 156.014 42.3223ZM165.427 40.7451V51.4531H163.883V39.0186H165.294L165.427 40.7451ZM171.478 43.4346V43.6089C171.478 44.2619 171.401 44.8678 171.246 45.4268C171.091 45.9801 170.864 46.4616 170.565 46.8711C170.272 47.2806 169.909 47.5988 169.478 47.8257C169.046 48.0526 168.551 48.166 167.992 48.166C167.422 48.166 166.918 48.0719 166.481 47.8838C166.044 47.6956 165.673 47.4217 165.369 47.062C165.064 46.7023 164.821 46.2707 164.638 45.7671C164.461 45.2635 164.339 44.6963 164.273 44.0654V43.1357C164.339 42.4717 164.464 41.8768 164.646 41.3511C164.829 40.8254 165.07 40.3771 165.369 40.0063C165.673 39.63 166.041 39.3451 166.473 39.1514C166.904 38.9521 167.402 38.8525 167.967 38.8525C168.531 38.8525 169.032 38.9632 169.469 39.1846C169.906 39.4004 170.274 39.7103 170.573 40.1143C170.872 40.5182 171.096 41.0024 171.246 41.5669C171.401 42.1258 171.478 42.7484 171.478 43.4346ZM169.934 43.6089V43.4346C169.934 42.9863 169.887 42.5658 169.793 42.1729C169.699 41.7744 169.552 41.4258 169.353 41.127C169.159 40.8226 168.91 40.5846 168.606 40.4131C168.302 40.236 167.939 40.1475 167.519 40.1475C167.131 40.1475 166.794 40.2139 166.506 40.3467C166.224 40.4795 165.983 40.6593 165.784 40.8862C165.584 41.1076 165.421 41.3621 165.294 41.6499C165.172 41.9321 165.081 42.2254 165.02 42.5298V44.6797C165.131 45.0671 165.286 45.4323 165.485 45.7754C165.684 46.113 165.95 46.3869 166.282 46.5972C166.614 46.8019 167.032 46.9043 167.535 46.9043C167.95 46.9043 168.307 46.8185 168.606 46.647C168.91 46.4699 169.159 46.2292 169.353 45.9248C169.552 45.6204 169.699 45.2718 169.793 44.8789C169.887 44.4805 169.934 44.0571 169.934 43.6089ZM175.105 35.25V48H173.562V35.25H175.105ZM181.298 48.166C180.673 48.166 180.105 48.0609 179.596 47.8506C179.093 47.6348 178.658 47.3332 178.293 46.9458C177.933 46.5584 177.657 46.0991 177.463 45.5679C177.269 45.0366 177.172 44.4556 177.172 43.8247V43.4761C177.172 42.7456 177.28 42.0954 177.496 41.5254C177.712 40.9499 178.005 40.4629 178.376 40.0645C178.747 39.666 179.167 39.3644 179.638 39.1597C180.108 38.9549 180.595 38.8525 181.099 38.8525C181.741 38.8525 182.294 38.9632 182.759 39.1846C183.229 39.4059 183.614 39.7158 183.913 40.1143C184.211 40.5072 184.433 40.972 184.577 41.5088C184.721 42.04 184.792 42.6211 184.792 43.252V43.9409H178.085V42.6875H183.257V42.5713C183.235 42.1729 183.152 41.7855 183.008 41.4092C182.869 41.0329 182.648 40.723 182.344 40.4795C182.039 40.236 181.624 40.1143 181.099 40.1143C180.75 40.1143 180.429 40.189 180.136 40.3384C179.842 40.4823 179.591 40.6981 179.38 40.9858C179.17 41.2736 179.007 41.625 178.891 42.04C178.774 42.4551 178.716 42.9338 178.716 43.4761V43.8247C178.716 44.2508 178.774 44.652 178.891 45.0283C179.012 45.3991 179.187 45.7256 179.414 46.0078C179.646 46.29 179.925 46.5114 180.252 46.6719C180.584 46.8324 180.96 46.9126 181.381 46.9126C181.923 46.9126 182.382 46.8019 182.759 46.5806C183.135 46.3592 183.464 46.0632 183.747 45.6924L184.676 46.4312C184.483 46.7244 184.236 47.0039 183.938 47.2695C183.639 47.5352 183.271 47.751 182.833 47.917C182.402 48.083 181.89 48.166 181.298 48.166ZM186.61 47.1865C186.61 46.9264 186.691 46.7078 186.851 46.5308C187.017 46.3481 187.255 46.2568 187.565 46.2568C187.875 46.2568 188.11 46.3481 188.271 46.5308C188.437 46.7078 188.52 46.9264 188.52 47.1865C188.52 47.4411 188.437 47.6569 188.271 47.834C188.11 48.0111 187.875 48.0996 187.565 48.0996C187.255 48.0996 187.017 48.0111 186.851 47.834C186.691 47.6569 186.61 47.4411 186.61 47.1865ZM194.662 46.9043C195.027 46.9043 195.365 46.8296 195.675 46.6802C195.985 46.5308 196.239 46.326 196.438 46.0659C196.638 45.8003 196.751 45.4987 196.779 45.1611H198.24C198.212 45.6924 198.032 46.1877 197.7 46.647C197.374 47.1007 196.945 47.4688 196.414 47.751C195.882 48.0277 195.299 48.166 194.662 48.166C193.987 48.166 193.398 48.047 192.894 47.8091C192.396 47.5711 191.981 47.2446 191.649 46.8296C191.322 46.4146 191.076 45.9386 190.91 45.4019C190.75 44.8595 190.669 44.2868 190.669 43.6836V43.335C190.669 42.7318 190.75 42.1618 190.91 41.625C191.076 41.0827 191.322 40.604 191.649 40.189C191.981 39.7739 192.396 39.4474 192.894 39.2095C193.398 38.9715 193.987 38.8525 194.662 38.8525C195.365 38.8525 195.979 38.9964 196.505 39.2842C197.031 39.5664 197.443 39.9538 197.742 40.4463C198.046 40.9333 198.212 41.4867 198.24 42.1064H196.779C196.751 41.7357 196.646 41.4009 196.463 41.1021C196.286 40.8032 196.043 40.5653 195.733 40.3882C195.429 40.2056 195.072 40.1143 194.662 40.1143C194.192 40.1143 193.796 40.2083 193.475 40.3965C193.16 40.5791 192.908 40.8281 192.72 41.1436C192.537 41.4535 192.404 41.7993 192.321 42.1812C192.244 42.5575 192.205 42.9421 192.205 43.335V43.6836C192.205 44.0765 192.244 44.4639 192.321 44.8457C192.399 45.2275 192.529 45.5734 192.711 45.8833C192.9 46.1932 193.151 46.4422 193.467 46.6304C193.788 46.813 194.186 46.9043 194.662 46.9043ZM199.56 43.6089V43.418C199.56 42.7705 199.654 42.1701 199.842 41.6167C200.03 41.0578 200.301 40.5736 200.655 40.1641C201.009 39.749 201.438 39.4281 201.942 39.2012C202.445 38.9688 203.01 38.8525 203.635 38.8525C204.266 38.8525 204.833 38.9688 205.337 39.2012C205.846 39.4281 206.278 39.749 206.632 40.1641C206.992 40.5736 207.265 41.0578 207.454 41.6167C207.642 42.1701 207.736 42.7705 207.736 43.418V43.6089C207.736 44.2563 207.642 44.8568 207.454 45.4102C207.265 45.9635 206.992 46.4478 206.632 46.8628C206.278 47.2723 205.849 47.5933 205.345 47.8257C204.847 48.0526 204.283 48.166 203.652 48.166C203.021 48.166 202.454 48.0526 201.95 47.8257C201.447 47.5933 201.015 47.2723 200.655 46.8628C200.301 46.4478 200.03 45.9635 199.842 45.4102C199.654 44.8568 199.56 44.2563 199.56 43.6089ZM201.095 43.418V43.6089C201.095 44.0571 201.148 44.4805 201.253 44.8789C201.358 45.2718 201.516 45.6204 201.726 45.9248C201.942 46.2292 202.21 46.4699 202.531 46.647C202.852 46.8185 203.226 46.9043 203.652 46.9043C204.072 46.9043 204.44 46.8185 204.756 46.647C205.077 46.4699 205.342 46.2292 205.553 45.9248C205.763 45.6204 205.921 45.2718 206.026 44.8789C206.137 44.4805 206.192 44.0571 206.192 43.6089V43.418C206.192 42.9753 206.137 42.5575 206.026 42.1646C205.921 41.7661 205.76 41.4147 205.544 41.1104C205.334 40.8005 205.069 40.557 204.748 40.3799C204.432 40.2028 204.061 40.1143 203.635 40.1143C203.215 40.1143 202.844 40.2028 202.523 40.3799C202.208 40.557 201.942 40.8005 201.726 41.1104C201.516 41.4147 201.358 41.7661 201.253 42.1646C201.148 42.5575 201.095 42.9753 201.095 43.418ZM211.189 40.8032V48H209.645V39.0186H211.106L211.189 40.8032ZM210.874 43.1689L210.16 43.144C210.165 42.5298 210.245 41.9626 210.4 41.4424C210.555 40.9167 210.785 40.4601 211.089 40.0728C211.394 39.6854 211.773 39.3866 212.227 39.1763C212.68 38.9604 213.206 38.8525 213.804 38.8525C214.224 38.8525 214.612 38.9134 214.966 39.0352C215.32 39.1514 215.627 39.3368 215.887 39.5913C216.147 39.8459 216.349 40.1724 216.493 40.5708C216.637 40.9692 216.709 41.4507 216.709 42.0151V48H215.173V42.0898C215.173 41.6195 215.093 41.2432 214.933 40.9609C214.778 40.6787 214.556 40.474 214.269 40.3467C213.981 40.2139 213.643 40.1475 213.256 40.1475C212.802 40.1475 212.423 40.2277 212.119 40.3882C211.814 40.5487 211.571 40.77 211.388 41.0522C211.206 41.3345 211.073 41.6582 210.99 42.0234C210.912 42.3831 210.874 42.765 210.874 43.1689ZM216.692 42.3223L215.663 42.6377C215.669 42.1452 215.749 41.672 215.904 41.2183C216.064 40.7645 216.294 40.3605 216.593 40.0063C216.897 39.6522 217.271 39.3727 217.713 39.168C218.156 38.9577 218.662 38.8525 219.232 38.8525C219.714 38.8525 220.14 38.9162 220.511 39.0435C220.887 39.1707 221.202 39.3672 221.457 39.6328C221.717 39.8929 221.914 40.2277 222.046 40.6372C222.179 41.0467 222.246 41.5337 222.246 42.0981V48H220.702V42.0815C220.702 41.578 220.621 41.1878 220.461 40.9111C220.306 40.6289 220.085 40.4325 219.797 40.3218C219.515 40.2056 219.177 40.1475 218.784 40.1475C218.447 40.1475 218.148 40.2056 217.888 40.3218C217.628 40.438 217.409 40.5985 217.232 40.8032C217.055 41.0024 216.919 41.2321 216.825 41.4922C216.737 41.7523 216.692 42.029 216.692 42.3223Z" fill="#333333"/>
<path d="M40 37.68C40 36.2882 41.0233 35.16 42.2857 35.16H53.7143C54.9767 35.16 56 36.2882 56 37.68V47.48C56 48.8718 54.9767 50 53.7143 50H42.2857C41.0233 50 40 48.8718 40 47.48V37.68Z" fill="#11EE11"/>
<path fill-rule="evenodd" clip-rule="evenodd" d="M47.873 35.16C50.1172 35.16 50.0317 35.16 51.9365 35.16C51.9365 32.6858 50.1172 30.68 47.873 30.68C45.6288 30.68 43.8095 32.6858 43.8095 35.16C45.5873 35.16 45.6288 35.16 47.873 35.16ZM47.873 35.16C50.9588 35.16 50.2857 35.16 53.4603 35.16C53.4603 31.7579 50.9588 29 47.873 29C44.7872 29 42.2857 31.7579 42.2857 35.16C45.5873 35.16 44.7872 35.16 47.873 35.16Z" fill="#11EE11"/>
</svg>
