<svg width="440" height="80" viewBox="0 0 440 80" fill="none" xmlns="http://www.w3.org/2000/svg">
<rect x="30.5" y="21.5" width="379" height="36" rx="3.5" fill="white" stroke="#AAAAAA"/>
<path d="M169.706 33.25V46H168.17V33.25H169.706ZM169.341 41.1689L168.702 41.144C168.707 40.5298 168.799 39.9626 168.976 39.4424C169.153 38.9167 169.402 38.4601 169.723 38.0728C170.044 37.6854 170.425 37.3866 170.868 37.1763C171.316 36.9604 171.812 36.8525 172.354 36.8525C172.797 36.8525 173.195 36.9134 173.549 37.0352C173.903 37.1514 174.205 37.3395 174.454 37.5996C174.709 37.8597 174.902 38.1973 175.035 38.6123C175.168 39.0218 175.234 39.5226 175.234 40.1147V46H173.69V40.0981C173.69 39.6278 173.621 39.2515 173.483 38.9692C173.345 38.6815 173.143 38.474 172.877 38.3467C172.611 38.2139 172.285 38.1475 171.897 38.1475C171.516 38.1475 171.167 38.2277 170.852 38.3882C170.542 38.5487 170.273 38.77 170.046 39.0522C169.825 39.3345 169.651 39.6582 169.523 40.0234C169.402 40.3831 169.341 40.765 169.341 41.1689ZM181.294 37.0186V38.1973H176.438V37.0186H181.294ZM178.082 34.8354H179.617V43.7754C179.617 44.0798 179.664 44.3094 179.758 44.4644C179.852 44.6193 179.974 44.7217 180.124 44.7715C180.273 44.8213 180.433 44.8462 180.605 44.8462C180.732 44.8462 180.865 44.8351 181.003 44.813C181.147 44.7853 181.255 44.7632 181.327 44.7466L181.335 46C181.214 46.0387 181.053 46.0747 180.854 46.1079C180.66 46.1466 180.425 46.166 180.148 46.166C179.772 46.166 179.426 46.0913 179.111 45.9419C178.795 45.7925 178.544 45.5435 178.355 45.1948C178.173 44.8407 178.082 44.3647 178.082 43.7671V34.8354ZM186.855 37.0186V38.1973H182V37.0186H186.855ZM183.643 34.8354H185.179V43.7754C185.179 44.0798 185.226 44.3094 185.32 44.4644C185.414 44.6193 185.536 44.7217 185.685 44.7715C185.834 44.8213 185.995 44.8462 186.167 44.8462C186.294 44.8462 186.427 44.8351 186.565 44.813C186.709 44.7853 186.817 44.7632 186.889 44.7466L186.897 46C186.775 46.0387 186.615 46.0747 186.416 46.1079C186.222 46.1466 185.987 46.166 185.71 46.166C185.334 46.166 184.988 46.0913 184.672 45.9419C184.357 45.7925 184.105 45.5435 183.917 45.1948C183.734 44.8407 183.643 44.3647 183.643 43.7671V34.8354ZM190.192 38.7451V49.4531H188.648V37.0186H190.06L190.192 38.7451ZM196.244 41.4346V41.6089C196.244 42.2619 196.166 42.8678 196.011 43.4268C195.856 43.9801 195.629 44.4616 195.331 44.8711C195.037 45.2806 194.675 45.5988 194.243 45.8257C193.812 46.0526 193.316 46.166 192.757 46.166C192.187 46.166 191.684 46.0719 191.247 45.8838C190.809 45.6956 190.439 45.4217 190.134 45.062C189.83 44.7023 189.586 44.2707 189.404 43.7671C189.227 43.2635 189.105 42.6963 189.039 42.0654V41.1357C189.105 40.4717 189.229 39.8768 189.412 39.3511C189.595 38.8254 189.835 38.3771 190.134 38.0063C190.439 37.63 190.807 37.3451 191.238 37.1514C191.67 36.9521 192.168 36.8525 192.732 36.8525C193.297 36.8525 193.798 36.9632 194.235 37.1846C194.672 37.4004 195.04 37.7103 195.339 38.1143C195.638 38.5182 195.862 39.0024 196.011 39.5669C196.166 40.1258 196.244 40.7484 196.244 41.4346ZM194.7 41.6089V41.4346C194.7 40.9863 194.653 40.5658 194.559 40.1729C194.465 39.7744 194.318 39.4258 194.119 39.127C193.925 38.8226 193.676 38.5846 193.372 38.4131C193.067 38.236 192.705 38.1475 192.284 38.1475C191.897 38.1475 191.559 38.2139 191.271 38.3467C190.989 38.4795 190.749 38.6593 190.549 38.8862C190.35 39.1076 190.187 39.3621 190.06 39.6499C189.938 39.9321 189.847 40.2254 189.786 40.5298V42.6797C189.896 43.0671 190.051 43.4323 190.25 43.7754C190.45 44.113 190.715 44.3869 191.047 44.5972C191.379 44.8019 191.797 44.9043 192.301 44.9043C192.716 44.9043 193.073 44.8185 193.372 44.647C193.676 44.4699 193.925 44.2292 194.119 43.9248C194.318 43.6204 194.465 43.2718 194.559 42.8789C194.653 42.4805 194.7 42.0571 194.7 41.6089ZM198.136 45.1865C198.136 44.9264 198.216 44.7078 198.377 44.5308C198.543 44.3481 198.781 44.2568 199.091 44.2568C199.401 44.2568 199.636 44.3481 199.796 44.5308C199.962 44.7078 200.045 44.9264 200.045 45.1865C200.045 45.4411 199.962 45.6569 199.796 45.834C199.636 46.0111 199.401 46.0996 199.091 46.0996C198.781 46.0996 198.543 46.0111 198.377 45.834C198.216 45.6569 198.136 45.4411 198.136 45.1865ZM198.145 37.8569C198.145 37.5968 198.225 37.3783 198.385 37.2012C198.551 37.0186 198.789 36.9272 199.099 36.9272C199.409 36.9272 199.644 37.0186 199.805 37.2012C199.971 37.3783 200.054 37.5968 200.054 37.8569C200.054 38.1115 199.971 38.3273 199.805 38.5044C199.644 38.6815 199.409 38.77 199.099 38.77C198.789 38.77 198.551 38.6815 198.385 38.5044C198.225 38.3273 198.145 38.1115 198.145 37.8569ZM207.666 33.9141L202.627 47.0376H201.307L206.354 33.9141H207.666ZM212.829 33.9141L207.79 47.0376H206.47L211.517 33.9141H212.829ZM218.232 46.166C217.607 46.166 217.04 46.0609 216.531 45.8506C216.027 45.6348 215.593 45.3332 215.228 44.9458C214.868 44.5584 214.591 44.0991 214.397 43.5679C214.204 43.0366 214.107 42.4556 214.107 41.8247V41.4761C214.107 40.7456 214.215 40.0954 214.431 39.5254C214.646 38.9499 214.94 38.4629 215.311 38.0645C215.681 37.666 216.102 37.3644 216.572 37.1597C217.043 36.9549 217.53 36.8525 218.033 36.8525C218.675 36.8525 219.229 36.9632 219.693 37.1846C220.164 37.4059 220.548 37.7158 220.847 38.1143C221.146 38.5072 221.367 38.972 221.511 39.5088C221.655 40.04 221.727 40.6211 221.727 41.252V41.9409H215.02V40.6875H220.191V40.5713C220.169 40.1729 220.086 39.7855 219.942 39.4092C219.804 39.0329 219.583 38.723 219.278 38.4795C218.974 38.236 218.559 38.1143 218.033 38.1143C217.685 38.1143 217.364 38.189 217.07 38.3384C216.777 38.4823 216.525 38.6981 216.315 38.9858C216.105 39.2736 215.941 39.625 215.825 40.04C215.709 40.4551 215.651 40.9338 215.651 41.4761V41.8247C215.651 42.2508 215.709 42.652 215.825 43.0283C215.947 43.3991 216.121 43.7256 216.348 44.0078C216.581 44.29 216.86 44.5114 217.187 44.6719C217.519 44.8324 217.895 44.9126 218.315 44.9126C218.858 44.9126 219.317 44.8019 219.693 44.5806C220.07 44.3592 220.399 44.0632 220.681 43.6924L221.611 44.4312C221.417 44.7244 221.171 45.0039 220.872 45.2695C220.573 45.5352 220.205 45.751 219.768 45.917C219.336 46.083 218.825 46.166 218.232 46.166ZM224.558 37.0186L226.525 40.2891L228.517 37.0186H230.318L227.38 41.4512L230.41 46H228.633L226.558 42.6299L224.483 46H222.698L225.72 41.4512L222.79 37.0186H224.558ZM237.25 44.4644V39.8408C237.25 39.4867 237.178 39.1795 237.034 38.9194C236.895 38.6538 236.685 38.4491 236.403 38.3052C236.121 38.1613 235.772 38.0894 235.357 38.0894C234.97 38.0894 234.629 38.1558 234.336 38.2886C234.048 38.4214 233.821 38.5957 233.655 38.8115C233.495 39.0273 233.415 39.2598 233.415 39.5088H231.879C231.879 39.1878 231.962 38.8696 232.128 38.5542C232.294 38.2388 232.532 37.9538 232.842 37.6992C233.157 37.4391 233.534 37.2344 233.971 37.085C234.413 36.93 234.906 36.8525 235.448 36.8525C236.101 36.8525 236.677 36.9632 237.175 37.1846C237.678 37.4059 238.071 37.7407 238.354 38.189C238.641 38.6317 238.785 39.1878 238.785 39.8574V44.041C238.785 44.3398 238.81 44.658 238.86 44.9956C238.915 45.3332 238.995 45.6237 239.101 45.8672V46H237.499C237.421 45.8229 237.36 45.5877 237.316 45.2944C237.272 44.9956 237.25 44.7189 237.25 44.4644ZM237.515 40.5547L237.532 41.6338H235.979C235.542 41.6338 235.152 41.6698 234.809 41.7417C234.466 41.8081 234.178 41.9105 233.946 42.0488C233.713 42.1872 233.536 42.3615 233.415 42.5718C233.293 42.7765 233.232 43.0173 233.232 43.2939C233.232 43.5762 233.296 43.8335 233.423 44.0659C233.55 44.2983 233.741 44.4837 233.996 44.6221C234.256 44.7549 234.574 44.8213 234.95 44.8213C235.421 44.8213 235.836 44.7217 236.195 44.5225C236.555 44.3232 236.84 44.0798 237.05 43.792C237.266 43.5042 237.382 43.2248 237.399 42.9536L238.055 43.6924C238.016 43.9248 237.911 44.1821 237.739 44.4644C237.568 44.7466 237.338 45.0177 237.05 45.2778C236.768 45.5324 236.431 45.7454 236.038 45.917C235.65 46.083 235.213 46.166 234.726 46.166C234.117 46.166 233.583 46.047 233.124 45.8091C232.67 45.5711 232.316 45.2529 232.062 44.8545C231.812 44.4505 231.688 43.9995 231.688 43.5015C231.688 43.02 231.782 42.5967 231.97 42.2314C232.158 41.8607 232.43 41.5535 232.784 41.3101C233.138 41.061 233.564 40.8729 234.062 40.7456C234.56 40.6183 235.116 40.5547 235.73 40.5547H237.515ZM242.728 38.8032V46H241.184V37.0186H242.645L242.728 38.8032ZM242.413 41.1689L241.699 41.144C241.704 40.5298 241.785 39.9626 241.939 39.4424C242.094 38.9167 242.324 38.4601 242.628 38.0728C242.933 37.6854 243.312 37.3866 243.766 37.1763C244.219 36.9604 244.745 36.8525 245.343 36.8525C245.763 36.8525 246.151 36.9134 246.505 37.0352C246.859 37.1514 247.166 37.3368 247.426 37.5913C247.686 37.8459 247.888 38.1724 248.032 38.5708C248.176 38.9692 248.248 39.4507 248.248 40.0151V46H246.712V40.0898C246.712 39.6195 246.632 39.2432 246.472 38.9609C246.317 38.6787 246.095 38.474 245.808 38.3467C245.52 38.2139 245.182 38.1475 244.795 38.1475C244.341 38.1475 243.962 38.2277 243.658 38.3882C243.353 38.5487 243.11 38.77 242.927 39.0522C242.745 39.3345 242.612 39.6582 242.529 40.0234C242.451 40.3831 242.413 40.765 242.413 41.1689ZM248.231 40.3223L247.202 40.6377C247.208 40.1452 247.288 39.672 247.443 39.2183C247.603 38.7645 247.833 38.3605 248.132 38.0063C248.436 37.6522 248.81 37.3727 249.252 37.168C249.695 36.9577 250.201 36.8525 250.771 36.8525C251.253 36.8525 251.679 36.9162 252.05 37.0435C252.426 37.1707 252.742 37.3672 252.996 37.6328C253.256 37.8929 253.453 38.2277 253.585 38.6372C253.718 39.0467 253.785 39.5337 253.785 40.0981V46H252.241V40.0815C252.241 39.578 252.16 39.1878 252 38.9111C251.845 38.6289 251.624 38.4325 251.336 38.3218C251.054 38.2056 250.716 38.1475 250.323 38.1475C249.986 38.1475 249.687 38.2056 249.427 38.3218C249.167 38.438 248.948 38.5985 248.771 38.8032C248.594 39.0024 248.458 39.2321 248.364 39.4922C248.276 39.7523 248.231 40.029 248.231 40.3223ZM257.645 38.7451V49.4531H256.101V37.0186H257.512L257.645 38.7451ZM263.696 41.4346V41.6089C263.696 42.2619 263.618 42.8678 263.463 43.4268C263.308 43.9801 263.082 44.4616 262.783 44.8711C262.489 45.2806 262.127 45.5988 261.695 45.8257C261.264 46.0526 260.768 46.166 260.209 46.166C259.639 46.166 259.136 46.0719 258.699 45.8838C258.262 45.6956 257.891 45.4217 257.586 45.062C257.282 44.7023 257.039 44.2707 256.856 43.7671C256.679 43.2635 256.557 42.6963 256.491 42.0654V41.1357C256.557 40.4717 256.682 39.8768 256.864 39.3511C257.047 38.8254 257.288 38.3771 257.586 38.0063C257.891 37.63 258.259 37.3451 258.69 37.1514C259.122 36.9521 259.62 36.8525 260.185 36.8525C260.749 36.8525 261.25 36.9632 261.687 37.1846C262.124 37.4004 262.492 37.7103 262.791 38.1143C263.09 38.5182 263.314 39.0024 263.463 39.5669C263.618 40.1258 263.696 40.7484 263.696 41.4346ZM262.152 41.6089V41.4346C262.152 40.9863 262.105 40.5658 262.011 40.1729C261.917 39.7744 261.77 39.4258 261.571 39.127C261.377 38.8226 261.128 38.5846 260.824 38.4131C260.519 38.236 260.157 38.1475 259.736 38.1475C259.349 38.1475 259.011 38.2139 258.724 38.3467C258.441 38.4795 258.201 38.6593 258.001 38.8862C257.802 39.1076 257.639 39.3621 257.512 39.6499C257.39 39.9321 257.299 40.2254 257.238 40.5298V42.6797C257.348 43.0671 257.503 43.4323 257.703 43.7754C257.902 44.113 258.167 44.3869 258.5 44.5972C258.832 44.8019 259.249 44.9043 259.753 44.9043C260.168 44.9043 260.525 44.8185 260.824 44.647C261.128 44.4699 261.377 44.2292 261.571 43.9248C261.77 43.6204 261.917 43.2718 262.011 42.8789C262.105 42.4805 262.152 42.0571 262.152 41.6089ZM267.323 33.25V46H265.779V33.25H267.323ZM273.516 46.166C272.89 46.166 272.323 46.0609 271.814 45.8506C271.31 45.6348 270.876 45.3332 270.511 44.9458C270.151 44.5584 269.874 44.0991 269.681 43.5679C269.487 43.0366 269.39 42.4556 269.39 41.8247V41.4761C269.39 40.7456 269.498 40.0954 269.714 39.5254C269.93 38.9499 270.223 38.4629 270.594 38.0645C270.965 37.666 271.385 37.3644 271.855 37.1597C272.326 36.9549 272.813 36.8525 273.316 36.8525C273.958 36.8525 274.512 36.9632 274.977 37.1846C275.447 37.4059 275.832 37.7158 276.13 38.1143C276.429 38.5072 276.651 38.972 276.794 39.5088C276.938 40.04 277.01 40.6211 277.01 41.252V41.9409H270.303V40.6875H275.475V40.5713C275.452 40.1729 275.369 39.7855 275.226 39.4092C275.087 39.0329 274.866 38.723 274.562 38.4795C274.257 38.236 273.842 38.1143 273.316 38.1143C272.968 38.1143 272.647 38.189 272.354 38.3384C272.06 38.4823 271.808 38.6981 271.598 38.9858C271.388 39.2736 271.225 39.625 271.108 40.04C270.992 40.4551 270.934 40.9338 270.934 41.4761V41.8247C270.934 42.2508 270.992 42.652 271.108 43.0283C271.23 43.3991 271.404 43.7256 271.631 44.0078C271.864 44.29 272.143 44.5114 272.47 44.6719C272.802 44.8324 273.178 44.9126 273.599 44.9126C274.141 44.9126 274.6 44.8019 274.977 44.5806C275.353 44.3592 275.682 44.0632 275.964 43.6924L276.894 44.4312C276.7 44.7244 276.454 45.0039 276.155 45.2695C275.856 45.5352 275.488 45.751 275.051 45.917C274.62 46.083 274.108 46.166 273.516 46.166ZM278.828 45.1865C278.828 44.9264 278.908 44.7078 279.069 44.5308C279.235 44.3481 279.473 44.2568 279.783 44.2568C280.093 44.2568 280.328 44.3481 280.488 44.5308C280.654 44.7078 280.737 44.9264 280.737 45.1865C280.737 45.4411 280.654 45.6569 280.488 45.834C280.328 46.0111 280.093 46.0996 279.783 46.0996C279.473 46.0996 279.235 46.0111 279.069 45.834C278.908 45.6569 278.828 45.4411 278.828 45.1865ZM286.88 44.9043C287.245 44.9043 287.583 44.8296 287.893 44.6802C288.202 44.5308 288.457 44.326 288.656 44.0659C288.855 43.8003 288.969 43.4987 288.997 43.1611H290.458C290.43 43.6924 290.25 44.1877 289.918 44.647C289.591 45.1007 289.163 45.4688 288.631 45.751C288.1 46.0277 287.516 46.166 286.88 46.166C286.205 46.166 285.615 46.047 285.112 45.8091C284.614 45.5711 284.199 45.2446 283.867 44.8296C283.54 44.4146 283.294 43.9386 283.128 43.4019C282.967 42.8595 282.887 42.2868 282.887 41.6836V41.335C282.887 40.7318 282.967 40.1618 283.128 39.625C283.294 39.0827 283.54 38.604 283.867 38.189C284.199 37.7739 284.614 37.4474 285.112 37.2095C285.615 36.9715 286.205 36.8525 286.88 36.8525C287.583 36.8525 288.197 36.9964 288.723 37.2842C289.248 37.5664 289.661 37.9538 289.959 38.4463C290.264 38.9333 290.43 39.4867 290.458 40.1064H288.997C288.969 39.7357 288.864 39.4009 288.681 39.1021C288.504 38.8032 288.261 38.5653 287.951 38.3882C287.646 38.2056 287.289 38.1143 286.88 38.1143C286.41 38.1143 286.014 38.2083 285.693 38.3965C285.377 38.5791 285.126 38.8281 284.938 39.1436C284.755 39.4535 284.622 39.7993 284.539 40.1812C284.462 40.5575 284.423 40.9421 284.423 41.335V41.6836C284.423 42.0765 284.462 42.4639 284.539 42.8457C284.617 43.2275 284.747 43.5734 284.929 43.8833C285.117 44.1932 285.369 44.4422 285.685 44.6304C286.006 44.813 286.404 44.9043 286.88 44.9043ZM291.777 41.6089V41.418C291.777 40.7705 291.871 40.1701 292.06 39.6167C292.248 39.0578 292.519 38.5736 292.873 38.1641C293.227 37.749 293.656 37.4281 294.16 37.2012C294.663 36.9688 295.228 36.8525 295.853 36.8525C296.484 36.8525 297.051 36.9688 297.555 37.2012C298.064 37.4281 298.495 37.749 298.85 38.1641C299.209 38.5736 299.483 39.0578 299.671 39.6167C299.86 40.1701 299.954 40.7705 299.954 41.418V41.6089C299.954 42.2563 299.86 42.8568 299.671 43.4102C299.483 43.9635 299.209 44.4478 298.85 44.8628C298.495 45.2723 298.067 45.5933 297.563 45.8257C297.065 46.0526 296.5 46.166 295.87 46.166C295.239 46.166 294.672 46.0526 294.168 45.8257C293.664 45.5933 293.233 45.2723 292.873 44.8628C292.519 44.4478 292.248 43.9635 292.06 43.4102C291.871 42.8568 291.777 42.2563 291.777 41.6089ZM293.313 41.418V41.6089C293.313 42.0571 293.366 42.4805 293.471 42.8789C293.576 43.2718 293.734 43.6204 293.944 43.9248C294.16 44.2292 294.428 44.4699 294.749 44.647C295.07 44.8185 295.444 44.9043 295.87 44.9043C296.29 44.9043 296.658 44.8185 296.974 44.647C297.295 44.4699 297.56 44.2292 297.771 43.9248C297.981 43.6204 298.139 43.2718 298.244 42.8789C298.354 42.4805 298.41 42.0571 298.41 41.6089V41.418C298.41 40.9753 298.354 40.5575 298.244 40.1646C298.139 39.7661 297.978 39.4147 297.762 39.1104C297.552 38.8005 297.286 38.557 296.965 38.3799C296.65 38.2028 296.279 38.1143 295.853 38.1143C295.432 38.1143 295.062 38.2028 294.741 38.3799C294.425 38.557 294.16 38.8005 293.944 39.1104C293.734 39.4147 293.576 39.7661 293.471 40.1646C293.366 40.5575 293.313 40.9753 293.313 41.418ZM303.407 38.8032V46H301.863V37.0186H303.324L303.407 38.8032ZM303.091 41.1689L302.377 41.144C302.383 40.5298 302.463 39.9626 302.618 39.4424C302.773 38.9167 303.003 38.4601 303.307 38.0728C303.611 37.6854 303.991 37.3866 304.444 37.1763C304.898 36.9604 305.424 36.8525 306.021 36.8525C306.442 36.8525 306.829 36.9134 307.184 37.0352C307.538 37.1514 307.845 37.3368 308.105 37.5913C308.365 37.8459 308.567 38.1724 308.711 38.5708C308.855 38.9692 308.927 39.4507 308.927 40.0151V46H307.391V40.0898C307.391 39.6195 307.311 39.2432 307.15 38.9609C306.995 38.6787 306.774 38.474 306.486 38.3467C306.199 38.2139 305.861 38.1475 305.474 38.1475C305.02 38.1475 304.641 38.2277 304.336 38.3882C304.032 38.5487 303.789 38.77 303.606 39.0522C303.423 39.3345 303.291 39.6582 303.208 40.0234C303.13 40.3831 303.091 40.765 303.091 41.1689ZM308.91 40.3223L307.881 40.6377C307.886 40.1452 307.967 39.672 308.122 39.2183C308.282 38.7645 308.512 38.3605 308.811 38.0063C309.115 37.6522 309.488 37.3727 309.931 37.168C310.374 36.9577 310.88 36.8525 311.45 36.8525C311.932 36.8525 312.358 36.9162 312.729 37.0435C313.105 37.1707 313.42 37.3672 313.675 37.6328C313.935 37.8929 314.131 38.2277 314.264 38.6372C314.397 39.0467 314.463 39.5337 314.463 40.0981V46H312.919V40.0815C312.919 39.578 312.839 39.1878 312.679 38.9111C312.524 38.6289 312.302 38.4325 312.015 38.3218C311.732 38.2056 311.395 38.1475 311.002 38.1475C310.664 38.1475 310.366 38.2056 310.105 38.3218C309.845 38.438 309.627 38.5985 309.45 38.8032C309.273 39.0024 309.137 39.2321 309.043 39.4922C308.954 39.7523 308.91 40.029 308.91 40.3223Z" fill="#333333"/>
<line x1="157.5" y1="31" x2="157.5" y2="50" stroke="#AAAAAA"/>
<path d="M74.6997 33.9141V46H73.0894L67.0049 36.6782V46H65.4028V33.9141H67.0049L73.1143 43.2607V33.9141H74.6997ZM76.8994 41.6089V41.418C76.8994 40.7705 76.9935 40.1701 77.1816 39.6167C77.3698 39.0578 77.641 38.5736 77.9951 38.1641C78.3493 37.749 78.7782 37.4281 79.2817 37.2012C79.7853 36.9688 80.3498 36.8525 80.9751 36.8525C81.606 36.8525 82.1732 36.9688 82.6768 37.2012C83.1859 37.4281 83.6175 37.749 83.9717 38.1641C84.3314 38.5736 84.6053 39.0578 84.7935 39.6167C84.9816 40.1701 85.0757 40.7705 85.0757 41.418V41.6089C85.0757 42.2563 84.9816 42.8568 84.7935 43.4102C84.6053 43.9635 84.3314 44.4478 83.9717 44.8628C83.6175 45.2723 83.1886 45.5933 82.6851 45.8257C82.187 46.0526 81.6226 46.166 80.9917 46.166C80.3608 46.166 79.7936 46.0526 79.29 45.8257C78.7865 45.5933 78.3548 45.2723 77.9951 44.8628C77.641 44.4478 77.3698 43.9635 77.1816 43.4102C76.9935 42.8568 76.8994 42.2563 76.8994 41.6089ZM78.4351 41.418V41.6089C78.4351 42.0571 78.4876 42.4805 78.5928 42.8789C78.6979 43.2718 78.8556 43.6204 79.0659 43.9248C79.2817 44.2292 79.5501 44.4699 79.8711 44.647C80.1921 44.8185 80.5656 44.9043 80.9917 44.9043C81.4123 44.9043 81.7803 44.8185 82.0957 44.647C82.4167 44.4699 82.6823 44.2292 82.8926 43.9248C83.1029 43.6204 83.2606 43.2718 83.3657 42.8789C83.4764 42.4805 83.5317 42.0571 83.5317 41.6089V41.418C83.5317 40.9753 83.4764 40.5575 83.3657 40.1646C83.2606 39.7661 83.1001 39.4147 82.8843 39.1104C82.674 38.8005 82.4084 38.557 82.0874 38.3799C81.772 38.2028 81.4012 38.1143 80.9751 38.1143C80.5545 38.1143 80.1838 38.2028 79.8628 38.3799C79.5474 38.557 79.2817 38.8005 79.0659 39.1104C78.8556 39.4147 78.6979 39.7661 78.5928 40.1646C78.4876 40.5575 78.4351 40.9753 78.4351 41.418ZM90.7617 37.0186V38.1973H85.9058V37.0186H90.7617ZM87.5493 34.8354H89.085V43.7754C89.085 44.0798 89.132 44.3094 89.2261 44.4644C89.3201 44.6193 89.4419 44.7217 89.5913 44.7715C89.7407 44.8213 89.9012 44.8462 90.0728 44.8462C90.2 44.8462 90.3328 44.8351 90.4712 44.813C90.6151 44.7853 90.723 44.7632 90.7949 44.7466L90.8032 46C90.6815 46.0387 90.521 46.0747 90.3218 46.1079C90.1281 46.1466 89.8929 46.166 89.6162 46.166C89.2399 46.166 88.894 46.0913 88.5786 45.9419C88.2632 45.7925 88.0114 45.5435 87.8232 45.1948C87.6406 44.8407 87.5493 44.3647 87.5493 43.7671V34.8354ZM102.009 43.6177C102.009 43.3963 101.959 43.1916 101.86 43.0034C101.766 42.8097 101.569 42.6354 101.271 42.4805C100.977 42.32 100.535 42.1816 99.9424 42.0654C99.4443 41.9603 98.9933 41.8358 98.5894 41.6919C98.1909 41.548 97.8506 41.3737 97.5684 41.1689C97.2917 40.9642 97.0786 40.7235 96.9292 40.4468C96.7798 40.1701 96.7051 39.8464 96.7051 39.4756C96.7051 39.1214 96.7826 38.7866 96.9375 38.4712C97.098 38.1558 97.3221 37.8763 97.6099 37.6328C97.9032 37.3893 98.2546 37.1984 98.6641 37.0601C99.0736 36.9217 99.5301 36.8525 100.034 36.8525C100.753 36.8525 101.367 36.9798 101.876 37.2344C102.386 37.4889 102.776 37.8293 103.047 38.2554C103.318 38.6759 103.454 39.1436 103.454 39.6582H101.918C101.918 39.4092 101.843 39.1685 101.694 38.936C101.55 38.6981 101.337 38.5016 101.055 38.3467C100.778 38.1917 100.438 38.1143 100.034 38.1143C99.6076 38.1143 99.2617 38.1807 98.9961 38.3135C98.736 38.4408 98.5451 38.604 98.4233 38.8032C98.3071 39.0024 98.249 39.2127 98.249 39.4341C98.249 39.6001 98.2767 39.7495 98.332 39.8823C98.3929 40.0096 98.498 40.1286 98.6475 40.2393C98.7969 40.3444 99.0072 40.444 99.2783 40.5381C99.5495 40.6322 99.8953 40.7262 100.316 40.8203C101.052 40.9863 101.658 41.1855 102.134 41.418C102.61 41.6504 102.964 41.9354 103.196 42.2729C103.429 42.6105 103.545 43.02 103.545 43.5015C103.545 43.8944 103.462 44.2541 103.296 44.5806C103.135 44.9071 102.9 45.1893 102.59 45.4272C102.286 45.6597 101.921 45.8423 101.495 45.9751C101.074 46.1024 100.601 46.166 100.075 46.166C99.2839 46.166 98.6143 46.0249 98.0664 45.7427C97.5186 45.4604 97.1035 45.0952 96.8213 44.647C96.5391 44.1987 96.3979 43.7256 96.3979 43.2275H97.9419C97.964 43.6481 98.0858 43.9829 98.3071 44.2319C98.5285 44.4754 98.7996 44.6497 99.1206 44.7549C99.4416 44.8545 99.7598 44.9043 100.075 44.9043C100.496 44.9043 100.847 44.849 101.129 44.7383C101.417 44.6276 101.636 44.4754 101.785 44.2817C101.935 44.0881 102.009 43.8667 102.009 43.6177ZM109.289 46.166C108.664 46.166 108.097 46.0609 107.587 45.8506C107.084 45.6348 106.649 45.3332 106.284 44.9458C105.924 44.5584 105.648 44.0991 105.454 43.5679C105.26 43.0366 105.164 42.4556 105.164 41.8247V41.4761C105.164 40.7456 105.271 40.0954 105.487 39.5254C105.703 38.9499 105.996 38.4629 106.367 38.0645C106.738 37.666 107.159 37.3644 107.629 37.1597C108.099 36.9549 108.586 36.8525 109.09 36.8525C109.732 36.8525 110.285 36.9632 110.75 37.1846C111.22 37.4059 111.605 37.7158 111.904 38.1143C112.203 38.5072 112.424 38.972 112.568 39.5088C112.712 40.04 112.784 40.6211 112.784 41.252V41.9409H106.077V40.6875H111.248V40.5713C111.226 40.1729 111.143 39.7855 110.999 39.4092C110.861 39.0329 110.639 38.723 110.335 38.4795C110.031 38.236 109.616 38.1143 109.09 38.1143C108.741 38.1143 108.42 38.189 108.127 38.3384C107.834 38.4823 107.582 38.6981 107.372 38.9858C107.161 39.2736 106.998 39.625 106.882 40.04C106.766 40.4551 106.708 40.9338 106.708 41.4761V41.8247C106.708 42.2508 106.766 42.652 106.882 43.0283C107.004 43.3991 107.178 43.7256 107.405 44.0078C107.637 44.29 107.917 44.5114 108.243 44.6719C108.575 44.8324 108.951 44.9126 109.372 44.9126C109.914 44.9126 110.374 44.8019 110.75 44.5806C111.126 44.3592 111.456 44.0632 111.738 43.6924L112.667 44.4312C112.474 44.7244 112.228 45.0039 111.929 45.2695C111.63 45.5352 111.262 45.751 110.825 45.917C110.393 46.083 109.881 46.166 109.289 46.166ZM118.171 44.9043C118.536 44.9043 118.874 44.8296 119.184 44.6802C119.493 44.5308 119.748 44.326 119.947 44.0659C120.146 43.8003 120.26 43.4987 120.288 43.1611H121.749C121.721 43.6924 121.541 44.1877 121.209 44.647C120.882 45.1007 120.454 45.4688 119.922 45.751C119.391 46.0277 118.807 46.166 118.171 46.166C117.496 46.166 116.906 46.047 116.403 45.8091C115.905 45.5711 115.49 45.2446 115.158 44.8296C114.831 44.4146 114.585 43.9386 114.419 43.4019C114.258 42.8595 114.178 42.2868 114.178 41.6836V41.335C114.178 40.7318 114.258 40.1618 114.419 39.625C114.585 39.0827 114.831 38.604 115.158 38.189C115.49 37.7739 115.905 37.4474 116.403 37.2095C116.906 36.9715 117.496 36.8525 118.171 36.8525C118.874 36.8525 119.488 36.9964 120.014 37.2842C120.539 37.5664 120.952 37.9538 121.25 38.4463C121.555 38.9333 121.721 39.4867 121.749 40.1064H120.288C120.26 39.7357 120.155 39.4009 119.972 39.1021C119.795 38.8032 119.552 38.5653 119.242 38.3882C118.937 38.2056 118.58 38.1143 118.171 38.1143C117.701 38.1143 117.305 38.2083 116.984 38.3965C116.668 38.5791 116.417 38.8281 116.229 39.1436C116.046 39.4535 115.913 39.7993 115.83 40.1812C115.753 40.5575 115.714 40.9421 115.714 41.335V41.6836C115.714 42.0765 115.753 42.4639 115.83 42.8457C115.908 43.2275 116.038 43.5734 116.22 43.8833C116.408 44.1932 116.66 44.4422 116.976 44.6304C117.297 44.813 117.695 44.9043 118.171 44.9043ZM128.97 43.9248V37.0186H130.514V46H129.045L128.97 43.9248ZM129.261 42.0322L129.9 42.0156C129.9 42.6133 129.836 43.1667 129.709 43.6758C129.587 44.1794 129.388 44.6165 129.111 44.9873C128.835 45.3581 128.472 45.6486 128.024 45.8589C127.576 46.0636 127.031 46.166 126.389 46.166C125.951 46.166 125.55 46.1024 125.185 45.9751C124.825 45.8478 124.515 45.6514 124.255 45.3857C123.995 45.1201 123.793 44.7743 123.649 44.3481C123.511 43.922 123.442 43.4102 123.442 42.8125V37.0186H124.978V42.8291C124.978 43.2331 125.022 43.5679 125.11 43.8335C125.204 44.0936 125.329 44.3011 125.484 44.4561C125.644 44.6055 125.821 44.7106 126.015 44.7715C126.214 44.8324 126.419 44.8628 126.629 44.8628C127.282 44.8628 127.8 44.7383 128.182 44.4893C128.563 44.2347 128.837 43.8944 129.003 43.4683C129.175 43.0366 129.261 42.5579 129.261 42.0322ZM134.391 38.4297V46H132.855V37.0186H134.349L134.391 38.4297ZM137.196 36.9688L137.188 38.3965C137.061 38.3688 136.939 38.3522 136.823 38.3467C136.712 38.3356 136.585 38.3301 136.441 38.3301C136.087 38.3301 135.774 38.3854 135.503 38.4961C135.232 38.6068 135.002 38.7617 134.814 38.9609C134.626 39.1602 134.476 39.3981 134.366 39.6748C134.261 39.946 134.191 40.2448 134.158 40.5713L133.727 40.8203C133.727 40.278 133.779 39.7689 133.884 39.293C133.995 38.8171 134.164 38.3965 134.391 38.0312C134.618 37.6605 134.905 37.3727 135.254 37.168C135.608 36.9577 136.029 36.8525 136.516 36.8525C136.626 36.8525 136.754 36.8664 136.897 36.894C137.041 36.9162 137.141 36.9411 137.196 36.9688ZM142.177 46.166C141.551 46.166 140.984 46.0609 140.475 45.8506C139.972 45.6348 139.537 45.3332 139.172 44.9458C138.812 44.5584 138.535 44.0991 138.342 43.5679C138.148 43.0366 138.051 42.4556 138.051 41.8247V41.4761C138.051 40.7456 138.159 40.0954 138.375 39.5254C138.591 38.9499 138.884 38.4629 139.255 38.0645C139.626 37.666 140.046 37.3644 140.517 37.1597C140.987 36.9549 141.474 36.8525 141.978 36.8525C142.619 36.8525 143.173 36.9632 143.638 37.1846C144.108 37.4059 144.493 37.7158 144.792 38.1143C145.09 38.5072 145.312 38.972 145.456 39.5088C145.599 40.04 145.671 40.6211 145.671 41.252V41.9409H138.964V40.6875H144.136V40.5713C144.114 40.1729 144.031 39.7855 143.887 39.4092C143.748 39.0329 143.527 38.723 143.223 38.4795C142.918 38.236 142.503 38.1143 141.978 38.1143C141.629 38.1143 141.308 38.189 141.015 38.3384C140.721 38.4823 140.47 38.6981 140.259 38.9858C140.049 39.2736 139.886 39.625 139.77 40.04C139.653 40.4551 139.595 40.9338 139.595 41.4761V41.8247C139.595 42.2508 139.653 42.652 139.77 43.0283C139.891 43.3991 140.066 43.7256 140.292 44.0078C140.525 44.29 140.804 44.5114 141.131 44.6719C141.463 44.8324 141.839 44.9126 142.26 44.9126C142.802 44.9126 143.261 44.8019 143.638 44.5806C144.014 44.3592 144.343 44.0632 144.625 43.6924L145.555 44.4312C145.361 44.7244 145.115 45.0039 144.816 45.2695C144.518 45.5352 144.15 45.751 143.712 45.917C143.281 46.083 142.769 46.166 142.177 46.166Z" fill="#555555"/>
<circle cx="48" cy="40" r="9" stroke="#555555" stroke-width="2"/>
<line x1="48" y1="45" x2="48" y2="43" stroke="#555555" stroke-width="2"/>
<line x1="48" y1="41" x2="48" y2="35" stroke="#555555" stroke-width="2"/>
</svg>
