<svg width="440" height="80" viewBox="0 0 440 80" fill="none" xmlns="http://www.w3.org/2000/svg">
<rect x="30.5" y="22.5" width="379" height="36" rx="3.5" fill="white" stroke="#AAAAAA"/>
<path d="M171.897 47.166C171.272 47.166 170.705 47.0609 170.196 46.8506C169.692 46.6348 169.258 46.3332 168.893 45.9458C168.533 45.5584 168.256 45.0991 168.062 44.5679C167.869 44.0366 167.772 43.4556 167.772 42.8247V42.4761C167.772 41.7456 167.88 41.0954 168.096 40.5254C168.312 39.9499 168.605 39.4629 168.976 39.0645C169.346 38.666 169.767 38.3644 170.237 38.1597C170.708 37.9549 171.195 37.8525 171.698 37.8525C172.34 37.8525 172.894 37.9632 173.358 38.1846C173.829 38.4059 174.213 38.7158 174.512 39.1143C174.811 39.5072 175.032 39.972 175.176 40.5088C175.32 41.04 175.392 41.6211 175.392 42.252V42.9409H168.685V41.6875H173.856V41.5713C173.834 41.1729 173.751 40.7855 173.607 40.4092C173.469 40.0329 173.248 39.723 172.943 39.4795C172.639 39.236 172.224 39.1143 171.698 39.1143C171.35 39.1143 171.029 39.189 170.735 39.3384C170.442 39.4823 170.19 39.6981 169.98 39.9858C169.77 40.2736 169.606 40.625 169.49 41.04C169.374 41.4551 169.316 41.9338 169.316 42.4761V42.8247C169.316 43.2508 169.374 43.652 169.49 44.0283C169.612 44.3991 169.786 44.7256 170.013 45.0078C170.246 45.29 170.525 45.5114 170.852 45.6719C171.184 45.8324 171.56 45.9126 171.98 45.9126C172.523 45.9126 172.982 45.8019 173.358 45.5806C173.735 45.3592 174.064 45.0632 174.346 44.6924L175.276 45.4312C175.082 45.7244 174.836 46.0039 174.537 46.2695C174.238 46.5352 173.87 46.751 173.433 46.917C173.001 47.083 172.49 47.166 171.897 47.166ZM178.223 38.0186L180.19 41.2891L182.182 38.0186H183.983L181.045 42.4512L184.075 47H182.298L180.223 43.6299L178.148 47H176.363L179.385 42.4512L176.455 38.0186H178.223ZM190.915 45.4644V40.8408C190.915 40.4867 190.843 40.1795 190.699 39.9194C190.56 39.6538 190.35 39.4491 190.068 39.3052C189.786 39.1613 189.437 39.0894 189.022 39.0894C188.635 39.0894 188.294 39.1558 188.001 39.2886C187.713 39.4214 187.486 39.5957 187.32 39.8115C187.16 40.0273 187.08 40.2598 187.08 40.5088H185.544C185.544 40.1878 185.627 39.8696 185.793 39.5542C185.959 39.2388 186.197 38.9538 186.507 38.6992C186.822 38.4391 187.199 38.2344 187.636 38.085C188.078 37.93 188.571 37.8525 189.113 37.8525C189.766 37.8525 190.342 37.9632 190.84 38.1846C191.343 38.4059 191.736 38.7407 192.019 39.189C192.306 39.6317 192.45 40.1878 192.45 40.8574V45.041C192.45 45.3398 192.475 45.658 192.525 45.9956C192.58 46.3332 192.66 46.6237 192.766 46.8672V47H191.164C191.086 46.8229 191.025 46.5877 190.981 46.2944C190.937 45.9956 190.915 45.7189 190.915 45.4644ZM191.18 41.5547L191.197 42.6338H189.645C189.207 42.6338 188.817 42.6698 188.474 42.7417C188.131 42.8081 187.843 42.9105 187.611 43.0488C187.378 43.1872 187.201 43.3615 187.08 43.5718C186.958 43.7765 186.897 44.0173 186.897 44.2939C186.897 44.5762 186.961 44.8335 187.088 45.0659C187.215 45.2983 187.406 45.4837 187.661 45.6221C187.921 45.7549 188.239 45.8213 188.615 45.8213C189.086 45.8213 189.501 45.7217 189.86 45.5225C190.22 45.3232 190.505 45.0798 190.715 44.792C190.931 44.5042 191.047 44.2248 191.064 43.9536L191.72 44.6924C191.681 44.9248 191.576 45.1821 191.404 45.4644C191.233 45.7466 191.003 46.0177 190.715 46.2778C190.433 46.5324 190.096 46.7454 189.703 46.917C189.315 47.083 188.878 47.166 188.391 47.166C187.782 47.166 187.248 47.047 186.789 46.8091C186.335 46.5711 185.981 46.2529 185.727 45.8545C185.478 45.4505 185.353 44.9995 185.353 44.5015C185.353 44.02 185.447 43.5967 185.635 43.2314C185.823 42.8607 186.095 42.5535 186.449 42.3101C186.803 42.061 187.229 41.8729 187.727 41.7456C188.225 41.6183 188.781 41.5547 189.396 41.5547H191.18ZM196.393 39.8032V47H194.849V38.0186H196.31L196.393 39.8032ZM196.078 42.1689L195.364 42.144C195.369 41.5298 195.45 40.9626 195.604 40.4424C195.759 39.9167 195.989 39.4601 196.293 39.0728C196.598 38.6854 196.977 38.3866 197.431 38.1763C197.884 37.9604 198.41 37.8525 199.008 37.8525C199.428 37.8525 199.816 37.9134 200.17 38.0352C200.524 38.1514 200.831 38.3368 201.091 38.5913C201.351 38.8459 201.553 39.1724 201.697 39.5708C201.841 39.9692 201.913 40.4507 201.913 41.0151V47H200.377V41.0898C200.377 40.6195 200.297 40.2432 200.137 39.9609C199.982 39.6787 199.76 39.474 199.473 39.3467C199.185 39.2139 198.847 39.1475 198.46 39.1475C198.006 39.1475 197.627 39.2277 197.323 39.3882C197.018 39.5487 196.775 39.77 196.592 40.0522C196.41 40.3345 196.277 40.6582 196.194 41.0234C196.116 41.3831 196.078 41.765 196.078 42.1689ZM201.896 41.3223L200.867 41.6377C200.873 41.1452 200.953 40.672 201.108 40.2183C201.268 39.7645 201.498 39.3605 201.797 39.0063C202.101 38.6522 202.475 38.3727 202.917 38.168C203.36 37.9577 203.867 37.8525 204.437 37.8525C204.918 37.8525 205.344 37.9162 205.715 38.0435C206.091 38.1707 206.407 38.3672 206.661 38.6328C206.921 38.8929 207.118 39.2277 207.25 39.6372C207.383 40.0467 207.45 40.5337 207.45 41.0981V47H205.906V41.0815C205.906 40.578 205.826 40.1878 205.665 39.9111C205.51 39.6289 205.289 39.4325 205.001 39.3218C204.719 39.2056 204.381 39.1475 203.988 39.1475C203.651 39.1475 203.352 39.2056 203.092 39.3218C202.832 39.438 202.613 39.5985 202.436 39.8032C202.259 40.0024 202.123 40.2321 202.029 40.4922C201.941 40.7523 201.896 41.029 201.896 41.3223ZM211.31 39.7451V50.4531H209.766V38.0186H211.177L211.31 39.7451ZM217.361 42.4346V42.6089C217.361 43.2619 217.283 43.8678 217.128 44.4268C216.973 44.9801 216.747 45.4616 216.448 45.8711C216.154 46.2806 215.792 46.5988 215.36 46.8257C214.929 47.0526 214.433 47.166 213.875 47.166C213.305 47.166 212.801 47.0719 212.364 46.8838C211.927 46.6956 211.556 46.4217 211.251 46.062C210.947 45.7023 210.704 45.2707 210.521 44.7671C210.344 44.2635 210.222 43.6963 210.156 43.0654V42.1357C210.222 41.4717 210.347 40.8768 210.529 40.3511C210.712 39.8254 210.953 39.3771 211.251 39.0063C211.556 38.63 211.924 38.3451 212.355 38.1514C212.787 37.9521 213.285 37.8525 213.85 37.8525C214.414 37.8525 214.915 37.9632 215.352 38.1846C215.789 38.4004 216.157 38.7103 216.456 39.1143C216.755 39.5182 216.979 40.0024 217.128 40.5669C217.283 41.1258 217.361 41.7484 217.361 42.4346ZM215.817 42.6089V42.4346C215.817 41.9863 215.77 41.5658 215.676 41.1729C215.582 40.7744 215.435 40.4258 215.236 40.127C215.042 39.8226 214.793 39.5846 214.489 39.4131C214.184 39.236 213.822 39.1475 213.401 39.1475C213.014 39.1475 212.676 39.2139 212.389 39.3467C212.106 39.4795 211.866 39.6593 211.667 39.8862C211.467 40.1076 211.304 40.3621 211.177 40.6499C211.055 40.9321 210.964 41.2254 210.903 41.5298V43.6797C211.014 44.0671 211.168 44.4323 211.368 44.7754C211.567 45.113 211.833 45.3869 212.165 45.5972C212.497 45.8019 212.914 45.9043 213.418 45.9043C213.833 45.9043 214.19 45.8185 214.489 45.647C214.793 45.4699 215.042 45.2292 215.236 44.9248C215.435 44.6204 215.582 44.2718 215.676 43.8789C215.77 43.4805 215.817 43.0571 215.817 42.6089ZM220.988 34.25V47H219.444V34.25H220.988ZM227.181 47.166C226.555 47.166 225.988 47.0609 225.479 46.8506C224.975 46.6348 224.541 46.3332 224.176 45.9458C223.816 45.5584 223.539 45.0991 223.346 44.5679C223.152 44.0366 223.055 43.4556 223.055 42.8247V42.4761C223.055 41.7456 223.163 41.0954 223.379 40.5254C223.595 39.9499 223.888 39.4629 224.259 39.0645C224.63 38.666 225.05 38.3644 225.521 38.1597C225.991 37.9549 226.478 37.8525 226.981 37.8525C227.623 37.8525 228.177 37.9632 228.642 38.1846C229.112 38.4059 229.497 38.7158 229.795 39.1143C230.094 39.5072 230.316 39.972 230.459 40.5088C230.603 41.04 230.675 41.6211 230.675 42.252V42.9409H223.968V41.6875H229.14V41.5713C229.118 41.1729 229.035 40.7855 228.891 40.4092C228.752 40.0329 228.531 39.723 228.227 39.4795C227.922 39.236 227.507 39.1143 226.981 39.1143C226.633 39.1143 226.312 39.189 226.019 39.3384C225.725 39.4823 225.473 39.6981 225.263 39.9858C225.053 40.2736 224.89 40.625 224.773 41.04C224.657 41.4551 224.599 41.9338 224.599 42.4761V42.8247C224.599 43.2508 224.657 43.652 224.773 44.0283C224.895 44.3991 225.069 44.7256 225.296 45.0078C225.529 45.29 225.808 45.5114 226.135 45.6719C226.467 45.8324 226.843 45.9126 227.264 45.9126C227.806 45.9126 228.265 45.8019 228.642 45.5806C229.018 45.3592 229.347 45.0632 229.629 44.6924L230.559 45.4312C230.365 45.7244 230.119 46.0039 229.82 46.2695C229.521 46.5352 229.153 46.751 228.716 46.917C228.285 47.083 227.773 47.166 227.181 47.166ZM232.493 46.1865C232.493 45.9264 232.573 45.7078 232.734 45.5308C232.9 45.3481 233.138 45.2568 233.448 45.2568C233.758 45.2568 233.993 45.3481 234.153 45.5308C234.319 45.7078 234.402 45.9264 234.402 46.1865C234.402 46.4411 234.319 46.6569 234.153 46.834C233.993 47.0111 233.758 47.0996 233.448 47.0996C233.138 47.0996 232.9 47.0111 232.734 46.834C232.573 46.6569 232.493 46.4411 232.493 46.1865ZM240.545 45.9043C240.91 45.9043 241.248 45.8296 241.558 45.6802C241.868 45.5308 242.122 45.326 242.321 45.0659C242.521 44.8003 242.634 44.4987 242.662 44.1611H244.123C244.095 44.6924 243.915 45.1877 243.583 45.647C243.257 46.1007 242.828 46.4688 242.296 46.751C241.765 47.0277 241.181 47.166 240.545 47.166C239.87 47.166 239.28 47.047 238.777 46.8091C238.279 46.5711 237.864 46.2446 237.532 45.8296C237.205 45.4146 236.959 44.9386 236.793 44.4019C236.632 43.8595 236.552 43.2868 236.552 42.6836V42.335C236.552 41.7318 236.632 41.1618 236.793 40.625C236.959 40.0827 237.205 39.604 237.532 39.189C237.864 38.7739 238.279 38.4474 238.777 38.2095C239.28 37.9715 239.87 37.8525 240.545 37.8525C241.248 37.8525 241.862 37.9964 242.388 38.2842C242.913 38.5664 243.326 38.9538 243.625 39.4463C243.929 39.9333 244.095 40.4867 244.123 41.1064H242.662C242.634 40.7357 242.529 40.4009 242.346 40.1021C242.169 39.8032 241.926 39.5653 241.616 39.3882C241.311 39.2056 240.954 39.1143 240.545 39.1143C240.075 39.1143 239.679 39.2083 239.358 39.3965C239.042 39.5791 238.791 39.8281 238.603 40.1436C238.42 40.4535 238.287 40.7993 238.204 41.1812C238.127 41.5575 238.088 41.9421 238.088 42.335V42.6836C238.088 43.0765 238.127 43.4639 238.204 43.8457C238.282 44.2275 238.412 44.5734 238.594 44.8833C238.782 45.1932 239.034 45.4422 239.35 45.6304C239.671 45.813 240.069 45.9043 240.545 45.9043ZM245.442 42.6089V42.418C245.442 41.7705 245.536 41.1701 245.725 40.6167C245.913 40.0578 246.184 39.5736 246.538 39.1641C246.892 38.749 247.321 38.4281 247.825 38.2012C248.328 37.9688 248.893 37.8525 249.518 37.8525C250.149 37.8525 250.716 37.9688 251.22 38.2012C251.729 38.4281 252.16 38.749 252.515 39.1641C252.874 39.5736 253.148 40.0578 253.336 40.6167C253.525 41.1701 253.619 41.7705 253.619 42.418V42.6089C253.619 43.2563 253.525 43.8568 253.336 44.4102C253.148 44.9635 252.874 45.4478 252.515 45.8628C252.16 46.2723 251.732 46.5933 251.228 46.8257C250.73 47.0526 250.166 47.166 249.535 47.166C248.904 47.166 248.337 47.0526 247.833 46.8257C247.329 46.5933 246.898 46.2723 246.538 45.8628C246.184 45.4478 245.913 44.9635 245.725 44.4102C245.536 43.8568 245.442 43.2563 245.442 42.6089ZM246.978 42.418V42.6089C246.978 43.0571 247.031 43.4805 247.136 43.8789C247.241 44.2718 247.399 44.6204 247.609 44.9248C247.825 45.2292 248.093 45.4699 248.414 45.647C248.735 45.8185 249.109 45.9043 249.535 45.9043C249.955 45.9043 250.323 45.8185 250.639 45.647C250.96 45.4699 251.225 45.2292 251.436 44.9248C251.646 44.6204 251.804 44.2718 251.909 43.8789C252.019 43.4805 252.075 43.0571 252.075 42.6089V42.418C252.075 41.9753 252.019 41.5575 251.909 41.1646C251.804 40.7661 251.643 40.4147 251.427 40.1104C251.217 39.8005 250.951 39.557 250.63 39.3799C250.315 39.2028 249.944 39.1143 249.518 39.1143C249.097 39.1143 248.727 39.2028 248.406 39.3799C248.09 39.557 247.825 39.8005 247.609 40.1104C247.399 40.4147 247.241 40.7661 247.136 41.1646C247.031 41.5575 246.978 41.9753 246.978 42.418ZM257.072 39.8032V47H255.528V38.0186H256.989L257.072 39.8032ZM256.756 42.1689L256.042 42.144C256.048 41.5298 256.128 40.9626 256.283 40.4424C256.438 39.9167 256.668 39.4601 256.972 39.0728C257.277 38.6854 257.656 38.3866 258.109 38.1763C258.563 37.9604 259.089 37.8525 259.687 37.8525C260.107 37.8525 260.494 37.9134 260.849 38.0352C261.203 38.1514 261.51 38.3368 261.77 38.5913C262.03 38.8459 262.232 39.1724 262.376 39.5708C262.52 39.9692 262.592 40.4507 262.592 41.0151V47H261.056V41.0898C261.056 40.6195 260.976 40.2432 260.815 39.9609C260.66 39.6787 260.439 39.474 260.151 39.3467C259.864 39.2139 259.526 39.1475 259.139 39.1475C258.685 39.1475 258.306 39.2277 258.001 39.3882C257.697 39.5487 257.454 39.77 257.271 40.0522C257.088 40.3345 256.956 40.6582 256.873 41.0234C256.795 41.3831 256.756 41.765 256.756 42.1689ZM262.575 41.3223L261.546 41.6377C261.551 41.1452 261.632 40.672 261.787 40.2183C261.947 39.7645 262.177 39.3605 262.476 39.0063C262.78 38.6522 263.153 38.3727 263.596 38.168C264.039 37.9577 264.545 37.8525 265.115 37.8525C265.597 37.8525 266.023 37.9162 266.394 38.0435C266.77 38.1707 267.085 38.3672 267.34 38.6328C267.6 38.8929 267.796 39.2277 267.929 39.6372C268.062 40.0467 268.128 40.5337 268.128 41.0981V47H266.584V41.0815C266.584 40.578 266.504 40.1878 266.344 39.9111C266.189 39.6289 265.967 39.4325 265.68 39.3218C265.397 39.2056 265.06 39.1475 264.667 39.1475C264.329 39.1475 264.031 39.2056 263.771 39.3218C263.51 39.438 263.292 39.5985 263.115 39.8032C262.938 40.0024 262.802 40.2321 262.708 40.4922C262.619 40.7523 262.575 41.029 262.575 41.3223Z" fill="#333333"/>
<line x1="157.5" y1="32" x2="157.5" y2="51" stroke="#AAAAAA"/>
<path d="M74.6997 34.9141V47H73.0894L67.0049 37.6782V47H65.4028V34.9141H67.0049L73.1143 44.2607V34.9141H74.6997ZM76.8994 42.6089V42.418C76.8994 41.7705 76.9935 41.1701 77.1816 40.6167C77.3698 40.0578 77.641 39.5736 77.9951 39.1641C78.3493 38.749 78.7782 38.4281 79.2817 38.2012C79.7853 37.9688 80.3498 37.8525 80.9751 37.8525C81.606 37.8525 82.1732 37.9688 82.6768 38.2012C83.1859 38.4281 83.6175 38.749 83.9717 39.1641C84.3314 39.5736 84.6053 40.0578 84.7935 40.6167C84.9816 41.1701 85.0757 41.7705 85.0757 42.418V42.6089C85.0757 43.2563 84.9816 43.8568 84.7935 44.4102C84.6053 44.9635 84.3314 45.4478 83.9717 45.8628C83.6175 46.2723 83.1886 46.5933 82.6851 46.8257C82.187 47.0526 81.6226 47.166 80.9917 47.166C80.3608 47.166 79.7936 47.0526 79.29 46.8257C78.7865 46.5933 78.3548 46.2723 77.9951 45.8628C77.641 45.4478 77.3698 44.9635 77.1816 44.4102C76.9935 43.8568 76.8994 43.2563 76.8994 42.6089ZM78.4351 42.418V42.6089C78.4351 43.0571 78.4876 43.4805 78.5928 43.8789C78.6979 44.2718 78.8556 44.6204 79.0659 44.9248C79.2817 45.2292 79.5501 45.4699 79.8711 45.647C80.1921 45.8185 80.5656 45.9043 80.9917 45.9043C81.4123 45.9043 81.7803 45.8185 82.0957 45.647C82.4167 45.4699 82.6823 45.2292 82.8926 44.9248C83.1029 44.6204 83.2606 44.2718 83.3657 43.8789C83.4764 43.4805 83.5317 43.0571 83.5317 42.6089V42.418C83.5317 41.9753 83.4764 41.5575 83.3657 41.1646C83.2606 40.7661 83.1001 40.4147 82.8843 40.1104C82.674 39.8005 82.4084 39.557 82.0874 39.3799C81.772 39.2028 81.4012 39.1143 80.9751 39.1143C80.5545 39.1143 80.1838 39.2028 79.8628 39.3799C79.5474 39.557 79.2817 39.8005 79.0659 40.1104C78.8556 40.4147 78.6979 40.7661 78.5928 41.1646C78.4876 41.5575 78.4351 41.9753 78.4351 42.418ZM90.7617 38.0186V39.1973H85.9058V38.0186H90.7617ZM87.5493 35.8354H89.085V44.7754C89.085 45.0798 89.132 45.3094 89.2261 45.4644C89.3201 45.6193 89.4419 45.7217 89.5913 45.7715C89.7407 45.8213 89.9012 45.8462 90.0728 45.8462C90.2 45.8462 90.3328 45.8351 90.4712 45.813C90.6151 45.7853 90.723 45.7632 90.7949 45.7466L90.8032 47C90.6815 47.0387 90.521 47.0747 90.3218 47.1079C90.1281 47.1466 89.8929 47.166 89.6162 47.166C89.2399 47.166 88.894 47.0913 88.5786 46.9419C88.2632 46.7925 88.0114 46.5435 87.8232 46.1948C87.6406 45.8407 87.5493 45.3647 87.5493 44.7671V35.8354ZM102.009 44.6177C102.009 44.3963 101.959 44.1916 101.86 44.0034C101.766 43.8097 101.569 43.6354 101.271 43.4805C100.977 43.32 100.535 43.1816 99.9424 43.0654C99.4443 42.9603 98.9933 42.8358 98.5894 42.6919C98.1909 42.548 97.8506 42.3737 97.5684 42.1689C97.2917 41.9642 97.0786 41.7235 96.9292 41.4468C96.7798 41.1701 96.7051 40.8464 96.7051 40.4756C96.7051 40.1214 96.7826 39.7866 96.9375 39.4712C97.098 39.1558 97.3221 38.8763 97.6099 38.6328C97.9032 38.3893 98.2546 38.1984 98.6641 38.0601C99.0736 37.9217 99.5301 37.8525 100.034 37.8525C100.753 37.8525 101.367 37.9798 101.876 38.2344C102.386 38.4889 102.776 38.8293 103.047 39.2554C103.318 39.6759 103.454 40.1436 103.454 40.6582H101.918C101.918 40.4092 101.843 40.1685 101.694 39.936C101.55 39.6981 101.337 39.5016 101.055 39.3467C100.778 39.1917 100.438 39.1143 100.034 39.1143C99.6076 39.1143 99.2617 39.1807 98.9961 39.3135C98.736 39.4408 98.5451 39.604 98.4233 39.8032C98.3071 40.0024 98.249 40.2127 98.249 40.4341C98.249 40.6001 98.2767 40.7495 98.332 40.8823C98.3929 41.0096 98.498 41.1286 98.6475 41.2393C98.7969 41.3444 99.0072 41.444 99.2783 41.5381C99.5495 41.6322 99.8953 41.7262 100.316 41.8203C101.052 41.9863 101.658 42.1855 102.134 42.418C102.61 42.6504 102.964 42.9354 103.196 43.2729C103.429 43.6105 103.545 44.02 103.545 44.5015C103.545 44.8944 103.462 45.2541 103.296 45.5806C103.135 45.9071 102.9 46.1893 102.59 46.4272C102.286 46.6597 101.921 46.8423 101.495 46.9751C101.074 47.1024 100.601 47.166 100.075 47.166C99.2839 47.166 98.6143 47.0249 98.0664 46.7427C97.5186 46.4604 97.1035 46.0952 96.8213 45.647C96.5391 45.1987 96.3979 44.7256 96.3979 44.2275H97.9419C97.964 44.6481 98.0858 44.9829 98.3071 45.2319C98.5285 45.4754 98.7996 45.6497 99.1206 45.7549C99.4416 45.8545 99.7598 45.9043 100.075 45.9043C100.496 45.9043 100.847 45.849 101.129 45.7383C101.417 45.6276 101.636 45.4754 101.785 45.2817C101.935 45.0881 102.009 44.8667 102.009 44.6177ZM109.289 47.166C108.664 47.166 108.097 47.0609 107.587 46.8506C107.084 46.6348 106.649 46.3332 106.284 45.9458C105.924 45.5584 105.648 45.0991 105.454 44.5679C105.26 44.0366 105.164 43.4556 105.164 42.8247V42.4761C105.164 41.7456 105.271 41.0954 105.487 40.5254C105.703 39.9499 105.996 39.4629 106.367 39.0645C106.738 38.666 107.159 38.3644 107.629 38.1597C108.099 37.9549 108.586 37.8525 109.09 37.8525C109.732 37.8525 110.285 37.9632 110.75 38.1846C111.22 38.4059 111.605 38.7158 111.904 39.1143C112.203 39.5072 112.424 39.972 112.568 40.5088C112.712 41.04 112.784 41.6211 112.784 42.252V42.9409H106.077V41.6875H111.248V41.5713C111.226 41.1729 111.143 40.7855 110.999 40.4092C110.861 40.0329 110.639 39.723 110.335 39.4795C110.031 39.236 109.616 39.1143 109.09 39.1143C108.741 39.1143 108.42 39.189 108.127 39.3384C107.834 39.4823 107.582 39.6981 107.372 39.9858C107.161 40.2736 106.998 40.625 106.882 41.04C106.766 41.4551 106.708 41.9338 106.708 42.4761V42.8247C106.708 43.2508 106.766 43.652 106.882 44.0283C107.004 44.3991 107.178 44.7256 107.405 45.0078C107.637 45.29 107.917 45.5114 108.243 45.6719C108.575 45.8324 108.951 45.9126 109.372 45.9126C109.914 45.9126 110.374 45.8019 110.75 45.5806C111.126 45.3592 111.456 45.0632 111.738 44.6924L112.667 45.4312C112.474 45.7244 112.228 46.0039 111.929 46.2695C111.63 46.5352 111.262 46.751 110.825 46.917C110.393 47.083 109.881 47.166 109.289 47.166ZM118.171 45.9043C118.536 45.9043 118.874 45.8296 119.184 45.6802C119.493 45.5308 119.748 45.326 119.947 45.0659C120.146 44.8003 120.26 44.4987 120.288 44.1611H121.749C121.721 44.6924 121.541 45.1877 121.209 45.647C120.882 46.1007 120.454 46.4688 119.922 46.751C119.391 47.0277 118.807 47.166 118.171 47.166C117.496 47.166 116.906 47.047 116.403 46.8091C115.905 46.5711 115.49 46.2446 115.158 45.8296C114.831 45.4146 114.585 44.9386 114.419 44.4019C114.258 43.8595 114.178 43.2868 114.178 42.6836V42.335C114.178 41.7318 114.258 41.1618 114.419 40.625C114.585 40.0827 114.831 39.604 115.158 39.189C115.49 38.7739 115.905 38.4474 116.403 38.2095C116.906 37.9715 117.496 37.8525 118.171 37.8525C118.874 37.8525 119.488 37.9964 120.014 38.2842C120.539 38.5664 120.952 38.9538 121.25 39.4463C121.555 39.9333 121.721 40.4867 121.749 41.1064H120.288C120.26 40.7357 120.155 40.4009 119.972 40.1021C119.795 39.8032 119.552 39.5653 119.242 39.3882C118.937 39.2056 118.58 39.1143 118.171 39.1143C117.701 39.1143 117.305 39.2083 116.984 39.3965C116.668 39.5791 116.417 39.8281 116.229 40.1436C116.046 40.4535 115.913 40.7993 115.83 41.1812C115.753 41.5575 115.714 41.9421 115.714 42.335V42.6836C115.714 43.0765 115.753 43.4639 115.83 43.8457C115.908 44.2275 116.038 44.5734 116.22 44.8833C116.408 45.1932 116.66 45.4422 116.976 45.6304C117.297 45.813 117.695 45.9043 118.171 45.9043ZM128.97 44.9248V38.0186H130.514V47H129.045L128.97 44.9248ZM129.261 43.0322L129.9 43.0156C129.9 43.6133 129.836 44.1667 129.709 44.6758C129.587 45.1794 129.388 45.6165 129.111 45.9873C128.835 46.3581 128.472 46.6486 128.024 46.8589C127.576 47.0636 127.031 47.166 126.389 47.166C125.951 47.166 125.55 47.1024 125.185 46.9751C124.825 46.8478 124.515 46.6514 124.255 46.3857C123.995 46.1201 123.793 45.7743 123.649 45.3481C123.511 44.922 123.442 44.4102 123.442 43.8125V38.0186H124.978V43.8291C124.978 44.2331 125.022 44.5679 125.11 44.8335C125.204 45.0936 125.329 45.3011 125.484 45.4561C125.644 45.6055 125.821 45.7106 126.015 45.7715C126.214 45.8324 126.419 45.8628 126.629 45.8628C127.282 45.8628 127.8 45.7383 128.182 45.4893C128.563 45.2347 128.837 44.8944 129.003 44.4683C129.175 44.0366 129.261 43.5579 129.261 43.0322ZM134.391 39.4297V47H132.855V38.0186H134.349L134.391 39.4297ZM137.196 37.9688L137.188 39.3965C137.061 39.3688 136.939 39.3522 136.823 39.3467C136.712 39.3356 136.585 39.3301 136.441 39.3301C136.087 39.3301 135.774 39.3854 135.503 39.4961C135.232 39.6068 135.002 39.7617 134.814 39.9609C134.626 40.1602 134.476 40.3981 134.366 40.6748C134.261 40.946 134.191 41.2448 134.158 41.5713L133.727 41.8203C133.727 41.278 133.779 40.7689 133.884 40.293C133.995 39.8171 134.164 39.3965 134.391 39.0312C134.618 38.6605 134.905 38.3727 135.254 38.168C135.608 37.9577 136.029 37.8525 136.516 37.8525C136.626 37.8525 136.754 37.8664 136.897 37.894C137.041 37.9162 137.141 37.9411 137.196 37.9688ZM142.177 47.166C141.551 47.166 140.984 47.0609 140.475 46.8506C139.972 46.6348 139.537 46.3332 139.172 45.9458C138.812 45.5584 138.535 45.0991 138.342 44.5679C138.148 44.0366 138.051 43.4556 138.051 42.8247V42.4761C138.051 41.7456 138.159 41.0954 138.375 40.5254C138.591 39.9499 138.884 39.4629 139.255 39.0645C139.626 38.666 140.046 38.3644 140.517 38.1597C140.987 37.9549 141.474 37.8525 141.978 37.8525C142.619 37.8525 143.173 37.9632 143.638 38.1846C144.108 38.4059 144.493 38.7158 144.792 39.1143C145.09 39.5072 145.312 39.972 145.456 40.5088C145.599 41.04 145.671 41.6211 145.671 42.252V42.9409H138.964V41.6875H144.136V41.5713C144.114 41.1729 144.031 40.7855 143.887 40.4092C143.748 40.0329 143.527 39.723 143.223 39.4795C142.918 39.236 142.503 39.1143 141.978 39.1143C141.629 39.1143 141.308 39.189 141.015 39.3384C140.721 39.4823 140.47 39.6981 140.259 39.9858C140.049 40.2736 139.886 40.625 139.77 41.04C139.653 41.4551 139.595 41.9338 139.595 42.4761V42.8247C139.595 43.2508 139.653 43.652 139.77 44.0283C139.891 44.3991 140.066 44.7256 140.292 45.0078C140.525 45.29 140.804 45.5114 141.131 45.6719C141.463 45.8324 141.839 45.9126 142.26 45.9126C142.802 45.9126 143.261 45.8019 143.638 45.5806C144.014 45.3592 144.343 45.0632 144.625 44.6924L145.555 45.4312C145.361 45.7244 145.115 46.0039 144.816 46.2695C144.518 46.5352 144.15 46.751 143.712 46.917C143.281 47.083 142.769 47.166 142.177 47.166Z" fill="#DD3322"/>
<circle cx="48" cy="41" r="9" stroke="#DD3322" stroke-width="2"/>
<line x1="48" y1="46" x2="48" y2="44" stroke="#DD3322" stroke-width="2"/>
<line x1="48" y1="42" x2="48" y2="36" stroke="#DD3322" stroke-width="2"/>
</svg>
