<svg width="380" height="37" viewBox="0 0 380 37" fill="none" xmlns="http://www.w3.org/2000/svg">
<rect x="0.5" y="0.5" width="379" height="36" rx="3.5" fill="white" stroke="#AAAAAA"/>
<path d="M139.706 12.25V25H138.17V12.25H139.706ZM139.341 20.1689L138.702 20.144C138.707 19.5298 138.799 18.9626 138.976 18.4424C139.153 17.9167 139.402 17.4601 139.723 17.0728C140.044 16.6854 140.425 16.3866 140.868 16.1763C141.316 15.9604 141.812 15.8525 142.354 15.8525C142.797 15.8525 143.195 15.9134 143.549 16.0352C143.903 16.1514 144.205 16.3395 144.454 16.5996C144.709 16.8597 144.902 17.1973 145.035 17.6123C145.168 18.0218 145.234 18.5226 145.234 19.1147V25H143.69V19.0981C143.69 18.6278 143.621 18.2515 143.483 17.9692C143.345 17.6815 143.143 17.474 142.877 17.3467C142.611 17.2139 142.285 17.1475 141.897 17.1475C141.516 17.1475 141.167 17.2277 140.852 17.3882C140.542 17.5487 140.273 17.77 140.046 18.0522C139.825 18.3345 139.651 18.6582 139.523 19.0234C139.402 19.3831 139.341 19.765 139.341 20.1689ZM151.294 16.0186V17.1973H146.438V16.0186H151.294ZM148.082 13.8354H149.617V22.7754C149.617 23.0798 149.664 23.3094 149.758 23.4644C149.852 23.6193 149.974 23.7217 150.124 23.7715C150.273 23.8213 150.433 23.8462 150.605 23.8462C150.732 23.8462 150.865 23.8351 151.003 23.813C151.147 23.7853 151.255 23.7632 151.327 23.7466L151.335 25C151.214 25.0387 151.053 25.0747 150.854 25.1079C150.66 25.1466 150.425 25.166 150.148 25.166C149.772 25.166 149.426 25.0913 149.111 24.9419C148.795 24.7925 148.544 24.5435 148.355 24.1948C148.173 23.8407 148.082 23.3647 148.082 22.7671V13.8354ZM156.855 16.0186V17.1973H152V16.0186H156.855ZM153.643 13.8354H155.179V22.7754C155.179 23.0798 155.226 23.3094 155.32 23.4644C155.414 23.6193 155.536 23.7217 155.685 23.7715C155.834 23.8213 155.995 23.8462 156.167 23.8462C156.294 23.8462 156.427 23.8351 156.565 23.813C156.709 23.7853 156.817 23.7632 156.889 23.7466L156.897 25C156.775 25.0387 156.615 25.0747 156.416 25.1079C156.222 25.1466 155.987 25.166 155.71 25.166C155.334 25.166 154.988 25.0913 154.672 24.9419C154.357 24.7925 154.105 24.5435 153.917 24.1948C153.734 23.8407 153.643 23.3647 153.643 22.7671V13.8354ZM160.192 17.7451V28.4531H158.648V16.0186H160.06L160.192 17.7451ZM166.244 20.4346V20.6089C166.244 21.2619 166.166 21.8678 166.011 22.4268C165.856 22.9801 165.629 23.4616 165.331 23.8711C165.037 24.2806 164.675 24.5988 164.243 24.8257C163.812 25.0526 163.316 25.166 162.757 25.166C162.187 25.166 161.684 25.0719 161.247 24.8838C160.809 24.6956 160.439 24.4217 160.134 24.062C159.83 23.7023 159.586 23.2707 159.404 22.7671C159.227 22.2635 159.105 21.6963 159.039 21.0654V20.1357C159.105 19.4717 159.229 18.8768 159.412 18.3511C159.595 17.8254 159.835 17.3771 160.134 17.0063C160.439 16.63 160.807 16.3451 161.238 16.1514C161.67 15.9521 162.168 15.8525 162.732 15.8525C163.297 15.8525 163.798 15.9632 164.235 16.1846C164.672 16.4004 165.04 16.7103 165.339 17.1143C165.638 17.5182 165.862 18.0024 166.011 18.5669C166.166 19.1258 166.244 19.7484 166.244 20.4346ZM164.7 20.6089V20.4346C164.7 19.9863 164.653 19.5658 164.559 19.1729C164.465 18.7744 164.318 18.4258 164.119 18.127C163.925 17.8226 163.676 17.5846 163.372 17.4131C163.067 17.236 162.705 17.1475 162.284 17.1475C161.897 17.1475 161.559 17.2139 161.271 17.3467C160.989 17.4795 160.749 17.6593 160.549 17.8862C160.35 18.1076 160.187 18.3621 160.06 18.6499C159.938 18.9321 159.847 19.2254 159.786 19.5298V21.6797C159.896 22.0671 160.051 22.4323 160.25 22.7754C160.45 23.113 160.715 23.3869 161.047 23.5972C161.379 23.8019 161.797 23.9043 162.301 23.9043C162.716 23.9043 163.073 23.8185 163.372 23.647C163.676 23.4699 163.925 23.2292 164.119 22.9248C164.318 22.6204 164.465 22.2718 164.559 21.8789C164.653 21.4805 164.7 21.0571 164.7 20.6089ZM168.136 24.1865C168.136 23.9264 168.216 23.7078 168.377 23.5308C168.543 23.3481 168.781 23.2568 169.091 23.2568C169.401 23.2568 169.636 23.3481 169.796 23.5308C169.962 23.7078 170.045 23.9264 170.045 24.1865C170.045 24.4411 169.962 24.6569 169.796 24.834C169.636 25.0111 169.401 25.0996 169.091 25.0996C168.781 25.0996 168.543 25.0111 168.377 24.834C168.216 24.6569 168.136 24.4411 168.136 24.1865ZM168.145 16.8569C168.145 16.5968 168.225 16.3783 168.385 16.2012C168.551 16.0186 168.789 15.9272 169.099 15.9272C169.409 15.9272 169.644 16.0186 169.805 16.2012C169.971 16.3783 170.054 16.5968 170.054 16.8569C170.054 17.1115 169.971 17.3273 169.805 17.5044C169.644 17.6815 169.409 17.77 169.099 17.77C168.789 17.77 168.551 17.6815 168.385 17.5044C168.225 17.3273 168.145 17.1115 168.145 16.8569ZM177.666 12.9141L172.627 26.0376H171.307L176.354 12.9141H177.666ZM182.829 12.9141L177.79 26.0376H176.47L181.517 12.9141H182.829ZM188.232 25.166C187.607 25.166 187.04 25.0609 186.531 24.8506C186.027 24.6348 185.593 24.3332 185.228 23.9458C184.868 23.5584 184.591 23.0991 184.397 22.5679C184.204 22.0366 184.107 21.4556 184.107 20.8247V20.4761C184.107 19.7456 184.215 19.0954 184.431 18.5254C184.646 17.9499 184.94 17.4629 185.311 17.0645C185.681 16.666 186.102 16.3644 186.572 16.1597C187.043 15.9549 187.53 15.8525 188.033 15.8525C188.675 15.8525 189.229 15.9632 189.693 16.1846C190.164 16.4059 190.548 16.7158 190.847 17.1143C191.146 17.5072 191.367 17.972 191.511 18.5088C191.655 19.04 191.727 19.6211 191.727 20.252V20.9409H185.02V19.6875H190.191V19.5713C190.169 19.1729 190.086 18.7855 189.942 18.4092C189.804 18.0329 189.583 17.723 189.278 17.4795C188.974 17.236 188.559 17.1143 188.033 17.1143C187.685 17.1143 187.364 17.189 187.07 17.3384C186.777 17.4823 186.525 17.6981 186.315 17.9858C186.105 18.2736 185.941 18.625 185.825 19.04C185.709 19.4551 185.651 19.9338 185.651 20.4761V20.8247C185.651 21.2508 185.709 21.652 185.825 22.0283C185.947 22.3991 186.121 22.7256 186.348 23.0078C186.581 23.29 186.86 23.5114 187.187 23.6719C187.519 23.8324 187.895 23.9126 188.315 23.9126C188.858 23.9126 189.317 23.8019 189.693 23.5806C190.07 23.3592 190.399 23.0632 190.681 22.6924L191.611 23.4312C191.417 23.7244 191.171 24.0039 190.872 24.2695C190.573 24.5352 190.205 24.751 189.768 24.917C189.336 25.083 188.825 25.166 188.232 25.166ZM194.558 16.0186L196.525 19.2891L198.517 16.0186H200.318L197.38 20.4512L200.41 25H198.633L196.558 21.6299L194.483 25H192.698L195.72 20.4512L192.79 16.0186H194.558ZM207.25 23.4644V18.8408C207.25 18.4867 207.178 18.1795 207.034 17.9194C206.895 17.6538 206.685 17.4491 206.403 17.3052C206.121 17.1613 205.772 17.0894 205.357 17.0894C204.97 17.0894 204.629 17.1558 204.336 17.2886C204.048 17.4214 203.821 17.5957 203.655 17.8115C203.495 18.0273 203.415 18.2598 203.415 18.5088H201.879C201.879 18.1878 201.962 17.8696 202.128 17.5542C202.294 17.2388 202.532 16.9538 202.842 16.6992C203.157 16.4391 203.534 16.2344 203.971 16.085C204.413 15.93 204.906 15.8525 205.448 15.8525C206.101 15.8525 206.677 15.9632 207.175 16.1846C207.678 16.4059 208.071 16.7407 208.354 17.189C208.641 17.6317 208.785 18.1878 208.785 18.8574V23.041C208.785 23.3398 208.81 23.658 208.86 23.9956C208.915 24.3332 208.995 24.6237 209.101 24.8672V25H207.499C207.421 24.8229 207.36 24.5877 207.316 24.2944C207.272 23.9956 207.25 23.7189 207.25 23.4644ZM207.515 19.5547L207.532 20.6338H205.979C205.542 20.6338 205.152 20.6698 204.809 20.7417C204.466 20.8081 204.178 20.9105 203.946 21.0488C203.713 21.1872 203.536 21.3615 203.415 21.5718C203.293 21.7765 203.232 22.0173 203.232 22.2939C203.232 22.5762 203.296 22.8335 203.423 23.0659C203.55 23.2983 203.741 23.4837 203.996 23.6221C204.256 23.7549 204.574 23.8213 204.95 23.8213C205.421 23.8213 205.836 23.7217 206.195 23.5225C206.555 23.3232 206.84 23.0798 207.05 22.792C207.266 22.5042 207.382 22.2248 207.399 21.9536L208.055 22.6924C208.016 22.9248 207.911 23.1821 207.739 23.4644C207.568 23.7466 207.338 24.0177 207.05 24.2778C206.768 24.5324 206.431 24.7454 206.038 24.917C205.65 25.083 205.213 25.166 204.726 25.166C204.117 25.166 203.583 25.047 203.124 24.8091C202.67 24.5711 202.316 24.2529 202.062 23.8545C201.812 23.4505 201.688 22.9995 201.688 22.5015C201.688 22.02 201.782 21.5967 201.97 21.2314C202.158 20.8607 202.43 20.5535 202.784 20.3101C203.138 20.061 203.564 19.8729 204.062 19.7456C204.56 19.6183 205.116 19.5547 205.73 19.5547H207.515ZM212.728 17.8032V25H211.184V16.0186H212.645L212.728 17.8032ZM212.413 20.1689L211.699 20.144C211.704 19.5298 211.785 18.9626 211.939 18.4424C212.094 17.9167 212.324 17.4601 212.628 17.0728C212.933 16.6854 213.312 16.3866 213.766 16.1763C214.219 15.9604 214.745 15.8525 215.343 15.8525C215.763 15.8525 216.151 15.9134 216.505 16.0352C216.859 16.1514 217.166 16.3368 217.426 16.5913C217.686 16.8459 217.888 17.1724 218.032 17.5708C218.176 17.9692 218.248 18.4507 218.248 19.0151V25H216.712V19.0898C216.712 18.6195 216.632 18.2432 216.472 17.9609C216.317 17.6787 216.095 17.474 215.808 17.3467C215.52 17.2139 215.182 17.1475 214.795 17.1475C214.341 17.1475 213.962 17.2277 213.658 17.3882C213.353 17.5487 213.11 17.77 212.927 18.0522C212.745 18.3345 212.612 18.6582 212.529 19.0234C212.451 19.3831 212.413 19.765 212.413 20.1689ZM218.231 19.3223L217.202 19.6377C217.208 19.1452 217.288 18.672 217.443 18.2183C217.603 17.7645 217.833 17.3605 218.132 17.0063C218.436 16.6522 218.81 16.3727 219.252 16.168C219.695 15.9577 220.201 15.8525 220.771 15.8525C221.253 15.8525 221.679 15.9162 222.05 16.0435C222.426 16.1707 222.742 16.3672 222.996 16.6328C223.256 16.8929 223.453 17.2277 223.585 17.6372C223.718 18.0467 223.785 18.5337 223.785 19.0981V25H222.241V19.0815C222.241 18.578 222.16 18.1878 222 17.9111C221.845 17.6289 221.624 17.4325 221.336 17.3218C221.054 17.2056 220.716 17.1475 220.323 17.1475C219.986 17.1475 219.687 17.2056 219.427 17.3218C219.167 17.438 218.948 17.5985 218.771 17.8032C218.594 18.0024 218.458 18.2321 218.364 18.4922C218.276 18.7523 218.231 19.029 218.231 19.3223ZM227.645 17.7451V28.4531H226.101V16.0186H227.512L227.645 17.7451ZM233.696 20.4346V20.6089C233.696 21.2619 233.618 21.8678 233.463 22.4268C233.308 22.9801 233.082 23.4616 232.783 23.8711C232.489 24.2806 232.127 24.5988 231.695 24.8257C231.264 25.0526 230.768 25.166 230.209 25.166C229.639 25.166 229.136 25.0719 228.699 24.8838C228.262 24.6956 227.891 24.4217 227.586 24.062C227.282 23.7023 227.039 23.2707 226.856 22.7671C226.679 22.2635 226.557 21.6963 226.491 21.0654V20.1357C226.557 19.4717 226.682 18.8768 226.864 18.3511C227.047 17.8254 227.288 17.3771 227.586 17.0063C227.891 16.63 228.259 16.3451 228.69 16.1514C229.122 15.9521 229.62 15.8525 230.185 15.8525C230.749 15.8525 231.25 15.9632 231.687 16.1846C232.124 16.4004 232.492 16.7103 232.791 17.1143C233.09 17.5182 233.314 18.0024 233.463 18.5669C233.618 19.1258 233.696 19.7484 233.696 20.4346ZM232.152 20.6089V20.4346C232.152 19.9863 232.105 19.5658 232.011 19.1729C231.917 18.7744 231.77 18.4258 231.571 18.127C231.377 17.8226 231.128 17.5846 230.824 17.4131C230.519 17.236 230.157 17.1475 229.736 17.1475C229.349 17.1475 229.011 17.2139 228.724 17.3467C228.441 17.4795 228.201 17.6593 228.001 17.8862C227.802 18.1076 227.639 18.3621 227.512 18.6499C227.39 18.9321 227.299 19.2254 227.238 19.5298V21.6797C227.348 22.0671 227.503 22.4323 227.703 22.7754C227.902 23.113 228.167 23.3869 228.5 23.5972C228.832 23.8019 229.249 23.9043 229.753 23.9043C230.168 23.9043 230.525 23.8185 230.824 23.647C231.128 23.4699 231.377 23.2292 231.571 22.9248C231.77 22.6204 231.917 22.2718 232.011 21.8789C232.105 21.4805 232.152 21.0571 232.152 20.6089ZM237.323 12.25V25H235.779V12.25H237.323ZM243.516 25.166C242.89 25.166 242.323 25.0609 241.814 24.8506C241.31 24.6348 240.876 24.3332 240.511 23.9458C240.151 23.5584 239.874 23.0991 239.681 22.5679C239.487 22.0366 239.39 21.4556 239.39 20.8247V20.4761C239.39 19.7456 239.498 19.0954 239.714 18.5254C239.93 17.9499 240.223 17.4629 240.594 17.0645C240.965 16.666 241.385 16.3644 241.855 16.1597C242.326 15.9549 242.813 15.8525 243.316 15.8525C243.958 15.8525 244.512 15.9632 244.977 16.1846C245.447 16.4059 245.832 16.7158 246.13 17.1143C246.429 17.5072 246.651 17.972 246.794 18.5088C246.938 19.04 247.01 19.6211 247.01 20.252V20.9409H240.303V19.6875H245.475V19.5713C245.452 19.1729 245.369 18.7855 245.226 18.4092C245.087 18.0329 244.866 17.723 244.562 17.4795C244.257 17.236 243.842 17.1143 243.316 17.1143C242.968 17.1143 242.647 17.189 242.354 17.3384C242.06 17.4823 241.808 17.6981 241.598 17.9858C241.388 18.2736 241.225 18.625 241.108 19.04C240.992 19.4551 240.934 19.9338 240.934 20.4761V20.8247C240.934 21.2508 240.992 21.652 241.108 22.0283C241.23 22.3991 241.404 22.7256 241.631 23.0078C241.864 23.29 242.143 23.5114 242.47 23.6719C242.802 23.8324 243.178 23.9126 243.599 23.9126C244.141 23.9126 244.6 23.8019 244.977 23.5806C245.353 23.3592 245.682 23.0632 245.964 22.6924L246.894 23.4312C246.7 23.7244 246.454 24.0039 246.155 24.2695C245.856 24.5352 245.488 24.751 245.051 24.917C244.62 25.083 244.108 25.166 243.516 25.166ZM248.828 24.1865C248.828 23.9264 248.908 23.7078 249.069 23.5308C249.235 23.3481 249.473 23.2568 249.783 23.2568C250.093 23.2568 250.328 23.3481 250.488 23.5308C250.654 23.7078 250.737 23.9264 250.737 24.1865C250.737 24.4411 250.654 24.6569 250.488 24.834C250.328 25.0111 250.093 25.0996 249.783 25.0996C249.473 25.0996 249.235 25.0111 249.069 24.834C248.908 24.6569 248.828 24.4411 248.828 24.1865ZM256.88 23.9043C257.245 23.9043 257.583 23.8296 257.893 23.6802C258.202 23.5308 258.457 23.326 258.656 23.0659C258.855 22.8003 258.969 22.4987 258.997 22.1611H260.458C260.43 22.6924 260.25 23.1877 259.918 23.647C259.591 24.1007 259.163 24.4688 258.631 24.751C258.1 25.0277 257.516 25.166 256.88 25.166C256.205 25.166 255.615 25.047 255.112 24.8091C254.614 24.5711 254.199 24.2446 253.867 23.8296C253.54 23.4146 253.294 22.9386 253.128 22.4019C252.967 21.8595 252.887 21.2868 252.887 20.6836V20.335C252.887 19.7318 252.967 19.1618 253.128 18.625C253.294 18.0827 253.54 17.604 253.867 17.189C254.199 16.7739 254.614 16.4474 255.112 16.2095C255.615 15.9715 256.205 15.8525 256.88 15.8525C257.583 15.8525 258.197 15.9964 258.723 16.2842C259.248 16.5664 259.661 16.9538 259.959 17.4463C260.264 17.9333 260.43 18.4867 260.458 19.1064H258.997C258.969 18.7357 258.864 18.4009 258.681 18.1021C258.504 17.8032 258.261 17.5653 257.951 17.3882C257.646 17.2056 257.289 17.1143 256.88 17.1143C256.41 17.1143 256.014 17.2083 255.693 17.3965C255.377 17.5791 255.126 17.8281 254.938 18.1436C254.755 18.4535 254.622 18.7993 254.539 19.1812C254.462 19.5575 254.423 19.9421 254.423 20.335V20.6836C254.423 21.0765 254.462 21.4639 254.539 21.8457C254.617 22.2275 254.747 22.5734 254.929 22.8833C255.117 23.1932 255.369 23.4422 255.685 23.6304C256.006 23.813 256.404 23.9043 256.88 23.9043ZM261.777 20.6089V20.418C261.777 19.7705 261.871 19.1701 262.06 18.6167C262.248 18.0578 262.519 17.5736 262.873 17.1641C263.227 16.749 263.656 16.4281 264.16 16.2012C264.663 15.9688 265.228 15.8525 265.853 15.8525C266.484 15.8525 267.051 15.9688 267.555 16.2012C268.064 16.4281 268.495 16.749 268.85 17.1641C269.209 17.5736 269.483 18.0578 269.671 18.6167C269.86 19.1701 269.954 19.7705 269.954 20.418V20.6089C269.954 21.2563 269.86 21.8568 269.671 22.4102C269.483 22.9635 269.209 23.4478 268.85 23.8628C268.495 24.2723 268.067 24.5933 267.563 24.8257C267.065 25.0526 266.5 25.166 265.87 25.166C265.239 25.166 264.672 25.0526 264.168 24.8257C263.664 24.5933 263.233 24.2723 262.873 23.8628C262.519 23.4478 262.248 22.9635 262.06 22.4102C261.871 21.8568 261.777 21.2563 261.777 20.6089ZM263.313 20.418V20.6089C263.313 21.0571 263.366 21.4805 263.471 21.8789C263.576 22.2718 263.734 22.6204 263.944 22.9248C264.16 23.2292 264.428 23.4699 264.749 23.647C265.07 23.8185 265.444 23.9043 265.87 23.9043C266.29 23.9043 266.658 23.8185 266.974 23.647C267.295 23.4699 267.56 23.2292 267.771 22.9248C267.981 22.6204 268.139 22.2718 268.244 21.8789C268.354 21.4805 268.41 21.0571 268.41 20.6089V20.418C268.41 19.9753 268.354 19.5575 268.244 19.1646C268.139 18.7661 267.978 18.4147 267.762 18.1104C267.552 17.8005 267.286 17.557 266.965 17.3799C266.65 17.2028 266.279 17.1143 265.853 17.1143C265.432 17.1143 265.062 17.2028 264.741 17.3799C264.425 17.557 264.16 17.8005 263.944 18.1104C263.734 18.4147 263.576 18.7661 263.471 19.1646C263.366 19.5575 263.313 19.9753 263.313 20.418ZM273.407 17.8032V25H271.863V16.0186H273.324L273.407 17.8032ZM273.091 20.1689L272.377 20.144C272.383 19.5298 272.463 18.9626 272.618 18.4424C272.773 17.9167 273.003 17.4601 273.307 17.0728C273.611 16.6854 273.991 16.3866 274.444 16.1763C274.898 15.9604 275.424 15.8525 276.021 15.8525C276.442 15.8525 276.829 15.9134 277.184 16.0352C277.538 16.1514 277.845 16.3368 278.105 16.5913C278.365 16.8459 278.567 17.1724 278.711 17.5708C278.855 17.9692 278.927 18.4507 278.927 19.0151V25H277.391V19.0898C277.391 18.6195 277.311 18.2432 277.15 17.9609C276.995 17.6787 276.774 17.474 276.486 17.3467C276.199 17.2139 275.861 17.1475 275.474 17.1475C275.02 17.1475 274.641 17.2277 274.336 17.3882C274.032 17.5487 273.789 17.77 273.606 18.0522C273.423 18.3345 273.291 18.6582 273.208 19.0234C273.13 19.3831 273.091 19.765 273.091 20.1689ZM278.91 19.3223L277.881 19.6377C277.886 19.1452 277.967 18.672 278.122 18.2183C278.282 17.7645 278.512 17.3605 278.811 17.0063C279.115 16.6522 279.488 16.3727 279.931 16.168C280.374 15.9577 280.88 15.8525 281.45 15.8525C281.932 15.8525 282.358 15.9162 282.729 16.0435C283.105 16.1707 283.42 16.3672 283.675 16.6328C283.935 16.8929 284.131 17.2277 284.264 17.6372C284.397 18.0467 284.463 18.5337 284.463 19.0981V25H282.919V19.0815C282.919 18.578 282.839 18.1878 282.679 17.9111C282.524 17.6289 282.302 17.4325 282.015 17.3218C281.732 17.2056 281.395 17.1475 281.002 17.1475C280.664 17.1475 280.366 17.2056 280.105 17.3218C279.845 17.438 279.627 17.5985 279.45 17.8032C279.273 18.0024 279.137 18.2321 279.043 18.4922C278.954 18.7523 278.91 19.029 278.91 19.3223Z" fill="#333333"/>
<line x1="127.5" y1="10" x2="127.5" y2="29" stroke="#AAAAAA"/>
<path d="M44.6997 12.9141V25H43.0894L37.0049 15.6782V25H35.4028V12.9141H37.0049L43.1143 22.2607V12.9141H44.6997ZM46.8994 20.6089V20.418C46.8994 19.7705 46.9935 19.1701 47.1816 18.6167C47.3698 18.0578 47.641 17.5736 47.9951 17.1641C48.3493 16.749 48.7782 16.4281 49.2817 16.2012C49.7853 15.9688 50.3498 15.8525 50.9751 15.8525C51.606 15.8525 52.1732 15.9688 52.6768 16.2012C53.1859 16.4281 53.6175 16.749 53.9717 17.1641C54.3314 17.5736 54.6053 18.0578 54.7935 18.6167C54.9816 19.1701 55.0757 19.7705 55.0757 20.418V20.6089C55.0757 21.2563 54.9816 21.8568 54.7935 22.4102C54.6053 22.9635 54.3314 23.4478 53.9717 23.8628C53.6175 24.2723 53.1886 24.5933 52.6851 24.8257C52.187 25.0526 51.6226 25.166 50.9917 25.166C50.3608 25.166 49.7936 25.0526 49.29 24.8257C48.7865 24.5933 48.3548 24.2723 47.9951 23.8628C47.641 23.4478 47.3698 22.9635 47.1816 22.4102C46.9935 21.8568 46.8994 21.2563 46.8994 20.6089ZM48.4351 20.418V20.6089C48.4351 21.0571 48.4876 21.4805 48.5928 21.8789C48.6979 22.2718 48.8556 22.6204 49.0659 22.9248C49.2817 23.2292 49.5501 23.4699 49.8711 23.647C50.1921 23.8185 50.5656 23.9043 50.9917 23.9043C51.4123 23.9043 51.7803 23.8185 52.0957 23.647C52.4167 23.4699 52.6823 23.2292 52.8926 22.9248C53.1029 22.6204 53.2606 22.2718 53.3657 21.8789C53.4764 21.4805 53.5317 21.0571 53.5317 20.6089V20.418C53.5317 19.9753 53.4764 19.5575 53.3657 19.1646C53.2606 18.7661 53.1001 18.4147 52.8843 18.1104C52.674 17.8005 52.4084 17.557 52.0874 17.3799C51.772 17.2028 51.4012 17.1143 50.9751 17.1143C50.5545 17.1143 50.1838 17.2028 49.8628 17.3799C49.5474 17.557 49.2817 17.8005 49.0659 18.1104C48.8556 18.4147 48.6979 18.7661 48.5928 19.1646C48.4876 19.5575 48.4351 19.9753 48.4351 20.418ZM60.7617 16.0186V17.1973H55.9058V16.0186H60.7617ZM57.5493 13.8354H59.085V22.7754C59.085 23.0798 59.132 23.3094 59.2261 23.4644C59.3201 23.6193 59.4419 23.7217 59.5913 23.7715C59.7407 23.8213 59.9012 23.8462 60.0728 23.8462C60.2 23.8462 60.3328 23.8351 60.4712 23.813C60.6151 23.7853 60.723 23.7632 60.7949 23.7466L60.8032 25C60.6815 25.0387 60.521 25.0747 60.3218 25.1079C60.1281 25.1466 59.8929 25.166 59.6162 25.166C59.2399 25.166 58.894 25.0913 58.5786 24.9419C58.2632 24.7925 58.0114 24.5435 57.8232 24.1948C57.6406 23.8407 57.5493 23.3647 57.5493 22.7671V13.8354ZM72.0093 22.6177C72.0093 22.3963 71.9595 22.1916 71.8599 22.0034C71.7658 21.8097 71.5693 21.6354 71.2705 21.4805C70.9772 21.32 70.5345 21.1816 69.9424 21.0654C69.4443 20.9603 68.9933 20.8358 68.5894 20.6919C68.1909 20.548 67.8506 20.3737 67.5684 20.1689C67.2917 19.9642 67.0786 19.7235 66.9292 19.4468C66.7798 19.1701 66.7051 18.8464 66.7051 18.4756C66.7051 18.1214 66.7826 17.7866 66.9375 17.4712C67.098 17.1558 67.3221 16.8763 67.6099 16.6328C67.9032 16.3893 68.2546 16.1984 68.6641 16.0601C69.0736 15.9217 69.5301 15.8525 70.0337 15.8525C70.7531 15.8525 71.3674 15.9798 71.8765 16.2344C72.3856 16.4889 72.7757 16.8293 73.0469 17.2554C73.318 17.6759 73.4536 18.1436 73.4536 18.6582H71.918C71.918 18.4092 71.8433 18.1685 71.6938 17.936C71.55 17.6981 71.3369 17.5016 71.0547 17.3467C70.778 17.1917 70.4377 17.1143 70.0337 17.1143C69.6076 17.1143 69.2617 17.1807 68.9961 17.3135C68.736 17.4408 68.5451 17.604 68.4233 17.8032C68.3071 18.0024 68.249 18.2127 68.249 18.4341C68.249 18.6001 68.2767 18.7495 68.332 18.8823C68.3929 19.0096 68.498 19.1286 68.6475 19.2393C68.7969 19.3444 69.0072 19.444 69.2783 19.5381C69.5495 19.6322 69.8953 19.7262 70.3159 19.8203C71.0519 19.9863 71.6579 20.1855 72.1338 20.418C72.6097 20.6504 72.9639 20.9354 73.1963 21.2729C73.4287 21.6105 73.5449 22.02 73.5449 22.5015C73.5449 22.8944 73.4619 23.2541 73.2959 23.5806C73.1354 23.9071 72.9002 24.1893 72.5903 24.4272C72.286 24.6597 71.9207 24.8423 71.4946 24.9751C71.0741 25.1024 70.6009 25.166 70.0752 25.166C69.2839 25.166 68.6143 25.0249 68.0664 24.7427C67.5186 24.4604 67.1035 24.0952 66.8213 23.647C66.5391 23.1987 66.3979 22.7256 66.3979 22.2275H67.9419C67.964 22.6481 68.0858 22.9829 68.3071 23.2319C68.5285 23.4754 68.7996 23.6497 69.1206 23.7549C69.4416 23.8545 69.7598 23.9043 70.0752 23.9043C70.4958 23.9043 70.8472 23.849 71.1294 23.7383C71.4172 23.6276 71.6357 23.4754 71.7852 23.2817C71.9346 23.0881 72.0093 22.8667 72.0093 22.6177ZM79.2891 25.166C78.6637 25.166 78.0965 25.0609 77.5874 24.8506C77.0838 24.6348 76.6494 24.3332 76.2842 23.9458C75.9245 23.5584 75.6478 23.0991 75.4541 22.5679C75.2604 22.0366 75.1636 21.4556 75.1636 20.8247V20.4761C75.1636 19.7456 75.2715 19.0954 75.4873 18.5254C75.7031 17.9499 75.9964 17.4629 76.3672 17.0645C76.738 16.666 77.1585 16.3644 77.6289 16.1597C78.0993 15.9549 78.5863 15.8525 79.0898 15.8525C79.7318 15.8525 80.2852 15.9632 80.75 16.1846C81.2204 16.4059 81.605 16.7158 81.9038 17.1143C82.2026 17.5072 82.424 17.972 82.5679 18.5088C82.7118 19.04 82.7837 19.6211 82.7837 20.252V20.9409H76.0767V19.6875H81.248V19.5713C81.2259 19.1729 81.1429 18.7855 80.999 18.4092C80.8607 18.0329 80.6393 17.723 80.335 17.4795C80.0306 17.236 79.6156 17.1143 79.0898 17.1143C78.7412 17.1143 78.4202 17.189 78.127 17.3384C77.8337 17.4823 77.5819 17.6981 77.3716 17.9858C77.1613 18.2736 76.998 18.625 76.8818 19.04C76.7656 19.4551 76.7075 19.9338 76.7075 20.4761V20.8247C76.7075 21.2508 76.7656 21.652 76.8818 22.0283C77.0036 22.3991 77.1779 22.7256 77.4048 23.0078C77.6372 23.29 77.9167 23.5114 78.2432 23.6719C78.5752 23.8324 78.9515 23.9126 79.3721 23.9126C79.9144 23.9126 80.3737 23.8019 80.75 23.5806C81.1263 23.3592 81.4556 23.0632 81.7378 22.6924L82.6675 23.4312C82.4738 23.7244 82.2275 24.0039 81.9287 24.2695C81.6299 24.5352 81.2619 24.751 80.8247 24.917C80.3931 25.083 79.8812 25.166 79.2891 25.166ZM88.1709 23.9043C88.5361 23.9043 88.8737 23.8296 89.1836 23.6802C89.4935 23.5308 89.748 23.326 89.9473 23.0659C90.1465 22.8003 90.2599 22.4987 90.2876 22.1611H91.7485C91.7209 22.6924 91.541 23.1877 91.209 23.647C90.8825 24.1007 90.4536 24.4688 89.9224 24.751C89.3911 25.0277 88.8073 25.166 88.1709 25.166C87.4958 25.166 86.9064 25.047 86.4028 24.8091C85.9048 24.5711 85.4897 24.2446 85.1577 23.8296C84.8312 23.4146 84.585 22.9386 84.4189 22.4019C84.2585 21.8595 84.1782 21.2868 84.1782 20.6836V20.335C84.1782 19.7318 84.2585 19.1618 84.4189 18.625C84.585 18.0827 84.8312 17.604 85.1577 17.189C85.4897 16.7739 85.9048 16.4474 86.4028 16.2095C86.9064 15.9715 87.4958 15.8525 88.1709 15.8525C88.8737 15.8525 89.488 15.9964 90.0137 16.2842C90.5394 16.5664 90.9517 16.9538 91.2505 17.4463C91.5549 17.9333 91.7209 18.4867 91.7485 19.1064H90.2876C90.2599 18.7357 90.1548 18.4009 89.9722 18.1021C89.7951 17.8032 89.5516 17.5653 89.2417 17.3882C88.9373 17.2056 88.5804 17.1143 88.1709 17.1143C87.7005 17.1143 87.3049 17.2083 86.9839 17.3965C86.6685 17.5791 86.4167 17.8281 86.2285 18.1436C86.0459 18.4535 85.9131 18.7993 85.8301 19.1812C85.7526 19.5575 85.7139 19.9421 85.7139 20.335V20.6836C85.7139 21.0765 85.7526 21.4639 85.8301 21.8457C85.9076 22.2275 86.0376 22.5734 86.2202 22.8833C86.4084 23.1932 86.6602 23.4422 86.9756 23.6304C87.2965 23.813 87.695 23.9043 88.1709 23.9043ZM98.9702 22.9248V16.0186H100.514V25H99.0449L98.9702 22.9248ZM99.2607 21.0322L99.8999 21.0156C99.8999 21.6133 99.8363 22.1667 99.709 22.6758C99.5872 23.1794 99.388 23.6165 99.1113 23.9873C98.8346 24.3581 98.4722 24.6486 98.0239 24.8589C97.5757 25.0636 97.0306 25.166 96.3887 25.166C95.9515 25.166 95.5503 25.1024 95.1851 24.9751C94.8254 24.8478 94.5155 24.6514 94.2554 24.3857C93.9953 24.1201 93.7933 23.7743 93.6494 23.3481C93.5111 22.922 93.4419 22.4102 93.4419 21.8125V16.0186H94.9775V21.8291C94.9775 22.2331 95.0218 22.5679 95.1104 22.8335C95.2044 23.0936 95.3289 23.3011 95.4839 23.4561C95.6444 23.6055 95.8215 23.7106 96.0151 23.7715C96.2144 23.8324 96.4191 23.8628 96.6294 23.8628C97.2824 23.8628 97.7998 23.7383 98.1816 23.4893C98.5635 23.2347 98.8374 22.8944 99.0034 22.4683C99.175 22.0366 99.2607 21.5579 99.2607 21.0322ZM104.391 17.4297V25H102.855V16.0186H104.349L104.391 17.4297ZM107.196 15.9688L107.188 17.3965C107.061 17.3688 106.939 17.3522 106.823 17.3467C106.712 17.3356 106.585 17.3301 106.441 17.3301C106.087 17.3301 105.774 17.3854 105.503 17.4961C105.232 17.6068 105.002 17.7617 104.814 17.9609C104.626 18.1602 104.476 18.3981 104.366 18.6748C104.261 18.946 104.191 19.2448 104.158 19.5713L103.727 19.8203C103.727 19.278 103.779 18.7689 103.884 18.293C103.995 17.8171 104.164 17.3965 104.391 17.0312C104.618 16.6605 104.905 16.3727 105.254 16.168C105.608 15.9577 106.029 15.8525 106.516 15.8525C106.626 15.8525 106.754 15.8664 106.897 15.894C107.041 15.9162 107.141 15.9411 107.196 15.9688ZM112.177 25.166C111.551 25.166 110.984 25.0609 110.475 24.8506C109.972 24.6348 109.537 24.3332 109.172 23.9458C108.812 23.5584 108.535 23.0991 108.342 22.5679C108.148 22.0366 108.051 21.4556 108.051 20.8247V20.4761C108.051 19.7456 108.159 19.0954 108.375 18.5254C108.591 17.9499 108.884 17.4629 109.255 17.0645C109.626 16.666 110.046 16.3644 110.517 16.1597C110.987 15.9549 111.474 15.8525 111.978 15.8525C112.619 15.8525 113.173 15.9632 113.638 16.1846C114.108 16.4059 114.493 16.7158 114.792 17.1143C115.09 17.5072 115.312 17.972 115.456 18.5088C115.599 19.04 115.671 19.6211 115.671 20.252V20.9409H108.964V19.6875H114.136V19.5713C114.114 19.1729 114.031 18.7855 113.887 18.4092C113.748 18.0329 113.527 17.723 113.223 17.4795C112.918 17.236 112.503 17.1143 111.978 17.1143C111.629 17.1143 111.308 17.189 111.015 17.3384C110.721 17.4823 110.47 17.6981 110.259 17.9858C110.049 18.2736 109.886 18.625 109.77 19.04C109.653 19.4551 109.595 19.9338 109.595 20.4761V20.8247C109.595 21.2508 109.653 21.652 109.77 22.0283C109.891 22.3991 110.066 22.7256 110.292 23.0078C110.525 23.29 110.804 23.5114 111.131 23.6719C111.463 23.8324 111.839 23.9126 112.26 23.9126C112.802 23.9126 113.261 23.8019 113.638 23.5806C114.014 23.3592 114.343 23.0632 114.625 22.6924L115.555 23.4312C115.361 23.7244 115.115 24.0039 114.816 24.2695C114.518 24.5352 114.15 24.751 113.712 24.917C113.281 25.083 112.769 25.166 112.177 25.166Z" fill="#DD3322"/>
<circle cx="18" cy="19" r="9" stroke="#DD3322" stroke-width="2"/>
<line x1="18" y1="24" x2="18" y2="22" stroke="#DD3322" stroke-width="2"/>
<line x1="18" y1="20" x2="18" y2="14" stroke="#DD3322" stroke-width="2"/>
</svg>
