<svg width="440" height="80" viewBox="0 0 440 80" fill="none" xmlns="http://www.w3.org/2000/svg">
<rect x="30.5" y="22.5" width="379" height="36" rx="3.5" fill="white" stroke="#AAAAAA"/>
<path d="M169.706 34.25V47H168.17V34.25H169.706ZM169.341 42.1689L168.702 42.144C168.707 41.5298 168.799 40.9626 168.976 40.4424C169.153 39.9167 169.402 39.4601 169.723 39.0728C170.044 38.6854 170.425 38.3866 170.868 38.1763C171.316 37.9604 171.812 37.8525 172.354 37.8525C172.797 37.8525 173.195 37.9134 173.549 38.0352C173.903 38.1514 174.205 38.3395 174.454 38.5996C174.709 38.8597 174.902 39.1973 175.035 39.6123C175.168 40.0218 175.234 40.5226 175.234 41.1147V47H173.69V41.0981C173.69 40.6278 173.621 40.2515 173.483 39.9692C173.345 39.6815 173.143 39.474 172.877 39.3467C172.611 39.2139 172.285 39.1475 171.897 39.1475C171.516 39.1475 171.167 39.2277 170.852 39.3882C170.542 39.5487 170.273 39.77 170.046 40.0522C169.825 40.3345 169.651 40.6582 169.523 41.0234C169.402 41.3831 169.341 41.765 169.341 42.1689ZM181.294 38.0186V39.1973H176.438V38.0186H181.294ZM178.082 35.8354H179.617V44.7754C179.617 45.0798 179.664 45.3094 179.758 45.4644C179.852 45.6193 179.974 45.7217 180.124 45.7715C180.273 45.8213 180.433 45.8462 180.605 45.8462C180.732 45.8462 180.865 45.8351 181.003 45.813C181.147 45.7853 181.255 45.7632 181.327 45.7466L181.335 47C181.214 47.0387 181.053 47.0747 180.854 47.1079C180.66 47.1466 180.425 47.166 180.148 47.166C179.772 47.166 179.426 47.0913 179.111 46.9419C178.795 46.7925 178.544 46.5435 178.355 46.1948C178.173 45.8407 178.082 45.3647 178.082 44.7671V35.8354ZM186.855 38.0186V39.1973H182V38.0186H186.855ZM183.643 35.8354H185.179V44.7754C185.179 45.0798 185.226 45.3094 185.32 45.4644C185.414 45.6193 185.536 45.7217 185.685 45.7715C185.834 45.8213 185.995 45.8462 186.167 45.8462C186.294 45.8462 186.427 45.8351 186.565 45.813C186.709 45.7853 186.817 45.7632 186.889 45.7466L186.897 47C186.775 47.0387 186.615 47.0747 186.416 47.1079C186.222 47.1466 185.987 47.166 185.71 47.166C185.334 47.166 184.988 47.0913 184.672 46.9419C184.357 46.7925 184.105 46.5435 183.917 46.1948C183.734 45.8407 183.643 45.3647 183.643 44.7671V35.8354ZM190.192 39.7451V50.4531H188.648V38.0186H190.06L190.192 39.7451ZM196.244 42.4346V42.6089C196.244 43.2619 196.166 43.8678 196.011 44.4268C195.856 44.9801 195.629 45.4616 195.331 45.8711C195.037 46.2806 194.675 46.5988 194.243 46.8257C193.812 47.0526 193.316 47.166 192.757 47.166C192.187 47.166 191.684 47.0719 191.247 46.8838C190.809 46.6956 190.439 46.4217 190.134 46.062C189.83 45.7023 189.586 45.2707 189.404 44.7671C189.227 44.2635 189.105 43.6963 189.039 43.0654V42.1357C189.105 41.4717 189.229 40.8768 189.412 40.3511C189.595 39.8254 189.835 39.3771 190.134 39.0063C190.439 38.63 190.807 38.3451 191.238 38.1514C191.67 37.9521 192.168 37.8525 192.732 37.8525C193.297 37.8525 193.798 37.9632 194.235 38.1846C194.672 38.4004 195.04 38.7103 195.339 39.1143C195.638 39.5182 195.862 40.0024 196.011 40.5669C196.166 41.1258 196.244 41.7484 196.244 42.4346ZM194.7 42.6089V42.4346C194.7 41.9863 194.653 41.5658 194.559 41.1729C194.465 40.7744 194.318 40.4258 194.119 40.127C193.925 39.8226 193.676 39.5846 193.372 39.4131C193.067 39.236 192.705 39.1475 192.284 39.1475C191.897 39.1475 191.559 39.2139 191.271 39.3467C190.989 39.4795 190.749 39.6593 190.549 39.8862C190.35 40.1076 190.187 40.3621 190.06 40.6499C189.938 40.9321 189.847 41.2254 189.786 41.5298V43.6797C189.896 44.0671 190.051 44.4323 190.25 44.7754C190.45 45.113 190.715 45.3869 191.047 45.5972C191.379 45.8019 191.797 45.9043 192.301 45.9043C192.716 45.9043 193.073 45.8185 193.372 45.647C193.676 45.4699 193.925 45.2292 194.119 44.9248C194.318 44.6204 194.465 44.2718 194.559 43.8789C194.653 43.4805 194.7 43.0571 194.7 42.6089ZM198.136 46.1865C198.136 45.9264 198.216 45.7078 198.377 45.5308C198.543 45.3481 198.781 45.2568 199.091 45.2568C199.401 45.2568 199.636 45.3481 199.796 45.5308C199.962 45.7078 200.045 45.9264 200.045 46.1865C200.045 46.4411 199.962 46.6569 199.796 46.834C199.636 47.0111 199.401 47.0996 199.091 47.0996C198.781 47.0996 198.543 47.0111 198.377 46.834C198.216 46.6569 198.136 46.4411 198.136 46.1865ZM198.145 38.8569C198.145 38.5968 198.225 38.3783 198.385 38.2012C198.551 38.0186 198.789 37.9272 199.099 37.9272C199.409 37.9272 199.644 38.0186 199.805 38.2012C199.971 38.3783 200.054 38.5968 200.054 38.8569C200.054 39.1115 199.971 39.3273 199.805 39.5044C199.644 39.6815 199.409 39.77 199.099 39.77C198.789 39.77 198.551 39.6815 198.385 39.5044C198.225 39.3273 198.145 39.1115 198.145 38.8569ZM207.666 34.9141L202.627 48.0376H201.307L206.354 34.9141H207.666ZM212.829 34.9141L207.79 48.0376H206.47L211.517 34.9141H212.829ZM218.232 47.166C217.607 47.166 217.04 47.0609 216.531 46.8506C216.027 46.6348 215.593 46.3332 215.228 45.9458C214.868 45.5584 214.591 45.0991 214.397 44.5679C214.204 44.0366 214.107 43.4556 214.107 42.8247V42.4761C214.107 41.7456 214.215 41.0954 214.431 40.5254C214.646 39.9499 214.94 39.4629 215.311 39.0645C215.681 38.666 216.102 38.3644 216.572 38.1597C217.043 37.9549 217.53 37.8525 218.033 37.8525C218.675 37.8525 219.229 37.9632 219.693 38.1846C220.164 38.4059 220.548 38.7158 220.847 39.1143C221.146 39.5072 221.367 39.972 221.511 40.5088C221.655 41.04 221.727 41.6211 221.727 42.252V42.9409H215.02V41.6875H220.191V41.5713C220.169 41.1729 220.086 40.7855 219.942 40.4092C219.804 40.0329 219.583 39.723 219.278 39.4795C218.974 39.236 218.559 39.1143 218.033 39.1143C217.685 39.1143 217.364 39.189 217.07 39.3384C216.777 39.4823 216.525 39.6981 216.315 39.9858C216.105 40.2736 215.941 40.625 215.825 41.04C215.709 41.4551 215.651 41.9338 215.651 42.4761V42.8247C215.651 43.2508 215.709 43.652 215.825 44.0283C215.947 44.3991 216.121 44.7256 216.348 45.0078C216.581 45.29 216.86 45.5114 217.187 45.6719C217.519 45.8324 217.895 45.9126 218.315 45.9126C218.858 45.9126 219.317 45.8019 219.693 45.5806C220.07 45.3592 220.399 45.0632 220.681 44.6924L221.611 45.4312C221.417 45.7244 221.171 46.0039 220.872 46.2695C220.573 46.5352 220.205 46.751 219.768 46.917C219.336 47.083 218.825 47.166 218.232 47.166ZM224.558 38.0186L226.525 41.2891L228.517 38.0186H230.318L227.38 42.4512L230.41 47H228.633L226.558 43.6299L224.483 47H222.698L225.72 42.4512L222.79 38.0186H224.558ZM237.25 45.4644V40.8408C237.25 40.4867 237.178 40.1795 237.034 39.9194C236.895 39.6538 236.685 39.4491 236.403 39.3052C236.121 39.1613 235.772 39.0894 235.357 39.0894C234.97 39.0894 234.629 39.1558 234.336 39.2886C234.048 39.4214 233.821 39.5957 233.655 39.8115C233.495 40.0273 233.415 40.2598 233.415 40.5088H231.879C231.879 40.1878 231.962 39.8696 232.128 39.5542C232.294 39.2388 232.532 38.9538 232.842 38.6992C233.157 38.4391 233.534 38.2344 233.971 38.085C234.413 37.93 234.906 37.8525 235.448 37.8525C236.101 37.8525 236.677 37.9632 237.175 38.1846C237.678 38.4059 238.071 38.7407 238.354 39.189C238.641 39.6317 238.785 40.1878 238.785 40.8574V45.041C238.785 45.3398 238.81 45.658 238.86 45.9956C238.915 46.3332 238.995 46.6237 239.101 46.8672V47H237.499C237.421 46.8229 237.36 46.5877 237.316 46.2944C237.272 45.9956 237.25 45.7189 237.25 45.4644ZM237.515 41.5547L237.532 42.6338H235.979C235.542 42.6338 235.152 42.6698 234.809 42.7417C234.466 42.8081 234.178 42.9105 233.946 43.0488C233.713 43.1872 233.536 43.3615 233.415 43.5718C233.293 43.7765 233.232 44.0173 233.232 44.2939C233.232 44.5762 233.296 44.8335 233.423 45.0659C233.55 45.2983 233.741 45.4837 233.996 45.6221C234.256 45.7549 234.574 45.8213 234.95 45.8213C235.421 45.8213 235.836 45.7217 236.195 45.5225C236.555 45.3232 236.84 45.0798 237.05 44.792C237.266 44.5042 237.382 44.2248 237.399 43.9536L238.055 44.6924C238.016 44.9248 237.911 45.1821 237.739 45.4644C237.568 45.7466 237.338 46.0177 237.05 46.2778C236.768 46.5324 236.431 46.7454 236.038 46.917C235.65 47.083 235.213 47.166 234.726 47.166C234.117 47.166 233.583 47.047 233.124 46.8091C232.67 46.5711 232.316 46.2529 232.062 45.8545C231.812 45.4505 231.688 44.9995 231.688 44.5015C231.688 44.02 231.782 43.5967 231.97 43.2314C232.158 42.8607 232.43 42.5535 232.784 42.3101C233.138 42.061 233.564 41.8729 234.062 41.7456C234.56 41.6183 235.116 41.5547 235.73 41.5547H237.515ZM242.728 39.8032V47H241.184V38.0186H242.645L242.728 39.8032ZM242.413 42.1689L241.699 42.144C241.704 41.5298 241.785 40.9626 241.939 40.4424C242.094 39.9167 242.324 39.4601 242.628 39.0728C242.933 38.6854 243.312 38.3866 243.766 38.1763C244.219 37.9604 244.745 37.8525 245.343 37.8525C245.763 37.8525 246.151 37.9134 246.505 38.0352C246.859 38.1514 247.166 38.3368 247.426 38.5913C247.686 38.8459 247.888 39.1724 248.032 39.5708C248.176 39.9692 248.248 40.4507 248.248 41.0151V47H246.712V41.0898C246.712 40.6195 246.632 40.2432 246.472 39.9609C246.317 39.6787 246.095 39.474 245.808 39.3467C245.52 39.2139 245.182 39.1475 244.795 39.1475C244.341 39.1475 243.962 39.2277 243.658 39.3882C243.353 39.5487 243.11 39.77 242.927 40.0522C242.745 40.3345 242.612 40.6582 242.529 41.0234C242.451 41.3831 242.413 41.765 242.413 42.1689ZM248.231 41.3223L247.202 41.6377C247.208 41.1452 247.288 40.672 247.443 40.2183C247.603 39.7645 247.833 39.3605 248.132 39.0063C248.436 38.6522 248.81 38.3727 249.252 38.168C249.695 37.9577 250.201 37.8525 250.771 37.8525C251.253 37.8525 251.679 37.9162 252.05 38.0435C252.426 38.1707 252.742 38.3672 252.996 38.6328C253.256 38.8929 253.453 39.2277 253.585 39.6372C253.718 40.0467 253.785 40.5337 253.785 41.0981V47H252.241V41.0815C252.241 40.578 252.16 40.1878 252 39.9111C251.845 39.6289 251.624 39.4325 251.336 39.3218C251.054 39.2056 250.716 39.1475 250.323 39.1475C249.986 39.1475 249.687 39.2056 249.427 39.3218C249.167 39.438 248.948 39.5985 248.771 39.8032C248.594 40.0024 248.458 40.2321 248.364 40.4922C248.276 40.7523 248.231 41.029 248.231 41.3223ZM257.645 39.7451V50.4531H256.101V38.0186H257.512L257.645 39.7451ZM263.696 42.4346V42.6089C263.696 43.2619 263.618 43.8678 263.463 44.4268C263.308 44.9801 263.082 45.4616 262.783 45.8711C262.489 46.2806 262.127 46.5988 261.695 46.8257C261.264 47.0526 260.768 47.166 260.209 47.166C259.639 47.166 259.136 47.0719 258.699 46.8838C258.262 46.6956 257.891 46.4217 257.586 46.062C257.282 45.7023 257.039 45.2707 256.856 44.7671C256.679 44.2635 256.557 43.6963 256.491 43.0654V42.1357C256.557 41.4717 256.682 40.8768 256.864 40.3511C257.047 39.8254 257.288 39.3771 257.586 39.0063C257.891 38.63 258.259 38.3451 258.69 38.1514C259.122 37.9521 259.62 37.8525 260.185 37.8525C260.749 37.8525 261.25 37.9632 261.687 38.1846C262.124 38.4004 262.492 38.7103 262.791 39.1143C263.09 39.5182 263.314 40.0024 263.463 40.5669C263.618 41.1258 263.696 41.7484 263.696 42.4346ZM262.152 42.6089V42.4346C262.152 41.9863 262.105 41.5658 262.011 41.1729C261.917 40.7744 261.77 40.4258 261.571 40.127C261.377 39.8226 261.128 39.5846 260.824 39.4131C260.519 39.236 260.157 39.1475 259.736 39.1475C259.349 39.1475 259.011 39.2139 258.724 39.3467C258.441 39.4795 258.201 39.6593 258.001 39.8862C257.802 40.1076 257.639 40.3621 257.512 40.6499C257.39 40.9321 257.299 41.2254 257.238 41.5298V43.6797C257.348 44.0671 257.503 44.4323 257.703 44.7754C257.902 45.113 258.167 45.3869 258.5 45.5972C258.832 45.8019 259.249 45.9043 259.753 45.9043C260.168 45.9043 260.525 45.8185 260.824 45.647C261.128 45.4699 261.377 45.2292 261.571 44.9248C261.77 44.6204 261.917 44.2718 262.011 43.8789C262.105 43.4805 262.152 43.0571 262.152 42.6089ZM267.323 34.25V47H265.779V34.25H267.323ZM273.516 47.166C272.89 47.166 272.323 47.0609 271.814 46.8506C271.31 46.6348 270.876 46.3332 270.511 45.9458C270.151 45.5584 269.874 45.0991 269.681 44.5679C269.487 44.0366 269.39 43.4556 269.39 42.8247V42.4761C269.39 41.7456 269.498 41.0954 269.714 40.5254C269.93 39.9499 270.223 39.4629 270.594 39.0645C270.965 38.666 271.385 38.3644 271.855 38.1597C272.326 37.9549 272.813 37.8525 273.316 37.8525C273.958 37.8525 274.512 37.9632 274.977 38.1846C275.447 38.4059 275.832 38.7158 276.13 39.1143C276.429 39.5072 276.651 39.972 276.794 40.5088C276.938 41.04 277.01 41.6211 277.01 42.252V42.9409H270.303V41.6875H275.475V41.5713C275.452 41.1729 275.369 40.7855 275.226 40.4092C275.087 40.0329 274.866 39.723 274.562 39.4795C274.257 39.236 273.842 39.1143 273.316 39.1143C272.968 39.1143 272.647 39.189 272.354 39.3384C272.06 39.4823 271.808 39.6981 271.598 39.9858C271.388 40.2736 271.225 40.625 271.108 41.04C270.992 41.4551 270.934 41.9338 270.934 42.4761V42.8247C270.934 43.2508 270.992 43.652 271.108 44.0283C271.23 44.3991 271.404 44.7256 271.631 45.0078C271.864 45.29 272.143 45.5114 272.47 45.6719C272.802 45.8324 273.178 45.9126 273.599 45.9126C274.141 45.9126 274.6 45.8019 274.977 45.5806C275.353 45.3592 275.682 45.0632 275.964 44.6924L276.894 45.4312C276.7 45.7244 276.454 46.0039 276.155 46.2695C275.856 46.5352 275.488 46.751 275.051 46.917C274.62 47.083 274.108 47.166 273.516 47.166ZM278.828 46.1865C278.828 45.9264 278.908 45.7078 279.069 45.5308C279.235 45.3481 279.473 45.2568 279.783 45.2568C280.093 45.2568 280.328 45.3481 280.488 45.5308C280.654 45.7078 280.737 45.9264 280.737 46.1865C280.737 46.4411 280.654 46.6569 280.488 46.834C280.328 47.0111 280.093 47.0996 279.783 47.0996C279.473 47.0996 279.235 47.0111 279.069 46.834C278.908 46.6569 278.828 46.4411 278.828 46.1865ZM286.88 45.9043C287.245 45.9043 287.583 45.8296 287.893 45.6802C288.202 45.5308 288.457 45.326 288.656 45.0659C288.855 44.8003 288.969 44.4987 288.997 44.1611H290.458C290.43 44.6924 290.25 45.1877 289.918 45.647C289.591 46.1007 289.163 46.4688 288.631 46.751C288.1 47.0277 287.516 47.166 286.88 47.166C286.205 47.166 285.615 47.047 285.112 46.8091C284.614 46.5711 284.199 46.2446 283.867 45.8296C283.54 45.4146 283.294 44.9386 283.128 44.4019C282.967 43.8595 282.887 43.2868 282.887 42.6836V42.335C282.887 41.7318 282.967 41.1618 283.128 40.625C283.294 40.0827 283.54 39.604 283.867 39.189C284.199 38.7739 284.614 38.4474 285.112 38.2095C285.615 37.9715 286.205 37.8525 286.88 37.8525C287.583 37.8525 288.197 37.9964 288.723 38.2842C289.248 38.5664 289.661 38.9538 289.959 39.4463C290.264 39.9333 290.43 40.4867 290.458 41.1064H288.997C288.969 40.7357 288.864 40.4009 288.681 40.1021C288.504 39.8032 288.261 39.5653 287.951 39.3882C287.646 39.2056 287.289 39.1143 286.88 39.1143C286.41 39.1143 286.014 39.2083 285.693 39.3965C285.377 39.5791 285.126 39.8281 284.938 40.1436C284.755 40.4535 284.622 40.7993 284.539 41.1812C284.462 41.5575 284.423 41.9421 284.423 42.335V42.6836C284.423 43.0765 284.462 43.4639 284.539 43.8457C284.617 44.2275 284.747 44.5734 284.929 44.8833C285.117 45.1932 285.369 45.4422 285.685 45.6304C286.006 45.813 286.404 45.9043 286.88 45.9043ZM291.777 42.6089V42.418C291.777 41.7705 291.871 41.1701 292.06 40.6167C292.248 40.0578 292.519 39.5736 292.873 39.1641C293.227 38.749 293.656 38.4281 294.16 38.2012C294.663 37.9688 295.228 37.8525 295.853 37.8525C296.484 37.8525 297.051 37.9688 297.555 38.2012C298.064 38.4281 298.495 38.749 298.85 39.1641C299.209 39.5736 299.483 40.0578 299.671 40.6167C299.86 41.1701 299.954 41.7705 299.954 42.418V42.6089C299.954 43.2563 299.86 43.8568 299.671 44.4102C299.483 44.9635 299.209 45.4478 298.85 45.8628C298.495 46.2723 298.067 46.5933 297.563 46.8257C297.065 47.0526 296.5 47.166 295.87 47.166C295.239 47.166 294.672 47.0526 294.168 46.8257C293.664 46.5933 293.233 46.2723 292.873 45.8628C292.519 45.4478 292.248 44.9635 292.06 44.4102C291.871 43.8568 291.777 43.2563 291.777 42.6089ZM293.313 42.418V42.6089C293.313 43.0571 293.366 43.4805 293.471 43.8789C293.576 44.2718 293.734 44.6204 293.944 44.9248C294.16 45.2292 294.428 45.4699 294.749 45.647C295.07 45.8185 295.444 45.9043 295.87 45.9043C296.29 45.9043 296.658 45.8185 296.974 45.647C297.295 45.4699 297.56 45.2292 297.771 44.9248C297.981 44.6204 298.139 44.2718 298.244 43.8789C298.354 43.4805 298.41 43.0571 298.41 42.6089V42.418C298.41 41.9753 298.354 41.5575 298.244 41.1646C298.139 40.7661 297.978 40.4147 297.762 40.1104C297.552 39.8005 297.286 39.557 296.965 39.3799C296.65 39.2028 296.279 39.1143 295.853 39.1143C295.432 39.1143 295.062 39.2028 294.741 39.3799C294.425 39.557 294.16 39.8005 293.944 40.1104C293.734 40.4147 293.576 40.7661 293.471 41.1646C293.366 41.5575 293.313 41.9753 293.313 42.418ZM303.407 39.8032V47H301.863V38.0186H303.324L303.407 39.8032ZM303.091 42.1689L302.377 42.144C302.383 41.5298 302.463 40.9626 302.618 40.4424C302.773 39.9167 303.003 39.4601 303.307 39.0728C303.611 38.6854 303.991 38.3866 304.444 38.1763C304.898 37.9604 305.424 37.8525 306.021 37.8525C306.442 37.8525 306.829 37.9134 307.184 38.0352C307.538 38.1514 307.845 38.3368 308.105 38.5913C308.365 38.8459 308.567 39.1724 308.711 39.5708C308.855 39.9692 308.927 40.4507 308.927 41.0151V47H307.391V41.0898C307.391 40.6195 307.311 40.2432 307.15 39.9609C306.995 39.6787 306.774 39.474 306.486 39.3467C306.199 39.2139 305.861 39.1475 305.474 39.1475C305.02 39.1475 304.641 39.2277 304.336 39.3882C304.032 39.5487 303.789 39.77 303.606 40.0522C303.423 40.3345 303.291 40.6582 303.208 41.0234C303.13 41.3831 303.091 41.765 303.091 42.1689ZM308.91 41.3223L307.881 41.6377C307.886 41.1452 307.967 40.672 308.122 40.2183C308.282 39.7645 308.512 39.3605 308.811 39.0063C309.115 38.6522 309.488 38.3727 309.931 38.168C310.374 37.9577 310.88 37.8525 311.45 37.8525C311.932 37.8525 312.358 37.9162 312.729 38.0435C313.105 38.1707 313.42 38.3672 313.675 38.6328C313.935 38.8929 314.131 39.2277 314.264 39.6372C314.397 40.0467 314.463 40.5337 314.463 41.0981V47H312.919V41.0815C312.919 40.578 312.839 40.1878 312.679 39.9111C312.524 39.6289 312.302 39.4325 312.015 39.3218C311.732 39.2056 311.395 39.1475 311.002 39.1475C310.664 39.1475 310.366 39.2056 310.105 39.3218C309.845 39.438 309.627 39.5985 309.45 39.8032C309.273 40.0024 309.137 40.2321 309.043 40.4922C308.954 40.7523 308.91 41.029 308.91 41.3223Z" fill="#333333"/>
<line x1="157.5" y1="32" x2="157.5" y2="51" stroke="#AAAAAA"/>
<path d="M74.6997 34.9141V47H73.0894L67.0049 37.6782V47H65.4028V34.9141H67.0049L73.1143 44.2607V34.9141H74.6997ZM76.8994 42.6089V42.418C76.8994 41.7705 76.9935 41.1701 77.1816 40.6167C77.3698 40.0578 77.641 39.5736 77.9951 39.1641C78.3493 38.749 78.7782 38.4281 79.2817 38.2012C79.7853 37.9688 80.3498 37.8525 80.9751 37.8525C81.606 37.8525 82.1732 37.9688 82.6768 38.2012C83.1859 38.4281 83.6175 38.749 83.9717 39.1641C84.3314 39.5736 84.6053 40.0578 84.7935 40.6167C84.9816 41.1701 85.0757 41.7705 85.0757 42.418V42.6089C85.0757 43.2563 84.9816 43.8568 84.7935 44.4102C84.6053 44.9635 84.3314 45.4478 83.9717 45.8628C83.6175 46.2723 83.1886 46.5933 82.6851 46.8257C82.187 47.0526 81.6226 47.166 80.9917 47.166C80.3608 47.166 79.7936 47.0526 79.29 46.8257C78.7865 46.5933 78.3548 46.2723 77.9951 45.8628C77.641 45.4478 77.3698 44.9635 77.1816 44.4102C76.9935 43.8568 76.8994 43.2563 76.8994 42.6089ZM78.4351 42.418V42.6089C78.4351 43.0571 78.4876 43.4805 78.5928 43.8789C78.6979 44.2718 78.8556 44.6204 79.0659 44.9248C79.2817 45.2292 79.5501 45.4699 79.8711 45.647C80.1921 45.8185 80.5656 45.9043 80.9917 45.9043C81.4123 45.9043 81.7803 45.8185 82.0957 45.647C82.4167 45.4699 82.6823 45.2292 82.8926 44.9248C83.1029 44.6204 83.2606 44.2718 83.3657 43.8789C83.4764 43.4805 83.5317 43.0571 83.5317 42.6089V42.418C83.5317 41.9753 83.4764 41.5575 83.3657 41.1646C83.2606 40.7661 83.1001 40.4147 82.8843 40.1104C82.674 39.8005 82.4084 39.557 82.0874 39.3799C81.772 39.2028 81.4012 39.1143 80.9751 39.1143C80.5545 39.1143 80.1838 39.2028 79.8628 39.3799C79.5474 39.557 79.2817 39.8005 79.0659 40.1104C78.8556 40.4147 78.6979 40.7661 78.5928 41.1646C78.4876 41.5575 78.4351 41.9753 78.4351 42.418ZM90.7617 38.0186V39.1973H85.9058V38.0186H90.7617ZM87.5493 35.8354H89.085V44.7754C89.085 45.0798 89.132 45.3094 89.2261 45.4644C89.3201 45.6193 89.4419 45.7217 89.5913 45.7715C89.7407 45.8213 89.9012 45.8462 90.0728 45.8462C90.2 45.8462 90.3328 45.8351 90.4712 45.813C90.6151 45.7853 90.723 45.7632 90.7949 45.7466L90.8032 47C90.6815 47.0387 90.521 47.0747 90.3218 47.1079C90.1281 47.1466 89.8929 47.166 89.6162 47.166C89.2399 47.166 88.894 47.0913 88.5786 46.9419C88.2632 46.7925 88.0114 46.5435 87.8232 46.1948C87.6406 45.8407 87.5493 45.3647 87.5493 44.7671V35.8354ZM102.009 44.6177C102.009 44.3963 101.959 44.1916 101.86 44.0034C101.766 43.8097 101.569 43.6354 101.271 43.4805C100.977 43.32 100.535 43.1816 99.9424 43.0654C99.4443 42.9603 98.9933 42.8358 98.5894 42.6919C98.1909 42.548 97.8506 42.3737 97.5684 42.1689C97.2917 41.9642 97.0786 41.7235 96.9292 41.4468C96.7798 41.1701 96.7051 40.8464 96.7051 40.4756C96.7051 40.1214 96.7826 39.7866 96.9375 39.4712C97.098 39.1558 97.3221 38.8763 97.6099 38.6328C97.9032 38.3893 98.2546 38.1984 98.6641 38.0601C99.0736 37.9217 99.5301 37.8525 100.034 37.8525C100.753 37.8525 101.367 37.9798 101.876 38.2344C102.386 38.4889 102.776 38.8293 103.047 39.2554C103.318 39.6759 103.454 40.1436 103.454 40.6582H101.918C101.918 40.4092 101.843 40.1685 101.694 39.936C101.55 39.6981 101.337 39.5016 101.055 39.3467C100.778 39.1917 100.438 39.1143 100.034 39.1143C99.6076 39.1143 99.2617 39.1807 98.9961 39.3135C98.736 39.4408 98.5451 39.604 98.4233 39.8032C98.3071 40.0024 98.249 40.2127 98.249 40.4341C98.249 40.6001 98.2767 40.7495 98.332 40.8823C98.3929 41.0096 98.498 41.1286 98.6475 41.2393C98.7969 41.3444 99.0072 41.444 99.2783 41.5381C99.5495 41.6322 99.8953 41.7262 100.316 41.8203C101.052 41.9863 101.658 42.1855 102.134 42.418C102.61 42.6504 102.964 42.9354 103.196 43.2729C103.429 43.6105 103.545 44.02 103.545 44.5015C103.545 44.8944 103.462 45.2541 103.296 45.5806C103.135 45.9071 102.9 46.1893 102.59 46.4272C102.286 46.6597 101.921 46.8423 101.495 46.9751C101.074 47.1024 100.601 47.166 100.075 47.166C99.2839 47.166 98.6143 47.0249 98.0664 46.7427C97.5186 46.4604 97.1035 46.0952 96.8213 45.647C96.5391 45.1987 96.3979 44.7256 96.3979 44.2275H97.9419C97.964 44.6481 98.0858 44.9829 98.3071 45.2319C98.5285 45.4754 98.7996 45.6497 99.1206 45.7549C99.4416 45.8545 99.7598 45.9043 100.075 45.9043C100.496 45.9043 100.847 45.849 101.129 45.7383C101.417 45.6276 101.636 45.4754 101.785 45.2817C101.935 45.0881 102.009 44.8667 102.009 44.6177ZM109.289 47.166C108.664 47.166 108.097 47.0609 107.587 46.8506C107.084 46.6348 106.649 46.3332 106.284 45.9458C105.924 45.5584 105.648 45.0991 105.454 44.5679C105.26 44.0366 105.164 43.4556 105.164 42.8247V42.4761C105.164 41.7456 105.271 41.0954 105.487 40.5254C105.703 39.9499 105.996 39.4629 106.367 39.0645C106.738 38.666 107.159 38.3644 107.629 38.1597C108.099 37.9549 108.586 37.8525 109.09 37.8525C109.732 37.8525 110.285 37.9632 110.75 38.1846C111.22 38.4059 111.605 38.7158 111.904 39.1143C112.203 39.5072 112.424 39.972 112.568 40.5088C112.712 41.04 112.784 41.6211 112.784 42.252V42.9409H106.077V41.6875H111.248V41.5713C111.226 41.1729 111.143 40.7855 110.999 40.4092C110.861 40.0329 110.639 39.723 110.335 39.4795C110.031 39.236 109.616 39.1143 109.09 39.1143C108.741 39.1143 108.42 39.189 108.127 39.3384C107.834 39.4823 107.582 39.6981 107.372 39.9858C107.161 40.2736 106.998 40.625 106.882 41.04C106.766 41.4551 106.708 41.9338 106.708 42.4761V42.8247C106.708 43.2508 106.766 43.652 106.882 44.0283C107.004 44.3991 107.178 44.7256 107.405 45.0078C107.637 45.29 107.917 45.5114 108.243 45.6719C108.575 45.8324 108.951 45.9126 109.372 45.9126C109.914 45.9126 110.374 45.8019 110.75 45.5806C111.126 45.3592 111.456 45.0632 111.738 44.6924L112.667 45.4312C112.474 45.7244 112.228 46.0039 111.929 46.2695C111.63 46.5352 111.262 46.751 110.825 46.917C110.393 47.083 109.881 47.166 109.289 47.166ZM118.171 45.9043C118.536 45.9043 118.874 45.8296 119.184 45.6802C119.493 45.5308 119.748 45.326 119.947 45.0659C120.146 44.8003 120.26 44.4987 120.288 44.1611H121.749C121.721 44.6924 121.541 45.1877 121.209 45.647C120.882 46.1007 120.454 46.4688 119.922 46.751C119.391 47.0277 118.807 47.166 118.171 47.166C117.496 47.166 116.906 47.047 116.403 46.8091C115.905 46.5711 115.49 46.2446 115.158 45.8296C114.831 45.4146 114.585 44.9386 114.419 44.4019C114.258 43.8595 114.178 43.2868 114.178 42.6836V42.335C114.178 41.7318 114.258 41.1618 114.419 40.625C114.585 40.0827 114.831 39.604 115.158 39.189C115.49 38.7739 115.905 38.4474 116.403 38.2095C116.906 37.9715 117.496 37.8525 118.171 37.8525C118.874 37.8525 119.488 37.9964 120.014 38.2842C120.539 38.5664 120.952 38.9538 121.25 39.4463C121.555 39.9333 121.721 40.4867 121.749 41.1064H120.288C120.26 40.7357 120.155 40.4009 119.972 40.1021C119.795 39.8032 119.552 39.5653 119.242 39.3882C118.937 39.2056 118.58 39.1143 118.171 39.1143C117.701 39.1143 117.305 39.2083 116.984 39.3965C116.668 39.5791 116.417 39.8281 116.229 40.1436C116.046 40.4535 115.913 40.7993 115.83 41.1812C115.753 41.5575 115.714 41.9421 115.714 42.335V42.6836C115.714 43.0765 115.753 43.4639 115.83 43.8457C115.908 44.2275 116.038 44.5734 116.22 44.8833C116.408 45.1932 116.66 45.4422 116.976 45.6304C117.297 45.813 117.695 45.9043 118.171 45.9043ZM128.97 44.9248V38.0186H130.514V47H129.045L128.97 44.9248ZM129.261 43.0322L129.9 43.0156C129.9 43.6133 129.836 44.1667 129.709 44.6758C129.587 45.1794 129.388 45.6165 129.111 45.9873C128.835 46.3581 128.472 46.6486 128.024 46.8589C127.576 47.0636 127.031 47.166 126.389 47.166C125.951 47.166 125.55 47.1024 125.185 46.9751C124.825 46.8478 124.515 46.6514 124.255 46.3857C123.995 46.1201 123.793 45.7743 123.649 45.3481C123.511 44.922 123.442 44.4102 123.442 43.8125V38.0186H124.978V43.8291C124.978 44.2331 125.022 44.5679 125.11 44.8335C125.204 45.0936 125.329 45.3011 125.484 45.4561C125.644 45.6055 125.821 45.7106 126.015 45.7715C126.214 45.8324 126.419 45.8628 126.629 45.8628C127.282 45.8628 127.8 45.7383 128.182 45.4893C128.563 45.2347 128.837 44.8944 129.003 44.4683C129.175 44.0366 129.261 43.5579 129.261 43.0322ZM134.391 39.4297V47H132.855V38.0186H134.349L134.391 39.4297ZM137.196 37.9688L137.188 39.3965C137.061 39.3688 136.939 39.3522 136.823 39.3467C136.712 39.3356 136.585 39.3301 136.441 39.3301C136.087 39.3301 135.774 39.3854 135.503 39.4961C135.232 39.6068 135.002 39.7617 134.814 39.9609C134.626 40.1602 134.476 40.3981 134.366 40.6748C134.261 40.946 134.191 41.2448 134.158 41.5713L133.727 41.8203C133.727 41.278 133.779 40.7689 133.884 40.293C133.995 39.8171 134.164 39.3965 134.391 39.0312C134.618 38.6605 134.905 38.3727 135.254 38.168C135.608 37.9577 136.029 37.8525 136.516 37.8525C136.626 37.8525 136.754 37.8664 136.897 37.894C137.041 37.9162 137.141 37.9411 137.196 37.9688ZM142.177 47.166C141.551 47.166 140.984 47.0609 140.475 46.8506C139.972 46.6348 139.537 46.3332 139.172 45.9458C138.812 45.5584 138.535 45.0991 138.342 44.5679C138.148 44.0366 138.051 43.4556 138.051 42.8247V42.4761C138.051 41.7456 138.159 41.0954 138.375 40.5254C138.591 39.9499 138.884 39.4629 139.255 39.0645C139.626 38.666 140.046 38.3644 140.517 38.1597C140.987 37.9549 141.474 37.8525 141.978 37.8525C142.619 37.8525 143.173 37.9632 143.638 38.1846C144.108 38.4059 144.493 38.7158 144.792 39.1143C145.09 39.5072 145.312 39.972 145.456 40.5088C145.599 41.04 145.671 41.6211 145.671 42.252V42.9409H138.964V41.6875H144.136V41.5713C144.114 41.1729 144.031 40.7855 143.887 40.4092C143.748 40.0329 143.527 39.723 143.223 39.4795C142.918 39.236 142.503 39.1143 141.978 39.1143C141.629 39.1143 141.308 39.189 141.015 39.3384C140.721 39.4823 140.47 39.6981 140.259 39.9858C140.049 40.2736 139.886 40.625 139.77 41.04C139.653 41.4551 139.595 41.9338 139.595 42.4761V42.8247C139.595 43.2508 139.653 43.652 139.77 44.0283C139.891 44.3991 140.066 44.7256 140.292 45.0078C140.525 45.29 140.804 45.5114 141.131 45.6719C141.463 45.8324 141.839 45.9126 142.26 45.9126C142.802 45.9126 143.261 45.8019 143.638 45.5806C144.014 45.3592 144.343 45.0632 144.625 44.6924L145.555 45.4312C145.361 45.7244 145.115 46.0039 144.816 46.2695C144.518 46.5352 144.15 46.751 143.712 46.917C143.281 47.083 142.769 47.166 142.177 47.166Z" fill="#DD3322"/>
<circle cx="48" cy="41" r="9" stroke="#DD3322" stroke-width="2"/>
<line x1="48" y1="46" x2="48" y2="44" stroke="#DD3322" stroke-width="2"/>
<line x1="48" y1="42" x2="48" y2="36" stroke="#DD3322" stroke-width="2"/>
</svg>
