<svg width="380" height="37" viewBox="0 0 380 37" fill="none" xmlns="http://www.w3.org/2000/svg">
<rect x="0.5" y="0.5" width="379" height="36" rx="3.5" fill="white" stroke="#AAAAAA"/>
<path d="M141.897 25.166C141.272 25.166 140.705 25.0609 140.196 24.8506C139.692 24.6348 139.258 24.3332 138.893 23.9458C138.533 23.5584 138.256 23.0991 138.062 22.5679C137.869 22.0366 137.772 21.4556 137.772 20.8247V20.4761C137.772 19.7456 137.88 19.0954 138.096 18.5254C138.312 17.9499 138.605 17.4629 138.976 17.0645C139.346 16.666 139.767 16.3644 140.237 16.1597C140.708 15.9549 141.195 15.8525 141.698 15.8525C142.34 15.8525 142.894 15.9632 143.358 16.1846C143.829 16.4059 144.213 16.7158 144.512 17.1143C144.811 17.5072 145.032 17.972 145.176 18.5088C145.32 19.04 145.392 19.6211 145.392 20.252V20.9409H138.685V19.6875H143.856V19.5713C143.834 19.1729 143.751 18.7855 143.607 18.4092C143.469 18.0329 143.248 17.723 142.943 17.4795C142.639 17.236 142.224 17.1143 141.698 17.1143C141.35 17.1143 141.029 17.189 140.735 17.3384C140.442 17.4823 140.19 17.6981 139.98 17.9858C139.77 18.2736 139.606 18.625 139.49 19.04C139.374 19.4551 139.316 19.9338 139.316 20.4761V20.8247C139.316 21.2508 139.374 21.652 139.49 22.0283C139.612 22.3991 139.786 22.7256 140.013 23.0078C140.246 23.29 140.525 23.5114 140.852 23.6719C141.184 23.8324 141.56 23.9126 141.98 23.9126C142.523 23.9126 142.982 23.8019 143.358 23.5806C143.735 23.3592 144.064 23.0632 144.346 22.6924L145.276 23.4312C145.082 23.7244 144.836 24.0039 144.537 24.2695C144.238 24.5352 143.87 24.751 143.433 24.917C143.001 25.083 142.49 25.166 141.897 25.166ZM148.223 16.0186L150.19 19.2891L152.182 16.0186H153.983L151.045 20.4512L154.075 25H152.298L150.223 21.6299L148.148 25H146.363L149.385 20.4512L146.455 16.0186H148.223ZM160.915 23.4644V18.8408C160.915 18.4867 160.843 18.1795 160.699 17.9194C160.56 17.6538 160.35 17.4491 160.068 17.3052C159.786 17.1613 159.437 17.0894 159.022 17.0894C158.635 17.0894 158.294 17.1558 158.001 17.2886C157.713 17.4214 157.486 17.5957 157.32 17.8115C157.16 18.0273 157.08 18.2598 157.08 18.5088H155.544C155.544 18.1878 155.627 17.8696 155.793 17.5542C155.959 17.2388 156.197 16.9538 156.507 16.6992C156.822 16.4391 157.199 16.2344 157.636 16.085C158.078 15.93 158.571 15.8525 159.113 15.8525C159.766 15.8525 160.342 15.9632 160.84 16.1846C161.343 16.4059 161.736 16.7407 162.019 17.189C162.306 17.6317 162.45 18.1878 162.45 18.8574V23.041C162.45 23.3398 162.475 23.658 162.525 23.9956C162.58 24.3332 162.66 24.6237 162.766 24.8672V25H161.164C161.086 24.8229 161.025 24.5877 160.981 24.2944C160.937 23.9956 160.915 23.7189 160.915 23.4644ZM161.18 19.5547L161.197 20.6338H159.645C159.207 20.6338 158.817 20.6698 158.474 20.7417C158.131 20.8081 157.843 20.9105 157.611 21.0488C157.378 21.1872 157.201 21.3615 157.08 21.5718C156.958 21.7765 156.897 22.0173 156.897 22.2939C156.897 22.5762 156.961 22.8335 157.088 23.0659C157.215 23.2983 157.406 23.4837 157.661 23.6221C157.921 23.7549 158.239 23.8213 158.615 23.8213C159.086 23.8213 159.501 23.7217 159.86 23.5225C160.22 23.3232 160.505 23.0798 160.715 22.792C160.931 22.5042 161.047 22.2248 161.064 21.9536L161.72 22.6924C161.681 22.9248 161.576 23.1821 161.404 23.4644C161.233 23.7466 161.003 24.0177 160.715 24.2778C160.433 24.5324 160.096 24.7454 159.703 24.917C159.315 25.083 158.878 25.166 158.391 25.166C157.782 25.166 157.248 25.047 156.789 24.8091C156.335 24.5711 155.981 24.2529 155.727 23.8545C155.478 23.4505 155.353 22.9995 155.353 22.5015C155.353 22.02 155.447 21.5967 155.635 21.2314C155.823 20.8607 156.095 20.5535 156.449 20.3101C156.803 20.061 157.229 19.8729 157.727 19.7456C158.225 19.6183 158.781 19.5547 159.396 19.5547H161.18ZM166.393 17.8032V25H164.849V16.0186H166.31L166.393 17.8032ZM166.078 20.1689L165.364 20.144C165.369 19.5298 165.45 18.9626 165.604 18.4424C165.759 17.9167 165.989 17.4601 166.293 17.0728C166.598 16.6854 166.977 16.3866 167.431 16.1763C167.884 15.9604 168.41 15.8525 169.008 15.8525C169.428 15.8525 169.816 15.9134 170.17 16.0352C170.524 16.1514 170.831 16.3368 171.091 16.5913C171.351 16.8459 171.553 17.1724 171.697 17.5708C171.841 17.9692 171.913 18.4507 171.913 19.0151V25H170.377V19.0898C170.377 18.6195 170.297 18.2432 170.137 17.9609C169.982 17.6787 169.76 17.474 169.473 17.3467C169.185 17.2139 168.847 17.1475 168.46 17.1475C168.006 17.1475 167.627 17.2277 167.323 17.3882C167.018 17.5487 166.775 17.77 166.592 18.0522C166.41 18.3345 166.277 18.6582 166.194 19.0234C166.116 19.3831 166.078 19.765 166.078 20.1689ZM171.896 19.3223L170.867 19.6377C170.873 19.1452 170.953 18.672 171.108 18.2183C171.268 17.7645 171.498 17.3605 171.797 17.0063C172.101 16.6522 172.475 16.3727 172.917 16.168C173.36 15.9577 173.867 15.8525 174.437 15.8525C174.918 15.8525 175.344 15.9162 175.715 16.0435C176.091 16.1707 176.407 16.3672 176.661 16.6328C176.921 16.8929 177.118 17.2277 177.25 17.6372C177.383 18.0467 177.45 18.5337 177.45 19.0981V25H175.906V19.0815C175.906 18.578 175.826 18.1878 175.665 17.9111C175.51 17.6289 175.289 17.4325 175.001 17.3218C174.719 17.2056 174.381 17.1475 173.988 17.1475C173.651 17.1475 173.352 17.2056 173.092 17.3218C172.832 17.438 172.613 17.5985 172.436 17.8032C172.259 18.0024 172.123 18.2321 172.029 18.4922C171.941 18.7523 171.896 19.029 171.896 19.3223ZM181.31 17.7451V28.4531H179.766V16.0186H181.177L181.31 17.7451ZM187.361 20.4346V20.6089C187.361 21.2619 187.283 21.8678 187.128 22.4268C186.973 22.9801 186.747 23.4616 186.448 23.8711C186.154 24.2806 185.792 24.5988 185.36 24.8257C184.929 25.0526 184.433 25.166 183.875 25.166C183.305 25.166 182.801 25.0719 182.364 24.8838C181.927 24.6956 181.556 24.4217 181.251 24.062C180.947 23.7023 180.704 23.2707 180.521 22.7671C180.344 22.2635 180.222 21.6963 180.156 21.0654V20.1357C180.222 19.4717 180.347 18.8768 180.529 18.3511C180.712 17.8254 180.953 17.3771 181.251 17.0063C181.556 16.63 181.924 16.3451 182.355 16.1514C182.787 15.9521 183.285 15.8525 183.85 15.8525C184.414 15.8525 184.915 15.9632 185.352 16.1846C185.789 16.4004 186.157 16.7103 186.456 17.1143C186.755 17.5182 186.979 18.0024 187.128 18.5669C187.283 19.1258 187.361 19.7484 187.361 20.4346ZM185.817 20.6089V20.4346C185.817 19.9863 185.77 19.5658 185.676 19.1729C185.582 18.7744 185.435 18.4258 185.236 18.127C185.042 17.8226 184.793 17.5846 184.489 17.4131C184.184 17.236 183.822 17.1475 183.401 17.1475C183.014 17.1475 182.676 17.2139 182.389 17.3467C182.106 17.4795 181.866 17.6593 181.667 17.8862C181.467 18.1076 181.304 18.3621 181.177 18.6499C181.055 18.9321 180.964 19.2254 180.903 19.5298V21.6797C181.014 22.0671 181.168 22.4323 181.368 22.7754C181.567 23.113 181.833 23.3869 182.165 23.5972C182.497 23.8019 182.914 23.9043 183.418 23.9043C183.833 23.9043 184.19 23.8185 184.489 23.647C184.793 23.4699 185.042 23.2292 185.236 22.9248C185.435 22.6204 185.582 22.2718 185.676 21.8789C185.77 21.4805 185.817 21.0571 185.817 20.6089ZM190.988 12.25V25H189.444V12.25H190.988ZM197.181 25.166C196.555 25.166 195.988 25.0609 195.479 24.8506C194.975 24.6348 194.541 24.3332 194.176 23.9458C193.816 23.5584 193.539 23.0991 193.346 22.5679C193.152 22.0366 193.055 21.4556 193.055 20.8247V20.4761C193.055 19.7456 193.163 19.0954 193.379 18.5254C193.595 17.9499 193.888 17.4629 194.259 17.0645C194.63 16.666 195.05 16.3644 195.521 16.1597C195.991 15.9549 196.478 15.8525 196.981 15.8525C197.623 15.8525 198.177 15.9632 198.642 16.1846C199.112 16.4059 199.497 16.7158 199.795 17.1143C200.094 17.5072 200.316 17.972 200.459 18.5088C200.603 19.04 200.675 19.6211 200.675 20.252V20.9409H193.968V19.6875H199.14V19.5713C199.118 19.1729 199.035 18.7855 198.891 18.4092C198.752 18.0329 198.531 17.723 198.227 17.4795C197.922 17.236 197.507 17.1143 196.981 17.1143C196.633 17.1143 196.312 17.189 196.019 17.3384C195.725 17.4823 195.473 17.6981 195.263 17.9858C195.053 18.2736 194.89 18.625 194.773 19.04C194.657 19.4551 194.599 19.9338 194.599 20.4761V20.8247C194.599 21.2508 194.657 21.652 194.773 22.0283C194.895 22.3991 195.069 22.7256 195.296 23.0078C195.529 23.29 195.808 23.5114 196.135 23.6719C196.467 23.8324 196.843 23.9126 197.264 23.9126C197.806 23.9126 198.265 23.8019 198.642 23.5806C199.018 23.3592 199.347 23.0632 199.629 22.6924L200.559 23.4312C200.365 23.7244 200.119 24.0039 199.82 24.2695C199.521 24.5352 199.153 24.751 198.716 24.917C198.285 25.083 197.773 25.166 197.181 25.166ZM202.493 24.1865C202.493 23.9264 202.573 23.7078 202.734 23.5308C202.9 23.3481 203.138 23.2568 203.448 23.2568C203.758 23.2568 203.993 23.3481 204.153 23.5308C204.319 23.7078 204.402 23.9264 204.402 24.1865C204.402 24.4411 204.319 24.6569 204.153 24.834C203.993 25.0111 203.758 25.0996 203.448 25.0996C203.138 25.0996 202.9 25.0111 202.734 24.834C202.573 24.6569 202.493 24.4411 202.493 24.1865ZM210.545 23.9043C210.91 23.9043 211.248 23.8296 211.558 23.6802C211.868 23.5308 212.122 23.326 212.321 23.0659C212.521 22.8003 212.634 22.4987 212.662 22.1611H214.123C214.095 22.6924 213.915 23.1877 213.583 23.647C213.257 24.1007 212.828 24.4688 212.296 24.751C211.765 25.0277 211.181 25.166 210.545 25.166C209.87 25.166 209.28 25.047 208.777 24.8091C208.279 24.5711 207.864 24.2446 207.532 23.8296C207.205 23.4146 206.959 22.9386 206.793 22.4019C206.632 21.8595 206.552 21.2868 206.552 20.6836V20.335C206.552 19.7318 206.632 19.1618 206.793 18.625C206.959 18.0827 207.205 17.604 207.532 17.189C207.864 16.7739 208.279 16.4474 208.777 16.2095C209.28 15.9715 209.87 15.8525 210.545 15.8525C211.248 15.8525 211.862 15.9964 212.388 16.2842C212.913 16.5664 213.326 16.9538 213.625 17.4463C213.929 17.9333 214.095 18.4867 214.123 19.1064H212.662C212.634 18.7357 212.529 18.4009 212.346 18.1021C212.169 17.8032 211.926 17.5653 211.616 17.3882C211.311 17.2056 210.954 17.1143 210.545 17.1143C210.075 17.1143 209.679 17.2083 209.358 17.3965C209.042 17.5791 208.791 17.8281 208.603 18.1436C208.42 18.4535 208.287 18.7993 208.204 19.1812C208.127 19.5575 208.088 19.9421 208.088 20.335V20.6836C208.088 21.0765 208.127 21.4639 208.204 21.8457C208.282 22.2275 208.412 22.5734 208.594 22.8833C208.782 23.1932 209.034 23.4422 209.35 23.6304C209.671 23.813 210.069 23.9043 210.545 23.9043ZM215.442 20.6089V20.418C215.442 19.7705 215.536 19.1701 215.725 18.6167C215.913 18.0578 216.184 17.5736 216.538 17.1641C216.892 16.749 217.321 16.4281 217.825 16.2012C218.328 15.9688 218.893 15.8525 219.518 15.8525C220.149 15.8525 220.716 15.9688 221.22 16.2012C221.729 16.4281 222.16 16.749 222.515 17.1641C222.874 17.5736 223.148 18.0578 223.336 18.6167C223.525 19.1701 223.619 19.7705 223.619 20.418V20.6089C223.619 21.2563 223.525 21.8568 223.336 22.4102C223.148 22.9635 222.874 23.4478 222.515 23.8628C222.16 24.2723 221.732 24.5933 221.228 24.8257C220.73 25.0526 220.166 25.166 219.535 25.166C218.904 25.166 218.337 25.0526 217.833 24.8257C217.329 24.5933 216.898 24.2723 216.538 23.8628C216.184 23.4478 215.913 22.9635 215.725 22.4102C215.536 21.8568 215.442 21.2563 215.442 20.6089ZM216.978 20.418V20.6089C216.978 21.0571 217.031 21.4805 217.136 21.8789C217.241 22.2718 217.399 22.6204 217.609 22.9248C217.825 23.2292 218.093 23.4699 218.414 23.647C218.735 23.8185 219.109 23.9043 219.535 23.9043C219.955 23.9043 220.323 23.8185 220.639 23.647C220.96 23.4699 221.225 23.2292 221.436 22.9248C221.646 22.6204 221.804 22.2718 221.909 21.8789C222.019 21.4805 222.075 21.0571 222.075 20.6089V20.418C222.075 19.9753 222.019 19.5575 221.909 19.1646C221.804 18.7661 221.643 18.4147 221.427 18.1104C221.217 17.8005 220.951 17.557 220.63 17.3799C220.315 17.2028 219.944 17.1143 219.518 17.1143C219.097 17.1143 218.727 17.2028 218.406 17.3799C218.09 17.557 217.825 17.8005 217.609 18.1104C217.399 18.4147 217.241 18.7661 217.136 19.1646C217.031 19.5575 216.978 19.9753 216.978 20.418ZM227.072 17.8032V25H225.528V16.0186H226.989L227.072 17.8032ZM226.756 20.1689L226.042 20.144C226.048 19.5298 226.128 18.9626 226.283 18.4424C226.438 17.9167 226.668 17.4601 226.972 17.0728C227.277 16.6854 227.656 16.3866 228.109 16.1763C228.563 15.9604 229.089 15.8525 229.687 15.8525C230.107 15.8525 230.494 15.9134 230.849 16.0352C231.203 16.1514 231.51 16.3368 231.77 16.5913C232.03 16.8459 232.232 17.1724 232.376 17.5708C232.52 17.9692 232.592 18.4507 232.592 19.0151V25H231.056V19.0898C231.056 18.6195 230.976 18.2432 230.815 17.9609C230.66 17.6787 230.439 17.474 230.151 17.3467C229.864 17.2139 229.526 17.1475 229.139 17.1475C228.685 17.1475 228.306 17.2277 228.001 17.3882C227.697 17.5487 227.454 17.77 227.271 18.0522C227.088 18.3345 226.956 18.6582 226.873 19.0234C226.795 19.3831 226.756 19.765 226.756 20.1689ZM232.575 19.3223L231.546 19.6377C231.551 19.1452 231.632 18.672 231.787 18.2183C231.947 17.7645 232.177 17.3605 232.476 17.0063C232.78 16.6522 233.153 16.3727 233.596 16.168C234.039 15.9577 234.545 15.8525 235.115 15.8525C235.597 15.8525 236.023 15.9162 236.394 16.0435C236.77 16.1707 237.085 16.3672 237.34 16.6328C237.6 16.8929 237.796 17.2277 237.929 17.6372C238.062 18.0467 238.128 18.5337 238.128 19.0981V25H236.584V19.0815C236.584 18.578 236.504 18.1878 236.344 17.9111C236.189 17.6289 235.967 17.4325 235.68 17.3218C235.397 17.2056 235.06 17.1475 234.667 17.1475C234.329 17.1475 234.031 17.2056 233.771 17.3218C233.51 17.438 233.292 17.5985 233.115 17.8032C232.938 18.0024 232.802 18.2321 232.708 18.4922C232.619 18.7523 232.575 19.029 232.575 19.3223Z" fill="#333333"/>
<line x1="127.5" y1="10" x2="127.5" y2="29" stroke="#AAAAAA"/>
<path d="M44.6997 12.9141V25H43.0894L37.0049 15.6782V25H35.4028V12.9141H37.0049L43.1143 22.2607V12.9141H44.6997ZM46.8994 20.6089V20.418C46.8994 19.7705 46.9935 19.1701 47.1816 18.6167C47.3698 18.0578 47.641 17.5736 47.9951 17.1641C48.3493 16.749 48.7782 16.4281 49.2817 16.2012C49.7853 15.9688 50.3498 15.8525 50.9751 15.8525C51.606 15.8525 52.1732 15.9688 52.6768 16.2012C53.1859 16.4281 53.6175 16.749 53.9717 17.1641C54.3314 17.5736 54.6053 18.0578 54.7935 18.6167C54.9816 19.1701 55.0757 19.7705 55.0757 20.418V20.6089C55.0757 21.2563 54.9816 21.8568 54.7935 22.4102C54.6053 22.9635 54.3314 23.4478 53.9717 23.8628C53.6175 24.2723 53.1886 24.5933 52.6851 24.8257C52.187 25.0526 51.6226 25.166 50.9917 25.166C50.3608 25.166 49.7936 25.0526 49.29 24.8257C48.7865 24.5933 48.3548 24.2723 47.9951 23.8628C47.641 23.4478 47.3698 22.9635 47.1816 22.4102C46.9935 21.8568 46.8994 21.2563 46.8994 20.6089ZM48.4351 20.418V20.6089C48.4351 21.0571 48.4876 21.4805 48.5928 21.8789C48.6979 22.2718 48.8556 22.6204 49.0659 22.9248C49.2817 23.2292 49.5501 23.4699 49.8711 23.647C50.1921 23.8185 50.5656 23.9043 50.9917 23.9043C51.4123 23.9043 51.7803 23.8185 52.0957 23.647C52.4167 23.4699 52.6823 23.2292 52.8926 22.9248C53.1029 22.6204 53.2606 22.2718 53.3657 21.8789C53.4764 21.4805 53.5317 21.0571 53.5317 20.6089V20.418C53.5317 19.9753 53.4764 19.5575 53.3657 19.1646C53.2606 18.7661 53.1001 18.4147 52.8843 18.1104C52.674 17.8005 52.4084 17.557 52.0874 17.3799C51.772 17.2028 51.4012 17.1143 50.9751 17.1143C50.5545 17.1143 50.1838 17.2028 49.8628 17.3799C49.5474 17.557 49.2817 17.8005 49.0659 18.1104C48.8556 18.4147 48.6979 18.7661 48.5928 19.1646C48.4876 19.5575 48.4351 19.9753 48.4351 20.418ZM60.7617 16.0186V17.1973H55.9058V16.0186H60.7617ZM57.5493 13.8354H59.085V22.7754C59.085 23.0798 59.132 23.3094 59.2261 23.4644C59.3201 23.6193 59.4419 23.7217 59.5913 23.7715C59.7407 23.8213 59.9012 23.8462 60.0728 23.8462C60.2 23.8462 60.3328 23.8351 60.4712 23.813C60.6151 23.7853 60.723 23.7632 60.7949 23.7466L60.8032 25C60.6815 25.0387 60.521 25.0747 60.3218 25.1079C60.1281 25.1466 59.8929 25.166 59.6162 25.166C59.2399 25.166 58.894 25.0913 58.5786 24.9419C58.2632 24.7925 58.0114 24.5435 57.8232 24.1948C57.6406 23.8407 57.5493 23.3647 57.5493 22.7671V13.8354ZM72.0093 22.6177C72.0093 22.3963 71.9595 22.1916 71.8599 22.0034C71.7658 21.8097 71.5693 21.6354 71.2705 21.4805C70.9772 21.32 70.5345 21.1816 69.9424 21.0654C69.4443 20.9603 68.9933 20.8358 68.5894 20.6919C68.1909 20.548 67.8506 20.3737 67.5684 20.1689C67.2917 19.9642 67.0786 19.7235 66.9292 19.4468C66.7798 19.1701 66.7051 18.8464 66.7051 18.4756C66.7051 18.1214 66.7826 17.7866 66.9375 17.4712C67.098 17.1558 67.3221 16.8763 67.6099 16.6328C67.9032 16.3893 68.2546 16.1984 68.6641 16.0601C69.0736 15.9217 69.5301 15.8525 70.0337 15.8525C70.7531 15.8525 71.3674 15.9798 71.8765 16.2344C72.3856 16.4889 72.7757 16.8293 73.0469 17.2554C73.318 17.6759 73.4536 18.1436 73.4536 18.6582H71.918C71.918 18.4092 71.8433 18.1685 71.6938 17.936C71.55 17.6981 71.3369 17.5016 71.0547 17.3467C70.778 17.1917 70.4377 17.1143 70.0337 17.1143C69.6076 17.1143 69.2617 17.1807 68.9961 17.3135C68.736 17.4408 68.5451 17.604 68.4233 17.8032C68.3071 18.0024 68.249 18.2127 68.249 18.4341C68.249 18.6001 68.2767 18.7495 68.332 18.8823C68.3929 19.0096 68.498 19.1286 68.6475 19.2393C68.7969 19.3444 69.0072 19.444 69.2783 19.5381C69.5495 19.6322 69.8953 19.7262 70.3159 19.8203C71.0519 19.9863 71.6579 20.1855 72.1338 20.418C72.6097 20.6504 72.9639 20.9354 73.1963 21.2729C73.4287 21.6105 73.5449 22.02 73.5449 22.5015C73.5449 22.8944 73.4619 23.2541 73.2959 23.5806C73.1354 23.9071 72.9002 24.1893 72.5903 24.4272C72.286 24.6597 71.9207 24.8423 71.4946 24.9751C71.0741 25.1024 70.6009 25.166 70.0752 25.166C69.2839 25.166 68.6143 25.0249 68.0664 24.7427C67.5186 24.4604 67.1035 24.0952 66.8213 23.647C66.5391 23.1987 66.3979 22.7256 66.3979 22.2275H67.9419C67.964 22.6481 68.0858 22.9829 68.3071 23.2319C68.5285 23.4754 68.7996 23.6497 69.1206 23.7549C69.4416 23.8545 69.7598 23.9043 70.0752 23.9043C70.4958 23.9043 70.8472 23.849 71.1294 23.7383C71.4172 23.6276 71.6357 23.4754 71.7852 23.2817C71.9346 23.0881 72.0093 22.8667 72.0093 22.6177ZM79.2891 25.166C78.6637 25.166 78.0965 25.0609 77.5874 24.8506C77.0838 24.6348 76.6494 24.3332 76.2842 23.9458C75.9245 23.5584 75.6478 23.0991 75.4541 22.5679C75.2604 22.0366 75.1636 21.4556 75.1636 20.8247V20.4761C75.1636 19.7456 75.2715 19.0954 75.4873 18.5254C75.7031 17.9499 75.9964 17.4629 76.3672 17.0645C76.738 16.666 77.1585 16.3644 77.6289 16.1597C78.0993 15.9549 78.5863 15.8525 79.0898 15.8525C79.7318 15.8525 80.2852 15.9632 80.75 16.1846C81.2204 16.4059 81.605 16.7158 81.9038 17.1143C82.2026 17.5072 82.424 17.972 82.5679 18.5088C82.7118 19.04 82.7837 19.6211 82.7837 20.252V20.9409H76.0767V19.6875H81.248V19.5713C81.2259 19.1729 81.1429 18.7855 80.999 18.4092C80.8607 18.0329 80.6393 17.723 80.335 17.4795C80.0306 17.236 79.6156 17.1143 79.0898 17.1143C78.7412 17.1143 78.4202 17.189 78.127 17.3384C77.8337 17.4823 77.5819 17.6981 77.3716 17.9858C77.1613 18.2736 76.998 18.625 76.8818 19.04C76.7656 19.4551 76.7075 19.9338 76.7075 20.4761V20.8247C76.7075 21.2508 76.7656 21.652 76.8818 22.0283C77.0036 22.3991 77.1779 22.7256 77.4048 23.0078C77.6372 23.29 77.9167 23.5114 78.2432 23.6719C78.5752 23.8324 78.9515 23.9126 79.3721 23.9126C79.9144 23.9126 80.3737 23.8019 80.75 23.5806C81.1263 23.3592 81.4556 23.0632 81.7378 22.6924L82.6675 23.4312C82.4738 23.7244 82.2275 24.0039 81.9287 24.2695C81.6299 24.5352 81.2619 24.751 80.8247 24.917C80.3931 25.083 79.8812 25.166 79.2891 25.166ZM88.1709 23.9043C88.5361 23.9043 88.8737 23.8296 89.1836 23.6802C89.4935 23.5308 89.748 23.326 89.9473 23.0659C90.1465 22.8003 90.2599 22.4987 90.2876 22.1611H91.7485C91.7209 22.6924 91.541 23.1877 91.209 23.647C90.8825 24.1007 90.4536 24.4688 89.9224 24.751C89.3911 25.0277 88.8073 25.166 88.1709 25.166C87.4958 25.166 86.9064 25.047 86.4028 24.8091C85.9048 24.5711 85.4897 24.2446 85.1577 23.8296C84.8312 23.4146 84.585 22.9386 84.4189 22.4019C84.2585 21.8595 84.1782 21.2868 84.1782 20.6836V20.335C84.1782 19.7318 84.2585 19.1618 84.4189 18.625C84.585 18.0827 84.8312 17.604 85.1577 17.189C85.4897 16.7739 85.9048 16.4474 86.4028 16.2095C86.9064 15.9715 87.4958 15.8525 88.1709 15.8525C88.8737 15.8525 89.488 15.9964 90.0137 16.2842C90.5394 16.5664 90.9517 16.9538 91.2505 17.4463C91.5549 17.9333 91.7209 18.4867 91.7485 19.1064H90.2876C90.2599 18.7357 90.1548 18.4009 89.9722 18.1021C89.7951 17.8032 89.5516 17.5653 89.2417 17.3882C88.9373 17.2056 88.5804 17.1143 88.1709 17.1143C87.7005 17.1143 87.3049 17.2083 86.9839 17.3965C86.6685 17.5791 86.4167 17.8281 86.2285 18.1436C86.0459 18.4535 85.9131 18.7993 85.8301 19.1812C85.7526 19.5575 85.7139 19.9421 85.7139 20.335V20.6836C85.7139 21.0765 85.7526 21.4639 85.8301 21.8457C85.9076 22.2275 86.0376 22.5734 86.2202 22.8833C86.4084 23.1932 86.6602 23.4422 86.9756 23.6304C87.2965 23.813 87.695 23.9043 88.1709 23.9043ZM98.9702 22.9248V16.0186H100.514V25H99.0449L98.9702 22.9248ZM99.2607 21.0322L99.8999 21.0156C99.8999 21.6133 99.8363 22.1667 99.709 22.6758C99.5872 23.1794 99.388 23.6165 99.1113 23.9873C98.8346 24.3581 98.4722 24.6486 98.0239 24.8589C97.5757 25.0636 97.0306 25.166 96.3887 25.166C95.9515 25.166 95.5503 25.1024 95.1851 24.9751C94.8254 24.8478 94.5155 24.6514 94.2554 24.3857C93.9953 24.1201 93.7933 23.7743 93.6494 23.3481C93.5111 22.922 93.4419 22.4102 93.4419 21.8125V16.0186H94.9775V21.8291C94.9775 22.2331 95.0218 22.5679 95.1104 22.8335C95.2044 23.0936 95.3289 23.3011 95.4839 23.4561C95.6444 23.6055 95.8215 23.7106 96.0151 23.7715C96.2144 23.8324 96.4191 23.8628 96.6294 23.8628C97.2824 23.8628 97.7998 23.7383 98.1816 23.4893C98.5635 23.2347 98.8374 22.8944 99.0034 22.4683C99.175 22.0366 99.2607 21.5579 99.2607 21.0322ZM104.391 17.4297V25H102.855V16.0186H104.349L104.391 17.4297ZM107.196 15.9688L107.188 17.3965C107.061 17.3688 106.939 17.3522 106.823 17.3467C106.712 17.3356 106.585 17.3301 106.441 17.3301C106.087 17.3301 105.774 17.3854 105.503 17.4961C105.232 17.6068 105.002 17.7617 104.814 17.9609C104.626 18.1602 104.476 18.3981 104.366 18.6748C104.261 18.946 104.191 19.2448 104.158 19.5713L103.727 19.8203C103.727 19.278 103.779 18.7689 103.884 18.293C103.995 17.8171 104.164 17.3965 104.391 17.0312C104.618 16.6605 104.905 16.3727 105.254 16.168C105.608 15.9577 106.029 15.8525 106.516 15.8525C106.626 15.8525 106.754 15.8664 106.897 15.894C107.041 15.9162 107.141 15.9411 107.196 15.9688ZM112.177 25.166C111.551 25.166 110.984 25.0609 110.475 24.8506C109.972 24.6348 109.537 24.3332 109.172 23.9458C108.812 23.5584 108.535 23.0991 108.342 22.5679C108.148 22.0366 108.051 21.4556 108.051 20.8247V20.4761C108.051 19.7456 108.159 19.0954 108.375 18.5254C108.591 17.9499 108.884 17.4629 109.255 17.0645C109.626 16.666 110.046 16.3644 110.517 16.1597C110.987 15.9549 111.474 15.8525 111.978 15.8525C112.619 15.8525 113.173 15.9632 113.638 16.1846C114.108 16.4059 114.493 16.7158 114.792 17.1143C115.09 17.5072 115.312 17.972 115.456 18.5088C115.599 19.04 115.671 19.6211 115.671 20.252V20.9409H108.964V19.6875H114.136V19.5713C114.114 19.1729 114.031 18.7855 113.887 18.4092C113.748 18.0329 113.527 17.723 113.223 17.4795C112.918 17.236 112.503 17.1143 111.978 17.1143C111.629 17.1143 111.308 17.189 111.015 17.3384C110.721 17.4823 110.47 17.6981 110.259 17.9858C110.049 18.2736 109.886 18.625 109.77 19.04C109.653 19.4551 109.595 19.9338 109.595 20.4761V20.8247C109.595 21.2508 109.653 21.652 109.77 22.0283C109.891 22.3991 110.066 22.7256 110.292 23.0078C110.525 23.29 110.804 23.5114 111.131 23.6719C111.463 23.8324 111.839 23.9126 112.26 23.9126C112.802 23.9126 113.261 23.8019 113.638 23.5806C114.014 23.3592 114.343 23.0632 114.625 22.6924L115.555 23.4312C115.361 23.7244 115.115 24.0039 114.816 24.2695C114.518 24.5352 114.15 24.751 113.712 24.917C113.281 25.083 112.769 25.166 112.177 25.166Z" fill="#555555"/>
<path d="M18.5 10L27.5933 25.75H9.40673L18.5 10Z" fill="#555555"/>
<line x1="18.5" y1="23.9028" x2="18.5" y2="22.3472" stroke="white" stroke-width="1.4"/>
<line x1="18.5" y1="20.6944" x2="18.5" y2="16.0278" stroke="white" stroke-width="1.4"/>
</svg>
