<svg width="440" height="80" viewBox="0 0 440 80" fill="none" xmlns="http://www.w3.org/2000/svg">
<rect x="30.5" y="21.5" width="379" height="36" rx="3.5" fill="white" stroke="#AAAAAA"/>
<path d="M68.7061 34.25V47H67.1704V34.25H68.7061ZM68.3408 42.1689L67.7017 42.144C67.7072 41.5298 67.7985 40.9626 67.9756 40.4424C68.1527 39.9167 68.4017 39.4601 68.7227 39.0728C69.0436 38.6854 69.4255 38.3866 69.8682 38.1763C70.3164 37.9604 70.8117 37.8525 71.354 37.8525C71.7967 37.8525 72.1951 37.9134 72.5493 38.0352C72.9035 38.1514 73.2051 38.3395 73.4541 38.5996C73.7087 38.8597 73.9023 39.1973 74.0352 39.6123C74.168 40.0218 74.2344 40.5226 74.2344 41.1147V47H72.6904V41.0981C72.6904 40.6278 72.6213 40.2515 72.4829 39.9692C72.3446 39.6815 72.1426 39.474 71.877 39.3467C71.6113 39.2139 71.2848 39.1475 70.8975 39.1475C70.5156 39.1475 70.167 39.2277 69.8516 39.3882C69.5417 39.5487 69.2733 39.77 69.0464 40.0522C68.825 40.3345 68.6507 40.6582 68.5234 41.0234C68.4017 41.3831 68.3408 41.765 68.3408 42.1689ZM80.2939 38.0186V39.1973H75.438V38.0186H80.2939ZM77.0815 35.8354H78.6172V44.7754C78.6172 45.0798 78.6642 45.3094 78.7583 45.4644C78.8524 45.6193 78.9741 45.7217 79.1235 45.7715C79.2729 45.8213 79.4334 45.8462 79.605 45.8462C79.7323 45.8462 79.8651 45.8351 80.0034 45.813C80.1473 45.7853 80.2552 45.7632 80.3271 45.7466L80.3354 47C80.2137 47.0387 80.0532 47.0747 79.854 47.1079C79.6603 47.1466 79.4251 47.166 79.1484 47.166C78.7721 47.166 78.4263 47.0913 78.1108 46.9419C77.7954 46.7925 77.5436 46.5435 77.3555 46.1948C77.1729 45.8407 77.0815 45.3647 77.0815 44.7671V35.8354ZM85.8555 38.0186V39.1973H80.9995V38.0186H85.8555ZM82.6431 35.8354H84.1787V44.7754C84.1787 45.0798 84.2257 45.3094 84.3198 45.4644C84.4139 45.6193 84.5356 45.7217 84.6851 45.7715C84.8345 45.8213 84.995 45.8462 85.1665 45.8462C85.2938 45.8462 85.4266 45.8351 85.5649 45.813C85.7088 45.7853 85.8167 45.7632 85.8887 45.7466L85.897 47C85.7752 47.0387 85.6147 47.0747 85.4155 47.1079C85.2218 47.1466 84.9867 47.166 84.71 47.166C84.3337 47.166 83.9878 47.0913 83.6724 46.9419C83.3569 46.7925 83.1051 46.5435 82.917 46.1948C82.7344 45.8407 82.6431 45.3647 82.6431 44.7671V35.8354ZM89.1924 39.7451V50.4531H87.6484V38.0186H89.0596L89.1924 39.7451ZM95.2437 42.4346V42.6089C95.2437 43.2619 95.1662 43.8678 95.0112 44.4268C94.8563 44.9801 94.6294 45.4616 94.3306 45.8711C94.0373 46.2806 93.6748 46.5988 93.2432 46.8257C92.8115 47.0526 92.3162 47.166 91.7573 47.166C91.1873 47.166 90.6838 47.0719 90.2466 46.8838C89.8094 46.6956 89.4386 46.4217 89.1343 46.062C88.8299 45.7023 88.5864 45.2707 88.4038 44.7671C88.2267 44.2635 88.105 43.6963 88.0386 43.0654V42.1357C88.105 41.4717 88.2295 40.8768 88.4121 40.3511C88.5947 39.8254 88.8354 39.3771 89.1343 39.0063C89.4386 38.63 89.8066 38.3451 90.2383 38.1514C90.6699 37.9521 91.168 37.8525 91.7324 37.8525C92.2969 37.8525 92.7977 37.9632 93.2349 38.1846C93.672 38.4004 94.04 38.7103 94.3389 39.1143C94.6377 39.5182 94.8618 40.0024 95.0112 40.5669C95.1662 41.1258 95.2437 41.7484 95.2437 42.4346ZM93.6997 42.6089V42.4346C93.6997 41.9863 93.6527 41.5658 93.5586 41.1729C93.4645 40.7744 93.3179 40.4258 93.1187 40.127C92.925 39.8226 92.6759 39.5846 92.3716 39.4131C92.0672 39.236 91.7048 39.1475 91.2842 39.1475C90.8968 39.1475 90.5592 39.2139 90.2715 39.3467C89.9893 39.4795 89.7485 39.6593 89.5493 39.8862C89.3501 40.1076 89.1868 40.3621 89.0596 40.6499C88.9378 40.9321 88.8465 41.2254 88.7856 41.5298V43.6797C88.8963 44.0671 89.0513 44.4323 89.2505 44.7754C89.4497 45.113 89.7153 45.3869 90.0474 45.5972C90.3794 45.8019 90.7972 45.9043 91.3008 45.9043C91.7158 45.9043 92.0728 45.8185 92.3716 45.647C92.6759 45.4699 92.925 45.2292 93.1187 44.9248C93.3179 44.6204 93.4645 44.2718 93.5586 43.8789C93.6527 43.4805 93.6997 43.0571 93.6997 42.6089Z" fill="#DD3322"/>
<path d="M97.1362 46.1865C97.1362 45.9264 97.2165 45.7078 97.377 45.5308C97.543 45.3481 97.7809 45.2568 98.0908 45.2568C98.4007 45.2568 98.6359 45.3481 98.7964 45.5308C98.9624 45.7078 99.0454 45.9264 99.0454 46.1865C99.0454 46.4411 98.9624 46.6569 98.7964 46.834C98.6359 47.0111 98.4007 47.0996 98.0908 47.0996C97.7809 47.0996 97.543 47.0111 97.377 46.834C97.2165 46.6569 97.1362 46.4411 97.1362 46.1865ZM97.1445 38.8569C97.1445 38.5968 97.2248 38.3783 97.3853 38.2012C97.5513 38.0186 97.7892 37.9272 98.0991 37.9272C98.409 37.9272 98.6442 38.0186 98.8047 38.2012C98.9707 38.3783 99.0537 38.5968 99.0537 38.8569C99.0537 39.1115 98.9707 39.3273 98.8047 39.5044C98.6442 39.6815 98.409 39.77 98.0991 39.77C97.7892 39.77 97.5513 39.6815 97.3853 39.5044C97.2248 39.3273 97.1445 39.1115 97.1445 38.8569ZM106.666 34.9141L101.627 48.0376H100.307L105.354 34.9141H106.666ZM111.829 34.9141L106.79 48.0376H105.47L110.517 34.9141H111.829ZM117.232 47.166C116.607 47.166 116.04 47.0609 115.531 46.8506C115.027 46.6348 114.593 46.3332 114.228 45.9458C113.868 45.5584 113.591 45.0991 113.397 44.5679C113.204 44.0366 113.107 43.4556 113.107 42.8247V42.4761C113.107 41.7456 113.215 41.0954 113.431 40.5254C113.646 39.9499 113.94 39.4629 114.311 39.0645C114.681 38.666 115.102 38.3644 115.572 38.1597C116.043 37.9549 116.53 37.8525 117.033 37.8525C117.675 37.8525 118.229 37.9632 118.693 38.1846C119.164 38.4059 119.548 38.7158 119.847 39.1143C120.146 39.5072 120.367 39.972 120.511 40.5088C120.655 41.04 120.727 41.6211 120.727 42.252V42.9409H114.02V41.6875H119.191V41.5713C119.169 41.1729 119.086 40.7855 118.942 40.4092C118.804 40.0329 118.583 39.723 118.278 39.4795C117.974 39.236 117.559 39.1143 117.033 39.1143C116.685 39.1143 116.364 39.189 116.07 39.3384C115.777 39.4823 115.525 39.6981 115.315 39.9858C115.105 40.2736 114.941 40.625 114.825 41.04C114.709 41.4551 114.651 41.9338 114.651 42.4761V42.8247C114.651 43.2508 114.709 43.652 114.825 44.0283C114.947 44.3991 115.121 44.7256 115.348 45.0078C115.581 45.29 115.86 45.5114 116.187 45.6719C116.519 45.8324 116.895 45.9126 117.315 45.9126C117.858 45.9126 118.317 45.8019 118.693 45.5806C119.07 45.3592 119.399 45.0632 119.681 44.6924L120.611 45.4312C120.417 45.7244 120.171 46.0039 119.872 46.2695C119.573 46.5352 119.205 46.751 118.768 46.917C118.336 47.083 117.825 47.166 117.232 47.166ZM123.558 38.0186L125.525 41.2891L127.517 38.0186H129.318L126.38 42.4512L129.41 47H127.633L125.558 43.6299L123.483 47H121.698L124.72 42.4512L121.79 38.0186H123.558ZM136.25 45.4644V40.8408C136.25 40.4867 136.178 40.1795 136.034 39.9194C135.895 39.6538 135.685 39.4491 135.403 39.3052C135.121 39.1613 134.772 39.0894 134.357 39.0894C133.97 39.0894 133.629 39.1558 133.336 39.2886C133.048 39.4214 132.821 39.5957 132.655 39.8115C132.495 40.0273 132.415 40.2598 132.415 40.5088H130.879C130.879 40.1878 130.962 39.8696 131.128 39.5542C131.294 39.2388 131.532 38.9538 131.842 38.6992C132.157 38.4391 132.534 38.2344 132.971 38.085C133.413 37.93 133.906 37.8525 134.448 37.8525C135.101 37.8525 135.677 37.9632 136.175 38.1846C136.678 38.4059 137.071 38.7407 137.354 39.189C137.641 39.6317 137.785 40.1878 137.785 40.8574V45.041C137.785 45.3398 137.81 45.658 137.86 45.9956C137.915 46.3332 137.995 46.6237 138.101 46.8672V47H136.499C136.421 46.8229 136.36 46.5877 136.316 46.2944C136.272 45.9956 136.25 45.7189 136.25 45.4644ZM136.515 41.5547L136.532 42.6338H134.979C134.542 42.6338 134.152 42.6698 133.809 42.7417C133.466 42.8081 133.178 42.9105 132.946 43.0488C132.713 43.1872 132.536 43.3615 132.415 43.5718C132.293 43.7765 132.232 44.0173 132.232 44.2939C132.232 44.5762 132.296 44.8335 132.423 45.0659C132.55 45.2983 132.741 45.4837 132.996 45.6221C133.256 45.7549 133.574 45.8213 133.95 45.8213C134.421 45.8213 134.836 45.7217 135.195 45.5225C135.555 45.3232 135.84 45.0798 136.05 44.792C136.266 44.5042 136.382 44.2248 136.399 43.9536L137.055 44.6924C137.016 44.9248 136.911 45.1821 136.739 45.4644C136.568 45.7466 136.338 46.0177 136.05 46.2778C135.768 46.5324 135.431 46.7454 135.038 46.917C134.65 47.083 134.213 47.166 133.726 47.166C133.117 47.166 132.583 47.047 132.124 46.8091C131.67 46.5711 131.316 46.2529 131.062 45.8545C130.812 45.4505 130.688 44.9995 130.688 44.5015C130.688 44.02 130.782 43.5967 130.97 43.2314C131.158 42.8607 131.43 42.5535 131.784 42.3101C132.138 42.061 132.564 41.8729 133.062 41.7456C133.56 41.6183 134.116 41.5547 134.73 41.5547H136.515ZM141.728 39.8032V47H140.184V38.0186H141.645L141.728 39.8032ZM141.413 42.1689L140.699 42.144C140.704 41.5298 140.785 40.9626 140.939 40.4424C141.094 39.9167 141.324 39.4601 141.628 39.0728C141.933 38.6854 142.312 38.3866 142.766 38.1763C143.219 37.9604 143.745 37.8525 144.343 37.8525C144.763 37.8525 145.151 37.9134 145.505 38.0352C145.859 38.1514 146.166 38.3368 146.426 38.5913C146.686 38.8459 146.888 39.1724 147.032 39.5708C147.176 39.9692 147.248 40.4507 147.248 41.0151V47H145.712V41.0898C145.712 40.6195 145.632 40.2432 145.472 39.9609C145.317 39.6787 145.095 39.474 144.808 39.3467C144.52 39.2139 144.182 39.1475 143.795 39.1475C143.341 39.1475 142.962 39.2277 142.658 39.3882C142.353 39.5487 142.11 39.77 141.927 40.0522C141.745 40.3345 141.612 40.6582 141.529 41.0234C141.451 41.3831 141.413 41.765 141.413 42.1689ZM147.231 41.3223L146.202 41.6377C146.208 41.1452 146.288 40.672 146.443 40.2183C146.603 39.7645 146.833 39.3605 147.132 39.0063C147.436 38.6522 147.81 38.3727 148.252 38.168C148.695 37.9577 149.201 37.8525 149.771 37.8525C150.253 37.8525 150.679 37.9162 151.05 38.0435C151.426 38.1707 151.742 38.3672 151.996 38.6328C152.256 38.8929 152.453 39.2277 152.585 39.6372C152.718 40.0467 152.785 40.5337 152.785 41.0981V47H151.241V41.0815C151.241 40.578 151.16 40.1878 151 39.9111C150.845 39.6289 150.624 39.4325 150.336 39.3218C150.054 39.2056 149.716 39.1475 149.323 39.1475C148.986 39.1475 148.687 39.2056 148.427 39.3218C148.167 39.438 147.948 39.5985 147.771 39.8032C147.594 40.0024 147.458 40.2321 147.364 40.4922C147.276 40.7523 147.231 41.029 147.231 41.3223ZM156.645 39.7451V50.4531H155.101V38.0186H156.512L156.645 39.7451ZM162.696 42.4346V42.6089C162.696 43.2619 162.618 43.8678 162.463 44.4268C162.308 44.9801 162.082 45.4616 161.783 45.8711C161.489 46.2806 161.127 46.5988 160.695 46.8257C160.264 47.0526 159.768 47.166 159.209 47.166C158.639 47.166 158.136 47.0719 157.699 46.8838C157.262 46.6956 156.891 46.4217 156.586 46.062C156.282 45.7023 156.039 45.2707 155.856 44.7671C155.679 44.2635 155.557 43.6963 155.491 43.0654V42.1357C155.557 41.4717 155.682 40.8768 155.864 40.3511C156.047 39.8254 156.288 39.3771 156.586 39.0063C156.891 38.63 157.259 38.3451 157.69 38.1514C158.122 37.9521 158.62 37.8525 159.185 37.8525C159.749 37.8525 160.25 37.9632 160.687 38.1846C161.124 38.4004 161.492 38.7103 161.791 39.1143C162.09 39.5182 162.314 40.0024 162.463 40.5669C162.618 41.1258 162.696 41.7484 162.696 42.4346ZM161.152 42.6089V42.4346C161.152 41.9863 161.105 41.5658 161.011 41.1729C160.917 40.7744 160.77 40.4258 160.571 40.127C160.377 39.8226 160.128 39.5846 159.824 39.4131C159.519 39.236 159.157 39.1475 158.736 39.1475C158.349 39.1475 158.011 39.2139 157.724 39.3467C157.441 39.4795 157.201 39.6593 157.001 39.8862C156.802 40.1076 156.639 40.3621 156.512 40.6499C156.39 40.9321 156.299 41.2254 156.238 41.5298V43.6797C156.348 44.0671 156.503 44.4323 156.703 44.7754C156.902 45.113 157.167 45.3869 157.5 45.5972C157.832 45.8019 158.249 45.9043 158.753 45.9043C159.168 45.9043 159.525 45.8185 159.824 45.647C160.128 45.4699 160.377 45.2292 160.571 44.9248C160.77 44.6204 160.917 44.2718 161.011 43.8789C161.105 43.4805 161.152 43.0571 161.152 42.6089ZM166.323 34.25V47H164.779V34.25H166.323ZM172.516 47.166C171.89 47.166 171.323 47.0609 170.814 46.8506C170.31 46.6348 169.876 46.3332 169.511 45.9458C169.151 45.5584 168.874 45.0991 168.681 44.5679C168.487 44.0366 168.39 43.4556 168.39 42.8247V42.4761C168.39 41.7456 168.498 41.0954 168.714 40.5254C168.93 39.9499 169.223 39.4629 169.594 39.0645C169.965 38.666 170.385 38.3644 170.855 38.1597C171.326 37.9549 171.813 37.8525 172.316 37.8525C172.958 37.8525 173.512 37.9632 173.977 38.1846C174.447 38.4059 174.832 38.7158 175.13 39.1143C175.429 39.5072 175.651 39.972 175.794 40.5088C175.938 41.04 176.01 41.6211 176.01 42.252V42.9409H169.303V41.6875H174.475V41.5713C174.452 41.1729 174.369 40.7855 174.226 40.4092C174.087 40.0329 173.866 39.723 173.562 39.4795C173.257 39.236 172.842 39.1143 172.316 39.1143C171.968 39.1143 171.647 39.189 171.354 39.3384C171.06 39.4823 170.808 39.6981 170.598 39.9858C170.388 40.2736 170.225 40.625 170.108 41.04C169.992 41.4551 169.934 41.9338 169.934 42.4761V42.8247C169.934 43.2508 169.992 43.652 170.108 44.0283C170.23 44.3991 170.404 44.7256 170.631 45.0078C170.864 45.29 171.143 45.5114 171.47 45.6719C171.802 45.8324 172.178 45.9126 172.599 45.9126C173.141 45.9126 173.6 45.8019 173.977 45.5806C174.353 45.3592 174.682 45.0632 174.964 44.6924L175.894 45.4312C175.7 45.7244 175.454 46.0039 175.155 46.2695C174.856 46.5352 174.488 46.751 174.051 46.917C173.62 47.083 173.108 47.166 172.516 47.166ZM177.828 46.1865C177.828 45.9264 177.908 45.7078 178.069 45.5308C178.235 45.3481 178.473 45.2568 178.783 45.2568C179.093 45.2568 179.328 45.3481 179.488 45.5308C179.654 45.7078 179.737 45.9264 179.737 46.1865C179.737 46.4411 179.654 46.6569 179.488 46.834C179.328 47.0111 179.093 47.0996 178.783 47.0996C178.473 47.0996 178.235 47.0111 178.069 46.834C177.908 46.6569 177.828 46.4411 177.828 46.1865ZM185.88 45.9043C186.245 45.9043 186.583 45.8296 186.893 45.6802C187.202 45.5308 187.457 45.326 187.656 45.0659C187.855 44.8003 187.969 44.4987 187.997 44.1611H189.458C189.43 44.6924 189.25 45.1877 188.918 45.647C188.591 46.1007 188.163 46.4688 187.631 46.751C187.1 47.0277 186.516 47.166 185.88 47.166C185.205 47.166 184.615 47.047 184.112 46.8091C183.614 46.5711 183.199 46.2446 182.867 45.8296C182.54 45.4146 182.294 44.9386 182.128 44.4019C181.967 43.8595 181.887 43.2868 181.887 42.6836V42.335C181.887 41.7318 181.967 41.1618 182.128 40.625C182.294 40.0827 182.54 39.604 182.867 39.189C183.199 38.7739 183.614 38.4474 184.112 38.2095C184.615 37.9715 185.205 37.8525 185.88 37.8525C186.583 37.8525 187.197 37.9964 187.723 38.2842C188.248 38.5664 188.661 38.9538 188.959 39.4463C189.264 39.9333 189.43 40.4867 189.458 41.1064H187.997C187.969 40.7357 187.864 40.4009 187.681 40.1021C187.504 39.8032 187.261 39.5653 186.951 39.3882C186.646 39.2056 186.289 39.1143 185.88 39.1143C185.41 39.1143 185.014 39.2083 184.693 39.3965C184.377 39.5791 184.126 39.8281 183.938 40.1436C183.755 40.4535 183.622 40.7993 183.539 41.1812C183.462 41.5575 183.423 41.9421 183.423 42.335V42.6836C183.423 43.0765 183.462 43.4639 183.539 43.8457C183.617 44.2275 183.747 44.5734 183.929 44.8833C184.117 45.1932 184.369 45.4422 184.685 45.6304C185.006 45.813 185.404 45.9043 185.88 45.9043ZM190.777 42.6089V42.418C190.777 41.7705 190.871 41.1701 191.06 40.6167C191.248 40.0578 191.519 39.5736 191.873 39.1641C192.227 38.749 192.656 38.4281 193.16 38.2012C193.663 37.9688 194.228 37.8525 194.853 37.8525C195.484 37.8525 196.051 37.9688 196.555 38.2012C197.064 38.4281 197.495 38.749 197.85 39.1641C198.209 39.5736 198.483 40.0578 198.671 40.6167C198.86 41.1701 198.954 41.7705 198.954 42.418V42.6089C198.954 43.2563 198.86 43.8568 198.671 44.4102C198.483 44.9635 198.209 45.4478 197.85 45.8628C197.495 46.2723 197.067 46.5933 196.563 46.8257C196.065 47.0526 195.5 47.166 194.87 47.166C194.239 47.166 193.672 47.0526 193.168 46.8257C192.664 46.5933 192.233 46.2723 191.873 45.8628C191.519 45.4478 191.248 44.9635 191.06 44.4102C190.871 43.8568 190.777 43.2563 190.777 42.6089ZM192.313 42.418V42.6089C192.313 43.0571 192.366 43.4805 192.471 43.8789C192.576 44.2718 192.734 44.6204 192.944 44.9248C193.16 45.2292 193.428 45.4699 193.749 45.647C194.07 45.8185 194.444 45.9043 194.87 45.9043C195.29 45.9043 195.658 45.8185 195.974 45.647C196.295 45.4699 196.56 45.2292 196.771 44.9248C196.981 44.6204 197.139 44.2718 197.244 43.8789C197.354 43.4805 197.41 43.0571 197.41 42.6089V42.418C197.41 41.9753 197.354 41.5575 197.244 41.1646C197.139 40.7661 196.978 40.4147 196.762 40.1104C196.552 39.8005 196.286 39.557 195.965 39.3799C195.65 39.2028 195.279 39.1143 194.853 39.1143C194.432 39.1143 194.062 39.2028 193.741 39.3799C193.425 39.557 193.16 39.8005 192.944 40.1104C192.734 40.4147 192.576 40.7661 192.471 41.1646C192.366 41.5575 192.313 41.9753 192.313 42.418ZM202.407 39.8032V47H200.863V38.0186H202.324L202.407 39.8032ZM202.091 42.1689L201.377 42.144C201.383 41.5298 201.463 40.9626 201.618 40.4424C201.773 39.9167 202.003 39.4601 202.307 39.0728C202.611 38.6854 202.991 38.3866 203.444 38.1763C203.898 37.9604 204.424 37.8525 205.021 37.8525C205.442 37.8525 205.829 37.9134 206.184 38.0352C206.538 38.1514 206.845 38.3368 207.105 38.5913C207.365 38.8459 207.567 39.1724 207.711 39.5708C207.855 39.9692 207.927 40.4507 207.927 41.0151V47H206.391V41.0898C206.391 40.6195 206.311 40.2432 206.15 39.9609C205.995 39.6787 205.774 39.474 205.486 39.3467C205.199 39.2139 204.861 39.1475 204.474 39.1475C204.02 39.1475 203.641 39.2277 203.336 39.3882C203.032 39.5487 202.789 39.77 202.606 40.0522C202.423 40.3345 202.291 40.6582 202.208 41.0234C202.13 41.3831 202.091 41.765 202.091 42.1689ZM207.91 41.3223L206.881 41.6377C206.886 41.1452 206.967 40.672 207.122 40.2183C207.282 39.7645 207.512 39.3605 207.811 39.0063C208.115 38.6522 208.488 38.3727 208.931 38.168C209.374 37.9577 209.88 37.8525 210.45 37.8525C210.932 37.8525 211.358 37.9162 211.729 38.0435C212.105 38.1707 212.42 38.3672 212.675 38.6328C212.935 38.8929 213.131 39.2277 213.264 39.6372C213.397 40.0467 213.463 40.5337 213.463 41.0981V47H211.919V41.0815C211.919 40.578 211.839 40.1878 211.679 39.9111C211.524 39.6289 211.302 39.4325 211.015 39.3218C210.732 39.2056 210.395 39.1475 210.002 39.1475C209.664 39.1475 209.366 39.2056 209.105 39.3218C208.845 39.438 208.627 39.5985 208.45 39.8032C208.273 40.0024 208.137 40.2321 208.043 40.4922C207.954 40.7523 207.91 41.029 207.91 41.3223Z" fill="#333333"/>
<path d="M66 42.75H96.0322V43.5967H66V42.75Z" fill="#DD3322"/>
<path d="M41 36.68C41 35.7465 41.6652 35.16 42.2857 35.16H53.7143C54.3348 35.16 55 35.7465 55 36.68V46.48C55 47.4135 54.3348 48 53.7143 48H42.2857C41.6652 48 41 47.4135 41 46.48V36.68Z" stroke="#DD3322" stroke-width="2"/>
<path fill-rule="evenodd" clip-rule="evenodd" d="M47.873 34.16C50.1172 34.16 50.0317 34.16 51.9365 34.16C51.9365 31.6858 50.1172 29.68 47.873 29.68C45.6288 29.68 43.8095 31.6858 43.8095 34.16C45.5873 34.16 45.6288 34.16 47.873 34.16ZM47.873 34.16C50.9588 34.16 50.2857 34.16 53.4603 34.16C53.4603 30.7579 50.9588 28 47.873 28C44.7872 28 42.2857 30.7579 42.2857 34.16C45.5873 34.16 44.7872 34.16 47.873 34.16Z" fill="#DD3322"/>
<line x1="38.5638" y1="32.1138" x2="56.2415" y2="49.7915" stroke="#DD3322" stroke-width="2"/>
</svg>
