<svg width="380" height="37" viewBox="0 0 380 37" fill="none" xmlns="http://www.w3.org/2000/svg">
<rect x="0.5" y="0.5" width="379" height="36" rx="3.5" fill="white" stroke="#AAAAAA"/>
<path d="M38.7061 13.25V26H37.1704V13.25H38.7061ZM38.3408 21.1689L37.7017 21.144C37.7072 20.5298 37.7985 19.9626 37.9756 19.4424C38.1527 18.9167 38.4017 18.4601 38.7227 18.0728C39.0436 17.6854 39.4255 17.3866 39.8682 17.1763C40.3164 16.9604 40.8117 16.8525 41.354 16.8525C41.7967 16.8525 42.1951 16.9134 42.5493 17.0352C42.9035 17.1514 43.2051 17.3395 43.4541 17.5996C43.7087 17.8597 43.9023 18.1973 44.0352 18.6123C44.168 19.0218 44.2344 19.5226 44.2344 20.1147V26H42.6904V20.0981C42.6904 19.6278 42.6213 19.2515 42.4829 18.9692C42.3446 18.6815 42.1426 18.474 41.877 18.3467C41.6113 18.2139 41.2848 18.1475 40.8975 18.1475C40.5156 18.1475 40.167 18.2277 39.8516 18.3882C39.5417 18.5487 39.2733 18.77 39.0464 19.0522C38.825 19.3345 38.6507 19.6582 38.5234 20.0234C38.4017 20.3831 38.3408 20.765 38.3408 21.1689ZM50.2939 17.0186V18.1973H45.438V17.0186H50.2939ZM47.0815 14.8354H48.6172V23.7754C48.6172 24.0798 48.6642 24.3094 48.7583 24.4644C48.8524 24.6193 48.9741 24.7217 49.1235 24.7715C49.2729 24.8213 49.4334 24.8462 49.605 24.8462C49.7323 24.8462 49.8651 24.8351 50.0034 24.813C50.1473 24.7853 50.2552 24.7632 50.3271 24.7466L50.3354 26C50.2137 26.0387 50.0532 26.0747 49.854 26.1079C49.6603 26.1466 49.4251 26.166 49.1484 26.166C48.7721 26.166 48.4263 26.0913 48.1108 25.9419C47.7954 25.7925 47.5436 25.5435 47.3555 25.1948C47.1729 24.8407 47.0815 24.3647 47.0815 23.7671V14.8354ZM55.8555 17.0186V18.1973H50.9995V17.0186H55.8555ZM52.6431 14.8354H54.1787V23.7754C54.1787 24.0798 54.2257 24.3094 54.3198 24.4644C54.4139 24.6193 54.5356 24.7217 54.6851 24.7715C54.8345 24.8213 54.995 24.8462 55.1665 24.8462C55.2938 24.8462 55.4266 24.8351 55.5649 24.813C55.7088 24.7853 55.8167 24.7632 55.8887 24.7466L55.897 26C55.7752 26.0387 55.6147 26.0747 55.4155 26.1079C55.2218 26.1466 54.9867 26.166 54.71 26.166C54.3337 26.166 53.9878 26.0913 53.6724 25.9419C53.3569 25.7925 53.1051 25.5435 52.917 25.1948C52.7344 24.8407 52.6431 24.3647 52.6431 23.7671V14.8354ZM59.1924 18.7451V29.4531H57.6484V17.0186H59.0596L59.1924 18.7451ZM65.2437 21.4346V21.6089C65.2437 22.2619 65.1662 22.8678 65.0112 23.4268C64.8563 23.9801 64.6294 24.4616 64.3306 24.8711C64.0373 25.2806 63.6748 25.5988 63.2432 25.8257C62.8115 26.0526 62.3162 26.166 61.7573 26.166C61.1873 26.166 60.6838 26.0719 60.2466 25.8838C59.8094 25.6956 59.4386 25.4217 59.1343 25.062C58.8299 24.7023 58.5864 24.2707 58.4038 23.7671C58.2267 23.2635 58.105 22.6963 58.0386 22.0654V21.1357C58.105 20.4717 58.2295 19.8768 58.4121 19.3511C58.5947 18.8254 58.8354 18.3771 59.1343 18.0063C59.4386 17.63 59.8066 17.3451 60.2383 17.1514C60.6699 16.9521 61.168 16.8525 61.7324 16.8525C62.2969 16.8525 62.7977 16.9632 63.2349 17.1846C63.672 17.4004 64.04 17.7103 64.3389 18.1143C64.6377 18.5182 64.8618 19.0024 65.0112 19.5669C65.1662 20.1258 65.2437 20.7484 65.2437 21.4346ZM63.6997 21.6089V21.4346C63.6997 20.9863 63.6527 20.5658 63.5586 20.1729C63.4645 19.7744 63.3179 19.4258 63.1187 19.127C62.925 18.8226 62.6759 18.5846 62.3716 18.4131C62.0672 18.236 61.7048 18.1475 61.2842 18.1475C60.8968 18.1475 60.5592 18.2139 60.2715 18.3467C59.9893 18.4795 59.7485 18.6593 59.5493 18.8862C59.3501 19.1076 59.1868 19.3621 59.0596 19.6499C58.9378 19.9321 58.8465 20.2254 58.7856 20.5298V22.6797C58.8963 23.0671 59.0513 23.4323 59.2505 23.7754C59.4497 24.113 59.7153 24.3869 60.0474 24.5972C60.3794 24.8019 60.7972 24.9043 61.3008 24.9043C61.7158 24.9043 62.0728 24.8185 62.3716 24.647C62.6759 24.4699 62.925 24.2292 63.1187 23.9248C63.3179 23.6204 63.4645 23.2718 63.5586 22.8789C63.6527 22.4805 63.6997 22.0571 63.6997 21.6089Z" fill="#DD3322"/>
<path d="M67.1362 25.1865C67.1362 24.9264 67.2165 24.7078 67.377 24.5308C67.543 24.3481 67.7809 24.2568 68.0908 24.2568C68.4007 24.2568 68.6359 24.3481 68.7964 24.5308C68.9624 24.7078 69.0454 24.9264 69.0454 25.1865C69.0454 25.4411 68.9624 25.6569 68.7964 25.834C68.6359 26.0111 68.4007 26.0996 68.0908 26.0996C67.7809 26.0996 67.543 26.0111 67.377 25.834C67.2165 25.6569 67.1362 25.4411 67.1362 25.1865ZM67.1445 17.8569C67.1445 17.5968 67.2248 17.3783 67.3853 17.2012C67.5513 17.0186 67.7892 16.9272 68.0991 16.9272C68.409 16.9272 68.6442 17.0186 68.8047 17.2012C68.9707 17.3783 69.0537 17.5968 69.0537 17.8569C69.0537 18.1115 68.9707 18.3273 68.8047 18.5044C68.6442 18.6815 68.409 18.77 68.0991 18.77C67.7892 18.77 67.5513 18.6815 67.3853 18.5044C67.2248 18.3273 67.1445 18.1115 67.1445 17.8569ZM76.6655 13.9141L71.627 27.0376H70.3071L75.354 13.9141H76.6655ZM81.8286 13.9141L76.79 27.0376H75.4702L80.5171 13.9141H81.8286ZM87.2324 26.166C86.6071 26.166 86.0399 26.0609 85.5308 25.8506C85.0272 25.6348 84.5928 25.3332 84.2275 24.9458C83.8678 24.5584 83.5911 24.0991 83.3975 23.5679C83.2038 23.0366 83.1069 22.4556 83.1069 21.8247V21.4761C83.1069 20.7456 83.2148 20.0954 83.4307 19.5254C83.6465 18.9499 83.9398 18.4629 84.3105 18.0645C84.6813 17.666 85.1019 17.3644 85.5723 17.1597C86.0426 16.9549 86.5296 16.8525 87.0332 16.8525C87.6751 16.8525 88.2285 16.9632 88.6934 17.1846C89.1637 17.4059 89.5483 17.7158 89.8472 18.1143C90.146 18.5072 90.3674 18.972 90.5112 19.5088C90.6551 20.04 90.7271 20.6211 90.7271 21.252V21.9409H84.02V20.6875H89.1914V20.5713C89.1693 20.1729 89.0863 19.7855 88.9424 19.4092C88.804 19.0329 88.5827 18.723 88.2783 18.4795C87.974 18.236 87.5589 18.1143 87.0332 18.1143C86.6846 18.1143 86.3636 18.189 86.0703 18.3384C85.777 18.4823 85.5252 18.6981 85.3149 18.9858C85.1047 19.2736 84.9414 19.625 84.8252 20.04C84.709 20.4551 84.6509 20.9338 84.6509 21.4761V21.8247C84.6509 22.2508 84.709 22.652 84.8252 23.0283C84.9469 23.3991 85.1213 23.7256 85.3481 24.0078C85.5806 24.29 85.86 24.5114 86.1865 24.6719C86.5186 24.8324 86.8949 24.9126 87.3154 24.9126C87.8577 24.9126 88.3171 24.8019 88.6934 24.5806C89.0697 24.3592 89.3989 24.0632 89.6812 23.6924L90.6108 24.4312C90.4172 24.7244 90.1709 25.0039 89.8721 25.2695C89.5732 25.5352 89.2052 25.751 88.7681 25.917C88.3364 26.083 87.8245 26.166 87.2324 26.166ZM93.5576 17.0186L95.5249 20.2891L97.5171 17.0186H99.3184L96.3799 21.4512L99.4097 26H97.6333L95.5581 22.6299L93.4829 26H91.6982L94.7197 21.4512L91.7896 17.0186H93.5576ZM106.25 24.4644V19.8408C106.25 19.4867 106.178 19.1795 106.034 18.9194C105.895 18.6538 105.685 18.4491 105.403 18.3052C105.121 18.1613 104.772 18.0894 104.357 18.0894C103.97 18.0894 103.629 18.1558 103.336 18.2886C103.048 18.4214 102.821 18.5957 102.655 18.8115C102.495 19.0273 102.415 19.2598 102.415 19.5088H100.879C100.879 19.1878 100.962 18.8696 101.128 18.5542C101.294 18.2388 101.532 17.9538 101.842 17.6992C102.157 17.4391 102.534 17.2344 102.971 17.085C103.413 16.93 103.906 16.8525 104.448 16.8525C105.101 16.8525 105.677 16.9632 106.175 17.1846C106.678 17.4059 107.071 17.7407 107.354 18.189C107.641 18.6317 107.785 19.1878 107.785 19.8574V24.041C107.785 24.3398 107.81 24.658 107.86 24.9956C107.915 25.3332 107.995 25.6237 108.101 25.8672V26H106.499C106.421 25.8229 106.36 25.5877 106.316 25.2944C106.272 24.9956 106.25 24.7189 106.25 24.4644ZM106.515 20.5547L106.532 21.6338H104.979C104.542 21.6338 104.152 21.6698 103.809 21.7417C103.466 21.8081 103.178 21.9105 102.946 22.0488C102.713 22.1872 102.536 22.3615 102.415 22.5718C102.293 22.7765 102.232 23.0173 102.232 23.2939C102.232 23.5762 102.296 23.8335 102.423 24.0659C102.55 24.2983 102.741 24.4837 102.996 24.6221C103.256 24.7549 103.574 24.8213 103.95 24.8213C104.421 24.8213 104.836 24.7217 105.195 24.5225C105.555 24.3232 105.84 24.0798 106.05 23.792C106.266 23.5042 106.382 23.2248 106.399 22.9536L107.055 23.6924C107.016 23.9248 106.911 24.1821 106.739 24.4644C106.568 24.7466 106.338 25.0177 106.05 25.2778C105.768 25.5324 105.431 25.7454 105.038 25.917C104.65 26.083 104.213 26.166 103.726 26.166C103.117 26.166 102.583 26.047 102.124 25.8091C101.67 25.5711 101.316 25.2529 101.062 24.8545C100.812 24.4505 100.688 23.9995 100.688 23.5015C100.688 23.02 100.782 22.5967 100.97 22.2314C101.158 21.8607 101.43 21.5535 101.784 21.3101C102.138 21.061 102.564 20.8729 103.062 20.7456C103.56 20.6183 104.116 20.5547 104.73 20.5547H106.515ZM111.728 18.8032V26H110.184V17.0186H111.645L111.728 18.8032ZM111.413 21.1689L110.699 21.144C110.704 20.5298 110.785 19.9626 110.939 19.4424C111.094 18.9167 111.324 18.4601 111.628 18.0728C111.933 17.6854 112.312 17.3866 112.766 17.1763C113.219 16.9604 113.745 16.8525 114.343 16.8525C114.763 16.8525 115.151 16.9134 115.505 17.0352C115.859 17.1514 116.166 17.3368 116.426 17.5913C116.686 17.8459 116.888 18.1724 117.032 18.5708C117.176 18.9692 117.248 19.4507 117.248 20.0151V26H115.712V20.0898C115.712 19.6195 115.632 19.2432 115.472 18.9609C115.317 18.6787 115.095 18.474 114.808 18.3467C114.52 18.2139 114.182 18.1475 113.795 18.1475C113.341 18.1475 112.962 18.2277 112.658 18.3882C112.353 18.5487 112.11 18.77 111.927 19.0522C111.745 19.3345 111.612 19.6582 111.529 20.0234C111.451 20.3831 111.413 20.765 111.413 21.1689ZM117.231 20.3223L116.202 20.6377C116.208 20.1452 116.288 19.672 116.443 19.2183C116.603 18.7645 116.833 18.3605 117.132 18.0063C117.436 17.6522 117.81 17.3727 118.252 17.168C118.695 16.9577 119.201 16.8525 119.771 16.8525C120.253 16.8525 120.679 16.9162 121.05 17.0435C121.426 17.1707 121.742 17.3672 121.996 17.6328C122.256 17.8929 122.453 18.2277 122.585 18.6372C122.718 19.0467 122.785 19.5337 122.785 20.0981V26H121.241V20.0815C121.241 19.578 121.16 19.1878 121 18.9111C120.845 18.6289 120.624 18.4325 120.336 18.3218C120.054 18.2056 119.716 18.1475 119.323 18.1475C118.986 18.1475 118.687 18.2056 118.427 18.3218C118.167 18.438 117.948 18.5985 117.771 18.8032C117.594 19.0024 117.458 19.2321 117.364 19.4922C117.276 19.7523 117.231 20.029 117.231 20.3223ZM126.645 18.7451V29.4531H125.101V17.0186H126.512L126.645 18.7451ZM132.696 21.4346V21.6089C132.696 22.2619 132.618 22.8678 132.463 23.4268C132.308 23.9801 132.082 24.4616 131.783 24.8711C131.489 25.2806 131.127 25.5988 130.695 25.8257C130.264 26.0526 129.768 26.166 129.209 26.166C128.639 26.166 128.136 26.0719 127.699 25.8838C127.262 25.6956 126.891 25.4217 126.586 25.062C126.282 24.7023 126.039 24.2707 125.856 23.7671C125.679 23.2635 125.557 22.6963 125.491 22.0654V21.1357C125.557 20.4717 125.682 19.8768 125.864 19.3511C126.047 18.8254 126.288 18.3771 126.586 18.0063C126.891 17.63 127.259 17.3451 127.69 17.1514C128.122 16.9521 128.62 16.8525 129.185 16.8525C129.749 16.8525 130.25 16.9632 130.687 17.1846C131.124 17.4004 131.492 17.7103 131.791 18.1143C132.09 18.5182 132.314 19.0024 132.463 19.5669C132.618 20.1258 132.696 20.7484 132.696 21.4346ZM131.152 21.6089V21.4346C131.152 20.9863 131.105 20.5658 131.011 20.1729C130.917 19.7744 130.77 19.4258 130.571 19.127C130.377 18.8226 130.128 18.5846 129.824 18.4131C129.519 18.236 129.157 18.1475 128.736 18.1475C128.349 18.1475 128.011 18.2139 127.724 18.3467C127.441 18.4795 127.201 18.6593 127.001 18.8862C126.802 19.1076 126.639 19.3621 126.512 19.6499C126.39 19.9321 126.299 20.2254 126.238 20.5298V22.6797C126.348 23.0671 126.503 23.4323 126.703 23.7754C126.902 24.113 127.167 24.3869 127.5 24.5972C127.832 24.8019 128.249 24.9043 128.753 24.9043C129.168 24.9043 129.525 24.8185 129.824 24.647C130.128 24.4699 130.377 24.2292 130.571 23.9248C130.77 23.6204 130.917 23.2718 131.011 22.8789C131.105 22.4805 131.152 22.0571 131.152 21.6089ZM136.323 13.25V26H134.779V13.25H136.323ZM142.516 26.166C141.89 26.166 141.323 26.0609 140.814 25.8506C140.31 25.6348 139.876 25.3332 139.511 24.9458C139.151 24.5584 138.874 24.0991 138.681 23.5679C138.487 23.0366 138.39 22.4556 138.39 21.8247V21.4761C138.39 20.7456 138.498 20.0954 138.714 19.5254C138.93 18.9499 139.223 18.4629 139.594 18.0645C139.965 17.666 140.385 17.3644 140.855 17.1597C141.326 16.9549 141.813 16.8525 142.316 16.8525C142.958 16.8525 143.512 16.9632 143.977 17.1846C144.447 17.4059 144.832 17.7158 145.13 18.1143C145.429 18.5072 145.651 18.972 145.794 19.5088C145.938 20.04 146.01 20.6211 146.01 21.252V21.9409H139.303V20.6875H144.475V20.5713C144.452 20.1729 144.369 19.7855 144.226 19.4092C144.087 19.0329 143.866 18.723 143.562 18.4795C143.257 18.236 142.842 18.1143 142.316 18.1143C141.968 18.1143 141.647 18.189 141.354 18.3384C141.06 18.4823 140.808 18.6981 140.598 18.9858C140.388 19.2736 140.225 19.625 140.108 20.04C139.992 20.4551 139.934 20.9338 139.934 21.4761V21.8247C139.934 22.2508 139.992 22.652 140.108 23.0283C140.23 23.3991 140.404 23.7256 140.631 24.0078C140.864 24.29 141.143 24.5114 141.47 24.6719C141.802 24.8324 142.178 24.9126 142.599 24.9126C143.141 24.9126 143.6 24.8019 143.977 24.5806C144.353 24.3592 144.682 24.0632 144.964 23.6924L145.894 24.4312C145.7 24.7244 145.454 25.0039 145.155 25.2695C144.856 25.5352 144.488 25.751 144.051 25.917C143.62 26.083 143.108 26.166 142.516 26.166ZM147.828 25.1865C147.828 24.9264 147.908 24.7078 148.069 24.5308C148.235 24.3481 148.473 24.2568 148.783 24.2568C149.093 24.2568 149.328 24.3481 149.488 24.5308C149.654 24.7078 149.737 24.9264 149.737 25.1865C149.737 25.4411 149.654 25.6569 149.488 25.834C149.328 26.0111 149.093 26.0996 148.783 26.0996C148.473 26.0996 148.235 26.0111 148.069 25.834C147.908 25.6569 147.828 25.4411 147.828 25.1865ZM155.88 24.9043C156.245 24.9043 156.583 24.8296 156.893 24.6802C157.202 24.5308 157.457 24.326 157.656 24.0659C157.855 23.8003 157.969 23.4987 157.997 23.1611H159.458C159.43 23.6924 159.25 24.1877 158.918 24.647C158.591 25.1007 158.163 25.4688 157.631 25.751C157.1 26.0277 156.516 26.166 155.88 26.166C155.205 26.166 154.615 26.047 154.112 25.8091C153.614 25.5711 153.199 25.2446 152.867 24.8296C152.54 24.4146 152.294 23.9386 152.128 23.4019C151.967 22.8595 151.887 22.2868 151.887 21.6836V21.335C151.887 20.7318 151.967 20.1618 152.128 19.625C152.294 19.0827 152.54 18.604 152.867 18.189C153.199 17.7739 153.614 17.4474 154.112 17.2095C154.615 16.9715 155.205 16.8525 155.88 16.8525C156.583 16.8525 157.197 16.9964 157.723 17.2842C158.248 17.5664 158.661 17.9538 158.959 18.4463C159.264 18.9333 159.43 19.4867 159.458 20.1064H157.997C157.969 19.7357 157.864 19.4009 157.681 19.1021C157.504 18.8032 157.261 18.5653 156.951 18.3882C156.646 18.2056 156.289 18.1143 155.88 18.1143C155.41 18.1143 155.014 18.2083 154.693 18.3965C154.377 18.5791 154.126 18.8281 153.938 19.1436C153.755 19.4535 153.622 19.7993 153.539 20.1812C153.462 20.5575 153.423 20.9421 153.423 21.335V21.6836C153.423 22.0765 153.462 22.4639 153.539 22.8457C153.617 23.2275 153.747 23.5734 153.929 23.8833C154.117 24.1932 154.369 24.4422 154.685 24.6304C155.006 24.813 155.404 24.9043 155.88 24.9043ZM160.777 21.6089V21.418C160.777 20.7705 160.871 20.1701 161.06 19.6167C161.248 19.0578 161.519 18.5736 161.873 18.1641C162.227 17.749 162.656 17.4281 163.16 17.2012C163.663 16.9688 164.228 16.8525 164.853 16.8525C165.484 16.8525 166.051 16.9688 166.555 17.2012C167.064 17.4281 167.495 17.749 167.85 18.1641C168.209 18.5736 168.483 19.0578 168.671 19.6167C168.86 20.1701 168.954 20.7705 168.954 21.418V21.6089C168.954 22.2563 168.86 22.8568 168.671 23.4102C168.483 23.9635 168.209 24.4478 167.85 24.8628C167.495 25.2723 167.067 25.5933 166.563 25.8257C166.065 26.0526 165.5 26.166 164.87 26.166C164.239 26.166 163.672 26.0526 163.168 25.8257C162.664 25.5933 162.233 25.2723 161.873 24.8628C161.519 24.4478 161.248 23.9635 161.06 23.4102C160.871 22.8568 160.777 22.2563 160.777 21.6089ZM162.313 21.418V21.6089C162.313 22.0571 162.366 22.4805 162.471 22.8789C162.576 23.2718 162.734 23.6204 162.944 23.9248C163.16 24.2292 163.428 24.4699 163.749 24.647C164.07 24.8185 164.444 24.9043 164.87 24.9043C165.29 24.9043 165.658 24.8185 165.974 24.647C166.295 24.4699 166.56 24.2292 166.771 23.9248C166.981 23.6204 167.139 23.2718 167.244 22.8789C167.354 22.4805 167.41 22.0571 167.41 21.6089V21.418C167.41 20.9753 167.354 20.5575 167.244 20.1646C167.139 19.7661 166.978 19.4147 166.762 19.1104C166.552 18.8005 166.286 18.557 165.965 18.3799C165.65 18.2028 165.279 18.1143 164.853 18.1143C164.432 18.1143 164.062 18.2028 163.741 18.3799C163.425 18.557 163.16 18.8005 162.944 19.1104C162.734 19.4147 162.576 19.7661 162.471 20.1646C162.366 20.5575 162.313 20.9753 162.313 21.418ZM172.407 18.8032V26H170.863V17.0186H172.324L172.407 18.8032ZM172.091 21.1689L171.377 21.144C171.383 20.5298 171.463 19.9626 171.618 19.4424C171.773 18.9167 172.003 18.4601 172.307 18.0728C172.611 17.6854 172.991 17.3866 173.444 17.1763C173.898 16.9604 174.424 16.8525 175.021 16.8525C175.442 16.8525 175.829 16.9134 176.184 17.0352C176.538 17.1514 176.845 17.3368 177.105 17.5913C177.365 17.8459 177.567 18.1724 177.711 18.5708C177.855 18.9692 177.927 19.4507 177.927 20.0151V26H176.391V20.0898C176.391 19.6195 176.311 19.2432 176.15 18.9609C175.995 18.6787 175.774 18.474 175.486 18.3467C175.199 18.2139 174.861 18.1475 174.474 18.1475C174.02 18.1475 173.641 18.2277 173.336 18.3882C173.032 18.5487 172.789 18.77 172.606 19.0522C172.423 19.3345 172.291 19.6582 172.208 20.0234C172.13 20.3831 172.091 20.765 172.091 21.1689ZM177.91 20.3223L176.881 20.6377C176.886 20.1452 176.967 19.672 177.122 19.2183C177.282 18.7645 177.512 18.3605 177.811 18.0063C178.115 17.6522 178.488 17.3727 178.931 17.168C179.374 16.9577 179.88 16.8525 180.45 16.8525C180.932 16.8525 181.358 16.9162 181.729 17.0435C182.105 17.1707 182.42 17.3672 182.675 17.6328C182.935 17.8929 183.131 18.2277 183.264 18.6372C183.397 19.0467 183.463 19.5337 183.463 20.0981V26H181.919V20.0815C181.919 19.578 181.839 19.1878 181.679 18.9111C181.524 18.6289 181.302 18.4325 181.015 18.3218C180.732 18.2056 180.395 18.1475 180.002 18.1475C179.664 18.1475 179.366 18.2056 179.105 18.3218C178.845 18.438 178.627 18.5985 178.45 18.8032C178.273 19.0024 178.137 19.2321 178.043 19.4922C177.954 19.7523 177.91 20.029 177.91 20.3223Z" fill="#333333"/>
<path d="M36 21.75H66.0322V22.5967H36V21.75Z" fill="#DD3322"/>
<path d="M12.2857 14.16H23.7143C24.3348 14.16 25 14.7465 25 15.68V25.48C25 26.4135 24.3348 27 23.7143 27H12.2857C11.6652 27 11 26.4135 11 25.48V15.68C11 14.7465 11.6652 14.16 12.2857 14.16Z" stroke="#DD3322" stroke-width="2"/>
<path fill-rule="evenodd" clip-rule="evenodd" d="M17.873 13.16C20.1172 13.16 20.0317 13.16 21.9365 13.16C21.9365 10.6858 20.1172 8.68 17.873 8.68C15.6288 8.68 13.8095 10.6858 13.8095 13.16C15.5873 13.16 15.6288 13.16 17.873 13.16ZM17.873 13.16C20.9588 13.16 20.2857 13.16 23.4603 13.16C23.4603 9.75793 20.9588 7 17.873 7C14.7872 7 12.2857 9.75793 12.2857 13.16C15.5873 13.16 14.7872 13.16 17.873 13.16Z" fill="#DD3322"/>
<line x1="8.56383" y1="11.1138" x2="26.2415" y2="28.7915" stroke="#DD3322" stroke-width="2"/>
</svg>
