<svg width="440" height="80" viewBox="0 0 440 80" fill="none" xmlns="http://www.w3.org/2000/svg">
<rect x="30.5" y="22.5" width="379" height="36" rx="3.5" fill="white" stroke="#AAAAAA"/>
<path d="M70.8975 48.166C70.2721 48.166 69.7049 48.0609 69.1958 47.8506C68.6922 47.6348 68.2578 47.3332 67.8926 46.9458C67.5329 46.5584 67.2562 46.0991 67.0625 45.5679C66.8688 45.0366 66.772 44.4556 66.772 43.8247V43.4761C66.772 42.7456 66.8799 42.0954 67.0957 41.5254C67.3115 40.9499 67.6048 40.4629 67.9756 40.0645C68.3464 39.666 68.7669 39.3644 69.2373 39.1597C69.7077 38.9549 70.1947 38.8525 70.6982 38.8525C71.3402 38.8525 71.8936 38.9632 72.3584 39.1846C72.8288 39.4059 73.2134 39.7158 73.5122 40.1143C73.811 40.5072 74.0324 40.972 74.1763 41.5088C74.3201 42.04 74.3921 42.6211 74.3921 43.252V43.9409H67.6851V42.6875H72.8564V42.5713C72.8343 42.1729 72.7513 41.7855 72.6074 41.4092C72.4691 41.0329 72.2477 40.723 71.9434 40.4795C71.639 40.236 71.224 40.1143 70.6982 40.1143C70.3496 40.1143 70.0286 40.189 69.7354 40.3384C69.4421 40.4823 69.1903 40.6981 68.98 40.9858C68.7697 41.2736 68.6064 41.625 68.4902 42.04C68.374 42.4551 68.3159 42.9338 68.3159 43.4761V43.8247C68.3159 44.2508 68.374 44.652 68.4902 45.0283C68.612 45.3991 68.7863 45.7256 69.0132 46.0078C69.2456 46.29 69.5251 46.5114 69.8516 46.6719C70.1836 46.8324 70.5599 46.9126 70.9805 46.9126C71.5228 46.9126 71.9821 46.8019 72.3584 46.5806C72.7347 46.3592 73.064 46.0632 73.3462 45.6924L74.2759 46.4312C74.0822 46.7244 73.8359 47.0039 73.5371 47.2695C73.2383 47.5352 72.8703 47.751 72.4331 47.917C72.0015 48.083 71.4896 48.166 70.8975 48.166ZM77.2227 39.0186L79.1899 42.2891L81.1821 39.0186H82.9834L80.0449 43.4512L83.0747 48H81.2983L79.2231 44.6299L77.1479 48H75.3633L78.3848 43.4512L75.4546 39.0186H77.2227ZM89.9146 46.4644V41.8408C89.9146 41.4867 89.8426 41.1795 89.6987 40.9194C89.5604 40.6538 89.3501 40.4491 89.0679 40.3052C88.7856 40.1613 88.437 40.0894 88.022 40.0894C87.6346 40.0894 87.2943 40.1558 87.001 40.2886C86.7132 40.4214 86.4863 40.5957 86.3203 40.8115C86.1598 41.0273 86.0796 41.2598 86.0796 41.5088H84.5439C84.5439 41.1878 84.627 40.8696 84.793 40.5542C84.959 40.2388 85.1969 39.9538 85.5068 39.6992C85.8223 39.4391 86.1986 39.2344 86.6357 39.085C87.0785 38.93 87.571 38.8525 88.1133 38.8525C88.7663 38.8525 89.3418 38.9632 89.8398 39.1846C90.3434 39.4059 90.7363 39.7407 91.0186 40.189C91.3063 40.6317 91.4502 41.1878 91.4502 41.8574V46.041C91.4502 46.3398 91.4751 46.658 91.5249 46.9956C91.5802 47.3332 91.6605 47.6237 91.7656 47.8672V48H90.1636C90.0861 47.8229 90.0252 47.5877 89.981 47.2944C89.9367 46.9956 89.9146 46.7189 89.9146 46.4644ZM90.1802 42.5547L90.1968 43.6338H88.6445C88.2074 43.6338 87.8172 43.6698 87.4741 43.7417C87.131 43.8081 86.8433 43.9105 86.6108 44.0488C86.3784 44.1872 86.2013 44.3615 86.0796 44.5718C85.9578 44.7765 85.897 45.0173 85.897 45.2939C85.897 45.5762 85.9606 45.8335 86.0879 46.0659C86.2152 46.2983 86.4061 46.4837 86.6606 46.6221C86.9207 46.7549 87.2389 46.8213 87.6152 46.8213C88.0856 46.8213 88.5007 46.7217 88.8604 46.5225C89.2201 46.3232 89.505 46.0798 89.7153 45.792C89.9312 45.5042 90.0474 45.2248 90.064 44.9536L90.7197 45.6924C90.681 45.9248 90.5758 46.1821 90.4043 46.4644C90.2327 46.7466 90.0031 47.0177 89.7153 47.2778C89.4331 47.5324 89.0955 47.7454 88.7026 47.917C88.3153 48.083 87.8781 48.166 87.3911 48.166C86.7824 48.166 86.2484 48.047 85.7891 47.8091C85.3353 47.5711 84.9811 47.2529 84.7266 46.8545C84.4775 46.4505 84.353 45.9995 84.353 45.5015C84.353 45.02 84.4471 44.5967 84.6353 44.2314C84.8234 43.8607 85.0946 43.5535 85.4487 43.3101C85.8029 43.061 86.229 42.8729 86.7271 42.7456C87.2251 42.6183 87.7812 42.5547 88.3955 42.5547H90.1802ZM95.3931 40.8032V48H93.8491V39.0186H95.3101L95.3931 40.8032ZM95.0776 43.1689L94.3638 43.144C94.3693 42.5298 94.4495 41.9626 94.6045 41.4424C94.7594 40.9167 94.9891 40.4601 95.2935 40.0728C95.5978 39.6854 95.9769 39.3866 96.4307 39.1763C96.8844 38.9604 97.4102 38.8525 98.0078 38.8525C98.4284 38.8525 98.8158 38.9134 99.1699 39.0352C99.5241 39.1514 99.8312 39.3368 100.091 39.5913C100.351 39.8459 100.553 40.1724 100.697 40.5708C100.841 40.9692 100.913 41.4507 100.913 42.0151V48H99.3774V42.0898C99.3774 41.6195 99.2972 41.2432 99.1367 40.9609C98.9818 40.6787 98.7604 40.474 98.4727 40.3467C98.1849 40.2139 97.8473 40.1475 97.46 40.1475C97.0062 40.1475 96.6271 40.2277 96.3228 40.3882C96.0184 40.5487 95.7749 40.77 95.5923 41.0522C95.4097 41.3345 95.2769 41.6582 95.1938 42.0234C95.1164 42.3831 95.0776 42.765 95.0776 43.1689ZM100.896 42.3223L99.8672 42.6377C99.8727 42.1452 99.953 41.672 100.108 41.2183C100.268 40.7645 100.498 40.3605 100.797 40.0063C101.101 39.6522 101.475 39.3727 101.917 39.168C102.36 38.9577 102.867 38.8525 103.437 38.8525C103.918 38.8525 104.344 38.9162 104.715 39.0435C105.091 39.1707 105.407 39.3672 105.661 39.6328C105.921 39.8929 106.118 40.2277 106.25 40.6372C106.383 41.0467 106.45 41.5337 106.45 42.0981V48H104.906V42.0815C104.906 41.578 104.826 41.1878 104.665 40.9111C104.51 40.6289 104.289 40.4325 104.001 40.3218C103.719 40.2056 103.381 40.1475 102.988 40.1475C102.651 40.1475 102.352 40.2056 102.092 40.3218C101.832 40.438 101.613 40.5985 101.436 40.8032C101.259 41.0024 101.123 41.2321 101.029 41.4922C100.941 41.7523 100.896 42.029 100.896 42.3223ZM110.31 40.7451V51.4531H108.766V39.0186H110.177L110.31 40.7451ZM116.361 43.4346V43.6089C116.361 44.2619 116.283 44.8678 116.128 45.4268C115.973 45.9801 115.747 46.4616 115.448 46.8711C115.154 47.2806 114.792 47.5988 114.36 47.8257C113.929 48.0526 113.433 48.166 112.875 48.166C112.305 48.166 111.801 48.0719 111.364 47.8838C110.927 47.6956 110.556 47.4217 110.251 47.062C109.947 46.7023 109.704 46.2707 109.521 45.7671C109.344 45.2635 109.222 44.6963 109.156 44.0654V43.1357C109.222 42.4717 109.347 41.8768 109.529 41.3511C109.712 40.8254 109.953 40.3771 110.251 40.0063C110.556 39.63 110.924 39.3451 111.355 39.1514C111.787 38.9521 112.285 38.8525 112.85 38.8525C113.414 38.8525 113.915 38.9632 114.352 39.1846C114.789 39.4004 115.157 39.7103 115.456 40.1143C115.755 40.5182 115.979 41.0024 116.128 41.5669C116.283 42.1258 116.361 42.7484 116.361 43.4346ZM114.817 43.6089V43.4346C114.817 42.9863 114.77 42.5658 114.676 42.1729C114.582 41.7744 114.435 41.4258 114.236 41.127C114.042 40.8226 113.793 40.5846 113.489 40.4131C113.184 40.236 112.822 40.1475 112.401 40.1475C112.014 40.1475 111.676 40.2139 111.389 40.3467C111.106 40.4795 110.866 40.6593 110.667 40.8862C110.467 41.1076 110.304 41.3621 110.177 41.6499C110.055 41.9321 109.964 42.2254 109.903 42.5298V44.6797C110.014 45.0671 110.168 45.4323 110.368 45.7754C110.567 46.113 110.833 46.3869 111.165 46.5972C111.497 46.8019 111.914 46.9043 112.418 46.9043C112.833 46.9043 113.19 46.8185 113.489 46.647C113.793 46.4699 114.042 46.2292 114.236 45.9248C114.435 45.6204 114.582 45.2718 114.676 44.8789C114.77 44.4805 114.817 44.0571 114.817 43.6089ZM119.988 35.25V48H118.444V35.25H119.988ZM126.181 48.166C125.555 48.166 124.988 48.0609 124.479 47.8506C123.975 47.6348 123.541 47.3332 123.176 46.9458C122.816 46.5584 122.539 46.0991 122.346 45.5679C122.152 45.0366 122.055 44.4556 122.055 43.8247V43.4761C122.055 42.7456 122.163 42.0954 122.379 41.5254C122.595 40.9499 122.888 40.4629 123.259 40.0645C123.63 39.666 124.05 39.3644 124.521 39.1597C124.991 38.9549 125.478 38.8525 125.981 38.8525C126.623 38.8525 127.177 38.9632 127.642 39.1846C128.112 39.4059 128.497 39.7158 128.795 40.1143C129.094 40.5072 129.316 40.972 129.459 41.5088C129.603 42.04 129.675 42.6211 129.675 43.252V43.9409H122.968V42.6875H128.14V42.5713C128.118 42.1729 128.035 41.7855 127.891 41.4092C127.752 41.0329 127.531 40.723 127.227 40.4795C126.922 40.236 126.507 40.1143 125.981 40.1143C125.633 40.1143 125.312 40.189 125.019 40.3384C124.725 40.4823 124.473 40.6981 124.263 40.9858C124.053 41.2736 123.89 41.625 123.773 42.04C123.657 42.4551 123.599 42.9338 123.599 43.4761V43.8247C123.599 44.2508 123.657 44.652 123.773 45.0283C123.895 45.3991 124.069 45.7256 124.296 46.0078C124.529 46.29 124.808 46.5114 125.135 46.6719C125.467 46.8324 125.843 46.9126 126.264 46.9126C126.806 46.9126 127.265 46.8019 127.642 46.5806C128.018 46.3592 128.347 46.0632 128.629 45.6924L129.559 46.4312C129.365 46.7244 129.119 47.0039 128.82 47.2695C128.521 47.5352 128.153 47.751 127.716 47.917C127.285 48.083 126.773 48.166 126.181 48.166ZM131.493 47.1865C131.493 46.9264 131.573 46.7078 131.734 46.5308C131.9 46.3481 132.138 46.2568 132.448 46.2568C132.758 46.2568 132.993 46.3481 133.153 46.5308C133.319 46.7078 133.402 46.9264 133.402 47.1865C133.402 47.4411 133.319 47.6569 133.153 47.834C132.993 48.0111 132.758 48.0996 132.448 48.0996C132.138 48.0996 131.9 48.0111 131.734 47.834C131.573 47.6569 131.493 47.4411 131.493 47.1865ZM139.545 46.9043C139.91 46.9043 140.248 46.8296 140.558 46.6802C140.868 46.5308 141.122 46.326 141.321 46.0659C141.521 45.8003 141.634 45.4987 141.662 45.1611H143.123C143.095 45.6924 142.915 46.1877 142.583 46.647C142.257 47.1007 141.828 47.4688 141.296 47.751C140.765 48.0277 140.181 48.166 139.545 48.166C138.87 48.166 138.28 48.047 137.777 47.8091C137.279 47.5711 136.864 47.2446 136.532 46.8296C136.205 46.4146 135.959 45.9386 135.793 45.4019C135.632 44.8595 135.552 44.2868 135.552 43.6836V43.335C135.552 42.7318 135.632 42.1618 135.793 41.625C135.959 41.0827 136.205 40.604 136.532 40.189C136.864 39.7739 137.279 39.4474 137.777 39.2095C138.28 38.9715 138.87 38.8525 139.545 38.8525C140.248 38.8525 140.862 38.9964 141.388 39.2842C141.913 39.5664 142.326 39.9538 142.625 40.4463C142.929 40.9333 143.095 41.4867 143.123 42.1064H141.662C141.634 41.7357 141.529 41.4009 141.346 41.1021C141.169 40.8032 140.926 40.5653 140.616 40.3882C140.311 40.2056 139.954 40.1143 139.545 40.1143C139.075 40.1143 138.679 40.2083 138.358 40.3965C138.042 40.5791 137.791 40.8281 137.603 41.1436C137.42 41.4535 137.287 41.7993 137.204 42.1812C137.127 42.5575 137.088 42.9421 137.088 43.335V43.6836C137.088 44.0765 137.127 44.4639 137.204 44.8457C137.282 45.2275 137.412 45.5734 137.594 45.8833C137.782 46.1932 138.034 46.4422 138.35 46.6304C138.671 46.813 139.069 46.9043 139.545 46.9043ZM144.442 43.6089V43.418C144.442 42.7705 144.536 42.1701 144.725 41.6167C144.913 41.0578 145.184 40.5736 145.538 40.1641C145.892 39.749 146.321 39.4281 146.825 39.2012C147.328 38.9688 147.893 38.8525 148.518 38.8525C149.149 38.8525 149.716 38.9688 150.22 39.2012C150.729 39.4281 151.16 39.749 151.515 40.1641C151.874 40.5736 152.148 41.0578 152.336 41.6167C152.525 42.1701 152.619 42.7705 152.619 43.418V43.6089C152.619 44.2563 152.525 44.8568 152.336 45.4102C152.148 45.9635 151.874 46.4478 151.515 46.8628C151.16 47.2723 150.732 47.5933 150.228 47.8257C149.73 48.0526 149.166 48.166 148.535 48.166C147.904 48.166 147.337 48.0526 146.833 47.8257C146.329 47.5933 145.898 47.2723 145.538 46.8628C145.184 46.4478 144.913 45.9635 144.725 45.4102C144.536 44.8568 144.442 44.2563 144.442 43.6089ZM145.978 43.418V43.6089C145.978 44.0571 146.031 44.4805 146.136 44.8789C146.241 45.2718 146.399 45.6204 146.609 45.9248C146.825 46.2292 147.093 46.4699 147.414 46.647C147.735 46.8185 148.109 46.9043 148.535 46.9043C148.955 46.9043 149.323 46.8185 149.639 46.647C149.96 46.4699 150.225 46.2292 150.436 45.9248C150.646 45.6204 150.804 45.2718 150.909 44.8789C151.019 44.4805 151.075 44.0571 151.075 43.6089V43.418C151.075 42.9753 151.019 42.5575 150.909 42.1646C150.804 41.7661 150.643 41.4147 150.427 41.1104C150.217 40.8005 149.951 40.557 149.63 40.3799C149.315 40.2028 148.944 40.1143 148.518 40.1143C148.097 40.1143 147.727 40.2028 147.406 40.3799C147.09 40.557 146.825 40.8005 146.609 41.1104C146.399 41.4147 146.241 41.7661 146.136 42.1646C146.031 42.5575 145.978 42.9753 145.978 43.418ZM156.072 40.8032V48H154.528V39.0186H155.989L156.072 40.8032ZM155.756 43.1689L155.042 43.144C155.048 42.5298 155.128 41.9626 155.283 41.4424C155.438 40.9167 155.668 40.4601 155.972 40.0728C156.277 39.6854 156.656 39.3866 157.109 39.1763C157.563 38.9604 158.089 38.8525 158.687 38.8525C159.107 38.8525 159.494 38.9134 159.849 39.0352C160.203 39.1514 160.51 39.3368 160.77 39.5913C161.03 39.8459 161.232 40.1724 161.376 40.5708C161.52 40.9692 161.592 41.4507 161.592 42.0151V48H160.056V42.0898C160.056 41.6195 159.976 41.2432 159.815 40.9609C159.66 40.6787 159.439 40.474 159.151 40.3467C158.864 40.2139 158.526 40.1475 158.139 40.1475C157.685 40.1475 157.306 40.2277 157.001 40.3882C156.697 40.5487 156.454 40.77 156.271 41.0522C156.088 41.3345 155.956 41.6582 155.873 42.0234C155.795 42.3831 155.756 42.765 155.756 43.1689ZM161.575 42.3223L160.546 42.6377C160.551 42.1452 160.632 41.672 160.787 41.2183C160.947 40.7645 161.177 40.3605 161.476 40.0063C161.78 39.6522 162.153 39.3727 162.596 39.168C163.039 38.9577 163.545 38.8525 164.115 38.8525C164.597 38.8525 165.023 38.9162 165.394 39.0435C165.77 39.1707 166.085 39.3672 166.34 39.6328C166.6 39.8929 166.796 40.2277 166.929 40.6372C167.062 41.0467 167.128 41.5337 167.128 42.0981V48H165.584V42.0815C165.584 41.578 165.504 41.1878 165.344 40.9111C165.189 40.6289 164.967 40.4325 164.68 40.3218C164.397 40.2056 164.06 40.1475 163.667 40.1475C163.329 40.1475 163.031 40.2056 162.771 40.3218C162.51 40.438 162.292 40.5985 162.115 40.8032C161.938 41.0024 161.802 41.2321 161.708 41.4922C161.619 41.7523 161.575 42.029 161.575 42.3223Z" fill="#333333"/>
<path d="M40 37.68C40 36.2882 41.0233 35.16 42.2857 35.16H53.7143C54.9767 35.16 56 36.2882 56 37.68V47.48C56 48.8717 54.9767 50 53.7143 50H42.2857C41.0233 50 40 48.8717 40 47.48V37.68Z" fill="#555555"/>
<path fill-rule="evenodd" clip-rule="evenodd" d="M47.873 35.16C50.1172 35.16 50.0317 35.16 51.9365 35.16C51.9365 32.6858 50.1172 30.68 47.873 30.68C45.6288 30.68 43.8095 32.6858 43.8095 35.16C45.5873 35.16 45.6288 35.16 47.873 35.16ZM47.873 35.16C50.9588 35.16 50.2857 35.16 53.4603 35.16C53.4603 31.7579 50.9588 29 47.873 29C44.7872 29 42.2857 31.7579 42.2857 35.16C45.5873 35.16 44.7872 35.16 47.873 35.16Z" fill="#555555"/>
</svg>
