<svg width="329" height="169" viewBox="0 0 329 169" fill="none" xmlns="http://www.w3.org/2000/svg">
<line x1="12" y1="154.5" x2="312" y2="154.5" stroke="#333333"/>
<line x1="22.5" y1="141" x2="22.5" y2="169" stroke="#333333"/>
<line x1="162.5" y1="141" x2="162.5" y2="169" stroke="#333333"/>
<path d="M9.29688 126.11V127.414H2.75586V126.11H9.29688ZM3.00488 120.914V133H1.40283V120.914H3.00488ZM10.6914 120.914V133H9.09766V120.914H10.6914ZM17.7554 120.914V133H16.1782V120.914H17.7554ZM21.6401 120.914V122.226H12.3018V120.914H21.6401ZM28.0317 120.914V133H26.4546V120.914H28.0317ZM31.9165 120.914V122.226H22.5781V120.914H31.9165ZM38.167 128.26H34.938V126.957H38.167C38.7923 126.957 39.2987 126.857 39.686 126.658C40.0734 126.459 40.3556 126.182 40.5327 125.828C40.7153 125.474 40.8066 125.07 40.8066 124.616C40.8066 124.201 40.7153 123.811 40.5327 123.446C40.3556 123.081 40.0734 122.787 39.686 122.566C39.2987 122.339 38.7923 122.226 38.167 122.226H35.3115V133H33.7095V120.914H38.167C39.0801 120.914 39.8521 121.072 40.4829 121.387C41.1138 121.703 41.5924 122.14 41.9189 122.699C42.2454 123.252 42.4087 123.886 42.4087 124.6C42.4087 125.374 42.2454 126.036 41.9189 126.583C41.5924 127.131 41.1138 127.549 40.4829 127.837C39.8521 128.119 39.0801 128.26 38.167 128.26Z" fill="#DD3322"/>
<path d="M144.297 126.11V127.414H137.756V126.11H144.297ZM138.005 120.914V133H136.403V120.914H138.005ZM145.691 120.914V133H144.098V120.914H145.691ZM152.755 120.914V133H151.178V120.914H152.755ZM156.64 120.914V122.226H147.302V120.914H156.64ZM163.032 120.914V133H161.455V120.914H163.032ZM166.917 120.914V122.226H157.578V120.914H166.917ZM173.167 128.26H169.938V126.957H173.167C173.792 126.957 174.299 126.857 174.686 126.658C175.073 126.459 175.356 126.182 175.533 125.828C175.715 125.474 175.807 125.07 175.807 124.616C175.807 124.201 175.715 123.811 175.533 123.446C175.356 123.081 175.073 122.787 174.686 122.566C174.299 122.339 173.792 122.226 173.167 122.226H170.312V133H168.709V120.914H173.167C174.08 120.914 174.852 121.072 175.483 121.387C176.114 121.703 176.592 122.14 176.919 122.699C177.245 123.252 177.409 123.886 177.409 124.6C177.409 125.374 177.245 126.036 176.919 126.583C176.592 127.131 176.114 127.549 175.483 127.837C174.852 128.119 174.08 128.26 173.167 128.26ZM185.875 129.945C185.875 129.663 185.831 129.414 185.743 129.198C185.66 128.977 185.51 128.778 185.294 128.601C185.084 128.424 184.791 128.255 184.415 128.094C184.044 127.934 183.573 127.771 183.003 127.604C182.406 127.427 181.866 127.231 181.385 127.015C180.903 126.794 180.491 126.542 180.148 126.26C179.805 125.978 179.542 125.654 179.359 125.289C179.177 124.923 179.085 124.506 179.085 124.035C179.085 123.565 179.182 123.13 179.376 122.732C179.57 122.333 179.846 121.988 180.206 121.694C180.571 121.396 181.006 121.163 181.509 120.997C182.013 120.831 182.575 120.748 183.194 120.748C184.102 120.748 184.871 120.922 185.502 121.271C186.138 121.614 186.623 122.065 186.955 122.624C187.287 123.177 187.453 123.77 187.453 124.4H185.859C185.859 123.947 185.762 123.545 185.568 123.197C185.375 122.843 185.081 122.566 184.688 122.367C184.296 122.162 183.798 122.06 183.194 122.06C182.624 122.06 182.154 122.145 181.783 122.317C181.412 122.488 181.136 122.721 180.953 123.014C180.776 123.307 180.688 123.642 180.688 124.019C180.688 124.273 180.74 124.506 180.845 124.716C180.956 124.921 181.125 125.111 181.352 125.289C181.584 125.466 181.877 125.629 182.231 125.778C182.591 125.928 183.02 126.072 183.518 126.21C184.204 126.404 184.796 126.619 185.294 126.857C185.792 127.095 186.202 127.364 186.523 127.663C186.849 127.956 187.09 128.291 187.245 128.667C187.406 129.038 187.486 129.458 187.486 129.929C187.486 130.421 187.386 130.867 187.187 131.265C186.988 131.664 186.703 132.004 186.332 132.286C185.961 132.568 185.516 132.787 184.996 132.942C184.481 133.091 183.905 133.166 183.269 133.166C182.71 133.166 182.16 133.089 181.617 132.934C181.08 132.779 180.591 132.546 180.148 132.236C179.711 131.926 179.359 131.545 179.094 131.091C178.834 130.632 178.704 130.1 178.704 129.497H180.297C180.297 129.912 180.378 130.269 180.538 130.568C180.699 130.861 180.917 131.105 181.194 131.298C181.476 131.492 181.794 131.636 182.148 131.73C182.508 131.819 182.882 131.863 183.269 131.863C183.828 131.863 184.301 131.785 184.688 131.63C185.076 131.475 185.369 131.254 185.568 130.966C185.773 130.679 185.875 130.338 185.875 129.945Z" fill="#333333"/>
<path d="M65.6464 126.646C65.4512 126.842 65.4512 127.158 65.6464 127.354L68.8284 130.536C69.0237 130.731 69.3403 130.731 69.5355 130.536C69.7308 130.34 69.7308 130.024 69.5355 129.828L66.7071 127L69.5355 124.172C69.7308 123.976 69.7308 123.66 69.5355 123.464C69.3403 123.269 69.0237 123.269 68.8284 123.464L65.6464 126.646ZM66 127.5H114V126.5H66V127.5Z" fill="#333333"/>
<path d="M72.1094 114.387V115H69.2656V114.387H72.1094ZM69.4141 109.312V115H68.6602V109.312H69.4141ZM74.6172 115.078C74.3229 115.078 74.056 115.029 73.8164 114.93C73.5794 114.828 73.375 114.686 73.2031 114.504C73.0339 114.322 72.9036 114.105 72.8125 113.855C72.7214 113.605 72.6758 113.332 72.6758 113.035V112.871C72.6758 112.527 72.7266 112.221 72.8281 111.953C72.9297 111.682 73.0677 111.453 73.2422 111.266C73.4167 111.078 73.6146 110.936 73.8359 110.84C74.0573 110.743 74.2865 110.695 74.5234 110.695C74.8255 110.695 75.0859 110.747 75.3047 110.852C75.526 110.956 75.707 111.102 75.8477 111.289C75.9883 111.474 76.0924 111.693 76.1602 111.945C76.2279 112.195 76.2617 112.469 76.2617 112.766V113.09H73.1055V112.5H75.5391V112.445C75.5286 112.258 75.4896 112.076 75.4219 111.898C75.3568 111.721 75.2526 111.576 75.1094 111.461C74.9661 111.346 74.7708 111.289 74.5234 111.289C74.3594 111.289 74.2083 111.324 74.0703 111.395C73.9323 111.462 73.8138 111.564 73.7148 111.699C73.6159 111.835 73.5391 112 73.4844 112.195C73.4297 112.391 73.4023 112.616 73.4023 112.871V113.035C73.4023 113.236 73.4297 113.424 73.4844 113.602C73.5417 113.776 73.6237 113.93 73.7305 114.062C73.8398 114.195 73.9714 114.299 74.125 114.375C74.2812 114.451 74.4583 114.488 74.6562 114.488C74.9115 114.488 75.1276 114.436 75.3047 114.332C75.4818 114.228 75.6367 114.089 75.7695 113.914L76.207 114.262C76.1159 114.4 76 114.531 75.8594 114.656C75.7188 114.781 75.5456 114.883 75.3398 114.961C75.1367 115.039 74.8958 115.078 74.6172 115.078ZM79.5664 113.879C79.5664 113.775 79.543 113.678 79.4961 113.59C79.4518 113.499 79.3594 113.417 79.2188 113.344C79.0807 113.268 78.8724 113.203 78.5938 113.148C78.3594 113.099 78.1471 113.04 77.957 112.973C77.7695 112.905 77.6094 112.823 77.4766 112.727C77.3464 112.63 77.2461 112.517 77.1758 112.387C77.1055 112.257 77.0703 112.104 77.0703 111.93C77.0703 111.763 77.1068 111.605 77.1797 111.457C77.2552 111.309 77.3607 111.177 77.4961 111.062C77.6341 110.948 77.7995 110.858 77.9922 110.793C78.1849 110.728 78.3997 110.695 78.6367 110.695C78.9753 110.695 79.2643 110.755 79.5039 110.875C79.7435 110.995 79.9271 111.155 80.0547 111.355C80.1823 111.553 80.2461 111.773 80.2461 112.016H79.5234C79.5234 111.898 79.4883 111.785 79.418 111.676C79.3503 111.564 79.25 111.471 79.1172 111.398C78.987 111.326 78.8268 111.289 78.6367 111.289C78.4362 111.289 78.2734 111.32 78.1484 111.383C78.026 111.443 77.9362 111.52 77.8789 111.613C77.8242 111.707 77.7969 111.806 77.7969 111.91C77.7969 111.988 77.8099 112.059 77.8359 112.121C77.8646 112.181 77.9141 112.237 77.9844 112.289C78.0547 112.339 78.1536 112.385 78.2812 112.43C78.4089 112.474 78.5716 112.518 78.7695 112.562C79.1159 112.641 79.401 112.734 79.625 112.844C79.849 112.953 80.0156 113.087 80.125 113.246C80.2344 113.405 80.2891 113.598 80.2891 113.824C80.2891 114.009 80.25 114.178 80.1719 114.332C80.0964 114.486 79.9857 114.618 79.8398 114.73C79.6966 114.84 79.5247 114.926 79.3242 114.988C79.1263 115.048 78.9036 115.078 78.6562 115.078C78.2839 115.078 77.9688 115.012 77.7109 114.879C77.4531 114.746 77.2578 114.574 77.125 114.363C76.9922 114.152 76.9258 113.93 76.9258 113.695H77.6523C77.6628 113.893 77.7201 114.051 77.8242 114.168C77.9284 114.283 78.056 114.365 78.207 114.414C78.3581 114.461 78.5078 114.484 78.6562 114.484C78.8542 114.484 79.0195 114.458 79.1523 114.406C79.2878 114.354 79.3906 114.283 79.4609 114.191C79.5312 114.1 79.5664 113.996 79.5664 113.879ZM83.6992 113.879C83.6992 113.775 83.6758 113.678 83.6289 113.59C83.5846 113.499 83.4922 113.417 83.3516 113.344C83.2135 113.268 83.0052 113.203 82.7266 113.148C82.4922 113.099 82.2799 113.04 82.0898 112.973C81.9023 112.905 81.7422 112.823 81.6094 112.727C81.4792 112.63 81.3789 112.517 81.3086 112.387C81.2383 112.257 81.2031 112.104 81.2031 111.93C81.2031 111.763 81.2396 111.605 81.3125 111.457C81.388 111.309 81.4935 111.177 81.6289 111.062C81.7669 110.948 81.9323 110.858 82.125 110.793C82.3177 110.728 82.5326 110.695 82.7695 110.695C83.1081 110.695 83.3971 110.755 83.6367 110.875C83.8763 110.995 84.0599 111.155 84.1875 111.355C84.3151 111.553 84.3789 111.773 84.3789 112.016H83.6562C83.6562 111.898 83.6211 111.785 83.5508 111.676C83.4831 111.564 83.3828 111.471 83.25 111.398C83.1198 111.326 82.9596 111.289 82.7695 111.289C82.569 111.289 82.4062 111.32 82.2812 111.383C82.1589 111.443 82.069 111.52 82.0117 111.613C81.957 111.707 81.9297 111.806 81.9297 111.91C81.9297 111.988 81.9427 112.059 81.9688 112.121C81.9974 112.181 82.0469 112.237 82.1172 112.289C82.1875 112.339 82.2865 112.385 82.4141 112.43C82.5417 112.474 82.7044 112.518 82.9023 112.562C83.2487 112.641 83.5339 112.734 83.7578 112.844C83.9818 112.953 84.1484 113.087 84.2578 113.246C84.3672 113.405 84.4219 113.598 84.4219 113.824C84.4219 114.009 84.3828 114.178 84.3047 114.332C84.2292 114.486 84.1185 114.618 83.9727 114.73C83.8294 114.84 83.6576 114.926 83.457 114.988C83.2591 115.048 83.0365 115.078 82.7891 115.078C82.4167 115.078 82.1016 115.012 81.8438 114.879C81.5859 114.746 81.3906 114.574 81.2578 114.363C81.125 114.152 81.0586 113.93 81.0586 113.695H81.7852C81.7956 113.893 81.8529 114.051 81.957 114.168C82.0612 114.283 82.1888 114.365 82.3398 114.414C82.4909 114.461 82.6406 114.484 82.7891 114.484C82.987 114.484 83.1523 114.458 83.2852 114.406C83.4206 114.354 83.5234 114.283 83.5938 114.191C83.6641 114.1 83.6992 113.996 83.6992 113.879ZM90.4961 113.562C90.4961 113.43 90.4753 113.312 90.4336 113.211C90.3945 113.107 90.3242 113.013 90.2227 112.93C90.1237 112.846 89.9857 112.767 89.8086 112.691C89.6341 112.616 89.4128 112.539 89.1445 112.461C88.8633 112.378 88.6094 112.285 88.3828 112.184C88.1562 112.079 87.9622 111.961 87.8008 111.828C87.6393 111.695 87.5156 111.543 87.4297 111.371C87.3438 111.199 87.3008 111.003 87.3008 110.781C87.3008 110.56 87.3464 110.355 87.4375 110.168C87.5286 109.98 87.6589 109.818 87.8281 109.68C88 109.539 88.2044 109.43 88.4414 109.352C88.6784 109.273 88.9427 109.234 89.2344 109.234C89.6615 109.234 90.0234 109.316 90.3203 109.48C90.6198 109.642 90.8477 109.854 91.0039 110.117C91.1602 110.378 91.2383 110.656 91.2383 110.953H90.4883C90.4883 110.74 90.4427 110.551 90.3516 110.387C90.2604 110.22 90.1224 110.09 89.9375 109.996C89.7526 109.9 89.5182 109.852 89.2344 109.852C88.9661 109.852 88.7448 109.892 88.5703 109.973C88.3958 110.053 88.2656 110.163 88.1797 110.301C88.0964 110.439 88.0547 110.596 88.0547 110.773C88.0547 110.893 88.0794 111.003 88.1289 111.102C88.181 111.198 88.2604 111.288 88.3672 111.371C88.4766 111.454 88.6146 111.531 88.7812 111.602C88.9505 111.672 89.1523 111.74 89.3867 111.805C89.7096 111.896 89.9883 111.997 90.2227 112.109C90.457 112.221 90.6497 112.348 90.8008 112.488C90.9544 112.626 91.0677 112.784 91.1406 112.961C91.2161 113.135 91.2539 113.333 91.2539 113.555C91.2539 113.786 91.207 113.996 91.1133 114.184C91.0195 114.371 90.8854 114.531 90.7109 114.664C90.5365 114.797 90.3268 114.9 90.082 114.973C89.8398 115.043 89.569 115.078 89.2695 115.078C89.0065 115.078 88.7474 115.042 88.4922 114.969C88.2396 114.896 88.0091 114.786 87.8008 114.641C87.5951 114.495 87.4297 114.315 87.3047 114.102C87.1823 113.885 87.1211 113.635 87.1211 113.352H87.8711C87.8711 113.547 87.9089 113.715 87.9844 113.855C88.0599 113.993 88.1628 114.108 88.293 114.199C88.4258 114.29 88.5755 114.358 88.7422 114.402C88.9115 114.444 89.0872 114.465 89.2695 114.465C89.5326 114.465 89.7552 114.428 89.9375 114.355C90.1198 114.283 90.2578 114.178 90.3516 114.043C90.4479 113.908 90.4961 113.747 90.4961 113.562ZM93.8594 115.078C93.5651 115.078 93.2982 115.029 93.0586 114.93C92.8216 114.828 92.6172 114.686 92.4453 114.504C92.276 114.322 92.1458 114.105 92.0547 113.855C91.9635 113.605 91.918 113.332 91.918 113.035V112.871C91.918 112.527 91.9688 112.221 92.0703 111.953C92.1719 111.682 92.3099 111.453 92.4844 111.266C92.6589 111.078 92.8568 110.936 93.0781 110.84C93.2995 110.743 93.5286 110.695 93.7656 110.695C94.0677 110.695 94.3281 110.747 94.5469 110.852C94.7682 110.956 94.9492 111.102 95.0898 111.289C95.2305 111.474 95.3346 111.693 95.4023 111.945C95.4701 112.195 95.5039 112.469 95.5039 112.766V113.09H92.3477V112.5H94.7812V112.445C94.7708 112.258 94.7318 112.076 94.6641 111.898C94.599 111.721 94.4948 111.576 94.3516 111.461C94.2083 111.346 94.013 111.289 93.7656 111.289C93.6016 111.289 93.4505 111.324 93.3125 111.395C93.1745 111.462 93.056 111.564 92.957 111.699C92.8581 111.835 92.7812 112 92.7266 112.195C92.6719 112.391 92.6445 112.616 92.6445 112.871V113.035C92.6445 113.236 92.6719 113.424 92.7266 113.602C92.7839 113.776 92.8659 113.93 92.9727 114.062C93.082 114.195 93.2135 114.299 93.3672 114.375C93.5234 114.451 93.7005 114.488 93.8984 114.488C94.1536 114.488 94.3698 114.436 94.5469 114.332C94.724 114.228 94.8789 114.089 95.0117 113.914L95.4492 114.262C95.3581 114.4 95.2422 114.531 95.1016 114.656C94.9609 114.781 94.7878 114.883 94.582 114.961C94.3789 115.039 94.138 115.078 93.8594 115.078ZM98.0391 114.484C98.2109 114.484 98.3698 114.449 98.5156 114.379C98.6615 114.309 98.7812 114.212 98.875 114.09C98.9688 113.965 99.0221 113.823 99.0352 113.664H99.7227C99.7096 113.914 99.625 114.147 99.4688 114.363C99.3151 114.577 99.1133 114.75 98.8633 114.883C98.6133 115.013 98.3385 115.078 98.0391 115.078C97.7214 115.078 97.444 115.022 97.207 114.91C96.9727 114.798 96.7773 114.645 96.6211 114.449C96.4674 114.254 96.3516 114.03 96.2734 113.777C96.1979 113.522 96.1602 113.253 96.1602 112.969V112.805C96.1602 112.521 96.1979 112.253 96.2734 112C96.3516 111.745 96.4674 111.52 96.6211 111.324C96.7773 111.129 96.9727 110.975 97.207 110.863C97.444 110.751 97.7214 110.695 98.0391 110.695C98.3698 110.695 98.6589 110.763 98.9062 110.898C99.1536 111.031 99.3477 111.214 99.4883 111.445C99.6315 111.674 99.7096 111.935 99.7227 112.227H99.0352C99.0221 112.052 98.9727 111.895 98.8867 111.754C98.8034 111.613 98.6888 111.501 98.543 111.418C98.3997 111.332 98.2318 111.289 98.0391 111.289C97.8177 111.289 97.6315 111.333 97.4805 111.422C97.332 111.508 97.2135 111.625 97.125 111.773C97.0391 111.919 96.9766 112.082 96.9375 112.262C96.901 112.439 96.8828 112.62 96.8828 112.805V112.969C96.8828 113.154 96.901 113.336 96.9375 113.516C96.974 113.695 97.0352 113.858 97.1211 114.004C97.2096 114.15 97.3281 114.267 97.4766 114.355C97.6276 114.441 97.8151 114.484 98.0391 114.484ZM103.121 114.023V110.773H103.848V115H103.156L103.121 114.023ZM103.258 113.133L103.559 113.125C103.559 113.406 103.529 113.667 103.469 113.906C103.411 114.143 103.318 114.349 103.188 114.523C103.057 114.698 102.887 114.835 102.676 114.934C102.465 115.03 102.208 115.078 101.906 115.078C101.701 115.078 101.512 115.048 101.34 114.988C101.171 114.928 101.025 114.836 100.902 114.711C100.78 114.586 100.685 114.423 100.617 114.223C100.552 114.022 100.52 113.781 100.52 113.5V110.773H101.242V113.508C101.242 113.698 101.263 113.855 101.305 113.98C101.349 114.103 101.408 114.201 101.48 114.273C101.556 114.344 101.639 114.393 101.73 114.422C101.824 114.451 101.921 114.465 102.02 114.465C102.327 114.465 102.57 114.406 102.75 114.289C102.93 114.169 103.059 114.009 103.137 113.809C103.217 113.605 103.258 113.38 103.258 113.133ZM105.672 111.438V115H104.949V110.773H105.652L105.672 111.438ZM106.992 110.75L106.988 111.422C106.928 111.409 106.871 111.401 106.816 111.398C106.764 111.393 106.704 111.391 106.637 111.391C106.47 111.391 106.323 111.417 106.195 111.469C106.068 111.521 105.96 111.594 105.871 111.688C105.783 111.781 105.712 111.893 105.66 112.023C105.611 112.151 105.578 112.292 105.562 112.445L105.359 112.562C105.359 112.307 105.384 112.068 105.434 111.844C105.486 111.62 105.565 111.422 105.672 111.25C105.779 111.076 105.914 110.94 106.078 110.844C106.245 110.745 106.443 110.695 106.672 110.695C106.724 110.695 106.784 110.702 106.852 110.715C106.919 110.725 106.966 110.737 106.992 110.75ZM109.336 115.078C109.042 115.078 108.775 115.029 108.535 114.93C108.298 114.828 108.094 114.686 107.922 114.504C107.753 114.322 107.622 114.105 107.531 113.855C107.44 113.605 107.395 113.332 107.395 113.035V112.871C107.395 112.527 107.445 112.221 107.547 111.953C107.648 111.682 107.786 111.453 107.961 111.266C108.135 111.078 108.333 110.936 108.555 110.84C108.776 110.743 109.005 110.695 109.242 110.695C109.544 110.695 109.805 110.747 110.023 110.852C110.245 110.956 110.426 111.102 110.566 111.289C110.707 111.474 110.811 111.693 110.879 111.945C110.947 112.195 110.98 112.469 110.98 112.766V113.09H107.824V112.5H110.258V112.445C110.247 112.258 110.208 112.076 110.141 111.898C110.076 111.721 109.971 111.576 109.828 111.461C109.685 111.346 109.49 111.289 109.242 111.289C109.078 111.289 108.927 111.324 108.789 111.395C108.651 111.462 108.533 111.564 108.434 111.699C108.335 111.835 108.258 112 108.203 112.195C108.148 112.391 108.121 112.616 108.121 112.871V113.035C108.121 113.236 108.148 113.424 108.203 113.602C108.26 113.776 108.342 113.93 108.449 114.062C108.559 114.195 108.69 114.299 108.844 114.375C109 114.451 109.177 114.488 109.375 114.488C109.63 114.488 109.846 114.436 110.023 114.332C110.201 114.228 110.355 114.089 110.488 113.914L110.926 114.262C110.835 114.4 110.719 114.531 110.578 114.656C110.438 114.781 110.264 114.883 110.059 114.961C109.855 115.039 109.615 115.078 109.336 115.078Z" fill="#DD3322"/>
<line x1="12" y1="41.5" x2="312" y2="41.5" stroke="#333333"/>
<line x1="162.5" y1="28" x2="162.5" y2="56" stroke="#333333"/>
<line x1="302.5" y1="28" x2="302.5" y2="56" stroke="#333333"/>
<path d="M149.297 16.1104V17.4136H142.756V16.1104H149.297ZM143.005 10.9141V23H141.403V10.9141H143.005ZM150.691 10.9141V23H149.098V10.9141H150.691ZM157.755 10.9141V23H156.178V10.9141H157.755ZM161.64 10.9141V12.2256H152.302V10.9141H161.64ZM168.032 10.9141V23H166.455V10.9141H168.032ZM171.917 10.9141V12.2256H162.578V10.9141H171.917ZM178.167 18.2603H174.938V16.957H178.167C178.792 16.957 179.299 16.8574 179.686 16.6582C180.073 16.459 180.356 16.1823 180.533 15.8281C180.715 15.474 180.807 15.07 180.807 14.6162C180.807 14.2012 180.715 13.811 180.533 13.4458C180.356 13.0806 180.073 12.7873 179.686 12.5659C179.299 12.339 178.792 12.2256 178.167 12.2256H175.312V23H173.709V10.9141H178.167C179.08 10.9141 179.852 11.0718 180.483 11.3872C181.114 11.7026 181.592 12.1398 181.919 12.6987C182.245 13.2521 182.409 13.8857 182.409 14.5996C182.409 15.3743 182.245 16.0356 181.919 16.5835C181.592 17.1313 181.114 17.5492 180.483 17.8369C179.852 18.1191 179.08 18.2603 178.167 18.2603Z" fill="#333333"/>
<path d="M284.297 16.1104V17.4136H277.756V16.1104H284.297ZM278.005 10.9141V23H276.403V10.9141H278.005ZM285.691 10.9141V23H284.098V10.9141H285.691ZM292.755 10.9141V23H291.178V10.9141H292.755ZM296.64 10.9141V12.2256H287.302V10.9141H296.64ZM303.032 10.9141V23H301.455V10.9141H303.032ZM306.917 10.9141V12.2256H297.578V10.9141H306.917ZM313.167 18.2603H309.938V16.957H313.167C313.792 16.957 314.299 16.8574 314.686 16.6582C315.073 16.459 315.356 16.1823 315.533 15.8281C315.715 15.474 315.807 15.07 315.807 14.6162C315.807 14.2012 315.715 13.811 315.533 13.4458C315.356 13.0806 315.073 12.7873 314.686 12.5659C314.299 12.339 313.792 12.2256 313.167 12.2256H310.312V23H308.709V10.9141H313.167C314.08 10.9141 314.852 11.0718 315.483 11.3872C316.114 11.7026 316.592 12.1398 316.919 12.6987C317.245 13.2521 317.409 13.8857 317.409 14.5996C317.409 15.3743 317.245 16.0356 316.919 16.5835C316.592 17.1313 316.114 17.5492 315.483 17.8369C314.852 18.1191 314.08 18.2603 313.167 18.2603ZM325.875 19.9453C325.875 19.6631 325.831 19.4141 325.743 19.1982C325.66 18.9769 325.51 18.7777 325.294 18.6006C325.084 18.4235 324.791 18.2547 324.415 18.0942C324.044 17.9338 323.573 17.7705 323.003 17.6045C322.406 17.4274 321.866 17.231 321.385 17.0151C320.903 16.7938 320.491 16.542 320.148 16.2598C319.805 15.9775 319.542 15.6538 319.359 15.2886C319.177 14.9233 319.085 14.5055 319.085 14.0352C319.085 13.5648 319.182 13.1304 319.376 12.7319C319.57 12.3335 319.846 11.9876 320.206 11.6943C320.571 11.3955 321.006 11.1631 321.509 10.9971C322.013 10.8311 322.575 10.748 323.194 10.748C324.102 10.748 324.871 10.9224 325.502 11.271C326.138 11.6141 326.623 12.0651 326.955 12.624C327.287 13.1774 327.453 13.7695 327.453 14.4004H325.859C325.859 13.9466 325.762 13.5454 325.568 13.1968C325.375 12.8426 325.081 12.5659 324.688 12.3667C324.296 12.1619 323.798 12.0596 323.194 12.0596C322.624 12.0596 322.154 12.1453 321.783 12.3169C321.412 12.4884 321.136 12.7209 320.953 13.0142C320.776 13.3075 320.688 13.6423 320.688 14.0186C320.688 14.2731 320.74 14.5055 320.845 14.7158C320.956 14.9206 321.125 15.1115 321.352 15.2886C321.584 15.4657 321.877 15.6289 322.231 15.7783C322.591 15.9277 323.02 16.0716 323.518 16.21C324.204 16.4036 324.796 16.6195 325.294 16.8574C325.792 17.0954 326.202 17.3638 326.523 17.6626C326.849 17.9559 327.09 18.2907 327.245 18.667C327.406 19.0378 327.486 19.4583 327.486 19.9287C327.486 20.4212 327.386 20.8667 327.187 21.2651C326.988 21.6636 326.703 22.0039 326.332 22.2861C325.961 22.5684 325.516 22.7869 324.996 22.9419C324.481 23.0913 323.905 23.166 323.269 23.166C322.71 23.166 322.16 23.0885 321.617 22.9336C321.08 22.7786 320.591 22.5462 320.148 22.2363C319.711 21.9264 319.359 21.5446 319.094 21.0908C318.834 20.6315 318.704 20.1003 318.704 19.4971H320.297C320.297 19.9121 320.378 20.269 320.538 20.5679C320.699 20.8612 320.917 21.1047 321.194 21.2983C321.476 21.492 321.794 21.6359 322.148 21.73C322.508 21.8185 322.882 21.8628 323.269 21.8628C323.828 21.8628 324.301 21.7853 324.688 21.6304C325.076 21.4754 325.369 21.2541 325.568 20.9663C325.773 20.6785 325.875 20.3382 325.875 19.9453Z" fill="#11EE11"/>
<path d="M254.354 17.3536C254.549 17.1583 254.549 16.8417 254.354 16.6464L251.172 13.4645C250.976 13.2692 250.66 13.2692 250.464 13.4645C250.269 13.6597 250.269 13.9763 250.464 14.1716L253.293 17L250.464 19.8284C250.269 20.0237 250.269 20.3403 250.464 20.5355C250.66 20.7308 250.976 20.7308 251.172 20.5355L254.354 17.3536ZM206 17.5H254V16.5H206V17.5Z" fill="#333333"/>
<path d="M207.898 1.3125H208.629L210.492 5.94922L212.352 1.3125H213.086L210.773 7H210.203L207.898 1.3125ZM207.66 1.3125H208.305L208.41 4.78125V7H207.66V1.3125ZM212.676 1.3125H213.32V7H212.57V4.78125L212.676 1.3125ZM214.344 4.93359V4.84375C214.344 4.53906 214.388 4.25651 214.477 3.99609C214.565 3.73307 214.693 3.50521 214.859 3.3125C215.026 3.11719 215.228 2.96615 215.465 2.85938C215.702 2.75 215.967 2.69531 216.262 2.69531C216.559 2.69531 216.826 2.75 217.062 2.85938C217.302 2.96615 217.505 3.11719 217.672 3.3125C217.841 3.50521 217.97 3.73307 218.059 3.99609C218.147 4.25651 218.191 4.53906 218.191 4.84375V4.93359C218.191 5.23828 218.147 5.52083 218.059 5.78125C217.97 6.04167 217.841 6.26953 217.672 6.46484C217.505 6.65755 217.303 6.80859 217.066 6.91797C216.832 7.02474 216.566 7.07812 216.27 7.07812C215.973 7.07812 215.706 7.02474 215.469 6.91797C215.232 6.80859 215.029 6.65755 214.859 6.46484C214.693 6.26953 214.565 6.04167 214.477 5.78125C214.388 5.52083 214.344 5.23828 214.344 4.93359ZM215.066 4.84375V4.93359C215.066 5.14453 215.091 5.34375 215.141 5.53125C215.19 5.71615 215.264 5.88021 215.363 6.02344C215.465 6.16667 215.591 6.27995 215.742 6.36328C215.893 6.44401 216.069 6.48438 216.27 6.48438C216.467 6.48438 216.641 6.44401 216.789 6.36328C216.94 6.27995 217.065 6.16667 217.164 6.02344C217.263 5.88021 217.337 5.71615 217.387 5.53125C217.439 5.34375 217.465 5.14453 217.465 4.93359V4.84375C217.465 4.63542 217.439 4.4388 217.387 4.25391C217.337 4.06641 217.262 3.90104 217.16 3.75781C217.061 3.61198 216.936 3.4974 216.785 3.41406C216.637 3.33073 216.462 3.28906 216.262 3.28906C216.064 3.28906 215.889 3.33073 215.738 3.41406C215.59 3.4974 215.465 3.61198 215.363 3.75781C215.264 3.90104 215.19 4.06641 215.141 4.25391C215.091 4.4388 215.066 4.63542 215.066 4.84375ZM219.82 3.4375V7H219.098V2.77344H219.801L219.82 3.4375ZM221.141 2.75L221.137 3.42188C221.077 3.40885 221.02 3.40104 220.965 3.39844C220.913 3.39323 220.853 3.39062 220.785 3.39062C220.618 3.39062 220.471 3.41667 220.344 3.46875C220.216 3.52083 220.108 3.59375 220.02 3.6875C219.931 3.78125 219.861 3.89323 219.809 4.02344C219.759 4.15104 219.727 4.29167 219.711 4.44531L219.508 4.5625C219.508 4.30729 219.533 4.06771 219.582 3.84375C219.634 3.61979 219.714 3.42188 219.82 3.25C219.927 3.07552 220.062 2.9401 220.227 2.84375C220.393 2.74479 220.591 2.69531 220.82 2.69531C220.872 2.69531 220.932 2.70182 221 2.71484C221.068 2.72526 221.115 2.73698 221.141 2.75ZM223.484 7.07812C223.19 7.07812 222.923 7.02865 222.684 6.92969C222.447 6.82812 222.242 6.6862 222.07 6.50391C221.901 6.32161 221.771 6.10547 221.68 5.85547C221.589 5.60547 221.543 5.33203 221.543 5.03516V4.87109C221.543 4.52734 221.594 4.22135 221.695 3.95312C221.797 3.68229 221.935 3.45312 222.109 3.26562C222.284 3.07812 222.482 2.9362 222.703 2.83984C222.924 2.74349 223.154 2.69531 223.391 2.69531C223.693 2.69531 223.953 2.7474 224.172 2.85156C224.393 2.95573 224.574 3.10156 224.715 3.28906C224.855 3.47396 224.96 3.69271 225.027 3.94531C225.095 4.19531 225.129 4.46875 225.129 4.76562V5.08984H221.973V4.5H224.406V4.44531C224.396 4.25781 224.357 4.07552 224.289 3.89844C224.224 3.72135 224.12 3.57552 223.977 3.46094C223.833 3.34635 223.638 3.28906 223.391 3.28906C223.227 3.28906 223.076 3.32422 222.938 3.39453C222.799 3.46224 222.681 3.5638 222.582 3.69922C222.483 3.83464 222.406 4 222.352 4.19531C222.297 4.39062 222.27 4.61589 222.27 4.87109V5.03516C222.27 5.23568 222.297 5.42448 222.352 5.60156C222.409 5.77604 222.491 5.92969 222.598 6.0625C222.707 6.19531 222.839 6.29948 222.992 6.375C223.148 6.45052 223.326 6.48828 223.523 6.48828C223.779 6.48828 223.995 6.4362 224.172 6.33203C224.349 6.22786 224.504 6.08854 224.637 5.91406L225.074 6.26172C224.983 6.39974 224.867 6.53125 224.727 6.65625C224.586 6.78125 224.413 6.88281 224.207 6.96094C224.004 7.03906 223.763 7.07812 223.484 7.07812ZM231.098 5.5625C231.098 5.42969 231.077 5.3125 231.035 5.21094C230.996 5.10677 230.926 5.01302 230.824 4.92969C230.725 4.84635 230.587 4.76693 230.41 4.69141C230.236 4.61589 230.014 4.53906 229.746 4.46094C229.465 4.3776 229.211 4.28516 228.984 4.18359C228.758 4.07943 228.564 3.96094 228.402 3.82812C228.241 3.69531 228.117 3.54297 228.031 3.37109C227.945 3.19922 227.902 3.0026 227.902 2.78125C227.902 2.5599 227.948 2.35547 228.039 2.16797C228.13 1.98047 228.26 1.81771 228.43 1.67969C228.602 1.53906 228.806 1.42969 229.043 1.35156C229.28 1.27344 229.544 1.23438 229.836 1.23438C230.263 1.23438 230.625 1.31641 230.922 1.48047C231.221 1.64193 231.449 1.85417 231.605 2.11719C231.762 2.3776 231.84 2.65625 231.84 2.95312H231.09C231.09 2.73958 231.044 2.55078 230.953 2.38672C230.862 2.22005 230.724 2.08984 230.539 1.99609C230.354 1.89974 230.12 1.85156 229.836 1.85156C229.568 1.85156 229.346 1.89193 229.172 1.97266C228.997 2.05339 228.867 2.16276 228.781 2.30078C228.698 2.4388 228.656 2.59635 228.656 2.77344C228.656 2.89323 228.681 3.0026 228.73 3.10156C228.783 3.19792 228.862 3.28776 228.969 3.37109C229.078 3.45443 229.216 3.53125 229.383 3.60156C229.552 3.67188 229.754 3.73958 229.988 3.80469C230.311 3.89583 230.59 3.9974 230.824 4.10938C231.059 4.22135 231.251 4.34766 231.402 4.48828C231.556 4.6263 231.669 4.78385 231.742 4.96094C231.818 5.13542 231.855 5.33333 231.855 5.55469C231.855 5.78646 231.809 5.99609 231.715 6.18359C231.621 6.37109 231.487 6.53125 231.312 6.66406C231.138 6.79688 230.928 6.89974 230.684 6.97266C230.441 7.04297 230.171 7.07812 229.871 7.07812C229.608 7.07812 229.349 7.04167 229.094 6.96875C228.841 6.89583 228.611 6.78646 228.402 6.64062C228.197 6.49479 228.031 6.3151 227.906 6.10156C227.784 5.88542 227.723 5.63542 227.723 5.35156H228.473C228.473 5.54688 228.51 5.71484 228.586 5.85547C228.661 5.99349 228.764 6.10807 228.895 6.19922C229.027 6.29036 229.177 6.35807 229.344 6.40234C229.513 6.44401 229.689 6.46484 229.871 6.46484C230.134 6.46484 230.357 6.42839 230.539 6.35547C230.721 6.28255 230.859 6.17839 230.953 6.04297C231.049 5.90755 231.098 5.7474 231.098 5.5625ZM234.461 7.07812C234.167 7.07812 233.9 7.02865 233.66 6.92969C233.423 6.82812 233.219 6.6862 233.047 6.50391C232.878 6.32161 232.747 6.10547 232.656 5.85547C232.565 5.60547 232.52 5.33203 232.52 5.03516V4.87109C232.52 4.52734 232.57 4.22135 232.672 3.95312C232.773 3.68229 232.911 3.45312 233.086 3.26562C233.26 3.07812 233.458 2.9362 233.68 2.83984C233.901 2.74349 234.13 2.69531 234.367 2.69531C234.669 2.69531 234.93 2.7474 235.148 2.85156C235.37 2.95573 235.551 3.10156 235.691 3.28906C235.832 3.47396 235.936 3.69271 236.004 3.94531C236.072 4.19531 236.105 4.46875 236.105 4.76562V5.08984H232.949V4.5H235.383V4.44531C235.372 4.25781 235.333 4.07552 235.266 3.89844C235.201 3.72135 235.096 3.57552 234.953 3.46094C234.81 3.34635 234.615 3.28906 234.367 3.28906C234.203 3.28906 234.052 3.32422 233.914 3.39453C233.776 3.46224 233.658 3.5638 233.559 3.69922C233.46 3.83464 233.383 4 233.328 4.19531C233.273 4.39062 233.246 4.61589 233.246 4.87109V5.03516C233.246 5.23568 233.273 5.42448 233.328 5.60156C233.385 5.77604 233.467 5.92969 233.574 6.0625C233.684 6.19531 233.815 6.29948 233.969 6.375C234.125 6.45052 234.302 6.48828 234.5 6.48828C234.755 6.48828 234.971 6.4362 235.148 6.33203C235.326 6.22786 235.48 6.08854 235.613 5.91406L236.051 6.26172C235.96 6.39974 235.844 6.53125 235.703 6.65625C235.562 6.78125 235.389 6.88281 235.184 6.96094C234.98 7.03906 234.74 7.07812 234.461 7.07812ZM238.641 6.48438C238.812 6.48438 238.971 6.44922 239.117 6.37891C239.263 6.30859 239.383 6.21224 239.477 6.08984C239.57 5.96484 239.624 5.82292 239.637 5.66406H240.324C240.311 5.91406 240.227 6.14714 240.07 6.36328C239.917 6.57682 239.715 6.75 239.465 6.88281C239.215 7.01302 238.94 7.07812 238.641 7.07812C238.323 7.07812 238.046 7.02214 237.809 6.91016C237.574 6.79818 237.379 6.64453 237.223 6.44922C237.069 6.25391 236.953 6.02995 236.875 5.77734C236.799 5.52214 236.762 5.2526 236.762 4.96875V4.80469C236.762 4.52083 236.799 4.2526 236.875 4C236.953 3.74479 237.069 3.51953 237.223 3.32422C237.379 3.12891 237.574 2.97526 237.809 2.86328C238.046 2.7513 238.323 2.69531 238.641 2.69531C238.971 2.69531 239.26 2.76302 239.508 2.89844C239.755 3.03125 239.949 3.21354 240.09 3.44531C240.233 3.67448 240.311 3.9349 240.324 4.22656H239.637C239.624 4.05208 239.574 3.89453 239.488 3.75391C239.405 3.61328 239.29 3.5013 239.145 3.41797C239.001 3.33203 238.833 3.28906 238.641 3.28906C238.419 3.28906 238.233 3.33333 238.082 3.42188C237.934 3.50781 237.815 3.625 237.727 3.77344C237.641 3.91927 237.578 4.08203 237.539 4.26172C237.503 4.4388 237.484 4.61979 237.484 4.80469V4.96875C237.484 5.15365 237.503 5.33594 237.539 5.51562C237.576 5.69531 237.637 5.85807 237.723 6.00391C237.811 6.14974 237.93 6.26693 238.078 6.35547C238.229 6.44141 238.417 6.48438 238.641 6.48438ZM243.723 6.02344V2.77344H244.449V7H243.758L243.723 6.02344ZM243.859 5.13281L244.16 5.125C244.16 5.40625 244.13 5.66667 244.07 5.90625C244.013 6.14323 243.919 6.34896 243.789 6.52344C243.659 6.69792 243.488 6.83464 243.277 6.93359C243.066 7.02995 242.81 7.07812 242.508 7.07812C242.302 7.07812 242.113 7.04818 241.941 6.98828C241.772 6.92839 241.626 6.83594 241.504 6.71094C241.382 6.58594 241.286 6.42318 241.219 6.22266C241.154 6.02214 241.121 5.78125 241.121 5.5V2.77344H241.844V5.50781C241.844 5.69792 241.865 5.85547 241.906 5.98047C241.951 6.10286 242.009 6.20052 242.082 6.27344C242.158 6.34375 242.241 6.39323 242.332 6.42188C242.426 6.45052 242.522 6.46484 242.621 6.46484C242.928 6.46484 243.172 6.40625 243.352 6.28906C243.531 6.16927 243.66 6.00911 243.738 5.80859C243.819 5.60547 243.859 5.38021 243.859 5.13281ZM246.273 3.4375V7H245.551V2.77344H246.254L246.273 3.4375ZM247.594 2.75L247.59 3.42188C247.53 3.40885 247.473 3.40104 247.418 3.39844C247.366 3.39323 247.306 3.39062 247.238 3.39062C247.072 3.39062 246.924 3.41667 246.797 3.46875C246.669 3.52083 246.561 3.59375 246.473 3.6875C246.384 3.78125 246.314 3.89323 246.262 4.02344C246.212 4.15104 246.18 4.29167 246.164 4.44531L245.961 4.5625C245.961 4.30729 245.986 4.06771 246.035 3.84375C246.087 3.61979 246.167 3.42188 246.273 3.25C246.38 3.07552 246.516 2.9401 246.68 2.84375C246.846 2.74479 247.044 2.69531 247.273 2.69531C247.326 2.69531 247.385 2.70182 247.453 2.71484C247.521 2.72526 247.568 2.73698 247.594 2.75ZM249.938 7.07812C249.643 7.07812 249.376 7.02865 249.137 6.92969C248.9 6.82812 248.695 6.6862 248.523 6.50391C248.354 6.32161 248.224 6.10547 248.133 5.85547C248.042 5.60547 247.996 5.33203 247.996 5.03516V4.87109C247.996 4.52734 248.047 4.22135 248.148 3.95312C248.25 3.68229 248.388 3.45312 248.562 3.26562C248.737 3.07812 248.935 2.9362 249.156 2.83984C249.378 2.74349 249.607 2.69531 249.844 2.69531C250.146 2.69531 250.406 2.7474 250.625 2.85156C250.846 2.95573 251.027 3.10156 251.168 3.28906C251.309 3.47396 251.413 3.69271 251.48 3.94531C251.548 4.19531 251.582 4.46875 251.582 4.76562V5.08984H248.426V4.5H250.859V4.44531C250.849 4.25781 250.81 4.07552 250.742 3.89844C250.677 3.72135 250.573 3.57552 250.43 3.46094C250.286 3.34635 250.091 3.28906 249.844 3.28906C249.68 3.28906 249.529 3.32422 249.391 3.39453C249.253 3.46224 249.134 3.5638 249.035 3.69922C248.936 3.83464 248.859 4 248.805 4.19531C248.75 4.39062 248.723 4.61589 248.723 4.87109V5.03516C248.723 5.23568 248.75 5.42448 248.805 5.60156C248.862 5.77604 248.944 5.92969 249.051 6.0625C249.16 6.19531 249.292 6.29948 249.445 6.375C249.602 6.45052 249.779 6.48828 249.977 6.48828C250.232 6.48828 250.448 6.4362 250.625 6.33203C250.802 6.22786 250.957 6.08854 251.09 5.91406L251.527 6.26172C251.436 6.39974 251.32 6.53125 251.18 6.65625C251.039 6.78125 250.866 6.88281 250.66 6.96094C250.457 7.03906 250.216 7.07812 249.938 7.07812Z" fill="#11EE11"/>
<path d="M116.386 81.2109L117.079 81.1963C117.06 81.4274 117.007 81.6536 116.923 81.875C116.838 82.0964 116.724 82.2965 116.581 82.4756C116.438 82.6514 116.265 82.7913 116.063 82.8955C115.862 82.9964 115.632 83.0452 115.375 83.042C115.102 83.0355 114.856 82.9671 114.638 82.8369C114.42 82.7035 114.216 82.5439 114.027 82.3584C113.91 82.2412 113.785 82.1322 113.651 82.0312C113.521 81.9271 113.368 81.8734 113.192 81.8701C113 81.8669 112.841 81.9124 112.714 82.0068C112.587 82.1012 112.488 82.2249 112.416 82.3779C112.348 82.5309 112.3 82.6904 112.274 82.8564L111.513 82.8711C111.535 82.64 111.589 82.417 111.674 82.2021C111.762 81.984 111.877 81.7887 112.021 81.6162C112.167 81.4437 112.341 81.3086 112.543 81.2109C112.745 81.1133 112.974 81.0661 113.231 81.0693C113.505 81.0758 113.751 81.1458 113.969 81.2793C114.187 81.4128 114.389 81.5723 114.574 81.7578C114.691 81.875 114.817 81.9857 114.95 82.0898C115.084 82.194 115.238 82.2477 115.414 82.251C115.613 82.251 115.777 82.2005 115.907 82.0996C116.041 81.9987 116.146 81.8685 116.225 81.709C116.303 81.5462 116.356 81.3802 116.386 81.2109ZM125.57 80.9473L125.434 81.7139H121.693L121.83 80.9473H125.57ZM122.509 77.8906L121.273 85H120.351L121.586 77.8906H122.509ZM126.894 77.8906L125.658 85H124.745L125.976 77.8906H126.894ZM130.917 77.8906L129.687 85H128.778L130.014 77.8906H130.917ZM133.134 77.8906L132.997 78.6621H127.665L127.802 77.8906H133.134ZM136.786 77.8906L135.556 85H134.647L135.883 77.8906H136.786ZM139.003 77.8906L138.866 78.6621H133.534L133.671 77.8906H139.003ZM141.879 82.2168L139.975 82.2119L140.111 81.4453L141.903 81.4502C142.209 81.4502 142.489 81.3981 142.743 81.2939C143 81.1898 143.212 81.0335 143.378 80.8252C143.547 80.6169 143.651 80.3516 143.69 80.0293C143.726 79.7526 143.699 79.515 143.607 79.3164C143.52 79.1146 143.38 78.9583 143.188 78.8477C142.995 78.737 142.763 78.6768 142.489 78.667L140.81 78.6621L139.711 85H138.788L140.023 77.8906L142.514 77.8955C142.937 77.9053 143.313 77.9948 143.642 78.1641C143.974 78.3301 144.228 78.5693 144.403 78.8818C144.579 79.1943 144.647 79.5736 144.608 80.0195C144.566 80.5208 144.416 80.9342 144.159 81.2598C143.905 81.5853 143.578 81.8262 143.178 81.9824C142.781 82.1387 142.348 82.2168 141.879 82.2168ZM148.9 83.1689C148.93 82.9541 148.909 82.7751 148.837 82.6318C148.765 82.4854 148.661 82.3633 148.524 82.2656C148.388 82.1647 148.235 82.0817 148.065 82.0166C147.896 81.9482 147.727 81.8848 147.558 81.8262C147.313 81.7415 147.073 81.6423 146.835 81.5283C146.601 81.4144 146.389 81.2777 146.2 81.1182C146.011 80.9554 145.863 80.7633 145.756 80.542C145.652 80.3206 145.611 80.0618 145.634 79.7656C145.66 79.4368 145.753 79.1488 145.912 78.9014C146.072 78.6507 146.275 78.4424 146.522 78.2764C146.77 78.1104 147.042 77.9867 147.338 77.9053C147.634 77.8239 147.934 77.7865 148.236 77.793C148.656 77.8027 149.032 77.8971 149.364 78.0762C149.696 78.252 149.955 78.4993 150.141 78.8184C150.326 79.1374 150.408 79.5133 150.385 79.9463L149.467 79.9414C149.49 79.6582 149.454 79.4157 149.359 79.2139C149.265 79.0088 149.118 78.8509 148.92 78.7402C148.725 78.6296 148.484 78.571 148.197 78.5645C147.937 78.5579 147.688 78.597 147.45 78.6816C147.216 78.7663 147.017 78.8981 146.854 79.0771C146.692 79.2529 146.592 79.4792 146.557 79.7559C146.531 79.9479 146.557 80.1123 146.635 80.249C146.713 80.3857 146.82 80.5013 146.957 80.5957C147.097 80.6901 147.248 80.7699 147.411 80.835C147.577 80.9001 147.735 80.957 147.885 81.0059C148.145 81.0938 148.396 81.1979 148.637 81.3184C148.881 81.4355 149.096 81.5788 149.281 81.748C149.47 81.9141 149.613 82.1126 149.711 82.3438C149.812 82.5749 149.849 82.8467 149.823 83.1592C149.794 83.4977 149.698 83.7907 149.535 84.0381C149.372 84.2855 149.164 84.4889 148.91 84.6484C148.656 84.8047 148.378 84.9202 148.075 84.9951C147.772 85.07 147.468 85.1042 147.162 85.0977C146.843 85.0944 146.54 85.0439 146.254 84.9463C145.971 84.8454 145.72 84.7021 145.502 84.5166C145.284 84.3311 145.116 84.1064 144.999 83.8428C144.882 83.5758 144.831 83.2731 144.848 82.9346L145.761 82.9395C145.744 83.1673 145.769 83.3675 145.834 83.54C145.899 83.7126 145.997 83.8574 146.127 83.9746C146.26 84.0885 146.418 84.1764 146.601 84.2383C146.783 84.2969 146.983 84.3278 147.201 84.3311C147.458 84.3376 147.709 84.3018 147.953 84.2236C148.201 84.1455 148.41 84.0202 148.583 83.8477C148.756 83.6751 148.861 83.4489 148.9 83.1689ZM157.66 84.2334L157.523 85H153.866L153.998 84.2334H157.66ZM155.292 77.8906L154.057 85H153.134L154.369 77.8906H155.292ZM157.743 80.9473L157.611 81.7139H154.433L154.569 80.9473H157.743ZM158.71 77.8906L158.573 78.6621H154.965L155.102 77.8906H158.71ZM160.136 84.1406L162.216 79.7168H163.148L160.478 85H159.857L160.136 84.1406ZM159.647 79.7168L160.399 84.2529L160.375 85H159.809L158.773 79.7168H159.647ZM165.258 85.0977C164.896 85.0911 164.582 85.0195 164.315 84.8828C164.052 84.7428 163.835 84.5557 163.666 84.3213C163.5 84.0837 163.381 83.8135 163.31 83.5107C163.238 83.208 163.217 82.8906 163.246 82.5586L163.266 82.3486C163.298 82.0101 163.381 81.6781 163.515 81.3525C163.648 81.0238 163.826 80.7275 164.047 80.4639C164.271 80.2002 164.535 79.9919 164.838 79.8389C165.144 79.6826 165.482 79.6094 165.854 79.6191C166.221 79.6257 166.527 79.7038 166.771 79.8535C167.016 80.0033 167.206 80.2018 167.343 80.4492C167.483 80.6934 167.574 80.9684 167.616 81.2744C167.659 81.5771 167.662 81.888 167.626 82.207L167.572 82.6123H163.739L163.856 81.875L166.781 81.8799L166.796 81.8018C166.828 81.5674 166.815 81.3411 166.757 81.123C166.698 80.9049 166.591 80.7259 166.435 80.5859C166.282 80.4427 166.075 80.3678 165.814 80.3613C165.544 80.3516 165.31 80.4069 165.111 80.5273C164.913 80.6445 164.747 80.804 164.613 81.0059C164.48 81.2044 164.374 81.4225 164.296 81.6602C164.221 81.8945 164.169 82.124 164.14 82.3486L164.12 82.5537C164.101 82.762 164.107 82.972 164.14 83.1836C164.172 83.3952 164.234 83.5889 164.325 83.7646C164.42 83.9372 164.55 84.0788 164.716 84.1895C164.882 84.2969 165.087 84.3538 165.331 84.3604C165.627 84.3669 165.893 84.3034 166.127 84.1699C166.365 84.0332 166.581 83.8607 166.776 83.6523L167.279 84.082C167.126 84.3066 166.944 84.4954 166.732 84.6484C166.521 84.8014 166.29 84.9154 166.039 84.9902C165.788 85.0651 165.528 85.1009 165.258 85.0977ZM169.818 80.5859L169.052 85H168.168L169.086 79.7168H169.945L169.818 80.5859ZM171.532 79.6729L171.449 80.5225C171.381 80.5094 171.311 80.498 171.239 80.4883C171.171 80.4785 171.103 80.4736 171.034 80.4736C170.823 80.4704 170.632 80.5029 170.463 80.5713C170.297 80.6364 170.149 80.7292 170.019 80.8496C169.892 80.9701 169.783 81.1117 169.691 81.2744C169.604 81.4372 169.534 81.613 169.481 81.8018L169.203 81.9482C169.239 81.6846 169.298 81.4144 169.379 81.1377C169.464 80.861 169.579 80.6055 169.726 80.3711C169.875 80.1367 170.062 79.9479 170.287 79.8047C170.515 79.6615 170.788 79.5947 171.107 79.6045C171.179 79.6045 171.249 79.611 171.317 79.624C171.389 79.637 171.461 79.6533 171.532 79.6729ZM173.09 84.3994L175.316 79.7168H176.293L173.192 85.8203C173.111 85.9928 173.015 86.1589 172.904 86.3184C172.797 86.4779 172.673 86.6211 172.533 86.748C172.396 86.875 172.242 86.9743 172.069 87.0459C171.897 87.1175 171.706 87.1533 171.498 87.1533C171.41 87.1501 171.322 87.1403 171.234 87.124C171.143 87.1077 171.055 87.0898 170.971 87.0703L171.024 86.3281C171.063 86.3346 171.103 86.3395 171.142 86.3428C171.181 86.3493 171.218 86.3542 171.254 86.3574C171.472 86.3639 171.659 86.333 171.815 86.2646C171.975 86.1963 172.112 86.0954 172.226 85.9619C172.343 85.8285 172.447 85.6689 172.538 85.4834L173.09 84.3994ZM172.846 79.7168L173.476 83.8672L173.534 84.7998L172.875 85.1221L171.918 79.7168H172.846ZM177.602 84.0186L179.652 79.7168H180.263L179.979 80.6299L177.899 85H177.304L177.602 84.0186ZM177.46 79.7168L177.826 84.165L177.753 85H177.177L176.605 79.7168H177.46ZM180.761 84.0283L182.562 79.7168H183.471L181.068 85H180.448L180.761 84.0283ZM180.365 79.7168L180.922 84.043L180.893 85H180.351L179.735 80.5176L179.77 79.7168H180.365ZM185.619 77.5L184.315 85H183.432L184.735 77.5H185.619ZM184.618 82.1582L184.257 82.1484C184.302 81.8327 184.385 81.5234 184.506 81.2207C184.63 80.9147 184.791 80.6396 184.989 80.3955C185.191 80.1514 185.43 79.9593 185.707 79.8193C185.987 79.6761 186.306 79.6094 186.664 79.6191C186.947 79.6257 187.183 79.681 187.372 79.7852C187.564 79.8861 187.714 80.0244 187.821 80.2002C187.929 80.376 188 80.5794 188.036 80.8105C188.072 81.0384 188.075 81.2809 188.046 81.5381L187.47 85H186.581L187.167 81.5234C187.19 81.3118 187.182 81.1214 187.143 80.9521C187.107 80.7796 187.025 80.6429 186.898 80.542C186.775 80.4378 186.596 80.3825 186.361 80.376C186.114 80.3695 185.891 80.4167 185.692 80.5176C185.494 80.6185 185.32 80.7568 185.17 80.9326C185.023 81.1051 184.903 81.2988 184.809 81.5137C184.717 81.7253 184.654 81.9401 184.618 82.1582ZM191.01 85.0977C190.648 85.0911 190.334 85.0195 190.067 84.8828C189.804 84.7428 189.587 84.5557 189.418 84.3213C189.252 84.0837 189.133 83.8135 189.062 83.5107C188.99 83.208 188.969 82.8906 188.998 82.5586L189.018 82.3486C189.05 82.0101 189.133 81.6781 189.267 81.3525C189.4 81.0238 189.577 80.7275 189.799 80.4639C190.023 80.2002 190.287 79.9919 190.59 79.8389C190.896 79.6826 191.234 79.6094 191.605 79.6191C191.973 79.6257 192.279 79.7038 192.523 79.8535C192.768 80.0033 192.958 80.2018 193.095 80.4492C193.235 80.6934 193.326 80.9684 193.368 81.2744C193.41 81.5771 193.414 81.888 193.378 82.207L193.324 82.6123H189.491L189.608 81.875L192.533 81.8799L192.548 81.8018C192.58 81.5674 192.567 81.3411 192.509 81.123C192.45 80.9049 192.343 80.7259 192.187 80.5859C192.034 80.4427 191.827 80.3678 191.566 80.3613C191.296 80.3516 191.062 80.4069 190.863 80.5273C190.665 80.6445 190.499 80.804 190.365 81.0059C190.232 81.2044 190.126 81.4225 190.048 81.6602C189.973 81.8945 189.921 82.124 189.892 82.3486L189.872 82.5537C189.853 82.762 189.859 82.972 189.892 83.1836C189.924 83.3952 189.986 83.5889 190.077 83.7646C190.172 83.9372 190.302 84.0788 190.468 84.1895C190.634 84.2969 190.839 84.3538 191.083 84.3604C191.379 84.3669 191.645 84.3034 191.879 84.1699C192.117 84.0332 192.333 83.8607 192.528 83.6523L193.031 84.082C192.878 84.3066 192.696 84.4954 192.484 84.6484C192.273 84.8014 192.042 84.9154 191.791 84.9902C191.54 85.0651 191.28 85.1009 191.01 85.0977ZM195.57 80.5859L194.804 85H193.92L194.838 79.7168H195.697L195.57 80.5859ZM197.284 79.6729L197.201 80.5225C197.133 80.5094 197.063 80.498 196.991 80.4883C196.923 80.4785 196.854 80.4736 196.786 80.4736C196.575 80.4704 196.384 80.5029 196.215 80.5713C196.049 80.6364 195.901 80.7292 195.771 80.8496C195.644 80.9701 195.535 81.1117 195.443 81.2744C195.355 81.4372 195.285 81.613 195.233 81.8018L194.955 81.9482C194.991 81.6846 195.049 81.4144 195.131 81.1377C195.215 80.861 195.331 80.6055 195.478 80.3711C195.627 80.1367 195.814 79.9479 196.039 79.8047C196.267 79.6615 196.54 79.5947 196.859 79.6045C196.931 79.6045 197.001 79.611 197.069 79.624C197.141 79.637 197.213 79.6533 197.284 79.6729ZM199.35 85.0977C198.988 85.0911 198.674 85.0195 198.407 84.8828C198.144 84.7428 197.927 84.5557 197.758 84.3213C197.592 84.0837 197.473 83.8135 197.401 83.5107C197.33 83.208 197.309 82.8906 197.338 82.5586L197.357 82.3486C197.39 82.0101 197.473 81.6781 197.606 81.3525C197.74 81.0238 197.917 80.7275 198.139 80.4639C198.363 80.2002 198.627 79.9919 198.93 79.8389C199.236 79.6826 199.574 79.6094 199.945 79.6191C200.313 79.6257 200.619 79.7038 200.863 79.8535C201.107 80.0033 201.298 80.2018 201.435 80.4492C201.575 80.6934 201.666 80.9684 201.708 81.2744C201.75 81.5771 201.754 81.888 201.718 82.207L201.664 82.6123H197.831L197.948 81.875L200.873 81.8799L200.888 81.8018C200.92 81.5674 200.907 81.3411 200.849 81.123C200.79 80.9049 200.683 80.7259 200.526 80.5859C200.373 80.4427 200.167 80.3678 199.906 80.3613C199.636 80.3516 199.402 80.4069 199.203 80.5273C199.005 80.6445 198.839 80.804 198.705 81.0059C198.572 81.2044 198.466 81.4225 198.388 81.6602C198.313 81.8945 198.261 82.124 198.231 82.3486L198.212 82.5537C198.192 82.762 198.199 82.972 198.231 83.1836C198.264 83.3952 198.326 83.5889 198.417 83.7646C198.511 83.9372 198.642 84.0788 198.808 84.1895C198.974 84.2969 199.179 84.3538 199.423 84.3604C199.719 84.3669 199.984 84.3034 200.219 84.1699C200.456 84.0332 200.673 83.8607 200.868 83.6523L201.371 84.082C201.218 84.3066 201.036 84.4954 200.824 84.6484C200.613 84.8014 200.382 84.9154 200.131 84.9902C199.88 85.0651 199.62 85.1009 199.35 85.0977ZM209.95 81.2109L210.644 81.1963C210.624 81.4274 210.572 81.6536 210.487 81.875C210.403 82.0964 210.289 82.2965 210.146 82.4756C210.002 82.6514 209.83 82.7913 209.628 82.8955C209.426 82.9964 209.197 83.0452 208.939 83.042C208.666 83.0355 208.42 82.9671 208.202 82.8369C207.984 82.7035 207.781 82.5439 207.592 82.3584C207.475 82.2412 207.349 82.1322 207.216 82.0312C207.086 81.9271 206.933 81.8734 206.757 81.8701C206.565 81.8669 206.405 81.9124 206.278 82.0068C206.151 82.1012 206.052 82.2249 205.98 82.3779C205.912 82.5309 205.865 82.6904 205.839 82.8564L205.077 82.8711C205.1 82.64 205.154 82.417 205.238 82.2021C205.326 81.984 205.442 81.7887 205.585 81.6162C205.731 81.4437 205.906 81.3086 206.107 81.2109C206.309 81.1133 206.539 81.0661 206.796 81.0693C207.069 81.0758 207.315 81.1458 207.533 81.2793C207.751 81.4128 207.953 81.5723 208.139 81.7578C208.256 81.875 208.381 81.9857 208.515 82.0898C208.648 82.194 208.803 82.2477 208.979 82.251C209.177 82.251 209.341 82.2005 209.472 82.0996C209.605 81.9987 209.711 81.8685 209.789 81.709C209.867 81.5462 209.921 81.3802 209.95 81.2109Z" fill="#05A2FA"/>
</svg>
