<svg width="330" height="169" viewBox="0 0 330 169" fill="none" xmlns="http://www.w3.org/2000/svg">
<line x1="12" y1="154.5" x2="312" y2="154.5" stroke="#333333"/>
<line x1="22.5" y1="141" x2="22.5" y2="169" stroke="#333333"/>
<line x1="162.5" y1="141" x2="162.5" y2="169" stroke="#333333"/>
<path d="M9.13916 125.836V127.779H2.83057V125.836H9.13916ZM3.56934 120.914V133H1.0791V120.914H3.56934ZM10.9155 120.914V133H8.43359V120.914H10.9155ZM18.2368 120.914V133H15.7549V120.914H18.2368ZM21.9556 120.914V122.865H12.0942V120.914H21.9556ZM28.9116 120.914V133H26.4297V120.914H28.9116ZM32.6304 120.914V122.865H22.769V120.914H32.6304ZM38.7563 128.692H35.6768V126.75H38.7563C39.2323 126.75 39.6196 126.672 39.9185 126.517C40.2173 126.357 40.4359 126.135 40.5742 125.853C40.7126 125.571 40.7817 125.253 40.7817 124.898C40.7817 124.539 40.7126 124.204 40.5742 123.894C40.4359 123.584 40.2173 123.335 39.9185 123.147C39.6196 122.959 39.2323 122.865 38.7563 122.865H36.54V133H34.0498V120.914H38.7563C39.7026 120.914 40.5133 121.086 41.1885 121.429C41.8691 121.766 42.3893 122.234 42.749 122.832C43.1087 123.429 43.2886 124.113 43.2886 124.882C43.2886 125.662 43.1087 126.337 42.749 126.907C42.3893 127.477 41.8691 127.917 41.1885 128.227C40.5133 128.537 39.7026 128.692 38.7563 128.692Z" fill="#DD3322"/>
<path d="M144.139 125.836V127.779H137.831V125.836H144.139ZM138.569 120.914V133H136.079V120.914H138.569ZM145.916 120.914V133H143.434V120.914H145.916ZM153.237 120.914V133H150.755V120.914H153.237ZM156.956 120.914V122.865H147.094V120.914H156.956ZM163.912 120.914V133H161.43V120.914H163.912ZM167.63 120.914V122.865H157.769V120.914H167.63ZM173.756 128.692H170.677V126.75H173.756C174.232 126.75 174.62 126.672 174.918 126.517C175.217 126.357 175.436 126.135 175.574 125.853C175.713 125.571 175.782 125.253 175.782 124.898C175.782 124.539 175.713 124.204 175.574 123.894C175.436 123.584 175.217 123.335 174.918 123.147C174.62 122.959 174.232 122.865 173.756 122.865H171.54V133H169.05V120.914H173.756C174.703 120.914 175.513 121.086 176.188 121.429C176.869 121.766 177.389 122.234 177.749 122.832C178.109 123.429 178.289 124.113 178.289 124.882C178.289 125.662 178.109 126.337 177.749 126.907C177.389 127.477 176.869 127.917 176.188 128.227C175.513 128.537 174.703 128.692 173.756 128.692ZM186.299 129.837C186.299 129.622 186.266 129.428 186.199 129.256C186.138 129.079 186.022 128.919 185.851 128.775C185.679 128.625 185.438 128.479 185.128 128.335C184.819 128.191 184.417 128.042 183.925 127.887C183.377 127.71 182.857 127.51 182.364 127.289C181.877 127.068 181.446 126.81 181.069 126.517C180.699 126.218 180.405 125.872 180.189 125.479C179.979 125.087 179.874 124.63 179.874 124.11C179.874 123.606 179.985 123.15 180.206 122.74C180.427 122.325 180.737 121.971 181.136 121.678C181.534 121.379 182.005 121.149 182.547 120.989C183.095 120.828 183.695 120.748 184.348 120.748C185.239 120.748 186.017 120.909 186.681 121.229C187.345 121.55 187.859 121.99 188.225 122.549C188.595 123.108 188.781 123.747 188.781 124.467H186.307C186.307 124.113 186.232 123.803 186.083 123.537C185.939 123.266 185.718 123.053 185.419 122.898C185.126 122.743 184.755 122.666 184.307 122.666C183.875 122.666 183.515 122.732 183.228 122.865C182.94 122.992 182.724 123.166 182.58 123.388C182.436 123.604 182.364 123.847 182.364 124.118C182.364 124.323 182.414 124.508 182.514 124.674C182.619 124.84 182.774 124.995 182.979 125.139C183.183 125.283 183.435 125.419 183.734 125.546C184.033 125.673 184.379 125.798 184.771 125.919C185.43 126.119 186.008 126.343 186.506 126.592C187.01 126.841 187.431 127.12 187.768 127.43C188.106 127.74 188.36 128.091 188.532 128.484C188.703 128.877 188.789 129.323 188.789 129.821C188.789 130.347 188.687 130.817 188.482 131.232C188.277 131.647 187.981 131.998 187.594 132.286C187.206 132.574 186.744 132.792 186.208 132.942C185.671 133.091 185.07 133.166 184.406 133.166C183.809 133.166 183.219 133.089 182.638 132.934C182.057 132.773 181.529 132.532 181.053 132.211C180.582 131.89 180.206 131.481 179.924 130.983C179.642 130.485 179.5 129.896 179.5 129.215H181.999C181.999 129.591 182.057 129.909 182.173 130.169C182.29 130.43 182.453 130.64 182.663 130.8C182.879 130.961 183.133 131.077 183.427 131.149C183.726 131.221 184.052 131.257 184.406 131.257C184.838 131.257 185.192 131.196 185.469 131.074C185.751 130.952 185.958 130.784 186.091 130.568C186.23 130.352 186.299 130.109 186.299 129.837Z" fill="#333333"/>
<path d="M65.6464 126.646C65.4512 126.842 65.4512 127.158 65.6464 127.354L68.8284 130.536C69.0237 130.731 69.3403 130.731 69.5355 130.536C69.7308 130.34 69.7308 130.024 69.5355 129.828L66.7071 127L69.5355 124.172C69.7308 123.976 69.7308 123.66 69.5355 123.464C69.3403 123.269 69.0237 123.269 68.8284 123.464L65.6464 126.646ZM66 127.5H114V126.5H66V127.5Z" fill="#333333"/>
<path d="M72.1641 114.086V115H69.3008V114.086H72.1641ZM69.6797 109.312V115H68.5078V109.312H69.6797ZM74.7109 115.078C74.3828 115.078 74.0885 115.026 73.8281 114.922C73.5677 114.815 73.3464 114.668 73.1641 114.48C72.9844 114.293 72.8464 114.076 72.75 113.828C72.6536 113.578 72.6055 113.312 72.6055 113.031V112.875C72.6055 112.555 72.651 112.262 72.7422 111.996C72.8333 111.73 72.9635 111.5 73.1328 111.305C73.3047 111.109 73.513 110.96 73.7578 110.855C74.0026 110.749 74.2786 110.695 74.5859 110.695C74.8854 110.695 75.151 110.745 75.3828 110.844C75.6146 110.943 75.8086 111.083 75.9648 111.266C76.1237 111.448 76.2435 111.667 76.3242 111.922C76.4049 112.174 76.4453 112.456 76.4453 112.766V113.234H73.0859V112.484H75.3398V112.398C75.3398 112.242 75.3112 112.103 75.2539 111.98C75.1992 111.855 75.1159 111.757 75.0039 111.684C74.8919 111.611 74.7487 111.574 74.5742 111.574C74.4258 111.574 74.2982 111.607 74.1914 111.672C74.0846 111.737 73.9974 111.828 73.9297 111.945C73.8646 112.062 73.8151 112.201 73.7812 112.359C73.75 112.516 73.7344 112.688 73.7344 112.875V113.031C73.7344 113.201 73.7578 113.357 73.8047 113.5C73.8542 113.643 73.9232 113.767 74.0117 113.871C74.1029 113.975 74.2122 114.056 74.3398 114.113C74.4701 114.171 74.6172 114.199 74.7812 114.199C74.9844 114.199 75.1732 114.16 75.3477 114.082C75.5247 114.001 75.6771 113.88 75.8047 113.719L76.3516 114.312C76.263 114.44 76.1419 114.562 75.9883 114.68C75.8372 114.797 75.6549 114.893 75.4414 114.969C75.2279 115.042 74.9844 115.078 74.7109 115.078ZM79.3711 113.832C79.3711 113.751 79.3477 113.678 79.3008 113.613C79.2539 113.548 79.1667 113.488 79.0391 113.434C78.9141 113.376 78.7331 113.324 78.4961 113.277C78.2826 113.23 78.0833 113.172 77.8984 113.102C77.7161 113.029 77.5573 112.941 77.4219 112.84C77.2891 112.738 77.1849 112.618 77.1094 112.48C77.0339 112.34 76.9961 112.18 76.9961 112C76.9961 111.823 77.0339 111.656 77.1094 111.5C77.1875 111.344 77.2982 111.206 77.4414 111.086C77.5872 110.964 77.7643 110.868 77.9727 110.801C78.1836 110.73 78.4206 110.695 78.6836 110.695C79.0508 110.695 79.3659 110.754 79.6289 110.871C79.8945 110.988 80.0977 111.15 80.2383 111.355C80.3815 111.559 80.4531 111.79 80.4531 112.051H79.3281C79.3281 111.941 79.3047 111.844 79.2578 111.758C79.2135 111.669 79.1432 111.6 79.0469 111.551C78.9531 111.499 78.8307 111.473 78.6797 111.473C78.5547 111.473 78.4466 111.495 78.3555 111.539C78.2643 111.581 78.194 111.638 78.1445 111.711C78.0977 111.781 78.0742 111.859 78.0742 111.945C78.0742 112.01 78.0872 112.069 78.1133 112.121C78.1419 112.171 78.1875 112.216 78.25 112.258C78.3125 112.299 78.3932 112.339 78.4922 112.375C78.5938 112.409 78.7188 112.44 78.8672 112.469C79.1719 112.531 79.444 112.613 79.6836 112.715C79.9232 112.814 80.1133 112.949 80.2539 113.121C80.3945 113.29 80.4648 113.513 80.4648 113.789C80.4648 113.977 80.4232 114.148 80.3398 114.305C80.2565 114.461 80.1367 114.598 79.9805 114.715C79.8242 114.829 79.6367 114.919 79.418 114.984C79.2018 115.047 78.9583 115.078 78.6875 115.078C78.2943 115.078 77.9609 115.008 77.6875 114.867C77.4167 114.727 77.2109 114.548 77.0703 114.332C76.9323 114.113 76.8633 113.889 76.8633 113.66H77.9297C77.9349 113.814 77.974 113.938 78.0469 114.031C78.1224 114.125 78.2174 114.193 78.332 114.234C78.4492 114.276 78.5755 114.297 78.7109 114.297C78.8568 114.297 78.9779 114.277 79.0742 114.238C79.1706 114.197 79.2435 114.142 79.293 114.074C79.3451 114.004 79.3711 113.923 79.3711 113.832ZM83.4805 113.832C83.4805 113.751 83.457 113.678 83.4102 113.613C83.3633 113.548 83.276 113.488 83.1484 113.434C83.0234 113.376 82.8424 113.324 82.6055 113.277C82.3919 113.23 82.1927 113.172 82.0078 113.102C81.8255 113.029 81.6667 112.941 81.5312 112.84C81.3984 112.738 81.2943 112.618 81.2188 112.48C81.1432 112.34 81.1055 112.18 81.1055 112C81.1055 111.823 81.1432 111.656 81.2188 111.5C81.2969 111.344 81.4076 111.206 81.5508 111.086C81.6966 110.964 81.8737 110.868 82.082 110.801C82.293 110.73 82.5299 110.695 82.793 110.695C83.1602 110.695 83.4753 110.754 83.7383 110.871C84.0039 110.988 84.207 111.15 84.3477 111.355C84.4909 111.559 84.5625 111.79 84.5625 112.051H83.4375C83.4375 111.941 83.4141 111.844 83.3672 111.758C83.3229 111.669 83.2526 111.6 83.1562 111.551C83.0625 111.499 82.9401 111.473 82.7891 111.473C82.6641 111.473 82.556 111.495 82.4648 111.539C82.3737 111.581 82.3034 111.638 82.2539 111.711C82.207 111.781 82.1836 111.859 82.1836 111.945C82.1836 112.01 82.1966 112.069 82.2227 112.121C82.2513 112.171 82.2969 112.216 82.3594 112.258C82.4219 112.299 82.5026 112.339 82.6016 112.375C82.7031 112.409 82.8281 112.44 82.9766 112.469C83.2812 112.531 83.5534 112.613 83.793 112.715C84.0326 112.814 84.2227 112.949 84.3633 113.121C84.5039 113.29 84.5742 113.513 84.5742 113.789C84.5742 113.977 84.5326 114.148 84.4492 114.305C84.3659 114.461 84.2461 114.598 84.0898 114.715C83.9336 114.829 83.7461 114.919 83.5273 114.984C83.3112 115.047 83.0677 115.078 82.7969 115.078C82.4036 115.078 82.0703 115.008 81.7969 114.867C81.526 114.727 81.3203 114.548 81.1797 114.332C81.0417 114.113 80.9727 113.889 80.9727 113.66H82.0391C82.0443 113.814 82.0833 113.938 82.1562 114.031C82.2318 114.125 82.3268 114.193 82.4414 114.234C82.5586 114.276 82.6849 114.297 82.8203 114.297C82.9661 114.297 83.0872 114.277 83.1836 114.238C83.2799 114.197 83.3529 114.142 83.4023 114.074C83.4544 114.004 83.4805 113.923 83.4805 113.832ZM90.3281 113.512C90.3281 113.41 90.3125 113.319 90.2812 113.238C90.2526 113.155 90.1979 113.079 90.1172 113.012C90.0365 112.941 89.9232 112.872 89.7773 112.805C89.6315 112.737 89.4427 112.667 89.2109 112.594C88.9531 112.51 88.7083 112.417 88.4766 112.312C88.2474 112.208 88.0443 112.087 87.8672 111.949C87.6927 111.809 87.5547 111.646 87.4531 111.461C87.3542 111.276 87.3047 111.061 87.3047 110.816C87.3047 110.579 87.3568 110.365 87.4609 110.172C87.5651 109.977 87.7109 109.81 87.8984 109.672C88.0859 109.531 88.3073 109.423 88.5625 109.348C88.8203 109.272 89.1029 109.234 89.4102 109.234C89.8294 109.234 90.1953 109.31 90.5078 109.461C90.8203 109.612 91.0625 109.819 91.2344 110.082C91.4089 110.345 91.4961 110.646 91.4961 110.984H90.332C90.332 110.818 90.2969 110.672 90.2266 110.547C90.1589 110.419 90.0547 110.319 89.9141 110.246C89.776 110.173 89.6016 110.137 89.3906 110.137C89.1875 110.137 89.0182 110.168 88.8828 110.23C88.7474 110.29 88.6458 110.372 88.5781 110.477C88.5104 110.578 88.4766 110.693 88.4766 110.82C88.4766 110.917 88.5 111.004 88.5469 111.082C88.5964 111.16 88.6693 111.233 88.7656 111.301C88.862 111.368 88.9805 111.432 89.1211 111.492C89.2617 111.552 89.4245 111.611 89.6094 111.668C89.9193 111.762 90.1914 111.867 90.4258 111.984C90.6628 112.102 90.8607 112.233 91.0195 112.379C91.1784 112.525 91.2982 112.69 91.3789 112.875C91.4596 113.06 91.5 113.27 91.5 113.504C91.5 113.751 91.4518 113.973 91.3555 114.168C91.2591 114.363 91.1198 114.529 90.9375 114.664C90.7552 114.799 90.5378 114.902 90.2852 114.973C90.0326 115.043 89.75 115.078 89.4375 115.078C89.1562 115.078 88.8789 115.042 88.6055 114.969C88.332 114.893 88.0833 114.78 87.8594 114.629C87.638 114.478 87.4609 114.285 87.3281 114.051C87.1953 113.816 87.1289 113.539 87.1289 113.219H88.3047C88.3047 113.396 88.332 113.546 88.3867 113.668C88.4414 113.79 88.5182 113.889 88.6172 113.965C88.7188 114.04 88.8385 114.095 88.9766 114.129C89.1172 114.163 89.2708 114.18 89.4375 114.18C89.6406 114.18 89.8073 114.151 89.9375 114.094C90.0703 114.036 90.168 113.957 90.2305 113.855C90.2956 113.754 90.3281 113.639 90.3281 113.512ZM94.1719 115.078C93.8438 115.078 93.5495 115.026 93.2891 114.922C93.0286 114.815 92.8073 114.668 92.625 114.48C92.4453 114.293 92.3073 114.076 92.2109 113.828C92.1146 113.578 92.0664 113.312 92.0664 113.031V112.875C92.0664 112.555 92.112 112.262 92.2031 111.996C92.2943 111.73 92.4245 111.5 92.5938 111.305C92.7656 111.109 92.974 110.96 93.2188 110.855C93.4635 110.749 93.7396 110.695 94.0469 110.695C94.3464 110.695 94.612 110.745 94.8438 110.844C95.0755 110.943 95.2695 111.083 95.4258 111.266C95.5846 111.448 95.7044 111.667 95.7852 111.922C95.8659 112.174 95.9062 112.456 95.9062 112.766V113.234H92.5469V112.484H94.8008V112.398C94.8008 112.242 94.7721 112.103 94.7148 111.98C94.6602 111.855 94.5768 111.757 94.4648 111.684C94.3529 111.611 94.2096 111.574 94.0352 111.574C93.8867 111.574 93.7591 111.607 93.6523 111.672C93.5456 111.737 93.4583 111.828 93.3906 111.945C93.3255 112.062 93.276 112.201 93.2422 112.359C93.2109 112.516 93.1953 112.688 93.1953 112.875V113.031C93.1953 113.201 93.2188 113.357 93.2656 113.5C93.3151 113.643 93.3841 113.767 93.4727 113.871C93.5638 113.975 93.6732 114.056 93.8008 114.113C93.931 114.171 94.0781 114.199 94.2422 114.199C94.4453 114.199 94.6341 114.16 94.8086 114.082C94.9857 114.001 95.138 113.88 95.2656 113.719L95.8125 114.312C95.724 114.44 95.6029 114.562 95.4492 114.68C95.2982 114.797 95.1159 114.893 94.9023 114.969C94.6888 115.042 94.4453 115.078 94.1719 115.078ZM98.293 114.199C98.431 114.199 98.5534 114.173 98.6602 114.121C98.7669 114.066 98.8503 113.991 98.9102 113.895C98.9727 113.796 99.0052 113.68 99.0078 113.547H100.066C100.064 113.844 99.9844 114.108 99.8281 114.34C99.6719 114.569 99.4622 114.75 99.1992 114.883C98.9362 115.013 98.6419 115.078 98.3164 115.078C97.9883 115.078 97.7018 115.023 97.457 114.914C97.2148 114.805 97.013 114.654 96.8516 114.461C96.6901 114.266 96.569 114.039 96.4883 113.781C96.4076 113.521 96.3672 113.242 96.3672 112.945V112.832C96.3672 112.533 96.4076 112.254 96.4883 111.996C96.569 111.736 96.6901 111.509 96.8516 111.316C97.013 111.121 97.2148 110.969 97.457 110.859C97.6992 110.75 97.9831 110.695 98.3086 110.695C98.6549 110.695 98.9583 110.762 99.2188 110.895C99.4818 111.027 99.6875 111.217 99.8359 111.465C99.987 111.71 100.064 112 100.066 112.336H99.0078C99.0052 112.195 98.9753 112.068 98.918 111.953C98.8633 111.839 98.7826 111.747 98.6758 111.68C98.5716 111.609 98.4427 111.574 98.2891 111.574C98.125 111.574 97.9909 111.609 97.8867 111.68C97.7826 111.747 97.7018 111.841 97.6445 111.961C97.5872 112.078 97.5469 112.212 97.5234 112.363C97.5026 112.512 97.4922 112.668 97.4922 112.832V112.945C97.4922 113.109 97.5026 113.267 97.5234 113.418C97.5443 113.569 97.5833 113.703 97.6406 113.82C97.7005 113.938 97.7826 114.03 97.8867 114.098C97.9909 114.165 98.1263 114.199 98.293 114.199ZM103.219 113.988V110.773H104.344V115H103.285L103.219 113.988ZM103.344 113.121L103.676 113.113C103.676 113.395 103.643 113.656 103.578 113.898C103.513 114.138 103.415 114.346 103.285 114.523C103.155 114.698 102.991 114.835 102.793 114.934C102.595 115.03 102.362 115.078 102.094 115.078C101.888 115.078 101.698 115.049 101.523 114.992C101.352 114.932 101.203 114.84 101.078 114.715C100.956 114.587 100.859 114.424 100.789 114.227C100.721 114.026 100.688 113.785 100.688 113.504V110.773H101.812V113.512C101.812 113.637 101.827 113.742 101.855 113.828C101.887 113.914 101.93 113.984 101.984 114.039C102.039 114.094 102.103 114.133 102.176 114.156C102.251 114.18 102.335 114.191 102.426 114.191C102.658 114.191 102.84 114.145 102.973 114.051C103.108 113.957 103.203 113.829 103.258 113.668C103.315 113.504 103.344 113.322 103.344 113.121ZM106.328 111.695V115H105.203V110.773H106.262L106.328 111.695ZM107.602 110.746L107.582 111.789C107.527 111.781 107.461 111.775 107.383 111.77C107.307 111.762 107.238 111.758 107.176 111.758C107.017 111.758 106.879 111.779 106.762 111.82C106.647 111.859 106.551 111.918 106.473 111.996C106.397 112.074 106.34 112.169 106.301 112.281C106.264 112.393 106.243 112.521 106.238 112.664L106.012 112.594C106.012 112.32 106.039 112.069 106.094 111.84C106.148 111.608 106.228 111.406 106.332 111.234C106.439 111.062 106.569 110.93 106.723 110.836C106.876 110.742 107.052 110.695 107.25 110.695C107.312 110.695 107.376 110.701 107.441 110.711C107.507 110.719 107.56 110.73 107.602 110.746ZM110 115.078C109.672 115.078 109.378 115.026 109.117 114.922C108.857 114.815 108.635 114.668 108.453 114.48C108.273 114.293 108.135 114.076 108.039 113.828C107.943 113.578 107.895 113.312 107.895 113.031V112.875C107.895 112.555 107.94 112.262 108.031 111.996C108.122 111.73 108.253 111.5 108.422 111.305C108.594 111.109 108.802 110.96 109.047 110.855C109.292 110.749 109.568 110.695 109.875 110.695C110.174 110.695 110.44 110.745 110.672 110.844C110.904 110.943 111.098 111.083 111.254 111.266C111.413 111.448 111.533 111.667 111.613 111.922C111.694 112.174 111.734 112.456 111.734 112.766V113.234H108.375V112.484H110.629V112.398C110.629 112.242 110.6 112.103 110.543 111.98C110.488 111.855 110.405 111.757 110.293 111.684C110.181 111.611 110.038 111.574 109.863 111.574C109.715 111.574 109.587 111.607 109.48 111.672C109.374 111.737 109.286 111.828 109.219 111.945C109.154 112.062 109.104 112.201 109.07 112.359C109.039 112.516 109.023 112.688 109.023 112.875V113.031C109.023 113.201 109.047 113.357 109.094 113.5C109.143 113.643 109.212 113.767 109.301 113.871C109.392 113.975 109.501 114.056 109.629 114.113C109.759 114.171 109.906 114.199 110.07 114.199C110.273 114.199 110.462 114.16 110.637 114.082C110.814 114.001 110.966 113.88 111.094 113.719L111.641 114.312C111.552 114.44 111.431 114.562 111.277 114.68C111.126 114.797 110.944 114.893 110.73 114.969C110.517 115.042 110.273 115.078 110 115.078Z" fill="#DD3322"/>
<line x1="12" y1="41.5" x2="312" y2="41.5" stroke="#333333"/>
<line x1="162.5" y1="28" x2="162.5" y2="56" stroke="#333333"/>
<line x1="302.5" y1="28" x2="302.5" y2="56" stroke="#333333"/>
<path d="M149.139 15.8364V17.7788H142.831V15.8364H149.139ZM143.569 10.9141V23H141.079V10.9141H143.569ZM150.916 10.9141V23H148.434V10.9141H150.916ZM158.237 10.9141V23H155.755V10.9141H158.237ZM161.956 10.9141V12.8647H152.094V10.9141H161.956ZM168.912 10.9141V23H166.43V10.9141H168.912ZM172.63 10.9141V12.8647H162.769V10.9141H172.63ZM178.756 18.6919H175.677V16.7495H178.756C179.232 16.7495 179.62 16.672 179.918 16.5171C180.217 16.3566 180.436 16.1353 180.574 15.853C180.713 15.5708 180.782 15.2526 180.782 14.8984C180.782 14.5387 180.713 14.2039 180.574 13.894C180.436 13.5841 180.217 13.3351 179.918 13.147C179.62 12.9588 179.232 12.8647 178.756 12.8647H176.54V23H174.05V10.9141H178.756C179.703 10.9141 180.513 11.0856 181.188 11.4287C181.869 11.7663 182.389 12.2339 182.749 12.8315C183.109 13.4292 183.289 14.1126 183.289 14.8818C183.289 15.6621 183.109 16.3372 182.749 16.9072C182.389 17.4772 181.869 17.9172 181.188 18.2271C180.513 18.5369 179.703 18.6919 178.756 18.6919Z" fill="#333333"/>
<path d="M284.139 15.8364V17.7788H277.831V15.8364H284.139ZM278.569 10.9141V23H276.079V10.9141H278.569ZM285.916 10.9141V23H283.434V10.9141H285.916ZM293.237 10.9141V23H290.755V10.9141H293.237ZM296.956 10.9141V12.8647H287.094V10.9141H296.956ZM303.912 10.9141V23H301.43V10.9141H303.912ZM307.63 10.9141V12.8647H297.769V10.9141H307.63ZM313.756 18.6919H310.677V16.7495H313.756C314.232 16.7495 314.62 16.672 314.918 16.5171C315.217 16.3566 315.436 16.1353 315.574 15.853C315.713 15.5708 315.782 15.2526 315.782 14.8984C315.782 14.5387 315.713 14.2039 315.574 13.894C315.436 13.5841 315.217 13.3351 314.918 13.147C314.62 12.9588 314.232 12.8647 313.756 12.8647H311.54V23H309.05V10.9141H313.756C314.703 10.9141 315.513 11.0856 316.188 11.4287C316.869 11.7663 317.389 12.2339 317.749 12.8315C318.109 13.4292 318.289 14.1126 318.289 14.8818C318.289 15.6621 318.109 16.3372 317.749 16.9072C317.389 17.4772 316.869 17.9172 316.188 18.2271C315.513 18.5369 314.703 18.6919 313.756 18.6919ZM326.299 19.8374C326.299 19.6216 326.266 19.4279 326.199 19.2563C326.138 19.0793 326.022 18.9188 325.851 18.7749C325.679 18.6255 325.438 18.4788 325.128 18.335C324.819 18.1911 324.417 18.0417 323.925 17.8867C323.377 17.7096 322.857 17.5104 322.364 17.2891C321.877 17.0677 321.446 16.8104 321.069 16.5171C320.699 16.2183 320.405 15.8724 320.189 15.4795C319.979 15.0866 319.874 14.63 319.874 14.1099C319.874 13.6063 319.985 13.1497 320.206 12.7402C320.427 12.3252 320.737 11.971 321.136 11.6777C321.534 11.3789 322.005 11.1493 322.547 10.9888C323.095 10.8283 323.695 10.748 324.348 10.748C325.239 10.748 326.017 10.9085 326.681 11.2295C327.345 11.5505 327.859 11.9904 328.225 12.5493C328.595 13.1082 328.781 13.7474 328.781 14.4668H326.307C326.307 14.1126 326.232 13.8027 326.083 13.5371C325.939 13.266 325.718 13.0529 325.419 12.8979C325.126 12.743 324.755 12.6655 324.307 12.6655C323.875 12.6655 323.515 12.7319 323.228 12.8647C322.94 12.992 322.724 13.1663 322.58 13.3877C322.436 13.6035 322.364 13.847 322.364 14.1182C322.364 14.3229 322.414 14.5083 322.514 14.6743C322.619 14.8403 322.774 14.9953 322.979 15.1392C323.183 15.283 323.435 15.4186 323.734 15.5459C324.033 15.6732 324.379 15.7977 324.771 15.9194C325.43 16.1187 326.008 16.3428 326.506 16.5918C327.01 16.8408 327.431 17.1203 327.768 17.4302C328.106 17.7401 328.36 18.0915 328.532 18.4844C328.703 18.8773 328.789 19.3228 328.789 19.8208C328.789 20.3465 328.687 20.8169 328.482 21.2319C328.277 21.647 327.981 21.9984 327.594 22.2861C327.206 22.5739 326.744 22.7925 326.208 22.9419C325.671 23.0913 325.07 23.166 324.406 23.166C323.809 23.166 323.219 23.0885 322.638 22.9336C322.057 22.7731 321.529 22.5324 321.053 22.2114C320.582 21.8905 320.206 21.481 319.924 20.9829C319.642 20.4849 319.5 19.8955 319.5 19.2148H321.999C321.999 19.5911 322.057 19.9093 322.173 20.1694C322.29 20.4295 322.453 20.6398 322.663 20.8003C322.879 20.9608 323.133 21.077 323.427 21.1489C323.726 21.2209 324.052 21.2568 324.406 21.2568C324.838 21.2568 325.192 21.196 325.469 21.0742C325.751 20.9525 325.958 20.7837 326.091 20.5679C326.23 20.3521 326.299 20.1086 326.299 19.8374Z" fill="#11EE11"/>
<path d="M254.354 17.3536C254.549 17.1583 254.549 16.8417 254.354 16.6464L251.172 13.4645C250.976 13.2692 250.66 13.2692 250.464 13.4645C250.269 13.6597 250.269 13.9763 250.464 14.1716L253.293 17L250.464 19.8284C250.269 20.0237 250.269 20.3403 250.464 20.5355C250.66 20.7308 250.976 20.7308 251.172 20.5355L254.354 17.3536ZM206 17.5H254V16.5H206V17.5Z" fill="#333333"/>
<path d="M208.043 1.3125H209.035L210.496 5.48828L211.957 1.3125H212.949L210.895 7H210.098L208.043 1.3125ZM207.508 1.3125H208.496L208.676 5.38281V7H207.508V1.3125ZM212.496 1.3125H213.488V7H212.316V5.38281L212.496 1.3125ZM214.266 4.92969V4.84766C214.266 4.53776 214.31 4.2526 214.398 3.99219C214.487 3.72917 214.616 3.5013 214.785 3.30859C214.954 3.11589 215.163 2.96615 215.41 2.85938C215.658 2.75 215.941 2.69531 216.262 2.69531C216.582 2.69531 216.867 2.75 217.117 2.85938C217.367 2.96615 217.577 3.11589 217.746 3.30859C217.918 3.5013 218.048 3.72917 218.137 3.99219C218.225 4.2526 218.27 4.53776 218.27 4.84766V4.92969C218.27 5.23698 218.225 5.52214 218.137 5.78516C218.048 6.04557 217.918 6.27344 217.746 6.46875C217.577 6.66146 217.368 6.8112 217.121 6.91797C216.874 7.02474 216.59 7.07812 216.27 7.07812C215.949 7.07812 215.664 7.02474 215.414 6.91797C215.167 6.8112 214.957 6.66146 214.785 6.46875C214.616 6.27344 214.487 6.04557 214.398 5.78516C214.31 5.52214 214.266 5.23698 214.266 4.92969ZM215.391 4.84766V4.92969C215.391 5.10677 215.406 5.27214 215.438 5.42578C215.469 5.57943 215.518 5.71484 215.586 5.83203C215.656 5.94661 215.747 6.03646 215.859 6.10156C215.971 6.16667 216.108 6.19922 216.27 6.19922C216.426 6.19922 216.56 6.16667 216.672 6.10156C216.784 6.03646 216.874 5.94661 216.941 5.83203C217.009 5.71484 217.059 5.57943 217.09 5.42578C217.124 5.27214 217.141 5.10677 217.141 4.92969V4.84766C217.141 4.67578 217.124 4.51432 217.09 4.36328C217.059 4.20964 217.008 4.07422 216.938 3.95703C216.87 3.83724 216.78 3.74349 216.668 3.67578C216.556 3.60807 216.421 3.57422 216.262 3.57422C216.103 3.57422 215.967 3.60807 215.855 3.67578C215.746 3.74349 215.656 3.83724 215.586 3.95703C215.518 4.07422 215.469 4.20964 215.438 4.36328C215.406 4.51432 215.391 4.67578 215.391 4.84766ZM220.086 3.69531V7H218.961V2.77344H220.02L220.086 3.69531ZM221.359 2.74609L221.34 3.78906C221.285 3.78125 221.219 3.77474 221.141 3.76953C221.065 3.76172 220.996 3.75781 220.934 3.75781C220.775 3.75781 220.637 3.77865 220.52 3.82031C220.405 3.85938 220.309 3.91797 220.23 3.99609C220.155 4.07422 220.098 4.16927 220.059 4.28125C220.022 4.39323 220.001 4.52083 219.996 4.66406L219.77 4.59375C219.77 4.32031 219.797 4.06901 219.852 3.83984C219.906 3.60807 219.986 3.40625 220.09 3.23438C220.197 3.0625 220.327 2.92969 220.48 2.83594C220.634 2.74219 220.81 2.69531 221.008 2.69531C221.07 2.69531 221.134 2.70052 221.199 2.71094C221.264 2.71875 221.318 2.73047 221.359 2.74609ZM223.758 7.07812C223.43 7.07812 223.135 7.02604 222.875 6.92188C222.615 6.8151 222.393 6.66797 222.211 6.48047C222.031 6.29297 221.893 6.07552 221.797 5.82812C221.701 5.57812 221.652 5.3125 221.652 5.03125V4.875C221.652 4.55469 221.698 4.26172 221.789 3.99609C221.88 3.73047 222.01 3.5 222.18 3.30469C222.352 3.10938 222.56 2.95964 222.805 2.85547C223.049 2.7487 223.326 2.69531 223.633 2.69531C223.932 2.69531 224.198 2.74479 224.43 2.84375C224.661 2.94271 224.855 3.08333 225.012 3.26562C225.171 3.44792 225.29 3.66667 225.371 3.92188C225.452 4.17448 225.492 4.45573 225.492 4.76562V5.23438H222.133V4.48438H224.387V4.39844C224.387 4.24219 224.358 4.10286 224.301 3.98047C224.246 3.85547 224.163 3.75651 224.051 3.68359C223.939 3.61068 223.796 3.57422 223.621 3.57422C223.473 3.57422 223.345 3.60677 223.238 3.67188C223.132 3.73698 223.044 3.82812 222.977 3.94531C222.911 4.0625 222.862 4.20052 222.828 4.35938C222.797 4.51562 222.781 4.6875 222.781 4.875V5.03125C222.781 5.20052 222.805 5.35677 222.852 5.5C222.901 5.64323 222.97 5.76693 223.059 5.87109C223.15 5.97526 223.259 6.05599 223.387 6.11328C223.517 6.17057 223.664 6.19922 223.828 6.19922C224.031 6.19922 224.22 6.16016 224.395 6.08203C224.572 6.0013 224.724 5.88021 224.852 5.71875L225.398 6.3125C225.31 6.4401 225.189 6.5625 225.035 6.67969C224.884 6.79688 224.702 6.89323 224.488 6.96875C224.275 7.04167 224.031 7.07812 223.758 7.07812ZM231.156 5.51172C231.156 5.41016 231.141 5.31901 231.109 5.23828C231.081 5.15495 231.026 5.07943 230.945 5.01172C230.865 4.94141 230.751 4.8724 230.605 4.80469C230.46 4.73698 230.271 4.66667 230.039 4.59375C229.781 4.51042 229.536 4.41667 229.305 4.3125C229.076 4.20833 228.872 4.08724 228.695 3.94922C228.521 3.80859 228.383 3.64583 228.281 3.46094C228.182 3.27604 228.133 3.0612 228.133 2.81641C228.133 2.57943 228.185 2.36458 228.289 2.17188C228.393 1.97656 228.539 1.8099 228.727 1.67188C228.914 1.53125 229.135 1.42318 229.391 1.34766C229.648 1.27214 229.931 1.23438 230.238 1.23438C230.658 1.23438 231.023 1.3099 231.336 1.46094C231.648 1.61198 231.891 1.81901 232.062 2.08203C232.237 2.34505 232.324 2.64583 232.324 2.98438H231.16C231.16 2.81771 231.125 2.67188 231.055 2.54688C230.987 2.41927 230.883 2.31901 230.742 2.24609C230.604 2.17318 230.43 2.13672 230.219 2.13672C230.016 2.13672 229.846 2.16797 229.711 2.23047C229.576 2.29036 229.474 2.3724 229.406 2.47656C229.339 2.57812 229.305 2.69271 229.305 2.82031C229.305 2.91667 229.328 3.00391 229.375 3.08203C229.424 3.16016 229.497 3.23307 229.594 3.30078C229.69 3.36849 229.809 3.43229 229.949 3.49219C230.09 3.55208 230.253 3.61068 230.438 3.66797C230.747 3.76172 231.02 3.86719 231.254 3.98438C231.491 4.10156 231.689 4.23307 231.848 4.37891C232.007 4.52474 232.126 4.6901 232.207 4.875C232.288 5.0599 232.328 5.26953 232.328 5.50391C232.328 5.7513 232.28 5.97266 232.184 6.16797C232.087 6.36328 231.948 6.52865 231.766 6.66406C231.583 6.79948 231.366 6.90234 231.113 6.97266C230.861 7.04297 230.578 7.07812 230.266 7.07812C229.984 7.07812 229.707 7.04167 229.434 6.96875C229.16 6.89323 228.911 6.77995 228.688 6.62891C228.466 6.47786 228.289 6.28516 228.156 6.05078C228.023 5.81641 227.957 5.53906 227.957 5.21875H229.133C229.133 5.39583 229.16 5.54557 229.215 5.66797C229.27 5.79036 229.346 5.88932 229.445 5.96484C229.547 6.04036 229.667 6.09505 229.805 6.12891C229.945 6.16276 230.099 6.17969 230.266 6.17969C230.469 6.17969 230.635 6.15104 230.766 6.09375C230.898 6.03646 230.996 5.95703 231.059 5.85547C231.124 5.75391 231.156 5.63932 231.156 5.51172ZM235 7.07812C234.672 7.07812 234.378 7.02604 234.117 6.92188C233.857 6.8151 233.635 6.66797 233.453 6.48047C233.273 6.29297 233.135 6.07552 233.039 5.82812C232.943 5.57812 232.895 5.3125 232.895 5.03125V4.875C232.895 4.55469 232.94 4.26172 233.031 3.99609C233.122 3.73047 233.253 3.5 233.422 3.30469C233.594 3.10938 233.802 2.95964 234.047 2.85547C234.292 2.7487 234.568 2.69531 234.875 2.69531C235.174 2.69531 235.44 2.74479 235.672 2.84375C235.904 2.94271 236.098 3.08333 236.254 3.26562C236.413 3.44792 236.533 3.66667 236.613 3.92188C236.694 4.17448 236.734 4.45573 236.734 4.76562V5.23438H233.375V4.48438H235.629V4.39844C235.629 4.24219 235.6 4.10286 235.543 3.98047C235.488 3.85547 235.405 3.75651 235.293 3.68359C235.181 3.61068 235.038 3.57422 234.863 3.57422C234.715 3.57422 234.587 3.60677 234.48 3.67188C234.374 3.73698 234.286 3.82812 234.219 3.94531C234.154 4.0625 234.104 4.20052 234.07 4.35938C234.039 4.51562 234.023 4.6875 234.023 4.875V5.03125C234.023 5.20052 234.047 5.35677 234.094 5.5C234.143 5.64323 234.212 5.76693 234.301 5.87109C234.392 5.97526 234.501 6.05599 234.629 6.11328C234.759 6.17057 234.906 6.19922 235.07 6.19922C235.273 6.19922 235.462 6.16016 235.637 6.08203C235.814 6.0013 235.966 5.88021 236.094 5.71875L236.641 6.3125C236.552 6.4401 236.431 6.5625 236.277 6.67969C236.126 6.79688 235.944 6.89323 235.73 6.96875C235.517 7.04167 235.273 7.07812 235 7.07812ZM239.121 6.19922C239.259 6.19922 239.382 6.17318 239.488 6.12109C239.595 6.06641 239.678 5.99089 239.738 5.89453C239.801 5.79557 239.833 5.67969 239.836 5.54688H240.895C240.892 5.84375 240.812 6.10807 240.656 6.33984C240.5 6.56901 240.29 6.75 240.027 6.88281C239.764 7.01302 239.47 7.07812 239.145 7.07812C238.816 7.07812 238.53 7.02344 238.285 6.91406C238.043 6.80469 237.841 6.65365 237.68 6.46094C237.518 6.26562 237.397 6.03906 237.316 5.78125C237.236 5.52083 237.195 5.24219 237.195 4.94531V4.83203C237.195 4.53255 237.236 4.25391 237.316 3.99609C237.397 3.73568 237.518 3.50911 237.68 3.31641C237.841 3.12109 238.043 2.96875 238.285 2.85938C238.527 2.75 238.811 2.69531 239.137 2.69531C239.483 2.69531 239.786 2.76172 240.047 2.89453C240.31 3.02734 240.516 3.21745 240.664 3.46484C240.815 3.70964 240.892 4 240.895 4.33594H239.836C239.833 4.19531 239.803 4.06771 239.746 3.95312C239.691 3.83854 239.611 3.7474 239.504 3.67969C239.4 3.60938 239.271 3.57422 239.117 3.57422C238.953 3.57422 238.819 3.60938 238.715 3.67969C238.611 3.7474 238.53 3.84115 238.473 3.96094C238.415 4.07812 238.375 4.21224 238.352 4.36328C238.331 4.51172 238.32 4.66797 238.32 4.83203V4.94531C238.32 5.10938 238.331 5.26693 238.352 5.41797C238.372 5.56901 238.411 5.70312 238.469 5.82031C238.529 5.9375 238.611 6.02995 238.715 6.09766C238.819 6.16536 238.954 6.19922 239.121 6.19922ZM244.047 5.98828V2.77344H245.172V7H244.113L244.047 5.98828ZM244.172 5.12109L244.504 5.11328C244.504 5.39453 244.471 5.65625 244.406 5.89844C244.341 6.13802 244.243 6.34635 244.113 6.52344C243.983 6.69792 243.819 6.83464 243.621 6.93359C243.423 7.02995 243.19 7.07812 242.922 7.07812C242.716 7.07812 242.526 7.04948 242.352 6.99219C242.18 6.93229 242.031 6.83984 241.906 6.71484C241.784 6.58724 241.688 6.42448 241.617 6.22656C241.549 6.02604 241.516 5.78516 241.516 5.50391V2.77344H242.641V5.51172C242.641 5.63672 242.655 5.74219 242.684 5.82812C242.715 5.91406 242.758 5.98438 242.812 6.03906C242.867 6.09375 242.931 6.13281 243.004 6.15625C243.079 6.17969 243.163 6.19141 243.254 6.19141C243.486 6.19141 243.668 6.14453 243.801 6.05078C243.936 5.95703 244.031 5.82943 244.086 5.66797C244.143 5.50391 244.172 5.32161 244.172 5.12109ZM247.156 3.69531V7H246.031V2.77344H247.09L247.156 3.69531ZM248.43 2.74609L248.41 3.78906C248.355 3.78125 248.289 3.77474 248.211 3.76953C248.135 3.76172 248.066 3.75781 248.004 3.75781C247.845 3.75781 247.707 3.77865 247.59 3.82031C247.475 3.85938 247.379 3.91797 247.301 3.99609C247.225 4.07422 247.168 4.16927 247.129 4.28125C247.092 4.39323 247.072 4.52083 247.066 4.66406L246.84 4.59375C246.84 4.32031 246.867 4.06901 246.922 3.83984C246.977 3.60807 247.056 3.40625 247.16 3.23438C247.267 3.0625 247.397 2.92969 247.551 2.83594C247.704 2.74219 247.88 2.69531 248.078 2.69531C248.141 2.69531 248.204 2.70052 248.27 2.71094C248.335 2.71875 248.388 2.73047 248.43 2.74609ZM250.828 7.07812C250.5 7.07812 250.206 7.02604 249.945 6.92188C249.685 6.8151 249.464 6.66797 249.281 6.48047C249.102 6.29297 248.964 6.07552 248.867 5.82812C248.771 5.57812 248.723 5.3125 248.723 5.03125V4.875C248.723 4.55469 248.768 4.26172 248.859 3.99609C248.951 3.73047 249.081 3.5 249.25 3.30469C249.422 3.10938 249.63 2.95964 249.875 2.85547C250.12 2.7487 250.396 2.69531 250.703 2.69531C251.003 2.69531 251.268 2.74479 251.5 2.84375C251.732 2.94271 251.926 3.08333 252.082 3.26562C252.241 3.44792 252.361 3.66667 252.441 3.92188C252.522 4.17448 252.562 4.45573 252.562 4.76562V5.23438H249.203V4.48438H251.457V4.39844C251.457 4.24219 251.428 4.10286 251.371 3.98047C251.316 3.85547 251.233 3.75651 251.121 3.68359C251.009 3.61068 250.866 3.57422 250.691 3.57422C250.543 3.57422 250.415 3.60677 250.309 3.67188C250.202 3.73698 250.115 3.82812 250.047 3.94531C249.982 4.0625 249.932 4.20052 249.898 4.35938C249.867 4.51562 249.852 4.6875 249.852 4.875V5.03125C249.852 5.20052 249.875 5.35677 249.922 5.5C249.971 5.64323 250.04 5.76693 250.129 5.87109C250.22 5.97526 250.329 6.05599 250.457 6.11328C250.587 6.17057 250.734 6.19922 250.898 6.19922C251.102 6.19922 251.29 6.16016 251.465 6.08203C251.642 6.0013 251.794 5.88021 251.922 5.71875L252.469 6.3125C252.38 6.4401 252.259 6.5625 252.105 6.67969C251.954 6.79688 251.772 6.89323 251.559 6.96875C251.345 7.04167 251.102 7.07812 250.828 7.07812Z" fill="#11EE11"/>
<path d="M116.386 81.2109L117.079 81.1963C117.06 81.4274 117.007 81.6536 116.923 81.875C116.838 82.0964 116.724 82.2965 116.581 82.4756C116.438 82.6514 116.265 82.7913 116.063 82.8955C115.862 82.9964 115.632 83.0452 115.375 83.042C115.102 83.0355 114.856 82.9671 114.638 82.8369C114.42 82.7035 114.216 82.5439 114.027 82.3584C113.91 82.2412 113.785 82.1322 113.651 82.0312C113.521 81.9271 113.368 81.8734 113.192 81.8701C113 81.8669 112.841 81.9124 112.714 82.0068C112.587 82.1012 112.488 82.2249 112.416 82.3779C112.348 82.5309 112.3 82.6904 112.274 82.8564L111.513 82.8711C111.535 82.64 111.589 82.417 111.674 82.2021C111.762 81.984 111.877 81.7887 112.021 81.6162C112.167 81.4437 112.341 81.3086 112.543 81.2109C112.745 81.1133 112.974 81.0661 113.231 81.0693C113.505 81.0758 113.751 81.1458 113.969 81.2793C114.187 81.4128 114.389 81.5723 114.574 81.7578C114.691 81.875 114.817 81.9857 114.95 82.0898C115.084 82.194 115.238 82.2477 115.414 82.251C115.613 82.251 115.777 82.2005 115.907 82.0996C116.041 81.9987 116.146 81.8685 116.225 81.709C116.303 81.5462 116.356 81.3802 116.386 81.2109ZM125.57 80.9473L125.434 81.7139H121.693L121.83 80.9473H125.57ZM122.509 77.8906L121.273 85H120.351L121.586 77.8906H122.509ZM126.894 77.8906L125.658 85H124.745L125.976 77.8906H126.894ZM130.917 77.8906L129.687 85H128.778L130.014 77.8906H130.917ZM133.134 77.8906L132.997 78.6621H127.665L127.802 77.8906H133.134ZM136.786 77.8906L135.556 85H134.647L135.883 77.8906H136.786ZM139.003 77.8906L138.866 78.6621H133.534L133.671 77.8906H139.003ZM141.879 82.2168L139.975 82.2119L140.111 81.4453L141.903 81.4502C142.209 81.4502 142.489 81.3981 142.743 81.2939C143 81.1898 143.212 81.0335 143.378 80.8252C143.547 80.6169 143.651 80.3516 143.69 80.0293C143.726 79.7526 143.699 79.515 143.607 79.3164C143.52 79.1146 143.38 78.9583 143.188 78.8477C142.995 78.737 142.763 78.6768 142.489 78.667L140.81 78.6621L139.711 85H138.788L140.023 77.8906L142.514 77.8955C142.937 77.9053 143.313 77.9948 143.642 78.1641C143.974 78.3301 144.228 78.5693 144.403 78.8818C144.579 79.1943 144.647 79.5736 144.608 80.0195C144.566 80.5208 144.416 80.9342 144.159 81.2598C143.905 81.5853 143.578 81.8262 143.178 81.9824C142.781 82.1387 142.348 82.2168 141.879 82.2168ZM148.9 83.1689C148.93 82.9541 148.909 82.7751 148.837 82.6318C148.765 82.4854 148.661 82.3633 148.524 82.2656C148.388 82.1647 148.235 82.0817 148.065 82.0166C147.896 81.9482 147.727 81.8848 147.558 81.8262C147.313 81.7415 147.073 81.6423 146.835 81.5283C146.601 81.4144 146.389 81.2777 146.2 81.1182C146.011 80.9554 145.863 80.7633 145.756 80.542C145.652 80.3206 145.611 80.0618 145.634 79.7656C145.66 79.4368 145.753 79.1488 145.912 78.9014C146.072 78.6507 146.275 78.4424 146.522 78.2764C146.77 78.1104 147.042 77.9867 147.338 77.9053C147.634 77.8239 147.934 77.7865 148.236 77.793C148.656 77.8027 149.032 77.8971 149.364 78.0762C149.696 78.252 149.955 78.4993 150.141 78.8184C150.326 79.1374 150.408 79.5133 150.385 79.9463L149.467 79.9414C149.49 79.6582 149.454 79.4157 149.359 79.2139C149.265 79.0088 149.118 78.8509 148.92 78.7402C148.725 78.6296 148.484 78.571 148.197 78.5645C147.937 78.5579 147.688 78.597 147.45 78.6816C147.216 78.7663 147.017 78.8981 146.854 79.0771C146.692 79.2529 146.592 79.4792 146.557 79.7559C146.531 79.9479 146.557 80.1123 146.635 80.249C146.713 80.3857 146.82 80.5013 146.957 80.5957C147.097 80.6901 147.248 80.7699 147.411 80.835C147.577 80.9001 147.735 80.957 147.885 81.0059C148.145 81.0938 148.396 81.1979 148.637 81.3184C148.881 81.4355 149.096 81.5788 149.281 81.748C149.47 81.9141 149.613 82.1126 149.711 82.3438C149.812 82.5749 149.849 82.8467 149.823 83.1592C149.794 83.4977 149.698 83.7907 149.535 84.0381C149.372 84.2855 149.164 84.4889 148.91 84.6484C148.656 84.8047 148.378 84.9202 148.075 84.9951C147.772 85.07 147.468 85.1042 147.162 85.0977C146.843 85.0944 146.54 85.0439 146.254 84.9463C145.971 84.8454 145.72 84.7021 145.502 84.5166C145.284 84.3311 145.116 84.1064 144.999 83.8428C144.882 83.5758 144.831 83.2731 144.848 82.9346L145.761 82.9395C145.744 83.1673 145.769 83.3675 145.834 83.54C145.899 83.7126 145.997 83.8574 146.127 83.9746C146.26 84.0885 146.418 84.1764 146.601 84.2383C146.783 84.2969 146.983 84.3278 147.201 84.3311C147.458 84.3376 147.709 84.3018 147.953 84.2236C148.201 84.1455 148.41 84.0202 148.583 83.8477C148.756 83.6751 148.861 83.4489 148.9 83.1689ZM157.66 84.2334L157.523 85H153.866L153.998 84.2334H157.66ZM155.292 77.8906L154.057 85H153.134L154.369 77.8906H155.292ZM157.743 80.9473L157.611 81.7139H154.433L154.569 80.9473H157.743ZM158.71 77.8906L158.573 78.6621H154.965L155.102 77.8906H158.71ZM160.136 84.1406L162.216 79.7168H163.148L160.478 85H159.857L160.136 84.1406ZM159.647 79.7168L160.399 84.2529L160.375 85H159.809L158.773 79.7168H159.647ZM165.258 85.0977C164.896 85.0911 164.582 85.0195 164.315 84.8828C164.052 84.7428 163.835 84.5557 163.666 84.3213C163.5 84.0837 163.381 83.8135 163.31 83.5107C163.238 83.208 163.217 82.8906 163.246 82.5586L163.266 82.3486C163.298 82.0101 163.381 81.6781 163.515 81.3525C163.648 81.0238 163.826 80.7275 164.047 80.4639C164.271 80.2002 164.535 79.9919 164.838 79.8389C165.144 79.6826 165.482 79.6094 165.854 79.6191C166.221 79.6257 166.527 79.7038 166.771 79.8535C167.016 80.0033 167.206 80.2018 167.343 80.4492C167.483 80.6934 167.574 80.9684 167.616 81.2744C167.659 81.5771 167.662 81.888 167.626 82.207L167.572 82.6123H163.739L163.856 81.875L166.781 81.8799L166.796 81.8018C166.828 81.5674 166.815 81.3411 166.757 81.123C166.698 80.9049 166.591 80.7259 166.435 80.5859C166.282 80.4427 166.075 80.3678 165.814 80.3613C165.544 80.3516 165.31 80.4069 165.111 80.5273C164.913 80.6445 164.747 80.804 164.613 81.0059C164.48 81.2044 164.374 81.4225 164.296 81.6602C164.221 81.8945 164.169 82.124 164.14 82.3486L164.12 82.5537C164.101 82.762 164.107 82.972 164.14 83.1836C164.172 83.3952 164.234 83.5889 164.325 83.7646C164.42 83.9372 164.55 84.0788 164.716 84.1895C164.882 84.2969 165.087 84.3538 165.331 84.3604C165.627 84.3669 165.893 84.3034 166.127 84.1699C166.365 84.0332 166.581 83.8607 166.776 83.6523L167.279 84.082C167.126 84.3066 166.944 84.4954 166.732 84.6484C166.521 84.8014 166.29 84.9154 166.039 84.9902C165.788 85.0651 165.528 85.1009 165.258 85.0977ZM169.818 80.5859L169.052 85H168.168L169.086 79.7168H169.945L169.818 80.5859ZM171.532 79.6729L171.449 80.5225C171.381 80.5094 171.311 80.498 171.239 80.4883C171.171 80.4785 171.103 80.4736 171.034 80.4736C170.823 80.4704 170.632 80.5029 170.463 80.5713C170.297 80.6364 170.149 80.7292 170.019 80.8496C169.892 80.9701 169.783 81.1117 169.691 81.2744C169.604 81.4372 169.534 81.613 169.481 81.8018L169.203 81.9482C169.239 81.6846 169.298 81.4144 169.379 81.1377C169.464 80.861 169.579 80.6055 169.726 80.3711C169.875 80.1367 170.062 79.9479 170.287 79.8047C170.515 79.6615 170.788 79.5947 171.107 79.6045C171.179 79.6045 171.249 79.611 171.317 79.624C171.389 79.637 171.461 79.6533 171.532 79.6729ZM173.09 84.3994L175.316 79.7168H176.293L173.192 85.8203C173.111 85.9928 173.015 86.1589 172.904 86.3184C172.797 86.4779 172.673 86.6211 172.533 86.748C172.396 86.875 172.242 86.9743 172.069 87.0459C171.897 87.1175 171.706 87.1533 171.498 87.1533C171.41 87.1501 171.322 87.1403 171.234 87.124C171.143 87.1077 171.055 87.0898 170.971 87.0703L171.024 86.3281C171.063 86.3346 171.103 86.3395 171.142 86.3428C171.181 86.3493 171.218 86.3542 171.254 86.3574C171.472 86.3639 171.659 86.333 171.815 86.2646C171.975 86.1963 172.112 86.0954 172.226 85.9619C172.343 85.8285 172.447 85.6689 172.538 85.4834L173.09 84.3994ZM172.846 79.7168L173.476 83.8672L173.534 84.7998L172.875 85.1221L171.918 79.7168H172.846ZM177.602 84.0186L179.652 79.7168H180.263L179.979 80.6299L177.899 85H177.304L177.602 84.0186ZM177.46 79.7168L177.826 84.165L177.753 85H177.177L176.605 79.7168H177.46ZM180.761 84.0283L182.562 79.7168H183.471L181.068 85H180.448L180.761 84.0283ZM180.365 79.7168L180.922 84.043L180.893 85H180.351L179.735 80.5176L179.77 79.7168H180.365ZM185.619 77.5L184.315 85H183.432L184.735 77.5H185.619ZM184.618 82.1582L184.257 82.1484C184.302 81.8327 184.385 81.5234 184.506 81.2207C184.63 80.9147 184.791 80.6396 184.989 80.3955C185.191 80.1514 185.43 79.9593 185.707 79.8193C185.987 79.6761 186.306 79.6094 186.664 79.6191C186.947 79.6257 187.183 79.681 187.372 79.7852C187.564 79.8861 187.714 80.0244 187.821 80.2002C187.929 80.376 188 80.5794 188.036 80.8105C188.072 81.0384 188.075 81.2809 188.046 81.5381L187.47 85H186.581L187.167 81.5234C187.19 81.3118 187.182 81.1214 187.143 80.9521C187.107 80.7796 187.025 80.6429 186.898 80.542C186.775 80.4378 186.596 80.3825 186.361 80.376C186.114 80.3695 185.891 80.4167 185.692 80.5176C185.494 80.6185 185.32 80.7568 185.17 80.9326C185.023 81.1051 184.903 81.2988 184.809 81.5137C184.717 81.7253 184.654 81.9401 184.618 82.1582ZM191.01 85.0977C190.648 85.0911 190.334 85.0195 190.067 84.8828C189.804 84.7428 189.587 84.5557 189.418 84.3213C189.252 84.0837 189.133 83.8135 189.062 83.5107C188.99 83.208 188.969 82.8906 188.998 82.5586L189.018 82.3486C189.05 82.0101 189.133 81.6781 189.267 81.3525C189.4 81.0238 189.577 80.7275 189.799 80.4639C190.023 80.2002 190.287 79.9919 190.59 79.8389C190.896 79.6826 191.234 79.6094 191.605 79.6191C191.973 79.6257 192.279 79.7038 192.523 79.8535C192.768 80.0033 192.958 80.2018 193.095 80.4492C193.235 80.6934 193.326 80.9684 193.368 81.2744C193.41 81.5771 193.414 81.888 193.378 82.207L193.324 82.6123H189.491L189.608 81.875L192.533 81.8799L192.548 81.8018C192.58 81.5674 192.567 81.3411 192.509 81.123C192.45 80.9049 192.343 80.7259 192.187 80.5859C192.034 80.4427 191.827 80.3678 191.566 80.3613C191.296 80.3516 191.062 80.4069 190.863 80.5273C190.665 80.6445 190.499 80.804 190.365 81.0059C190.232 81.2044 190.126 81.4225 190.048 81.6602C189.973 81.8945 189.921 82.124 189.892 82.3486L189.872 82.5537C189.853 82.762 189.859 82.972 189.892 83.1836C189.924 83.3952 189.986 83.5889 190.077 83.7646C190.172 83.9372 190.302 84.0788 190.468 84.1895C190.634 84.2969 190.839 84.3538 191.083 84.3604C191.379 84.3669 191.645 84.3034 191.879 84.1699C192.117 84.0332 192.333 83.8607 192.528 83.6523L193.031 84.082C192.878 84.3066 192.696 84.4954 192.484 84.6484C192.273 84.8014 192.042 84.9154 191.791 84.9902C191.54 85.0651 191.28 85.1009 191.01 85.0977ZM195.57 80.5859L194.804 85H193.92L194.838 79.7168H195.697L195.57 80.5859ZM197.284 79.6729L197.201 80.5225C197.133 80.5094 197.063 80.498 196.991 80.4883C196.923 80.4785 196.854 80.4736 196.786 80.4736C196.575 80.4704 196.384 80.5029 196.215 80.5713C196.049 80.6364 195.901 80.7292 195.771 80.8496C195.644 80.9701 195.535 81.1117 195.443 81.2744C195.355 81.4372 195.285 81.613 195.233 81.8018L194.955 81.9482C194.991 81.6846 195.049 81.4144 195.131 81.1377C195.215 80.861 195.331 80.6055 195.478 80.3711C195.627 80.1367 195.814 79.9479 196.039 79.8047C196.267 79.6615 196.54 79.5947 196.859 79.6045C196.931 79.6045 197.001 79.611 197.069 79.624C197.141 79.637 197.213 79.6533 197.284 79.6729ZM199.35 85.0977C198.988 85.0911 198.674 85.0195 198.407 84.8828C198.144 84.7428 197.927 84.5557 197.758 84.3213C197.592 84.0837 197.473 83.8135 197.401 83.5107C197.33 83.208 197.309 82.8906 197.338 82.5586L197.357 82.3486C197.39 82.0101 197.473 81.6781 197.606 81.3525C197.74 81.0238 197.917 80.7275 198.139 80.4639C198.363 80.2002 198.627 79.9919 198.93 79.8389C199.236 79.6826 199.574 79.6094 199.945 79.6191C200.313 79.6257 200.619 79.7038 200.863 79.8535C201.107 80.0033 201.298 80.2018 201.435 80.4492C201.575 80.6934 201.666 80.9684 201.708 81.2744C201.75 81.5771 201.754 81.888 201.718 82.207L201.664 82.6123H197.831L197.948 81.875L200.873 81.8799L200.888 81.8018C200.92 81.5674 200.907 81.3411 200.849 81.123C200.79 80.9049 200.683 80.7259 200.526 80.5859C200.373 80.4427 200.167 80.3678 199.906 80.3613C199.636 80.3516 199.402 80.4069 199.203 80.5273C199.005 80.6445 198.839 80.804 198.705 81.0059C198.572 81.2044 198.466 81.4225 198.388 81.6602C198.313 81.8945 198.261 82.124 198.231 82.3486L198.212 82.5537C198.192 82.762 198.199 82.972 198.231 83.1836C198.264 83.3952 198.326 83.5889 198.417 83.7646C198.511 83.9372 198.642 84.0788 198.808 84.1895C198.974 84.2969 199.179 84.3538 199.423 84.3604C199.719 84.3669 199.984 84.3034 200.219 84.1699C200.456 84.0332 200.673 83.8607 200.868 83.6523L201.371 84.082C201.218 84.3066 201.036 84.4954 200.824 84.6484C200.613 84.8014 200.382 84.9154 200.131 84.9902C199.88 85.0651 199.62 85.1009 199.35 85.0977ZM209.95 81.2109L210.644 81.1963C210.624 81.4274 210.572 81.6536 210.487 81.875C210.403 82.0964 210.289 82.2965 210.146 82.4756C210.002 82.6514 209.83 82.7913 209.628 82.8955C209.426 82.9964 209.197 83.0452 208.939 83.042C208.666 83.0355 208.42 82.9671 208.202 82.8369C207.984 82.7035 207.781 82.5439 207.592 82.3584C207.475 82.2412 207.349 82.1322 207.216 82.0312C207.086 81.9271 206.933 81.8734 206.757 81.8701C206.565 81.8669 206.405 81.9124 206.278 82.0068C206.151 82.1012 206.052 82.2249 205.98 82.3779C205.912 82.5309 205.865 82.6904 205.839 82.8564L205.077 82.8711C205.1 82.64 205.154 82.417 205.238 82.2021C205.326 81.984 205.442 81.7887 205.585 81.6162C205.731 81.4437 205.906 81.3086 206.107 81.2109C206.309 81.1133 206.539 81.0661 206.796 81.0693C207.069 81.0758 207.315 81.1458 207.533 81.2793C207.751 81.4128 207.953 81.5723 208.139 81.7578C208.256 81.875 208.381 81.9857 208.515 82.0898C208.648 82.194 208.803 82.2477 208.979 82.251C209.177 82.251 209.341 82.2005 209.472 82.0996C209.605 81.9987 209.711 81.8685 209.789 81.709C209.867 81.5462 209.921 81.3802 209.95 81.2109Z" fill="#05A2FA"/>
</svg>
