<svg width="380" height="37" viewBox="0 0 380 37" fill="none" xmlns="http://www.w3.org/2000/svg">
<rect x="0.5" y="0.5" width="379" height="36" rx="3.5" fill="white" stroke="#AAAAAA"/>
<path d="M195.706 13.25V26H194.17V13.25H195.706ZM195.341 21.1689L194.702 21.144C194.707 20.5298 194.799 19.9626 194.976 19.4424C195.153 18.9167 195.402 18.4601 195.723 18.0728C196.044 17.6854 196.425 17.3866 196.868 17.1763C197.316 16.9604 197.812 16.8525 198.354 16.8525C198.797 16.8525 199.195 16.9134 199.549 17.0352C199.903 17.1514 200.205 17.3395 200.454 17.5996C200.709 17.8597 200.902 18.1973 201.035 18.6123C201.168 19.0218 201.234 19.5226 201.234 20.1147V26H199.69V20.0981C199.69 19.6278 199.621 19.2515 199.483 18.9692C199.345 18.6815 199.143 18.474 198.877 18.3467C198.611 18.2139 198.285 18.1475 197.897 18.1475C197.516 18.1475 197.167 18.2277 196.852 18.3882C196.542 18.5487 196.273 18.77 196.046 19.0522C195.825 19.3345 195.651 19.6582 195.523 20.0234C195.402 20.3831 195.341 20.765 195.341 21.1689ZM207.294 17.0186V18.1973H202.438V17.0186H207.294ZM204.082 14.8354H205.617V23.7754C205.617 24.0798 205.664 24.3094 205.758 24.4644C205.852 24.6193 205.974 24.7217 206.124 24.7715C206.273 24.8213 206.433 24.8462 206.605 24.8462C206.732 24.8462 206.865 24.8351 207.003 24.813C207.147 24.7853 207.255 24.7632 207.327 24.7466L207.335 26C207.214 26.0387 207.053 26.0747 206.854 26.1079C206.66 26.1466 206.425 26.166 206.148 26.166C205.772 26.166 205.426 26.0913 205.111 25.9419C204.795 25.7925 204.544 25.5435 204.355 25.1948C204.173 24.8407 204.082 24.3647 204.082 23.7671V14.8354ZM212.855 17.0186V18.1973H208V17.0186H212.855ZM209.643 14.8354H211.179V23.7754C211.179 24.0798 211.226 24.3094 211.32 24.4644C211.414 24.6193 211.536 24.7217 211.685 24.7715C211.834 24.8213 211.995 24.8462 212.167 24.8462C212.294 24.8462 212.427 24.8351 212.565 24.813C212.709 24.7853 212.817 24.7632 212.889 24.7466L212.897 26C212.775 26.0387 212.615 26.0747 212.416 26.1079C212.222 26.1466 211.987 26.166 211.71 26.166C211.334 26.166 210.988 26.0913 210.672 25.9419C210.357 25.7925 210.105 25.5435 209.917 25.1948C209.734 24.8407 209.643 24.3647 209.643 23.7671V14.8354ZM216.192 18.7451V29.4531H214.648V17.0186H216.06L216.192 18.7451ZM222.244 21.4346V21.6089C222.244 22.2619 222.166 22.8678 222.011 23.4268C221.856 23.9801 221.629 24.4616 221.331 24.8711C221.037 25.2806 220.675 25.5988 220.243 25.8257C219.812 26.0526 219.316 26.166 218.757 26.166C218.187 26.166 217.684 26.0719 217.247 25.8838C216.809 25.6956 216.439 25.4217 216.134 25.062C215.83 24.7023 215.586 24.2707 215.404 23.7671C215.227 23.2635 215.105 22.6963 215.039 22.0654V21.1357C215.105 20.4717 215.229 19.8768 215.412 19.3511C215.595 18.8254 215.835 18.3771 216.134 18.0063C216.439 17.63 216.807 17.3451 217.238 17.1514C217.67 16.9521 218.168 16.8525 218.732 16.8525C219.297 16.8525 219.798 16.9632 220.235 17.1846C220.672 17.4004 221.04 17.7103 221.339 18.1143C221.638 18.5182 221.862 19.0024 222.011 19.5669C222.166 20.1258 222.244 20.7484 222.244 21.4346ZM220.7 21.6089V21.4346C220.7 20.9863 220.653 20.5658 220.559 20.1729C220.465 19.7744 220.318 19.4258 220.119 19.127C219.925 18.8226 219.676 18.5846 219.372 18.4131C219.067 18.236 218.705 18.1475 218.284 18.1475C217.897 18.1475 217.559 18.2139 217.271 18.3467C216.989 18.4795 216.749 18.6593 216.549 18.8862C216.35 19.1076 216.187 19.3621 216.06 19.6499C215.938 19.9321 215.847 20.2254 215.786 20.5298V22.6797C215.896 23.0671 216.051 23.4323 216.25 23.7754C216.45 24.113 216.715 24.3869 217.047 24.5972C217.379 24.8019 217.797 24.9043 218.301 24.9043C218.716 24.9043 219.073 24.8185 219.372 24.647C219.676 24.4699 219.925 24.2292 220.119 23.9248C220.318 23.6204 220.465 23.2718 220.559 22.8789C220.653 22.4805 220.7 22.0571 220.7 21.6089ZM229.432 23.6177C229.432 23.3963 229.382 23.1916 229.283 23.0034C229.189 22.8097 228.992 22.6354 228.693 22.4805C228.4 22.32 227.957 22.1816 227.365 22.0654C226.867 21.9603 226.416 21.8358 226.012 21.6919C225.614 21.548 225.273 21.3737 224.991 21.1689C224.715 20.9642 224.501 20.7235 224.352 20.4468C224.203 20.1701 224.128 19.8464 224.128 19.4756C224.128 19.1214 224.205 18.7866 224.36 18.4712C224.521 18.1558 224.745 17.8763 225.033 17.6328C225.326 17.3893 225.677 17.1984 226.087 17.0601C226.496 16.9217 226.953 16.8525 227.457 16.8525C228.176 16.8525 228.79 16.9798 229.299 17.2344C229.808 17.4889 230.199 17.8293 230.47 18.2554C230.741 18.6759 230.876 19.1436 230.876 19.6582H229.341C229.341 19.4092 229.266 19.1685 229.117 18.936C228.973 18.6981 228.76 18.5016 228.478 18.3467C228.201 18.1917 227.861 18.1143 227.457 18.1143C227.03 18.1143 226.685 18.1807 226.419 18.3135C226.159 18.4408 225.968 18.604 225.846 18.8032C225.73 19.0024 225.672 19.2127 225.672 19.4341C225.672 19.6001 225.7 19.7495 225.755 19.8823C225.816 20.0096 225.921 20.1286 226.07 20.2393C226.22 20.3444 226.43 20.444 226.701 20.5381C226.972 20.6322 227.318 20.7262 227.739 20.8203C228.475 20.9863 229.081 21.1855 229.557 21.418C230.033 21.6504 230.387 21.9354 230.619 22.2729C230.852 22.6105 230.968 23.02 230.968 23.5015C230.968 23.8944 230.885 24.2541 230.719 24.5806C230.558 24.9071 230.323 25.1893 230.013 25.4272C229.709 25.6597 229.344 25.8423 228.917 25.9751C228.497 26.1024 228.024 26.166 227.498 26.166C226.707 26.166 226.037 26.0249 225.489 25.7427C224.941 25.4604 224.526 25.0952 224.244 24.647C223.962 24.1987 223.821 23.7256 223.821 23.2275H225.365C225.387 23.6481 225.509 23.9829 225.73 24.2319C225.951 24.4754 226.222 24.6497 226.543 24.7549C226.864 24.8545 227.183 24.9043 227.498 24.9043C227.919 24.9043 228.27 24.849 228.552 24.7383C228.84 24.6276 229.059 24.4754 229.208 24.2817C229.357 24.0881 229.432 23.8667 229.432 23.6177ZM232.918 25.1865C232.918 24.9264 232.999 24.7078 233.159 24.5308C233.325 24.3481 233.563 24.2568 233.873 24.2568C234.183 24.2568 234.418 24.3481 234.579 24.5308C234.745 24.7078 234.828 24.9264 234.828 25.1865C234.828 25.4411 234.745 25.6569 234.579 25.834C234.418 26.0111 234.183 26.0996 233.873 26.0996C233.563 26.0996 233.325 26.0111 233.159 25.834C232.999 25.6569 232.918 25.4411 232.918 25.1865ZM232.927 17.8569C232.927 17.5968 233.007 17.3783 233.167 17.2012C233.333 17.0186 233.571 16.9272 233.881 16.9272C234.191 16.9272 234.426 17.0186 234.587 17.2012C234.753 17.3783 234.836 17.5968 234.836 17.8569C234.836 18.1115 234.753 18.3273 234.587 18.5044C234.426 18.6815 234.191 18.77 233.881 18.77C233.571 18.77 233.333 18.6815 233.167 18.5044C233.007 18.3273 232.927 18.1115 232.927 17.8569ZM242.448 13.9141L237.409 27.0376H236.089L241.136 13.9141H242.448ZM247.611 13.9141L242.572 27.0376H241.252L246.299 13.9141H247.611ZM253.015 26.166C252.389 26.166 251.822 26.0609 251.313 25.8506C250.809 25.6348 250.375 25.3332 250.01 24.9458C249.65 24.5584 249.373 24.0991 249.18 23.5679C248.986 23.0366 248.889 22.4556 248.889 21.8247V21.4761C248.889 20.7456 248.997 20.0954 249.213 19.5254C249.429 18.9499 249.722 18.4629 250.093 18.0645C250.464 17.666 250.884 17.3644 251.354 17.1597C251.825 16.9549 252.312 16.8525 252.815 16.8525C253.457 16.8525 254.011 16.9632 254.476 17.1846C254.946 17.4059 255.331 17.7158 255.629 18.1143C255.928 18.5072 256.15 18.972 256.293 19.5088C256.437 20.04 256.509 20.6211 256.509 21.252V21.9409H249.802V20.6875H254.974V20.5713C254.951 20.1729 254.868 19.7855 254.725 19.4092C254.586 19.0329 254.365 18.723 254.061 18.4795C253.756 18.236 253.341 18.1143 252.815 18.1143C252.467 18.1143 252.146 18.189 251.853 18.3384C251.559 18.4823 251.307 18.6981 251.097 18.9858C250.887 19.2736 250.724 19.625 250.607 20.04C250.491 20.4551 250.433 20.9338 250.433 21.4761V21.8247C250.433 22.2508 250.491 22.652 250.607 23.0283C250.729 23.3991 250.903 23.7256 251.13 24.0078C251.363 24.29 251.642 24.5114 251.969 24.6719C252.301 24.8324 252.677 24.9126 253.098 24.9126C253.64 24.9126 254.099 24.8019 254.476 24.5806C254.852 24.3592 255.181 24.0632 255.463 23.6924L256.393 24.4312C256.199 24.7244 255.953 25.0039 255.654 25.2695C255.355 25.5352 254.987 25.751 254.55 25.917C254.119 26.083 253.607 26.166 253.015 26.166ZM259.34 17.0186L261.307 20.2891L263.299 17.0186H265.101L262.162 21.4512L265.192 26H263.416L261.34 22.6299L259.265 26H257.48L260.502 21.4512L257.572 17.0186H259.34ZM272.032 24.4644V19.8408C272.032 19.4867 271.96 19.1795 271.816 18.9194C271.678 18.6538 271.467 18.4491 271.185 18.3052C270.903 18.1613 270.554 18.0894 270.139 18.0894C269.752 18.0894 269.411 18.1558 269.118 18.2886C268.83 18.4214 268.604 18.5957 268.438 18.8115C268.277 19.0273 268.197 19.2598 268.197 19.5088H266.661C266.661 19.1878 266.744 18.8696 266.91 18.5542C267.076 18.2388 267.314 17.9538 267.624 17.6992C267.939 17.4391 268.316 17.2344 268.753 17.085C269.196 16.93 269.688 16.8525 270.23 16.8525C270.883 16.8525 271.459 16.9632 271.957 17.1846C272.461 17.4059 272.854 17.7407 273.136 18.189C273.424 18.6317 273.567 19.1878 273.567 19.8574V24.041C273.567 24.3398 273.592 24.658 273.642 24.9956C273.697 25.3332 273.778 25.6237 273.883 25.8672V26H272.281C272.203 25.8229 272.142 25.5877 272.098 25.2944C272.054 24.9956 272.032 24.7189 272.032 24.4644ZM272.297 20.5547L272.314 21.6338H270.762C270.325 21.6338 269.934 21.6698 269.591 21.7417C269.248 21.8081 268.96 21.9105 268.728 22.0488C268.496 22.1872 268.319 22.3615 268.197 22.5718C268.075 22.7765 268.014 23.0173 268.014 23.2939C268.014 23.5762 268.078 23.8335 268.205 24.0659C268.332 24.2983 268.523 24.4837 268.778 24.6221C269.038 24.7549 269.356 24.8213 269.732 24.8213C270.203 24.8213 270.618 24.7217 270.978 24.5225C271.337 24.3232 271.622 24.0798 271.833 23.792C272.048 23.5042 272.165 23.2248 272.181 22.9536L272.837 23.6924C272.798 23.9248 272.693 24.1821 272.521 24.4644C272.35 24.7466 272.12 25.0177 271.833 25.2778C271.55 25.5324 271.213 25.7454 270.82 25.917C270.432 26.083 269.995 26.166 269.508 26.166C268.9 26.166 268.366 26.047 267.906 25.8091C267.452 25.5711 267.098 25.2529 266.844 24.8545C266.595 24.4505 266.47 23.9995 266.47 23.5015C266.47 23.02 266.564 22.5967 266.752 22.2314C266.941 21.8607 267.212 21.5535 267.566 21.3101C267.92 21.061 268.346 20.8729 268.844 20.7456C269.342 20.6183 269.898 20.5547 270.513 20.5547H272.297ZM277.51 18.8032V26H275.966V17.0186H277.427L277.51 18.8032ZM277.195 21.1689L276.481 21.144C276.486 20.5298 276.567 19.9626 276.722 19.4424C276.877 18.9167 277.106 18.4601 277.411 18.0728C277.715 17.6854 278.094 17.3866 278.548 17.1763C279.002 16.9604 279.527 16.8525 280.125 16.8525C280.546 16.8525 280.933 16.9134 281.287 17.0352C281.641 17.1514 281.948 17.3368 282.208 17.5913C282.469 17.8459 282.671 18.1724 282.814 18.5708C282.958 18.9692 283.03 19.4507 283.03 20.0151V26H281.495V20.0898C281.495 19.6195 281.414 19.2432 281.254 18.9609C281.099 18.6787 280.878 18.474 280.59 18.3467C280.302 18.2139 279.965 18.1475 279.577 18.1475C279.123 18.1475 278.744 18.2277 278.44 18.3882C278.136 18.5487 277.892 18.77 277.709 19.0522C277.527 19.3345 277.394 19.6582 277.311 20.0234C277.234 20.3831 277.195 20.765 277.195 21.1689ZM283.014 20.3223L281.984 20.6377C281.99 20.1452 282.07 19.672 282.225 19.2183C282.386 18.7645 282.615 18.3605 282.914 18.0063C283.218 17.6522 283.592 17.3727 284.035 17.168C284.477 16.9577 284.984 16.8525 285.554 16.8525C286.035 16.8525 286.461 16.9162 286.832 17.0435C287.208 17.1707 287.524 17.3672 287.778 17.6328C288.038 17.8929 288.235 18.2277 288.368 18.6372C288.5 19.0467 288.567 19.5337 288.567 20.0981V26H287.023V20.0815C287.023 19.578 286.943 19.1878 286.782 18.9111C286.627 18.6289 286.406 18.4325 286.118 18.3218C285.836 18.2056 285.498 18.1475 285.105 18.1475C284.768 18.1475 284.469 18.2056 284.209 18.3218C283.949 18.438 283.73 18.5985 283.553 18.8032C283.376 19.0024 283.241 19.2321 283.146 19.4922C283.058 19.7523 283.014 20.029 283.014 20.3223ZM292.427 18.7451V29.4531H290.883V17.0186H292.294L292.427 18.7451ZM298.478 21.4346V21.6089C298.478 22.2619 298.401 22.8678 298.246 23.4268C298.091 23.9801 297.864 24.4616 297.565 24.8711C297.272 25.2806 296.909 25.5988 296.478 25.8257C296.046 26.0526 295.551 26.166 294.992 26.166C294.422 26.166 293.918 26.0719 293.481 25.8838C293.044 25.6956 292.673 25.4217 292.369 25.062C292.064 24.7023 291.821 24.2707 291.638 23.7671C291.461 23.2635 291.339 22.6963 291.273 22.0654V21.1357C291.339 20.4717 291.464 19.8768 291.646 19.3511C291.829 18.8254 292.07 18.3771 292.369 18.0063C292.673 17.63 293.041 17.3451 293.473 17.1514C293.904 16.9521 294.402 16.8525 294.967 16.8525C295.531 16.8525 296.032 16.9632 296.469 17.1846C296.906 17.4004 297.274 17.7103 297.573 18.1143C297.872 18.5182 298.096 19.0024 298.246 19.5669C298.401 20.1258 298.478 20.7484 298.478 21.4346ZM296.934 21.6089V21.4346C296.934 20.9863 296.887 20.5658 296.793 20.1729C296.699 19.7744 296.552 19.4258 296.353 19.127C296.159 18.8226 295.91 18.5846 295.606 18.4131C295.302 18.236 294.939 18.1475 294.519 18.1475C294.131 18.1475 293.794 18.2139 293.506 18.3467C293.224 18.4795 292.983 18.6593 292.784 18.8862C292.584 19.1076 292.421 19.3621 292.294 19.6499C292.172 19.9321 292.081 20.2254 292.02 20.5298V22.6797C292.131 23.0671 292.286 23.4323 292.485 23.7754C292.684 24.113 292.95 24.3869 293.282 24.5972C293.614 24.8019 294.032 24.9043 294.535 24.9043C294.95 24.9043 295.307 24.8185 295.606 24.647C295.91 24.4699 296.159 24.2292 296.353 23.9248C296.552 23.6204 296.699 23.2718 296.793 22.8789C296.887 22.4805 296.934 22.0571 296.934 21.6089ZM302.105 13.25V26H300.562V13.25H302.105ZM308.298 26.166C307.673 26.166 307.105 26.0609 306.596 25.8506C306.093 25.6348 305.658 25.3332 305.293 24.9458C304.933 24.5584 304.657 24.0991 304.463 23.5679C304.269 23.0366 304.172 22.4556 304.172 21.8247V21.4761C304.172 20.7456 304.28 20.0954 304.496 19.5254C304.712 18.9499 305.005 18.4629 305.376 18.0645C305.747 17.666 306.167 17.3644 306.638 17.1597C307.108 16.9549 307.595 16.8525 308.099 16.8525C308.741 16.8525 309.294 16.9632 309.759 17.1846C310.229 17.4059 310.614 17.7158 310.913 18.1143C311.211 18.5072 311.433 18.972 311.577 19.5088C311.721 20.04 311.792 20.6211 311.792 21.252V21.9409H305.085V20.6875H310.257V20.5713C310.235 20.1729 310.152 19.7855 310.008 19.4092C309.869 19.0329 309.648 18.723 309.344 18.4795C309.039 18.236 308.624 18.1143 308.099 18.1143C307.75 18.1143 307.429 18.189 307.136 18.3384C306.842 18.4823 306.591 18.6981 306.38 18.9858C306.17 19.2736 306.007 19.625 305.891 20.04C305.774 20.4551 305.716 20.9338 305.716 21.4761V21.8247C305.716 22.2508 305.774 22.652 305.891 23.0283C306.012 23.3991 306.187 23.7256 306.414 24.0078C306.646 24.29 306.925 24.5114 307.252 24.6719C307.584 24.8324 307.96 24.9126 308.381 24.9126C308.923 24.9126 309.382 24.8019 309.759 24.5806C310.135 24.3592 310.464 24.0632 310.747 23.6924L311.676 24.4312C311.483 24.7244 311.236 25.0039 310.938 25.2695C310.639 25.5352 310.271 25.751 309.833 25.917C309.402 26.083 308.89 26.166 308.298 26.166ZM313.61 25.1865C313.61 24.9264 313.691 24.7078 313.851 24.5308C314.017 24.3481 314.255 24.2568 314.565 24.2568C314.875 24.2568 315.11 24.3481 315.271 24.5308C315.437 24.7078 315.52 24.9264 315.52 25.1865C315.52 25.4411 315.437 25.6569 315.271 25.834C315.11 26.0111 314.875 26.0996 314.565 26.0996C314.255 26.0996 314.017 26.0111 313.851 25.834C313.691 25.6569 313.61 25.4411 313.61 25.1865ZM321.662 24.9043C322.027 24.9043 322.365 24.8296 322.675 24.6802C322.985 24.5308 323.239 24.326 323.438 24.0659C323.638 23.8003 323.751 23.4987 323.779 23.1611H325.24C325.212 23.6924 325.032 24.1877 324.7 24.647C324.374 25.1007 323.945 25.4688 323.414 25.751C322.882 26.0277 322.299 26.166 321.662 26.166C320.987 26.166 320.398 26.047 319.894 25.8091C319.396 25.5711 318.981 25.2446 318.649 24.8296C318.322 24.4146 318.076 23.9386 317.91 23.4019C317.75 22.8595 317.669 22.2868 317.669 21.6836V21.335C317.669 20.7318 317.75 20.1618 317.91 19.625C318.076 19.0827 318.322 18.604 318.649 18.189C318.981 17.7739 319.396 17.4474 319.894 17.2095C320.398 16.9715 320.987 16.8525 321.662 16.8525C322.365 16.8525 322.979 16.9964 323.505 17.2842C324.031 17.5664 324.443 17.9538 324.742 18.4463C325.046 18.9333 325.212 19.4867 325.24 20.1064H323.779C323.751 19.7357 323.646 19.4009 323.463 19.1021C323.286 18.8032 323.043 18.5653 322.733 18.3882C322.429 18.2056 322.072 18.1143 321.662 18.1143C321.192 18.1143 320.796 18.2083 320.475 18.3965C320.16 18.5791 319.908 18.8281 319.72 19.1436C319.537 19.4535 319.404 19.7993 319.321 20.1812C319.244 20.5575 319.205 20.9421 319.205 21.335V21.6836C319.205 22.0765 319.244 22.4639 319.321 22.8457C319.399 23.2275 319.529 23.5734 319.711 23.8833C319.9 24.1932 320.151 24.4422 320.467 24.6304C320.788 24.813 321.186 24.9043 321.662 24.9043ZM326.56 21.6089V21.418C326.56 20.7705 326.654 20.1701 326.842 19.6167C327.03 19.0578 327.301 18.5736 327.655 18.1641C328.009 17.749 328.438 17.4281 328.942 17.2012C329.445 16.9688 330.01 16.8525 330.635 16.8525C331.266 16.8525 331.833 16.9688 332.337 17.2012C332.846 17.4281 333.278 17.749 333.632 18.1641C333.992 18.5736 334.265 19.0578 334.454 19.6167C334.642 20.1701 334.736 20.7705 334.736 21.418V21.6089C334.736 22.2563 334.642 22.8568 334.454 23.4102C334.265 23.9635 333.992 24.4478 333.632 24.8628C333.278 25.2723 332.849 25.5933 332.345 25.8257C331.847 26.0526 331.283 26.166 330.652 26.166C330.021 26.166 329.454 26.0526 328.95 25.8257C328.447 25.5933 328.015 25.2723 327.655 24.8628C327.301 24.4478 327.03 23.9635 326.842 23.4102C326.654 22.8568 326.56 22.2563 326.56 21.6089ZM328.095 21.418V21.6089C328.095 22.0571 328.148 22.4805 328.253 22.8789C328.358 23.2718 328.516 23.6204 328.726 23.9248C328.942 24.2292 329.21 24.4699 329.531 24.647C329.852 24.8185 330.226 24.9043 330.652 24.9043C331.072 24.9043 331.44 24.8185 331.756 24.647C332.077 24.4699 332.342 24.2292 332.553 23.9248C332.763 23.6204 332.921 23.2718 333.026 22.8789C333.137 22.4805 333.192 22.0571 333.192 21.6089V21.418C333.192 20.9753 333.137 20.5575 333.026 20.1646C332.921 19.7661 332.76 19.4147 332.544 19.1104C332.334 18.8005 332.069 18.557 331.748 18.3799C331.432 18.2028 331.061 18.1143 330.635 18.1143C330.215 18.1143 329.844 18.2028 329.523 18.3799C329.208 18.557 328.942 18.8005 328.726 19.1104C328.516 19.4147 328.358 19.7661 328.253 20.1646C328.148 20.5575 328.095 20.9753 328.095 21.418ZM338.189 18.8032V26H336.645V17.0186H338.106L338.189 18.8032ZM337.874 21.1689L337.16 21.144C337.165 20.5298 337.245 19.9626 337.4 19.4424C337.555 18.9167 337.785 18.4601 338.089 18.0728C338.394 17.6854 338.773 17.3866 339.227 17.1763C339.68 16.9604 340.206 16.8525 340.804 16.8525C341.224 16.8525 341.612 16.9134 341.966 17.0352C342.32 17.1514 342.627 17.3368 342.887 17.5913C343.147 17.8459 343.349 18.1724 343.493 18.5708C343.637 18.9692 343.709 19.4507 343.709 20.0151V26H342.173V20.0898C342.173 19.6195 342.093 19.2432 341.933 18.9609C341.778 18.6787 341.556 18.474 341.269 18.3467C340.981 18.2139 340.643 18.1475 340.256 18.1475C339.802 18.1475 339.423 18.2277 339.119 18.3882C338.814 18.5487 338.571 18.77 338.388 19.0522C338.206 19.3345 338.073 19.6582 337.99 20.0234C337.912 20.3831 337.874 20.765 337.874 21.1689ZM343.692 20.3223L342.663 20.6377C342.669 20.1452 342.749 19.672 342.904 19.2183C343.064 18.7645 343.294 18.3605 343.593 18.0063C343.897 17.6522 344.271 17.3727 344.713 17.168C345.156 16.9577 345.662 16.8525 346.232 16.8525C346.714 16.8525 347.14 16.9162 347.511 17.0435C347.887 17.1707 348.202 17.3672 348.457 17.6328C348.717 17.8929 348.914 18.2277 349.046 18.6372C349.179 19.0467 349.246 19.5337 349.246 20.0981V26H347.702V20.0815C347.702 19.578 347.621 19.1878 347.461 18.9111C347.306 18.6289 347.085 18.4325 346.797 18.3218C346.515 18.2056 346.177 18.1475 345.784 18.1475C345.447 18.1475 345.148 18.2056 344.888 18.3218C344.628 18.438 344.409 18.5985 344.232 18.8032C344.055 19.0024 343.919 19.2321 343.825 19.4922C343.737 19.7523 343.692 20.029 343.692 20.3223Z" fill="#333333"/>
<a href="https://example.com">
<rect fill="black" fill-opacity="0" y="0.0390625" width="157.399" height="19.9219"/>
</a>
<line x1="182.5" y1="10" x2="182.5" y2="29" stroke="#11EE11"/>
<path d="M45.0811 24.6968V26H38.6812V24.6968H45.0811ZM39.0049 13.9141V26H37.4028V13.9141H39.0049ZM44.2344 19.1104V20.4136H38.6812V19.1104H44.2344ZM44.998 13.9141V15.2256H38.6812V13.9141H44.998ZM47.8701 17.0186L49.8374 20.2891L51.8296 17.0186H53.6309L50.6924 21.4512L53.7222 26H51.9458L49.8706 22.6299L47.7954 26H46.0107L49.0322 21.4512L46.1021 17.0186H47.8701ZM60.562 24.4644V19.8408C60.562 19.4867 60.4901 19.1795 60.3462 18.9194C60.2078 18.6538 59.9976 18.4491 59.7153 18.3052C59.4331 18.1613 59.0845 18.0894 58.6694 18.0894C58.2821 18.0894 57.9417 18.1558 57.6484 18.2886C57.3607 18.4214 57.1338 18.5957 56.9678 18.8115C56.8073 19.0273 56.7271 19.2598 56.7271 19.5088H55.1914C55.1914 19.1878 55.2744 18.8696 55.4404 18.5542C55.6064 18.2388 55.8444 17.9538 56.1543 17.6992C56.4697 17.4391 56.846 17.2344 57.2832 17.085C57.7259 16.93 58.2184 16.8525 58.7607 16.8525C59.4137 16.8525 59.9893 16.9632 60.4873 17.1846C60.9909 17.4059 61.3838 17.7407 61.666 18.189C61.9538 18.6317 62.0977 19.1878 62.0977 19.8574V24.041C62.0977 24.3398 62.1226 24.658 62.1724 24.9956C62.2277 25.3332 62.3079 25.6237 62.4131 25.8672V26H60.811C60.7336 25.8229 60.6727 25.5877 60.6284 25.2944C60.5841 24.9956 60.562 24.7189 60.562 24.4644ZM60.8276 20.5547L60.8442 21.6338H59.292C58.8548 21.6338 58.4647 21.6698 58.1216 21.7417C57.7785 21.8081 57.4907 21.9105 57.2583 22.0488C57.0259 22.1872 56.8488 22.3615 56.7271 22.5718C56.6053 22.7765 56.5444 23.0173 56.5444 23.2939C56.5444 23.5762 56.6081 23.8335 56.7354 24.0659C56.8626 24.2983 57.0535 24.4837 57.3081 24.6221C57.5682 24.7549 57.8864 24.8213 58.2627 24.8213C58.7331 24.8213 59.1481 24.7217 59.5078 24.5225C59.8675 24.3232 60.1525 24.0798 60.3628 23.792C60.5786 23.5042 60.6948 23.2248 60.7114 22.9536L61.3672 23.6924C61.3285 23.9248 61.2233 24.1821 61.0518 24.4644C60.8802 24.7466 60.6506 25.0177 60.3628 25.2778C60.0806 25.5324 59.743 25.7454 59.3501 25.917C58.9627 26.083 58.5256 26.166 58.0386 26.166C57.4299 26.166 56.8958 26.047 56.4365 25.8091C55.9827 25.5711 55.6286 25.2529 55.374 24.8545C55.125 24.4505 55.0005 23.9995 55.0005 23.5015C55.0005 23.02 55.0946 22.5967 55.2827 22.2314C55.4709 21.8607 55.742 21.5535 56.0962 21.3101C56.4504 21.061 56.8765 20.8729 57.3745 20.7456C57.8726 20.6183 58.4287 20.5547 59.043 20.5547H60.8276ZM66.0405 18.8032V26H64.4966V17.0186H65.9575L66.0405 18.8032ZM65.7251 21.1689L65.0112 21.144C65.0168 20.5298 65.097 19.9626 65.252 19.4424C65.4069 18.9167 65.6366 18.4601 65.9409 18.0728C66.2453 17.6854 66.6243 17.3866 67.0781 17.1763C67.5319 16.9604 68.0576 16.8525 68.6553 16.8525C69.0758 16.8525 69.4632 16.9134 69.8174 17.0352C70.1715 17.1514 70.4787 17.3368 70.7388 17.5913C70.9989 17.8459 71.2008 18.1724 71.3447 18.5708C71.4886 18.9692 71.5605 19.4507 71.5605 20.0151V26H70.0249V20.0898C70.0249 19.6195 69.9447 19.2432 69.7842 18.9609C69.6292 18.6787 69.4079 18.474 69.1201 18.3467C68.8324 18.2139 68.4948 18.1475 68.1074 18.1475C67.6536 18.1475 67.2746 18.2277 66.9702 18.3882C66.6659 18.5487 66.4224 18.77 66.2397 19.0522C66.0571 19.3345 65.9243 19.6582 65.8413 20.0234C65.7638 20.3831 65.7251 20.765 65.7251 21.1689ZM71.5439 20.3223L70.5146 20.6377C70.5202 20.1452 70.6004 19.672 70.7554 19.2183C70.9159 18.7645 71.1455 18.3605 71.4443 18.0063C71.7487 17.6522 72.1222 17.3727 72.5649 17.168C73.0076 16.9577 73.514 16.8525 74.084 16.8525C74.5654 16.8525 74.9915 16.9162 75.3623 17.0435C75.7386 17.1707 76.054 17.3672 76.3086 17.6328C76.5687 17.8929 76.7651 18.2277 76.8979 18.6372C77.0308 19.0467 77.0972 19.5337 77.0972 20.0981V26H75.5532V20.0815C75.5532 19.578 75.473 19.1878 75.3125 18.9111C75.1576 18.6289 74.9362 18.4325 74.6484 18.3218C74.3662 18.2056 74.0286 18.1475 73.6357 18.1475C73.2982 18.1475 72.9993 18.2056 72.7393 18.3218C72.4792 18.438 72.2606 18.5985 72.0835 18.8032C71.9064 19.0024 71.7708 19.2321 71.6768 19.4922C71.5882 19.7523 71.5439 20.029 71.5439 20.3223ZM80.957 18.7451V29.4531H79.4131V17.0186H80.8242L80.957 18.7451ZM87.0083 21.4346V21.6089C87.0083 22.2619 86.9308 22.8678 86.7759 23.4268C86.6209 23.9801 86.394 24.4616 86.0952 24.8711C85.8019 25.2806 85.4395 25.5988 85.0078 25.8257C84.5762 26.0526 84.0809 26.166 83.522 26.166C82.952 26.166 82.4484 26.0719 82.0112 25.8838C81.5741 25.6956 81.2033 25.4217 80.8989 25.062C80.5946 24.7023 80.3511 24.2707 80.1685 23.7671C79.9914 23.2635 79.8696 22.6963 79.8032 22.0654V21.1357C79.8696 20.4717 79.9941 19.8768 80.1768 19.3511C80.3594 18.8254 80.6001 18.3771 80.8989 18.0063C81.2033 17.63 81.5713 17.3451 82.0029 17.1514C82.4346 16.9521 82.9326 16.8525 83.4971 16.8525C84.0615 16.8525 84.5623 16.9632 84.9995 17.1846C85.4367 17.4004 85.8047 17.7103 86.1035 18.1143C86.4023 18.5182 86.6265 19.0024 86.7759 19.5669C86.9308 20.1258 87.0083 20.7484 87.0083 21.4346ZM85.4644 21.6089V21.4346C85.4644 20.9863 85.4173 20.5658 85.3232 20.1729C85.2292 19.7744 85.0825 19.4258 84.8833 19.127C84.6896 18.8226 84.4406 18.5846 84.1362 18.4131C83.8319 18.236 83.4694 18.1475 83.0488 18.1475C82.6615 18.1475 82.3239 18.2139 82.0361 18.3467C81.7539 18.4795 81.5132 18.6593 81.314 18.8862C81.1147 19.1076 80.9515 19.3621 80.8242 19.6499C80.7025 19.9321 80.6112 20.2254 80.5503 20.5298V22.6797C80.661 23.0671 80.8159 23.4323 81.0151 23.7754C81.2144 24.113 81.48 24.3869 81.812 24.5972C82.144 24.8019 82.5618 24.9043 83.0654 24.9043C83.4805 24.9043 83.8374 24.8185 84.1362 24.647C84.4406 24.4699 84.6896 24.2292 84.8833 23.9248C85.0825 23.6204 85.2292 23.2718 85.3232 22.8789C85.4173 22.4805 85.4644 22.0571 85.4644 21.6089ZM90.6357 13.25V26H89.0918V13.25H90.6357ZM96.8281 26.166C96.2028 26.166 95.6356 26.0609 95.1265 25.8506C94.6229 25.6348 94.1885 25.3332 93.8232 24.9458C93.4635 24.5584 93.1868 24.0991 92.9932 23.5679C92.7995 23.0366 92.7026 22.4556 92.7026 21.8247V21.4761C92.7026 20.7456 92.8105 20.0954 93.0264 19.5254C93.2422 18.9499 93.5355 18.4629 93.9062 18.0645C94.277 17.666 94.6976 17.3644 95.168 17.1597C95.6383 16.9549 96.1253 16.8525 96.6289 16.8525C97.2708 16.8525 97.8242 16.9632 98.2891 17.1846C98.7594 17.4059 99.144 17.7158 99.4429 18.1143C99.7417 18.5072 99.9631 18.972 100.107 19.5088C100.251 20.04 100.323 20.6211 100.323 21.252V21.9409H93.6157V20.6875H98.7871V20.5713C98.765 20.1729 98.682 19.7855 98.5381 19.4092C98.3997 19.0329 98.1784 18.723 97.874 18.4795C97.5697 18.236 97.1546 18.1143 96.6289 18.1143C96.2803 18.1143 95.9593 18.189 95.666 18.3384C95.3727 18.4823 95.1209 18.6981 94.9106 18.9858C94.7004 19.2736 94.5371 19.625 94.4209 20.04C94.3047 20.4551 94.2466 20.9338 94.2466 21.4761V21.8247C94.2466 22.2508 94.3047 22.652 94.4209 23.0283C94.5426 23.3991 94.717 23.7256 94.9438 24.0078C95.1763 24.29 95.4557 24.5114 95.7822 24.6719C96.1143 24.8324 96.4906 24.9126 96.9111 24.9126C97.4535 24.9126 97.9128 24.8019 98.2891 24.5806C98.6654 24.3592 98.9946 24.0632 99.2769 23.6924L100.207 24.4312C100.013 24.7244 99.7666 25.0039 99.4678 25.2695C99.1689 25.5352 98.8009 25.751 98.3638 25.917C97.9321 26.083 97.4202 26.166 96.8281 26.166ZM103.51 24.1738V25.4106C103.51 25.9142 103.383 26.4455 103.128 27.0044C102.874 27.5688 102.517 28.0392 102.058 28.4155L101.186 27.8096C101.363 27.5661 101.513 27.3171 101.634 27.0625C101.756 26.8135 101.847 26.5534 101.908 26.2822C101.975 26.0166 102.008 25.7344 102.008 25.4355V24.1738H103.51ZM111.637 13.9141V26H110.035V13.9141H111.637ZM115.854 18.936V26H114.318V17.0186H115.771L115.854 18.936ZM115.488 21.1689L114.849 21.144C114.855 20.5298 114.946 19.9626 115.123 19.4424C115.3 18.9167 115.549 18.4601 115.87 18.0728C116.191 17.6854 116.573 17.3866 117.016 17.1763C117.464 16.9604 117.959 16.8525 118.501 16.8525C118.944 16.8525 119.343 16.9134 119.697 17.0352C120.051 17.1514 120.353 17.3395 120.602 17.5996C120.856 17.8597 121.05 18.1973 121.183 18.6123C121.315 19.0218 121.382 19.5226 121.382 20.1147V26H119.838V20.0981C119.838 19.6278 119.769 19.2515 119.63 18.9692C119.492 18.6815 119.29 18.474 119.024 18.3467C118.759 18.2139 118.432 18.1475 118.045 18.1475C117.663 18.1475 117.314 18.2277 116.999 18.3882C116.689 18.5487 116.421 18.77 116.194 19.0522C115.972 19.3345 115.798 19.6582 115.671 20.0234C115.549 20.3831 115.488 20.765 115.488 21.1689ZM127.309 24.9043C127.674 24.9043 128.011 24.8296 128.321 24.6802C128.631 24.5308 128.886 24.326 129.085 24.0659C129.284 23.8003 129.398 23.4987 129.425 23.1611H130.886C130.859 23.6924 130.679 24.1877 130.347 24.647C130.02 25.1007 129.591 25.4688 129.06 25.751C128.529 26.0277 127.945 26.166 127.309 26.166C126.633 26.166 126.044 26.047 125.541 25.8091C125.042 25.5711 124.627 25.2446 124.295 24.8296C123.969 24.4146 123.723 23.9386 123.557 23.4019C123.396 22.8595 123.316 22.2868 123.316 21.6836V21.335C123.316 20.7318 123.396 20.1618 123.557 19.625C123.723 19.0827 123.969 18.604 124.295 18.189C124.627 17.7739 125.042 17.4474 125.541 17.2095C126.044 16.9715 126.633 16.8525 127.309 16.8525C128.011 16.8525 128.626 16.9964 129.151 17.2842C129.677 17.5664 130.089 17.9538 130.388 18.4463C130.693 18.9333 130.859 19.4867 130.886 20.1064H129.425C129.398 19.7357 129.292 19.4009 129.11 19.1021C128.933 18.8032 128.689 18.5653 128.379 18.3882C128.075 18.2056 127.718 18.1143 127.309 18.1143C126.838 18.1143 126.443 18.2083 126.122 18.3965C125.806 18.5791 125.554 18.8281 125.366 19.1436C125.184 19.4535 125.051 19.7993 124.968 20.1812C124.89 20.5575 124.852 20.9421 124.852 21.335V21.6836C124.852 22.0765 124.89 22.4639 124.968 22.8457C125.045 23.2275 125.175 23.5734 125.358 23.8833C125.546 24.1932 125.798 24.4422 126.113 24.6304C126.434 24.813 126.833 24.9043 127.309 24.9043ZM132.638 25.1865C132.638 24.9264 132.718 24.7078 132.878 24.5308C133.044 24.3481 133.282 24.2568 133.592 24.2568C133.902 24.2568 134.137 24.3481 134.298 24.5308C134.464 24.7078 134.547 24.9264 134.547 25.1865C134.547 25.4411 134.464 25.6569 134.298 25.834C134.137 26.0111 133.902 26.0996 133.592 26.0996C133.282 26.0996 133.044 26.0111 132.878 25.834C132.718 25.6569 132.638 25.4411 132.638 25.1865ZM141.254 21.1689V21.0859C141.254 19.8796 141.389 18.7894 141.661 17.8154C141.932 16.8359 142.278 15.9782 142.698 15.2422C143.119 14.5062 143.562 13.8975 144.026 13.416C144.491 12.929 144.92 12.5776 145.313 12.3618L145.637 13.3745C145.31 13.6235 144.978 13.9666 144.641 14.4038C144.309 14.841 144.001 15.3778 143.719 16.0142C143.443 16.6506 143.218 17.3893 143.047 18.2305C142.875 19.0716 142.79 20.0179 142.79 21.0693V21.1855C142.79 22.237 142.875 23.186 143.047 24.0327C143.218 24.8739 143.443 25.6154 143.719 26.2573C144.001 26.8993 144.309 27.4443 144.641 27.8926C144.978 28.3464 145.31 28.7061 145.637 28.9717L145.313 29.9014C144.92 29.6855 144.491 29.3341 144.026 28.8472C143.562 28.3657 143.119 27.757 142.698 27.021C142.278 26.2905 141.932 25.4355 141.661 24.4561C141.389 23.4766 141.254 22.3809 141.254 21.1689ZM154.286 13.9141H155.88V22.0903C155.88 22.9979 155.678 23.7533 155.274 24.3564C154.87 24.9596 154.333 25.4134 153.664 25.7178C153 26.0166 152.277 26.166 151.497 26.166C150.678 26.166 149.937 26.0166 149.272 25.7178C148.614 25.4134 148.091 24.9596 147.704 24.3564C147.322 23.7533 147.131 22.9979 147.131 22.0903V13.9141H148.716V22.0903C148.716 22.7212 148.833 23.2414 149.065 23.6509C149.297 24.0604 149.621 24.3647 150.036 24.564C150.457 24.7632 150.944 24.8628 151.497 24.8628C152.056 24.8628 152.543 24.7632 152.958 24.564C153.379 24.3647 153.705 24.0604 153.938 23.6509C154.17 23.2414 154.286 22.7212 154.286 22.0903V13.9141ZM164.836 22.9453C164.836 22.6631 164.792 22.4141 164.704 22.1982C164.621 21.9769 164.471 21.7777 164.255 21.6006C164.045 21.4235 163.752 21.2547 163.375 21.0942C163.005 20.9338 162.534 20.7705 161.964 20.6045C161.367 20.4274 160.827 20.231 160.346 20.0151C159.864 19.7938 159.452 19.542 159.109 19.2598C158.766 18.9775 158.503 18.6538 158.32 18.2886C158.138 17.9233 158.046 17.5055 158.046 17.0352C158.046 16.5648 158.143 16.1304 158.337 15.7319C158.531 15.3335 158.807 14.9876 159.167 14.6943C159.532 14.3955 159.967 14.1631 160.47 13.9971C160.974 13.8311 161.535 13.748 162.155 13.748C163.063 13.748 163.832 13.9224 164.463 14.271C165.099 14.6141 165.583 15.0651 165.916 15.624C166.248 16.1774 166.414 16.7695 166.414 17.4004H164.82C164.82 16.9466 164.723 16.5454 164.529 16.1968C164.336 15.8426 164.042 15.5659 163.649 15.3667C163.257 15.1619 162.758 15.0596 162.155 15.0596C161.585 15.0596 161.115 15.1453 160.744 15.3169C160.373 15.4884 160.097 15.7209 159.914 16.0142C159.737 16.3075 159.648 16.6423 159.648 17.0186C159.648 17.2731 159.701 17.5055 159.806 17.7158C159.917 17.9206 160.086 18.1115 160.312 18.2886C160.545 18.4657 160.838 18.6289 161.192 18.7783C161.552 18.9277 161.981 19.0716 162.479 19.21C163.165 19.4036 163.757 19.6195 164.255 19.8574C164.753 20.0954 165.163 20.3638 165.484 20.6626C165.81 20.9559 166.051 21.2907 166.206 21.667C166.367 22.0378 166.447 22.4583 166.447 22.9287C166.447 23.4212 166.347 23.8667 166.148 24.2651C165.949 24.6636 165.664 25.0039 165.293 25.2861C164.922 25.5684 164.477 25.7869 163.957 25.9419C163.442 26.0913 162.866 26.166 162.23 26.166C161.671 26.166 161.12 26.0885 160.578 25.9336C160.041 25.7786 159.552 25.5462 159.109 25.2363C158.672 24.9264 158.32 24.5446 158.055 24.0908C157.795 23.6315 157.665 23.1003 157.665 22.4971H159.258C159.258 22.9121 159.339 23.269 159.499 23.5679C159.66 23.8612 159.878 24.1047 160.155 24.2983C160.437 24.492 160.755 24.6359 161.109 24.73C161.469 24.8185 161.843 24.8628 162.23 24.8628C162.789 24.8628 163.262 24.7853 163.649 24.6304C164.037 24.4754 164.33 24.2541 164.529 23.9663C164.734 23.6785 164.836 23.3382 164.836 22.9453ZM171.792 21.0859V21.1689C171.792 22.3809 171.657 23.4766 171.386 24.4561C171.115 25.4355 170.769 26.2905 170.348 27.021C169.928 27.757 169.485 28.3657 169.02 28.8472C168.555 29.3341 168.126 29.6855 167.733 29.9014L167.41 28.9717C167.736 28.7227 168.065 28.374 168.397 27.9258C168.729 27.4831 169.037 26.9352 169.319 26.2822C169.601 25.6348 169.828 24.8877 170 24.041C170.171 23.1888 170.257 22.237 170.257 21.1855V21.0693C170.257 20.0179 170.166 19.0688 169.983 18.2222C169.8 17.37 169.562 16.6201 169.269 15.9727C168.981 15.3252 168.671 14.7801 168.339 14.3374C168.013 13.8892 167.703 13.5433 167.41 13.2998L167.733 12.3618C168.126 12.5776 168.555 12.929 169.02 13.416C169.485 13.8975 169.928 14.5062 170.348 15.2422C170.769 15.9782 171.115 16.8359 171.386 17.8154C171.657 18.7894 171.792 19.8796 171.792 21.0859Z" fill="#11EE11"/>
<path d="M10 15.68C10 14.2882 11.0233 13.16 12.2857 13.16H23.7143C24.9767 13.16 26 14.2882 26 15.68V25.48C26 26.8718 24.9767 28 23.7143 28H12.2857C11.0233 28 10 26.8718 10 25.48V15.68Z" fill="#11EE11"/>
<path fill-rule="evenodd" clip-rule="evenodd" d="M17.873 13.16C20.1172 13.16 20.0317 13.16 21.9365 13.16C21.9365 10.6858 20.1172 8.68 17.873 8.68C15.6288 8.68 13.8095 10.6858 13.8095 13.16C15.5873 13.16 15.6288 13.16 17.873 13.16ZM17.873 13.16C20.9588 13.16 20.2857 13.16 23.4603 13.16C23.4603 9.75793 20.9588 7 17.873 7C14.7872 7 12.2857 9.75793 12.2857 13.16C15.5873 13.16 14.7872 13.16 17.873 13.16Z" fill="#11EE11"/>
</svg>
