<svg width="380" height="37" viewBox="0 0 380 37" fill="none" xmlns="http://www.w3.org/2000/svg">
<rect x="0.5" y="0.5" width="379" height="36" rx="3.5" fill="white" stroke="#AAAAAA"/>
<path d="M139.706 12.25V25H138.17V12.25H139.706ZM139.341 20.1689L138.702 20.144C138.707 19.5298 138.799 18.9626 138.976 18.4424C139.153 17.9167 139.402 17.4601 139.723 17.0728C140.044 16.6854 140.425 16.3866 140.868 16.1763C141.316 15.9604 141.812 15.8525 142.354 15.8525C142.797 15.8525 143.195 15.9134 143.549 16.0352C143.903 16.1514 144.205 16.3395 144.454 16.5996C144.709 16.8597 144.902 17.1973 145.035 17.6123C145.168 18.0218 145.234 18.5226 145.234 19.1147V25H143.69V19.0981C143.69 18.6278 143.621 18.2515 143.483 17.9692C143.345 17.6815 143.143 17.474 142.877 17.3467C142.611 17.2139 142.285 17.1475 141.897 17.1475C141.516 17.1475 141.167 17.2277 140.852 17.3882C140.542 17.5487 140.273 17.77 140.046 18.0522C139.825 18.3345 139.651 18.6582 139.523 19.0234C139.402 19.3831 139.341 19.765 139.341 20.1689ZM151.294 16.0186V17.1973H146.438V16.0186H151.294ZM148.082 13.8354H149.617V22.7754C149.617 23.0798 149.664 23.3094 149.758 23.4644C149.852 23.6193 149.974 23.7217 150.124 23.7715C150.273 23.8213 150.433 23.8462 150.605 23.8462C150.732 23.8462 150.865 23.8351 151.003 23.813C151.147 23.7853 151.255 23.7632 151.327 23.7466L151.335 25C151.214 25.0387 151.053 25.0747 150.854 25.1079C150.66 25.1466 150.425 25.166 150.148 25.166C149.772 25.166 149.426 25.0913 149.111 24.9419C148.795 24.7925 148.544 24.5435 148.355 24.1948C148.173 23.8407 148.082 23.3647 148.082 22.7671V13.8354ZM156.855 16.0186V17.1973H152V16.0186H156.855ZM153.643 13.8354H155.179V22.7754C155.179 23.0798 155.226 23.3094 155.32 23.4644C155.414 23.6193 155.536 23.7217 155.685 23.7715C155.834 23.8213 155.995 23.8462 156.167 23.8462C156.294 23.8462 156.427 23.8351 156.565 23.813C156.709 23.7853 156.817 23.7632 156.889 23.7466L156.897 25C156.775 25.0387 156.615 25.0747 156.416 25.1079C156.222 25.1466 155.987 25.166 155.71 25.166C155.334 25.166 154.988 25.0913 154.672 24.9419C154.357 24.7925 154.105 24.5435 153.917 24.1948C153.734 23.8407 153.643 23.3647 153.643 22.7671V13.8354ZM160.192 17.7451V28.4531H158.648V16.0186H160.06L160.192 17.7451ZM166.244 20.4346V20.6089C166.244 21.2619 166.166 21.8678 166.011 22.4268C165.856 22.9801 165.629 23.4616 165.331 23.8711C165.037 24.2806 164.675 24.5988 164.243 24.8257C163.812 25.0526 163.316 25.166 162.757 25.166C162.187 25.166 161.684 25.0719 161.247 24.8838C160.809 24.6956 160.439 24.4217 160.134 24.062C159.83 23.7023 159.586 23.2707 159.404 22.7671C159.227 22.2635 159.105 21.6963 159.039 21.0654V20.1357C159.105 19.4717 159.229 18.8768 159.412 18.3511C159.595 17.8254 159.835 17.3771 160.134 17.0063C160.439 16.63 160.807 16.3451 161.238 16.1514C161.67 15.9521 162.168 15.8525 162.732 15.8525C163.297 15.8525 163.798 15.9632 164.235 16.1846C164.672 16.4004 165.04 16.7103 165.339 17.1143C165.638 17.5182 165.862 18.0024 166.011 18.5669C166.166 19.1258 166.244 19.7484 166.244 20.4346ZM164.7 20.6089V20.4346C164.7 19.9863 164.653 19.5658 164.559 19.1729C164.465 18.7744 164.318 18.4258 164.119 18.127C163.925 17.8226 163.676 17.5846 163.372 17.4131C163.067 17.236 162.705 17.1475 162.284 17.1475C161.897 17.1475 161.559 17.2139 161.271 17.3467C160.989 17.4795 160.749 17.6593 160.549 17.8862C160.35 18.1076 160.187 18.3621 160.06 18.6499C159.938 18.9321 159.847 19.2254 159.786 19.5298V21.6797C159.896 22.0671 160.051 22.4323 160.25 22.7754C160.45 23.113 160.715 23.3869 161.047 23.5972C161.379 23.8019 161.797 23.9043 162.301 23.9043C162.716 23.9043 163.073 23.8185 163.372 23.647C163.676 23.4699 163.925 23.2292 164.119 22.9248C164.318 22.6204 164.465 22.2718 164.559 21.8789C164.653 21.4805 164.7 21.0571 164.7 20.6089ZM173.432 22.6177C173.432 22.3963 173.382 22.1916 173.283 22.0034C173.189 21.8097 172.992 21.6354 172.693 21.4805C172.4 21.32 171.957 21.1816 171.365 21.0654C170.867 20.9603 170.416 20.8358 170.012 20.6919C169.614 20.548 169.273 20.3737 168.991 20.1689C168.715 19.9642 168.501 19.7235 168.352 19.4468C168.203 19.1701 168.128 18.8464 168.128 18.4756C168.128 18.1214 168.205 17.7866 168.36 17.4712C168.521 17.1558 168.745 16.8763 169.033 16.6328C169.326 16.3893 169.677 16.1984 170.087 16.0601C170.496 15.9217 170.953 15.8525 171.457 15.8525C172.176 15.8525 172.79 15.9798 173.299 16.2344C173.808 16.4889 174.199 16.8293 174.47 17.2554C174.741 17.6759 174.876 18.1436 174.876 18.6582H173.341C173.341 18.4092 173.266 18.1685 173.117 17.936C172.973 17.6981 172.76 17.5016 172.478 17.3467C172.201 17.1917 171.861 17.1143 171.457 17.1143C171.03 17.1143 170.685 17.1807 170.419 17.3135C170.159 17.4408 169.968 17.604 169.846 17.8032C169.73 18.0024 169.672 18.2127 169.672 18.4341C169.672 18.6001 169.7 18.7495 169.755 18.8823C169.816 19.0096 169.921 19.1286 170.07 19.2393C170.22 19.3444 170.43 19.444 170.701 19.5381C170.972 19.6322 171.318 19.7262 171.739 19.8203C172.475 19.9863 173.081 20.1855 173.557 20.418C174.033 20.6504 174.387 20.9354 174.619 21.2729C174.852 21.6105 174.968 22.02 174.968 22.5015C174.968 22.8944 174.885 23.2541 174.719 23.5806C174.558 23.9071 174.323 24.1893 174.013 24.4272C173.709 24.6597 173.344 24.8423 172.917 24.9751C172.497 25.1024 172.024 25.166 171.498 25.166C170.707 25.166 170.037 25.0249 169.489 24.7427C168.941 24.4604 168.526 24.0952 168.244 23.647C167.962 23.1987 167.821 22.7256 167.821 22.2275H169.365C169.387 22.6481 169.509 22.9829 169.73 23.2319C169.951 23.4754 170.222 23.6497 170.543 23.7549C170.864 23.8545 171.183 23.9043 171.498 23.9043C171.919 23.9043 172.27 23.849 172.552 23.7383C172.84 23.6276 173.059 23.4754 173.208 23.2817C173.357 23.0881 173.432 22.8667 173.432 22.6177ZM176.918 24.1865C176.918 23.9264 176.999 23.7078 177.159 23.5308C177.325 23.3481 177.563 23.2568 177.873 23.2568C178.183 23.2568 178.418 23.3481 178.579 23.5308C178.745 23.7078 178.828 23.9264 178.828 24.1865C178.828 24.4411 178.745 24.6569 178.579 24.834C178.418 25.0111 178.183 25.0996 177.873 25.0996C177.563 25.0996 177.325 25.0111 177.159 24.834C176.999 24.6569 176.918 24.4411 176.918 24.1865ZM176.927 16.8569C176.927 16.5968 177.007 16.3783 177.167 16.2012C177.333 16.0186 177.571 15.9272 177.881 15.9272C178.191 15.9272 178.426 16.0186 178.587 16.2012C178.753 16.3783 178.836 16.5968 178.836 16.8569C178.836 17.1115 178.753 17.3273 178.587 17.5044C178.426 17.6815 178.191 17.77 177.881 17.77C177.571 17.77 177.333 17.6815 177.167 17.5044C177.007 17.3273 176.927 17.1115 176.927 16.8569ZM186.448 12.9141L181.409 26.0376H180.089L185.136 12.9141H186.448ZM191.611 12.9141L186.572 26.0376H185.252L190.299 12.9141H191.611ZM197.015 25.166C196.389 25.166 195.822 25.0609 195.313 24.8506C194.809 24.6348 194.375 24.3332 194.01 23.9458C193.65 23.5584 193.373 23.0991 193.18 22.5679C192.986 22.0366 192.889 21.4556 192.889 20.8247V20.4761C192.889 19.7456 192.997 19.0954 193.213 18.5254C193.429 17.9499 193.722 17.4629 194.093 17.0645C194.464 16.666 194.884 16.3644 195.354 16.1597C195.825 15.9549 196.312 15.8525 196.815 15.8525C197.457 15.8525 198.011 15.9632 198.476 16.1846C198.946 16.4059 199.331 16.7158 199.629 17.1143C199.928 17.5072 200.15 17.972 200.293 18.5088C200.437 19.04 200.509 19.6211 200.509 20.252V20.9409H193.802V19.6875H198.974V19.5713C198.951 19.1729 198.868 18.7855 198.725 18.4092C198.586 18.0329 198.365 17.723 198.061 17.4795C197.756 17.236 197.341 17.1143 196.815 17.1143C196.467 17.1143 196.146 17.189 195.853 17.3384C195.559 17.4823 195.307 17.6981 195.097 17.9858C194.887 18.2736 194.724 18.625 194.607 19.04C194.491 19.4551 194.433 19.9338 194.433 20.4761V20.8247C194.433 21.2508 194.491 21.652 194.607 22.0283C194.729 22.3991 194.903 22.7256 195.13 23.0078C195.363 23.29 195.642 23.5114 195.969 23.6719C196.301 23.8324 196.677 23.9126 197.098 23.9126C197.64 23.9126 198.099 23.8019 198.476 23.5806C198.852 23.3592 199.181 23.0632 199.463 22.6924L200.393 23.4312C200.199 23.7244 199.953 24.0039 199.654 24.2695C199.355 24.5352 198.987 24.751 198.55 24.917C198.119 25.083 197.607 25.166 197.015 25.166ZM203.34 16.0186L205.307 19.2891L207.299 16.0186H209.101L206.162 20.4512L209.192 25H207.416L205.34 21.6299L203.265 25H201.48L204.502 20.4512L201.572 16.0186H203.34ZM216.032 23.4644V18.8408C216.032 18.4867 215.96 18.1795 215.816 17.9194C215.678 17.6538 215.467 17.4491 215.185 17.3052C214.903 17.1613 214.554 17.0894 214.139 17.0894C213.752 17.0894 213.411 17.1558 213.118 17.2886C212.83 17.4214 212.604 17.5957 212.438 17.8115C212.277 18.0273 212.197 18.2598 212.197 18.5088H210.661C210.661 18.1878 210.744 17.8696 210.91 17.5542C211.076 17.2388 211.314 16.9538 211.624 16.6992C211.939 16.4391 212.316 16.2344 212.753 16.085C213.196 15.93 213.688 15.8525 214.23 15.8525C214.883 15.8525 215.459 15.9632 215.957 16.1846C216.461 16.4059 216.854 16.7407 217.136 17.189C217.424 17.6317 217.567 18.1878 217.567 18.8574V23.041C217.567 23.3398 217.592 23.658 217.642 23.9956C217.697 24.3332 217.778 24.6237 217.883 24.8672V25H216.281C216.203 24.8229 216.142 24.5877 216.098 24.2944C216.054 23.9956 216.032 23.7189 216.032 23.4644ZM216.297 19.5547L216.314 20.6338H214.762C214.325 20.6338 213.934 20.6698 213.591 20.7417C213.248 20.8081 212.96 20.9105 212.728 21.0488C212.496 21.1872 212.319 21.3615 212.197 21.5718C212.075 21.7765 212.014 22.0173 212.014 22.2939C212.014 22.5762 212.078 22.8335 212.205 23.0659C212.332 23.2983 212.523 23.4837 212.778 23.6221C213.038 23.7549 213.356 23.8213 213.732 23.8213C214.203 23.8213 214.618 23.7217 214.978 23.5225C215.337 23.3232 215.622 23.0798 215.833 22.792C216.048 22.5042 216.165 22.2248 216.181 21.9536L216.837 22.6924C216.798 22.9248 216.693 23.1821 216.521 23.4644C216.35 23.7466 216.12 24.0177 215.833 24.2778C215.55 24.5324 215.213 24.7454 214.82 24.917C214.432 25.083 213.995 25.166 213.508 25.166C212.9 25.166 212.366 25.047 211.906 24.8091C211.452 24.5711 211.098 24.2529 210.844 23.8545C210.595 23.4505 210.47 22.9995 210.47 22.5015C210.47 22.02 210.564 21.5967 210.752 21.2314C210.941 20.8607 211.212 20.5535 211.566 20.3101C211.92 20.061 212.346 19.8729 212.844 19.7456C213.342 19.6183 213.898 19.5547 214.513 19.5547H216.297ZM221.51 17.8032V25H219.966V16.0186H221.427L221.51 17.8032ZM221.195 20.1689L220.481 20.144C220.486 19.5298 220.567 18.9626 220.722 18.4424C220.877 17.9167 221.106 17.4601 221.411 17.0728C221.715 16.6854 222.094 16.3866 222.548 16.1763C223.002 15.9604 223.527 15.8525 224.125 15.8525C224.546 15.8525 224.933 15.9134 225.287 16.0352C225.641 16.1514 225.948 16.3368 226.208 16.5913C226.469 16.8459 226.671 17.1724 226.814 17.5708C226.958 17.9692 227.03 18.4507 227.03 19.0151V25H225.495V19.0898C225.495 18.6195 225.414 18.2432 225.254 17.9609C225.099 17.6787 224.878 17.474 224.59 17.3467C224.302 17.2139 223.965 17.1475 223.577 17.1475C223.123 17.1475 222.744 17.2277 222.44 17.3882C222.136 17.5487 221.892 17.77 221.709 18.0522C221.527 18.3345 221.394 18.6582 221.311 19.0234C221.234 19.3831 221.195 19.765 221.195 20.1689ZM227.014 19.3223L225.984 19.6377C225.99 19.1452 226.07 18.672 226.225 18.2183C226.386 17.7645 226.615 17.3605 226.914 17.0063C227.218 16.6522 227.592 16.3727 228.035 16.168C228.477 15.9577 228.984 15.8525 229.554 15.8525C230.035 15.8525 230.461 15.9162 230.832 16.0435C231.208 16.1707 231.524 16.3672 231.778 16.6328C232.038 16.8929 232.235 17.2277 232.368 17.6372C232.5 18.0467 232.567 18.5337 232.567 19.0981V25H231.023V19.0815C231.023 18.578 230.943 18.1878 230.782 17.9111C230.627 17.6289 230.406 17.4325 230.118 17.3218C229.836 17.2056 229.498 17.1475 229.105 17.1475C228.768 17.1475 228.469 17.2056 228.209 17.3218C227.949 17.438 227.73 17.5985 227.553 17.8032C227.376 18.0024 227.241 18.2321 227.146 18.4922C227.058 18.7523 227.014 19.029 227.014 19.3223ZM236.427 17.7451V28.4531H234.883V16.0186H236.294L236.427 17.7451ZM242.478 20.4346V20.6089C242.478 21.2619 242.401 21.8678 242.246 22.4268C242.091 22.9801 241.864 23.4616 241.565 23.8711C241.272 24.2806 240.909 24.5988 240.478 24.8257C240.046 25.0526 239.551 25.166 238.992 25.166C238.422 25.166 237.918 25.0719 237.481 24.8838C237.044 24.6956 236.673 24.4217 236.369 24.062C236.064 23.7023 235.821 23.2707 235.638 22.7671C235.461 22.2635 235.339 21.6963 235.273 21.0654V20.1357C235.339 19.4717 235.464 18.8768 235.646 18.3511C235.829 17.8254 236.07 17.3771 236.369 17.0063C236.673 16.63 237.041 16.3451 237.473 16.1514C237.904 15.9521 238.402 15.8525 238.967 15.8525C239.531 15.8525 240.032 15.9632 240.469 16.1846C240.906 16.4004 241.274 16.7103 241.573 17.1143C241.872 17.5182 242.096 18.0024 242.246 18.5669C242.401 19.1258 242.478 19.7484 242.478 20.4346ZM240.934 20.6089V20.4346C240.934 19.9863 240.887 19.5658 240.793 19.1729C240.699 18.7744 240.552 18.4258 240.353 18.127C240.159 17.8226 239.91 17.5846 239.606 17.4131C239.302 17.236 238.939 17.1475 238.519 17.1475C238.131 17.1475 237.794 17.2139 237.506 17.3467C237.224 17.4795 236.983 17.6593 236.784 17.8862C236.584 18.1076 236.421 18.3621 236.294 18.6499C236.172 18.9321 236.081 19.2254 236.02 19.5298V21.6797C236.131 22.0671 236.286 22.4323 236.485 22.7754C236.684 23.113 236.95 23.3869 237.282 23.5972C237.614 23.8019 238.032 23.9043 238.535 23.9043C238.95 23.9043 239.307 23.8185 239.606 23.647C239.91 23.4699 240.159 23.2292 240.353 22.9248C240.552 22.6204 240.699 22.2718 240.793 21.8789C240.887 21.4805 240.934 21.0571 240.934 20.6089ZM246.105 12.25V25H244.562V12.25H246.105ZM252.298 25.166C251.673 25.166 251.105 25.0609 250.596 24.8506C250.093 24.6348 249.658 24.3332 249.293 23.9458C248.933 23.5584 248.657 23.0991 248.463 22.5679C248.269 22.0366 248.172 21.4556 248.172 20.8247V20.4761C248.172 19.7456 248.28 19.0954 248.496 18.5254C248.712 17.9499 249.005 17.4629 249.376 17.0645C249.747 16.666 250.167 16.3644 250.638 16.1597C251.108 15.9549 251.595 15.8525 252.099 15.8525C252.741 15.8525 253.294 15.9632 253.759 16.1846C254.229 16.4059 254.614 16.7158 254.913 17.1143C255.211 17.5072 255.433 17.972 255.577 18.5088C255.721 19.04 255.792 19.6211 255.792 20.252V20.9409H249.085V19.6875H254.257V19.5713C254.235 19.1729 254.152 18.7855 254.008 18.4092C253.869 18.0329 253.648 17.723 253.344 17.4795C253.039 17.236 252.624 17.1143 252.099 17.1143C251.75 17.1143 251.429 17.189 251.136 17.3384C250.842 17.4823 250.591 17.6981 250.38 17.9858C250.17 18.2736 250.007 18.625 249.891 19.04C249.774 19.4551 249.716 19.9338 249.716 20.4761V20.8247C249.716 21.2508 249.774 21.652 249.891 22.0283C250.012 22.3991 250.187 22.7256 250.414 23.0078C250.646 23.29 250.925 23.5114 251.252 23.6719C251.584 23.8324 251.96 23.9126 252.381 23.9126C252.923 23.9126 253.382 23.8019 253.759 23.5806C254.135 23.3592 254.464 23.0632 254.747 22.6924L255.676 23.4312C255.483 23.7244 255.236 24.0039 254.938 24.2695C254.639 24.5352 254.271 24.751 253.833 24.917C253.402 25.083 252.89 25.166 252.298 25.166ZM257.61 24.1865C257.61 23.9264 257.691 23.7078 257.851 23.5308C258.017 23.3481 258.255 23.2568 258.565 23.2568C258.875 23.2568 259.11 23.3481 259.271 23.5308C259.437 23.7078 259.52 23.9264 259.52 24.1865C259.52 24.4411 259.437 24.6569 259.271 24.834C259.11 25.0111 258.875 25.0996 258.565 25.0996C258.255 25.0996 258.017 25.0111 257.851 24.834C257.691 24.6569 257.61 24.4411 257.61 24.1865ZM265.662 23.9043C266.027 23.9043 266.365 23.8296 266.675 23.6802C266.985 23.5308 267.239 23.326 267.438 23.0659C267.638 22.8003 267.751 22.4987 267.779 22.1611H269.24C269.212 22.6924 269.032 23.1877 268.7 23.647C268.374 24.1007 267.945 24.4688 267.414 24.751C266.882 25.0277 266.299 25.166 265.662 25.166C264.987 25.166 264.398 25.047 263.894 24.8091C263.396 24.5711 262.981 24.2446 262.649 23.8296C262.322 23.4146 262.076 22.9386 261.91 22.4019C261.75 21.8595 261.669 21.2868 261.669 20.6836V20.335C261.669 19.7318 261.75 19.1618 261.91 18.625C262.076 18.0827 262.322 17.604 262.649 17.189C262.981 16.7739 263.396 16.4474 263.894 16.2095C264.398 15.9715 264.987 15.8525 265.662 15.8525C266.365 15.8525 266.979 15.9964 267.505 16.2842C268.031 16.5664 268.443 16.9538 268.742 17.4463C269.046 17.9333 269.212 18.4867 269.24 19.1064H267.779C267.751 18.7357 267.646 18.4009 267.463 18.1021C267.286 17.8032 267.043 17.5653 266.733 17.3882C266.429 17.2056 266.072 17.1143 265.662 17.1143C265.192 17.1143 264.796 17.2083 264.475 17.3965C264.16 17.5791 263.908 17.8281 263.72 18.1436C263.537 18.4535 263.404 18.7993 263.321 19.1812C263.244 19.5575 263.205 19.9421 263.205 20.335V20.6836C263.205 21.0765 263.244 21.4639 263.321 21.8457C263.399 22.2275 263.529 22.5734 263.711 22.8833C263.9 23.1932 264.151 23.4422 264.467 23.6304C264.788 23.813 265.186 23.9043 265.662 23.9043ZM270.56 20.6089V20.418C270.56 19.7705 270.654 19.1701 270.842 18.6167C271.03 18.0578 271.301 17.5736 271.655 17.1641C272.009 16.749 272.438 16.4281 272.942 16.2012C273.445 15.9688 274.01 15.8525 274.635 15.8525C275.266 15.8525 275.833 15.9688 276.337 16.2012C276.846 16.4281 277.278 16.749 277.632 17.1641C277.992 17.5736 278.265 18.0578 278.454 18.6167C278.642 19.1701 278.736 19.7705 278.736 20.418V20.6089C278.736 21.2563 278.642 21.8568 278.454 22.4102C278.265 22.9635 277.992 23.4478 277.632 23.8628C277.278 24.2723 276.849 24.5933 276.345 24.8257C275.847 25.0526 275.283 25.166 274.652 25.166C274.021 25.166 273.454 25.0526 272.95 24.8257C272.447 24.5933 272.015 24.2723 271.655 23.8628C271.301 23.4478 271.03 22.9635 270.842 22.4102C270.654 21.8568 270.56 21.2563 270.56 20.6089ZM272.095 20.418V20.6089C272.095 21.0571 272.148 21.4805 272.253 21.8789C272.358 22.2718 272.516 22.6204 272.726 22.9248C272.942 23.2292 273.21 23.4699 273.531 23.647C273.852 23.8185 274.226 23.9043 274.652 23.9043C275.072 23.9043 275.44 23.8185 275.756 23.647C276.077 23.4699 276.342 23.2292 276.553 22.9248C276.763 22.6204 276.921 22.2718 277.026 21.8789C277.137 21.4805 277.192 21.0571 277.192 20.6089V20.418C277.192 19.9753 277.137 19.5575 277.026 19.1646C276.921 18.7661 276.76 18.4147 276.544 18.1104C276.334 17.8005 276.069 17.557 275.748 17.3799C275.432 17.2028 275.061 17.1143 274.635 17.1143C274.215 17.1143 273.844 17.2028 273.523 17.3799C273.208 17.557 272.942 17.8005 272.726 18.1104C272.516 18.4147 272.358 18.7661 272.253 19.1646C272.148 19.5575 272.095 19.9753 272.095 20.418ZM282.189 17.8032V25H280.645V16.0186H282.106L282.189 17.8032ZM281.874 20.1689L281.16 20.144C281.165 19.5298 281.245 18.9626 281.4 18.4424C281.555 17.9167 281.785 17.4601 282.089 17.0728C282.394 16.6854 282.773 16.3866 283.227 16.1763C283.68 15.9604 284.206 15.8525 284.804 15.8525C285.224 15.8525 285.612 15.9134 285.966 16.0352C286.32 16.1514 286.627 16.3368 286.887 16.5913C287.147 16.8459 287.349 17.1724 287.493 17.5708C287.637 17.9692 287.709 18.4507 287.709 19.0151V25H286.173V19.0898C286.173 18.6195 286.093 18.2432 285.933 17.9609C285.778 17.6787 285.556 17.474 285.269 17.3467C284.981 17.2139 284.643 17.1475 284.256 17.1475C283.802 17.1475 283.423 17.2277 283.119 17.3882C282.814 17.5487 282.571 17.77 282.388 18.0522C282.206 18.3345 282.073 18.6582 281.99 19.0234C281.912 19.3831 281.874 19.765 281.874 20.1689ZM287.692 19.3223L286.663 19.6377C286.669 19.1452 286.749 18.672 286.904 18.2183C287.064 17.7645 287.294 17.3605 287.593 17.0063C287.897 16.6522 288.271 16.3727 288.713 16.168C289.156 15.9577 289.662 15.8525 290.232 15.8525C290.714 15.8525 291.14 15.9162 291.511 16.0435C291.887 16.1707 292.202 16.3672 292.457 16.6328C292.717 16.8929 292.914 17.2277 293.046 17.6372C293.179 18.0467 293.246 18.5337 293.246 19.0981V25H291.702V19.0815C291.702 18.578 291.621 18.1878 291.461 17.9111C291.306 17.6289 291.085 17.4325 290.797 17.3218C290.515 17.2056 290.177 17.1475 289.784 17.1475C289.447 17.1475 289.148 17.2056 288.888 17.3218C288.628 17.438 288.409 17.5985 288.232 17.8032C288.055 18.0024 287.919 18.2321 287.825 18.4922C287.737 18.7523 287.692 19.029 287.692 19.3223Z" fill="#333333"/>
<line x1="127.5" y1="10" x2="127.5" y2="29" stroke="#AAAAAA"/>
<path d="M44.6997 12.9141V25H43.0894L37.0049 15.6782V25H35.4028V12.9141H37.0049L43.1143 22.2607V12.9141H44.6997ZM46.8994 20.6089V20.418C46.8994 19.7705 46.9935 19.1701 47.1816 18.6167C47.3698 18.0578 47.641 17.5736 47.9951 17.1641C48.3493 16.749 48.7782 16.4281 49.2817 16.2012C49.7853 15.9688 50.3498 15.8525 50.9751 15.8525C51.606 15.8525 52.1732 15.9688 52.6768 16.2012C53.1859 16.4281 53.6175 16.749 53.9717 17.1641C54.3314 17.5736 54.6053 18.0578 54.7935 18.6167C54.9816 19.1701 55.0757 19.7705 55.0757 20.418V20.6089C55.0757 21.2563 54.9816 21.8568 54.7935 22.4102C54.6053 22.9635 54.3314 23.4478 53.9717 23.8628C53.6175 24.2723 53.1886 24.5933 52.6851 24.8257C52.187 25.0526 51.6226 25.166 50.9917 25.166C50.3608 25.166 49.7936 25.0526 49.29 24.8257C48.7865 24.5933 48.3548 24.2723 47.9951 23.8628C47.641 23.4478 47.3698 22.9635 47.1816 22.4102C46.9935 21.8568 46.8994 21.2563 46.8994 20.6089ZM48.4351 20.418V20.6089C48.4351 21.0571 48.4876 21.4805 48.5928 21.8789C48.6979 22.2718 48.8556 22.6204 49.0659 22.9248C49.2817 23.2292 49.5501 23.4699 49.8711 23.647C50.1921 23.8185 50.5656 23.9043 50.9917 23.9043C51.4123 23.9043 51.7803 23.8185 52.0957 23.647C52.4167 23.4699 52.6823 23.2292 52.8926 22.9248C53.1029 22.6204 53.2606 22.2718 53.3657 21.8789C53.4764 21.4805 53.5317 21.0571 53.5317 20.6089V20.418C53.5317 19.9753 53.4764 19.5575 53.3657 19.1646C53.2606 18.7661 53.1001 18.4147 52.8843 18.1104C52.674 17.8005 52.4084 17.557 52.0874 17.3799C51.772 17.2028 51.4012 17.1143 50.9751 17.1143C50.5545 17.1143 50.1838 17.2028 49.8628 17.3799C49.5474 17.557 49.2817 17.8005 49.0659 18.1104C48.8556 18.4147 48.6979 18.7661 48.5928 19.1646C48.4876 19.5575 48.4351 19.9753 48.4351 20.418ZM60.7617 16.0186V17.1973H55.9058V16.0186H60.7617ZM57.5493 13.8354H59.085V22.7754C59.085 23.0798 59.132 23.3094 59.2261 23.4644C59.3201 23.6193 59.4419 23.7217 59.5913 23.7715C59.7407 23.8213 59.9012 23.8462 60.0728 23.8462C60.2 23.8462 60.3328 23.8351 60.4712 23.813C60.6151 23.7853 60.723 23.7632 60.7949 23.7466L60.8032 25C60.6815 25.0387 60.521 25.0747 60.3218 25.1079C60.1281 25.1466 59.8929 25.166 59.6162 25.166C59.2399 25.166 58.894 25.0913 58.5786 24.9419C58.2632 24.7925 58.0114 24.5435 57.8232 24.1948C57.6406 23.8407 57.5493 23.3647 57.5493 22.7671V13.8354ZM72.0093 22.6177C72.0093 22.3963 71.9595 22.1916 71.8599 22.0034C71.7658 21.8097 71.5693 21.6354 71.2705 21.4805C70.9772 21.32 70.5345 21.1816 69.9424 21.0654C69.4443 20.9603 68.9933 20.8358 68.5894 20.6919C68.1909 20.548 67.8506 20.3737 67.5684 20.1689C67.2917 19.9642 67.0786 19.7235 66.9292 19.4468C66.7798 19.1701 66.7051 18.8464 66.7051 18.4756C66.7051 18.1214 66.7826 17.7866 66.9375 17.4712C67.098 17.1558 67.3221 16.8763 67.6099 16.6328C67.9032 16.3893 68.2546 16.1984 68.6641 16.0601C69.0736 15.9217 69.5301 15.8525 70.0337 15.8525C70.7531 15.8525 71.3674 15.9798 71.8765 16.2344C72.3856 16.4889 72.7757 16.8293 73.0469 17.2554C73.318 17.6759 73.4536 18.1436 73.4536 18.6582H71.918C71.918 18.4092 71.8433 18.1685 71.6938 17.936C71.55 17.6981 71.3369 17.5016 71.0547 17.3467C70.778 17.1917 70.4377 17.1143 70.0337 17.1143C69.6076 17.1143 69.2617 17.1807 68.9961 17.3135C68.736 17.4408 68.5451 17.604 68.4233 17.8032C68.3071 18.0024 68.249 18.2127 68.249 18.4341C68.249 18.6001 68.2767 18.7495 68.332 18.8823C68.3929 19.0096 68.498 19.1286 68.6475 19.2393C68.7969 19.3444 69.0072 19.444 69.2783 19.5381C69.5495 19.6322 69.8953 19.7262 70.3159 19.8203C71.0519 19.9863 71.6579 20.1855 72.1338 20.418C72.6097 20.6504 72.9639 20.9354 73.1963 21.2729C73.4287 21.6105 73.5449 22.02 73.5449 22.5015C73.5449 22.8944 73.4619 23.2541 73.2959 23.5806C73.1354 23.9071 72.9002 24.1893 72.5903 24.4272C72.286 24.6597 71.9207 24.8423 71.4946 24.9751C71.0741 25.1024 70.6009 25.166 70.0752 25.166C69.2839 25.166 68.6143 25.0249 68.0664 24.7427C67.5186 24.4604 67.1035 24.0952 66.8213 23.647C66.5391 23.1987 66.3979 22.7256 66.3979 22.2275H67.9419C67.964 22.6481 68.0858 22.9829 68.3071 23.2319C68.5285 23.4754 68.7996 23.6497 69.1206 23.7549C69.4416 23.8545 69.7598 23.9043 70.0752 23.9043C70.4958 23.9043 70.8472 23.849 71.1294 23.7383C71.4172 23.6276 71.6357 23.4754 71.7852 23.2817C71.9346 23.0881 72.0093 22.8667 72.0093 22.6177ZM79.2891 25.166C78.6637 25.166 78.0965 25.0609 77.5874 24.8506C77.0838 24.6348 76.6494 24.3332 76.2842 23.9458C75.9245 23.5584 75.6478 23.0991 75.4541 22.5679C75.2604 22.0366 75.1636 21.4556 75.1636 20.8247V20.4761C75.1636 19.7456 75.2715 19.0954 75.4873 18.5254C75.7031 17.9499 75.9964 17.4629 76.3672 17.0645C76.738 16.666 77.1585 16.3644 77.6289 16.1597C78.0993 15.9549 78.5863 15.8525 79.0898 15.8525C79.7318 15.8525 80.2852 15.9632 80.75 16.1846C81.2204 16.4059 81.605 16.7158 81.9038 17.1143C82.2026 17.5072 82.424 17.972 82.5679 18.5088C82.7118 19.04 82.7837 19.6211 82.7837 20.252V20.9409H76.0767V19.6875H81.248V19.5713C81.2259 19.1729 81.1429 18.7855 80.999 18.4092C80.8607 18.0329 80.6393 17.723 80.335 17.4795C80.0306 17.236 79.6156 17.1143 79.0898 17.1143C78.7412 17.1143 78.4202 17.189 78.127 17.3384C77.8337 17.4823 77.5819 17.6981 77.3716 17.9858C77.1613 18.2736 76.998 18.625 76.8818 19.04C76.7656 19.4551 76.7075 19.9338 76.7075 20.4761V20.8247C76.7075 21.2508 76.7656 21.652 76.8818 22.0283C77.0036 22.3991 77.1779 22.7256 77.4048 23.0078C77.6372 23.29 77.9167 23.5114 78.2432 23.6719C78.5752 23.8324 78.9515 23.9126 79.3721 23.9126C79.9144 23.9126 80.3737 23.8019 80.75 23.5806C81.1263 23.3592 81.4556 23.0632 81.7378 22.6924L82.6675 23.4312C82.4738 23.7244 82.2275 24.0039 81.9287 24.2695C81.6299 24.5352 81.2619 24.751 80.8247 24.917C80.3931 25.083 79.8812 25.166 79.2891 25.166ZM88.1709 23.9043C88.5361 23.9043 88.8737 23.8296 89.1836 23.6802C89.4935 23.5308 89.748 23.326 89.9473 23.0659C90.1465 22.8003 90.2599 22.4987 90.2876 22.1611H91.7485C91.7209 22.6924 91.541 23.1877 91.209 23.647C90.8825 24.1007 90.4536 24.4688 89.9224 24.751C89.3911 25.0277 88.8073 25.166 88.1709 25.166C87.4958 25.166 86.9064 25.047 86.4028 24.8091C85.9048 24.5711 85.4897 24.2446 85.1577 23.8296C84.8312 23.4146 84.585 22.9386 84.4189 22.4019C84.2585 21.8595 84.1782 21.2868 84.1782 20.6836V20.335C84.1782 19.7318 84.2585 19.1618 84.4189 18.625C84.585 18.0827 84.8312 17.604 85.1577 17.189C85.4897 16.7739 85.9048 16.4474 86.4028 16.2095C86.9064 15.9715 87.4958 15.8525 88.1709 15.8525C88.8737 15.8525 89.488 15.9964 90.0137 16.2842C90.5394 16.5664 90.9517 16.9538 91.2505 17.4463C91.5549 17.9333 91.7209 18.4867 91.7485 19.1064H90.2876C90.2599 18.7357 90.1548 18.4009 89.9722 18.1021C89.7951 17.8032 89.5516 17.5653 89.2417 17.3882C88.9373 17.2056 88.5804 17.1143 88.1709 17.1143C87.7005 17.1143 87.3049 17.2083 86.9839 17.3965C86.6685 17.5791 86.4167 17.8281 86.2285 18.1436C86.0459 18.4535 85.9131 18.7993 85.8301 19.1812C85.7526 19.5575 85.7139 19.9421 85.7139 20.335V20.6836C85.7139 21.0765 85.7526 21.4639 85.8301 21.8457C85.9076 22.2275 86.0376 22.5734 86.2202 22.8833C86.4084 23.1932 86.6602 23.4422 86.9756 23.6304C87.2965 23.813 87.695 23.9043 88.1709 23.9043ZM98.9702 22.9248V16.0186H100.514V25H99.0449L98.9702 22.9248ZM99.2607 21.0322L99.8999 21.0156C99.8999 21.6133 99.8363 22.1667 99.709 22.6758C99.5872 23.1794 99.388 23.6165 99.1113 23.9873C98.8346 24.3581 98.4722 24.6486 98.0239 24.8589C97.5757 25.0636 97.0306 25.166 96.3887 25.166C95.9515 25.166 95.5503 25.1024 95.1851 24.9751C94.8254 24.8478 94.5155 24.6514 94.2554 24.3857C93.9953 24.1201 93.7933 23.7743 93.6494 23.3481C93.5111 22.922 93.4419 22.4102 93.4419 21.8125V16.0186H94.9775V21.8291C94.9775 22.2331 95.0218 22.5679 95.1104 22.8335C95.2044 23.0936 95.3289 23.3011 95.4839 23.4561C95.6444 23.6055 95.8215 23.7106 96.0151 23.7715C96.2144 23.8324 96.4191 23.8628 96.6294 23.8628C97.2824 23.8628 97.7998 23.7383 98.1816 23.4893C98.5635 23.2347 98.8374 22.8944 99.0034 22.4683C99.175 22.0366 99.2607 21.5579 99.2607 21.0322ZM104.391 17.4297V25H102.855V16.0186H104.349L104.391 17.4297ZM107.196 15.9688L107.188 17.3965C107.061 17.3688 106.939 17.3522 106.823 17.3467C106.712 17.3356 106.585 17.3301 106.441 17.3301C106.087 17.3301 105.774 17.3854 105.503 17.4961C105.232 17.6068 105.002 17.7617 104.814 17.9609C104.626 18.1602 104.476 18.3981 104.366 18.6748C104.261 18.946 104.191 19.2448 104.158 19.5713L103.727 19.8203C103.727 19.278 103.779 18.7689 103.884 18.293C103.995 17.8171 104.164 17.3965 104.391 17.0312C104.618 16.6605 104.905 16.3727 105.254 16.168C105.608 15.9577 106.029 15.8525 106.516 15.8525C106.626 15.8525 106.754 15.8664 106.897 15.894C107.041 15.9162 107.141 15.9411 107.196 15.9688ZM112.177 25.166C111.551 25.166 110.984 25.0609 110.475 24.8506C109.972 24.6348 109.537 24.3332 109.172 23.9458C108.812 23.5584 108.535 23.0991 108.342 22.5679C108.148 22.0366 108.051 21.4556 108.051 20.8247V20.4761C108.051 19.7456 108.159 19.0954 108.375 18.5254C108.591 17.9499 108.884 17.4629 109.255 17.0645C109.626 16.666 110.046 16.3644 110.517 16.1597C110.987 15.9549 111.474 15.8525 111.978 15.8525C112.619 15.8525 113.173 15.9632 113.638 16.1846C114.108 16.4059 114.493 16.7158 114.792 17.1143C115.09 17.5072 115.312 17.972 115.456 18.5088C115.599 19.04 115.671 19.6211 115.671 20.252V20.9409H108.964V19.6875H114.136V19.5713C114.114 19.1729 114.031 18.7855 113.887 18.4092C113.748 18.0329 113.527 17.723 113.223 17.4795C112.918 17.236 112.503 17.1143 111.978 17.1143C111.629 17.1143 111.308 17.189 111.015 17.3384C110.721 17.4823 110.47 17.6981 110.259 17.9858C110.049 18.2736 109.886 18.625 109.77 19.04C109.653 19.4551 109.595 19.9338 109.595 20.4761V20.8247C109.595 21.2508 109.653 21.652 109.77 22.0283C109.891 22.3991 110.066 22.7256 110.292 23.0078C110.525 23.29 110.804 23.5114 111.131 23.6719C111.463 23.8324 111.839 23.9126 112.26 23.9126C112.802 23.9126 113.261 23.8019 113.638 23.5806C114.014 23.3592 114.343 23.0632 114.625 22.6924L115.555 23.4312C115.361 23.7244 115.115 24.0039 114.816 24.2695C114.518 24.5352 114.15 24.751 113.712 24.917C113.281 25.083 112.769 25.166 112.177 25.166Z" fill="#DD3322"/>
<circle cx="18" cy="19" r="9" stroke="#DD3322" stroke-width="2"/>
<line x1="18" y1="24" x2="18" y2="22" stroke="#DD3322" stroke-width="2"/>
<line x1="18" y1="20" x2="18" y2="14" stroke="#DD3322" stroke-width="2"/>
</svg>
