<svg width="380" height="37" viewBox="0 0 380 37" fill="none" xmlns="http://www.w3.org/2000/svg">
<rect x="0.5" y="0.5" width="379" height="36" rx="3.5" fill="white" stroke="#AAAAAA"/>
<path d="M40.8975 26.166C40.2721 26.166 39.7049 26.0609 39.1958 25.8506C38.6922 25.6348 38.2578 25.3332 37.8926 24.9458C37.5329 24.5584 37.2562 24.0991 37.0625 23.5679C36.8688 23.0366 36.772 22.4556 36.772 21.8247V21.4761C36.772 20.7456 36.8799 20.0954 37.0957 19.5254C37.3115 18.9499 37.6048 18.4629 37.9756 18.0645C38.3464 17.666 38.7669 17.3644 39.2373 17.1597C39.7077 16.9549 40.1947 16.8525 40.6982 16.8525C41.3402 16.8525 41.8936 16.9632 42.3584 17.1846C42.8288 17.4059 43.2134 17.7158 43.5122 18.1143C43.811 18.5072 44.0324 18.972 44.1763 19.5088C44.3201 20.04 44.3921 20.6211 44.3921 21.252V21.9409H37.6851V20.6875H42.8564V20.5713C42.8343 20.1729 42.7513 19.7855 42.6074 19.4092C42.4691 19.0329 42.2477 18.723 41.9434 18.4795C41.639 18.236 41.224 18.1143 40.6982 18.1143C40.3496 18.1143 40.0286 18.189 39.7354 18.3384C39.4421 18.4823 39.1903 18.6981 38.98 18.9858C38.7697 19.2736 38.6064 19.625 38.4902 20.04C38.374 20.4551 38.3159 20.9338 38.3159 21.4761V21.8247C38.3159 22.2508 38.374 22.652 38.4902 23.0283C38.612 23.3991 38.7863 23.7256 39.0132 24.0078C39.2456 24.29 39.5251 24.5114 39.8516 24.6719C40.1836 24.8324 40.5599 24.9126 40.9805 24.9126C41.5228 24.9126 41.9821 24.8019 42.3584 24.5806C42.7347 24.3592 43.064 24.0632 43.3462 23.6924L44.2759 24.4312C44.0822 24.7244 43.8359 25.0039 43.5371 25.2695C43.2383 25.5352 42.8703 25.751 42.4331 25.917C42.0015 26.083 41.4896 26.166 40.8975 26.166ZM47.2227 17.0186L49.1899 20.2891L51.1821 17.0186H52.9834L50.0449 21.4512L53.0747 26H51.2983L49.2231 22.6299L47.1479 26H45.3633L48.3848 21.4512L45.4546 17.0186H47.2227ZM59.9146 24.4644V19.8408C59.9146 19.4867 59.8426 19.1795 59.6987 18.9194C59.5604 18.6538 59.3501 18.4491 59.0679 18.3052C58.7856 18.1613 58.437 18.0894 58.022 18.0894C57.6346 18.0894 57.2943 18.1558 57.001 18.2886C56.7132 18.4214 56.4863 18.5957 56.3203 18.8115C56.1598 19.0273 56.0796 19.2598 56.0796 19.5088H54.5439C54.5439 19.1878 54.627 18.8696 54.793 18.5542C54.959 18.2388 55.1969 17.9538 55.5068 17.6992C55.8223 17.4391 56.1986 17.2344 56.6357 17.085C57.0785 16.93 57.571 16.8525 58.1133 16.8525C58.7663 16.8525 59.3418 16.9632 59.8398 17.1846C60.3434 17.4059 60.7363 17.7407 61.0186 18.189C61.3063 18.6317 61.4502 19.1878 61.4502 19.8574V24.041C61.4502 24.3398 61.4751 24.658 61.5249 24.9956C61.5802 25.3332 61.6605 25.6237 61.7656 25.8672V26H60.1636C60.0861 25.8229 60.0252 25.5877 59.981 25.2944C59.9367 24.9956 59.9146 24.7189 59.9146 24.4644ZM60.1802 20.5547L60.1968 21.6338H58.6445C58.2074 21.6338 57.8172 21.6698 57.4741 21.7417C57.131 21.8081 56.8433 21.9105 56.6108 22.0488C56.3784 22.1872 56.2013 22.3615 56.0796 22.5718C55.9578 22.7765 55.897 23.0173 55.897 23.2939C55.897 23.5762 55.9606 23.8335 56.0879 24.0659C56.2152 24.2983 56.4061 24.4837 56.6606 24.6221C56.9207 24.7549 57.2389 24.8213 57.6152 24.8213C58.0856 24.8213 58.5007 24.7217 58.8604 24.5225C59.2201 24.3232 59.505 24.0798 59.7153 23.792C59.9312 23.5042 60.0474 23.2248 60.064 22.9536L60.7197 23.6924C60.681 23.9248 60.5758 24.1821 60.4043 24.4644C60.2327 24.7466 60.0031 25.0177 59.7153 25.2778C59.4331 25.5324 59.0955 25.7454 58.7026 25.917C58.3153 26.083 57.8781 26.166 57.3911 26.166C56.7824 26.166 56.2484 26.047 55.7891 25.8091C55.3353 25.5711 54.9811 25.2529 54.7266 24.8545C54.4775 24.4505 54.353 23.9995 54.353 23.5015C54.353 23.02 54.4471 22.5967 54.6353 22.2314C54.8234 21.8607 55.0946 21.5535 55.4487 21.3101C55.8029 21.061 56.229 20.8729 56.7271 20.7456C57.2251 20.6183 57.7812 20.5547 58.3955 20.5547H60.1802ZM65.3931 18.8032V26H63.8491V17.0186H65.3101L65.3931 18.8032ZM65.0776 21.1689L64.3638 21.144C64.3693 20.5298 64.4495 19.9626 64.6045 19.4424C64.7594 18.9167 64.9891 18.4601 65.2935 18.0728C65.5978 17.6854 65.9769 17.3866 66.4307 17.1763C66.8844 16.9604 67.4102 16.8525 68.0078 16.8525C68.4284 16.8525 68.8158 16.9134 69.1699 17.0352C69.5241 17.1514 69.8312 17.3368 70.0913 17.5913C70.3514 17.8459 70.5534 18.1724 70.6973 18.5708C70.8411 18.9692 70.9131 19.4507 70.9131 20.0151V26H69.3774V20.0898C69.3774 19.6195 69.2972 19.2432 69.1367 18.9609C68.9818 18.6787 68.7604 18.474 68.4727 18.3467C68.1849 18.2139 67.8473 18.1475 67.46 18.1475C67.0062 18.1475 66.6271 18.2277 66.3228 18.3882C66.0184 18.5487 65.7749 18.77 65.5923 19.0522C65.4097 19.3345 65.2769 19.6582 65.1938 20.0234C65.1164 20.3831 65.0776 20.765 65.0776 21.1689ZM70.8965 20.3223L69.8672 20.6377C69.8727 20.1452 69.953 19.672 70.1079 19.2183C70.2684 18.7645 70.498 18.3605 70.7969 18.0063C71.1012 17.6522 71.4748 17.3727 71.9175 17.168C72.3602 16.9577 72.8665 16.8525 73.4365 16.8525C73.918 16.8525 74.3441 16.9162 74.7148 17.0435C75.0911 17.1707 75.4066 17.3672 75.6611 17.6328C75.9212 17.8929 76.1177 18.2277 76.2505 18.6372C76.3833 19.0467 76.4497 19.5337 76.4497 20.0981V26H74.9058V20.0815C74.9058 19.578 74.8255 19.1878 74.665 18.9111C74.5101 18.6289 74.2887 18.4325 74.001 18.3218C73.7188 18.2056 73.3812 18.1475 72.9883 18.1475C72.6507 18.1475 72.3519 18.2056 72.0918 18.3218C71.8317 18.438 71.6131 18.5985 71.436 18.8032C71.259 19.0024 71.1234 19.2321 71.0293 19.4922C70.9408 19.7523 70.8965 20.029 70.8965 20.3223ZM80.3096 18.7451V29.4531H78.7656V17.0186H80.1768L80.3096 18.7451ZM86.3608 21.4346V21.6089C86.3608 22.2619 86.2834 22.8678 86.1284 23.4268C85.9735 23.9801 85.7466 24.4616 85.4478 24.8711C85.1545 25.2806 84.792 25.5988 84.3604 25.8257C83.9287 26.0526 83.4334 26.166 82.8745 26.166C82.3045 26.166 81.8009 26.0719 81.3638 25.8838C80.9266 25.6956 80.5558 25.4217 80.2515 25.062C79.9471 24.7023 79.7036 24.2707 79.521 23.7671C79.3439 23.2635 79.2222 22.6963 79.1558 22.0654V21.1357C79.2222 20.4717 79.3467 19.8768 79.5293 19.3511C79.7119 18.8254 79.9526 18.3771 80.2515 18.0063C80.5558 17.63 80.9238 17.3451 81.3555 17.1514C81.7871 16.9521 82.2852 16.8525 82.8496 16.8525C83.4141 16.8525 83.9149 16.9632 84.3521 17.1846C84.7892 17.4004 85.1572 17.7103 85.4561 18.1143C85.7549 18.5182 85.979 19.0024 86.1284 19.5669C86.2834 20.1258 86.3608 20.7484 86.3608 21.4346ZM84.8169 21.6089V21.4346C84.8169 20.9863 84.7699 20.5658 84.6758 20.1729C84.5817 19.7744 84.4351 19.4258 84.2358 19.127C84.0422 18.8226 83.7931 18.5846 83.4888 18.4131C83.1844 18.236 82.8219 18.1475 82.4014 18.1475C82.014 18.1475 81.6764 18.2139 81.3887 18.3467C81.1064 18.4795 80.8657 18.6593 80.6665 18.8862C80.4673 19.1076 80.304 19.3621 80.1768 19.6499C80.055 19.9321 79.9637 20.2254 79.9028 20.5298V22.6797C80.0135 23.0671 80.1685 23.4323 80.3677 23.7754C80.5669 24.113 80.8325 24.3869 81.1646 24.5972C81.4966 24.8019 81.9144 24.9043 82.418 24.9043C82.833 24.9043 83.1899 24.8185 83.4888 24.647C83.7931 24.4699 84.0422 24.2292 84.2358 23.9248C84.4351 23.6204 84.5817 23.2718 84.6758 22.8789C84.7699 22.4805 84.8169 22.0571 84.8169 21.6089ZM89.9883 13.25V26H88.4443V13.25H89.9883ZM96.1807 26.166C95.5553 26.166 94.9881 26.0609 94.479 25.8506C93.9754 25.6348 93.541 25.3332 93.1758 24.9458C92.8161 24.5584 92.5394 24.0991 92.3457 23.5679C92.152 23.0366 92.0552 22.4556 92.0552 21.8247V21.4761C92.0552 20.7456 92.1631 20.0954 92.3789 19.5254C92.5947 18.9499 92.888 18.4629 93.2588 18.0645C93.6296 17.666 94.0501 17.3644 94.5205 17.1597C94.9909 16.9549 95.4779 16.8525 95.9814 16.8525C96.6234 16.8525 97.1768 16.9632 97.6416 17.1846C98.112 17.4059 98.4966 17.7158 98.7954 18.1143C99.0942 18.5072 99.3156 18.972 99.4595 19.5088C99.6034 20.04 99.6753 20.6211 99.6753 21.252V21.9409H92.9683V20.6875H98.1396V20.5713C98.1175 20.1729 98.0345 19.7855 97.8906 19.4092C97.7523 19.0329 97.5309 18.723 97.2266 18.4795C96.9222 18.236 96.5072 18.1143 95.9814 18.1143C95.6328 18.1143 95.3118 18.189 95.0186 18.3384C94.7253 18.4823 94.4735 18.6981 94.2632 18.9858C94.0529 19.2736 93.8896 19.625 93.7734 20.04C93.6572 20.4551 93.5991 20.9338 93.5991 21.4761V21.8247C93.5991 22.2508 93.6572 22.652 93.7734 23.0283C93.8952 23.3991 94.0695 23.7256 94.2964 24.0078C94.5288 24.29 94.8083 24.5114 95.1348 24.6719C95.4668 24.8324 95.8431 24.9126 96.2637 24.9126C96.806 24.9126 97.2653 24.8019 97.6416 24.5806C98.0179 24.3592 98.3472 24.0632 98.6294 23.6924L99.5591 24.4312C99.3654 24.7244 99.1191 25.0039 98.8203 25.2695C98.5215 25.5352 98.1535 25.751 97.7163 25.917C97.2847 26.083 96.7728 26.166 96.1807 26.166ZM101.493 25.1865C101.493 24.9264 101.573 24.7078 101.734 24.5308C101.9 24.3481 102.138 24.2568 102.448 24.2568C102.758 24.2568 102.993 24.3481 103.153 24.5308C103.319 24.7078 103.402 24.9264 103.402 25.1865C103.402 25.4411 103.319 25.6569 103.153 25.834C102.993 26.0111 102.758 26.0996 102.448 26.0996C102.138 26.0996 101.9 26.0111 101.734 25.834C101.573 25.6569 101.493 25.4411 101.493 25.1865ZM109.545 24.9043C109.91 24.9043 110.248 24.8296 110.558 24.6802C110.868 24.5308 111.122 24.326 111.321 24.0659C111.521 23.8003 111.634 23.4987 111.662 23.1611H113.123C113.095 23.6924 112.915 24.1877 112.583 24.647C112.257 25.1007 111.828 25.4688 111.296 25.751C110.765 26.0277 110.181 26.166 109.545 26.166C108.87 26.166 108.28 26.047 107.777 25.8091C107.279 25.5711 106.864 25.2446 106.532 24.8296C106.205 24.4146 105.959 23.9386 105.793 23.4019C105.632 22.8595 105.552 22.2868 105.552 21.6836V21.335C105.552 20.7318 105.632 20.1618 105.793 19.625C105.959 19.0827 106.205 18.604 106.532 18.189C106.864 17.7739 107.279 17.4474 107.777 17.2095C108.28 16.9715 108.87 16.8525 109.545 16.8525C110.248 16.8525 110.862 16.9964 111.388 17.2842C111.913 17.5664 112.326 17.9538 112.625 18.4463C112.929 18.9333 113.095 19.4867 113.123 20.1064H111.662C111.634 19.7357 111.529 19.4009 111.346 19.1021C111.169 18.8032 110.926 18.5653 110.616 18.3882C110.311 18.2056 109.954 18.1143 109.545 18.1143C109.075 18.1143 108.679 18.2083 108.358 18.3965C108.042 18.5791 107.791 18.8281 107.603 19.1436C107.42 19.4535 107.287 19.7993 107.204 20.1812C107.127 20.5575 107.088 20.9421 107.088 21.335V21.6836C107.088 22.0765 107.127 22.4639 107.204 22.8457C107.282 23.2275 107.412 23.5734 107.594 23.8833C107.782 24.1932 108.034 24.4422 108.35 24.6304C108.671 24.813 109.069 24.9043 109.545 24.9043ZM114.442 21.6089V21.418C114.442 20.7705 114.536 20.1701 114.725 19.6167C114.913 19.0578 115.184 18.5736 115.538 18.1641C115.892 17.749 116.321 17.4281 116.825 17.2012C117.328 16.9688 117.893 16.8525 118.518 16.8525C119.149 16.8525 119.716 16.9688 120.22 17.2012C120.729 17.4281 121.16 17.749 121.515 18.1641C121.874 18.5736 122.148 19.0578 122.336 19.6167C122.525 20.1701 122.619 20.7705 122.619 21.418V21.6089C122.619 22.2563 122.525 22.8568 122.336 23.4102C122.148 23.9635 121.874 24.4478 121.515 24.8628C121.16 25.2723 120.732 25.5933 120.228 25.8257C119.73 26.0526 119.166 26.166 118.535 26.166C117.904 26.166 117.337 26.0526 116.833 25.8257C116.329 25.5933 115.898 25.2723 115.538 24.8628C115.184 24.4478 114.913 23.9635 114.725 23.4102C114.536 22.8568 114.442 22.2563 114.442 21.6089ZM115.978 21.418V21.6089C115.978 22.0571 116.031 22.4805 116.136 22.8789C116.241 23.2718 116.399 23.6204 116.609 23.9248C116.825 24.2292 117.093 24.4699 117.414 24.647C117.735 24.8185 118.109 24.9043 118.535 24.9043C118.955 24.9043 119.323 24.8185 119.639 24.647C119.96 24.4699 120.225 24.2292 120.436 23.9248C120.646 23.6204 120.804 23.2718 120.909 22.8789C121.019 22.4805 121.075 22.0571 121.075 21.6089V21.418C121.075 20.9753 121.019 20.5575 120.909 20.1646C120.804 19.7661 120.643 19.4147 120.427 19.1104C120.217 18.8005 119.951 18.557 119.63 18.3799C119.315 18.2028 118.944 18.1143 118.518 18.1143C118.097 18.1143 117.727 18.2028 117.406 18.3799C117.09 18.557 116.825 18.8005 116.609 19.1104C116.399 19.4147 116.241 19.7661 116.136 20.1646C116.031 20.5575 115.978 20.9753 115.978 21.418ZM126.072 18.8032V26H124.528V17.0186H125.989L126.072 18.8032ZM125.756 21.1689L125.042 21.144C125.048 20.5298 125.128 19.9626 125.283 19.4424C125.438 18.9167 125.668 18.4601 125.972 18.0728C126.277 17.6854 126.656 17.3866 127.109 17.1763C127.563 16.9604 128.089 16.8525 128.687 16.8525C129.107 16.8525 129.494 16.9134 129.849 17.0352C130.203 17.1514 130.51 17.3368 130.77 17.5913C131.03 17.8459 131.232 18.1724 131.376 18.5708C131.52 18.9692 131.592 19.4507 131.592 20.0151V26H130.056V20.0898C130.056 19.6195 129.976 19.2432 129.815 18.9609C129.66 18.6787 129.439 18.474 129.151 18.3467C128.864 18.2139 128.526 18.1475 128.139 18.1475C127.685 18.1475 127.306 18.2277 127.001 18.3882C126.697 18.5487 126.454 18.77 126.271 19.0522C126.088 19.3345 125.956 19.6582 125.873 20.0234C125.795 20.3831 125.756 20.765 125.756 21.1689ZM131.575 20.3223L130.546 20.6377C130.551 20.1452 130.632 19.672 130.787 19.2183C130.947 18.7645 131.177 18.3605 131.476 18.0063C131.78 17.6522 132.153 17.3727 132.596 17.168C133.039 16.9577 133.545 16.8525 134.115 16.8525C134.597 16.8525 135.023 16.9162 135.394 17.0435C135.77 17.1707 136.085 17.3672 136.34 17.6328C136.6 17.8929 136.796 18.2277 136.929 18.6372C137.062 19.0467 137.128 19.5337 137.128 20.0981V26H135.584V20.0815C135.584 19.578 135.504 19.1878 135.344 18.9111C135.189 18.6289 134.967 18.4325 134.68 18.3218C134.397 18.2056 134.06 18.1475 133.667 18.1475C133.329 18.1475 133.031 18.2056 132.771 18.3218C132.51 18.438 132.292 18.5985 132.115 18.8032C131.938 19.0024 131.802 19.2321 131.708 19.4922C131.619 19.7523 131.575 20.029 131.575 20.3223Z" fill="#333333"/>
<path d="M11 14H26" stroke="#555555" stroke-width="2" stroke-linecap="round"/>
<path d="M11 20H26" stroke="#555555" stroke-width="2" stroke-linecap="round"/>
<path d="M11 26H26" stroke="#555555" stroke-width="2" stroke-linecap="round"/>
</svg>
