<svg width="380" height="37" viewBox="0 0 380 37" fill="none" xmlns="http://www.w3.org/2000/svg">
<rect x="0.5" y="0.5" width="379" height="36" rx="3.5" fill="white" stroke="#AAAAAA"/>
<path d="M38.7061 13.25V26H37.1704V13.25H38.7061ZM38.3408 21.1689L37.7017 21.144C37.7072 20.5298 37.7985 19.9626 37.9756 19.4424C38.1527 18.9167 38.4017 18.4601 38.7227 18.0728C39.0436 17.6854 39.4255 17.3866 39.8682 17.1763C40.3164 16.9604 40.8117 16.8525 41.354 16.8525C41.7967 16.8525 42.1951 16.9134 42.5493 17.0352C42.9035 17.1514 43.2051 17.3395 43.4541 17.5996C43.7087 17.8597 43.9023 18.1973 44.0352 18.6123C44.168 19.0218 44.2344 19.5226 44.2344 20.1147V26H42.6904V20.0981C42.6904 19.6278 42.6213 19.2515 42.4829 18.9692C42.3446 18.6815 42.1426 18.474 41.877 18.3467C41.6113 18.2139 41.2848 18.1475 40.8975 18.1475C40.5156 18.1475 40.167 18.2277 39.8516 18.3882C39.5417 18.5487 39.2733 18.77 39.0464 19.0522C38.825 19.3345 38.6507 19.6582 38.5234 20.0234C38.4017 20.3831 38.3408 20.765 38.3408 21.1689ZM50.2939 17.0186V18.1973H45.438V17.0186H50.2939ZM47.0815 14.8354H48.6172V23.7754C48.6172 24.0798 48.6642 24.3094 48.7583 24.4644C48.8524 24.6193 48.9741 24.7217 49.1235 24.7715C49.2729 24.8213 49.4334 24.8462 49.605 24.8462C49.7323 24.8462 49.8651 24.8351 50.0034 24.813C50.1473 24.7853 50.2552 24.7632 50.3271 24.7466L50.3354 26C50.2137 26.0387 50.0532 26.0747 49.854 26.1079C49.6603 26.1466 49.4251 26.166 49.1484 26.166C48.7721 26.166 48.4263 26.0913 48.1108 25.9419C47.7954 25.7925 47.5436 25.5435 47.3555 25.1948C47.1729 24.8407 47.0815 24.3647 47.0815 23.7671V14.8354ZM55.8555 17.0186V18.1973H50.9995V17.0186H55.8555ZM52.6431 14.8354H54.1787V23.7754C54.1787 24.0798 54.2257 24.3094 54.3198 24.4644C54.4139 24.6193 54.5356 24.7217 54.6851 24.7715C54.8345 24.8213 54.995 24.8462 55.1665 24.8462C55.2938 24.8462 55.4266 24.8351 55.5649 24.813C55.7088 24.7853 55.8167 24.7632 55.8887 24.7466L55.897 26C55.7752 26.0387 55.6147 26.0747 55.4155 26.1079C55.2218 26.1466 54.9867 26.166 54.71 26.166C54.3337 26.166 53.9878 26.0913 53.6724 25.9419C53.3569 25.7925 53.1051 25.5435 52.917 25.1948C52.7344 24.8407 52.6431 24.3647 52.6431 23.7671V14.8354ZM59.1924 18.7451V29.4531H57.6484V17.0186H59.0596L59.1924 18.7451ZM65.2437 21.4346V21.6089C65.2437 22.2619 65.1662 22.8678 65.0112 23.4268C64.8563 23.9801 64.6294 24.4616 64.3306 24.8711C64.0373 25.2806 63.6748 25.5988 63.2432 25.8257C62.8115 26.0526 62.3162 26.166 61.7573 26.166C61.1873 26.166 60.6838 26.0719 60.2466 25.8838C59.8094 25.6956 59.4386 25.4217 59.1343 25.062C58.8299 24.7023 58.5864 24.2707 58.4038 23.7671C58.2267 23.2635 58.105 22.6963 58.0386 22.0654V21.1357C58.105 20.4717 58.2295 19.8768 58.4121 19.3511C58.5947 18.8254 58.8354 18.3771 59.1343 18.0063C59.4386 17.63 59.8066 17.3451 60.2383 17.1514C60.6699 16.9521 61.168 16.8525 61.7324 16.8525C62.2969 16.8525 62.7977 16.9632 63.2349 17.1846C63.672 17.4004 64.04 17.7103 64.3389 18.1143C64.6377 18.5182 64.8618 19.0024 65.0112 19.5669C65.1662 20.1258 65.2437 20.7484 65.2437 21.4346ZM63.6997 21.6089V21.4346C63.6997 20.9863 63.6527 20.5658 63.5586 20.1729C63.4645 19.7744 63.3179 19.4258 63.1187 19.127C62.925 18.8226 62.6759 18.5846 62.3716 18.4131C62.0672 18.236 61.7048 18.1475 61.2842 18.1475C60.8968 18.1475 60.5592 18.2139 60.2715 18.3467C59.9893 18.4795 59.7485 18.6593 59.5493 18.8862C59.3501 19.1076 59.1868 19.3621 59.0596 19.6499C58.9378 19.9321 58.8465 20.2254 58.7856 20.5298V22.6797C58.8963 23.0671 59.0513 23.4323 59.2505 23.7754C59.4497 24.113 59.7153 24.3869 60.0474 24.5972C60.3794 24.8019 60.7972 24.9043 61.3008 24.9043C61.7158 24.9043 62.0728 24.8185 62.3716 24.647C62.6759 24.4699 62.925 24.2292 63.1187 23.9248C63.3179 23.6204 63.4645 23.2718 63.5586 22.8789C63.6527 22.4805 63.6997 22.0571 63.6997 21.6089ZM72.4321 23.6177C72.4321 23.3963 72.3823 23.1916 72.2827 23.0034C72.1886 22.8097 71.9922 22.6354 71.6934 22.4805C71.4001 22.32 70.9574 22.1816 70.3652 22.0654C69.8672 21.9603 69.4162 21.8358 69.0122 21.6919C68.6138 21.548 68.2734 21.3737 67.9912 21.1689C67.7145 20.9642 67.5015 20.7235 67.3521 20.4468C67.2026 20.1701 67.1279 19.8464 67.1279 19.4756C67.1279 19.1214 67.2054 18.7866 67.3604 18.4712C67.5208 18.1558 67.745 17.8763 68.0327 17.6328C68.326 17.3893 68.6774 17.1984 69.0869 17.0601C69.4964 16.9217 69.953 16.8525 70.4565 16.8525C71.1759 16.8525 71.7902 16.9798 72.2993 17.2344C72.8084 17.4889 73.1986 17.8293 73.4697 18.2554C73.7409 18.6759 73.8765 19.1436 73.8765 19.6582H72.3408C72.3408 19.4092 72.2661 19.1685 72.1167 18.936C71.9728 18.6981 71.7598 18.5016 71.4775 18.3467C71.2008 18.1917 70.8605 18.1143 70.4565 18.1143C70.0304 18.1143 69.6846 18.1807 69.4189 18.3135C69.1589 18.4408 68.9679 18.604 68.8462 18.8032C68.73 19.0024 68.6719 19.2127 68.6719 19.4341C68.6719 19.6001 68.6995 19.7495 68.7549 19.8823C68.8158 20.0096 68.9209 20.1286 69.0703 20.2393C69.2197 20.3444 69.43 20.444 69.7012 20.5381C69.9723 20.6322 70.3182 20.7262 70.7388 20.8203C71.4748 20.9863 72.0807 21.1855 72.5566 21.418C73.0326 21.6504 73.3867 21.9354 73.6191 22.2729C73.8516 22.6105 73.9678 23.02 73.9678 23.5015C73.9678 23.8944 73.8848 24.2541 73.7188 24.5806C73.5583 24.9071 73.3231 25.1893 73.0132 25.4272C72.7088 25.6597 72.3436 25.8423 71.9175 25.9751C71.4969 26.1024 71.0238 26.166 70.498 26.166C69.7067 26.166 69.0371 26.0249 68.4893 25.7427C67.9414 25.4604 67.5264 25.0952 67.2441 24.647C66.9619 24.1987 66.8208 23.7256 66.8208 23.2275H68.3647C68.3869 23.6481 68.5086 23.9829 68.73 24.2319C68.9513 24.4754 69.2225 24.6497 69.5435 24.7549C69.8644 24.8545 70.1826 24.9043 70.498 24.9043C70.9186 24.9043 71.27 24.849 71.5522 24.7383C71.84 24.6276 72.0586 24.4754 72.208 24.2817C72.3574 24.0881 72.4321 23.8667 72.4321 23.6177ZM75.9185 25.1865C75.9185 24.9264 75.9987 24.7078 76.1592 24.5308C76.3252 24.3481 76.5632 24.2568 76.873 24.2568C77.1829 24.2568 77.4181 24.3481 77.5786 24.5308C77.7446 24.7078 77.8276 24.9264 77.8276 25.1865C77.8276 25.4411 77.7446 25.6569 77.5786 25.834C77.4181 26.0111 77.1829 26.0996 76.873 26.0996C76.5632 26.0996 76.3252 26.0111 76.1592 25.834C75.9987 25.6569 75.9185 25.4411 75.9185 25.1865ZM75.9268 17.8569C75.9268 17.5968 76.007 17.3783 76.1675 17.2012C76.3335 17.0186 76.5715 16.9272 76.8813 16.9272C77.1912 16.9272 77.4264 17.0186 77.5869 17.2012C77.7529 17.3783 77.8359 17.5968 77.8359 17.8569C77.8359 18.1115 77.7529 18.3273 77.5869 18.5044C77.4264 18.6815 77.1912 18.77 76.8813 18.77C76.5715 18.77 76.3335 18.6815 76.1675 18.5044C76.007 18.3273 75.9268 18.1115 75.9268 17.8569ZM85.4478 13.9141L80.4092 27.0376H79.0894L84.1362 13.9141H85.4478ZM90.6108 13.9141L85.5723 27.0376H84.2524L89.2993 13.9141H90.6108ZM96.0146 26.166C95.3893 26.166 94.8221 26.0609 94.313 25.8506C93.8094 25.6348 93.375 25.3332 93.0098 24.9458C92.6501 24.5584 92.3734 24.0991 92.1797 23.5679C91.986 23.0366 91.8892 22.4556 91.8892 21.8247V21.4761C91.8892 20.7456 91.9971 20.0954 92.2129 19.5254C92.4287 18.9499 92.722 18.4629 93.0928 18.0645C93.4635 17.666 93.8841 17.3644 94.3545 17.1597C94.8249 16.9549 95.3118 16.8525 95.8154 16.8525C96.4574 16.8525 97.0107 16.9632 97.4756 17.1846C97.946 17.4059 98.3306 17.7158 98.6294 18.1143C98.9282 18.5072 99.1496 18.972 99.2935 19.5088C99.4373 20.04 99.5093 20.6211 99.5093 21.252V21.9409H92.8022V20.6875H97.9736V20.5713C97.9515 20.1729 97.8685 19.7855 97.7246 19.4092C97.5863 19.0329 97.3649 18.723 97.0605 18.4795C96.7562 18.236 96.3411 18.1143 95.8154 18.1143C95.4668 18.1143 95.1458 18.189 94.8525 18.3384C94.5592 18.4823 94.3075 18.6981 94.0972 18.9858C93.8869 19.2736 93.7236 19.625 93.6074 20.04C93.4912 20.4551 93.4331 20.9338 93.4331 21.4761V21.8247C93.4331 22.2508 93.4912 22.652 93.6074 23.0283C93.7292 23.3991 93.9035 23.7256 94.1304 24.0078C94.3628 24.29 94.6423 24.5114 94.9688 24.6719C95.3008 24.8324 95.6771 24.9126 96.0977 24.9126C96.64 24.9126 97.0993 24.8019 97.4756 24.5806C97.8519 24.3592 98.1812 24.0632 98.4634 23.6924L99.3931 24.4312C99.1994 24.7244 98.9531 25.0039 98.6543 25.2695C98.3555 25.5352 97.9875 25.751 97.5503 25.917C97.1187 26.083 96.6068 26.166 96.0146 26.166ZM102.34 17.0186L104.307 20.2891L106.299 17.0186H108.101L105.162 21.4512L108.192 26H106.416L104.34 22.6299L102.265 26H100.48L103.502 21.4512L100.572 17.0186H102.34ZM115.032 24.4644V19.8408C115.032 19.4867 114.96 19.1795 114.816 18.9194C114.678 18.6538 114.467 18.4491 114.185 18.3052C113.903 18.1613 113.554 18.0894 113.139 18.0894C112.752 18.0894 112.411 18.1558 112.118 18.2886C111.83 18.4214 111.604 18.5957 111.438 18.8115C111.277 19.0273 111.197 19.2598 111.197 19.5088H109.661C109.661 19.1878 109.744 18.8696 109.91 18.5542C110.076 18.2388 110.314 17.9538 110.624 17.6992C110.939 17.4391 111.316 17.2344 111.753 17.085C112.196 16.93 112.688 16.8525 113.23 16.8525C113.883 16.8525 114.459 16.9632 114.957 17.1846C115.461 17.4059 115.854 17.7407 116.136 18.189C116.424 18.6317 116.567 19.1878 116.567 19.8574V24.041C116.567 24.3398 116.592 24.658 116.642 24.9956C116.697 25.3332 116.778 25.6237 116.883 25.8672V26H115.281C115.203 25.8229 115.142 25.5877 115.098 25.2944C115.054 24.9956 115.032 24.7189 115.032 24.4644ZM115.297 20.5547L115.314 21.6338H113.762C113.325 21.6338 112.934 21.6698 112.591 21.7417C112.248 21.8081 111.96 21.9105 111.728 22.0488C111.496 22.1872 111.319 22.3615 111.197 22.5718C111.075 22.7765 111.014 23.0173 111.014 23.2939C111.014 23.5762 111.078 23.8335 111.205 24.0659C111.332 24.2983 111.523 24.4837 111.778 24.6221C112.038 24.7549 112.356 24.8213 112.732 24.8213C113.203 24.8213 113.618 24.7217 113.978 24.5225C114.337 24.3232 114.622 24.0798 114.833 23.792C115.048 23.5042 115.165 23.2248 115.181 22.9536L115.837 23.6924C115.798 23.9248 115.693 24.1821 115.521 24.4644C115.35 24.7466 115.12 25.0177 114.833 25.2778C114.55 25.5324 114.213 25.7454 113.82 25.917C113.432 26.083 112.995 26.166 112.508 26.166C111.9 26.166 111.366 26.047 110.906 25.8091C110.452 25.5711 110.098 25.2529 109.844 24.8545C109.595 24.4505 109.47 23.9995 109.47 23.5015C109.47 23.02 109.564 22.5967 109.752 22.2314C109.941 21.8607 110.212 21.5535 110.566 21.3101C110.92 21.061 111.346 20.8729 111.844 20.7456C112.342 20.6183 112.898 20.5547 113.513 20.5547H115.297ZM120.51 18.8032V26H118.966V17.0186H120.427L120.51 18.8032ZM120.195 21.1689L119.481 21.144C119.486 20.5298 119.567 19.9626 119.722 19.4424C119.877 18.9167 120.106 18.4601 120.411 18.0728C120.715 17.6854 121.094 17.3866 121.548 17.1763C122.002 16.9604 122.527 16.8525 123.125 16.8525C123.546 16.8525 123.933 16.9134 124.287 17.0352C124.641 17.1514 124.948 17.3368 125.208 17.5913C125.469 17.8459 125.671 18.1724 125.814 18.5708C125.958 18.9692 126.03 19.4507 126.03 20.0151V26H124.495V20.0898C124.495 19.6195 124.414 19.2432 124.254 18.9609C124.099 18.6787 123.878 18.474 123.59 18.3467C123.302 18.2139 122.965 18.1475 122.577 18.1475C122.123 18.1475 121.744 18.2277 121.44 18.3882C121.136 18.5487 120.892 18.77 120.709 19.0522C120.527 19.3345 120.394 19.6582 120.311 20.0234C120.234 20.3831 120.195 20.765 120.195 21.1689ZM126.014 20.3223L124.984 20.6377C124.99 20.1452 125.07 19.672 125.225 19.2183C125.386 18.7645 125.615 18.3605 125.914 18.0063C126.218 17.6522 126.592 17.3727 127.035 17.168C127.477 16.9577 127.984 16.8525 128.554 16.8525C129.035 16.8525 129.461 16.9162 129.832 17.0435C130.208 17.1707 130.524 17.3672 130.778 17.6328C131.038 17.8929 131.235 18.2277 131.368 18.6372C131.5 19.0467 131.567 19.5337 131.567 20.0981V26H130.023V20.0815C130.023 19.578 129.943 19.1878 129.782 18.9111C129.627 18.6289 129.406 18.4325 129.118 18.3218C128.836 18.2056 128.498 18.1475 128.105 18.1475C127.768 18.1475 127.469 18.2056 127.209 18.3218C126.949 18.438 126.73 18.5985 126.553 18.8032C126.376 19.0024 126.241 19.2321 126.146 19.4922C126.058 19.7523 126.014 20.029 126.014 20.3223ZM135.427 18.7451V29.4531H133.883V17.0186H135.294L135.427 18.7451ZM141.478 21.4346V21.6089C141.478 22.2619 141.401 22.8678 141.246 23.4268C141.091 23.9801 140.864 24.4616 140.565 24.8711C140.272 25.2806 139.909 25.5988 139.478 25.8257C139.046 26.0526 138.551 26.166 137.992 26.166C137.422 26.166 136.918 26.0719 136.481 25.8838C136.044 25.6956 135.673 25.4217 135.369 25.062C135.064 24.7023 134.821 24.2707 134.638 23.7671C134.461 23.2635 134.339 22.6963 134.273 22.0654V21.1357C134.339 20.4717 134.464 19.8768 134.646 19.3511C134.829 18.8254 135.07 18.3771 135.369 18.0063C135.673 17.63 136.041 17.3451 136.473 17.1514C136.904 16.9521 137.402 16.8525 137.967 16.8525C138.531 16.8525 139.032 16.9632 139.469 17.1846C139.906 17.4004 140.274 17.7103 140.573 18.1143C140.872 18.5182 141.096 19.0024 141.246 19.5669C141.401 20.1258 141.478 20.7484 141.478 21.4346ZM139.934 21.6089V21.4346C139.934 20.9863 139.887 20.5658 139.793 20.1729C139.699 19.7744 139.552 19.4258 139.353 19.127C139.159 18.8226 138.91 18.5846 138.606 18.4131C138.302 18.236 137.939 18.1475 137.519 18.1475C137.131 18.1475 136.794 18.2139 136.506 18.3467C136.224 18.4795 135.983 18.6593 135.784 18.8862C135.584 19.1076 135.421 19.3621 135.294 19.6499C135.172 19.9321 135.081 20.2254 135.02 20.5298V22.6797C135.131 23.0671 135.286 23.4323 135.485 23.7754C135.684 24.113 135.95 24.3869 136.282 24.5972C136.614 24.8019 137.032 24.9043 137.535 24.9043C137.95 24.9043 138.307 24.8185 138.606 24.647C138.91 24.4699 139.159 24.2292 139.353 23.9248C139.552 23.6204 139.699 23.2718 139.793 22.8789C139.887 22.4805 139.934 22.0571 139.934 21.6089ZM145.105 13.25V26H143.562V13.25H145.105ZM151.298 26.166C150.673 26.166 150.105 26.0609 149.596 25.8506C149.093 25.6348 148.658 25.3332 148.293 24.9458C147.933 24.5584 147.657 24.0991 147.463 23.5679C147.269 23.0366 147.172 22.4556 147.172 21.8247V21.4761C147.172 20.7456 147.28 20.0954 147.496 19.5254C147.712 18.9499 148.005 18.4629 148.376 18.0645C148.747 17.666 149.167 17.3644 149.638 17.1597C150.108 16.9549 150.595 16.8525 151.099 16.8525C151.741 16.8525 152.294 16.9632 152.759 17.1846C153.229 17.4059 153.614 17.7158 153.913 18.1143C154.211 18.5072 154.433 18.972 154.577 19.5088C154.721 20.04 154.792 20.6211 154.792 21.252V21.9409H148.085V20.6875H153.257V20.5713C153.235 20.1729 153.152 19.7855 153.008 19.4092C152.869 19.0329 152.648 18.723 152.344 18.4795C152.039 18.236 151.624 18.1143 151.099 18.1143C150.75 18.1143 150.429 18.189 150.136 18.3384C149.842 18.4823 149.591 18.6981 149.38 18.9858C149.17 19.2736 149.007 19.625 148.891 20.04C148.774 20.4551 148.716 20.9338 148.716 21.4761V21.8247C148.716 22.2508 148.774 22.652 148.891 23.0283C149.012 23.3991 149.187 23.7256 149.414 24.0078C149.646 24.29 149.925 24.5114 150.252 24.6719C150.584 24.8324 150.96 24.9126 151.381 24.9126C151.923 24.9126 152.382 24.8019 152.759 24.5806C153.135 24.3592 153.464 24.0632 153.747 23.6924L154.676 24.4312C154.483 24.7244 154.236 25.0039 153.938 25.2695C153.639 25.5352 153.271 25.751 152.833 25.917C152.402 26.083 151.89 26.166 151.298 26.166ZM156.61 25.1865C156.61 24.9264 156.691 24.7078 156.851 24.5308C157.017 24.3481 157.255 24.2568 157.565 24.2568C157.875 24.2568 158.11 24.3481 158.271 24.5308C158.437 24.7078 158.52 24.9264 158.52 25.1865C158.52 25.4411 158.437 25.6569 158.271 25.834C158.11 26.0111 157.875 26.0996 157.565 26.0996C157.255 26.0996 157.017 26.0111 156.851 25.834C156.691 25.6569 156.61 25.4411 156.61 25.1865ZM164.662 24.9043C165.027 24.9043 165.365 24.8296 165.675 24.6802C165.985 24.5308 166.239 24.326 166.438 24.0659C166.638 23.8003 166.751 23.4987 166.779 23.1611H168.24C168.212 23.6924 168.032 24.1877 167.7 24.647C167.374 25.1007 166.945 25.4688 166.414 25.751C165.882 26.0277 165.299 26.166 164.662 26.166C163.987 26.166 163.398 26.047 162.894 25.8091C162.396 25.5711 161.981 25.2446 161.649 24.8296C161.322 24.4146 161.076 23.9386 160.91 23.4019C160.75 22.8595 160.669 22.2868 160.669 21.6836V21.335C160.669 20.7318 160.75 20.1618 160.91 19.625C161.076 19.0827 161.322 18.604 161.649 18.189C161.981 17.7739 162.396 17.4474 162.894 17.2095C163.398 16.9715 163.987 16.8525 164.662 16.8525C165.365 16.8525 165.979 16.9964 166.505 17.2842C167.031 17.5664 167.443 17.9538 167.742 18.4463C168.046 18.9333 168.212 19.4867 168.24 20.1064H166.779C166.751 19.7357 166.646 19.4009 166.463 19.1021C166.286 18.8032 166.043 18.5653 165.733 18.3882C165.429 18.2056 165.072 18.1143 164.662 18.1143C164.192 18.1143 163.796 18.2083 163.475 18.3965C163.16 18.5791 162.908 18.8281 162.72 19.1436C162.537 19.4535 162.404 19.7993 162.321 20.1812C162.244 20.5575 162.205 20.9421 162.205 21.335V21.6836C162.205 22.0765 162.244 22.4639 162.321 22.8457C162.399 23.2275 162.529 23.5734 162.711 23.8833C162.9 24.1932 163.151 24.4422 163.467 24.6304C163.788 24.813 164.186 24.9043 164.662 24.9043ZM169.56 21.6089V21.418C169.56 20.7705 169.654 20.1701 169.842 19.6167C170.03 19.0578 170.301 18.5736 170.655 18.1641C171.009 17.749 171.438 17.4281 171.942 17.2012C172.445 16.9688 173.01 16.8525 173.635 16.8525C174.266 16.8525 174.833 16.9688 175.337 17.2012C175.846 17.4281 176.278 17.749 176.632 18.1641C176.992 18.5736 177.265 19.0578 177.454 19.6167C177.642 20.1701 177.736 20.7705 177.736 21.418V21.6089C177.736 22.2563 177.642 22.8568 177.454 23.4102C177.265 23.9635 176.992 24.4478 176.632 24.8628C176.278 25.2723 175.849 25.5933 175.345 25.8257C174.847 26.0526 174.283 26.166 173.652 26.166C173.021 26.166 172.454 26.0526 171.95 25.8257C171.447 25.5933 171.015 25.2723 170.655 24.8628C170.301 24.4478 170.03 23.9635 169.842 23.4102C169.654 22.8568 169.56 22.2563 169.56 21.6089ZM171.095 21.418V21.6089C171.095 22.0571 171.148 22.4805 171.253 22.8789C171.358 23.2718 171.516 23.6204 171.726 23.9248C171.942 24.2292 172.21 24.4699 172.531 24.647C172.852 24.8185 173.226 24.9043 173.652 24.9043C174.072 24.9043 174.44 24.8185 174.756 24.647C175.077 24.4699 175.342 24.2292 175.553 23.9248C175.763 23.6204 175.921 23.2718 176.026 22.8789C176.137 22.4805 176.192 22.0571 176.192 21.6089V21.418C176.192 20.9753 176.137 20.5575 176.026 20.1646C175.921 19.7661 175.76 19.4147 175.544 19.1104C175.334 18.8005 175.069 18.557 174.748 18.3799C174.432 18.2028 174.061 18.1143 173.635 18.1143C173.215 18.1143 172.844 18.2028 172.523 18.3799C172.208 18.557 171.942 18.8005 171.726 19.1104C171.516 19.4147 171.358 19.7661 171.253 20.1646C171.148 20.5575 171.095 20.9753 171.095 21.418ZM181.189 18.8032V26H179.645V17.0186H181.106L181.189 18.8032ZM180.874 21.1689L180.16 21.144C180.165 20.5298 180.245 19.9626 180.4 19.4424C180.555 18.9167 180.785 18.4601 181.089 18.0728C181.394 17.6854 181.773 17.3866 182.227 17.1763C182.68 16.9604 183.206 16.8525 183.804 16.8525C184.224 16.8525 184.612 16.9134 184.966 17.0352C185.32 17.1514 185.627 17.3368 185.887 17.5913C186.147 17.8459 186.349 18.1724 186.493 18.5708C186.637 18.9692 186.709 19.4507 186.709 20.0151V26H185.173V20.0898C185.173 19.6195 185.093 19.2432 184.933 18.9609C184.778 18.6787 184.556 18.474 184.269 18.3467C183.981 18.2139 183.643 18.1475 183.256 18.1475C182.802 18.1475 182.423 18.2277 182.119 18.3882C181.814 18.5487 181.571 18.77 181.388 19.0522C181.206 19.3345 181.073 19.6582 180.99 20.0234C180.912 20.3831 180.874 20.765 180.874 21.1689ZM186.692 20.3223L185.663 20.6377C185.669 20.1452 185.749 19.672 185.904 19.2183C186.064 18.7645 186.294 18.3605 186.593 18.0063C186.897 17.6522 187.271 17.3727 187.713 17.168C188.156 16.9577 188.662 16.8525 189.232 16.8525C189.714 16.8525 190.14 16.9162 190.511 17.0435C190.887 17.1707 191.202 17.3672 191.457 17.6328C191.717 17.8929 191.914 18.2277 192.046 18.6372C192.179 19.0467 192.246 19.5337 192.246 20.0981V26H190.702V20.0815C190.702 19.578 190.621 19.1878 190.461 18.9111C190.306 18.6289 190.085 18.4325 189.797 18.3218C189.515 18.2056 189.177 18.1475 188.784 18.1475C188.447 18.1475 188.148 18.2056 187.888 18.3218C187.628 18.438 187.409 18.5985 187.232 18.8032C187.055 19.0024 186.919 19.2321 186.825 19.4922C186.737 19.7523 186.692 20.029 186.692 20.3223Z" fill="#333333"/>
<path d="M10 15.68C10 14.2882 11.0233 13.16 12.2857 13.16H23.7143C24.9767 13.16 26 14.2882 26 15.68V25.48C26 26.8718 24.9767 28 23.7143 28H12.2857C11.0233 28 10 26.8718 10 25.48V15.68Z" fill="#555555"/>
<path fill-rule="evenodd" clip-rule="evenodd" d="M17.873 13.16C20.1172 13.16 20.0317 13.16 21.9365 13.16C21.9365 10.6858 20.1172 8.68 17.873 8.68C15.6288 8.68 13.8095 10.6858 13.8095 13.16C15.5873 13.16 15.6288 13.16 17.873 13.16ZM17.873 13.16C20.9588 13.16 20.2857 13.16 23.4603 13.16C23.4603 9.75793 20.9588 7 17.873 7C14.7872 7 12.2857 9.75793 12.2857 13.16C15.5873 13.16 14.7872 13.16 17.873 13.16Z" fill="#555555"/>
</svg>
