<svg width="1012" height="1118" viewBox="0 0 1012 1118" fill="none" xmlns="http://www.w3.org/2000/svg">
<path d="M407 178.754C431.442 157.365 443.932 147.485 447.299 120.695C447.993 115.178 449.654 103.328 449.583 97.7941C449.554 95.5057 446.271 76.273 449.583 76.0452C428.779 76.0452 429.721 59.0961 427.015 46.0731C424.321 33.106 431.784 20.8143 447.299 13.2837C471.506 1.53493 484.981 2.00258 514.631 2.00253C530.74 6.79993 543.103 7.52057 558.19 13.2837C570.821 18.1087 587.619 36.5377 581.63 46.0731C574.93 56.7417 572.043 75.9067 555.033 75.9067C551.673 87.1277 554.092 97.985 558.19 108.973C563.617 123.526 569.657 139.142 581.63 151.876C585.985 156.508 609.197 173.874 606.831 178.754C581.63 169.5 560.63 158 540 158C517.158 156.375 512.339 158 490 158C450.602 158 432 167.5 407 178.754Z" fill="#D9D9D9"/>
<path d="M449.583 76.0452C446.271 76.273 449.554 95.5057 449.583 97.7941C449.654 103.328 447.993 115.178 447.299 120.695C443.932 147.485 431.442 157.365 407 178.754C432 167.5 450.602 158 490 158C512.339 158 517.158 156.375 540 158C560.63 158 581.63 169.5 606.831 178.754C609.197 173.874 585.985 156.508 581.63 151.876C569.657 139.142 563.617 123.526 558.19 108.973C554.092 97.985 551.673 87.1277 555.033 75.9067M449.583 76.0452C457.371 75.5097 466.042 77.0151 473.897 77.1536C489.31 77.4254 504.517 74.0795 519.838 73.182C524.786 72.8921 556.491 71.0381 555.033 75.9067M449.583 76.0452C428.779 76.0452 429.721 59.0961 427.015 46.0731C424.321 33.106 431.784 20.8143 447.299 13.2837C471.506 1.53493 484.981 2.00258 514.631 2.00253C530.74 6.79993 543.103 7.52057 558.19 13.2837C570.821 18.1087 587.619 36.5377 581.63 46.0731C574.93 56.7417 572.043 75.9067 555.033 75.9067" stroke="black" stroke-width="3" stroke-linecap="round"/>
<path d="M207.357 1055.19C221.63 1064.86 262.428 1091.92 297.928 1096.99C350.586 1104.51 381.79 1117.48 435.559 1116.12C495.564 1114.62 553.196 1115.14 612.499 1103.23C694.266 1086.81 771.093 1055.61 834.83 1000.7C885.588 956.976 936.939 903.714 963.979 841.621C999.146 760.869 1016.91 666.757 1008.38 578.775C999.485 487.051 951.666 399.634 899.901 325.272C844.362 245.489 778.806 194.883 682.944 172.642C594.804 152.192 499.174 143.4 410.92 167.681C307.774 196.059 201.16 261.535 127.487 339.246C84.5645 384.52 51.2505 439.695 32.2372 499.07C1.54583 594.913 -11.4589 701.235 20.579 798.13C39.4211 855.116 57.9435 907.554 98.548 953.159C119.339 976.51 143.725 995.266 166.016 1016.99C179.386 1030.02 191.803 1044.65 207.357 1055.19Z" fill="#D9D9D9" stroke="black" stroke-width="3" stroke-linecap="round"/>
<path d="M234.337 1027.81C247.357 1036.55 284.576 1061.02 316.961 1065.61C364.998 1072.41 393.464 1084.13 442.515 1082.91C497.254 1081.55 549.829 1082.02 603.928 1071.25C678.52 1056.4 748.606 1028.19 806.75 978.539C853.054 939 899.898 890.838 924.566 834.69C956.646 761.669 972.853 676.568 965.07 597.01C956.956 514.068 913.333 435.02 866.11 367.778C815.445 295.634 755.641 249.873 668.191 229.761C587.786 211.269 500.547 203.319 420.038 225.275C325.942 250.936 228.684 310.144 161.475 380.414C122.319 421.353 91.9288 471.245 74.5839 524.936C46.5857 611.602 34.7221 707.745 63.9487 795.363C81.1374 846.893 98.0345 894.31 135.076 935.548C154.042 956.664 176.288 973.624 196.624 993.267C208.82 1005.05 220.148 1018.28 234.337 1027.81Z" fill="white" stroke="black" stroke-width="3" stroke-linecap="round"/>
<path d="M515 239C515.406 280.009 513.5 339 520.277 402.5C520.459 427.507 529.263 657.435 520.277 681.395" stroke="black" stroke-width="3" stroke-linecap="round"/>
<path d="M502.003 699.855C499.843 711.37 498.6 716.177 507.301 722.426C517.578 726.003 528.929 729.825 537.084 720.364C550.214 705.131 550.015 693.978 533.247 686.818C517.523 680.103 510.197 682.274 502.003 699.855Z" fill="black" stroke="black" stroke-width="3" stroke-linecap="round"/>
<path d="M509.5 681C494.271 620.473 482 583 465 514C465 514 431.193 368.744 423.044 334.958C419.414 319.908 412.252 277.314 405 263.5" stroke="black" stroke-width="3" stroke-linecap="round"/>
<path d="M562 329.349C618.989 318.667 668.057 346.908 721.329 364.024C771.463 380.132 805.749 398.734 834.513 444.672C867.404 497.201 884.31 567.601 882.921 628.997C881.652 685.092 860.018 727.991 835.645 777.344C823.162 802.62 799.623 819.908 784.538 844" stroke="#AC6DFB" stroke-width="10" stroke-linecap="round"/>
<path d="M554.508 955.238C528.45 959.167 502.79 965.455 476.622 968.632C421.862 975.282 365.906 959.754 315.392 939.198C209.561 896.131 153.083 793.164 144.406 681.809C140.684 634.039 154.4 590.385 168.301 545.384C182.66 498.898 206.614 465.885 242.301 433.019C289.323 389.714 343.493 358.193 407.169 349.51" stroke="#AC6DFB" stroke-width="10" stroke-linecap="round"/>
<path d="M337.22 327.186C347.321 329.224 419.24 332.616 419.24 339.836C419.24 361.809 399.679 382.863 387.821 400.111" stroke="#AC6DFB" stroke-width="10" stroke-linecap="round"/>
<path d="M579.702 837.528C579.066 831.807 578.507 822.761 579.702 817.052C588.44 816.123 606.699 816.324 615.47 815.886C628.102 815.254 631.367 813.848 645.996 813.848C655.139 813.848 661.347 808.896 661.347 818.262C661.347 822.373 664.81 833.029 659.58 833.702C649.153 835.042 643.384 835.757 626.184 835.757C619.611 835.757 614.918 835.965 608.378 835.757C605.921 835.679 597.475 834.6 595.426 836.405C595.426 839.449 594.466 867.371 596.981 865.834C615.849 854.303 644.618 858.697 661.693 871.007C670.163 877.113 679.089 884.191 682.342 894.551C687.534 911.084 687.214 934.873 678.67 949.975C668.178 968.519 647.788 981.164 627.652 986.823C616.769 989.882 605.371 985.655 595.426 978.948L595.211 978.803C587.798 973.805 579.702 968.347 579.702 951.53C579.702 934.549 577.524 942.637 595.426 939.763C600.61 947.885 599.749 962.49 610.206 962.49C622.183 962.49 628.972 961.231 639.618 956.221C664.729 944.404 664.497 899.872 639.618 885.997C626.723 878.805 614.958 881.453 600.802 885.997C595.426 887.723 590.164 890.355 586.173 894.551C581.66 899.295 580.786 889.296 581.084 884.788C582.088 869.606 581.381 852.643 579.702 837.528Z" fill="#F02424" stroke="black" stroke-width="3" stroke-linecap="round"/>
<path d="M760.531 807.03C767.37 810.231 768.406 810.395 772.973 818.289C777.563 832.061 781.351 847.091 775.478 861.546C773.576 866.228 771.965 871.272 769.603 875.76C768.417 878.014 760.702 882.241 760.531 883.859C760.4 885.105 768.629 885.911 769.603 886.256C773.774 887.736 776.634 891.641 779.107 895.155C784.636 903.013 792.177 907.655 795.522 916.927C799.15 926.981 801.418 945.018 797.25 955.288C792.404 967.231 783.545 976.339 772.973 983.453C760.029 992.163 746.585 992.764 731.675 988.853C706.952 982.369 690.813 965.805 697.202 939.088C700.59 924.922 707.474 906.006 717.376 894.939C721.531 890.295 731.567 890.156 720.789 887.077C715.332 885.518 711.07 884.932 706.058 881.591C697.321 875.766 695.281 870.059 695.604 859.257C696.197 839.379 699.054 820.467 717.03 809.103C731.469 799.975 745.606 800.043 760.531 807.03Z" fill="#F02424" stroke="black" stroke-width="3" stroke-linecap="round"/>
<path d="M721.653 853.771C724.098 855.349 726.195 859.041 735.077 856.168C740.094 852.823 746.781 852.515 748.609 844.872C751.24 833.868 747.185 821.475 732.279 825.173C721.489 827.85 709.127 845.689 721.653 853.771Z" fill="white" stroke="black" stroke-width="3" stroke-linecap="round"/>
<path d="M717.246 944.574C715.68 933.434 721.982 915.345 732.884 910.361C738.68 907.463 748.46 910.019 754.052 912.694C770.694 920.653 771.162 937.005 758.89 948.289C747.94 958.358 720.406 967.042 717.246 944.574Z" fill="white" stroke="black" stroke-width="3" stroke-linecap="round"/>
<path d="M866.571 924.638C866.631 925.915 864.984 932.26 865.787 937.043C865.787 940.988 865.665 943.742 866.571 946.787C868.945 954.761 860.792 946.844 858.569 945.621C852.834 942.465 838.758 930.928 832.094 934.602C827.823 936.957 829.318 945.877 832.6 948.48C838.648 953.277 843.682 957.178 851.43 959.277C857.518 960.926 864.849 959.648 865.232 967.881C865.618 976.162 863.868 985.968 856.844 991.751C851.788 995.913 844.159 995.621 837.806 995.137C833.522 994.811 829.188 995.667 824.955 995.137C820.349 994.561 813.995 991.764 809.962 989.586C808.526 988.81 811.088 980.551 811.42 978.9C812.89 971.586 815.884 971.619 821.385 975.819C827.852 980.756 842.957 986.163 849.585 979.011C852.142 976.253 852.166 969.448 848.574 967.354C844.695 965.092 838.486 966.332 834.147 965.439C819.287 962.38 811.331 948.151 818.116 935.7C820.736 930.893 824.606 927.214 830.19 924.638C835.062 922.39 842.621 922.498 847.622 924.305C850.697 925.415 853.739 928.622 855.059 931.41C856.641 934.751 856.212 927.431 855.892 926.303C854.346 920.854 856.859 922.326 861.484 922.806C863.808 922.806 866.463 922.326 866.571 924.638Z" fill="#F02424" stroke="black" stroke-width="3" stroke-linecap="round"/>
<path d="M425.813 227.127C424.839 228.09 417.096 237.69 420.235 239.139C422.142 240.02 425.145 243.47 426.875 243.088C428.083 242.821 430.211 238.578 430.992 237.687C432.788 235.642 432.961 235.67 435.551 234.748C442.409 232.306 449.429 235.492 450.125 243.189C450.798 250.621 446.575 257.232 440.101 260.742C436.004 262.964 431.758 264.83 427.352 266.351C425.761 266.9 419.614 267.69 419.434 269.429C418.999 273.633 418.783 277.094 419.31 281.307C419.524 283.015 419.139 286.779 421.495 287.14C428.735 288.247 435.813 286.104 443.03 286.278C448.686 286.414 454.166 286.835 459.834 286.345C464.321 285.957 469.839 286.187 474.116 284.621C476.548 283.73 475.666 279.892 475.737 277.904C475.799 276.196 475.92 274.305 476.661 272.732C476.835 272.364 477.682 271.523 477.607 271.075C477.327 269.403 446.599 272.865 443.728 273.605C440.609 274.41 437.233 275.441 433.974 275.441C433.104 275.441 435.505 274.618 436.272 274.21C437.524 273.544 438.776 273.007 440.101 272.508C444.443 270.875 448.88 268.561 452.862 266.194C455.66 264.532 459.026 262.938 461.276 260.552C465.225 256.362 468.811 248.948 468.124 243.088C467.415 237.043 465.135 229.078 460.487 224.908C454.942 219.932 446.489 219.217 439.359 220.659C433.998 221.743 429.794 223.194 425.813 227.127Z" fill="#F02424" stroke="black" stroke-width="3" stroke-linecap="round"/>
<path d="M506.844 246.323V244.713C507.567 243.517 510.564 245.417 510.175 246.323C509.343 248.26 509.014 249.907 508.766 251.981C508.423 254.839 508.236 257.798 507.319 260.542C507.113 261.16 505.277 259.726 504.878 259.391C502.829 257.676 502.083 255.436 499.385 254.327C497.711 253.639 495.825 252.036 494.005 251.834C492.09 251.622 489.224 253.656 488.513 255.331C487.254 258.295 489.524 259.718 492.197 260.677C496.152 262.096 500.883 260.7 504.629 262.753C506.919 264.007 508.016 265.615 509.353 267.806C511.765 271.756 513.905 276.089 512.608 280.777C510.715 287.62 502.93 291.13 496.232 290.748C492.904 290.558 488.625 288.983 485.936 287.026C485.033 286.369 481.432 284.469 481.483 283.056C481.522 281.975 484.03 276.554 485.45 277.405C486.5 278.034 487.073 279.227 488.23 279.92C490.742 281.424 493.684 283.314 496.695 283.371C499.792 283.431 505.106 282.832 506.324 279.401C508.076 274.471 503.704 267.804 498.888 266.452C495.515 265.506 492.18 267.471 488.942 266.926C485.145 266.287 482.146 263.012 482.24 259.155C482.32 255.87 484.738 253.419 486.693 251C489.25 247.835 497.007 242.896 500.515 247.322C501.549 248.627 502.251 250.127 503.352 251.372C504.18 252.309 505.363 255.917 505.081 254.699C504.866 253.767 505.73 252.548 506.053 251.733C506.816 249.81 506.148 248.272 506.844 246.323Z" fill="#F02424" stroke="black" stroke-width="3" stroke-linecap="round"/>
</svg>
