<svg width="744" height="537" viewBox="0 0 744 537" fill="none" xmlns="http://www.w3.org/2000/svg">
<rect width="744" height="537" fill="black" fill-opacity="0.3"/>
<g filter="url(#filter0_f_2_4)">
<circle cx="372" cy="268" r="146" fill="white"/>
</g>
<rect x="323" y="219" width="98" height="98" stroke="#666666" stroke-width="2"/>
<path d="M353.934 278H350.271V270.383H343.13V278H339.468V260.227H343.13V267.429H350.271V260.227H353.934V278ZM370.157 263.193H364.712V278H361.05V263.193H355.679V260.227H370.157V263.193ZM377.042 260.227L381.607 273.117L386.148 260.227H390.958V278H387.283V273.142L387.649 264.755L382.852 278H380.337L375.552 264.768L375.918 273.142V278H372.256V260.227H377.042ZM397.818 275.058H405.594V278H394.156V260.227H397.818V275.058Z" fill="#333333"/>
<g filter="url(#filter1_f_2_4)">
<circle cx="67" cy="287" r="58" fill="#CCCCCC"/>
<circle cx="67" cy="287" r="60" stroke="black" stroke-opacity="0.5" stroke-width="4"/>
<path d="M63.2354 290.232C62.9717 292.488 62.1367 294.231 60.7305 295.462C59.334 296.683 57.4736 297.293 55.1494 297.293C52.6299 297.293 50.6084 296.39 49.085 294.583C47.5713 292.776 46.8145 290.359 46.8145 287.332V285.281C46.8145 283.299 47.166 281.556 47.8691 280.052C48.582 278.548 49.5879 277.396 50.8867 276.595C52.1855 275.784 53.6895 275.379 55.3984 275.379C57.6641 275.379 59.4805 276.014 60.8477 277.283C62.2148 278.543 63.0107 280.291 63.2354 282.527H60.4082C60.1641 280.828 59.6318 279.598 58.8115 278.836C58.001 278.074 56.8633 277.693 55.3984 277.693C53.6016 277.693 52.1904 278.357 51.165 279.686C50.1494 281.014 49.6416 282.903 49.6416 285.354V287.42C49.6416 289.734 50.125 291.575 51.0918 292.942C52.0586 294.31 53.4111 294.993 55.1494 294.993C56.7119 294.993 57.9082 294.642 58.7383 293.938C59.5781 293.226 60.1348 291.99 60.4082 290.232H63.2354ZM69.915 294.7H80.0225V297H67.0879V275.672H69.915V294.7ZM86.248 297H83.4355V275.672H86.248V297Z" fill="black" fill-opacity="0.84"/>
</g>
<g filter="url(#filter2_f_2_4)">
<circle cx="200" cy="446" r="58" fill="#CCCCCC"/>
<circle cx="200" cy="446" r="60" stroke="black" stroke-opacity="0.5" stroke-width="4"/>
<path d="M179.668 456V434.672H186.641C188.955 434.672 190.693 435.15 191.855 436.107C193.027 437.064 193.613 438.48 193.613 440.355C193.613 441.352 193.33 442.235 192.764 443.007C192.197 443.769 191.426 444.359 190.449 444.779C191.602 445.102 192.51 445.717 193.174 446.625C193.848 447.523 194.185 448.598 194.185 449.848C194.185 451.762 193.564 453.266 192.324 454.359C191.084 455.453 189.331 456 187.065 456H179.668ZM182.48 446.024V453.7H187.124C188.433 453.7 189.463 453.363 190.215 452.689C190.977 452.006 191.357 451.068 191.357 449.877C191.357 447.309 189.961 446.024 187.168 446.024H182.48ZM182.48 443.769H186.729C187.959 443.769 188.94 443.461 189.673 442.846C190.415 442.23 190.786 441.396 190.786 440.341C190.786 439.169 190.444 438.319 189.761 437.792C189.077 437.255 188.037 436.986 186.641 436.986H182.48V443.769ZM197.217 447.929C197.217 446.376 197.52 444.979 198.125 443.739C198.74 442.499 199.59 441.542 200.674 440.868C201.768 440.194 203.013 439.857 204.409 439.857C206.567 439.857 208.311 440.604 209.639 442.099C210.977 443.593 211.646 445.58 211.646 448.061V448.251C211.646 449.794 211.348 451.181 210.752 452.411C210.166 453.632 209.321 454.584 208.218 455.268C207.124 455.951 205.864 456.293 204.438 456.293C202.29 456.293 200.547 455.546 199.209 454.052C197.881 452.558 197.217 450.58 197.217 448.119V447.929ZM199.941 448.251C199.941 450.009 200.347 451.42 201.157 452.484C201.978 453.549 203.071 454.081 204.438 454.081C205.815 454.081 206.909 453.544 207.72 452.47C208.53 451.386 208.936 449.872 208.936 447.929C208.936 446.19 208.521 444.784 207.69 443.71C206.87 442.626 205.776 442.084 204.409 442.084C203.071 442.084 201.992 442.616 201.172 443.681C200.352 444.745 199.941 446.269 199.941 448.251ZM218.721 436.312V440.15H221.68V442.245H218.721V452.074C218.721 452.709 218.853 453.188 219.116 453.51C219.38 453.822 219.829 453.979 220.464 453.979C220.776 453.979 221.206 453.92 221.753 453.803V456C221.04 456.195 220.347 456.293 219.673 456.293C218.462 456.293 217.549 455.927 216.934 455.194C216.318 454.462 216.011 453.422 216.011 452.074V442.245H213.125V440.15H216.011V436.312H218.721Z" fill="black" fill-opacity="0.84"/>
</g>
<g filter="url(#filter3_f_2_4)">
<circle cx="642" cy="471" r="58" fill="#CCCCCC"/>
<circle cx="642" cy="471" r="60" stroke="black" stroke-opacity="0.5" stroke-width="4"/>
<path d="M604.69 471.493C602.278 470.8 600.521 469.95 599.417 468.944C598.323 467.929 597.776 466.679 597.776 465.194C597.776 463.515 598.445 462.128 599.783 461.034C601.131 459.931 602.879 459.379 605.027 459.379C606.492 459.379 607.796 459.662 608.938 460.229C610.091 460.795 610.979 461.576 611.604 462.572C612.239 463.568 612.557 464.657 612.557 465.839H609.729C609.729 464.55 609.319 463.539 608.499 462.807C607.679 462.064 606.521 461.693 605.027 461.693C603.641 461.693 602.557 462.001 601.775 462.616C601.004 463.222 600.618 464.066 600.618 465.15C600.618 466.02 600.984 466.757 601.717 467.362C602.459 467.958 603.714 468.505 605.481 469.003C607.259 469.501 608.646 470.053 609.642 470.658C610.647 471.254 611.39 471.952 611.868 472.753C612.356 473.554 612.601 474.496 612.601 475.58C612.601 477.309 611.927 478.695 610.579 479.74C609.231 480.775 607.43 481.293 605.174 481.293C603.709 481.293 602.342 481.015 601.072 480.458C599.803 479.892 598.821 479.12 598.128 478.144C597.444 477.167 597.103 476.059 597.103 474.818H599.93C599.93 476.107 600.403 477.128 601.351 477.88C602.308 478.622 603.582 478.993 605.174 478.993C606.658 478.993 607.796 478.69 608.587 478.085C609.378 477.479 609.773 476.654 609.773 475.609C609.773 474.564 609.407 473.759 608.675 473.192C607.942 472.616 606.614 472.05 604.69 471.493ZM622.371 481.293C620.223 481.293 618.475 480.59 617.127 479.184C615.779 477.768 615.105 475.878 615.105 473.515V473.017C615.105 471.444 615.403 470.043 615.999 468.812C616.604 467.572 617.444 466.605 618.519 465.912C619.603 465.209 620.774 464.857 622.034 464.857C624.095 464.857 625.696 465.536 626.839 466.894C627.981 468.251 628.553 470.194 628.553 472.724V473.852H617.815C617.854 475.414 618.309 476.679 619.178 477.646C620.057 478.603 621.17 479.081 622.518 479.081C623.475 479.081 624.285 478.886 624.949 478.495C625.613 478.104 626.194 477.587 626.692 476.942L628.348 478.231C627.02 480.272 625.027 481.293 622.371 481.293ZM622.034 467.084C620.94 467.084 620.022 467.484 619.28 468.285C618.538 469.076 618.079 470.189 617.903 471.625H625.843V471.42C625.765 470.043 625.394 468.979 624.729 468.227C624.065 467.465 623.167 467.084 622.034 467.084ZM641.487 481C641.331 480.688 641.204 480.131 641.106 479.33C639.847 480.639 638.343 481.293 636.595 481.293C635.032 481.293 633.748 480.854 632.742 479.975C631.746 479.086 631.248 477.963 631.248 476.605C631.248 474.955 631.873 473.676 633.123 472.768C634.383 471.85 636.15 471.391 638.426 471.391H641.062V470.146C641.062 469.198 640.779 468.446 640.213 467.89C639.646 467.323 638.812 467.04 637.708 467.04C636.741 467.04 635.931 467.284 635.276 467.772C634.622 468.261 634.295 468.852 634.295 469.545H631.57C631.57 468.754 631.849 467.992 632.405 467.26C632.972 466.518 633.733 465.932 634.69 465.502C635.657 465.072 636.717 464.857 637.869 464.857C639.695 464.857 641.126 465.316 642.161 466.234C643.196 467.143 643.733 468.397 643.772 469.999V477.294C643.772 478.749 643.958 479.906 644.329 480.766V481H641.487ZM636.99 478.935C637.84 478.935 638.646 478.715 639.407 478.275C640.169 477.836 640.721 477.265 641.062 476.562V473.31H638.938C635.618 473.31 633.958 474.281 633.958 476.225C633.958 477.074 634.241 477.738 634.808 478.217C635.374 478.695 636.102 478.935 636.99 478.935ZM655.682 467.582C655.271 467.514 654.827 467.479 654.349 467.479C652.571 467.479 651.365 468.236 650.73 469.75V481H648.021V465.15H650.657L650.701 466.981C651.59 465.565 652.85 464.857 654.48 464.857C655.008 464.857 655.408 464.926 655.682 465.062V467.582ZM664.251 479.081C665.218 479.081 666.062 478.788 666.785 478.202C667.508 477.616 667.908 476.884 667.986 476.005H670.55C670.501 476.913 670.188 477.777 669.612 478.598C669.036 479.418 668.265 480.072 667.298 480.561C666.341 481.049 665.325 481.293 664.251 481.293C662.093 481.293 660.374 480.575 659.095 479.14C657.825 477.694 657.19 475.722 657.19 473.222V472.768C657.19 471.225 657.474 469.853 658.04 468.651C658.606 467.45 659.417 466.518 660.472 465.854C661.536 465.189 662.791 464.857 664.236 464.857C666.014 464.857 667.488 465.39 668.66 466.454C669.842 467.519 670.472 468.9 670.55 470.6H667.986C667.908 469.574 667.518 468.734 666.814 468.08C666.121 467.416 665.262 467.084 664.236 467.084C662.859 467.084 661.79 467.582 661.028 468.578C660.276 469.564 659.9 470.995 659.9 472.87V473.383C659.9 475.209 660.276 476.615 661.028 477.602C661.78 478.588 662.854 479.081 664.251 479.081ZM676.307 467.069C677.508 465.595 679.07 464.857 680.994 464.857C684.344 464.857 686.033 466.747 686.062 470.526V481H683.353V470.512C683.343 469.369 683.079 468.524 682.562 467.978C682.054 467.431 681.258 467.157 680.174 467.157C679.295 467.157 678.523 467.392 677.859 467.86C677.195 468.329 676.678 468.944 676.307 469.706V481H673.597V458.5H676.307V467.069Z" fill="black" fill-opacity="0.84"/>
</g>
<g filter="url(#filter4_f_2_4)">
<circle cx="675" cy="230" r="58" fill="#CCCCCC"/>
<circle cx="675" cy="230" r="60" stroke="black" stroke-opacity="0.5" stroke-width="4"/>
<path d="M655.254 230.493C652.842 229.8 651.084 228.95 649.98 227.944C648.887 226.929 648.34 225.679 648.34 224.194C648.34 222.515 649.009 221.128 650.347 220.034C651.694 218.931 653.442 218.379 655.591 218.379C657.056 218.379 658.359 218.662 659.502 219.229C660.654 219.795 661.543 220.576 662.168 221.572C662.803 222.568 663.12 223.657 663.12 224.839H660.293C660.293 223.55 659.883 222.539 659.062 221.807C658.242 221.064 657.085 220.693 655.591 220.693C654.204 220.693 653.12 221.001 652.339 221.616C651.567 222.222 651.182 223.066 651.182 224.15C651.182 225.02 651.548 225.757 652.28 226.362C653.022 226.958 654.277 227.505 656.045 228.003C657.822 228.501 659.209 229.053 660.205 229.658C661.211 230.254 661.953 230.952 662.432 231.753C662.92 232.554 663.164 233.496 663.164 234.58C663.164 236.309 662.49 237.695 661.143 238.74C659.795 239.775 657.993 240.293 655.737 240.293C654.272 240.293 652.905 240.015 651.636 239.458C650.366 238.892 649.385 238.12 648.691 237.144C648.008 236.167 647.666 235.059 647.666 233.818H650.493C650.493 235.107 650.967 236.128 651.914 236.88C652.871 237.622 654.146 237.993 655.737 237.993C657.222 237.993 658.359 237.69 659.15 237.085C659.941 236.479 660.337 235.654 660.337 234.609C660.337 233.564 659.971 232.759 659.238 232.192C658.506 231.616 657.178 231.05 655.254 230.493ZM683.174 240H680.347L669.609 223.564V240H666.782V218.672H669.609L680.376 235.181V218.672H683.174V240ZM694.453 230.493C692.041 229.8 690.283 228.95 689.18 227.944C688.086 226.929 687.539 225.679 687.539 224.194C687.539 222.515 688.208 221.128 689.546 220.034C690.894 218.931 692.642 218.379 694.79 218.379C696.255 218.379 697.559 218.662 698.701 219.229C699.854 219.795 700.742 220.576 701.367 221.572C702.002 222.568 702.319 223.657 702.319 224.839H699.492C699.492 223.55 699.082 222.539 698.262 221.807C697.441 221.064 696.284 220.693 694.79 220.693C693.403 220.693 692.319 221.001 691.538 221.616C690.767 222.222 690.381 223.066 690.381 224.15C690.381 225.02 690.747 225.757 691.479 226.362C692.222 226.958 693.477 227.505 695.244 228.003C697.021 228.501 698.408 229.053 699.404 229.658C700.41 230.254 701.152 230.952 701.631 231.753C702.119 232.554 702.363 233.496 702.363 234.58C702.363 236.309 701.689 237.695 700.342 238.74C698.994 239.775 697.192 240.293 694.937 240.293C693.472 240.293 692.104 240.015 690.835 239.458C689.565 238.892 688.584 238.12 687.891 237.144C687.207 236.167 686.865 235.059 686.865 233.818H689.692C689.692 235.107 690.166 236.128 691.113 236.88C692.07 237.622 693.345 237.993 694.937 237.993C696.421 237.993 697.559 237.69 698.35 237.085C699.141 236.479 699.536 235.654 699.536 234.609C699.536 233.564 699.17 232.759 698.438 232.192C697.705 231.616 696.377 231.05 694.453 230.493Z" fill="black" fill-opacity="0.84"/>
</g>
<g filter="url(#filter5_f_2_4)">
<circle cx="542" cy="71" r="58" fill="#CCCCCC"/>
<circle cx="542" cy="71" r="60" stroke="black" stroke-opacity="0.5" stroke-width="4"/>
<path d="M528.392 74.2324C528.128 76.4883 527.293 78.2314 525.887 79.4619C524.49 80.6826 522.63 81.293 520.306 81.293C517.786 81.293 515.765 80.3896 514.241 78.583C512.728 76.7764 511.971 74.3594 511.971 71.332V69.2812C511.971 67.2988 512.322 65.5557 513.025 64.0518C513.738 62.5479 514.744 61.3955 516.043 60.5947C517.342 59.7842 518.846 59.3789 520.555 59.3789C522.82 59.3789 524.637 60.0137 526.004 61.2832C527.371 62.543 528.167 64.291 528.392 66.5273H525.564C525.32 64.8281 524.788 63.5977 523.968 62.8359C523.157 62.0742 522.02 61.6934 520.555 61.6934C518.758 61.6934 517.347 62.3574 516.321 63.6855C515.306 65.0137 514.798 66.9033 514.798 69.3545V71.4199C514.798 73.7344 515.281 75.5752 516.248 76.9424C517.215 78.3096 518.567 78.9932 520.306 78.9932C521.868 78.9932 523.064 78.6416 523.895 77.9385C524.734 77.2256 525.291 75.9902 525.564 74.2324H528.392ZM535.877 59.6719L542.85 77.0742L549.822 59.6719H553.47V81H550.657V72.6943L550.921 63.7295L543.919 81H541.766L534.778 63.7734L535.057 72.6943V81H532.244V59.6719H535.877ZM564.72 71.4932C562.308 70.7998 560.55 69.9502 559.446 68.9443C558.353 67.9287 557.806 66.6787 557.806 65.1943C557.806 63.5146 558.475 62.1279 559.812 61.0342C561.16 59.9307 562.908 59.3789 565.057 59.3789C566.521 59.3789 567.825 59.6621 568.968 60.2285C570.12 60.7949 571.009 61.5762 571.634 62.5723C572.269 63.5684 572.586 64.6572 572.586 65.8389H569.759C569.759 64.5498 569.349 63.5391 568.528 62.8066C567.708 62.0645 566.551 61.6934 565.057 61.6934C563.67 61.6934 562.586 62.001 561.805 62.6162C561.033 63.2217 560.647 64.0664 560.647 65.1504C560.647 66.0195 561.014 66.7568 561.746 67.3623C562.488 67.958 563.743 68.5049 565.511 69.0029C567.288 69.501 568.675 70.0527 569.671 70.6582C570.677 71.2539 571.419 71.9521 571.897 72.7529C572.386 73.5537 572.63 74.4961 572.63 75.5801C572.63 77.3086 571.956 78.6953 570.608 79.7402C569.261 80.7754 567.459 81.293 565.203 81.293C563.738 81.293 562.371 81.0146 561.102 80.458C559.832 79.8916 558.851 79.1201 558.157 78.1436C557.474 77.167 557.132 76.0586 557.132 74.8184H559.959C559.959 76.1074 560.433 77.1279 561.38 77.8799C562.337 78.6221 563.611 78.9932 565.203 78.9932C566.688 78.9932 567.825 78.6904 568.616 78.085C569.407 77.4795 569.803 76.6543 569.803 75.6094C569.803 74.5645 569.437 73.7588 568.704 73.1924C567.972 72.6162 566.644 72.0498 564.72 71.4932Z" fill="black" fill-opacity="0.84"/>
</g>
<g filter="url(#filter6_f_2_4)">
<circle cx="189" cy="71" r="58" fill="#CCCCCC"/>
<circle cx="189" cy="71" r="60" stroke="black" stroke-opacity="0.5" stroke-width="4"/>
<path d="M157.359 63V41.6719H164.332C166.646 41.6719 168.385 42.1504 169.547 43.1074C170.719 44.0645 171.305 45.4805 171.305 47.3555C171.305 48.3516 171.021 49.2354 170.455 50.0068C169.889 50.7686 169.117 51.3594 168.141 51.7793C169.293 52.1016 170.201 52.7168 170.865 53.625C171.539 54.5234 171.876 55.5977 171.876 56.8477C171.876 58.7617 171.256 60.2656 170.016 61.3594C168.775 62.4531 167.022 63 164.757 63H157.359ZM160.172 53.0244V60.7002H164.815C166.124 60.7002 167.154 60.3633 167.906 59.6895C168.668 59.0059 169.049 58.0684 169.049 56.877C169.049 54.3086 167.652 53.0244 164.859 53.0244H160.172ZM160.172 50.7686H164.42C165.65 50.7686 166.632 50.4609 167.364 49.8457C168.106 49.2305 168.478 48.3955 168.478 47.3408C168.478 46.1689 168.136 45.3193 167.452 44.792C166.769 44.2549 165.729 43.9863 164.332 43.9863H160.172V50.7686ZM183.287 49.582C182.877 49.5137 182.433 49.4795 181.954 49.4795C180.177 49.4795 178.971 50.2363 178.336 51.75V63H175.626V47.1504H178.263L178.307 48.9814C179.195 47.5654 180.455 46.8574 182.086 46.8574C182.613 46.8574 183.014 46.9258 183.287 47.0625V49.582ZM184.781 54.9287C184.781 53.376 185.084 51.9795 185.689 50.7393C186.305 49.499 187.154 48.542 188.238 47.8682C189.332 47.1943 190.577 46.8574 191.974 46.8574C194.132 46.8574 195.875 47.6045 197.203 49.0986C198.541 50.5928 199.21 52.5801 199.21 55.0605V55.251C199.21 56.7939 198.912 58.1807 198.316 59.4111C197.73 60.6318 196.886 61.584 195.782 62.2676C194.688 62.9512 193.429 63.293 192.003 63.293C189.854 63.293 188.111 62.5459 186.773 61.0518C185.445 59.5576 184.781 57.5801 184.781 55.1191V54.9287ZM187.506 55.251C187.506 57.0088 187.911 58.4199 188.722 59.4844C189.542 60.5488 190.636 61.0811 192.003 61.0811C193.38 61.0811 194.474 60.5439 195.284 59.4697C196.095 58.3857 196.5 56.8721 196.5 54.9287C196.5 53.1904 196.085 51.7842 195.255 50.71C194.435 49.626 193.341 49.084 191.974 49.084C190.636 49.084 189.557 49.6162 188.736 50.6807C187.916 51.7451 187.506 53.2686 187.506 55.251ZM216.642 59.2646L219.688 47.1504H222.398L217.784 63H215.587L211.734 50.9883L207.984 63H205.787L201.188 47.1504H203.883L207.003 59.0156L210.694 47.1504H212.877L216.642 59.2646ZM179.508 93.7959C179.508 93.0635 179.229 92.4971 178.673 92.0967C178.126 91.6865 177.164 91.335 175.787 91.042C174.42 90.749 173.331 90.3975 172.521 89.9873C171.72 89.5771 171.124 89.0889 170.733 88.5225C170.353 87.9561 170.162 87.2822 170.162 86.501C170.162 85.2021 170.709 84.1035 171.803 83.2051C172.906 82.3066 174.312 81.8574 176.021 81.8574C177.818 81.8574 179.273 82.3213 180.387 83.249C181.51 84.1768 182.071 85.3633 182.071 86.8086H179.347C179.347 86.0664 179.029 85.4268 178.395 84.8896C177.77 84.3525 176.979 84.084 176.021 84.084C175.035 84.084 174.264 84.2988 173.707 84.7285C173.15 85.1582 172.872 85.7197 172.872 86.4131C172.872 87.0674 173.131 87.5605 173.648 87.8926C174.166 88.2246 175.099 88.542 176.446 88.8447C177.804 89.1475 178.902 89.5088 179.742 89.9287C180.582 90.3486 181.202 90.8564 181.603 91.4521C182.013 92.0381 182.218 92.7559 182.218 93.6055C182.218 95.0215 181.651 96.1592 180.519 97.0186C179.386 97.8682 177.916 98.293 176.109 98.293C174.84 98.293 173.717 98.0684 172.74 97.6191C171.764 97.1699 170.997 96.5449 170.44 95.7441C169.894 94.9336 169.62 94.0596 169.62 93.1221H172.33C172.379 94.0303 172.74 94.7529 173.414 95.29C174.098 95.8174 174.996 96.0811 176.109 96.0811C177.135 96.0811 177.955 95.876 178.57 95.4658C179.195 95.0459 179.508 94.4893 179.508 93.7959ZM192.325 98.293C190.177 98.293 188.429 97.5898 187.081 96.1836C185.733 94.7676 185.06 92.8779 185.06 90.5146V90.0166C185.06 88.4443 185.357 87.043 185.953 85.8125C186.559 84.5723 187.398 83.6055 188.473 82.9121C189.557 82.209 190.729 81.8574 191.988 81.8574C194.049 81.8574 195.65 82.5361 196.793 83.8936C197.936 85.251 198.507 87.1943 198.507 89.7236V90.8516H187.77C187.809 92.4141 188.263 93.6787 189.132 94.6455C190.011 95.6025 191.124 96.0811 192.472 96.0811C193.429 96.0811 194.239 95.8857 194.903 95.4951C195.567 95.1045 196.148 94.5869 196.646 93.9424L198.302 95.2314C196.974 97.2725 194.981 98.293 192.325 98.293ZM191.988 84.084C190.895 84.084 189.977 84.4844 189.234 85.2852C188.492 86.0762 188.033 87.1895 187.857 88.625H195.797V88.4199C195.719 87.043 195.348 85.9785 194.684 85.2266C194.02 84.4648 193.121 84.084 191.988 84.084ZM209.317 84.582C208.907 84.5137 208.463 84.4795 207.984 84.4795C206.207 84.4795 205.001 85.2363 204.366 86.75V98H201.656V82.1504H204.293L204.337 83.9814C205.226 82.5654 206.485 81.8574 208.116 81.8574C208.644 81.8574 209.044 81.9258 209.317 82.0625V84.582Z" fill="black" fill-opacity="0.84"/>
</g>
<defs>
<filter id="filter0_f_2_4" x="222" y="118" width="300" height="300" filterUnits="userSpaceOnUse" color-interpolation-filters="sRGB">
<feFlood flood-opacity="0" result="BackgroundImageFix"/>
<feBlend mode="normal" in="SourceGraphic" in2="BackgroundImageFix" result="shape"/>
<feGaussianBlur stdDeviation="2" result="effect1_foregroundBlur_2_4"/>
</filter>
<filter id="filter1_f_2_4" x="1" y="221" width="132" height="132" filterUnits="userSpaceOnUse" color-interpolation-filters="sRGB">
<feFlood flood-opacity="0" result="BackgroundImageFix"/>
<feBlend mode="normal" in="SourceGraphic" in2="BackgroundImageFix" result="shape"/>
<feGaussianBlur stdDeviation="2" result="effect1_foregroundBlur_2_4"/>
</filter>
<filter id="filter2_f_2_4" x="134" y="380" width="132" height="132" filterUnits="userSpaceOnUse" color-interpolation-filters="sRGB">
<feFlood flood-opacity="0" result="BackgroundImageFix"/>
<feBlend mode="normal" in="SourceGraphic" in2="BackgroundImageFix" result="shape"/>
<feGaussianBlur stdDeviation="2" result="effect1_foregroundBlur_2_4"/>
</filter>
<filter id="filter3_f_2_4" x="576" y="405" width="132" height="132" filterUnits="userSpaceOnUse" color-interpolation-filters="sRGB">
<feFlood flood-opacity="0" result="BackgroundImageFix"/>
<feBlend mode="normal" in="SourceGraphic" in2="BackgroundImageFix" result="shape"/>
<feGaussianBlur stdDeviation="2" result="effect1_foregroundBlur_2_4"/>
</filter>
<filter id="filter4_f_2_4" x="609" y="164" width="132" height="132" filterUnits="userSpaceOnUse" color-interpolation-filters="sRGB">
<feFlood flood-opacity="0" result="BackgroundImageFix"/>
<feBlend mode="normal" in="SourceGraphic" in2="BackgroundImageFix" result="shape"/>
<feGaussianBlur stdDeviation="2" result="effect1_foregroundBlur_2_4"/>
</filter>
<filter id="filter5_f_2_4" x="476" y="5" width="132" height="132" filterUnits="userSpaceOnUse" color-interpolation-filters="sRGB">
<feFlood flood-opacity="0" result="BackgroundImageFix"/>
<feBlend mode="normal" in="SourceGraphic" in2="BackgroundImageFix" result="shape"/>
<feGaussianBlur stdDeviation="2" result="effect1_foregroundBlur_2_4"/>
</filter>
<filter id="filter6_f_2_4" x="123" y="5" width="132" height="132" filterUnits="userSpaceOnUse" color-interpolation-filters="sRGB">
<feFlood flood-opacity="0" result="BackgroundImageFix"/>
<feBlend mode="normal" in="SourceGraphic" in2="BackgroundImageFix" result="shape"/>
<feGaussianBlur stdDeviation="2" result="effect1_foregroundBlur_2_4"/>
</filter>
</defs>
</svg>
