<svg width="749" height="538" viewBox="0 0 749 538" fill="none" xmlns="http://www.w3.org/2000/svg">
<g filter="url(#filter0_f_2_84)">
<circle cx="67" cy="289" r="58" fill="#CCCCCC"/>
<circle cx="67" cy="289" r="60" stroke="black" stroke-opacity="0.74" stroke-width="4"/>
<path d="M63.2354 292.232C62.9717 294.488 62.1367 296.231 60.7305 297.462C59.334 298.683 57.4736 299.293 55.1494 299.293C52.6299 299.293 50.6084 298.39 49.085 296.583C47.5713 294.776 46.8145 292.359 46.8145 289.332V287.281C46.8145 285.299 47.166 283.556 47.8691 282.052C48.582 280.548 49.5879 279.396 50.8867 278.595C52.1855 277.784 53.6895 277.379 55.3984 277.379C57.6641 277.379 59.4805 278.014 60.8477 279.283C62.2148 280.543 63.0107 282.291 63.2354 284.527H60.4082C60.1641 282.828 59.6318 281.598 58.8115 280.836C58.001 280.074 56.8633 279.693 55.3984 279.693C53.6016 279.693 52.1904 280.357 51.165 281.686C50.1494 283.014 49.6416 284.903 49.6416 287.354V289.42C49.6416 291.734 50.125 293.575 51.0918 294.942C52.0586 296.31 53.4111 296.993 55.1494 296.993C56.7119 296.993 57.9082 296.642 58.7383 295.938C59.5781 295.226 60.1348 293.99 60.4082 292.232H63.2354ZM69.915 296.7H80.0225V299H67.0879V277.672H69.915V296.7ZM86.248 299H83.4355V277.672H86.248V299Z" fill="black"/>
</g>
<g filter="url(#filter1_f_2_84)">
<circle cx="200" cy="447" r="58" fill="#CCCCCC"/>
<circle cx="200" cy="447" r="60" stroke="black" stroke-opacity="0.74" stroke-width="4"/>
<path d="M179.668 457V435.672H186.641C188.955 435.672 190.693 436.15 191.855 437.107C193.027 438.064 193.613 439.48 193.613 441.355C193.613 442.352 193.33 443.235 192.764 444.007C192.197 444.769 191.426 445.359 190.449 445.779C191.602 446.102 192.51 446.717 193.174 447.625C193.848 448.523 194.185 449.598 194.185 450.848C194.185 452.762 193.564 454.266 192.324 455.359C191.084 456.453 189.331 457 187.065 457H179.668ZM182.48 447.024V454.7H187.124C188.433 454.7 189.463 454.363 190.215 453.689C190.977 453.006 191.357 452.068 191.357 450.877C191.357 448.309 189.961 447.024 187.168 447.024H182.48ZM182.48 444.769H186.729C187.959 444.769 188.94 444.461 189.673 443.846C190.415 443.23 190.786 442.396 190.786 441.341C190.786 440.169 190.444 439.319 189.761 438.792C189.077 438.255 188.037 437.986 186.641 437.986H182.48V444.769ZM197.217 448.929C197.217 447.376 197.52 445.979 198.125 444.739C198.74 443.499 199.59 442.542 200.674 441.868C201.768 441.194 203.013 440.857 204.409 440.857C206.567 440.857 208.311 441.604 209.639 443.099C210.977 444.593 211.646 446.58 211.646 449.061V449.251C211.646 450.794 211.348 452.181 210.752 453.411C210.166 454.632 209.321 455.584 208.218 456.268C207.124 456.951 205.864 457.293 204.438 457.293C202.29 457.293 200.547 456.546 199.209 455.052C197.881 453.558 197.217 451.58 197.217 449.119V448.929ZM199.941 449.251C199.941 451.009 200.347 452.42 201.157 453.484C201.978 454.549 203.071 455.081 204.438 455.081C205.815 455.081 206.909 454.544 207.72 453.47C208.53 452.386 208.936 450.872 208.936 448.929C208.936 447.19 208.521 445.784 207.69 444.71C206.87 443.626 205.776 443.084 204.409 443.084C203.071 443.084 201.992 443.616 201.172 444.681C200.352 445.745 199.941 447.269 199.941 449.251ZM218.721 437.312V441.15H221.68V443.245H218.721V453.074C218.721 453.709 218.853 454.188 219.116 454.51C219.38 454.822 219.829 454.979 220.464 454.979C220.776 454.979 221.206 454.92 221.753 454.803V457C221.04 457.195 220.347 457.293 219.673 457.293C218.462 457.293 217.549 456.927 216.934 456.194C216.318 455.462 216.011 454.422 216.011 453.074V443.245H213.125V441.15H216.011V437.312H218.721Z" fill="black"/>
</g>
<g filter="url(#filter2_f_2_84)">
<circle cx="642" cy="472" r="58" fill="#CCCCCC"/>
<circle cx="642" cy="472" r="60" stroke="black" stroke-opacity="0.74" stroke-width="4"/>
<path d="M604.69 472.493C602.278 471.8 600.521 470.95 599.417 469.944C598.323 468.929 597.776 467.679 597.776 466.194C597.776 464.515 598.445 463.128 599.783 462.034C601.131 460.931 602.879 460.379 605.027 460.379C606.492 460.379 607.796 460.662 608.938 461.229C610.091 461.795 610.979 462.576 611.604 463.572C612.239 464.568 612.557 465.657 612.557 466.839H609.729C609.729 465.55 609.319 464.539 608.499 463.807C607.679 463.064 606.521 462.693 605.027 462.693C603.641 462.693 602.557 463.001 601.775 463.616C601.004 464.222 600.618 465.066 600.618 466.15C600.618 467.02 600.984 467.757 601.717 468.362C602.459 468.958 603.714 469.505 605.481 470.003C607.259 470.501 608.646 471.053 609.642 471.658C610.647 472.254 611.39 472.952 611.868 473.753C612.356 474.554 612.601 475.496 612.601 476.58C612.601 478.309 611.927 479.695 610.579 480.74C609.231 481.775 607.43 482.293 605.174 482.293C603.709 482.293 602.342 482.015 601.072 481.458C599.803 480.892 598.821 480.12 598.128 479.144C597.444 478.167 597.103 477.059 597.103 475.818H599.93C599.93 477.107 600.403 478.128 601.351 478.88C602.308 479.622 603.582 479.993 605.174 479.993C606.658 479.993 607.796 479.69 608.587 479.085C609.378 478.479 609.773 477.654 609.773 476.609C609.773 475.564 609.407 474.759 608.675 474.192C607.942 473.616 606.614 473.05 604.69 472.493ZM622.371 482.293C620.223 482.293 618.475 481.59 617.127 480.184C615.779 478.768 615.105 476.878 615.105 474.515V474.017C615.105 472.444 615.403 471.043 615.999 469.812C616.604 468.572 617.444 467.605 618.519 466.912C619.603 466.209 620.774 465.857 622.034 465.857C624.095 465.857 625.696 466.536 626.839 467.894C627.981 469.251 628.553 471.194 628.553 473.724V474.852H617.815C617.854 476.414 618.309 477.679 619.178 478.646C620.057 479.603 621.17 480.081 622.518 480.081C623.475 480.081 624.285 479.886 624.949 479.495C625.613 479.104 626.194 478.587 626.692 477.942L628.348 479.231C627.02 481.272 625.027 482.293 622.371 482.293ZM622.034 468.084C620.94 468.084 620.022 468.484 619.28 469.285C618.538 470.076 618.079 471.189 617.903 472.625H625.843V472.42C625.765 471.043 625.394 469.979 624.729 469.227C624.065 468.465 623.167 468.084 622.034 468.084ZM641.487 482C641.331 481.688 641.204 481.131 641.106 480.33C639.847 481.639 638.343 482.293 636.595 482.293C635.032 482.293 633.748 481.854 632.742 480.975C631.746 480.086 631.248 478.963 631.248 477.605C631.248 475.955 631.873 474.676 633.123 473.768C634.383 472.85 636.15 472.391 638.426 472.391H641.062V471.146C641.062 470.198 640.779 469.446 640.213 468.89C639.646 468.323 638.812 468.04 637.708 468.04C636.741 468.04 635.931 468.284 635.276 468.772C634.622 469.261 634.295 469.852 634.295 470.545H631.57C631.57 469.754 631.849 468.992 632.405 468.26C632.972 467.518 633.733 466.932 634.69 466.502C635.657 466.072 636.717 465.857 637.869 465.857C639.695 465.857 641.126 466.316 642.161 467.234C643.196 468.143 643.733 469.397 643.772 470.999V478.294C643.772 479.749 643.958 480.906 644.329 481.766V482H641.487ZM636.99 479.935C637.84 479.935 638.646 479.715 639.407 479.275C640.169 478.836 640.721 478.265 641.062 477.562V474.31H638.938C635.618 474.31 633.958 475.281 633.958 477.225C633.958 478.074 634.241 478.738 634.808 479.217C635.374 479.695 636.102 479.935 636.99 479.935ZM655.682 468.582C655.271 468.514 654.827 468.479 654.349 468.479C652.571 468.479 651.365 469.236 650.73 470.75V482H648.021V466.15H650.657L650.701 467.981C651.59 466.565 652.85 465.857 654.48 465.857C655.008 465.857 655.408 465.926 655.682 466.062V468.582ZM664.251 480.081C665.218 480.081 666.062 479.788 666.785 479.202C667.508 478.616 667.908 477.884 667.986 477.005H670.55C670.501 477.913 670.188 478.777 669.612 479.598C669.036 480.418 668.265 481.072 667.298 481.561C666.341 482.049 665.325 482.293 664.251 482.293C662.093 482.293 660.374 481.575 659.095 480.14C657.825 478.694 657.19 476.722 657.19 474.222V473.768C657.19 472.225 657.474 470.853 658.04 469.651C658.606 468.45 659.417 467.518 660.472 466.854C661.536 466.189 662.791 465.857 664.236 465.857C666.014 465.857 667.488 466.39 668.66 467.454C669.842 468.519 670.472 469.9 670.55 471.6H667.986C667.908 470.574 667.518 469.734 666.814 469.08C666.121 468.416 665.262 468.084 664.236 468.084C662.859 468.084 661.79 468.582 661.028 469.578C660.276 470.564 659.9 471.995 659.9 473.87V474.383C659.9 476.209 660.276 477.615 661.028 478.602C661.78 479.588 662.854 480.081 664.251 480.081ZM676.307 468.069C677.508 466.595 679.07 465.857 680.994 465.857C684.344 465.857 686.033 467.747 686.062 471.526V482H683.353V471.512C683.343 470.369 683.079 469.524 682.562 468.978C682.054 468.431 681.258 468.157 680.174 468.157C679.295 468.157 678.523 468.392 677.859 468.86C677.195 469.329 676.678 469.944 676.307 470.706V482H673.597V459.5H676.307V468.069Z" fill="black"/>
</g>
<g filter="url(#filter3_f_2_84)">
<circle cx="542" cy="72" r="58" fill="#CCCCCC"/>
<circle cx="542" cy="72" r="60" stroke="black" stroke-opacity="0.74" stroke-width="4"/>
<path d="M528.392 75.2324C528.128 77.4883 527.293 79.2314 525.887 80.4619C524.49 81.6826 522.63 82.293 520.306 82.293C517.786 82.293 515.765 81.3896 514.241 79.583C512.728 77.7764 511.971 75.3594 511.971 72.332V70.2812C511.971 68.2988 512.322 66.5557 513.025 65.0518C513.738 63.5479 514.744 62.3955 516.043 61.5947C517.342 60.7842 518.846 60.3789 520.555 60.3789C522.82 60.3789 524.637 61.0137 526.004 62.2832C527.371 63.543 528.167 65.291 528.392 67.5273H525.564C525.32 65.8281 524.788 64.5977 523.968 63.8359C523.157 63.0742 522.02 62.6934 520.555 62.6934C518.758 62.6934 517.347 63.3574 516.321 64.6855C515.306 66.0137 514.798 67.9033 514.798 70.3545V72.4199C514.798 74.7344 515.281 76.5752 516.248 77.9424C517.215 79.3096 518.567 79.9932 520.306 79.9932C521.868 79.9932 523.064 79.6416 523.895 78.9385C524.734 78.2256 525.291 76.9902 525.564 75.2324H528.392ZM535.877 60.6719L542.85 78.0742L549.822 60.6719H553.47V82H550.657V73.6943L550.921 64.7295L543.919 82H541.766L534.778 64.7734L535.057 73.6943V82H532.244V60.6719H535.877ZM564.72 72.4932C562.308 71.7998 560.55 70.9502 559.446 69.9443C558.353 68.9287 557.806 67.6787 557.806 66.1943C557.806 64.5146 558.475 63.1279 559.812 62.0342C561.16 60.9307 562.908 60.3789 565.057 60.3789C566.521 60.3789 567.825 60.6621 568.968 61.2285C570.12 61.7949 571.009 62.5762 571.634 63.5723C572.269 64.5684 572.586 65.6572 572.586 66.8389H569.759C569.759 65.5498 569.349 64.5391 568.528 63.8066C567.708 63.0645 566.551 62.6934 565.057 62.6934C563.67 62.6934 562.586 63.001 561.805 63.6162C561.033 64.2217 560.647 65.0664 560.647 66.1504C560.647 67.0195 561.014 67.7568 561.746 68.3623C562.488 68.958 563.743 69.5049 565.511 70.0029C567.288 70.501 568.675 71.0527 569.671 71.6582C570.677 72.2539 571.419 72.9521 571.897 73.7529C572.386 74.5537 572.63 75.4961 572.63 76.5801C572.63 78.3086 571.956 79.6953 570.608 80.7402C569.261 81.7754 567.459 82.293 565.203 82.293C563.738 82.293 562.371 82.0146 561.102 81.458C559.832 80.8916 558.851 80.1201 558.157 79.1436C557.474 78.167 557.132 77.0586 557.132 75.8184H559.959C559.959 77.1074 560.433 78.1279 561.38 78.8799C562.337 79.6221 563.611 79.9932 565.203 79.9932C566.688 79.9932 567.825 79.6904 568.616 79.085C569.407 78.4795 569.803 77.6543 569.803 76.6094C569.803 75.5645 569.437 74.7588 568.704 74.1924C567.972 73.6162 566.644 73.0498 564.72 72.4932Z" fill="black"/>
</g>
<g filter="url(#filter4_f_2_84)">
<circle cx="189" cy="72" r="58" fill="#CCCCCC"/>
<circle cx="189" cy="72" r="60" stroke="black" stroke-opacity="0.74" stroke-width="4"/>
<path d="M157.359 64V42.6719H164.332C166.646 42.6719 168.385 43.1504 169.547 44.1074C170.719 45.0645 171.305 46.4805 171.305 48.3555C171.305 49.3516 171.021 50.2354 170.455 51.0068C169.889 51.7686 169.117 52.3594 168.141 52.7793C169.293 53.1016 170.201 53.7168 170.865 54.625C171.539 55.5234 171.876 56.5977 171.876 57.8477C171.876 59.7617 171.256 61.2656 170.016 62.3594C168.775 63.4531 167.022 64 164.757 64H157.359ZM160.172 54.0244V61.7002H164.815C166.124 61.7002 167.154 61.3633 167.906 60.6895C168.668 60.0059 169.049 59.0684 169.049 57.877C169.049 55.3086 167.652 54.0244 164.859 54.0244H160.172ZM160.172 51.7686H164.42C165.65 51.7686 166.632 51.4609 167.364 50.8457C168.106 50.2305 168.478 49.3955 168.478 48.3408C168.478 47.1689 168.136 46.3193 167.452 45.792C166.769 45.2549 165.729 44.9863 164.332 44.9863H160.172V51.7686ZM183.287 50.582C182.877 50.5137 182.433 50.4795 181.954 50.4795C180.177 50.4795 178.971 51.2363 178.336 52.75V64H175.626V48.1504H178.263L178.307 49.9814C179.195 48.5654 180.455 47.8574 182.086 47.8574C182.613 47.8574 183.014 47.9258 183.287 48.0625V50.582ZM184.781 55.9287C184.781 54.376 185.084 52.9795 185.689 51.7393C186.305 50.499 187.154 49.542 188.238 48.8682C189.332 48.1943 190.577 47.8574 191.974 47.8574C194.132 47.8574 195.875 48.6045 197.203 50.0986C198.541 51.5928 199.21 53.5801 199.21 56.0605V56.251C199.21 57.7939 198.912 59.1807 198.316 60.4111C197.73 61.6318 196.886 62.584 195.782 63.2676C194.688 63.9512 193.429 64.293 192.003 64.293C189.854 64.293 188.111 63.5459 186.773 62.0518C185.445 60.5576 184.781 58.5801 184.781 56.1191V55.9287ZM187.506 56.251C187.506 58.0088 187.911 59.4199 188.722 60.4844C189.542 61.5488 190.636 62.0811 192.003 62.0811C193.38 62.0811 194.474 61.5439 195.284 60.4697C196.095 59.3857 196.5 57.8721 196.5 55.9287C196.5 54.1904 196.085 52.7842 195.255 51.71C194.435 50.626 193.341 50.084 191.974 50.084C190.636 50.084 189.557 50.6162 188.736 51.6807C187.916 52.7451 187.506 54.2686 187.506 56.251ZM216.642 60.2646L219.688 48.1504H222.398L217.784 64H215.587L211.734 51.9883L207.984 64H205.787L201.188 48.1504H203.883L207.003 60.0156L210.694 48.1504H212.877L216.642 60.2646ZM179.508 94.7959C179.508 94.0635 179.229 93.4971 178.673 93.0967C178.126 92.6865 177.164 92.335 175.787 92.042C174.42 91.749 173.331 91.3975 172.521 90.9873C171.72 90.5771 171.124 90.0889 170.733 89.5225C170.353 88.9561 170.162 88.2822 170.162 87.501C170.162 86.2021 170.709 85.1035 171.803 84.2051C172.906 83.3066 174.312 82.8574 176.021 82.8574C177.818 82.8574 179.273 83.3213 180.387 84.249C181.51 85.1768 182.071 86.3633 182.071 87.8086H179.347C179.347 87.0664 179.029 86.4268 178.395 85.8896C177.77 85.3525 176.979 85.084 176.021 85.084C175.035 85.084 174.264 85.2988 173.707 85.7285C173.15 86.1582 172.872 86.7197 172.872 87.4131C172.872 88.0674 173.131 88.5605 173.648 88.8926C174.166 89.2246 175.099 89.542 176.446 89.8447C177.804 90.1475 178.902 90.5088 179.742 90.9287C180.582 91.3486 181.202 91.8564 181.603 92.4521C182.013 93.0381 182.218 93.7559 182.218 94.6055C182.218 96.0215 181.651 97.1592 180.519 98.0186C179.386 98.8682 177.916 99.293 176.109 99.293C174.84 99.293 173.717 99.0684 172.74 98.6191C171.764 98.1699 170.997 97.5449 170.44 96.7441C169.894 95.9336 169.62 95.0596 169.62 94.1221H172.33C172.379 95.0303 172.74 95.7529 173.414 96.29C174.098 96.8174 174.996 97.0811 176.109 97.0811C177.135 97.0811 177.955 96.876 178.57 96.4658C179.195 96.0459 179.508 95.4893 179.508 94.7959ZM192.325 99.293C190.177 99.293 188.429 98.5898 187.081 97.1836C185.733 95.7676 185.06 93.8779 185.06 91.5146V91.0166C185.06 89.4443 185.357 88.043 185.953 86.8125C186.559 85.5723 187.398 84.6055 188.473 83.9121C189.557 83.209 190.729 82.8574 191.988 82.8574C194.049 82.8574 195.65 83.5361 196.793 84.8936C197.936 86.251 198.507 88.1943 198.507 90.7236V91.8516H187.77C187.809 93.4141 188.263 94.6787 189.132 95.6455C190.011 96.6025 191.124 97.0811 192.472 97.0811C193.429 97.0811 194.239 96.8857 194.903 96.4951C195.567 96.1045 196.148 95.5869 196.646 94.9424L198.302 96.2314C196.974 98.2725 194.981 99.293 192.325 99.293ZM191.988 85.084C190.895 85.084 189.977 85.4844 189.234 86.2852C188.492 87.0762 188.033 88.1895 187.857 89.625H195.797V89.4199C195.719 88.043 195.348 86.9785 194.684 86.2266C194.02 85.4648 193.121 85.084 191.988 85.084ZM209.317 85.582C208.907 85.5137 208.463 85.4795 207.984 85.4795C206.207 85.4795 205.001 86.2363 204.366 87.75V99H201.656V83.1504H204.293L204.337 84.9814C205.226 83.5654 206.485 82.8574 208.116 82.8574C208.644 82.8574 209.044 82.9258 209.317 83.0625V85.582Z" fill="black"/>
</g>
<rect width="744" height="537" fill="black" fill-opacity="0.74"/>
<g filter="url(#filter5_f_2_84)">
<path d="M518 268C518 348.634 452.634 414 372 414C291.366 414 226 348.634 226 268C226 187.366 291.366 122 372 122C452.634 122 518 187.366 518 268Z" fill="white"/>
<path d="M744.968 201.35L412 128L417.47 381.459C417.712 392.679 417.834 398.289 421.569 400.906C425.304 403.523 430.618 401.721 441.246 398.117L744.927 295.143L744.968 201.35Z" fill="white"/>
</g>
<rect x="323" y="219" width="98" height="98" stroke="#666666" stroke-width="2"/>
<path d="M353.934 278H350.271V270.383H343.13V278H339.468V260.227H343.13V267.429H350.271V260.227H353.934V278ZM370.157 263.193H364.712V278H361.05V263.193H355.679V260.227H370.157V263.193ZM377.042 260.227L381.607 273.117L386.148 260.227H390.958V278H387.283V273.142L387.649 264.755L382.852 278H380.337L375.552 264.768L375.918 273.142V278H372.256V260.227H377.042ZM397.818 275.058H405.594V278H394.156V260.227H397.818V275.058Z" fill="#333333"/>
<circle cx="631" cy="253" r="58" fill="#CCCCCC"/>
<circle cx="631" cy="253" r="60" stroke="black" stroke-opacity="0.74" stroke-width="4"/>
<path d="M611.254 253.493C608.842 252.8 607.084 251.95 605.98 250.944C604.887 249.929 604.34 248.679 604.34 247.194C604.34 245.515 605.009 244.128 606.347 243.034C607.694 241.931 609.442 241.379 611.591 241.379C613.056 241.379 614.359 241.662 615.502 242.229C616.654 242.795 617.543 243.576 618.168 244.572C618.803 245.568 619.12 246.657 619.12 247.839H616.293C616.293 246.55 615.883 245.539 615.062 244.807C614.242 244.064 613.085 243.693 611.591 243.693C610.204 243.693 609.12 244.001 608.339 244.616C607.567 245.222 607.182 246.066 607.182 247.15C607.182 248.02 607.548 248.757 608.28 249.362C609.022 249.958 610.277 250.505 612.045 251.003C613.822 251.501 615.209 252.053 616.205 252.658C617.211 253.254 617.953 253.952 618.432 254.753C618.92 255.554 619.164 256.496 619.164 257.58C619.164 259.309 618.49 260.695 617.143 261.74C615.795 262.775 613.993 263.293 611.737 263.293C610.272 263.293 608.905 263.015 607.636 262.458C606.366 261.892 605.385 261.12 604.691 260.144C604.008 259.167 603.666 258.059 603.666 256.818H606.493C606.493 258.107 606.967 259.128 607.914 259.88C608.871 260.622 610.146 260.993 611.737 260.993C613.222 260.993 614.359 260.69 615.15 260.085C615.941 259.479 616.337 258.654 616.337 257.609C616.337 256.564 615.971 255.759 615.238 255.192C614.506 254.616 613.178 254.05 611.254 253.493ZM639.174 263H636.347L625.609 246.564V263H622.782V241.672H625.609L636.376 258.181V241.672H639.174V263ZM650.453 253.493C648.041 252.8 646.283 251.95 645.18 250.944C644.086 249.929 643.539 248.679 643.539 247.194C643.539 245.515 644.208 244.128 645.546 243.034C646.894 241.931 648.642 241.379 650.79 241.379C652.255 241.379 653.559 241.662 654.701 242.229C655.854 242.795 656.742 243.576 657.367 244.572C658.002 245.568 658.319 246.657 658.319 247.839H655.492C655.492 246.55 655.082 245.539 654.262 244.807C653.441 244.064 652.284 243.693 650.79 243.693C649.403 243.693 648.319 244.001 647.538 244.616C646.767 245.222 646.381 246.066 646.381 247.15C646.381 248.02 646.747 248.757 647.479 249.362C648.222 249.958 649.477 250.505 651.244 251.003C653.021 251.501 654.408 252.053 655.404 252.658C656.41 253.254 657.152 253.952 657.631 254.753C658.119 255.554 658.363 256.496 658.363 257.58C658.363 259.309 657.689 260.695 656.342 261.74C654.994 262.775 653.192 263.293 650.937 263.293C649.472 263.293 648.104 263.015 646.835 262.458C645.565 261.892 644.584 261.12 643.891 260.144C643.207 259.167 642.865 258.059 642.865 256.818H645.692C645.692 258.107 646.166 259.128 647.113 259.88C648.07 260.622 649.345 260.993 650.937 260.993C652.421 260.993 653.559 260.69 654.35 260.085C655.141 259.479 655.536 258.654 655.536 257.609C655.536 256.564 655.17 255.759 654.438 255.192C653.705 254.616 652.377 254.05 650.453 253.493Z" fill="black"/>
<defs>
<filter id="filter0_f_2_84" x="1" y="223" width="132" height="132" filterUnits="userSpaceOnUse" color-interpolation-filters="sRGB">
<feFlood flood-opacity="0" result="BackgroundImageFix"/>
<feBlend mode="normal" in="SourceGraphic" in2="BackgroundImageFix" result="shape"/>
<feGaussianBlur stdDeviation="2" result="effect1_foregroundBlur_2_84"/>
</filter>
<filter id="filter1_f_2_84" x="134" y="381" width="132" height="132" filterUnits="userSpaceOnUse" color-interpolation-filters="sRGB">
<feFlood flood-opacity="0" result="BackgroundImageFix"/>
<feBlend mode="normal" in="SourceGraphic" in2="BackgroundImageFix" result="shape"/>
<feGaussianBlur stdDeviation="2" result="effect1_foregroundBlur_2_84"/>
</filter>
<filter id="filter2_f_2_84" x="576" y="406" width="132" height="132" filterUnits="userSpaceOnUse" color-interpolation-filters="sRGB">
<feFlood flood-opacity="0" result="BackgroundImageFix"/>
<feBlend mode="normal" in="SourceGraphic" in2="BackgroundImageFix" result="shape"/>
<feGaussianBlur stdDeviation="2" result="effect1_foregroundBlur_2_84"/>
</filter>
<filter id="filter3_f_2_84" x="476" y="6" width="132" height="132" filterUnits="userSpaceOnUse" color-interpolation-filters="sRGB">
<feFlood flood-opacity="0" result="BackgroundImageFix"/>
<feBlend mode="normal" in="SourceGraphic" in2="BackgroundImageFix" result="shape"/>
<feGaussianBlur stdDeviation="2" result="effect1_foregroundBlur_2_84"/>
</filter>
<filter id="filter4_f_2_84" x="123" y="6" width="132" height="132" filterUnits="userSpaceOnUse" color-interpolation-filters="sRGB">
<feFlood flood-opacity="0" result="BackgroundImageFix"/>
<feBlend mode="normal" in="SourceGraphic" in2="BackgroundImageFix" result="shape"/>
<feGaussianBlur stdDeviation="2" result="effect1_foregroundBlur_2_84"/>
</filter>
<filter id="filter5_f_2_84" x="222" y="118" width="526.968" height="300" filterUnits="userSpaceOnUse" color-interpolation-filters="sRGB">
<feFlood flood-opacity="0" result="BackgroundImageFix"/>
<feBlend mode="normal" in="SourceGraphic" in2="BackgroundImageFix" result="shape"/>
<feGaussianBlur stdDeviation="2" result="effect1_foregroundBlur_2_84"/>
</filter>
</defs>
</svg>
