<?xml version="1.0" encoding="utf-8"?>
<svg contentScriptType="text/ecmascript" xmlns:xlink="http://www.w3.org/1999/xlink" zoomAndPan="magnify" contentStyleType="text/css" viewBox="7.179499999999962 -13.543068153385455 559.8205 569.1869689755483" xmlns:cacoo="http://cacoo.com/" preserveAspectRatio="xMidYMin meet" xmlns="http://www.w3.org/2000/svg" version="1.1"><defs><linearGradient x1="0%" xmlns:xlink="http://www.w3.org/1999/xlink" y1="0%" x2="0%" y2="100%" xlink:type="simple" xlink:actuate="onLoad" id="id0" xlink:show="other"><stop stop-opacity="1.0" stop-color="#ffffff" offset="0%"/><stop stop-opacity="1.0" stop-color="#d4d4d4" offset="100%"/></linearGradient><linearGradient x1="0%" xmlns:xlink="http://www.w3.org/1999/xlink" y1="0%" x2="0%" y2="100%" xlink:type="simple" xlink:actuate="onLoad" id="id4" xlink:show="other"><stop stop-opacity="1.0" stop-color="#ffffff" offset="0%"/><stop stop-opacity="1.0" stop-color="#d4d4d4" offset="100%"/></linearGradient><linearGradient x1="0%" xmlns:xlink="http://www.w3.org/1999/xlink" y1="0%" x2="0%" y2="100%" xlink:type="simple" xlink:actuate="onLoad" id="id14" xlink:show="other"><stop stop-opacity="1.0" stop-color="#ffffff" offset="0%"/><stop stop-opacity="1.0" stop-color="#d4d4d4" offset="100%"/></linearGradient><linearGradient x1="0%" xmlns:xlink="http://www.w3.org/1999/xlink" y1="0%" x2="0%" y2="100%" xlink:type="simple" xlink:actuate="onLoad" id="id23" xlink:show="other"><stop stop-opacity="1.0" stop-color="#ffffff" offset="0%"/><stop stop-opacity="1.0" stop-color="#d4d4d4" offset="100%"/></linearGradient><filter xlink:actuate="onLoad" xlink:type="simple" id="id36" xlink:show="other" filterUnits="userSpaceOnUse" xmlns:xlink="http://www.w3.org/1999/xlink"><feGaussianBlur stdDeviation="1.2" result="blur" in="SourceAlpha"/><feOffset dx="4.0" dy="4.0" result="offsetBlur" in="blur"/><feComponentTransfer result="componentOffsetBlur" in="offsetBlur"><feFuncR type="linear" intercept="0.0" slope="0"/><feFuncG type="linear" intercept="0.0" slope="0"/><feFuncB type="linear" intercept="0.0" slope="0"/><feFuncA type="linear" intercept="0" slope="0.2"/></feComponentTransfer><feMerge><feMergeNode in="componentOffsetBlur"/><feMergeNode in="SourceGraphic"/></feMerge></filter></defs><g><path fill="#cccccc" fill-opacity="1.0" d="M257.1048239972002 521.6184601314395 Q257.1048239972002 540.6439008221629 238.0793833064768 540.6439008221629 L41.20494625505495 540.6439008221629 Q22.179505564331564 540.6439008221629 22.179505564331564 521.6184601314395 L22.179505564331564 334.80936540057064 Q22.179505564331564 315.78392470984727 41.20494625505495 315.78392470984727 L238.075572120441 315.78392470984727 Q257.10101281116437 315.78392470984727 257.10101281116437 334.80936540057064 L257.10101281116437 521.6184601314395 L257.1048239972002 521.6184601314395z" stroke-width="1.0" stroke-linejoin="round" stroke="#8a8d94"/><path fill="#ffffff" fill-opacity="1.0" d="M25.685796564821924 352.6952614665892 L25.685796564821924 522.186326850774 Q25.685796564821924 537.2900571106571 44.147181722246614 537.2900571106571 L235.13714753439024 537.2900571106571 Q253.59854412537305 537.2900571106571 253.59854412537305 522.186326850774 L253.59854412537305 352.6952614665892 L25.685796564821924 352.6952614665892 L25.685796564821924 352.6952614665892z" stroke="none"/><path fill="url(#id0)" d="M253.59854366803074 358.1871835931287 L253.59854366803074 337.782089746259 Q253.59854366803074 319.3283269609059 238.49480197458945 319.3283269609059 L40.789527510718585 319.3283269609059 Q25.685796107479607 319.3283269609059 25.685796107479607 337.782089746259 L25.685796107479607 358.18717597075664 L253.59853223447263 358.18717597075664 L253.59854366803074 358.1871835931287z" stroke="none"/><path fill="#eeeeee" fill-opacity="1.0" d="M241.90042824608616 526.5054280484089 L37.38391244410889 526.5054280484089 L37.38391244410889 379.11635345480124 L241.90042824608616 379.11635345480124 L241.90042824608616 526.5054280484089 L241.90042824608616 526.5054280484089z" stroke-width="2.0" stroke-linejoin="round" stroke="#999999"/><g transform="translate(54.90068790722727 389.1034387831272)"><path fill="#ffffff" fill-opacity="1.0" d="M170.01221903612262 55.88922050549604 L0.0 55.88922050549604 L0.0 23.686427403759172 L170.01221903612262 23.686427403759172 L170.01221903612262 55.88922050549604 L170.01221903612262 55.88922050549604z" stroke-width="2.0" stroke-linejoin="round" stroke="#286bcc"/><g transform="translate(0.0 0.0)"><defs><clipPath id="id1"><path d="M0 0 L111.85679089761373 0 L111.85679089761373 23.686427403759172 L0 23.686427403759172z"/></clipPath></defs><text font-size="12" clip-path="url(#id1)" text-decoration="none" fill="#666666" font-family="Arial,Arial" font-style="normal" font-weight="normal"><tspan x="2.0" xml:space="preserve" y="15.843213701879586" textLength="53.0">username</tspan></text></g></g><g transform="translate(54.37143374684495 452.42716359045494)"><path fill="#ffffff" fill-opacity="1.0" d="M170.01221903612262 55.88922050549604 L0.0 55.88922050549604 L0.0 23.686427403759136 L170.01221903612262 23.686427403759136 L170.01221903612262 55.88922050549604 L170.01221903612262 55.88922050549604z" stroke-width="2.0" stroke-linejoin="round" stroke="#286bcc"/><g transform="translate(0.0 0.0)"><defs><clipPath id="id2"><path d="M0 0 L111.85679089761373 0 L111.85679089761373 23.686427403759136 L0 23.686427403759136z"/></clipPath></defs><text font-size="12" clip-path="url(#id2)" text-decoration="none" fill="#666666" font-family="Arial,Arial" font-style="normal" font-weight="normal"><tspan x="2.0" xml:space="preserve" y="15.843213701879568" textLength="51.0">password</tspan></text></g></g><path fill="#ffffff" fill-opacity="1.0" d="M238.15379393467734 350.4295124163811 L37.38391244410889 350.4295124163811 L37.38391244410889 327.08599813765346 L238.15379393467734 327.08599813765346 L238.15379393467734 350.4295124163811 L238.15379393467734 350.4295124163811z" stroke-width="1.0" stroke-linejoin="round" stroke="#000000"/><g transform="translate(37.38391244410889 326.68230625966123)"><defs><clipPath id="id3"><path d="M0 0 L200.76988149056848 0 L200.76988149056848 24.150898034712043 L0 24.150898034712043z"/></clipPath></defs><text font-size="14" clip-path="url(#id3)" text-decoration="none" fill="#000000" font-family="Helvetica" font-style="normal" font-weight="normal"><tspan x="2.0" xml:space="preserve" y="17.07544901735602" textLength="53.0"> http://cg</tspan></text><text font-size="14" clip-path="url(#id3)" text-decoration="none" fill="#dc0800" font-family="Helvetica" font-style="normal" font-weight="bold"><tspan x="55.0" xml:space="preserve" y="17.07544901735602" textLength="8.0">n</tspan></text><text font-size="14" clip-path="url(#id3)" text-decoration="none" fill="#000000" font-family="Helvetica" font-style="normal" font-weight="normal"><tspan x="63.0" xml:space="preserve" y="17.07544901735602" textLength="120.0">.example.com/login</tspan></text></g><path fill="#cccccc" fill-opacity="1.0" d="M551.9999944356684 250.87418216335175 Q551.9999944356684 269.8996228540751 532.9745537449451 269.8996228540751 L336.1001166935232 269.8996228540751 Q317.07467600279983 269.8996228540751 317.07467600279983 250.87418216335175 L317.07467600279983 64.06508743248287 Q317.07467600279983 45.03964674175949 336.1001166935232 45.03964674175949 L532.9707425589093 45.03964674175949 Q551.9961832496326 45.03964674175949 551.9961832496326 64.06508743248287 L551.9961832496326 250.87418216335175 L551.9999944356684 250.87418216335175z" stroke-width="1.0" stroke-linejoin="round" stroke="#8a8d94"/><path fill="#ffffff" fill-opacity="1.0" d="M320.5809670032902 81.95098349850146 L320.5809670032902 251.4420488826862 Q320.5809670032902 266.54577914256936 339.04235216071487 266.54577914256936 L530.0323179728586 266.54577914256936 Q548.4937145638414 266.54577914256936 548.4937145638414 251.4420488826862 L548.4937145638414 81.95098349850146 L320.5809670032902 81.95098349850146 L320.5809670032902 81.95098349850146z" stroke="none"/><path fill="url(#id4)" d="M548.493714106499 87.44290562504094 L548.493714106499 67.0378117781712 Q548.493714106499 48.584048992818104 533.3899724130578 48.584048992818104 L335.68469794918684 48.584048992818104 Q320.58096654594783 48.584048992818104 320.58096654594783 67.0378117781712 L320.58096654594783 87.44289800266885 L548.4937026729409 87.44289800266885 L548.493714106499 87.44290562504094z" stroke="none"/><path fill="#ffffff" fill-opacity="1.0" d="M534.9222810715077 79.68523444829336 L334.1523995809392 79.68523444829336 L334.1523995809392 56.34172016956567 L534.9222810715077 56.34172016956567 L534.9222810715077 79.68523444829336 L534.9222810715077 79.68523444829336z" stroke-width="1.0" stroke-linejoin="round" stroke="#000000"/><g transform="translate(334.1523995809392 55.938028291573474)"><defs><clipPath id="id5"><path d="M0 0 L200.76988149056848 0 L200.76988149056848 24.150898034712043 L0 24.150898034712043z"/></clipPath></defs><text font-size="14" clip-path="url(#id5)" text-decoration="none" fill="#000000" font-family="Helvetica" font-style="normal" font-weight="normal"><tspan x="2.0" xml:space="preserve" y="17.07544901735602" textLength="163.0"> http://happy.example.com</tspan></text></g><g transform="translate(334.1523995809392 26.97162810923902)"><path fill="#ffffff" fill-opacity="1.0" d="M47.93915997659394 18.068018632520477 L0.16434620974962927 18.068018632520477 L11.630301513792256 0.0 L36.4732046725513 0.0 L47.93915997659394 18.068018632520477 L47.93915997659394 18.068018632520477z" stroke-width="2.0" stroke-linejoin="round" stroke="#999999"/><g transform="translate(10.528613508966146 0.140930534779669)"><defs><clipPath id="id6"><path d="M0 0 L27.04723230781598 0 L27.04723230781598 17.754538398967817 L0 17.754538398967817z"/></clipPath></defs><text font-size="12" clip-path="url(#id6)" text-decoration="none" fill="#000000" font-family="Arial,Arial" font-style="normal" font-weight="normal"/></g></g><g transform="translate(369.7431966847254 26.97162810923902)"><path fill="#ffffff" fill-opacity="1.0" d="M47.93915997659394 18.068018632520477 L0.16434620974962927 18.068018632520477 L11.630301513792256 0.0 L36.4732046725513 0.0 L47.93915997659394 18.068018632520477 L47.93915997659394 18.068018632520477z" stroke-width="2.0" stroke-linejoin="round" stroke="#999999"/><g transform="translate(10.528613508966146 0.140930534779669)"><defs><clipPath id="id7"><path d="M0 0 L27.04723230781598 0 L27.04723230781598 17.754538398967817 L0 17.754538398967817z"/></clipPath></defs><text font-size="12" clip-path="url(#id7)" text-decoration="none" fill="#000000" font-family="Arial,Arial" font-style="normal" font-weight="normal"/></g></g><g transform="translate(387.30400776463074 29.514696262624504)"><path fill="#ed4580" fill-opacity="1.0" d="M12.981882325749503 12.981882325749512 L0.0 12.981882325749512 L0.0 0.0 L12.981882325749503 0.0 L12.981882325749503 12.981882325749512z" stroke-width="1.0" stroke-linejoin="round" stroke="#666666"/><g transform="translate(1.0 1.0)"><defs><clipPath id="id8"><path d="M0 0 L10.981882325749496 0 L10.981882325749496 10.981882325749503 L0 10.981882325749503z"/></clipPath></defs><text font-size="12" clip-path="url(#id8)" text-decoration="none" fill="#000000" font-family="Arial,Arial" font-style="normal" font-weight="normal"/></g></g><g transform="translate(449.5029653700654 104.88493246348548)"><path fill="none" d="M57.8350452936526 43.79077115148665 L0.0 43.79077115148665 L0.0 0.0022901925187492145 L57.8350452936526 0.0022901925187492145 L57.8350452936526 43.79077115148665 L57.8350452936526 43.79077115148665z" stroke-width="2.0" stroke-linejoin="round" stroke="#ed4580"/><path fill="none" d="M0.0 0.0 L57.83504529365264 43.79077573187176" stroke-width="2.0" stroke-linejoin="round" stroke="#ed4580"/><path fill="none" d="M57.835045293652605 0.0 L0.0 43.79077573187169" stroke-width="2.0" stroke-linejoin="round" stroke="#ed4580"/></g><g transform="translate(355.4884646383741 104.88493246348548)"><path fill="#f48fb3" fill-opacity="1.0" d="M70.33143263066863 4.38667893839409 L0.0 4.38667893839409 L0.0 0.0 L70.33143556640496 0.0 L70.33143556640496 4.38667893839409 L70.33143263066863 4.38667893839409z" stroke-width="2.0" stroke-linejoin="round" stroke="#ed4580"/><path fill="#f48fb3" fill-opacity="1.0" d="M70.33143263066863 17.097677904032018 L0.0 17.097677904032018 L0.0 12.710998965637927 L70.33143556640496 12.710998965637927 L70.33143556640496 17.097677904032018 L70.33143263066863 17.097677904032018z" stroke-width="2.0" stroke-linejoin="round" stroke="#ed4580"/><path fill="#f48fb3" fill-opacity="1.0" d="M70.33143263066863 31.07977676623374 L0.0 31.07977676623374 L0.0 26.693097827839647 L70.33143556640496 26.693097827839647 L70.33143556640496 31.07977676623374 L70.33143263066863 31.07977676623374z" stroke-width="2.0" stroke-linejoin="round" stroke="#ed4580"/><path fill="#f48fb3" fill-opacity="1.0" d="M70.33143263066863 43.79077573187166 L0.0 43.79077573187166 L0.0 39.40409679347758 L70.33143556640496 39.40409679347758 L70.33143556640496 43.79077573187166 L70.33143263066863 43.79077573187166z" stroke-width="2.0" stroke-linejoin="round" stroke="#ed4580"/></g><g transform="translate(355.4884646383741 174.65041630761777)"><path fill="#f48fb3" fill-opacity="1.0" d="M70.33143263066863 4.38667893839409 L0.0 4.38667893839409 L0.0 0.0 L70.33143556640496 0.0 L70.33143556640496 4.38667893839409 L70.33143263066863 4.38667893839409z" stroke-width="2.0" stroke-linejoin="round" stroke="#ed4580"/><path fill="#f48fb3" fill-opacity="1.0" d="M70.33143263066863 17.097677904032018 L0.0 17.097677904032018 L0.0 12.710998965637927 L70.33143556640496 12.710998965637927 L70.33143556640496 17.097677904032018 L70.33143263066863 17.097677904032018z" stroke-width="2.0" stroke-linejoin="round" stroke="#ed4580"/><path fill="#f48fb3" fill-opacity="1.0" d="M70.33143263066863 31.07977676623374 L0.0 31.07977676623374 L0.0 26.693097827839647 L70.33143556640496 26.693097827839647 L70.33143556640496 31.07977676623374 L70.33143263066863 31.07977676623374z" stroke-width="2.0" stroke-linejoin="round" stroke="#ed4580"/><path fill="#f48fb3" fill-opacity="1.0" d="M70.33143263066863 43.79077573187166 L0.0 43.79077573187166 L0.0 39.40409679347758 L70.33143556640496 39.40409679347758 L70.33143556640496 43.79077573187166 L70.33143263066863 43.79077573187166z" stroke-width="2.0" stroke-linejoin="round" stroke="#ed4580"/></g><g transform="translate(443.25477023368916 174.65041630761777)"><path fill="#f48fb3" fill-opacity="1.0" d="M70.33143263066863 4.38667893839409 L0.0 4.38667893839409 L0.0 0.0 L70.33143556640496 0.0 L70.33143556640496 4.38667893839409 L70.33143263066863 4.38667893839409z" stroke-width="2.0" stroke-linejoin="round" stroke="#ed4580"/><path fill="#f48fb3" fill-opacity="1.0" d="M70.33143263066863 17.097677904032018 L0.0 17.097677904032018 L0.0 12.710998965637927 L70.33143556640496 12.710998965637927 L70.33143556640496 17.097677904032018 L70.33143263066863 17.097677904032018z" stroke-width="2.0" stroke-linejoin="round" stroke="#ed4580"/><path fill="#f48fb3" fill-opacity="1.0" d="M70.33143263066863 31.07977676623374 L0.0 31.07977676623374 L0.0 26.693097827839647 L70.33143556640496 26.693097827839647 L70.33143556640496 31.07977676623374 L70.33143263066863 31.07977676623374z" stroke-width="2.0" stroke-linejoin="round" stroke="#ed4580"/><path fill="#f48fb3" fill-opacity="1.0" d="M70.33143263066863 43.79077573187166 L0.0 43.79077573187166 L0.0 39.40409679347758 L70.33143556640496 39.40409679347758 L70.33143556640496 43.79077573187166 L70.33143263066863 43.79077573187166z" stroke-width="2.0" stroke-linejoin="round" stroke="#ed4580"/></g><path fill="#f48fb3" fill-opacity="1.0" d="M513.0168359618508 238.18466031987677 L442.68540333118216 238.18466031987677 L442.68540333118216 233.79798138148269 L513.0168388975871 233.79798138148269 L513.0168388975871 238.18466031987677 L513.0168359618508 238.18466031987677z" stroke-width="2.0" stroke-linejoin="round" stroke="#ed4580"/><path fill="#f48fb3" fill-opacity="1.0" d="M513.0168359618508 250.8956592855147 L442.68540333118216 250.8956592855147 L442.68540333118216 246.50898034712063 L513.0168388975871 246.50898034712063 L513.0168388975871 250.8956592855147 L513.0168359618508 250.8956592855147z" stroke-width="2.0" stroke-linejoin="round" stroke="#ed4580"/><path fill="#f48fb3" fill-opacity="1.0" d="M425.3109430989491 238.18466031987677 L354.97951046828047 238.18466031987677 L354.97951046828047 233.79798138148269 L425.31094603468546 233.79798138148269 L425.31094603468546 238.18466031987677 L425.3109430989491 238.18466031987677z" stroke-width="2.0" stroke-linejoin="round" stroke="#ed4580"/><path fill="#f48fb3" fill-opacity="1.0" d="M425.3109430989491 250.8956592855147 L354.97951046828047 250.8956592855147 L354.97951046828047 246.50898034712063 L425.31094603468546 246.50898034712063 L425.31094603468546 250.8956592855147 L425.3109430989491 250.8956592855147z" stroke-width="2.0" stroke-linejoin="round" stroke="#ed4580"/><g transform="translate(348.6240109854615 27.879798138148267)"><path fill="#cccccc" fill-opacity="1.0" d="M16.321675259374775 9.06759736631933 Q16.321675259374775 9.630985637409534 15.923299592445927 10.02936130433838 Q15.52492392551708 10.42773697126723 14.961535654426877 10.42773697126723 Q14.398147383336674 10.42773697126723 13.999771716407826 10.029361304338382 Q13.601396049478979 9.630985637409534 13.601396049478979 9.06759736631933 Q13.601396049478979 8.504209095229125 13.999771716407826 8.105833428300278 Q14.398147383336674 7.70745776137143 14.961535654426877 7.70745776137143 Q15.52492392551708 7.70745776137143 15.923299592445927 8.105833428300278 Q16.321675259374775 8.504209095229125 16.321675259374775 9.06759736631933z" stroke="none"/><path fill="#aaaaaa" fill-opacity="1.0" d="M14.595381538976218 13.235241934028338 Q14.595381538976218 13.79863020511854 14.197005872047372 14.197005872047388 Q13.798630205118524 14.595381538976236 13.23524193402832 14.595381538976236 Q12.671853662938119 14.595381538976236 12.273477996009271 14.197005872047388 Q11.875102329080423 13.79863020511854 11.875102329080423 13.235241934028338 Q11.875102329080423 12.671853662938133 12.273477996009271 12.273477996009285 Q12.671853662938117 11.875102329080438 13.23524193402832 11.875102329080438 Q13.798630205118524 11.875102329080438 14.19700587204737 12.273477996009285 Q14.595381538976218 12.671853662938133 14.595381538976218 13.235241934028338z" stroke="none"/><path fill="#888888" fill-opacity="1.0" d="M10.427736971267217 14.961535654426896 Q10.427736971267217 15.5249239255171 10.02936130433837 15.923299592445948 Q9.630985637409522 16.321675259374796 9.067597366319319 16.321675259374796 Q8.504209095229115 16.321675259374796 8.105833428300267 15.923299592445948 Q7.70745776137142 15.5249239255171 7.70745776137142 14.961535654426896 Q7.70745776137142 14.398147383336692 8.105833428300267 13.999771716407844 Q8.504209095229115 13.601396049478996 9.067597366319319 13.601396049478996 Q9.630985637409522 13.601396049478996 10.02936130433837 13.999771716407844 Q10.427736971267217 14.398147383336692 10.427736971267217 14.961535654426896z" stroke="none"/><path fill="#666666" fill-opacity="1.0" d="M6.260092403558215 13.235241934028338 Q6.260092403558215 13.79863020511854 5.861716736629367 14.197005872047388 Q5.46334106970052 14.595381538976236 4.899952798610316 14.595381538976236 Q4.336564527520114 14.595381538976236 3.9381888605912665 14.197005872047388 Q3.539813193662419 13.79863020511854 3.539813193662419 13.235241934028338 Q3.539813193662419 12.671853662938133 3.9381888605912665 12.273477996009285 Q4.336564527520114 11.875102329080438 4.899952798610316 11.875102329080438 Q5.46334106970052 11.875102329080438 5.861716736629367 12.273477996009285 Q6.260092403558215 12.671853662938133 6.260092403558215 13.235241934028338z" stroke="none"/><path fill="#666666" fill-opacity="1.0" d="M4.5337986831596595 9.06759736631933 Q4.5337986831596595 9.630985637409534 4.135423016230812 10.02936130433838 Q3.7370473493019647 10.42773697126723 3.1736590782117613 10.42773697126723 Q2.610270807121559 10.42773697126723 2.2118951401927114 10.029361304338382 Q1.813519473263864 9.630985637409534 1.8135194732638638 9.06759736631933 Q1.8135194732638638 8.504209095229125 2.211895140192711 8.105833428300278 Q2.610270807121559 7.70745776137143 3.1736590782117613 7.70745776137143 Q3.7370473493019647 7.70745776137143 4.135423016230812 8.105833428300278 Q4.5337986831596595 8.504209095229125 4.5337986831596595 9.06759736631933z" stroke="none"/><path fill="#666666" fill-opacity="1.0" d="M6.260092403558215 4.899952798610323 Q6.260092403558215 5.463341069700526 5.861716736629367 5.861716736629374 Q5.46334106970052 6.260092403558222 4.899952798610316 6.260092403558222 Q4.336564527520114 6.260092403558222 3.9381888605912665 5.861716736629375 Q3.539813193662419 5.463341069700527 3.539813193662419 4.8999527986103235 Q3.539813193662419 4.33656452752012 3.9381888605912665 3.9381888605912714 Q4.336564527520114 3.5398131936624235 4.899952798610316 3.5398131936624235 Q5.46334106970052 3.5398131936624235 5.861716736629367 3.9381888605912714 Q6.260092403558215 4.336564527520119 6.260092403558215 4.899952798610323z" stroke="none"/><path fill="#666666" fill-opacity="1.0" d="M10.88111683958318 2.720279209895799 Q10.88111683958318 3.4714635713494033 10.34994928367805 4.002631127254535 Q9.818781727772922 4.533798683159665 9.067597366319317 4.533798683159665 Q8.316413004865714 4.533798683159665 7.785245448960585 4.002631127254535 Q7.254077893055455 3.4714635713494046 7.254077893055455 2.7202792098957995 Q7.254077893055455 1.9690948484421948 7.785245448960584 1.4379272925370636 Q8.316413004865714 0.9067597366319332 9.067597366319317 0.906759736631933 Q9.81878172777292 0.9067597366319325 10.34994928367805 1.4379272925370632 Q10.88111683958318 1.969094848442194 10.88111683958318 2.720279209895799z" stroke="none"/></g><g transform="translate(352.43731067515284 5.0)"><path fill="#ffffff" fill-opacity="1.0" d="M32.143738720733964 20.335056272736082 L41.69810602910215 20.335056272736082 Q42.08173657292415 18.480559846339027 42.08173657292415 16.61563322435204 Q42.08173657292415 9.852224535015704 37.843056852316664 5.069818112503011 Q33.60447875591862 0.2875318030006544 27.610448299747087 0.2875318030006544 Q25.153876122184577 0.2875318030006544 22.836650213757547 1.2017677734125043 Q32.53414040094507 5.026152251676036 32.53414040094507 16.616270766869757 Q32.53414040094507 18.461286298485795 32.14373575669451 20.33569381525382 L32.143738720733964 20.335056272736082z" stroke-width="1.0" stroke-linejoin="round" stroke="#000000"/><path fill="#ffffff" fill-opacity="1.0" d="M20.195270541113544 10.658435811258933 L14.97602051721722 10.658435811258933 Q15.230458744165071 6.988220844562657 19.08333146913141 4.133506913643813 Q22.882999686106285 1.3182130016466842 28.68343178892509 0.38380059566801505 Q26.304295565230035 0.0 23.852047497779807 0.0 Q16.377569108170967 0.0 10.994468677634478 3.1065052278845595 Q5.627889379515841 6.2034786850951775 5.319180860679898 10.658435811258933 L0.49033675133676136 10.658435811258933 Q0.15606517073360884 10.658435811258933 -5.551115123125783E-17 10.880938787486068 Q-0.1585393306743544 11.103038199299474 0.02964041983025653 11.311918167007946 L9.88041328149046 20.14634228489715 Q10.046390174713473 20.331230890121265 10.341956566095927 20.331230890121265 Q10.6383698258905 20.331230890121265 10.804346719113514 20.14634228489715 L20.65596611043847 11.311915616837876 Q20.841798680452055 11.103620913160672 20.685606504862683 10.880936874858508 Q20.52678056851161 10.658433898631378 20.194422825832994 10.658433898631378 L20.195270541113544 10.658435811258933z" stroke-width="1.0" stroke-linejoin="round" stroke="#000000"/><g transform="translate(5.680793463568013 6.761138108586929)"><defs><clipPath id="id9"><path d="M0 0 L9.034391600232514 0 L9.034391600232514 10.94979347146691 L0 10.94979347146691z"/></clipPath></defs><text font-size="10" clip-path="url(#id9)" text-decoration="none" fill="#000000" font-family="Arial,Arial" font-style="normal" font-weight="normal"/></g></g><g transform="translate(261.4231309902292 153.7632823522095)"><path fill="#ffffff" fill-opacity="1.0" d="M58.01981654280073 20.887133955408256 L36.01981654280073 41.77426791081651 L36.01981654280073 31.774267910816512 L0.0 31.774267910816512 L0.0 10.0 L36.01981654280073 10.0 L36.01981654280073 0.0 L58.01981654280073 20.887133955408256z" stroke-width="1.0" stroke-linejoin="round" stroke="#000000"/><g transform="translate(0.0 10.0)"><defs><clipPath id="id10"><path d="M0 0 L48.0198165428007 0 L48.0198165428007 21.774267910816548 L0 21.774267910816548z"/></clipPath></defs><text font-size="10" clip-path="url(#id10)" text-decoration="none" fill="#000000" font-family="Arial,Arial" font-style="normal" font-weight="normal"/></g></g><g transform="translate(256.86170395636844 274.1417432500481) rotate(135.0 33.57133530526116 20.887133955408245)"><path fill="#ffffff" fill-opacity="1.0" d="M67.14267061052236 20.88713395540826 L45.14267061052236 41.77426791081652 L45.14267061052236 31.77426791081652 L0.0 31.77426791081652 L0.0 10.0 L45.14267061052236 10.0 L45.14267061052236 0.0 L67.14267061052236 20.88713395540826z" stroke-width="1.0" stroke-linejoin="round" stroke="#000000"/><g transform="translate(0.0 10.0)"><defs><clipPath id="id11"><path d="M0 0 L57.142670610522316 0 L57.142670610522316 21.77426791081649 L0 21.77426791081649z"/></clipPath></defs><text font-size="10" clip-path="url(#id11)" text-decoration="none" fill="#000000" font-family="Arial,Arial" font-style="normal" font-weight="normal"/></g></g><g transform="translate(72.79533343111851 297.3529762096723)"><path fill="#ffffff" fill-opacity="1.0" d="M47.93915997659394 18.06801863252047 L0.16434620974962927 18.06801863252047 L11.630301513792256 0.0 L36.4732046725513 0.0 L47.93915997659394 18.06801863252047 L47.93915997659394 18.06801863252047z" stroke-width="2.0" stroke-linejoin="round" stroke="#999999"/><g transform="translate(10.528613508966146 0.14093053477966894)"><defs><clipPath id="id12"><path d="M0 0 L27.04723230781598 0 L27.04723230781598 17.754538398967807 L0 17.754538398967807z"/></clipPath></defs><text font-size="12" clip-path="url(#id12)" text-decoration="none" fill="#000000" font-family="Arial,Arial" font-style="normal" font-weight="normal"/></g></g><g transform="translate(90.59073198301161 299.8951760027999)"><path fill="#ed4580" fill-opacity="1.0" d="M12.981882325749517 12.981882325749496 L0.0 12.981882325749496 L0.0 0.0 L12.981882325749517 0.0 L12.981882325749517 12.981882325749496z" stroke-width="1.0" stroke-linejoin="round" stroke="#666666"/><g transform="translate(1.0 1.0)"><defs><clipPath id="id13"><path d="M0 0 L10.98188232574951 0 L10.98188232574951 10.981882325749496 L0 10.981882325749496z"/></clipPath></defs><text font-size="12" clip-path="url(#id13)" text-decoration="none" fill="#000000" font-family="Arial,Arial" font-style="normal" font-weight="normal"/></g></g><path fill="#cccccc" fill-opacity="1.0" d="M257.10481843286857 250.87418216335166 Q257.10481843286857 269.89962285407506 238.0793777421452 269.89962285407506 L41.20494069072335 269.89962285407506 Q22.179499999999962 269.89962285407506 22.179499999999962 250.87418216335166 L22.179499999999962 64.06508743248284 Q22.179499999999962 45.03964674175946 41.20494069072335 45.03964674175946 L238.0755665561094 45.03964674175946 Q257.10100724683275 45.03964674175946 257.10100724683275 64.06508743248284 L257.10100724683275 250.87418216335166 L257.10481843286857 250.87418216335166z" stroke-width="1.0" stroke-linejoin="round" stroke="#8a8d94"/><path fill="#ffffff" fill-opacity="1.0" d="M25.685791000490322 81.95098349850143 L25.685791000490322 251.4420488826862 Q25.685791000490322 266.54577914256936 44.14717615791501 266.54577914256936 L235.13714197005865 266.54577914256936 Q253.59853856104147 266.54577914256936 253.59853856104147 251.4420488826862 L253.59853856104147 81.95098349850143 L25.685791000490322 81.95098349850143 L25.685791000490322 81.95098349850143z" stroke="none"/><path fill="url(#id14)" d="M253.59853810369913 87.44290562504088 L253.59853810369913 67.03781177817116 Q253.59853810369913 48.584048992818076 238.49479641025783 48.584048992818076 L40.789521946386984 48.584048992818076 Q25.685790543148002 48.584048992818076 25.685790543148002 67.03781177817116 L25.685790543148002 87.44289800266881 L253.59852667014104 87.44289800266881 L253.59853810369913 87.44290562504088z" stroke="none"/><path fill="#eeeeee" fill-opacity="1.0" d="M238.51977397896584 159.71818693247292 L104.4544462353332 159.71818693247292 L104.4544462353332 139.736589035762 L238.51977397896584 139.736589035762 L238.51977397896584 159.71818693247292 L238.51977397896584 159.71818693247292z" stroke-width="2.0" stroke-linejoin="round" stroke="#7ea6e0"/><path fill="#eeeeee" fill-opacity="1.0" d="M238.51977397896584 183.5469395648078 L104.4544462353332 183.5469395648078 L104.4544462353332 163.56537465246055 L238.51977397896584 163.56537465246055 L238.51977397896584 183.54697254917184 L238.51977397896584 183.5469395648078z" stroke-width="2.0" stroke-linejoin="round" stroke="#7ea6e0"/><path fill="#eeeeee" fill-opacity="1.0" d="M238.51977397896584 207.37575816587068 L104.4544462353332 207.37575816587068 L104.4544462353332 187.39416026915944 L238.51977397896584 187.39416026915944 L238.51977397896584 207.37575816587068 L238.51977397896584 207.37575816587068z" stroke-width="2.0" stroke-linejoin="round" stroke="#7ea6e0"/><path fill="#eeeeee" fill-opacity="1.0" d="M238.51977397896584 231.22189355805887 L104.4544462353332 231.22189355805887 L104.4544462353332 211.22294588585828 L238.51977397896584 211.22294588585828 L238.51977397896584 231.22189355805887 L238.51977397896584 231.22189355805887z" stroke-width="2.0" stroke-linejoin="round" stroke="#7ea6e0"/><path fill="#eeeeee" fill-opacity="1.0" d="M238.51977397896584 255.06802895024703 L104.4544462353332 255.06802895024703 L104.4544462353332 235.06908127804644 L238.51977397896584 235.06908127804644 L238.51977397896584 255.06802895024703 L238.51977397896584 255.06802895024703z" stroke-width="2.0" stroke-linejoin="round" stroke="#7ea6e0"/><path fill="#5389d6" fill-opacity="1.0" d="M82.0237784067745 174.22170873506383 L39.65654233324304 174.22170873506383 L39.65654233324304 169.83502979666974 L82.02378017524458 169.83502979666974 L82.02378017524458 174.22170873506383 L82.0237784067745 174.22170873506383z" stroke-width="2.0" stroke-linejoin="round" stroke="#286bcc"/><path fill="#5389d6" fill-opacity="1.0" d="M82.0237784067745 187.38934886638756 L39.65654233324304 187.38934886638756 L39.65654233324304 183.00266992799348 L82.02378017524458 183.00266992799348 L82.02378017524458 187.38934886638756 L82.0237784067745 187.38934886638756z" stroke-width="2.0" stroke-linejoin="round" stroke="#286bcc"/><path fill="#5389d6" fill-opacity="1.0" d="M82.0237784067745 200.55700424245538 L39.65654233324304 200.55700424245538 L39.65654233324304 196.1703253040613 L82.02378017524458 196.1703253040613 L82.02378017524458 200.55700424245538 L82.0237784067745 200.55700424245538z" stroke-width="2.0" stroke-linejoin="round" stroke="#286bcc"/><path fill="#5389d6" fill-opacity="1.0" d="M82.0237784067745 213.72464056259304 L39.65654233324304 213.72464056259304 L39.65654233324304 209.33796162419895 L82.02378017524458 209.33796162419895 L82.02378017524458 213.72464056259304 L82.0237784067745 213.72464056259304z" stroke-width="2.0" stroke-linejoin="round" stroke="#286bcc"/><g transform="translate(37.74989248839735 104.386397292503)"><path fill="none" d="M46.180537531692934 43.212261152812594 L0.0 43.212261152812594 L0.0 0.0022599373020415277 L46.180537531692934 0.0022599373020415277 L46.180537531692934 43.212261152812594 L46.180537531692934 43.212261152812594z" stroke-width="2.0" stroke-linejoin="round" stroke="#286bcc"/><path fill="none" d="M0.0 0.0 L46.18053753169296 43.21226567268727" stroke-width="2.0" stroke-linejoin="round" stroke="#286bcc"/><path fill="none" d="M46.18053753169295 0.0 L0.0 43.2122656726872" stroke-width="2.0" stroke-linejoin="round" stroke="#286bcc"/></g><path fill="#ffffff" fill-opacity="1.0" d="M238.51977397896576 134.12811071071937 L104.4544462353332 134.12811071071937 L104.4544462353332 101.92531760898251 L238.51977397896576 101.92531760898251 L238.51977397896576 134.12811071071937 L238.51977397896576 134.12811071071937z" stroke-width="2.0" stroke-linejoin="round" stroke="#286bcc"/><path fill="#ffffff" fill-opacity="1.0" d="M240.02710506870778 79.68523444829333 L39.257223578139346 79.68523444829333 L39.257223578139346 56.34172016956564 L240.02710506870778 56.34172016956564 L240.02710506870778 79.68523444829333 L240.02710506870778 79.68523444829333z" stroke-width="1.0" stroke-linejoin="round" stroke="#000000"/><g transform="translate(39.257223578139346 55.938028291573445)"><defs><clipPath id="id15"><path d="M0 0 L200.76988149056848 0 L200.76988149056848 24.150898034712057 L0 24.150898034712057z"/></clipPath></defs><text font-size="14" clip-path="url(#id15)" text-decoration="none" fill="#000000" font-family="Helvetica" font-style="normal" font-weight="normal"><tspan x="2.0" xml:space="preserve" y="17.07544901735603" textLength="53.0"> http://cg</tspan></text><text font-size="14" clip-path="url(#id15)" text-decoration="none" fill="#dc0800" font-family="Helvetica" font-style="normal" font-weight="normal"><tspan x="55.0" xml:space="preserve" y="17.07544901735603" textLength="12.0">m</tspan></text><text font-size="14" clip-path="url(#id15)" text-decoration="none" fill="#000000" font-family="Helvetica" font-style="normal" font-weight="normal"><tspan x="67.0" xml:space="preserve" y="17.07544901735603" textLength="87.0">.example.com</tspan></text></g><g transform="translate(39.257223578139346 26.971628109238992)"><path fill="#ffffff" fill-opacity="1.0" d="M47.93915997659392 18.068018632520477 L0.1643462097496292 18.068018632520477 L11.63030151379225 0.0 L36.473204672551276 0.0 L47.93915997659392 18.068018632520477 L47.93915997659392 18.068018632520477z" stroke-width="2.0" stroke-linejoin="round" stroke="#999999"/><g transform="translate(10.528613508966142 0.140930534779669)"><defs><clipPath id="id16"><path d="M0 0 L27.04723230781597 0 L27.04723230781597 17.754538398967817 L0 17.754538398967817z"/></clipPath></defs><text font-size="12" clip-path="url(#id16)" text-decoration="none" fill="#000000" font-family="Arial,Arial" font-style="normal" font-weight="normal"/></g></g><g transform="translate(56.81803465804467 29.514696262624476)"><path fill="#5389d6" fill-opacity="1.0" d="M12.981882325749517 12.981882325749512 L0.0 12.981882325749512 L0.0 0.0 L12.981882325749517 0.0 L12.981882325749517 12.981882325749512z" stroke-width="1.0" stroke-linejoin="round" stroke="#666666"/><g transform="translate(1.0 1.0)"><defs><clipPath id="id17"><path d="M0 0 L10.98188232574951 0 L10.98188232574951 10.981882325749503 L0 10.981882325749503z"/></clipPath></defs><text font-size="12" clip-path="url(#id17)" text-decoration="none" fill="#000000" font-family="Arial,Arial" font-style="normal" font-weight="normal"/></g></g><g transform="translate(38.47563622389612 297.3529762096723)"><path fill="#ffffff" fill-opacity="1.0" d="M47.93915997659394 18.06801863252047 L0.16434620974962927 18.06801863252047 L11.630301513792256 0.0 L36.4732046725513 0.0 L47.93915997659394 18.06801863252047 L47.93915997659394 18.06801863252047z" stroke-width="2.0" stroke-linejoin="round" stroke="#999999"/><g transform="translate(10.528613508966146 0.14093053477966894)"><defs><clipPath id="id18"><path d="M0 0 L27.04723230781598 0 L27.04723230781598 17.754538398967807 L0 17.754538398967807z"/></clipPath></defs><text font-size="12" clip-path="url(#id18)" text-decoration="none" fill="#000000" font-family="Arial,Arial" font-style="normal" font-weight="normal"/></g></g><g transform="translate(56.27103477578921 299.8951760027999)"><path fill="#5389d6" fill-opacity="1.0" d="M12.981882325749527 12.981882325749496 L0.0 12.981882325749496 L0.0 0.0 L12.981882325749527 0.0 L12.981882325749527 12.981882325749496z" stroke-width="1.0" stroke-linejoin="round" stroke="#666666"/><g transform="translate(1.0 1.0)"><defs><clipPath id="id19"><path d="M0 0 L10.981882325749531 0 L10.981882325749531 10.981882325749496 L0 10.981882325749496z"/></clipPath></defs><text font-size="12" clip-path="url(#id19)" text-decoration="none" fill="#000000" font-family="Arial,Arial" font-style="normal" font-weight="normal"/></g></g><g transform="translate(61.990984310326276 418.1074663832326)"><defs><clipPath id="id20"><path d="M0 0 L147.13946971387583 0 L147.13946971387583 22.24424818986637 L0 22.24424818986637z"/></clipPath></defs><text font-size="14" clip-path="url(#id20)" text-decoration="none" fill="#000000" font-family="Arial,Arial" font-style="normal" font-weight="normal"><tspan x="2.0" xml:space="preserve" y="16.122124094933184" textLength="28.0">Jxck</tspan></text></g><g transform="translate(61.35543436204438 481.66246121142217)"><defs><clipPath id="id21"><path d="M0 0 L147.13946971387583 0 L147.13946971387583 22.24424818986637 L0 22.24424818986637z"/></clipPath></defs><text font-size="12" clip-path="url(#id21)" text-decoration="none" fill="#000000" font-family="Arial,Arial" font-style="normal" font-weight="normal"><tspan x="2.0" xml:space="preserve" y="13.0" textLength="86.0">●●●●●●●●●●●●</tspan></text></g><g transform="translate(187.82987407014173 185.36009851732234)"><defs><clipPath id="id22"><path d="M0 0 L42.413047362376716 0 L42.413047362376716 24.049721400385494 L0 24.049721400385494z"/></clipPath></defs><text font-size="14" clip-path="url(#id22)" text-decoration="underline" fill="#ed4580" font-family="monospace" font-style="normal" font-weight="normal"><tspan x="4.0" xml:space="preserve" y="17.024860700192747" textLength="33.0">link</tspan></text></g><path fill="#cccccc" fill-opacity="1.0" d="M552.0 521.6184601314395 Q552.0 540.6439008221629 532.9745593092766 540.6439008221629 L336.1001222578548 540.6439008221629 Q317.07468156713145 540.6439008221629 317.07468156713145 521.6184601314395 L317.07468156713145 334.80936540057064 Q317.07468156713145 315.78392470984727 336.1001222578548 315.78392470984727 L532.9707481232408 315.78392470984727 Q551.9961888139642 315.78392470984727 551.9961888139642 334.80936540057064 L551.9961888139642 521.6184601314395 L552.0 521.6184601314395z" stroke-width="1.0" stroke-linejoin="round" stroke="#8a8d94"/><path fill="#ffffff" fill-opacity="1.0" d="M320.5809725676218 352.6952614665892 L320.5809725676218 522.1863268507741 Q320.5809725676218 537.2900571106572 339.0423577250465 537.2900571106572 L530.0323235371901 537.2900571106572 Q548.4937201281729 537.2900571106572 548.4937201281729 522.1863268507741 L548.4937201281729 352.6952614665892 L320.5809725676218 352.6952614665892 L320.5809725676218 352.6952614665892z" stroke="none"/><path fill="url(#id23)" d="M548.4937196708306 358.1871835931287 L548.4937196708306 337.782089746259 Q548.4937196708306 319.3283269609059 533.3899779773893 319.3283269609059 L335.6847035135184 319.3283269609059 Q320.58097211027945 319.3283269609059 320.58097211027945 337.782089746259 L320.58097211027945 358.18717597075664 L548.4937082372725 358.18717597075664 L548.4937196708306 358.1871835931287z" stroke="none"/><path fill="#eeeeee" fill-opacity="1.0" d="M533.4149555460972 430.46246490056075 L399.3496278024646 430.46246490056075 L399.3496278024646 410.4808670038498 L533.4149555460972 410.4808670038498 L533.4149555460972 430.46246490056075 L533.4149555460972 430.46246490056075z" stroke-width="2.0" stroke-linejoin="round" stroke="#7ea6e0"/><path fill="#eeeeee" fill-opacity="1.0" d="M533.4149555460972 454.2912175328956 L399.3496278024646 454.2912175328956 L399.3496278024646 434.3096526205484 L533.4149555460972 434.3096526205484 L533.4149555460972 454.29125051725964 L533.4149555460972 454.2912175328956z" stroke-width="2.0" stroke-linejoin="round" stroke="#7ea6e0"/><path fill="#eeeeee" fill-opacity="1.0" d="M533.4149555460972 478.1200361339584 L399.3496278024646 478.1200361339584 L399.3496278024646 458.1384382372472 L533.4149555460972 458.1384382372472 L533.4149555460972 478.1200361339584 L533.4149555460972 478.1200361339584z" stroke-width="2.0" stroke-linejoin="round" stroke="#7ea6e0"/><path fill="#eeeeee" fill-opacity="1.0" d="M533.4149555460972 501.9661715261467 L399.3496278024646 501.9661715261467 L399.3496278024646 481.9672238539461 L533.4149555460972 481.9672238539461 L533.4149555460972 501.9661715261467 L533.4149555460972 501.9661715261467z" stroke-width="2.0" stroke-linejoin="round" stroke="#7ea6e0"/><path fill="#eeeeee" fill-opacity="1.0" d="M533.4149555460972 525.8123069183348 L399.3496278024646 525.8123069183348 L399.3496278024646 505.81335924613427 L533.4149555460972 505.81335924613427 L533.4149555460972 525.8123069183348 L533.4149555460972 525.8123069183348z" stroke-width="2.0" stroke-linejoin="round" stroke="#7ea6e0"/><path fill="#5389d6" fill-opacity="1.0" d="M376.918959973906 444.9659867031516 L334.55172390037455 444.9659867031516 L334.55172390037455 440.5793077647575 L376.9189617423761 440.5793077647575 L376.9189617423761 444.9659867031516 L376.918959973906 444.9659867031516z" stroke-width="2.0" stroke-linejoin="round" stroke="#286bcc"/><path fill="#5389d6" fill-opacity="1.0" d="M376.918959973906 458.13362683447536 L334.55172390037455 458.13362683447536 L334.55172390037455 453.7469478960813 L376.9189617423761 453.7469478960813 L376.9189617423761 458.13362683447536 L376.918959973906 458.13362683447536z" stroke-width="2.0" stroke-linejoin="round" stroke="#286bcc"/><path fill="#5389d6" fill-opacity="1.0" d="M376.918959973906 471.30128221054315 L334.55172390037455 471.30128221054315 L334.55172390037455 466.91460327214907 L376.9189617423761 466.91460327214907 L376.9189617423761 471.30128221054315 L376.918959973906 471.30128221054315z" stroke-width="2.0" stroke-linejoin="round" stroke="#286bcc"/><path fill="#5389d6" fill-opacity="1.0" d="M376.918959973906 484.4689185306808 L334.55172390037455 484.4689185306808 L334.55172390037455 480.0822395922867 L376.9189617423761 480.0822395922867 L376.9189617423761 484.4689185306808 L376.918959973906 484.4689185306808z" stroke-width="2.0" stroke-linejoin="round" stroke="#286bcc"/><g transform="translate(332.6450740555288 375.1306752605908)"><path fill="none" d="M46.18053753169295 43.21226115281255 L0.0 43.21226115281255 L0.0 0.0022599373020415255 L46.18053753169295 0.0022599373020415255 L46.18053753169295 43.21226115281255 L46.18053753169295 43.21226115281255z" stroke-width="2.0" stroke-linejoin="round" stroke="#286bcc"/><path fill="none" d="M0.0 0.0 L46.18053753169297 43.21226567268724" stroke-width="2.0" stroke-linejoin="round" stroke="#286bcc"/><path fill="none" d="M46.180537531692956 0.0 L0.0 43.21226567268716" stroke-width="2.0" stroke-linejoin="round" stroke="#286bcc"/></g><path fill="#ffffff" fill-opacity="1.0" d="M533.4149555460972 404.87238867880717 L399.3496278024646 404.87238867880717 L399.3496278024646 372.6695955770703 L533.4149555460972 372.6695955770703 L533.4149555460972 404.87238867880717 L533.4149555460972 404.87238867880717z" stroke-width="2.0" stroke-linejoin="round" stroke="#286bcc"/><path fill="#ffffff" fill-opacity="1.0" d="M534.9222866358393 350.4295124163811 L334.15240514527085 350.4295124163811 L334.15240514527085 327.08599813765346 L534.9222866358393 327.08599813765346 L534.9222866358393 350.4295124163811 L534.9222866358393 350.4295124163811z" stroke-width="1.0" stroke-linejoin="round" stroke="#000000"/><g transform="translate(334.15240514527085 326.68230625966123)"><defs><clipPath id="id24"><path d="M0 0 L200.76988149056848 0 L200.76988149056848 24.150898034712043 L0 24.150898034712043z"/></clipPath></defs><text font-size="14" clip-path="url(#id24)" text-decoration="none" fill="#000000" font-family="Helvetica" font-style="normal" font-weight="normal"><tspan x="2.0" xml:space="preserve" y="17.07544901735602" textLength="53.0"> http://cg</tspan></text><text font-size="14" clip-path="url(#id24)" text-decoration="none" fill="#dc0800" font-family="Helvetica" font-style="normal" font-weight="normal"><tspan x="55.0" xml:space="preserve" y="17.07544901735602" textLength="12.0">m</tspan></text><text font-size="14" clip-path="url(#id24)" text-decoration="none" fill="#000000" font-family="Helvetica" font-style="normal" font-weight="normal"><tspan x="67.0" xml:space="preserve" y="17.07544901735602" textLength="87.0">.example.com</tspan></text></g><g transform="translate(368.47210235249327 297.7159060773268)"><path fill="#ffffff" fill-opacity="1.0" d="M47.93915997659394 18.06801863252047 L0.16434620974962927 18.06801863252047 L11.630301513792256 0.0 L36.4732046725513 0.0 L47.93915997659394 18.06801863252047 L47.93915997659394 18.06801863252047z" stroke-width="2.0" stroke-linejoin="round" stroke="#999999"/><g transform="translate(10.528613508966146 0.14093053477966894)"><defs><clipPath id="id25"><path d="M0 0 L27.04723230781598 0 L27.04723230781598 17.754538398967807 L0 17.754538398967807z"/></clipPath></defs><text font-size="12" clip-path="url(#id25)" text-decoration="none" fill="#000000" font-family="Arial,Arial" font-style="normal" font-weight="normal"/></g></g><g transform="translate(334.15240514527085 297.7159060773268)"><path fill="#ffffff" fill-opacity="1.0" d="M47.93915997659394 18.06801863252047 L0.16434620974962927 18.06801863252047 L11.630301513792256 0.0 L36.4732046725513 0.0 L47.93915997659394 18.06801863252047 L47.93915997659394 18.06801863252047z" stroke-width="2.0" stroke-linejoin="round" stroke="#999999"/><g transform="translate(10.528613508966146 0.14093053477966894)"><defs><clipPath id="id26"><path d="M0 0 L27.04723230781598 0 L27.04723230781598 17.754538398967807 L0 17.754538398967807z"/></clipPath></defs><text font-size="12" clip-path="url(#id26)" text-decoration="none" fill="#000000" font-family="Arial,Arial" font-style="normal" font-weight="normal"/></g></g><g transform="translate(351.71321622517615 300.2589742307123)"><path fill="#5389d6" fill-opacity="1.0" d="M12.981882325749503 12.981882325749496 L0.0 12.981882325749496 L0.0 0.0 L12.981882325749503 0.0 L12.981882325749503 12.981882325749496z" stroke-width="1.0" stroke-linejoin="round" stroke="#666666"/><g transform="translate(1.0 1.0)"><defs><clipPath id="id27"><path d="M0 0 L10.981882325749496 0 L10.981882325749496 10.981882325749496 L0 10.981882325749496z"/></clipPath></defs><text font-size="12" clip-path="url(#id27)" text-decoration="none" fill="#000000" font-family="Arial,Arial" font-style="normal" font-weight="normal"/></g></g><g transform="translate(386.26750090438634 300.25810587045436)"><path fill="#ed4580" fill-opacity="1.0" d="M12.981882325749503 12.981882325749496 L0.0 12.981882325749496 L0.0 0.0 L12.981882325749503 0.0 L12.981882325749503 12.981882325749496z" stroke-width="1.0" stroke-linejoin="round" stroke="#666666"/><g transform="translate(1.0 1.0)"><defs><clipPath id="id28"><path d="M0 0 L10.981882325749496 0 L10.981882325749496 10.981882325749496 L0 10.981882325749496z"/></clipPath></defs><text font-size="12" clip-path="url(#id28)" text-decoration="none" fill="#000000" font-family="Arial,Arial" font-style="normal" font-weight="normal"/></g></g><g transform="translate(474.0 456.1043764854101)"><defs><clipPath id="id29"><path d="M0 0 L52.197230998566056 0 L52.197230998566056 24.049721400385465 L0 24.049721400385465z"/></clipPath></defs><text font-size="14" clip-path="url(#id29)" text-decoration="underline" fill="#ed4580" font-family="monospace" font-style="normal" font-weight="normal"><tspan x="9.0" xml:space="preserve" y="17.024860700192733" textLength="33.0">link</tspan></text></g><g transform="translate(261.4231309902292 421.88551327854634)"><path fill="#ffffff" fill-opacity="1.0" d="M58.01981654280073 20.88713395540826 L36.01981654280073 41.77426791081652 L36.01981654280073 31.77426791081652 L0.0 31.77426791081652 L0.0 10.0 L36.01981654280073 10.0 L36.01981654280073 0.0 L58.01981654280073 20.88713395540826z" stroke-width="1.0" stroke-linejoin="round" stroke="#000000"/><g transform="translate(0.0 10.0)"><defs><clipPath id="id30"><path d="M0 0 L48.0198165428007 0 L48.0198165428007 21.77426791081649 L0 21.77426791081649z"/></clipPath></defs><text font-size="10" clip-path="url(#id30)" text-decoration="none" fill="#000000" font-family="Arial,Arial" font-style="normal" font-weight="normal"/></g></g><g transform="translate(400.28589009038024 1.4569318466145447)"><defs><clipPath id="id31"><path d="M0 0 L87.09861549928303 0 L87.09861549928303 25.514696262624476 L0 25.514696262624476z"/></clipPath></defs><text font-size="12" clip-path="url(#id31)" text-decoration="none" fill="#000000" font-family="Arial,Arial" font-style="normal" font-weight="bold"><tspan x="2.0" xml:space="preserve" y="16.757348131312238" textLength="60.0">tab-naving</tspan></text></g><g transform="translate(261.4330392616296 163.52189604374283)"><defs><clipPath id="id32"><path d="M0 0 L58.0 0 L58.0 20.068555114146704 L0 20.068555114146704z"/></clipPath></defs><text font-size="13" clip-path="url(#id32)" text-decoration="none" fill="#000000" font-family="Arial,Arial" font-style="normal" font-weight="bold"><tspan x="8.0" xml:space="preserve" y="14.534277557073352" textLength="41.0">_blank</tspan></text></g><g transform="translate(266.0 280.0) rotate(315.0 29.0 10.034277557073352)"><defs><clipPath id="id33"><path d="M0 0 L58.0 0 L58.0 20.068555114146704 L0 20.068555114146704z"/></clipPath></defs><text font-size="13" clip-path="url(#id33)" text-decoration="none" fill="#000000" font-family="Arial,Arial" font-style="normal" font-weight="bold"><tspan x="14.0" xml:space="preserve" y="14.534277557073352" textLength="29.0">back</tspan></text></g><g transform="translate(259.0 432.73836967688123)"><defs><clipPath id="id34"><path d="M0 0 L58.0 0 L58.0 20.068555114146704 L0 20.068555114146704z"/></clipPath></defs><text font-size="13" clip-path="url(#id34)" text-decoration="none" fill="#000000" font-family="Arial,Arial" font-style="normal" font-weight="bold"><tspan x="5.0" xml:space="preserve" y="14.534277557073352" textLength="47.0">redirect</tspan></text></g><g transform="translate(124.46521369041085 396.0480490358752) rotate(45.0 69.0 21.0)"><defs><clipPath id="id35"><path d="M0 0 L138.0 0 L138.0 42.0 L0 42.0z"/></clipPath></defs><text font-size="30" clip-path="url(#id35)" text-decoration="none" fill="#dc0800" font-family="&apos;Arial Black&apos;,&apos;Arial Black&apos;" font-style="normal" font-weight="bold"><tspan x="10.0" xml:space="preserve" y="33.0" textLength="118.0">Fishing</tspan></text></g><g transform="translate(214.98972267375294 197.38495921751507)"><path fill-opacity="1.0" fill="#ffffff" stroke-linejoin="round" filter="url(#id36)" d="M0.0 0.0 L15.253198758765507 12.710998965637927 L8.897699275946547 13.98209886220172 L13.982098862201715 24.15089803471206 L11.43989906907413 25.421997931275854 L6.355499482818962 15.253198758765514 L0.0 19.06649844845689 L0.0 0.0z" stroke="#000000" stroke-width="1.0"/></g></g></svg>