<svg contentScriptType="text/ecmascript" xmlns:xlink="http://www.w3.org/1999/xlink" viewBox="7.179 -13.543 559.821 569.187" preserveAspectRatio="xMidYMin meet" xmlns="http://www.w3.org/2000/svg"><defs><linearGradient x1="0%" xmlns:xlink="http://www.w3.org/1999/xlink" y1="0%" x2="0%" y2="100%" xlink:type="simple" xlink:actuate="onLoad" id="a" xlink:show="other"><stop stop-color="#fff" offset="0%"/><stop stop-color="#d4d4d4" offset="100%"/></linearGradient><linearGradient x1="0%" xmlns:xlink="http://www.w3.org/1999/xlink" y1="0%" x2="0%" y2="100%" xlink:type="simple" xlink:actuate="onLoad" id="e" xlink:show="other"><stop stop-color="#fff" offset="0%"/><stop stop-color="#d4d4d4" offset="100%"/></linearGradient><linearGradient x1="0%" xmlns:xlink="http://www.w3.org/1999/xlink" y1="0%" x2="0%" y2="100%" xlink:type="simple" xlink:actuate="onLoad" id="g" xlink:show="other"><stop stop-color="#fff" offset="0%"/><stop stop-color="#d4d4d4" offset="100%"/></linearGradient><linearGradient x1="0%" xmlns:xlink="http://www.w3.org/1999/xlink" y1="0%" x2="0%" y2="100%" xlink:type="simple" xlink:actuate="onLoad" id="l" xlink:show="other"><stop stop-color="#fff" offset="0%"/><stop stop-color="#d4d4d4" offset="100%"/></linearGradient><filter xlink:actuate="onLoad" xlink:type="simple" id="t" xlink:show="other" filterUnits="userSpaceOnUse" xmlns:xlink="http://www.w3.org/1999/xlink"><feGaussianBlur stdDeviation="1.2" result="blur" in="SourceAlpha"/><feOffset dx="4" dy="4" result="offsetBlur" in="blur"/><feComponentTransfer result="componentOffsetBlur" in="offsetBlur"><feFuncR type="linear" slope="0"/><feFuncG type="linear" slope="0"/><feFuncB type="linear" slope="0"/><feFuncA type="linear" slope=".2"/></feComponentTransfer><feMerge><feMergeNode in="componentOffsetBlur"/><feMergeNode in="SourceGraphic"/></feMerge></filter></defs><path fill="#ccc" d="M257.105 521.618q0 19.026-19.026 19.026H41.205q-19.025 0-19.025-19.026V334.81q0-19.025 19.025-19.025h196.87q19.026 0 19.026 19.025v186.81h.004z" stroke-linejoin="round" stroke="#8a8d94"/><path fill="#fff" d="M25.686 352.695v169.491q0 15.104 18.461 15.104h190.99q18.462 0 18.462-15.104v-169.49H25.686z"/><path fill="url(#a)" d="M253.599 358.187v-20.405q0-18.454-15.104-18.454H40.79q-15.104 0-15.104 18.454v20.405h227.913z"/><path fill="#eee" d="M241.9 526.505H37.384V379.116H241.9v147.39z" stroke-width="2" stroke-linejoin="round" stroke="#999"/><path fill="#fff" d="M224.913 444.993H54.9V412.79h170.012v32.203z" stroke-width="2" stroke-linejoin="round" stroke="#286bcc"/><g transform="translate(54.9 389.103)"><defs><clipPath id="b"><path d="M0 0h111.857v23.686H0z"/></clipPath></defs><text font-size="12" clip-path="url(#b)" fill="#666" font-family="Arial,Arial"><tspan x="2" y="15.843" textLength="53">username</tspan></text></g><path fill="#fff" d="M224.384 508.316H54.37v-32.202h170.013v32.202z" stroke-width="2" stroke-linejoin="round" stroke="#286bcc"/><g transform="translate(54.371 452.427)"><defs><clipPath id="c"><path d="M0 0h111.857v23.686H0z"/></clipPath></defs><text font-size="12" clip-path="url(#c)" fill="#666" font-family="Arial,Arial"><tspan x="2" y="15.843" textLength="51">password</tspan></text></g><path fill="#fff" d="M238.154 350.43H37.384v-23.344h200.77v23.344z" stroke-linejoin="round" stroke="#000"/><g transform="translate(37.384 326.682)"><defs><clipPath id="d"><path d="M0 0h200.77v24.15H0z"/></clipPath></defs><text font-size="14" clip-path="url(#d)" font-family="Helvetica"><tspan x="2" y="17.075" textLength="53">http://cg</tspan></text><text font-size="14" clip-path="url(#d)" fill="#dc0800" font-family="Helvetica" font-weight="bold"><tspan x="55" y="17.075" textLength="8">n</tspan></text><text font-size="14" clip-path="url(#d)" font-family="Helvetica"><tspan x="63" y="17.075" textLength="120">.example.com/login</tspan></text></g><path fill="#ccc" d="M552 250.874q0 19.026-19.025 19.026H336.1q-19.025 0-19.025-19.026V64.065q0-19.025 19.025-19.025h196.87q19.026 0 19.026 19.025v186.81H552z" stroke-linejoin="round" stroke="#8a8d94"/><path fill="#fff" d="M320.581 81.951v169.491q0 15.104 18.461 15.104h190.99q18.462 0 18.462-15.104V81.951H320.58z"/><path fill="url(#e)" d="M548.494 87.443V67.038q0-18.454-15.104-18.454H335.685q-15.104 0-15.104 18.454v20.405h227.913z"/><path fill="#fff" d="M534.922 79.685h-200.77V56.342h200.77v23.343z" stroke-linejoin="round" stroke="#000"/><g transform="translate(334.152 55.938)"><defs><clipPath id="f"><path d="M0 0h200.77v24.15H0z"/></clipPath></defs><text font-size="14" clip-path="url(#f)" font-family="Helvetica"><tspan x="2" y="17.075" textLength="163">http://happy.example.com</tspan></text></g><path fill="#fff" d="M382.092 45.04h-47.775l11.466-18.068h24.843l11.466 18.068z" stroke-width="2" stroke-linejoin="round" stroke="#999"/><path fill="#fff" d="M417.682 45.04h-47.774l11.465-18.068h24.843l11.466 18.068z" stroke-width="2" stroke-linejoin="round" stroke="#999"/><path fill="#ed4580" d="M400.286 42.497h-12.982V29.515h12.982v12.982z" stroke-linejoin="round" stroke="#666"/><path d="M507.338 148.676h-57.835v-43.789h57.835v43.789zm-57.835-43.791l57.835 43.79m0-43.79l-57.835 43.79" fill="none" stroke-width="2" stroke-linejoin="round" stroke="#ed4580"/><path d="M425.82 109.272h-70.332v-4.387h70.332v4.387zm0 12.711h-70.332v-4.387h70.332v4.387zm0 13.982h-70.332v-4.387h70.332v4.387zm0 12.711h-70.332v-4.387h70.332v4.387zm0 30.361h-70.332v-4.387h70.332v4.387zm0 12.711h-70.332v-4.387h70.332v4.387zm0 13.982h-70.332v-4.386h70.332v4.386zm0 12.711h-70.332v-4.386h70.332v4.386zm87.766-39.404h-70.331v-4.387h70.331v4.387zm0 12.711h-70.331v-4.387h70.331v4.387zm0 13.982h-70.331v-4.386h70.331v4.386zm0 12.711h-70.331v-4.386h70.331v4.386zm-.569 19.744h-70.332v-4.387h70.332v4.387zm0 12.711h-70.332v-4.387h70.332v4.387zm-87.707-12.711h-70.33v-4.387h70.33v4.387zm0 12.711h-70.33v-4.387h70.33v4.387z" fill="#f48fb3" stroke-width="2" stroke-linejoin="round" stroke="#ed4580"/><path fill="#ccc" d="M364.946 36.947q0 .564-.399.962-.398.399-.961.399-.564 0-.962-.399-.399-.398-.399-.962 0-.563.399-.961.398-.399.962-.399.563 0 .961.399.399.398.399.961z"/><path fill="#aaa" d="M363.22 41.115q0 .563-.399.962-.398.398-.962.398-.563 0-.962-.398-.398-.399-.398-.962t.398-.962q.399-.398.962-.398.564 0 .962.398.398.399.398.962z"/><path fill="#888" d="M359.052 42.841q0 .564-.399.962-.398.398-.961.398-.564 0-.962-.398-.399-.398-.399-.962 0-.563.399-.961.398-.399.962-.399.563 0 .961.399.399.398.399.961z"/><path fill="#666" d="M354.884 41.115q0 .563-.398.962-.399.398-.962.398t-.962-.398q-.398-.399-.398-.962t.398-.962q.399-.398.962-.398t.962.398q.398.399.398.962zm-1.726-4.168q0 .564-.399.962-.398.399-.961.399-.564 0-.962-.399-.398-.398-.398-.962 0-.563.398-.961.398-.399.962-.399.563 0 .961.399.399.398.399.961zm1.726-4.167q0 .563-.398.962-.399.398-.962.398t-.962-.398q-.398-.399-.398-.962 0-.564.398-.962.399-.398.962-.398t.962.398q.398.398.398.962zm4.621-2.18q0 .751-.531 1.282-.531.532-1.282.532-.752 0-1.283-.532-.53-.53-.53-1.282 0-.751.53-1.282.531-.531 1.283-.531.75 0 1.282.53.531.532.531 1.283z"/><path fill="#fff" d="M384.581 25.335h9.554q.384-1.854.384-3.72 0-6.763-4.239-11.545-4.238-4.782-10.232-4.782-2.457 0-4.774.914 9.697 3.824 9.697 15.414 0 1.845-.39 3.72z" stroke-linejoin="round" stroke="#000"/><path fill="#fff" d="M372.633 15.658h-5.22q.255-3.67 4.108-6.524 3.8-2.816 9.6-3.75Q378.74 5 376.289 5q-7.474 0-12.857 3.107-5.367 3.096-5.676 7.551h-4.828q-.335 0-.49.223-.16.222.029.43l9.85 8.835q.167.185.462.185.297 0 .463-.185l9.851-8.834q.186-.208.03-.431-.159-.223-.491-.223zm-53.19 158.992l-22 20.888v-10h-36.02v-21.775h36.02v-10l22 20.887zm-52.748 144.117l.786-30.325 7.072 7.07 31.92-31.92 15.397 15.397-31.92 31.92 7.07 7.071-30.325.787z" stroke-linejoin="round" stroke="#000"/><path fill="#fff" d="M120.734 315.421H72.96l11.466-18.068h24.843l11.465 18.068z" stroke-width="2" stroke-linejoin="round" stroke="#999"/><path fill="#ed4580" d="M103.573 312.877H90.59v-12.982h12.982v12.982z" stroke-linejoin="round" stroke="#666"/><path fill="#ccc" d="M257.105 250.874q0 19.026-19.026 19.026H41.205q-19.026 0-19.026-19.026V64.065q0-19.025 19.026-19.025h196.87q19.026 0 19.026 19.025v186.81h.004z" stroke-linejoin="round" stroke="#8a8d94"/><path fill="#fff" d="M25.686 81.951v169.491q0 15.104 18.461 15.104h190.99q18.462 0 18.462-15.104V81.951H25.686z"/><path fill="url(#g)" d="M253.599 87.443V67.038q0-18.454-15.104-18.454H40.79q-15.104 0-15.104 18.454v20.405h227.913z"/><path fill="#eee" d="M238.52 159.718H104.454v-19.981H238.52v19.981zm0 23.829H104.454v-19.982H238.52v19.982zm0 23.829H104.454v-19.982H238.52v19.982zm0 23.846H104.454v-20H238.52v20zm0 23.846H104.454v-19.999H238.52v19.999z" stroke-width="2" stroke-linejoin="round" stroke="#7ea6e0"/><path fill="#5389d6" d="M82.024 174.222H39.657v-4.387h42.367v4.387zm0 13.168H39.657v-4.387h42.367v4.386zm0 13.167H39.657v-4.387h42.367v4.387zm0 13.168H39.657v-4.387h42.367v4.387z" stroke-width="2" stroke-linejoin="round" stroke="#286bcc"/><path d="M83.93 147.599H37.75v-43.21h46.18v43.21zm-46.18-43.213L83.93 147.6m0-43.214L37.75 147.6" fill="none" stroke-width="2" stroke-linejoin="round" stroke="#286bcc"/><path fill="#fff" d="M238.52 134.128H104.454v-32.203H238.52v32.203z" stroke-width="2" stroke-linejoin="round" stroke="#286bcc"/><path fill="#fff" d="M240.027 79.685H39.257V56.342h200.77v23.343z" stroke-linejoin="round" stroke="#000"/><g transform="translate(39.257 55.938)"><defs><clipPath id="h"><path d="M0 0h200.77v24.15H0z"/></clipPath></defs><text font-size="14" clip-path="url(#h)" font-family="Helvetica"><tspan x="2" y="17.075" textLength="53">http://cg</tspan></text><text font-size="14" clip-path="url(#h)" fill="#dc0800" font-family="Helvetica"><tspan x="55" y="17.075" textLength="12">m</tspan></text><text font-size="14" clip-path="url(#h)" font-family="Helvetica"><tspan x="67" y="17.075" textLength="87">.example.com</tspan></text></g><path fill="#fff" d="M87.196 45.04H39.422l11.466-18.068H75.73L87.196 45.04z" stroke-width="2" stroke-linejoin="round" stroke="#999"/><path fill="#5389d6" d="M69.8 42.497H56.818V29.515H69.8v12.982z" stroke-linejoin="round" stroke="#666"/><path fill="#fff" d="M86.415 315.421H38.64l11.466-18.068h24.843l11.466 18.068z" stroke-width="2" stroke-linejoin="round" stroke="#999"/><path fill="#5389d6" d="M69.253 312.877H56.27v-12.982h12.982v12.982z" stroke-linejoin="round" stroke="#666"/><g transform="translate(61.991 418.107)"><defs><clipPath id="i"><path d="M0 0h147.14v22.244H0z"/></clipPath></defs><text font-size="14" clip-path="url(#i)" font-family="Arial,Arial"><tspan x="2" y="16.122" textLength="28">Jxck</tspan></text></g><g transform="translate(61.355 481.662)"><defs><clipPath id="j"><path d="M0 0h147.14v22.244H0z"/></clipPath></defs><text font-size="12" clip-path="url(#j)" font-family="Arial,Arial"><tspan x="2" y="13" textLength="86">●●●●●●●●●●●●</tspan></text></g><g transform="translate(187.83 185.36)"><defs><clipPath id="k"><path d="M0 0h42.413v24.05H0z"/></clipPath></defs><text font-size="14" clip-path="url(#k)" text-decoration="underline" fill="#ed4580" font-family="monospace"><tspan x="4" y="17.025" textLength="33">link</tspan></text></g><path fill="#ccc" d="M552 521.618q0 19.026-19.025 19.026H336.1q-19.025 0-19.025-19.026V334.81q0-19.025 19.025-19.025h196.87q19.026 0 19.026 19.025v186.81H552z" stroke-linejoin="round" stroke="#8a8d94"/><path fill="#fff" d="M320.581 352.695v169.491q0 15.104 18.461 15.104h190.99q18.462 0 18.462-15.104v-169.49H320.58z"/><path fill="url(#l)" d="M548.494 358.187v-20.405q0-18.454-15.104-18.454H335.685q-15.104 0-15.104 18.454v20.405h227.913z"/><path fill="#eee" d="M533.415 430.462H399.35v-19.981h134.065v19.981zm0 23.829H399.35V434.31h134.065v19.981zm0 23.829H399.35v-19.982h134.065v19.982zm0 23.846H399.35v-19.999h134.065v20zm0 23.846H399.35v-19.999h134.065v20z" stroke-width="2" stroke-linejoin="round" stroke="#7ea6e0"/><path fill="#5389d6" d="M376.919 444.966h-42.367v-4.387h42.367v4.387zm0 13.168h-42.367v-4.387h42.367v4.387zm0 13.167h-42.367v-4.386h42.367v4.386zm0 13.168h-42.367v-4.387h42.367v4.387z" stroke-width="2" stroke-linejoin="round" stroke="#286bcc"/><path d="M378.826 418.343h-46.18v-43.21h46.18v43.21zm-46.181-43.213l46.18 43.213m.001-43.213l-46.18 43.213" fill="none" stroke-width="2" stroke-linejoin="round" stroke="#286bcc"/><path fill="#fff" d="M533.415 404.872H399.35V372.67h134.065v32.202z" stroke-width="2" stroke-linejoin="round" stroke="#286bcc"/><path fill="#fff" d="M534.922 350.43h-200.77v-23.344h200.77v23.344z" stroke-linejoin="round" stroke="#000"/><g transform="translate(334.152 326.682)"><defs><clipPath id="m"><path d="M0 0h200.77v24.15H0z"/></clipPath></defs><text font-size="14" clip-path="url(#m)" font-family="Helvetica"><tspan x="2" y="17.075" textLength="53">http://cg</tspan></text><text font-size="14" clip-path="url(#m)" fill="#dc0800" font-family="Helvetica"><tspan x="55" y="17.075" textLength="12">m</tspan></text><text font-size="14" clip-path="url(#m)" font-family="Helvetica"><tspan x="67" y="17.075" textLength="87">.example.com</tspan></text></g><path fill="#fff" d="M416.411 315.784h-47.775l11.466-18.068h24.843l11.466 18.068z" stroke-width="2" stroke-linejoin="round" stroke="#999"/><path fill="#fff" d="M382.092 315.784h-47.775l11.466-18.068h24.843l11.466 18.068z" stroke-width="2" stroke-linejoin="round" stroke="#999"/><path fill="#5389d6" d="M364.695 313.24h-12.982v-12.98h12.982v12.982z" stroke-linejoin="round" stroke="#666"/><path fill="#ed4580" d="M399.25 313.24h-12.982v-12.982h12.981v12.982z" stroke-linejoin="round" stroke="#666"/><g transform="translate(474 456.104)"><defs><clipPath id="n"><path d="M0 0h52.197v24.05H0z"/></clipPath></defs><text font-size="14" clip-path="url(#n)" text-decoration="underline" fill="#ed4580" font-family="monospace"><tspan x="9" y="17.025" textLength="33">link</tspan></text></g><path fill="#fff" d="M319.443 442.773l-22 20.887v-10h-36.02v-21.774h36.02v-10l22 20.887z" stroke-linejoin="round" stroke="#000"/><g transform="translate(400.286 1.457)"><defs><clipPath id="o"><path d="M0 0h87.099v25.515H0z"/></clipPath></defs><text font-size="12" clip-path="url(#o)" font-family="Arial,Arial" font-weight="bold"><tspan x="2" y="16.757" textLength="60">tab-naving</tspan></text></g><g transform="translate(261.433 163.522)"><defs><clipPath id="p"><path d="M0 0h58v20.069H0z"/></clipPath></defs><text font-size="13" clip-path="url(#p)" font-family="Arial,Arial" font-weight="bold"><tspan x="8" y="14.534" textLength="41">_blank</tspan></text></g><g transform="rotate(-45 499.99 -171.056)"><defs><clipPath id="q"><path d="M0 0h58v20.069H0z"/></clipPath></defs><text font-size="13" clip-path="url(#q)" font-family="Arial,Arial" font-weight="bold"><tspan x="14" y="14.534" textLength="29">back</tspan></text></g><g transform="translate(259 432.738)"><defs><clipPath id="r"><path d="M0 0h58v20.069H0z"/></clipPath></defs><text font-size="13" clip-path="url(#r)" font-family="Arial,Arial" font-weight="bold"><tspan x="5" y="14.534" textLength="47">redirect</tspan></text></g><g transform="rotate(45 -346.84 369.267)"><defs><clipPath id="s"><path d="M0 0h138v42H0z"/></clipPath></defs><text font-size="30" clip-path="url(#s)" fill="#dc0800" font-family="'Arial Black','Arial Black'" font-weight="bold"><tspan x="10" y="33" textLength="118">Fishing</tspan></text></g><path fill="#fff" stroke-linejoin="round" filter="url(#t)" d="M0 0l15.253 12.711-6.355 1.271 5.084 10.169-2.542 1.271-5.085-10.169L0 19.066V0z" stroke="#000" transform="translate(214.99 197.385)"/></svg>