<svg width="440" height="80" viewBox="0 0 440 80" fill="none" xmlns="http://www.w3.org/2000/svg">
<rect x="30.5" y="22.5" width="379" height="36" rx="3.5" fill="white" stroke="#AAAAAA"/>
<path d="M225.706 35.25V48H224.17V35.25H225.706ZM225.341 43.1689L224.702 43.144C224.707 42.5298 224.799 41.9626 224.976 41.4424C225.153 40.9167 225.402 40.4601 225.723 40.0728C226.044 39.6854 226.425 39.3866 226.868 39.1763C227.316 38.9604 227.812 38.8525 228.354 38.8525C228.797 38.8525 229.195 38.9134 229.549 39.0352C229.903 39.1514 230.205 39.3395 230.454 39.5996C230.709 39.8597 230.902 40.1973 231.035 40.6123C231.168 41.0218 231.234 41.5226 231.234 42.1147V48H229.69V42.0981C229.69 41.6278 229.621 41.2515 229.483 40.9692C229.345 40.6815 229.143 40.474 228.877 40.3467C228.611 40.2139 228.285 40.1475 227.897 40.1475C227.516 40.1475 227.167 40.2277 226.852 40.3882C226.542 40.5487 226.273 40.77 226.046 41.0522C225.825 41.3345 225.651 41.6582 225.523 42.0234C225.402 42.3831 225.341 42.765 225.341 43.1689ZM237.294 39.0186V40.1973H232.438V39.0186H237.294ZM234.082 36.8354H235.617V45.7754C235.617 46.0798 235.664 46.3094 235.758 46.4644C235.852 46.6193 235.974 46.7217 236.124 46.7715C236.273 46.8213 236.433 46.8462 236.605 46.8462C236.732 46.8462 236.865 46.8351 237.003 46.813C237.147 46.7853 237.255 46.7632 237.327 46.7466L237.335 48C237.214 48.0387 237.053 48.0747 236.854 48.1079C236.66 48.1466 236.425 48.166 236.148 48.166C235.772 48.166 235.426 48.0913 235.111 47.9419C234.795 47.7925 234.544 47.5435 234.355 47.1948C234.173 46.8407 234.082 46.3647 234.082 45.7671V36.8354ZM242.855 39.0186V40.1973H238V39.0186H242.855ZM239.643 36.8354H241.179V45.7754C241.179 46.0798 241.226 46.3094 241.32 46.4644C241.414 46.6193 241.536 46.7217 241.685 46.7715C241.834 46.8213 241.995 46.8462 242.167 46.8462C242.294 46.8462 242.427 46.8351 242.565 46.813C242.709 46.7853 242.817 46.7632 242.889 46.7466L242.897 48C242.775 48.0387 242.615 48.0747 242.416 48.1079C242.222 48.1466 241.987 48.166 241.71 48.166C241.334 48.166 240.988 48.0913 240.672 47.9419C240.357 47.7925 240.105 47.5435 239.917 47.1948C239.734 46.8407 239.643 46.3647 239.643 45.7671V36.8354ZM246.192 40.7451V51.4531H244.648V39.0186H246.06L246.192 40.7451ZM252.244 43.4346V43.6089C252.244 44.2619 252.166 44.8678 252.011 45.4268C251.856 45.9801 251.629 46.4616 251.331 46.8711C251.037 47.2806 250.675 47.5988 250.243 47.8257C249.812 48.0526 249.316 48.166 248.757 48.166C248.187 48.166 247.684 48.0719 247.247 47.8838C246.809 47.6956 246.439 47.4217 246.134 47.062C245.83 46.7023 245.586 46.2707 245.404 45.7671C245.227 45.2635 245.105 44.6963 245.039 44.0654V43.1357C245.105 42.4717 245.229 41.8768 245.412 41.3511C245.595 40.8254 245.835 40.3771 246.134 40.0063C246.439 39.63 246.807 39.3451 247.238 39.1514C247.67 38.9521 248.168 38.8525 248.732 38.8525C249.297 38.8525 249.798 38.9632 250.235 39.1846C250.672 39.4004 251.04 39.7103 251.339 40.1143C251.638 40.5182 251.862 41.0024 252.011 41.5669C252.166 42.1258 252.244 42.7484 252.244 43.4346ZM250.7 43.6089V43.4346C250.7 42.9863 250.653 42.5658 250.559 42.1729C250.465 41.7744 250.318 41.4258 250.119 41.127C249.925 40.8226 249.676 40.5846 249.372 40.4131C249.067 40.236 248.705 40.1475 248.284 40.1475C247.897 40.1475 247.559 40.2139 247.271 40.3467C246.989 40.4795 246.749 40.6593 246.549 40.8862C246.35 41.1076 246.187 41.3621 246.06 41.6499C245.938 41.9321 245.847 42.2254 245.786 42.5298V44.6797C245.896 45.0671 246.051 45.4323 246.25 45.7754C246.45 46.113 246.715 46.3869 247.047 46.5972C247.379 46.8019 247.797 46.9043 248.301 46.9043C248.716 46.9043 249.073 46.8185 249.372 46.647C249.676 46.4699 249.925 46.2292 250.119 45.9248C250.318 45.6204 250.465 45.2718 250.559 44.8789C250.653 44.4805 250.7 44.0571 250.7 43.6089ZM259.432 45.6177C259.432 45.3963 259.382 45.1916 259.283 45.0034C259.189 44.8097 258.992 44.6354 258.693 44.4805C258.4 44.32 257.957 44.1816 257.365 44.0654C256.867 43.9603 256.416 43.8358 256.012 43.6919C255.614 43.548 255.273 43.3737 254.991 43.1689C254.715 42.9642 254.501 42.7235 254.352 42.4468C254.203 42.1701 254.128 41.8464 254.128 41.4756C254.128 41.1214 254.205 40.7866 254.36 40.4712C254.521 40.1558 254.745 39.8763 255.033 39.6328C255.326 39.3893 255.677 39.1984 256.087 39.0601C256.496 38.9217 256.953 38.8525 257.457 38.8525C258.176 38.8525 258.79 38.9798 259.299 39.2344C259.808 39.4889 260.199 39.8293 260.47 40.2554C260.741 40.6759 260.876 41.1436 260.876 41.6582H259.341C259.341 41.4092 259.266 41.1685 259.117 40.936C258.973 40.6981 258.76 40.5016 258.478 40.3467C258.201 40.1917 257.861 40.1143 257.457 40.1143C257.03 40.1143 256.685 40.1807 256.419 40.3135C256.159 40.4408 255.968 40.604 255.846 40.8032C255.73 41.0024 255.672 41.2127 255.672 41.4341C255.672 41.6001 255.7 41.7495 255.755 41.8823C255.816 42.0096 255.921 42.1286 256.07 42.2393C256.22 42.3444 256.43 42.444 256.701 42.5381C256.972 42.6322 257.318 42.7262 257.739 42.8203C258.475 42.9863 259.081 43.1855 259.557 43.418C260.033 43.6504 260.387 43.9354 260.619 44.2729C260.852 44.6105 260.968 45.02 260.968 45.5015C260.968 45.8944 260.885 46.2541 260.719 46.5806C260.558 46.9071 260.323 47.1893 260.013 47.4272C259.709 47.6597 259.344 47.8423 258.917 47.9751C258.497 48.1024 258.024 48.166 257.498 48.166C256.707 48.166 256.037 48.0249 255.489 47.7427C254.941 47.4604 254.526 47.0952 254.244 46.647C253.962 46.1987 253.821 45.7256 253.821 45.2275H255.365C255.387 45.6481 255.509 45.9829 255.73 46.2319C255.951 46.4754 256.222 46.6497 256.543 46.7549C256.864 46.8545 257.183 46.9043 257.498 46.9043C257.919 46.9043 258.27 46.849 258.552 46.7383C258.84 46.6276 259.059 46.4754 259.208 46.2817C259.357 46.0881 259.432 45.8667 259.432 45.6177ZM262.918 47.1865C262.918 46.9264 262.999 46.7078 263.159 46.5308C263.325 46.3481 263.563 46.2568 263.873 46.2568C264.183 46.2568 264.418 46.3481 264.579 46.5308C264.745 46.7078 264.828 46.9264 264.828 47.1865C264.828 47.4411 264.745 47.6569 264.579 47.834C264.418 48.0111 264.183 48.0996 263.873 48.0996C263.563 48.0996 263.325 48.0111 263.159 47.834C262.999 47.6569 262.918 47.4411 262.918 47.1865ZM262.927 39.8569C262.927 39.5968 263.007 39.3783 263.167 39.2012C263.333 39.0186 263.571 38.9272 263.881 38.9272C264.191 38.9272 264.426 39.0186 264.587 39.2012C264.753 39.3783 264.836 39.5968 264.836 39.8569C264.836 40.1115 264.753 40.3273 264.587 40.5044C264.426 40.6815 264.191 40.77 263.881 40.77C263.571 40.77 263.333 40.6815 263.167 40.5044C263.007 40.3273 262.927 40.1115 262.927 39.8569ZM272.448 35.9141L267.409 49.0376H266.089L271.136 35.9141H272.448ZM277.611 35.9141L272.572 49.0376H271.252L276.299 35.9141H277.611ZM283.015 48.166C282.389 48.166 281.822 48.0609 281.313 47.8506C280.809 47.6348 280.375 47.3332 280.01 46.9458C279.65 46.5584 279.373 46.0991 279.18 45.5679C278.986 45.0366 278.889 44.4556 278.889 43.8247V43.4761C278.889 42.7456 278.997 42.0954 279.213 41.5254C279.429 40.9499 279.722 40.4629 280.093 40.0645C280.464 39.666 280.884 39.3644 281.354 39.1597C281.825 38.9549 282.312 38.8525 282.815 38.8525C283.457 38.8525 284.011 38.9632 284.476 39.1846C284.946 39.4059 285.331 39.7158 285.629 40.1143C285.928 40.5072 286.15 40.972 286.293 41.5088C286.437 42.04 286.509 42.6211 286.509 43.252V43.9409H279.802V42.6875H284.974V42.5713C284.951 42.1729 284.868 41.7855 284.725 41.4092C284.586 41.0329 284.365 40.723 284.061 40.4795C283.756 40.236 283.341 40.1143 282.815 40.1143C282.467 40.1143 282.146 40.189 281.853 40.3384C281.559 40.4823 281.307 40.6981 281.097 40.9858C280.887 41.2736 280.724 41.625 280.607 42.04C280.491 42.4551 280.433 42.9338 280.433 43.4761V43.8247C280.433 44.2508 280.491 44.652 280.607 45.0283C280.729 45.3991 280.903 45.7256 281.13 46.0078C281.363 46.29 281.642 46.5114 281.969 46.6719C282.301 46.8324 282.677 46.9126 283.098 46.9126C283.64 46.9126 284.099 46.8019 284.476 46.5806C284.852 46.3592 285.181 46.0632 285.463 45.6924L286.393 46.4312C286.199 46.7244 285.953 47.0039 285.654 47.2695C285.355 47.5352 284.987 47.751 284.55 47.917C284.119 48.083 283.607 48.166 283.015 48.166ZM289.34 39.0186L291.307 42.2891L293.299 39.0186H295.101L292.162 43.4512L295.192 48H293.416L291.34 44.6299L289.265 48H287.48L290.502 43.4512L287.572 39.0186H289.34ZM302.032 46.4644V41.8408C302.032 41.4867 301.96 41.1795 301.816 40.9194C301.678 40.6538 301.467 40.4491 301.185 40.3052C300.903 40.1613 300.554 40.0894 300.139 40.0894C299.752 40.0894 299.411 40.1558 299.118 40.2886C298.83 40.4214 298.604 40.5957 298.438 40.8115C298.277 41.0273 298.197 41.2598 298.197 41.5088H296.661C296.661 41.1878 296.744 40.8696 296.91 40.5542C297.076 40.2388 297.314 39.9538 297.624 39.6992C297.939 39.4391 298.316 39.2344 298.753 39.085C299.196 38.93 299.688 38.8525 300.23 38.8525C300.883 38.8525 301.459 38.9632 301.957 39.1846C302.461 39.4059 302.854 39.7407 303.136 40.189C303.424 40.6317 303.567 41.1878 303.567 41.8574V46.041C303.567 46.3398 303.592 46.658 303.642 46.9956C303.697 47.3332 303.778 47.6237 303.883 47.8672V48H302.281C302.203 47.8229 302.142 47.5877 302.098 47.2944C302.054 46.9956 302.032 46.7189 302.032 46.4644ZM302.297 42.5547L302.314 43.6338H300.762C300.325 43.6338 299.934 43.6698 299.591 43.7417C299.248 43.8081 298.96 43.9105 298.728 44.0488C298.496 44.1872 298.319 44.3615 298.197 44.5718C298.075 44.7765 298.014 45.0173 298.014 45.2939C298.014 45.5762 298.078 45.8335 298.205 46.0659C298.332 46.2983 298.523 46.4837 298.778 46.6221C299.038 46.7549 299.356 46.8213 299.732 46.8213C300.203 46.8213 300.618 46.7217 300.978 46.5225C301.337 46.3232 301.622 46.0798 301.833 45.792C302.048 45.5042 302.165 45.2248 302.181 44.9536L302.837 45.6924C302.798 45.9248 302.693 46.1821 302.521 46.4644C302.35 46.7466 302.12 47.0177 301.833 47.2778C301.55 47.5324 301.213 47.7454 300.82 47.917C300.432 48.083 299.995 48.166 299.508 48.166C298.9 48.166 298.366 48.047 297.906 47.8091C297.452 47.5711 297.098 47.2529 296.844 46.8545C296.595 46.4505 296.47 45.9995 296.47 45.5015C296.47 45.02 296.564 44.5967 296.752 44.2314C296.941 43.8607 297.212 43.5535 297.566 43.3101C297.92 43.061 298.346 42.8729 298.844 42.7456C299.342 42.6183 299.898 42.5547 300.513 42.5547H302.297ZM307.51 40.8032V48H305.966V39.0186H307.427L307.51 40.8032ZM307.195 43.1689L306.481 43.144C306.486 42.5298 306.567 41.9626 306.722 41.4424C306.877 40.9167 307.106 40.4601 307.411 40.0728C307.715 39.6854 308.094 39.3866 308.548 39.1763C309.002 38.9604 309.527 38.8525 310.125 38.8525C310.546 38.8525 310.933 38.9134 311.287 39.0352C311.641 39.1514 311.948 39.3368 312.208 39.5913C312.469 39.8459 312.671 40.1724 312.814 40.5708C312.958 40.9692 313.03 41.4507 313.03 42.0151V48H311.495V42.0898C311.495 41.6195 311.414 41.2432 311.254 40.9609C311.099 40.6787 310.878 40.474 310.59 40.3467C310.302 40.2139 309.965 40.1475 309.577 40.1475C309.123 40.1475 308.744 40.2277 308.44 40.3882C308.136 40.5487 307.892 40.77 307.709 41.0522C307.527 41.3345 307.394 41.6582 307.311 42.0234C307.234 42.3831 307.195 42.765 307.195 43.1689ZM313.014 42.3223L311.984 42.6377C311.99 42.1452 312.07 41.672 312.225 41.2183C312.386 40.7645 312.615 40.3605 312.914 40.0063C313.218 39.6522 313.592 39.3727 314.035 39.168C314.477 38.9577 314.984 38.8525 315.554 38.8525C316.035 38.8525 316.461 38.9162 316.832 39.0435C317.208 39.1707 317.524 39.3672 317.778 39.6328C318.038 39.8929 318.235 40.2277 318.368 40.6372C318.5 41.0467 318.567 41.5337 318.567 42.0981V48H317.023V42.0815C317.023 41.578 316.943 41.1878 316.782 40.9111C316.627 40.6289 316.406 40.4325 316.118 40.3218C315.836 40.2056 315.498 40.1475 315.105 40.1475C314.768 40.1475 314.469 40.2056 314.209 40.3218C313.949 40.438 313.73 40.5985 313.553 40.8032C313.376 41.0024 313.241 41.2321 313.146 41.4922C313.058 41.7523 313.014 42.029 313.014 42.3223ZM322.427 40.7451V51.4531H320.883V39.0186H322.294L322.427 40.7451ZM328.478 43.4346V43.6089C328.478 44.2619 328.401 44.8678 328.246 45.4268C328.091 45.9801 327.864 46.4616 327.565 46.8711C327.272 47.2806 326.909 47.5988 326.478 47.8257C326.046 48.0526 325.551 48.166 324.992 48.166C324.422 48.166 323.918 48.0719 323.481 47.8838C323.044 47.6956 322.673 47.4217 322.369 47.062C322.064 46.7023 321.821 46.2707 321.638 45.7671C321.461 45.2635 321.339 44.6963 321.273 44.0654V43.1357C321.339 42.4717 321.464 41.8768 321.646 41.3511C321.829 40.8254 322.07 40.3771 322.369 40.0063C322.673 39.63 323.041 39.3451 323.473 39.1514C323.904 38.9521 324.402 38.8525 324.967 38.8525C325.531 38.8525 326.032 38.9632 326.469 39.1846C326.906 39.4004 327.274 39.7103 327.573 40.1143C327.872 40.5182 328.096 41.0024 328.246 41.5669C328.401 42.1258 328.478 42.7484 328.478 43.4346ZM326.934 43.6089V43.4346C326.934 42.9863 326.887 42.5658 326.793 42.1729C326.699 41.7744 326.552 41.4258 326.353 41.127C326.159 40.8226 325.91 40.5846 325.606 40.4131C325.302 40.236 324.939 40.1475 324.519 40.1475C324.131 40.1475 323.794 40.2139 323.506 40.3467C323.224 40.4795 322.983 40.6593 322.784 40.8862C322.584 41.1076 322.421 41.3621 322.294 41.6499C322.172 41.9321 322.081 42.2254 322.02 42.5298V44.6797C322.131 45.0671 322.286 45.4323 322.485 45.7754C322.684 46.113 322.95 46.3869 323.282 46.5972C323.614 46.8019 324.032 46.9043 324.535 46.9043C324.95 46.9043 325.307 46.8185 325.606 46.647C325.91 46.4699 326.159 46.2292 326.353 45.9248C326.552 45.6204 326.699 45.2718 326.793 44.8789C326.887 44.4805 326.934 44.0571 326.934 43.6089ZM332.105 35.25V48H330.562V35.25H332.105ZM338.298 48.166C337.673 48.166 337.105 48.0609 336.596 47.8506C336.093 47.6348 335.658 47.3332 335.293 46.9458C334.933 46.5584 334.657 46.0991 334.463 45.5679C334.269 45.0366 334.172 44.4556 334.172 43.8247V43.4761C334.172 42.7456 334.28 42.0954 334.496 41.5254C334.712 40.9499 335.005 40.4629 335.376 40.0645C335.747 39.666 336.167 39.3644 336.638 39.1597C337.108 38.9549 337.595 38.8525 338.099 38.8525C338.741 38.8525 339.294 38.9632 339.759 39.1846C340.229 39.4059 340.614 39.7158 340.913 40.1143C341.211 40.5072 341.433 40.972 341.577 41.5088C341.721 42.04 341.792 42.6211 341.792 43.252V43.9409H335.085V42.6875H340.257V42.5713C340.235 42.1729 340.152 41.7855 340.008 41.4092C339.869 41.0329 339.648 40.723 339.344 40.4795C339.039 40.236 338.624 40.1143 338.099 40.1143C337.75 40.1143 337.429 40.189 337.136 40.3384C336.842 40.4823 336.591 40.6981 336.38 40.9858C336.17 41.2736 336.007 41.625 335.891 42.04C335.774 42.4551 335.716 42.9338 335.716 43.4761V43.8247C335.716 44.2508 335.774 44.652 335.891 45.0283C336.012 45.3991 336.187 45.7256 336.414 46.0078C336.646 46.29 336.925 46.5114 337.252 46.6719C337.584 46.8324 337.96 46.9126 338.381 46.9126C338.923 46.9126 339.382 46.8019 339.759 46.5806C340.135 46.3592 340.464 46.0632 340.747 45.6924L341.676 46.4312C341.483 46.7244 341.236 47.0039 340.938 47.2695C340.639 47.5352 340.271 47.751 339.833 47.917C339.402 48.083 338.89 48.166 338.298 48.166ZM343.61 47.1865C343.61 46.9264 343.691 46.7078 343.851 46.5308C344.017 46.3481 344.255 46.2568 344.565 46.2568C344.875 46.2568 345.11 46.3481 345.271 46.5308C345.437 46.7078 345.52 46.9264 345.52 47.1865C345.52 47.4411 345.437 47.6569 345.271 47.834C345.11 48.0111 344.875 48.0996 344.565 48.0996C344.255 48.0996 344.017 48.0111 343.851 47.834C343.691 47.6569 343.61 47.4411 343.61 47.1865ZM351.662 46.9043C352.027 46.9043 352.365 46.8296 352.675 46.6802C352.985 46.5308 353.239 46.326 353.438 46.0659C353.638 45.8003 353.751 45.4987 353.779 45.1611H355.24C355.212 45.6924 355.032 46.1877 354.7 46.647C354.374 47.1007 353.945 47.4688 353.414 47.751C352.882 48.0277 352.299 48.166 351.662 48.166C350.987 48.166 350.398 48.047 349.894 47.8091C349.396 47.5711 348.981 47.2446 348.649 46.8296C348.322 46.4146 348.076 45.9386 347.91 45.4019C347.75 44.8595 347.669 44.2868 347.669 43.6836V43.335C347.669 42.7318 347.75 42.1618 347.91 41.625C348.076 41.0827 348.322 40.604 348.649 40.189C348.981 39.7739 349.396 39.4474 349.894 39.2095C350.398 38.9715 350.987 38.8525 351.662 38.8525C352.365 38.8525 352.979 38.9964 353.505 39.2842C354.031 39.5664 354.443 39.9538 354.742 40.4463C355.046 40.9333 355.212 41.4867 355.24 42.1064H353.779C353.751 41.7357 353.646 41.4009 353.463 41.1021C353.286 40.8032 353.043 40.5653 352.733 40.3882C352.429 40.2056 352.072 40.1143 351.662 40.1143C351.192 40.1143 350.796 40.2083 350.475 40.3965C350.16 40.5791 349.908 40.8281 349.72 41.1436C349.537 41.4535 349.404 41.7993 349.321 42.1812C349.244 42.5575 349.205 42.9421 349.205 43.335V43.6836C349.205 44.0765 349.244 44.4639 349.321 44.8457C349.399 45.2275 349.529 45.5734 349.711 45.8833C349.9 46.1932 350.151 46.4422 350.467 46.6304C350.788 46.813 351.186 46.9043 351.662 46.9043ZM356.56 43.6089V43.418C356.56 42.7705 356.654 42.1701 356.842 41.6167C357.03 41.0578 357.301 40.5736 357.655 40.1641C358.009 39.749 358.438 39.4281 358.942 39.2012C359.445 38.9688 360.01 38.8525 360.635 38.8525C361.266 38.8525 361.833 38.9688 362.337 39.2012C362.846 39.4281 363.278 39.749 363.632 40.1641C363.992 40.5736 364.265 41.0578 364.454 41.6167C364.642 42.1701 364.736 42.7705 364.736 43.418V43.6089C364.736 44.2563 364.642 44.8568 364.454 45.4102C364.265 45.9635 363.992 46.4478 363.632 46.8628C363.278 47.2723 362.849 47.5933 362.345 47.8257C361.847 48.0526 361.283 48.166 360.652 48.166C360.021 48.166 359.454 48.0526 358.95 47.8257C358.447 47.5933 358.015 47.2723 357.655 46.8628C357.301 46.4478 357.03 45.9635 356.842 45.4102C356.654 44.8568 356.56 44.2563 356.56 43.6089ZM358.095 43.418V43.6089C358.095 44.0571 358.148 44.4805 358.253 44.8789C358.358 45.2718 358.516 45.6204 358.726 45.9248C358.942 46.2292 359.21 46.4699 359.531 46.647C359.852 46.8185 360.226 46.9043 360.652 46.9043C361.072 46.9043 361.44 46.8185 361.756 46.647C362.077 46.4699 362.342 46.2292 362.553 45.9248C362.763 45.6204 362.921 45.2718 363.026 44.8789C363.137 44.4805 363.192 44.0571 363.192 43.6089V43.418C363.192 42.9753 363.137 42.5575 363.026 42.1646C362.921 41.7661 362.76 41.4147 362.544 41.1104C362.334 40.8005 362.069 40.557 361.748 40.3799C361.432 40.2028 361.061 40.1143 360.635 40.1143C360.215 40.1143 359.844 40.2028 359.523 40.3799C359.208 40.557 358.942 40.8005 358.726 41.1104C358.516 41.4147 358.358 41.7661 358.253 42.1646C358.148 42.5575 358.095 42.9753 358.095 43.418ZM368.189 40.8032V48H366.645V39.0186H368.106L368.189 40.8032ZM367.874 43.1689L367.16 43.144C367.165 42.5298 367.245 41.9626 367.4 41.4424C367.555 40.9167 367.785 40.4601 368.089 40.0728C368.394 39.6854 368.773 39.3866 369.227 39.1763C369.68 38.9604 370.206 38.8525 370.804 38.8525C371.224 38.8525 371.612 38.9134 371.966 39.0352C372.32 39.1514 372.627 39.3368 372.887 39.5913C373.147 39.8459 373.349 40.1724 373.493 40.5708C373.637 40.9692 373.709 41.4507 373.709 42.0151V48H372.173V42.0898C372.173 41.6195 372.093 41.2432 371.933 40.9609C371.778 40.6787 371.556 40.474 371.269 40.3467C370.981 40.2139 370.643 40.1475 370.256 40.1475C369.802 40.1475 369.423 40.2277 369.119 40.3882C368.814 40.5487 368.571 40.77 368.388 41.0522C368.206 41.3345 368.073 41.6582 367.99 42.0234C367.912 42.3831 367.874 42.765 367.874 43.1689ZM373.692 42.3223L372.663 42.6377C372.669 42.1452 372.749 41.672 372.904 41.2183C373.064 40.7645 373.294 40.3605 373.593 40.0063C373.897 39.6522 374.271 39.3727 374.713 39.168C375.156 38.9577 375.662 38.8525 376.232 38.8525C376.714 38.8525 377.14 38.9162 377.511 39.0435C377.887 39.1707 378.202 39.3672 378.457 39.6328C378.717 39.8929 378.914 40.2277 379.046 40.6372C379.179 41.0467 379.246 41.5337 379.246 42.0981V48H377.702V42.0815C377.702 41.578 377.621 41.1878 377.461 40.9111C377.306 40.6289 377.085 40.4325 376.797 40.3218C376.515 40.2056 376.177 40.1475 375.784 40.1475C375.447 40.1475 375.148 40.2056 374.888 40.3218C374.628 40.438 374.409 40.5985 374.232 40.8032C374.055 41.0024 373.919 41.2321 373.825 41.4922C373.737 41.7523 373.692 42.029 373.692 42.3223Z" fill="#333333"/>
<a href="https://example.com">
<rect fill="black" fill-opacity="0" y="0.0390625" width="157.399" height="19.9219"/>
</a>
<line x1="212.5" y1="32" x2="212.5" y2="51" stroke="#11EE11"/>
<path d="M75.0811 46.6968V48H68.6812V46.6968H75.0811ZM69.0049 35.9141V48H67.4028V35.9141H69.0049ZM74.2344 41.1104V42.4136H68.6812V41.1104H74.2344ZM74.998 35.9141V37.2256H68.6812V35.9141H74.998ZM77.8701 39.0186L79.8374 42.2891L81.8296 39.0186H83.6309L80.6924 43.4512L83.7222 48H81.9458L79.8706 44.6299L77.7954 48H76.0107L79.0322 43.4512L76.1021 39.0186H77.8701ZM90.562 46.4644V41.8408C90.562 41.4867 90.4901 41.1795 90.3462 40.9194C90.2078 40.6538 89.9976 40.4491 89.7153 40.3052C89.4331 40.1613 89.0845 40.0894 88.6694 40.0894C88.2821 40.0894 87.9417 40.1558 87.6484 40.2886C87.3607 40.4214 87.1338 40.5957 86.9678 40.8115C86.8073 41.0273 86.7271 41.2598 86.7271 41.5088H85.1914C85.1914 41.1878 85.2744 40.8696 85.4404 40.5542C85.6064 40.2388 85.8444 39.9538 86.1543 39.6992C86.4697 39.4391 86.846 39.2344 87.2832 39.085C87.7259 38.93 88.2184 38.8525 88.7607 38.8525C89.4137 38.8525 89.9893 38.9632 90.4873 39.1846C90.9909 39.4059 91.3838 39.7407 91.666 40.189C91.9538 40.6317 92.0977 41.1878 92.0977 41.8574V46.041C92.0977 46.3398 92.1226 46.658 92.1724 46.9956C92.2277 47.3332 92.3079 47.6237 92.4131 47.8672V48H90.811C90.7336 47.8229 90.6727 47.5877 90.6284 47.2944C90.5841 46.9956 90.562 46.7189 90.562 46.4644ZM90.8276 42.5547L90.8442 43.6338H89.292C88.8548 43.6338 88.4647 43.6698 88.1216 43.7417C87.7785 43.8081 87.4907 43.9105 87.2583 44.0488C87.0259 44.1872 86.8488 44.3615 86.7271 44.5718C86.6053 44.7765 86.5444 45.0173 86.5444 45.2939C86.5444 45.5762 86.6081 45.8335 86.7354 46.0659C86.8626 46.2983 87.0535 46.4837 87.3081 46.6221C87.5682 46.7549 87.8864 46.8213 88.2627 46.8213C88.7331 46.8213 89.1481 46.7217 89.5078 46.5225C89.8675 46.3232 90.1525 46.0798 90.3628 45.792C90.5786 45.5042 90.6948 45.2248 90.7114 44.9536L91.3672 45.6924C91.3285 45.9248 91.2233 46.1821 91.0518 46.4644C90.8802 46.7466 90.6506 47.0177 90.3628 47.2778C90.0806 47.5324 89.743 47.7454 89.3501 47.917C88.9627 48.083 88.5256 48.166 88.0386 48.166C87.4299 48.166 86.8958 48.047 86.4365 47.8091C85.9827 47.5711 85.6286 47.2529 85.374 46.8545C85.125 46.4505 85.0005 45.9995 85.0005 45.5015C85.0005 45.02 85.0946 44.5967 85.2827 44.2314C85.4709 43.8607 85.742 43.5535 86.0962 43.3101C86.4504 43.061 86.8765 42.8729 87.3745 42.7456C87.8726 42.6183 88.4287 42.5547 89.043 42.5547H90.8276ZM96.0405 40.8032V48H94.4966V39.0186H95.9575L96.0405 40.8032ZM95.7251 43.1689L95.0112 43.144C95.0168 42.5298 95.097 41.9626 95.252 41.4424C95.4069 40.9167 95.6366 40.4601 95.9409 40.0728C96.2453 39.6854 96.6243 39.3866 97.0781 39.1763C97.5319 38.9604 98.0576 38.8525 98.6553 38.8525C99.0758 38.8525 99.4632 38.9134 99.8174 39.0352C100.172 39.1514 100.479 39.3368 100.739 39.5913C100.999 39.8459 101.201 40.1724 101.345 40.5708C101.489 40.9692 101.561 41.4507 101.561 42.0151V48H100.025V42.0898C100.025 41.6195 99.9447 41.2432 99.7842 40.9609C99.6292 40.6787 99.4079 40.474 99.1201 40.3467C98.8324 40.2139 98.4948 40.1475 98.1074 40.1475C97.6536 40.1475 97.2746 40.2277 96.9702 40.3882C96.6659 40.5487 96.4224 40.77 96.2397 41.0522C96.0571 41.3345 95.9243 41.6582 95.8413 42.0234C95.7638 42.3831 95.7251 42.765 95.7251 43.1689ZM101.544 42.3223L100.515 42.6377C100.52 42.1452 100.6 41.672 100.755 41.2183C100.916 40.7645 101.146 40.3605 101.444 40.0063C101.749 39.6522 102.122 39.3727 102.565 39.168C103.008 38.9577 103.514 38.8525 104.084 38.8525C104.565 38.8525 104.992 38.9162 105.362 39.0435C105.739 39.1707 106.054 39.3672 106.309 39.6328C106.569 39.8929 106.765 40.2277 106.898 40.6372C107.031 41.0467 107.097 41.5337 107.097 42.0981V48H105.553V42.0815C105.553 41.578 105.473 41.1878 105.312 40.9111C105.158 40.6289 104.936 40.4325 104.648 40.3218C104.366 40.2056 104.029 40.1475 103.636 40.1475C103.298 40.1475 102.999 40.2056 102.739 40.3218C102.479 40.438 102.261 40.5985 102.083 40.8032C101.906 41.0024 101.771 41.2321 101.677 41.4922C101.588 41.7523 101.544 42.029 101.544 42.3223ZM110.957 40.7451V51.4531H109.413V39.0186H110.824L110.957 40.7451ZM117.008 43.4346V43.6089C117.008 44.2619 116.931 44.8678 116.776 45.4268C116.621 45.9801 116.394 46.4616 116.095 46.8711C115.802 47.2806 115.439 47.5988 115.008 47.8257C114.576 48.0526 114.081 48.166 113.522 48.166C112.952 48.166 112.448 48.0719 112.011 47.8838C111.574 47.6956 111.203 47.4217 110.899 47.062C110.595 46.7023 110.351 46.2707 110.168 45.7671C109.991 45.2635 109.87 44.6963 109.803 44.0654V43.1357C109.87 42.4717 109.994 41.8768 110.177 41.3511C110.359 40.8254 110.6 40.3771 110.899 40.0063C111.203 39.63 111.571 39.3451 112.003 39.1514C112.435 38.9521 112.933 38.8525 113.497 38.8525C114.062 38.8525 114.562 38.9632 115 39.1846C115.437 39.4004 115.805 39.7103 116.104 40.1143C116.402 40.5182 116.626 41.0024 116.776 41.5669C116.931 42.1258 117.008 42.7484 117.008 43.4346ZM115.464 43.6089V43.4346C115.464 42.9863 115.417 42.5658 115.323 42.1729C115.229 41.7744 115.083 41.4258 114.883 41.127C114.69 40.8226 114.441 40.5846 114.136 40.4131C113.832 40.236 113.469 40.1475 113.049 40.1475C112.661 40.1475 112.324 40.2139 112.036 40.3467C111.754 40.4795 111.513 40.6593 111.314 40.8862C111.115 41.1076 110.951 41.3621 110.824 41.6499C110.702 41.9321 110.611 42.2254 110.55 42.5298V44.6797C110.661 45.0671 110.816 45.4323 111.015 45.7754C111.214 46.113 111.48 46.3869 111.812 46.5972C112.144 46.8019 112.562 46.9043 113.065 46.9043C113.48 46.9043 113.837 46.8185 114.136 46.647C114.441 46.4699 114.69 46.2292 114.883 45.9248C115.083 45.6204 115.229 45.2718 115.323 44.8789C115.417 44.4805 115.464 44.0571 115.464 43.6089ZM120.636 35.25V48H119.092V35.25H120.636ZM126.828 48.166C126.203 48.166 125.636 48.0609 125.126 47.8506C124.623 47.6348 124.188 47.3332 123.823 46.9458C123.464 46.5584 123.187 46.0991 122.993 45.5679C122.799 45.0366 122.703 44.4556 122.703 43.8247V43.4761C122.703 42.7456 122.811 42.0954 123.026 41.5254C123.242 40.9499 123.535 40.4629 123.906 40.0645C124.277 39.666 124.698 39.3644 125.168 39.1597C125.638 38.9549 126.125 38.8525 126.629 38.8525C127.271 38.8525 127.824 38.9632 128.289 39.1846C128.759 39.4059 129.144 39.7158 129.443 40.1143C129.742 40.5072 129.963 40.972 130.107 41.5088C130.251 42.04 130.323 42.6211 130.323 43.252V43.9409H123.616V42.6875H128.787V42.5713C128.765 42.1729 128.682 41.7855 128.538 41.4092C128.4 41.0329 128.178 40.723 127.874 40.4795C127.57 40.236 127.155 40.1143 126.629 40.1143C126.28 40.1143 125.959 40.189 125.666 40.3384C125.373 40.4823 125.121 40.6981 124.911 40.9858C124.7 41.2736 124.537 41.625 124.421 42.04C124.305 42.4551 124.247 42.9338 124.247 43.4761V43.8247C124.247 44.2508 124.305 44.652 124.421 45.0283C124.543 45.3991 124.717 45.7256 124.944 46.0078C125.176 46.29 125.456 46.5114 125.782 46.6719C126.114 46.8324 126.491 46.9126 126.911 46.9126C127.453 46.9126 127.913 46.8019 128.289 46.5806C128.665 46.3592 128.995 46.0632 129.277 45.6924L130.207 46.4312C130.013 46.7244 129.767 47.0039 129.468 47.2695C129.169 47.5352 128.801 47.751 128.364 47.917C127.932 48.083 127.42 48.166 126.828 48.166ZM133.51 46.1738V47.4106C133.51 47.9142 133.383 48.4455 133.128 49.0044C132.874 49.5688 132.517 50.0392 132.058 50.4155L131.186 49.8096C131.363 49.5661 131.513 49.3171 131.634 49.0625C131.756 48.8135 131.847 48.5534 131.908 48.2822C131.975 48.0166 132.008 47.7344 132.008 47.4355V46.1738H133.51ZM141.637 35.9141V48H140.035V35.9141H141.637ZM145.854 40.936V48H144.318V39.0186H145.771L145.854 40.936ZM145.488 43.1689L144.849 43.144C144.855 42.5298 144.946 41.9626 145.123 41.4424C145.3 40.9167 145.549 40.4601 145.87 40.0728C146.191 39.6854 146.573 39.3866 147.016 39.1763C147.464 38.9604 147.959 38.8525 148.501 38.8525C148.944 38.8525 149.343 38.9134 149.697 39.0352C150.051 39.1514 150.353 39.3395 150.602 39.5996C150.856 39.8597 151.05 40.1973 151.183 40.6123C151.315 41.0218 151.382 41.5226 151.382 42.1147V48H149.838V42.0981C149.838 41.6278 149.769 41.2515 149.63 40.9692C149.492 40.6815 149.29 40.474 149.024 40.3467C148.759 40.2139 148.432 40.1475 148.045 40.1475C147.663 40.1475 147.314 40.2277 146.999 40.3882C146.689 40.5487 146.421 40.77 146.194 41.0522C145.972 41.3345 145.798 41.6582 145.671 42.0234C145.549 42.3831 145.488 42.765 145.488 43.1689ZM157.309 46.9043C157.674 46.9043 158.011 46.8296 158.321 46.6802C158.631 46.5308 158.886 46.326 159.085 46.0659C159.284 45.8003 159.398 45.4987 159.425 45.1611H160.886C160.859 45.6924 160.679 46.1877 160.347 46.647C160.02 47.1007 159.591 47.4688 159.06 47.751C158.529 48.0277 157.945 48.166 157.309 48.166C156.633 48.166 156.044 48.047 155.541 47.8091C155.042 47.5711 154.627 47.2446 154.295 46.8296C153.969 46.4146 153.723 45.9386 153.557 45.4019C153.396 44.8595 153.316 44.2868 153.316 43.6836V43.335C153.316 42.7318 153.396 42.1618 153.557 41.625C153.723 41.0827 153.969 40.604 154.295 40.189C154.627 39.7739 155.042 39.4474 155.541 39.2095C156.044 38.9715 156.633 38.8525 157.309 38.8525C158.011 38.8525 158.626 38.9964 159.151 39.2842C159.677 39.5664 160.089 39.9538 160.388 40.4463C160.693 40.9333 160.859 41.4867 160.886 42.1064H159.425C159.398 41.7357 159.292 41.4009 159.11 41.1021C158.933 40.8032 158.689 40.5653 158.379 40.3882C158.075 40.2056 157.718 40.1143 157.309 40.1143C156.838 40.1143 156.443 40.2083 156.122 40.3965C155.806 40.5791 155.554 40.8281 155.366 41.1436C155.184 41.4535 155.051 41.7993 154.968 42.1812C154.89 42.5575 154.852 42.9421 154.852 43.335V43.6836C154.852 44.0765 154.89 44.4639 154.968 44.8457C155.045 45.2275 155.175 45.5734 155.358 45.8833C155.546 46.1932 155.798 46.4422 156.113 46.6304C156.434 46.813 156.833 46.9043 157.309 46.9043ZM162.638 47.1865C162.638 46.9264 162.718 46.7078 162.878 46.5308C163.044 46.3481 163.282 46.2568 163.592 46.2568C163.902 46.2568 164.137 46.3481 164.298 46.5308C164.464 46.7078 164.547 46.9264 164.547 47.1865C164.547 47.4411 164.464 47.6569 164.298 47.834C164.137 48.0111 163.902 48.0996 163.592 48.0996C163.282 48.0996 163.044 48.0111 162.878 47.834C162.718 47.6569 162.638 47.4411 162.638 47.1865ZM171.254 43.1689V43.0859C171.254 41.8796 171.389 40.7894 171.661 39.8154C171.932 38.8359 172.278 37.9782 172.698 37.2422C173.119 36.5062 173.562 35.8975 174.026 35.416C174.491 34.929 174.92 34.5776 175.313 34.3618L175.637 35.3745C175.31 35.6235 174.978 35.9666 174.641 36.4038C174.309 36.841 174.001 37.3778 173.719 38.0142C173.443 38.6506 173.218 39.3893 173.047 40.2305C172.875 41.0716 172.79 42.0179 172.79 43.0693V43.1855C172.79 44.237 172.875 45.186 173.047 46.0327C173.218 46.8739 173.443 47.6154 173.719 48.2573C174.001 48.8993 174.309 49.4443 174.641 49.8926C174.978 50.3464 175.31 50.7061 175.637 50.9717L175.313 51.9014C174.92 51.6855 174.491 51.3341 174.026 50.8472C173.562 50.3657 173.119 49.757 172.698 49.021C172.278 48.2905 171.932 47.4355 171.661 46.4561C171.389 45.4766 171.254 44.3809 171.254 43.1689ZM184.286 35.9141H185.88V44.0903C185.88 44.9979 185.678 45.7533 185.274 46.3564C184.87 46.9596 184.333 47.4134 183.664 47.7178C183 48.0166 182.277 48.166 181.497 48.166C180.678 48.166 179.937 48.0166 179.272 47.7178C178.614 47.4134 178.091 46.9596 177.704 46.3564C177.322 45.7533 177.131 44.9979 177.131 44.0903V35.9141H178.716V44.0903C178.716 44.7212 178.833 45.2414 179.065 45.6509C179.297 46.0604 179.621 46.3647 180.036 46.564C180.457 46.7632 180.944 46.8628 181.497 46.8628C182.056 46.8628 182.543 46.7632 182.958 46.564C183.379 46.3647 183.705 46.0604 183.938 45.6509C184.17 45.2414 184.286 44.7212 184.286 44.0903V35.9141ZM194.836 44.9453C194.836 44.6631 194.792 44.4141 194.704 44.1982C194.621 43.9769 194.471 43.7777 194.255 43.6006C194.045 43.4235 193.752 43.2547 193.375 43.0942C193.005 42.9338 192.534 42.7705 191.964 42.6045C191.367 42.4274 190.827 42.231 190.346 42.0151C189.864 41.7938 189.452 41.542 189.109 41.2598C188.766 40.9775 188.503 40.6538 188.32 40.2886C188.138 39.9233 188.046 39.5055 188.046 39.0352C188.046 38.5648 188.143 38.1304 188.337 37.7319C188.531 37.3335 188.807 36.9876 189.167 36.6943C189.532 36.3955 189.967 36.1631 190.47 35.9971C190.974 35.8311 191.535 35.748 192.155 35.748C193.063 35.748 193.832 35.9224 194.463 36.271C195.099 36.6141 195.583 37.0651 195.916 37.624C196.248 38.1774 196.414 38.7695 196.414 39.4004H194.82C194.82 38.9466 194.723 38.5454 194.529 38.1968C194.336 37.8426 194.042 37.5659 193.649 37.3667C193.257 37.1619 192.758 37.0596 192.155 37.0596C191.585 37.0596 191.115 37.1453 190.744 37.3169C190.373 37.4884 190.097 37.7209 189.914 38.0142C189.737 38.3075 189.648 38.6423 189.648 39.0186C189.648 39.2731 189.701 39.5055 189.806 39.7158C189.917 39.9206 190.086 40.1115 190.312 40.2886C190.545 40.4657 190.838 40.6289 191.192 40.7783C191.552 40.9277 191.981 41.0716 192.479 41.21C193.165 41.4036 193.757 41.6195 194.255 41.8574C194.753 42.0954 195.163 42.3638 195.484 42.6626C195.81 42.9559 196.051 43.2907 196.206 43.667C196.367 44.0378 196.447 44.4583 196.447 44.9287C196.447 45.4212 196.347 45.8667 196.148 46.2651C195.949 46.6636 195.664 47.0039 195.293 47.2861C194.922 47.5684 194.477 47.7869 193.957 47.9419C193.442 48.0913 192.866 48.166 192.23 48.166C191.671 48.166 191.12 48.0885 190.578 47.9336C190.041 47.7786 189.552 47.5462 189.109 47.2363C188.672 46.9264 188.32 46.5446 188.055 46.0908C187.795 45.6315 187.665 45.1003 187.665 44.4971H189.258C189.258 44.9121 189.339 45.269 189.499 45.5679C189.66 45.8612 189.878 46.1047 190.155 46.2983C190.437 46.492 190.755 46.6359 191.109 46.73C191.469 46.8185 191.843 46.8628 192.23 46.8628C192.789 46.8628 193.262 46.7853 193.649 46.6304C194.037 46.4754 194.33 46.2541 194.529 45.9663C194.734 45.6785 194.836 45.3382 194.836 44.9453ZM201.792 43.0859V43.1689C201.792 44.3809 201.657 45.4766 201.386 46.4561C201.115 47.4355 200.769 48.2905 200.348 49.021C199.928 49.757 199.485 50.3657 199.02 50.8472C198.555 51.3341 198.126 51.6855 197.733 51.9014L197.41 50.9717C197.736 50.7227 198.065 50.374 198.397 49.9258C198.729 49.4831 199.037 48.9352 199.319 48.2822C199.601 47.6348 199.828 46.8877 200 46.041C200.171 45.1888 200.257 44.237 200.257 43.1855V43.0693C200.257 42.0179 200.166 41.0688 199.983 40.2222C199.8 39.37 199.562 38.6201 199.269 37.9727C198.981 37.3252 198.671 36.7801 198.339 36.3374C198.013 35.8892 197.703 35.5433 197.41 35.2998L197.733 34.3618C198.126 34.5776 198.555 34.929 199.02 35.416C199.485 35.8975 199.928 36.5062 200.348 37.2422C200.769 37.9782 201.115 38.8359 201.386 39.8154C201.657 40.7894 201.792 41.8796 201.792 43.0859Z" fill="#11EE11"/>
<path d="M40 37.68C40 36.2882 41.0233 35.16 42.2857 35.16H53.7143C54.9767 35.16 56 36.2882 56 37.68V47.48C56 48.8718 54.9767 50 53.7143 50H42.2857C41.0233 50 40 48.8718 40 47.48V37.68Z" fill="#11EE11"/>
<path fill-rule="evenodd" clip-rule="evenodd" d="M47.873 35.16C50.1172 35.16 50.0317 35.16 51.9365 35.16C51.9365 32.6858 50.1172 30.68 47.873 30.68C45.6288 30.68 43.8095 32.6858 43.8095 35.16C45.5873 35.16 45.6288 35.16 47.873 35.16ZM47.873 35.16C50.9588 35.16 50.2857 35.16 53.4603 35.16C53.4603 31.7579 50.9588 29 47.873 29C44.7872 29 42.2857 31.7579 42.2857 35.16C45.5873 35.16 44.7872 35.16 47.873 35.16Z" fill="#11EE11"/>
</svg>
